<svg xmlns="http://www.w3.org/2000/svg" width="125.136" height="106.518" viewBox="0 0 125.136 106.518">
  <g id="CONSULTING_Artboard_1" data-name="CONSULTING_Artboard 1" transform="translate(-50.166 -90.269)">
    <g id="Background_Simple" data-name="Background Simple" transform="translate(55.618 90.269)">
      <g id="Group_1591" data-name="Group 1591">
        <path id="Path_5266" data-name="Path 5266" d="M124.568,92.79c-24.617,11.075-2.271,30.816-16.485,41.566s-52.86-1.677-38.127,26.24c17.306,32.793,93.087,28.239,109.427-11.985s-30.2-66.9-54.814-55.822Z" transform="translate(-66.662 -90.269)" fill="#407bff"/>
        <path id="Path_5267" data-name="Path 5267" d="M124.568,92.79c-24.617,11.075-2.271,30.816-16.485,41.566s-52.86-1.677-38.127,26.24c17.306,32.793,93.087,28.239,109.427-11.985s-30.2-66.9-54.814-55.822Z" transform="translate(-66.662 -90.269)" fill="#fff" opacity="0.9"/>
      </g>
    </g>
    <g id="Shadow" transform="translate(52.285 189.638)">
      <ellipse id="_lt_Path_gt_" data-name="&amp;lt;Path&amp;gt;" cx="61.232" cy="3.575" rx="61.232" ry="3.575" transform="translate(0)" fill="#f5f5f5"/>
    </g>
    <g id="Plant" transform="translate(50.52 157.824)">
      <g id="Group_1603" data-name="Group 1603">
        <path id="Path_5268" data-name="Path 5268" d="M95.28,310.74a.87.87,0,0,1-.42.407" transform="translate(-80.857 -308.668)" fill="none" stroke="#407bff" stroke-linecap="round" stroke-linejoin="round" stroke-width="0.5"/>
        <path id="Path_5269" data-name="Path 5269" d="M88.97,306.06s.4.619.133.805" transform="translate(-76.827 -305.466)" fill="none" stroke="#407bff" stroke-linecap="round" stroke-linejoin="round" stroke-width="0.5"/>
        <line id="Line_131" data-name="Line 131" x2="0.189" y2="0.827" transform="translate(9.853 0.486)" fill="none" stroke="#407bff" stroke-linecap="round" stroke-linejoin="round" stroke-width="0.5"/>
        <g id="Group_1592" data-name="Group 1592" transform="translate(0.3 0.935)">
          <path id="Path_5270" data-name="Path 5270" d="M95.91,367.2s2.447-2.915,4.017-1.554.774,4.241-1.033,4.336a4.538,4.538,0,0,1-2.981-.913V367.2Z" transform="translate(-81.876 -346.921)" fill="#407bff"/>
          <path id="Path_5271" data-name="Path 5271" d="M95.91,367.2s2.447-2.915,4.017-1.554.774,4.241-1.033,4.336a4.538,4.538,0,0,1-2.981-.913V367.2Z" transform="translate(-81.876 -346.921)" fill="#fff" opacity="0.4"/>
          <path id="Path_5272" data-name="Path 5272" d="M55.516,343.987s-2.056-2.154-3.329-1.787-1.14,5.511,2.808,3.43l.521-1.639Z" transform="translate(-51.471 -331.099)" fill="#407bff"/>
          <path id="Path_5273" data-name="Path 5273" d="M55.516,343.987s-2.056-2.154-3.329-1.787-1.14,5.511,2.808,3.43l.521-1.639Z" transform="translate(-51.471 -331.099)" fill="#fff" opacity="0.5"/>
          <path id="Path_5274" data-name="Path 5274" d="M78.225,374.221s6.758-9.244,1.273-11.116-6.465,7.437-4.9,10.03,3.622,1.086,3.622,1.086Z" transform="translate(-66.834 -345.262)" fill="#407bff"/>
          <path id="Path_5275" data-name="Path 5275" d="M74.614,317.173s-4.191-9.733,2.018-10.027,6.885,9.651-.259,11.094Z" transform="translate(-66.359 -307.14)" fill="#407bff"/>
          <path id="Path_5276" data-name="Path 5276" d="M78.225,374.221s6.758-9.244,1.273-11.116-6.465,7.437-4.9,10.03,3.622,1.086,3.622,1.086Z" transform="translate(-66.834 -345.262)" fill="#fff" opacity="0.5"/>
          <path id="Path_5277" data-name="Path 5277" d="M74.614,317.173s-4.191-9.733,2.018-10.027,6.885,9.651-.259,11.094Z" transform="translate(-66.359 -307.14)" fill="#fff" opacity="0.5"/>
          <path id="Path_5278" data-name="Path 5278" d="M68.626,343.946s2.037-8.593-1.879-9.278-7.785,7.08.319,10.984c0,0,1.39-.862,1.56-1.7Z" transform="translate(-58.884 -325.945)" fill="#407bff"/>
          <path id="Path_5279" data-name="Path 5279" d="M68.626,343.946s2.037-8.593-1.879-9.278-7.785,7.08.319,10.984c0,0,1.39-.862,1.56-1.7Z" transform="translate(-58.884 -325.945)" fill="#fff" opacity="0.4"/>
        </g>
        <path id="Path_5280" data-name="Path 5280" d="M78.357,394.69H67.01l.947,7.26h9.452Z" transform="translate(-61.802 -366.106)" fill="#263238"/>
        <g id="Group_1593" data-name="Group 1593" transform="translate(10.655 2.479)" opacity="0.2">
          <path id="Path_5281" data-name="Path 5281" d="M84.26,319.821a8.475,8.475,0,0,0,.752-.793,9.777,9.777,0,0,0,.673-.856,9.022,9.022,0,0,0,1.039-1.9,6.264,6.264,0,0,0,.442-2.106v-.543c-.019-.18-.051-.357-.073-.537-.013-.088-.019-.18-.035-.268l-.073-.262-.145-.527a5.531,5.531,0,0,1,.445,2.141,6.094,6.094,0,0,1-.417,2.16,8.552,8.552,0,0,1-1.086,1.914A8.775,8.775,0,0,1,84.26,319.821Z" transform="translate(-84.26 -312.03)"/>
        </g>
        <g id="Group_1594" data-name="Group 1594" transform="translate(8.589 1.914)" opacity="0.2">
          <path id="Path_5282" data-name="Path 5282" d="M81.27,310.243a4.7,4.7,0,0,0-1.787,1.093,5.049,5.049,0,0,0-1.165,1.724l-.183.493c-.057.167-.085.341-.129.508a8.829,8.829,0,0,0-.161,1.042c-.028.351-.022.7-.032,1.058l.066,1.061-.145-1.058c-.006-.357-.025-.714-.013-1.071l.051-.534a3.052,3.052,0,0,1,.088-.531c.041-.174.069-.354.123-.524l.18-.508a4.949,4.949,0,0,1,1.232-1.753,4.732,4.732,0,0,1,.875-.622,4.4,4.4,0,0,1,1-.382Z" transform="translate(-77.717 -310.24)"/>
        </g>
        <g id="Group_1595" data-name="Group 1595" transform="translate(5.007 10.27)" opacity="0.2">
          <path id="Path_5283" data-name="Path 5283" d="M68.762,336.7a3.554,3.554,0,0,0-1.137.853,3.942,3.942,0,0,0-.755,1.194,4.088,4.088,0,0,0-.186,2.763,5.992,5.992,0,0,0,.559,1.3,11.417,11.417,0,0,0,.8,1.181,13.794,13.794,0,0,0,.932,1.09c.325.351.666.688,1.026,1.007a13.2,13.2,0,0,1-2.053-2.018,7.417,7.417,0,0,1-1.418-2.514,4.245,4.245,0,0,1-.145-.717,2.837,2.837,0,0,1-.009-.366,2.021,2.021,0,0,1,.019-.366,4.53,4.53,0,0,1,.366-1.405,3.759,3.759,0,0,1,2-2Z" transform="translate(-66.376 -336.7)"/>
        </g>
        <g id="Group_1596" data-name="Group 1596" transform="translate(8.158 10.968)" opacity="0.2">
          <path id="Path_5284" data-name="Path 5284" d="M76.751,338.91a11.369,11.369,0,0,0-.253,1.977,6.01,6.01,0,0,0,.044.985,2.279,2.279,0,0,0,.3.913,3.118,3.118,0,0,1,.411.932,4.929,4.929,0,0,1,.139,1,8.466,8.466,0,0,1-.158,2,9.617,9.617,0,0,0,.06-1,8.036,8.036,0,0,0-.025-.995,3.683,3.683,0,0,0-.565-1.86,2.378,2.378,0,0,1-.313-.976,4.708,4.708,0,0,1-.022-1.011,8.836,8.836,0,0,1,.376-1.971Z" transform="translate(-76.354 -338.91)"/>
        </g>
        <g id="Group_1597" data-name="Group 1597" transform="translate(9.158 19.656)" opacity="0.2">
          <path id="Path_5285" data-name="Path 5285" d="M81.674,366.423a.942.942,0,0,0-.373.357,3.037,3.037,0,0,0-.246.458,8.089,8.089,0,0,0-.357.982q-.3,1-.5,2.034c-.148.682-.268,1.374-.385,2.065-.06.344-.114.692-.161,1.039s-.1.695-.129,1.042a17.984,17.984,0,0,1,.171-2.1c.092-.7.212-1.39.351-2.078a20.006,20.006,0,0,1,.54-2.04,7.516,7.516,0,0,1,.4-.979,3.16,3.16,0,0,1,.284-.448.969.969,0,0,1,.4-.335Z" transform="translate(-79.52 -366.42)"/>
        </g>
        <g id="Group_1598" data-name="Group 1598" transform="translate(11.688 19.956)" opacity="0.2">
          <path id="Path_5286" data-name="Path 5286" d="M89.074,367.37a6.337,6.337,0,0,1,.5,1.9,6.474,6.474,0,0,1-.092,1.974,5.728,5.728,0,0,1-.707,1.841,6.011,6.011,0,0,1-.565.812,3.3,3.3,0,0,1-.335.363l-.347.347a8.059,8.059,0,0,0,1.14-1.579,6.935,6.935,0,0,0,.4-.881c.057-.152.095-.31.142-.464a3.507,3.507,0,0,0,.111-.471,6.822,6.822,0,0,0,.123-1.93,7.765,7.765,0,0,0-.379-1.911Z" transform="translate(-87.53 -367.37)"/>
        </g>
        <g id="Group_1599" data-name="Group 1599" transform="translate(0.894 13.971)" opacity="0.2">
          <path id="Path_5287" data-name="Path 5287" d="M55.207,349.32a1.707,1.707,0,0,1-.553.032,1.847,1.847,0,0,1-.546-.136,1.43,1.43,0,0,1-.467-.319,1.223,1.223,0,0,1-.291-.477,2.159,2.159,0,0,0,.373.385,1.938,1.938,0,0,0,.448.262,3.853,3.853,0,0,0,1.036.25Z" transform="translate(-53.35 -348.42)"/>
        </g>
        <g id="Group_1600" data-name="Group 1600" transform="translate(1.187 12.755)" opacity="0.2">
          <path id="Path_5288" data-name="Path 5288" d="M56.263,345.265a5.218,5.218,0,0,0-.471-.287,2.465,2.465,0,0,0-.493-.205,1.491,1.491,0,0,0-.515-.054,1.424,1.424,0,0,0-.505.177,1,1,0,0,1,.483-.3,1.167,1.167,0,0,1,.581.019,1.648,1.648,0,0,1,.512.253,1.765,1.765,0,0,1,.407.388Z" transform="translate(-54.28 -344.57)"/>
        </g>
        <g id="Group_1601" data-name="Group 1601" transform="translate(15.449 20.318)" opacity="0.2">
          <path id="Path_5289" data-name="Path 5289" d="M99.443,369.848a3.559,3.559,0,0,1,.5-.616,2.992,2.992,0,0,1,.632-.49,1.493,1.493,0,0,1,.777-.224,1,1,0,0,1,.72.322,1.154,1.154,0,0,0-.717-.2,1.686,1.686,0,0,0-.7.24,6.26,6.26,0,0,0-1.206.966Z" transform="translate(-99.44 -368.518)"/>
        </g>
        <g id="Group_1602" data-name="Group 1602" transform="translate(15.452 22.043)" opacity="0.2">
          <path id="Path_5290" data-name="Path 5290" d="M99.45,375.019a8.627,8.627,0,0,0,1.832-.06,2.364,2.364,0,0,0,.843-.287,1.216,1.216,0,0,0,.546-.692,1.2,1.2,0,0,1-.148.445.716.716,0,0,1-.148.189.78.78,0,0,1-.18.158,2.11,2.11,0,0,1-.884.341,4.243,4.243,0,0,1-.938.044,4.519,4.519,0,0,1-.922-.142Z" transform="translate(-99.45 -373.98)"/>
        </g>
        <path id="Path_5291" data-name="Path 5291" d="M77.38,304.18a3.906,3.906,0,0,0,.887,1.655" transform="translate(-68.897 -304.18)" fill="none" stroke="#407bff" stroke-linecap="round" stroke-linejoin="round" stroke-width="0.5"/>
        <path id="Path_5292" data-name="Path 5292" d="M73.079,315.129a2.356,2.356,0,0,0-1.4-.161" transform="translate(-64.998 -311.523)" fill="none" stroke="#407bff" stroke-linecap="round" stroke-linejoin="round" stroke-width="0.5"/>
        <line id="Line_132" data-name="Line 132" x1="0.834" y2="0.376" transform="translate(6.682 5.163)" fill="none" stroke="#407bff" stroke-linecap="round" stroke-linejoin="round" stroke-width="0.5"/>
        <line id="Line_133" data-name="Line 133" x1="0.966" y2="0.136" transform="translate(6.682 7.207)" fill="none" stroke="#407bff" stroke-linecap="round" stroke-linejoin="round" stroke-width="0.5"/>
        <path id="Path_5293" data-name="Path 5293" d="M86.135,306.116a5.033,5.033,0,0,1,.063-1.156" transform="translate(-74.883 -304.714)" fill="none" stroke="#407bff" stroke-linecap="round" stroke-linejoin="round" stroke-width="0.5"/>
        <path id="Path_5294" data-name="Path 5294" d="M92.513,306.79s.054.767-.243.982" transform="translate(-79.085 -305.966)" fill="none" stroke="#407bff" stroke-linecap="round" stroke-linejoin="round" stroke-width="0.5"/>
        <path id="Path_5295" data-name="Path 5295" d="M96.809,312.96a6.047,6.047,0,0,1-1.219.376" transform="translate(-81.357 -310.187)" fill="none" stroke="#407bff" stroke-linecap="round" stroke-linejoin="round" stroke-width="0.5"/>
        <path id="Path_5296" data-name="Path 5296" d="M98.783,322.275a8.448,8.448,0,0,0-1.263-.215" transform="translate(-82.677 -316.413)" fill="none" stroke="#407bff" stroke-linecap="round" stroke-linejoin="round" stroke-width="0.5"/>
        <path id="Path_5297" data-name="Path 5297" d="M96.885,331.659a3.4,3.4,0,0,1-.685-.319" transform="translate(-81.774 -322.763)" fill="none" stroke="#407bff" stroke-linecap="round" stroke-linejoin="round" stroke-width="0.5"/>
        <path id="Path_5298" data-name="Path 5298" d="M92.2,337.973a.816.816,0,0,0-.682-.673" transform="translate(-78.572 -326.841)" fill="none" stroke="#407bff" stroke-linecap="round" stroke-linejoin="round" stroke-width="0.5"/>
        <path id="Path_5299" data-name="Path 5299" d="M86.994,341.488a2.946,2.946,0,0,1-.654-.7" transform="translate(-75.028 -329.228)" fill="none" stroke="#407bff" stroke-linecap="round" stroke-linejoin="round" stroke-width="0.5"/>
        <path id="Path_5300" data-name="Path 5300" d="M88,314.15a1.406,1.406,0,0,1-.635.458" transform="translate(-75.733 -311.001)" fill="none" stroke="#407bff" stroke-linecap="round" stroke-linejoin="round" stroke-width="0.5"/>
        <path id="Path_5301" data-name="Path 5301" d="M85.38,319.223s.711-.215.947,0" transform="translate(-74.371 -314.407)" fill="none" stroke="#407bff" stroke-linecap="round" stroke-linejoin="round" stroke-width="0.5"/>
        <path id="Path_5302" data-name="Path 5302" d="M85.074,323.262a9.508,9.508,0,0,1-1.064-.512" transform="translate(-73.434 -316.885)" fill="none" stroke="#407bff" stroke-linecap="round" stroke-linejoin="round" stroke-width="0.5"/>
        <path id="Path_5303" data-name="Path 5303" d="M81.72,327.913s.913-.136.966-.483" transform="translate(-71.867 -320.087)" fill="none" stroke="#407bff" stroke-linecap="round" stroke-linejoin="round" stroke-width="0.5"/>
        <path id="Path_5304" data-name="Path 5304" d="M81.668,333.067a3.842,3.842,0,0,1-.458-.717" transform="translate(-71.518 -323.454)" fill="none" stroke="#407bff" stroke-linecap="round" stroke-linejoin="round" stroke-width="0.5"/>
        <path id="Path_5305" data-name="Path 5305" d="M78.377,311.735a.769.769,0,0,0-.527-.565" transform="translate(-69.219 -308.962)" fill="none" stroke="#407bff" stroke-linecap="round" stroke-linejoin="round" stroke-width="0.5"/>
        <path id="Path_5306" data-name="Path 5306" d="M75.466,317.917c-.161-.054-.3.088-.726-.107" transform="translate(-67.091 -313.506)" fill="none" stroke="#407bff" stroke-linecap="round" stroke-linejoin="round" stroke-width="0.5"/>
        <path id="Path_5307" data-name="Path 5307" d="M75.331,323.56a3.124,3.124,0,0,1-.581.256" transform="translate(-67.098 -317.44)" fill="none" stroke="#407bff" stroke-linecap="round" stroke-linejoin="round" stroke-width="0.5"/>
        <line id="Line_134" data-name="Line 134" x1="0.853" y2="0.297" transform="translate(7.38 8.441)" fill="none" stroke="#407bff" stroke-linecap="round" stroke-linejoin="round" stroke-width="0.5"/>
        <path id="Path_5308" data-name="Path 5308" d="M87.85,336.7c.215.268.483.695.483.695" transform="translate(-76.061 -326.43)" fill="none" stroke="#407bff" stroke-linecap="round" stroke-linejoin="round" stroke-width="0.5"/>
        <path id="Path_5309" data-name="Path 5309" d="M91.51,332.35a2.909,2.909,0,0,1,.682.19" transform="translate(-78.565 -323.454)" fill="none" stroke="#407bff" stroke-linecap="round" stroke-linejoin="round" stroke-width="0.5"/>
        <path id="Path_5310" data-name="Path 5310" d="M94.86,325.97s.445-.047.553.164" transform="translate(-80.857 -319.086)" fill="none" stroke="#407bff" stroke-linecap="round" stroke-linejoin="round" stroke-width="0.5"/>
        <path id="Path_5311" data-name="Path 5311" d="M95.6,318.257a1.282,1.282,0,0,0,.531-.107" transform="translate(-81.363 -313.738)" fill="none" stroke="#407bff" stroke-linecap="round" stroke-linejoin="round" stroke-width="0.5"/>
        <path id="Path_5312" data-name="Path 5312" d="M70.92,334.15a2.212,2.212,0,0,1,.186.458" transform="translate(-64.478 -324.685)" fill="none" stroke="#407bff" stroke-linecap="round" stroke-linejoin="round" stroke-width="0.5"/>
        <path id="Path_5313" data-name="Path 5313" d="M65.31,336.35a5.028,5.028,0,0,0,.742.894" transform="translate(-60.639 -326.191)" fill="none" stroke="#407bff" stroke-linecap="round" stroke-linejoin="round" stroke-width="0.5"/>
        <path id="Path_5314" data-name="Path 5314" d="M62.93,340.86c.212.164.423.332.635.5" transform="translate(-59.011 -329.276)" fill="none" stroke="#407bff" stroke-linecap="round" stroke-linejoin="round" stroke-width="0.5"/>
        <path id="Path_5315" data-name="Path 5315" d="M61.4,355.057a.921.921,0,0,0,.755-.107" transform="translate(-57.964 -338.917)" fill="none" stroke="#407bff" stroke-linecap="round" stroke-linejoin="round" stroke-width="0.5"/>
        <path id="Path_5316" data-name="Path 5316" d="M63.62,359.182a2.341,2.341,0,0,0,.477-.442" transform="translate(-59.483 -341.51)" fill="none" stroke="#407bff" stroke-linecap="round" stroke-linejoin="round" stroke-width="0.5"/>
        <path id="Path_5317" data-name="Path 5317" d="M67.03,362.795c.117-.186.231-.379.335-.575" transform="translate(-61.816 -343.891)" fill="none" stroke="#407bff" stroke-linecap="round" stroke-linejoin="round" stroke-width="0.5"/>
        <path id="Path_5318" data-name="Path 5318" d="M69.36,364.786a3.472,3.472,0,0,0,.48-.616" transform="translate(-63.41 -345.225)" fill="none" stroke="#407bff" stroke-linecap="round" stroke-linejoin="round" stroke-width="0.5"/>
        <path id="Path_5319" data-name="Path 5319" d="M74.733,367.957a1.019,1.019,0,0,1-.009-.777" transform="translate(-67.03 -347.284)" fill="none" stroke="#407bff" stroke-linecap="round" stroke-linejoin="round" stroke-width="0.5"/>
        <path id="Path_5320" data-name="Path 5320" d="M82.743,361.22a2.441,2.441,0,0,1-1.023.085" transform="translate(-71.867 -343.206)" fill="none" stroke="#407bff" stroke-linecap="round" stroke-linejoin="round" stroke-width="0.5"/>
        <path id="Path_5321" data-name="Path 5321" d="M82.666,357.137a1.583,1.583,0,0,1-.786-.047" transform="translate(-71.976 -340.381)" fill="none" stroke="#407bff" stroke-linecap="round" stroke-linejoin="round" stroke-width="0.5"/>
        <path id="Path_5322" data-name="Path 5322" d="M83.5,352.37l-.591-.24" transform="translate(-72.681 -336.987)" fill="none" stroke="#407bff" stroke-linecap="round" stroke-linejoin="round" stroke-width="0.5"/>
        <path id="Path_5323" data-name="Path 5323" d="M83.565,348.45H83" transform="translate(-72.743 -334.469)" fill="none" stroke="#407bff" stroke-linecap="round" stroke-linejoin="round" stroke-width="0.5"/>
        <path id="Path_5324" data-name="Path 5324" d="M83.287,344.96H82.75" transform="translate(-72.572 -332.081)" fill="none" stroke="#407bff" stroke-linecap="round" stroke-linejoin="round" stroke-width="0.5"/>
        <path id="Path_5325" data-name="Path 5325" d="M80.476,339.07l-.606.628" transform="translate(-70.601 -328.052)" fill="none" stroke="#407bff" stroke-linecap="round" stroke-linejoin="round" stroke-width="0.5"/>
        <path id="Path_5326" data-name="Path 5326" d="M75.782,334.83a4.606,4.606,0,0,1-.032.752" transform="translate(-67.782 -325.151)" fill="none" stroke="#407bff" stroke-linecap="round" stroke-linejoin="round" stroke-width="0.5"/>
        <path id="Path_5327" data-name="Path 5327" d="M71.3,340.41a2.883,2.883,0,0,1,.455.613" transform="translate(-64.738 -328.968)" fill="none" stroke="#407bff" stroke-linecap="round" stroke-linejoin="round" stroke-width="0.5"/>
        <path id="Path_5328" data-name="Path 5328" d="M69.83,345.93a3.232,3.232,0,0,0,.663.164" transform="translate(-63.732 -332.745)" fill="none" stroke="#407bff" stroke-linecap="round" stroke-linejoin="round" stroke-width="0.5"/>
        <path id="Path_5329" data-name="Path 5329" d="M69.74,350.574c.013.038.069.019.1,0,.161-.117.322-.234.483-.354" transform="translate(-63.67 -335.68)" fill="none" stroke="#407bff" stroke-linecap="round" stroke-linejoin="round" stroke-width="0.5"/>
        <path id="Path_5330" data-name="Path 5330" d="M71.54,355.264a3.372,3.372,0,0,0,.531-.414" transform="translate(-64.902 -338.848)" fill="none" stroke="#407bff" stroke-linecap="round" stroke-linejoin="round" stroke-width="0.5"/>
        <path id="Path_5331" data-name="Path 5331" d="M74.19,360.087a1.71,1.71,0,0,1,.423-.467" transform="translate(-66.715 -342.112)" fill="none" stroke="#407bff" stroke-linecap="round" stroke-linejoin="round" stroke-width="0.5"/>
        <path id="Path_5332" data-name="Path 5332" d="M76.81,362.456a1.327,1.327,0,0,0,.063-.726" transform="translate(-68.507 -343.555)" fill="none" stroke="#407bff" stroke-linecap="round" stroke-linejoin="round" stroke-width="0.5"/>
        <path id="Path_5333" data-name="Path 5333" d="M79.358,345.74c-.171.136-.341.268-.508.4" transform="translate(-69.903 -332.615)" fill="none" stroke="#407bff" stroke-linecap="round" stroke-linejoin="round" stroke-width="0.5"/>
        <path id="Path_5334" data-name="Path 5334" d="M80.111,350.83H79.76" transform="translate(-70.526 -336.098)" fill="none" stroke="#407bff" stroke-linecap="round" stroke-linejoin="round" stroke-width="0.5"/>
        <path id="Path_5335" data-name="Path 5335" d="M63.5,345.56a1.94,1.94,0,0,0,.48.572" transform="translate(-59.401 -332.492)" fill="none" stroke="#407bff" stroke-linecap="round" stroke-linejoin="round" stroke-width="0.5"/>
        <path id="Path_5336" data-name="Path 5336" d="M63.07,351.878c.174-.111.351-.218.524-.328" transform="translate(-59.107 -336.59)" fill="none" stroke="#407bff" stroke-linecap="round" stroke-linejoin="round" stroke-width="0.5"/>
        <path id="Path_5337" data-name="Path 5337" d="M61.784,343.68a2.762,2.762,0,0,1-.054.644" transform="translate(-58.19 -331.206)" fill="none" stroke="#407bff" stroke-linecap="round" stroke-linejoin="round" stroke-width="0.5"/>
        <path id="Path_5338" data-name="Path 5338" d="M56.75,341.48a5.293,5.293,0,0,1,.073.67" transform="translate(-54.783 -329.7)" fill="none" stroke="#407bff" stroke-linecap="round" stroke-linejoin="round" stroke-width="0.5"/>
        <path id="Path_5339" data-name="Path 5339" d="M52.62,342.23l.332.531" transform="translate(-51.957 -330.214)" fill="none" stroke="#407bff" stroke-linecap="round" stroke-linejoin="round" stroke-width="0.5"/>
        <path id="Path_5340" data-name="Path 5340" d="M50.52,345.52a1.872,1.872,0,0,0,.477.354" transform="translate(-50.52 -332.465)" fill="none" stroke="#407bff" stroke-linecap="round" stroke-linejoin="round" stroke-width="0.5"/>
        <path id="Path_5341" data-name="Path 5341" d="M50.53,351.822c.155-.088.322-.148.474-.237a.7.7,0,0,0,.335-.395" transform="translate(-50.527 -336.344)" fill="none" stroke="#407bff" stroke-linecap="round" stroke-linejoin="round" stroke-width="0.5"/>
        <path id="Path_5342" data-name="Path 5342" d="M54.23,354.238a3.083,3.083,0,0,0,.578-.455c.066-.066.136-.155.1-.243" transform="translate(-53.058 -337.952)" fill="none" stroke="#407bff" stroke-linecap="round" stroke-linejoin="round" stroke-width="0.5"/>
        <path id="Path_5343" data-name="Path 5343" d="M59.013,354.859A1.938,1.938,0,0,0,59,354.24" transform="translate(-56.322 -338.431)" fill="none" stroke="#407bff" stroke-linecap="round" stroke-linejoin="round" stroke-width="0.5"/>
        <path id="Path_5344" data-name="Path 5344" d="M55.71,346.81c.136.177.272.354.407.527" transform="translate(-54.071 -333.347)" fill="none" stroke="#407bff" stroke-linecap="round" stroke-linejoin="round" stroke-width="0.5"/>
        <path id="Path_5345" data-name="Path 5345" d="M59.2,348.251q.156-.166.3-.341" transform="translate(-56.459 -334.1)" fill="none" stroke="#407bff" stroke-linecap="round" stroke-linejoin="round" stroke-width="0.5"/>
        <path id="Path_5346" data-name="Path 5346" d="M90.18,361.54a2.01,2.01,0,0,1,.12.916" transform="translate(-77.655 -343.425)" fill="none" stroke="#407bff" stroke-linecap="round" stroke-linejoin="round" stroke-width="0.5"/>
        <path id="Path_5347" data-name="Path 5347" d="M94.89,363.6a1.277,1.277,0,0,1-.42.96" transform="translate(-80.59 -344.835)" fill="none" stroke="#407bff" stroke-linecap="round" stroke-linejoin="round" stroke-width="0.5"/>
        <path id="Path_5348" data-name="Path 5348" d="M83.76,363.17a2.325,2.325,0,0,0,.344.543" transform="translate(-73.263 -344.541)" fill="none" stroke="#407bff" stroke-linecap="round" stroke-linejoin="round" stroke-width="0.5"/>
        <path id="Path_5349" data-name="Path 5349" d="M74.42,373c.316.1.628.215.935.338" transform="translate(-66.872 -351.266)" fill="none" stroke="#407bff" stroke-linecap="round" stroke-linejoin="round" stroke-width="0.5"/>
        <path id="Path_5350" data-name="Path 5350" d="M72.57,378.8a.952.952,0,0,0,1,.316" transform="translate(-65.606 -355.235)" fill="none" stroke="#407bff" stroke-linecap="round" stroke-linejoin="round" stroke-width="0.5"/>
        <path id="Path_5351" data-name="Path 5351" d="M72.78,385.692a6.607,6.607,0,0,1,.783-.2" transform="translate(-65.75 -359.812)" fill="none" stroke="#407bff" stroke-linecap="round" stroke-linejoin="round" stroke-width="0.5"/>
        <path id="Path_5352" data-name="Path 5352" d="M73.06,391.669l.742-.37" transform="translate(-65.942 -363.787)" fill="none" stroke="#407bff" stroke-linecap="round" stroke-linejoin="round" stroke-width="0.5"/>
        <path id="Path_5353" data-name="Path 5353" d="M90.623,392.744a4.345,4.345,0,0,1-1.153-.464" transform="translate(-77.169 -364.458)" fill="none" stroke="#407bff" stroke-linecap="round" stroke-linejoin="round" stroke-width="0.5"/>
        <path id="Path_5354" data-name="Path 5354" d="M93.048,390c-.212-.095-.42-.2-.628-.306" transform="translate(-79.188 -362.685)" fill="none" stroke="#407bff" stroke-linecap="round" stroke-linejoin="round" stroke-width="0.5"/>
        <path id="Path_5355" data-name="Path 5355" d="M94.923,385.283c-.341-.06-.682-.123-1.023-.183" transform="translate(-80.2 -359.545)" fill="none" stroke="#407bff" stroke-linecap="round" stroke-linejoin="round" stroke-width="0.5"/>
        <path id="Path_5356" data-name="Path 5356" d="M96.912,380.945a4.141,4.141,0,0,1-.8-.335" transform="translate(-81.712 -356.473)" fill="none" stroke="#407bff" stroke-linecap="round" stroke-linejoin="round" stroke-width="0.5"/>
        <path id="Path_5357" data-name="Path 5357" d="M98.66,365.47a3.715,3.715,0,0,1,.376.859" transform="translate(-83.457 -346.114)" fill="none" stroke="#407bff" stroke-linecap="round" stroke-linejoin="round" stroke-width="0.5"/>
        <path id="Path_5358" data-name="Path 5358" d="M103.94,364.79c.041.253.082.5.123.755" transform="translate(-87.07 -345.649)" fill="none" stroke="#407bff" stroke-linecap="round" stroke-linejoin="round" stroke-width="0.5"/>
        <path id="Path_5359" data-name="Path 5359" d="M110.038,366.09a5.513,5.513,0,0,0-.578.849" transform="translate(-90.846 -346.538)" fill="none" stroke="#407bff" stroke-linecap="round" stroke-linejoin="round" stroke-width="0.5"/>
        <path id="Path_5360" data-name="Path 5360" d="M111.011,371.65a.954.954,0,0,1-.771.294" transform="translate(-91.38 -350.343)" fill="none" stroke="#407bff" stroke-linecap="round" stroke-linejoin="round" stroke-width="0.5"/>
        <path id="Path_5361" data-name="Path 5361" d="M108.061,379.087a2.22,2.22,0,0,1-.951-.777" transform="translate(-89.239 -354.899)" fill="none" stroke="#407bff" stroke-linecap="round" stroke-linejoin="round" stroke-width="0.5"/>
        <path id="Path_5362" data-name="Path 5362" d="M102.605,379.949a7.779,7.779,0,0,1,.025-.859" transform="translate(-86.155 -355.433)" fill="none" stroke="#407bff" stroke-linecap="round" stroke-linejoin="round" stroke-width="0.5"/>
        <path id="Path_5363" data-name="Path 5363" d="M102.048,372.96a2.285,2.285,0,0,1-.088.508" transform="translate(-85.715 -351.239)" fill="none" stroke="#407bff" stroke-linecap="round" stroke-linejoin="round" stroke-width="0.5"/>
        <path id="Path_5364" data-name="Path 5364" d="M106.284,371.6a.91.91,0,0,1-.294.729" transform="translate(-88.472 -350.308)" fill="none" stroke="#407bff" stroke-linecap="round" stroke-linejoin="round" stroke-width="0.5"/>
        <path id="Path_5365" data-name="Path 5365" d="M96.5,373.024a4.088,4.088,0,0,0-.641-.174" transform="translate(-81.541 -351.164)" fill="none" stroke="#407bff" stroke-linecap="round" stroke-linejoin="round" stroke-width="0.5"/>
        <path id="Path_5366" data-name="Path 5366" d="M87.75,367.8a3.436,3.436,0,0,1,.429.745" transform="translate(-75.993 -347.708)" fill="none" stroke="#407bff" stroke-linecap="round" stroke-linejoin="round" stroke-width="0.5"/>
        <path id="Path_5367" data-name="Path 5367" d="M87.637,373.33a1.271,1.271,0,0,1-.9.363" transform="translate(-75.302 -351.492)" fill="none" stroke="#407bff" stroke-linecap="round" stroke-linejoin="round" stroke-width="0.5"/>
        <path id="Path_5368" data-name="Path 5368" d="M85.26,378.52a2.81,2.81,0,0,0,.6.379" transform="translate(-74.289 -355.043)" fill="none" stroke="#407bff" stroke-linecap="round" stroke-linejoin="round" stroke-width="0.5"/>
        <path id="Path_5369" data-name="Path 5369" d="M84.774,385.036a1.724,1.724,0,0,1-1.3-.006" transform="translate(-73.064 -359.497)" fill="none" stroke="#407bff" stroke-linecap="round" stroke-linejoin="round" stroke-width="0.5"/>
        <path id="Path_5370" data-name="Path 5370" d="M83.18,389.023a1.767,1.767,0,0,1,.341-.253" transform="translate(-72.866 -362.056)" fill="none" stroke="#407bff" stroke-linecap="round" stroke-linejoin="round" stroke-width="0.5"/>
        <path id="Path_5371" data-name="Path 5371" d="M82.13,392.858a2.94,2.94,0,0,1,.54-.508" transform="translate(-72.147 -364.505)" fill="none" stroke="#407bff" stroke-linecap="round" stroke-linejoin="round" stroke-width="0.5"/>
        <path id="Path_5372" data-name="Path 5372" d="M79.92,370.42a3.465,3.465,0,0,1,.483.628" transform="translate(-70.635 -349.501)" fill="none" stroke="#407bff" stroke-linecap="round" stroke-linejoin="round" stroke-width="0.5"/>
        <path id="Path_5373" data-name="Path 5373" d="M78.32,378.3c.117.028.231.06.347.088" transform="translate(-69.541 -354.892)" fill="none" stroke="#407bff" stroke-linecap="round" stroke-linejoin="round" stroke-width="0.5"/>
        <path id="Path_5374" data-name="Path 5374" d="M77.55,383.44l.433.152" transform="translate(-69.014 -358.409)" fill="none" stroke="#407bff" stroke-linecap="round" stroke-linejoin="round" stroke-width="0.5"/>
        <path id="Path_5375" data-name="Path 5375" d="M77.28,389.4c.126-.152.253-.3.382-.455" transform="translate(-68.829 -362.179)" fill="none" stroke="#407bff" stroke-linecap="round" stroke-linejoin="round" stroke-width="0.5"/>
      </g>
    </g>
    <g id="Speech_bubble_1" data-name="Speech bubble 1" transform="translate(60.465 97.568)">
      <g id="Group_1606" data-name="Group 1606" transform="translate(0)">
        <path id="Path_5376" data-name="Path 5376" d="M85.541,113.38h10.27a3.531,3.531,0,0,1,3.531,3.531v4.263a3.531,3.531,0,0,1-3.531,3.531H94.08l-.411,2.536L91.705,124.7H85.541a3.531,3.531,0,0,1-3.531-3.531v-4.263A3.531,3.531,0,0,1,85.541,113.38Z" transform="translate(-82.01 -113.38)" fill="#407bff"/>
        <g id="Group_1604" data-name="Group 1604" opacity="0.3">
          <path id="Path_5377" data-name="Path 5377" d="M85.541,113.38h10.27a3.531,3.531,0,0,1,3.531,3.531v4.263a3.531,3.531,0,0,1-3.531,3.531H94.08l-.411,2.536L91.705,124.7H85.541a3.531,3.531,0,0,1-3.531-3.531v-4.263A3.531,3.531,0,0,1,85.541,113.38Z" transform="translate(-82.01 -113.38)"/>
        </g>
        <g id="Group_1605" data-name="Group 1605" transform="translate(3.237 4.706)">
          <path id="Path_5378" data-name="Path 5378" d="M122.12,128.994a.714.714,0,1,0,.714-.714A.713.713,0,0,0,122.12,128.994Z" transform="translate(-112.69 -128.28)" fill="#fff"/>
          <path id="Path_5379" data-name="Path 5379" d="M112.17,128.994a.714.714,0,1,0,.714-.714A.713.713,0,0,0,112.17,128.994Z" transform="translate(-105.882 -128.28)" fill="#fff"/>
          <path id="Path_5380" data-name="Path 5380" d="M102.22,128.994a.714.714,0,1,0,.714-.714A.713.713,0,0,0,102.22,128.994Z" transform="translate(-99.075 -128.28)" fill="#fff"/>
          <path id="Path_5381" data-name="Path 5381" d="M92.26,128.994a.714.714,0,1,0,.714-.714A.713.713,0,0,0,92.26,128.994Z" transform="translate(-92.26 -128.28)" fill="#fff"/>
        </g>
      </g>
    </g>
    <g id="Display" transform="translate(63.954 108.734)">
      <g id="Group_1629" data-name="Group 1629">
        <g id="Group_1607" data-name="Group 1607" transform="translate(20.269 56.135)">
          <path id="Path_5382" data-name="Path 5382" d="M192.889,353.829v1.191a.266.266,0,0,1-.268.265H159a1.752,1.752,0,0,1-1.626-2.406l10.655-26.389,17.218.117-.587,3.423-3.8,22.16a1.172,1.172,0,0,0,1.153,1.371h10.608a.266.266,0,0,1,.268.265Z" transform="translate(-157.242 -326.49)" fill="#263238"/>
          <path id="Path_5383" data-name="Path 5383" d="M192.889,353.829v1.191a.266.266,0,0,1-.268.265H159a1.752,1.752,0,0,1-1.626-2.406l6.607-16.359,4.049-10.03,17.218.117-.587,3.423L183,339.669l-2.147,12.522a1.172,1.172,0,0,0,1.153,1.371h10.608a.266.266,0,0,1,.268.265Z" transform="translate(-157.242 -326.49)" fill="#fff" opacity="0.6"/>
          <path id="Path_5384" data-name="Path 5384" d="M186.613,361.241H164.737a.766.766,0,0,1-.707-1.061l9.342-22.47h15.888l-3.8,22.16A1.172,1.172,0,0,0,186.613,361.241Z" transform="translate(-161.845 -334.167)" fill="#fff" opacity="0.4"/>
          <path id="Path_5385" data-name="Path 5385" d="M199.836,326.617l-.587,3.423-1.652,9.638L178.57,336.53l4.049-10.03Z" transform="translate(-171.834 -326.497)" opacity="0.1"/>
        </g>
        <g id="Group_1608" data-name="Group 1608" transform="translate(0 7.062)">
          <path id="Path_5386" data-name="Path 5386" d="M174.813,171.1H95.1a2.039,2.039,0,0,0-2.04,2.04v53.965a2.039,2.039,0,0,0,2.04,2.04h79.713a2.039,2.039,0,0,0,2.04-2.04V173.14a2.039,2.039,0,0,0-2.04-2.04Z" transform="translate(-93.06 -171.1)" fill="#263238"/>
          <path id="Path_5387" data-name="Path 5387" d="M174.813,171.1H95.1a2.039,2.039,0,0,0-2.04,2.04v53.965a2.039,2.039,0,0,0,2.04,2.04h79.713a2.039,2.039,0,0,0,2.04-2.04V173.14a2.039,2.039,0,0,0-2.04-2.04Z" transform="translate(-93.06 -171.1)" fill="#fff" opacity="0.8"/>
          <path id="Path_5388" data-name="Path 5388" d="M96.787,229.152H95.1a2.038,2.038,0,0,1-2.037-2.037V173.15a2.039,2.039,0,0,1,2.037-2.04h1.69a2.039,2.039,0,0,0-2.037,2.04v53.965A2.038,2.038,0,0,0,96.787,229.152Z" transform="translate(-93.06 -171.107)" opacity="0.2"/>
        </g>
        <rect id="Rectangle_6944" data-name="Rectangle 6944" width="78.424" height="52.038" transform="translate(3.531 8.815)" fill="#407bff"/>
        <g id="Group_1609" data-name="Group 1609" transform="translate(3.528 9.061)">
          <path id="Path_5389" data-name="Path 5389" d="M174.481,177.43c-10.845,10.864-38.7,35.042-70.251,33.254V177.43Z" transform="translate(-104.23 -177.43)" fill="#fff" opacity="0.1"/>
          <path id="Path_5390" data-name="Path 5390" d="M250.276,239.778v32.07H203.06c1.81-6.477,5.429-15.348,12.452-21.686,12.632-11.4,27.289-11.372,34.764-10.384Z" transform="translate(-171.849 -219.812)" fill="#fff" opacity="0.1"/>
        </g>
        <g id="Group_1615" data-name="Group 1615" transform="translate(38.923 14.938)">
          <path id="Path_5391" data-name="Path 5391" d="M257.21,240.8l-3.935-3.935L249.34,240.8h1.232v21.926h5.407V240.8Z" transform="translate(-238.909 -223.976)" opacity="0.3"/>
          <g id="Group_1610" data-name="Group 1610" transform="translate(23.25 4.955)">
            <rect id="Rectangle_6945" data-name="Rectangle 6945" width="4.112" height="1.573" transform="translate(0.935 9.288)" opacity="0.3"/>
            <path id="Path_5392" data-name="Path 5392" d="M290.865,220.591h4.112v-5.874h.932l-2.987-2.988-2.991,2.988h.935Z" transform="translate(-289.93 -211.73)" opacity="0.3"/>
            <rect id="Rectangle_6946" data-name="Rectangle 6946" width="4.112" height="1.14" transform="translate(0.935 11.492)" opacity="0.3"/>
            <rect id="Rectangle_6947" data-name="Rectangle 6947" width="4.112" height="0.591" transform="translate(0.935 13.968)" opacity="0.3"/>
          </g>
          <g id="Group_1611" data-name="Group 1611">
            <rect id="Rectangle_6948" data-name="Rectangle 6948" width="4.112" height="1.573" transform="translate(0.935 9.288)" opacity="0.3"/>
            <path id="Path_5393" data-name="Path 5393" d="M217.245,204.9h4.112v-5.874h.935L219.3,196.04l-2.991,2.988h.935Z" transform="translate(-216.31 -196.04)" opacity="0.3"/>
            <rect id="Rectangle_6949" data-name="Rectangle 6949" width="4.112" height="1.14" transform="translate(0.935 11.492)" opacity="0.3"/>
            <rect id="Rectangle_6950" data-name="Rectangle 6950" width="4.112" height="0.591" transform="translate(0.935 13.968)" opacity="0.3"/>
          </g>
          <g id="Group_1612" data-name="Group 1612" transform="translate(29.506 31.044)">
            <rect id="Rectangle_6951" data-name="Rectangle 6951" width="4.112" height="1.573" transform="translate(0.935 9.291)" opacity="0.3"/>
            <path id="Path_5394" data-name="Path 5394" d="M310.675,303.2h4.109v-5.871h.935l-2.987-2.991-2.991,2.991h.935Z" transform="translate(-309.74 -294.34)" opacity="0.3"/>
            <rect id="Rectangle_6952" data-name="Rectangle 6952" width="4.112" height="1.14" transform="translate(0.935 11.492)" opacity="0.3"/>
            <rect id="Rectangle_6953" data-name="Rectangle 6953" width="4.112" height="0.591" transform="translate(0.935 13.971)" opacity="0.3"/>
          </g>
          <g id="Group_1614" data-name="Group 1614" transform="translate(4.705 25.543)">
            <circle id="Ellipse_188" data-name="Ellipse 188" cx="7.02" cy="7.02" r="7.02" transform="matrix(0.526, -0.851, 0.851, 0.526, 0, 11.943)" fill="#407bff"/>
            <circle id="Ellipse_189" data-name="Ellipse 189" cx="7.02" cy="7.02" r="7.02" transform="matrix(0.526, -0.851, 0.851, 0.526, 0, 11.943)" opacity="0.1"/>
            <circle id="Ellipse_190" data-name="Ellipse 190" cx="6.114" cy="6.114" r="6.114" transform="translate(3.547 3.543)" opacity="0.2"/>
            <g id="Group_1613" data-name="Group 1613" transform="translate(7.476 5.978)" opacity="0.6">
              <path id="Path_5395" data-name="Path 5395" d="M257.435,302.324v.875h-.641v-.868a3.437,3.437,0,0,1-1.914-.647l.351-.789a2.991,2.991,0,0,0,1.563.594v-1.563c-.868-.212-1.8-.493-1.8-1.579,0-.8.578-1.494,1.8-1.611v-.884h.641v.868a3.329,3.329,0,0,1,1.585.477l-.319.789a3.231,3.231,0,0,0-1.266-.423v1.579c.868.212,1.813.483,1.813,1.57,0,.8-.587,1.484-1.813,1.611Zm-.641-3.344v-1.39c-.556.085-.79.366-.79.711C256,298.676,256.339,298.847,256.794,298.98Zm1.453,1.806c0-.382-.344-.562-.812-.695v1.383C258.006,301.389,258.247,301.124,258.247,300.786Z" transform="translate(-254.88 -295.85)" fill="#407bff"/>
            </g>
          </g>
        </g>
        <g id="Group_1628" data-name="Group 1628" transform="translate(3.528)">
          <g id="Group_1616" data-name="Group 1616" transform="translate(20.648 7.922)">
            <path id="Path_5396" data-name="Path 5396" d="M173.833,176.307c.493,1.743-.009,3.5-1.124,3.916s-2.416-.654-2.909-2.394.009-3.5,1.124-3.916S173.34,174.567,173.833,176.307Z" transform="translate(-169.611 -173.822)" fill="#263238"/>
            <path id="Path_5397" data-name="Path 5397" d="M173.833,176.307c.493,1.743-.009,3.5-1.124,3.916s-2.416-.654-2.909-2.394.009-3.5,1.124-3.916S173.34,174.567,173.833,176.307Z" transform="translate(-169.611 -173.822)" fill="#fff" opacity="0.2"/>
            <path id="Path_5398" data-name="Path 5398" d="M180.95,189.05a10.289,10.289,0,0,1,1.614,2.492c.186.8-.685,1.086-1.358,1.228" transform="translate(-177.369 -184.241)" fill="none" stroke="#263238" stroke-miterlimit="10" stroke-width="1.16"/>
          </g>
          <path id="Path_5399" data-name="Path 5399" d="M205.323,314.111H200.21c.028-.546.057-1.112.092-1.693.028-.531.063-1.074.1-1.62l.028-.407c.306-4.44.812-8.893,1.614-8.88.1,0,.208.082.325.243a4.348,4.348,0,0,1,.392.729c1,2.3,1.955,7.608,2.571,11.628Z" transform="translate(-169.899 -253.264)" fill="#263238"/>
          <path id="Path_5400" data-name="Path 5400" d="M143.026,257.518H115.87c0-2.678-.009-6.152-.171-10.125-.129-3.209-.354-6.749-.761-10.456-.237-2.125-.524-4.311-.887-6.515-.208-1.266-.442-2.549-.7-3.824-.363-1.8-.78-3.613-1.26-5.41,0,0,2.069-.565,4.728-1.071.553-.107,1.131-.208,1.721-.3.5-.082,1.017-.155,1.532-.218a.047.047,0,0,1,.022,0h0c.161-.022.325-.041.49-.06.376-.041.774-.088,1.187-.133,0,0,0,0,0,0,.619-.063,1.266-.133,1.933-.193,2.141-.2,4.44-.363,6.322-.4.171,0,.341,0,.505-.006.322,0,.628,0,.919.006.335.006.913.035,1.181.047h0l.142.009,3.739,1.216,2.624.856s.123.562.325,1.617h0c.24,1.244.587,3.168.973,5.662.388,2.473.812,5.511,1.2,9a.01.01,0,0,0,0,.006c.3,2.646.578,5.555.808,8.678.088,1.162.164,2.353.24,3.572q.123,2.065.205,4.238c.006.136.013.275.016.414.019.518.038,1.045.054,1.573q.028.91.047,1.832Z" transform="translate(-109.608 -196.671)" fill="#407bff"/>
          <g id="Group_1617" data-name="Group 1617" transform="translate(2.482 22.125)" opacity="0.7">
            <path id="Path_5401" data-name="Path 5401" d="M143.026,257.518H115.87c0-2.678-.009-6.152-.171-10.125-.129-3.209-.354-6.749-.761-10.456-.237-2.125-.524-4.311-.887-6.515-.208-1.266-.442-2.549-.7-3.824-.363-1.8-.78-3.613-1.26-5.41,0,0,2.069-.565,4.728-1.071.553-.107,1.131-.208,1.721-.3.5-.082,1.017-.155,1.532-.218a.047.047,0,0,1,.022,0h0c.161-.022.325-.041.49-.06.376-.041.774-.088,1.187-.133,0,0,0,0,0,0,.619-.063,1.266-.133,1.933-.193,2.141-.2,4.44-.363,6.322-.4.171,0,.341,0,.505-.006.322,0,.628,0,.919.006.335.006.913.035,1.181.047h0l.142.009,3.739,1.216,2.624.856s.123.562.325,1.617h0c.24,1.244.587,3.168.973,5.662.388,2.473.812,5.511,1.2,9a.01.01,0,0,0,0,.006c.3,2.646.578,5.555.808,8.678.088,1.162.164,2.353.24,3.572q.123,2.065.205,4.238c.006.136.013.275.016.414.019.518.038,1.045.054,1.573q.028.91.047,1.832Z" transform="translate(-112.09 -218.796)" fill="#fff"/>
          </g>
          <path id="Path_5402" data-name="Path 5402" d="M154.479,333.124H128.09l.518-2.9,2.438-.088,20.035-.733,2.773-.1.161-.006.051.414h0l.186,1.563Z" transform="translate(-120.555 -272.277)" fill="#263238"/>
          <path id="Path_5403" data-name="Path 5403" d="M154.479,333.124H128.09l.518-2.9,2.438-.088,20.035-.733,2.773-.1.161-.006.051.414h0l.186,1.563Z" transform="translate(-120.555 -272.277)" fill="#fff" opacity="0.4"/>
          <g id="Group_1618" data-name="Group 1618" transform="translate(7.917 57.436)">
            <path id="Path_5404" data-name="Path 5404" d="M138.455,332.35l.047,1.8-9.2.439.467-1.942Z" transform="translate(-129.3 -331.801)"/>
            <path id="Path_5405" data-name="Path 5405" d="M173.132,330.91l.177,1.6-13.156.622-.022-1.787Z" transform="translate(-150.394 -330.815)"/>
            <path id="Path_5406" data-name="Path 5406" d="M205.59,332.173l-2.312.107-.158-1.595,2.283-.076Z" transform="translate(-179.807 -330.61)"/>
            <path id="Path_5407" data-name="Path 5407" d="M176.61,331.784l.114,1.254a.227.227,0,0,0,.237.208l2.561-.1a.231.231,0,0,0,.221-.246l-.088-1.241a.227.227,0,0,0-.237-.212l-2.583.088a.229.229,0,0,0-.221.249Z" transform="translate(-161.669 -331.184)" fill="none" stroke="#fff" stroke-miterlimit="10" stroke-width="1.16"/>
            <line id="Line_135" data-name="Line 135" y1="0.032" x2="0.534" transform="translate(17.088 1.074)" fill="none" stroke="#fff" stroke-linecap="round" stroke-linejoin="round" stroke-width="1.16"/>
          </g>
          <g id="Group_1619" data-name="Group 1619" transform="translate(55.038 29.285)">
            <path id="Path_5408" data-name="Path 5408" d="M280.562,252.21l5.167-.692-3.161-4.838s-4.573.894-4.011,3.231l2.009,2.3Z" transform="translate(-278.508 -245.035)" fill="#ebb376"/>
            <path id="Path_5409" data-name="Path 5409" d="M298.525,244.707l-4.131-3.237-3.044,1.645,3.161,4.838Z" transform="translate(-287.294 -241.47)" fill="#ebb376"/>
          </g>
          <path id="Path_5410" data-name="Path 5410" d="M198.167,221.72c3.512.6,11.6,16.637,11.6,16.637l13.633-7.339,3.13,4.405s-14.246,11.8-17.976,11.025-10.8-10.425-10.8-10.425l.42-14.3Z" transform="translate(-168.216 -198.672)" fill="#263238"/>
          <path id="Path_5411" data-name="Path 5411" d="M226.526,235.43s-14.249,11.8-17.979,11.025c-1.374-.284-3.2-1.772-4.955-3.537a69.773,69.773,0,0,1-5.842-6.888l.095-3.224.322-11.075c3.512.6,11.6,16.633,11.6,16.633l13.633-7.336,3.13,4.405Z" transform="translate(-168.216 -198.679)" fill="#fff" opacity="0.2"/>
          <path id="Path_5412" data-name="Path 5412" d="M203.592,259.413a69.773,69.773,0,0,1-5.842-6.888l.095-3.224.66-3.461A35.554,35.554,0,0,1,203.592,259.413Z" transform="translate(-168.216 -215.175)" opacity="0.2"/>
          <g id="Group_1620" data-name="Group 1620" transform="translate(11.833 10.359)">
            <path id="Path_5413" data-name="Path 5413" d="M141.7,193.74s6.632,3.319,8.344,2.943c1.2-.262,2.533-2.593,2.533-2.593a5.222,5.222,0,0,1-2.189-1.112c-1.529-1.386-1.247-3.512-.654-5.523L143.3,181.54a33.9,33.9,0,0,1,.4,5.17v.006C143.693,189.536,143.222,192.388,141.7,193.74Z" transform="translate(-141.7 -181.54)" fill="#ebb376"/>
            <path id="Path_5414" data-name="Path 5414" d="M147.158,186.71v.006c1.15,2.928,3.2,6.158,6.692,6.262-1.529-1.386-1.247-3.512-.654-5.523l-6.436-5.915A33.9,33.9,0,0,1,147.158,186.71Z" transform="translate(-145.162 -181.54)" opacity="0.2"/>
          </g>
          <g id="Group_1621" data-name="Group 1621" transform="translate(1.244 22.704)">
            <path id="Path_5415" data-name="Path 5415" d="M118.75,239.534v.028c0,.265-.009.531-.016.808v.022c-.019.688-.044,1.418-.085,2.179v.044c-.022.445-.047.9-.079,1.374a.343.343,0,0,1,0,.057c-.019.3-.038.613-.057.925-.1,1.532-.243,3.171-.411,4.886-.032.335-.066.673-.1,1.017-.044.423-.092.853-.136,1.279-.038.344-.079.692-.12,1.042-.1.862-.208,1.737-.322,2.624-.016.117-.032.234-.044.347-.006.035-.009.073-.016.111-.082.594-.161,1.194-.246,1.8-.035.246-.069.486-.1.733h-4.532l.009-.237c.051-1.478.066-2.946.019-4.358-.019-.572-.047-1.131-.088-1.683-.009-.145-.022-.294-.032-.445-.035-.452-.079-.925-.126-1.421-.205-2.138-.508-4.658-.865-7.3a.161.161,0,0,0-.006-.041c-.054-.411-.111-.818-.167-1.232-.016-.139-.038-.281-.057-.423-.038-.275-.073-.549-.114-.821-.044-.306-.088-.613-.133-.922h0c-.06-.426-.123-.853-.183-1.273-.044-.31-.092-.619-.136-.925-.085-.562-.167-1.121-.253-1.674-.145-.976-.291-1.939-.436-2.868-.06-.388-.123-.771-.18-1.146s-.12-.748-.174-1.108c-.028-.18-.057-.357-.088-.531-.069-.445-.139-.881-.205-1.3-.025-.167-.054-.332-.082-.5-.041-.268-.085-.524-.126-.78-.022-.136-.041-.265-.063-.4-.013-.073-.025-.148-.035-.221-.035-.208-.066-.414-.1-.609-.047-.291-.095-.572-.139-.834-.019-.126-.041-.253-.06-.369-.013-.073-.022-.148-.035-.221-.272-1.62-.439-2.59-.439-2.59s0,0,0,0h0a0,0,0,0,1,0,0,.124.124,0,0,0,.019-.006q.071-.033.379-.142c.057-.019.123-.041.193-.066.047-.016.1-.035.161-.051.546-.18,1.38-.43,2.479-.685.477-.111,1-.221,1.573-.335.18-.032.363-.066.556-.1.253-.044.512-.092.783-.133.8-.126,1.683-.243,2.631-.338l.407-.038h0s.013.069.038.212c.019.117.044.281.079.49,0,0,0,0,0,.006s0,.028,0,.044a.094.094,0,0,1,.006.032c.013.079.025.161.038.253.044.291.1.635.152,1.03.009.066.019.136.028.205.019.139.038.281.057.429s.041.306.06.467.041.322.06.49c.111.884.224,1.9.335,3.044.013.136.025.278.038.42.032.373.066.761.1,1.159.006.069.013.142.016.215.025.287.047.581.066.878.009.126.019.249.025.373s.019.256.025.379.019.259.025.388c.013.205.025.417.038.628.006.1.009.208.016.316q.014.251.028.512c0,.092.006.183.013.278.1,2.059.145,4.292.107,6.616Z" transform="translate(-108.177 -220.664)" fill="#263238"/>
            <path id="Path_5416" data-name="Path 5416" d="M118.746,239.53a.072.072,0,0,0,0,.013.014.014,0,0,0,0,.009c0,.265-.009.534-.019.812v.022c-.016.688-.044,1.418-.085,2.179v.044c-.022.445-.047.9-.079,1.374a.343.343,0,0,1,0,.057c-.016.3-.035.613-.057.925-.1,1.532-.243,3.171-.411,4.886-.032.335-.066.673-.1,1.017-.044.423-.092.853-.136,1.279-.038.344-.082.692-.12,1.042-.1.862-.208,1.737-.322,2.624-.016.117-.032.234-.044.347h0c0,.035-.009.073-.013.111-.082.594-.161,1.194-.246,1.8-.035.246-.069.486-.1.733h-4.532c0,.035,0,.066-.006.1,0-.035,0-.069,0-.1,0-.079.006-.158.013-.237.051-1.478.066-2.946.019-4.358-.016-.572-.044-1.134-.085-1.683-.009-.145-.022-.294-.035-.445-.035-.452-.079-.925-.126-1.421-.2-2.138-.505-4.658-.865-7.3a.16.16,0,0,0-.006-.041c-.028-.218-.057-.436-.088-.654-.025-.193-.051-.385-.082-.578-.016-.139-.038-.281-.057-.423-.035-.275-.073-.549-.114-.821-.044-.306-.088-.613-.133-.922h0c-.06-.426-.123-.853-.183-1.273-.044-.31-.092-.619-.136-.925-.085-.562-.167-1.121-.253-1.674-.145-.976-.291-1.939-.436-2.868-.028-.171-.054-.335-.082-.5-.032-.215-.066-.433-.1-.644-.06-.376-.12-.748-.174-1.108-.028-.18-.057-.357-.088-.531-.069-.445-.139-.881-.205-1.3-.025-.167-.054-.335-.082-.5-.041-.268-.085-.524-.126-.78-.022-.136-.041-.265-.063-.4-.013-.073-.025-.148-.035-.221-.035-.208-.066-.414-.1-.609-.047-.291-.095-.572-.139-.834-.019-.126-.041-.253-.06-.37-.013-.073-.022-.148-.035-.221-.259-1.563-.423-2.523-.436-2.59h0a0,0,0,0,1,0,0,.123.123,0,0,0,.019-.006q.071-.033.379-.142c.057-.022.123-.041.193-.066.047-.016.1-.035.161-.051.546-.18,1.38-.43,2.479-.685.477-.111,1-.221,1.573-.335.18-.032.363-.066.556-.1.253-.044.512-.092.783-.133.8-.126,1.683-.243,2.631-.338.136-.016.272-.028.407-.041h0a.111.111,0,0,1,0,.019h0c.006.035.019.1.035.2.019.117.044.281.082.49a.277.277,0,0,0,.006.051.093.093,0,0,1,.006.032c.009.079.022.161.038.253.041.287.095.632.152,1.03.009.066.019.136.028.205.016.136.035.281.057.43s.041.306.06.467.038.322.06.49c.111.884.224,1.9.335,3.044.013.139.025.278.038.42.032.373.066.761.1,1.159.006.069.013.142.016.215.025.287.047.581.066.878.009.126.019.249.025.373s.019.256.025.379.019.259.025.388c.013.205.025.417.038.628.006.1.009.208.016.316l.028.512c0,.092.006.183.013.278.025.527.047,1.067.063,1.617.051,1.595.073,3.275.044,5Z" transform="translate(-108.17 -220.657)" fill="#fff" opacity="0.2"/>
            <path id="Path_5417" data-name="Path 5417" d="M126.236,220.63a108.478,108.478,0,0,1,1.371,18.866v.028L121.613,227.1l3.4-1.048-3.894-1.323,2.078-3.717c.919-.142,1.936-.278,3.041-.379Z" transform="translate(-117.03 -220.63)" fill="#fff" opacity="0.2"/>
          </g>
          <g id="Group_1622" data-name="Group 1622" transform="translate(23.177 22.186)">
            <path id="Path_5418" data-name="Path 5418" d="M190.53,257.651h-1.472c-.433-2.447-.938-5.154-1.522-8.056q-.445-2.2-.954-4.544-.6-2.766-1.292-5.7c-.205-.878-.417-1.721-.616-2.526q-.355-1.407-.7-2.669c-3.528-12.98-6.177-15.039-6.354-15.165l2.41.3,4.364.559h0a105.691,105.691,0,0,1,2.542,11.663c.426,2.473.837,5.1,1.232,7.775h0c.922,6.3,1.734,12.866,2.362,18.364Z" transform="translate(-177.62 -218.99)" fill="#263238"/>
            <path id="Path_5419" data-name="Path 5419" d="M190.53,257.651h-1.472c-.433-2.447-.938-5.154-1.522-8.056q-.445-2.2-.954-4.544-.6-2.766-1.292-5.7c-.205-.878-.417-1.721-.616-2.526q-.355-1.407-.7-2.669c-3.528-12.98-6.177-15.039-6.354-15.165l2.41.3,4.364.559h0a105.691,105.691,0,0,1,2.542,11.663c.426,2.473.837,5.1,1.232,7.775h0c.922,6.3,1.734,12.866,2.362,18.364Z" transform="translate(-177.62 -218.99)" fill="#fff" opacity="0.2"/>
            <path id="Path_5420" data-name="Path 5420" d="M181.17,223.933l2.909,1.08a86.371,86.371,0,0,1,.6,11.821c-3.872-15.373-6.862-17.7-7.052-17.834l2.406.3a15.442,15.442,0,0,1,3.884,3.344l-2.751,1.288Z" transform="translate(-177.627 -218.997)" fill="#fff" opacity="0.2"/>
          </g>
          <g id="Group_1624" data-name="Group 1624" transform="translate(8.044)">
            <path id="Path_5421" data-name="Path 5421" d="M167.86,156.21s3.366,2.135,2.223,8.113S161.718,158.414,167.86,156.21Z" transform="translate(-154.136 -153.85)" fill="#263238"/>
            <path id="Path_5422" data-name="Path 5422" d="M140.668,163.767c.846,4.62.272,5.444,2.912,7.532,3.973,3.139,9.847,3.149,10.122-1.671.246-4.336-.234-12.083-5.018-13.346a6.474,6.474,0,0,0-8.012,7.485Z" transform="translate(-137.131 -153.746)" fill="#ebb376"/>
            <path id="Path_5423" data-name="Path 5423" d="M158.89,178.1c.063.395.249.407.505.366s.493-.126.429-.521-.322-.682-.581-.638-.417.4-.354.8Z" transform="translate(-149.663 -168.284)" fill="#263238"/>
            <path id="Path_5424" data-name="Path 5424" d="M174.38,177.233c.063.395.249.407.505.366s.493-.126.429-.521-.322-.682-.581-.638-.417.4-.354.8Z" transform="translate(-160.261 -167.689)" fill="#263238"/>
            <path id="Path_5425" data-name="Path 5425" d="M171.97,178.67a10.831,10.831,0,0,0,1.715,2.463,1.787,1.787,0,0,1-1.437.43l-.278-2.893Z" transform="translate(-158.621 -169.217)" fill="#d58745"/>
            <path id="Path_5426" data-name="Path 5426" d="M155.469,171.408a.249.249,0,0,1-.111-.041.236.236,0,0,1-.054-.328A2.368,2.368,0,0,1,157.193,170a.231.231,0,0,1,.224.243.238.238,0,0,1-.243.227h0a1.881,1.881,0,0,0-1.487.84A.233.233,0,0,1,155.469,171.408Z" transform="translate(-147.189 -163.285)" fill="#263238"/>
            <path id="Path_5427" data-name="Path 5427" d="M175.118,170.231a.232.232,0,0,1-.218-.047,1.849,1.849,0,0,0-1.639-.436.236.236,0,0,1-.291-.161.24.24,0,0,1,.158-.294,2.311,2.311,0,0,1,2.075.527.235.235,0,0,1,.025.332.214.214,0,0,1-.114.073Z" transform="translate(-159.3 -162.758)" fill="#263238"/>
            <path id="Path_5428" data-name="Path 5428" d="M135.26,172.9c2.166,1.159,1.6-1.039,1.446-1.26-.688-.97-.155-2.353.505-4.308a5.512,5.512,0,0,0,.016-2.264,12.438,12.438,0,0,0-4.194.019,2,2,0,0,0-1.623,1.762c.477,4.083,2.1,5.119,3.847,6.051Z" transform="translate(-130.871 -159.787)" fill="#263238"/>
            <path id="Path_5429" data-name="Path 5429" d="M134.618,184.685a4.285,4.285,0,0,0,2.413,2.018c1.311.392,1.854-.91,1.4-2.271-.411-1.225-1.585-2.909-2.858-2.7-1.251.205-1.633,1.737-.957,2.953Z" transform="translate(-132.837 -171.3)" fill="#ebb376"/>
            <g id="Group_1623" data-name="Group 1623" transform="translate(10.345 13.072)">
              <path id="Path_5430" data-name="Path 5430" d="M166.4,190.784a14.412,14.412,0,0,0-.448,2.065c-.123,0-.249.009-.373.006-1.686.016-2.473-.534-2.836-1.146a2.212,2.212,0,0,1-.278-.992,2.129,2.129,0,0,1,.044-.587,7.932,7.932,0,0,0,3.316.651c.354.013.575,0,.575,0Z" transform="translate(-162.459 -190.13)" fill="#263238"/>
              <path id="Path_5431" data-name="Path 5431" d="M165.829,190.781l-.148.606c-1.589.013-2.71-.193-3.209-.669a2.128,2.128,0,0,1,.044-.587,7.932,7.932,0,0,0,3.316.651Z" transform="translate(-162.466 -190.13)" fill="#fff"/>
              <path id="Path_5432" data-name="Path 5432" d="M166.186,196.276c-1.686.016-2.473-.534-2.836-1.146a5.4,5.4,0,0,1,1.876.354,2.021,2.021,0,0,1,.96.8Z" transform="translate(-163.069 -193.551)" fill="#de5753"/>
            </g>
            <path id="Path_5433" data-name="Path 5433" d="M130.333,156.441s-2.015-2.539,1.156-5.141,8.356-3.054,11.334-2.106.9,3.48-2.2,4.646a3.838,3.838,0,0,1-2.419.363s.894.085,2.122-1.124c0,0-4.263.1-4.873,2.71S130.333,156.441,130.333,156.441Z" transform="translate(-129.702 -148.738)" fill="#263238"/>
          </g>
          <path id="Path_5434" data-name="Path 5434" d="M116.024,273.872c-.18-1.326-.369-2.678-.565-4.017-.126-.872-.256-1.746-.388-2.6a3.644,3.644,0,0,1,.505-.966,15.888,15.888,0,0,1,.448,7.586Z" transform="translate(-111.647 -229.166)" opacity="0.2"/>
          <path id="Path_5435" data-name="Path 5435" d="M161.44,230.346l2.293,1.794a150.292,150.292,0,0,1,1.69,20.739l2.012,2.151,1.487-2.542s-2.669-15.658-4.181-20.347l1.345-2.612-2.533-.028-2.113.846Z" transform="translate(-143.373 -203.995)" fill="#407bff"/>
          <g id="Group_1626" data-name="Group 1626" transform="translate(10.453 21.271)">
            <path id="Path_5436" data-name="Path 5436" d="M147.057,220.335s-1.127,1.551-2.463,3.1c-2.173-.875-7.282-3.278-7.264-5.9.224-.783,2.163-1.427,2.163-1.427a18.044,18.044,0,0,0,7.564,4.229Z" transform="translate(-137.33 -216.105)" fill="#407bff"/>
            <path id="Path_5437" data-name="Path 5437" d="M167.884,220.324a13.879,13.879,0,0,1,2.928,2.64c1.45-1.121.262-5.9-.344-6.386a5.494,5.494,0,0,0-2.7-.467,4.49,4.49,0,0,1,.114,4.21Z" transform="translate(-158.157 -216.094)" fill="#407bff"/>
            <g id="Group_1625" data-name="Group 1625" opacity="0.6">
              <path id="Path_5438" data-name="Path 5438" d="M147.057,220.335s-1.127,1.551-2.463,3.1c-2.173-.875-7.282-3.278-7.264-5.9.224-.783,2.163-1.427,2.163-1.427a18.044,18.044,0,0,0,7.564,4.229Z" transform="translate(-137.33 -216.105)" fill="#fff"/>
              <path id="Path_5439" data-name="Path 5439" d="M167.884,220.324a13.879,13.879,0,0,1,2.928,2.64c1.45-1.121.262-5.9-.344-6.386a5.494,5.494,0,0,0-2.7-.467,4.49,4.49,0,0,1,.114,4.21Z" transform="translate(-158.157 -216.094)" fill="#fff"/>
            </g>
          </g>
          <path id="Path_5440" data-name="Path 5440" d="M108.787,240.789l-.111.625-.455,2.59h0l-1.51,8.593.243,10.3H104.23V228.1c.414-.808.834-1.326,1.257-1.446h0l0,0a13.749,13.749,0,0,1,2.482,5.318,24.35,24.35,0,0,1,.7,3.824,32.153,32.153,0,0,1,.114,5Z" transform="translate(-104.23 -202.045)" fill="#263238"/>
          <path id="Path_5441" data-name="Path 5441" d="M108.787,240.789l-.111.625-.455,2.59h0l-1.51,8.593.243,10.3H104.23V228.1c.414-.808.834-1.326,1.257-1.446h0l0,0a13.749,13.749,0,0,1,2.482,5.318,24.35,24.35,0,0,1,.7,3.824,32.153,32.153,0,0,1,.114,5Z" transform="translate(-104.23 -202.045)" fill="#fff" opacity="0.2"/>
          <g id="Group_1627" data-name="Group 1627" transform="translate(9.32 0.261)">
            <path id="Path_5442" data-name="Path 5442" d="M138.153,180.687c.493,1.743-.009,3.5-1.124,3.916s-2.416-.654-2.909-2.394.009-3.5,1.124-3.916S137.66,178.947,138.153,180.687Z" transform="translate(-133.871 -169.158)" fill="#263238"/>
            <path id="Path_5443" data-name="Path 5443" d="M138.153,180.687c.493,1.743-.009,3.5-1.124,3.916s-2.416-.654-2.909-2.394.009-3.5,1.124-3.916S137.66,178.947,138.153,180.687Z" transform="translate(-133.871 -169.158)" fill="#fff" opacity="0.2"/>
            <path id="Path_5444" data-name="Path 5444" d="M136.639,160.358s-.827-8.694,3.54-10.769a2.2,2.2,0,0,0-1.222.171c-.628.287-4.4,1.854-3.771,10.526Z" transform="translate(-134.682 -149.566)" fill="#263238"/>
            <path id="Path_5445" data-name="Path 5445" d="M136.594,159.341c.016.635.051,1.023.051,1.023l-1.453-.076c-.016-.186-.025-.37-.032-.546-.439-8.189,3.193-9.7,3.805-9.976a2.217,2.217,0,0,1,1.222-.167c-3.442,1.636-3.66,7.387-3.594,9.746Z" transform="translate(-134.687 -149.572)" fill="#fff" opacity="0.4"/>
            <rect id="Rectangle_6954" data-name="Rectangle 6954" width="1.374" height="0.628" rx="0.314" transform="translate(14.422 16.032) rotate(-12.02)" fill="#263238"/>
            <rect id="Rectangle_6955" data-name="Rectangle 6955" width="1.374" height="0.628" rx="0.314" transform="translate(14.422 16.032) rotate(-12.02)" fill="#fff" opacity="0.2"/>
            <path id="Path_5446" data-name="Path 5446" d="M136.724,181.353l-1.453-.076c-.016-.186-.025-.369-.032-.546a1.149,1.149,0,0,1,1.434-.4c.016.635.051,1.023.051,1.023Z" transform="translate(-134.767 -170.56)" opacity="0.2"/>
            <path id="Path_5447" data-name="Path 5447" d="M136.918,183.672c.369,1.311-.009,2.628-.846,2.943s-1.816-.49-2.189-1.8.009-2.628.846-2.943S136.546,182.361,136.918,183.672Z" transform="translate(-133.742 -171.622)" fill="#263238"/>
            <path id="Path_5448" data-name="Path 5448" d="M136.918,183.672c.369,1.311-.009,2.628-.846,2.943s-1.816-.49-2.189-1.8.009-2.628.846-2.943S136.546,182.361,136.918,183.672Z" transform="translate(-133.742 -171.622)" fill="#fff" opacity="0.4"/>
          </g>
        </g>
      </g>
    </g>
    <g id="Screen_3" data-name="Screen 3" transform="translate(133.788 118.43)">
      <g id="Group_1631" data-name="Group 1631" transform="translate(0 0)">
        <rect id="Rectangle_6956" data-name="Rectangle 6956" width="20.606" height="19.359" rx="2.55" fill="#407bff"/>
        <rect id="Rectangle_6957" data-name="Rectangle 6957" width="20.606" height="19.359" rx="2.55" fill="#fff" opacity="0.7"/>
        <g id="Group_1630" data-name="Group 1630" transform="translate(3.619 2.997)">
          <circle id="Ellipse_191" data-name="Ellipse 191" cx="6.682" cy="6.682" r="6.682" fill="#407bff"/>
          <path id="Path_5449" data-name="Path 5449" d="M332.332,195.612h6.682a6.682,6.682,0,1,1-6.682-6.682,6.629,6.629,0,0,1,2.46.471Z" transform="translate(-325.65 -188.93)" fill="#fff" opacity="0.3"/>
          <path id="Path_5450" data-name="Path 5450" d="M332.339,195.612l-.177,6.679a6.682,6.682,0,0,1,.18-13.362,6.628,6.628,0,0,1,2.46.471l-2.46,6.212Z" transform="translate(-325.657 -188.93)" fill="#fff" opacity="0.3"/>
        </g>
        <circle id="Ellipse_192" data-name="Ellipse 192" cx="4.169" cy="4.169" r="4.169" transform="translate(6.133 5.511)" fill="#fff"/>
        <rect id="Rectangle_6958" data-name="Rectangle 6958" width="3.003" height="1.573" transform="translate(2.043 2.198)" fill="#fff"/>
        <rect id="Rectangle_6959" data-name="Rectangle 6959" width="3.003" height="1.573" transform="translate(15.484 15.904)" fill="#fff"/>
        <rect id="Rectangle_6960" data-name="Rectangle 6960" width="3.003" height="1.573" transform="translate(15.171 1.62)" fill="#fff"/>
        <line id="Line_136" data-name="Line 136" x2="2.59" y2="2.855" transform="translate(3.543 2.981)" fill="none" stroke="#fff" stroke-miterlimit="10" stroke-width="0.48"/>
        <line id="Line_137" data-name="Line 137" x1="1.762" y2="3.805" transform="translate(14.912 2.53)" fill="none" stroke="#fff" stroke-miterlimit="10" stroke-width="0.48"/>
        <line id="Line_138" data-name="Line 138" x1="2.343" y1="3.477" transform="translate(14.641 13.213)" fill="none" stroke="#fff" stroke-miterlimit="10" stroke-width="0.48"/>
        <path id="Path_5451" data-name="Path 5451" d="M333.374,197.482a.2.2,0,1,1-.2-.2A.2.2,0,0,1,333.374,197.482Z" transform="translate(-327.039 -191.646)" fill="#fff"/>
        <circle id="Ellipse_193" data-name="Ellipse 193" cx="0.202" cy="0.202" r="0.202" transform="translate(14.71 6.133)" fill="#fff"/>
        <path id="Path_5452" data-name="Path 5452" d="M360.314,220.842a.2.2,0,1,1-.2-.2A.2.2,0,0,1,360.314,220.842Z" transform="translate(-345.471 -207.629)" fill="#fff"/>
      </g>
    </g>
    <g id="Screen_2" data-name="Screen 2" transform="translate(125.963 147.541)">
      <g id="Group_1633" data-name="Group 1633">
        <rect id="Rectangle_6961" data-name="Rectangle 6961" width="25.776" height="19.359" rx="2.55" fill="#407bff"/>
        <rect id="Rectangle_6962" data-name="Rectangle 6962" width="25.776" height="19.359" rx="2.55" fill="#fff" opacity="0.7"/>
        <g id="Group_1632" data-name="Group 1632" transform="translate(2.694 2.946)">
          <path id="Path_5453" data-name="Path 5453" d="M318.53,282.56v-.076h-1.206V281.35h-.076v1.134H315.23V281.35h-.076v1.134h-2.018V281.35h-.076v1.134h-2.018V281.35h-.076v1.134h-2.018V281.35h-.076v1.134h-2.018V281.35h-.076v1.134h-2.018V281.35h-.076v1.134h-2.018V281.35h-.076v1.134h-2.018V281.35H300.5v1.134H298.23v.076H300.5v1.923H298.23v.076H300.5v1.92H298.23v.076H300.5v1.92H298.23v.076H300.5v1.92H298.23v.076H300.5v1.92H298.23v.076H300.5v2.141h.076v-2.141h2.018v2.141h.076v-2.141h2.018v2.141h.076v-2.141h2.018v2.141h.076v-2.141h2.018v2.141h.076v-2.141h2.018v2.141h.076v-2.141h2.018v2.141h.076v-2.141h2.018v2.141h.076v-2.141h2.018v2.141h.076v-2.141h1.206v-.076h-1.206v-1.92h1.206v-.076h-1.206v-1.92h1.206v-.076h-1.206v-1.92h1.206v-.076h-1.206v-1.92h1.206v-.076h-1.206V282.56Zm-3.376,0v1.923h-2.018V282.56Zm-8.3,3.995h2.018v1.92h-2.018Zm-.076,1.92h-2.018v-1.92h2.018Zm2.17-1.92h2.018v1.92h-2.018Zm2.094,0h2.018v1.92h-2.018Zm0-.076v-1.92h2.018v1.92Zm-.076,0h-2.018v-1.92h2.018Zm-2.094,0h-2.018v-1.92h2.018Zm-2.094,0h-2.018v-1.92h2.018Zm-2.094,0h-2.018v-1.92h2.018Zm0,.076v1.92h-2.018v-1.92Zm0,2v1.92h-2.018v-1.92Zm.076,0h2.018v1.92h-2.018Zm2.094,0h2.018v1.92h-2.018Zm2.094,0h2.018v1.92h-2.018Zm2.094,0h2.018v1.92h-2.018Zm2.094,0h2.018v1.92h-2.018Zm0-.076v-1.92h2.018v1.92Zm0-2v-1.92h2.018v1.92Zm-.076-3.919v1.923h-2.018V282.56Zm-2.094,0v1.923h-2.018V282.56Zm-2.094,0v1.923h-2.018V282.56Zm-2.094,0v1.923h-2.018V282.56Zm-2.094,0v1.923h-2.018V282.56Zm-4.112,0h2.018v1.923H300.57Zm0,2h2.018v1.92H300.57Zm0,2h2.018v1.92H300.57Zm0,2h2.018v1.92H300.57Zm0,3.919v-1.92h2.018v1.92Zm2.094,0v-1.92h2.018v1.92Zm2.094,0v-1.92h2.018v1.92Zm2.094,0v-1.92h2.018v1.92Zm2.094,0v-1.92h2.018v1.92Zm2.094,0v-1.92h2.018v1.92Zm2.094,0v-1.92h2.018v1.92Zm4.112,0h-2.018v-1.92h2.018Zm0-2h-2.018v-1.92h2.018Zm0-2h-2.018v-1.92h2.018Zm0-2h-2.018v-1.92h2.018Zm0-2h-2.018v-1.923h2.018Z" transform="translate(-298.138 -281.224)" opacity="0.1"/>
          <path id="Path_5454" data-name="Path 5454" d="M304.812,319.266a.5.5,0,1,1-.5-.5A.495.495,0,0,1,304.812,319.266Z" transform="translate(-301.963 -306.826)" fill="#fff"/>
          <path id="Path_5455" data-name="Path 5455" d="M298.64,310.119l2.132-.849,2.094-1.115,2.094-.843,2.1-1.232,4.188,1.039,2.094-1.039,4.267-1.92" transform="translate(-298.419 -296.83)" fill="none" stroke="#fff" stroke-miterlimit="10" stroke-width="0.96"/>
          <path id="Path_5456" data-name="Path 5456" d="M318.246,294.239H297.94V280.95" transform="translate(-297.94 -280.95)" fill="none" stroke="#263238" stroke-miterlimit="10" stroke-width="0.96"/>
          <path id="Path_5457" data-name="Path 5457" d="M297.94,301.464l2.353-2.04,2.094-2.71,2.173.711,2.094-1.92,4.112,2,2.094-2.072,4.191-3.919" transform="translate(-297.94 -288.175)" fill="none" stroke="#407bff" stroke-miterlimit="10" stroke-width="0.96"/>
          <path id="Path_5458" data-name="Path 5458" d="M304.812,315.5a.5.5,0,1,1-.5-.5A.495.495,0,0,1,304.812,315.5Z" transform="translate(-301.963 -304.247)" fill="#fff" stroke="#407bff" stroke-miterlimit="10" stroke-width="0.96"/>
          <path id="Path_5459" data-name="Path 5459" d="M311.442,315.5a.5.5,0,1,1-.5-.5A.495.495,0,0,1,311.442,315.5Z" transform="translate(-306.499 -304.247)" fill="#fff"/>
          <circle id="Ellipse_194" data-name="Ellipse 194" cx="0.496" cy="0.496" r="0.496" transform="translate(6.045 9.986)" fill="#fff"/>
          <path id="Path_5460" data-name="Path 5460" d="M324.712,309.406a.5.5,0,1,1-.5-.5A.495.495,0,0,1,324.712,309.406Z" transform="translate(-315.579 -300.08)" fill="#fff"/>
          <path id="Path_5461" data-name="Path 5461" d="M337.972,312.456a.5.5,0,1,1-.5-.5A.495.495,0,0,1,337.972,312.456Z" transform="translate(-324.651 -302.167)" fill="#fff"/>
          <path id="Path_5462" data-name="Path 5462" d="M344.612,309.406a.5.5,0,1,1-.5-.5A.495.495,0,0,1,344.612,309.406Z" transform="translate(-329.194 -300.08)" fill="#fff"/>
          <path id="Path_5463" data-name="Path 5463" d="M357.872,303.086a.5.5,0,1,1-.5-.5A.495.495,0,0,1,357.872,303.086Z" transform="translate(-338.266 -295.756)" fill="#fff"/>
          <path id="Path_5464" data-name="Path 5464" d="M311.442,306.916a.5.5,0,1,1-.5-.5A.495.495,0,0,1,311.442,306.916Z" transform="translate(-306.499 -298.376)" fill="#fff" stroke="#407bff" stroke-miterlimit="10" stroke-width="0.96"/>
          <path id="Path_5465" data-name="Path 5465" d="M318.322,309.166a.5.5,0,1,1-.5-.5A.495.495,0,0,1,318.322,309.166Z" transform="translate(-311.207 -299.916)" fill="#fff" stroke="#407bff" stroke-miterlimit="10" stroke-width="0.96"/>
          <path id="Path_5466" data-name="Path 5466" d="M324.952,303.086a.5.5,0,1,1-.5-.5A.495.495,0,0,1,324.952,303.086Z" transform="translate(-315.743 -295.756)" fill="#fff" stroke="#407bff" stroke-miterlimit="10" stroke-width="0.96"/>
          <path id="Path_5467" data-name="Path 5467" d="M337.972,309.406a.5.5,0,1,1-.5-.5A.495.495,0,0,1,337.972,309.406Z" transform="translate(-324.651 -300.08)" fill="#fff" stroke="#407bff" stroke-miterlimit="10" stroke-width="0.96"/>
          <path id="Path_5468" data-name="Path 5468" d="M344.612,302.846a.5.5,0,1,1-.5-.5A.495.495,0,0,1,344.612,302.846Z" transform="translate(-329.194 -295.592)" fill="#fff" stroke="#407bff" stroke-miterlimit="10" stroke-width="0.96"/>
          <path id="Path_5469" data-name="Path 5469" d="M357.872,290.436a.5.5,0,1,1-.5-.5A.495.495,0,0,1,357.872,290.436Z" transform="translate(-338.266 -287.101)" fill="#fff" stroke="#407bff" stroke-miterlimit="10" stroke-width="0.96"/>
        </g>
      </g>
    </g>
    <g id="Screen_1" data-name="Screen 1" transform="translate(100.749 110.589)">
      <g id="Group_1636" data-name="Group 1636" transform="translate(0)">
        <rect id="Rectangle_6963" data-name="Rectangle 6963" width="25.776" height="19.359" rx="2.55" fill="#407bff"/>
        <rect id="Rectangle_6964" data-name="Rectangle 6964" width="25.776" height="19.359" rx="2.55" fill="#fff" opacity="0.7"/>
        <g id="Group_1635" data-name="Group 1635" transform="translate(2.691 2.95)">
          <path id="Path_5470" data-name="Path 5470" d="M238.68,165.56v-.076h-1.206V164.35H237.4v1.134H235.38V164.35H235.3v1.134h-2.018V164.35h-.076v1.134h-2.018V164.35h-.076v1.134H229.1V164.35h-.076v1.134H227V164.35h-.076v1.134h-2.018V164.35h-.076v1.134h-2.018V164.35h-.076v1.134h-2.018V164.35h-.076v1.134H218.38v.076h2.268v1.923H218.38v.076h2.268v1.92H218.38v.076h2.268v1.92H218.38v.076h2.268v1.92H218.38v.076h2.268v1.92H218.38v.076h2.268v2.141h.076v-2.141h2.018v2.141h.076v-2.141h2.018v2.141h.076v-2.141h2.018v2.141H227v-2.141h2.018v2.141h.076v-2.141h2.018v2.141h.076v-2.141h2.018v2.141h.076v-2.141H235.3v2.141h.076v-2.141H237.4v2.141h.076v-2.141h1.206v-.076h-1.206v-1.92h1.206v-.076h-1.206v-1.92h1.206v-.076h-1.206v-1.92h1.206v-.076h-1.206v-1.92h1.206v-.076h-1.206V165.56Zm-3.376,0v1.923h-2.018V165.56Zm-8.3,3.995h2.018v1.92H227Zm-.076,1.92h-2.018v-1.92h2.018Zm2.17-1.92h2.018v1.92H229.1Zm2.094,0h2.018v1.92h-2.018Zm0-.076v-1.92h2.018v1.92Zm-.076,0H229.1v-1.92h2.018Zm-2.094,0H227v-1.92h2.018Zm-2.094,0h-2.018v-1.92h2.018Zm-2.094,0h-2.018v-1.92h2.018Zm0,.076v1.92h-2.018v-1.92Zm0,2v1.92h-2.018v-1.92Zm.076,0h2.018v1.92h-2.018Zm2.094,0h2.018v1.92H227Zm2.094,0h2.018v1.92H229.1Zm2.094,0h2.018v1.92h-2.018Zm2.094,0H235.3v1.92h-2.018Zm0-.076v-1.92H235.3v1.92Zm0-2v-1.92H235.3v1.92Zm-.076-3.919v1.923h-2.018V165.56Zm-2.094,0v1.923H229.1V165.56Zm-2.094,0v1.923H227V165.56Zm-2.094,0v1.923h-2.018V165.56Zm-2.094,0v1.923h-2.018V165.56Zm-4.112,0h2.018v1.923H220.72Zm0,2h2.018v1.92H220.72Zm0,2h2.018v1.92H220.72Zm0,2h2.018v1.92H220.72Zm0,3.919v-1.92h2.018v1.92Zm2.094,0v-1.92h2.018v1.92Zm2.094,0v-1.92h2.018v1.92Zm2.094,0v-1.92h2.018v1.92Zm2.094,0v-1.92h2.018v1.92Zm2.094,0v-1.92h2.018v1.92Zm2.094,0v-1.92H235.3v1.92Zm4.112,0h-2.018v-1.92h2.018Zm0-2h-2.018v-1.92h2.018Zm0-2h-2.018v-1.92h2.018Zm0-2h-2.018v-1.92h2.018Zm0-2h-2.018v-1.923h2.018Z" transform="translate(-218.288 -164.224)" opacity="0.1"/>
          <g id="Group_1634" data-name="Group 1634" transform="translate(1.38 1.8)">
            <rect id="Rectangle_6965" data-name="Rectangle 6965" width="1.604" height="1.203" transform="translate(0 10.286)" fill="#407bff"/>
            <rect id="Rectangle_6966" data-name="Rectangle 6966" width="1.604" height="3.426" transform="translate(3.108 8.063)" fill="#407bff"/>
            <rect id="Rectangle_6967" data-name="Rectangle 6967" width="1.604" height="5.896" transform="translate(6.212 5.593)" fill="#407bff"/>
            <rect id="Rectangle_6968" data-name="Rectangle 6968" width="1.604" height="4.829" transform="translate(9.319 6.66)" fill="#407bff"/>
            <rect id="Rectangle_6969" data-name="Rectangle 6969" width="1.604" height="6.768" transform="translate(12.424 4.721)" fill="#407bff"/>
            <rect id="Rectangle_6970" data-name="Rectangle 6970" width="1.604" height="11.489" transform="translate(15.528)" fill="#407bff"/>
          </g>
          <path id="Path_5471" data-name="Path 5471" d="M238.4,177.239H218.09V163.95" transform="translate(-218.09 -163.95)" fill="none" stroke="#263238" stroke-miterlimit="10" stroke-width="0.96"/>
        </g>
      </g>
    </g>
    <g id="Speech_bubble_2" data-name="Speech bubble 2" transform="translate(156.926 97.386)">
      <g id="Group_1637" data-name="Group 1637" transform="translate(0 0)">
        <circle id="Ellipse_195" data-name="Ellipse 195" cx="5.672" cy="5.672" r="5.672" transform="translate(0 8.021) rotate(-45)" fill="#407bff"/>
        <path id="Path_5472" data-name="Path 5472" d="M408.4,130.661c0-.477-.407-.8-1.064-.8a1.573,1.573,0,0,0-1.389.657l-.827-.537a2.711,2.711,0,0,1,2.309-1.039c1.254,0,2.087.572,2.087,1.551,0,1.39-1.456,1.516-1.456,2.523h-1.083c0-1.26,1.424-1.5,1.424-2.353Zm-1.56,3.723a.653.653,0,0,1,.682-.657.645.645,0,0,1,.673.657.655.655,0,0,1-.673.663A.664.664,0,0,1,406.841,134.385Z" transform="translate(-399.541 -123.844)" fill="#fff"/>
        <path id="Path_5473" data-name="Path 5473" d="M411.167,151.03l-.777,1.048.777,2.315.777-2.315Z" transform="translate(-403.147 -138.958)" fill="#407bff"/>
      </g>
    </g>
    <g id="Character" transform="translate(152.454 115.865)">
      <g id="Group_1650" data-name="Group 1650">
        <path id="Path_5474" data-name="Path 5474" d="M382.864,215.69s-.385.458-.957,1.1c-.512.565-1.169,1.273-1.841,1.93-1.222,1.191-2.5,2.214-3.016,1.9-.995-.591-.442-2.176-.442-2.176s3.464-6.37,5.615-7.361a7.441,7.441,0,0,1,3.433-.357C385.88,211.329,382.864,215.69,382.864,215.69Z" transform="translate(-375.457 -198.241)" fill="#407bff"/>
        <path id="Path_5475" data-name="Path 5475" d="M389.731,223.858c-.512.565-1.168,1.273-1.841,1.93A9.477,9.477,0,0,1,389.652,221,5.847,5.847,0,0,1,389.731,223.858Z" transform="translate(-383.28 -205.31)" opacity="0.2"/>
        <path id="Path_5476" data-name="Path 5476" d="M402.078,186.376c1.1-1.232.429-3.461.774-7.911s-2.451-5.053-2.451-5.053a2.468,2.468,0,0,0-2.454-2.091c-2.069.1-6.117,1.074-6.158,5.842s-.692,5.429-1.8,6.392,1.184,2.909.748,3.818a24.4,24.4,0,0,0,10.251,1.472s-.215-1.011,1.086-2.466Z" transform="translate(-384.511 -171.318)" fill="#263238"/>
        <g id="Group_1638" data-name="Group 1638" transform="translate(14.406 71.562)">
          <path id="Path_5477" data-name="Path 5477" d="M423,399.744l-.25.344-.493-.212-.306,1.506-2.078,2.877s-.79.126-.167-1.51a1.4,1.4,0,0,0,.066-.246,9.851,9.851,0,0,0-.221-2.855l1.14-1.579a2.114,2.114,0,0,1,.322.035A2.481,2.481,0,0,1,423,399.744Z" transform="translate(-419.289 -398.023)" fill="#407bff"/>
          <path id="Path_5478" data-name="Path 5478" d="M423,399.744l-.25.344-.493-.212-.306,1.506-2.078,2.877s-.79.126-.167-1.51a1.4,1.4,0,0,0,.066-.246,9.851,9.851,0,0,0-.221-2.855l1.14-1.579a2.114,2.114,0,0,1,.322.035A2.481,2.481,0,0,1,423,399.744Z" transform="translate(-419.289 -398.023)" opacity="0.2"/>
          <path id="Path_5479" data-name="Path 5479" d="M420.631,398l.006,0c-.382.041-.047,1.727-.2,2.672-.139.843-.505,1.639-1.042,1.721a10.2,10.2,0,0,0-.483-3.209l.916-1.27s.6.047.805.079Z" transform="translate(-418.91 -397.92)" fill="#ebb376"/>
          <path id="Path_5480" data-name="Path 5480" d="M420.631,398l.006,0c-.382.041-.047,1.727-.2,2.672-.139.843-.505,1.639-1.042,1.721a10.2,10.2,0,0,0-.483-3.209l.916-1.27s.6.047.805.079Z" transform="translate(-418.91 -397.92)" opacity="0.2"/>
        </g>
        <g id="Group_1639" data-name="Group 1639" transform="translate(9.351 74.423)">
          <path id="Path_5481" data-name="Path 5481" d="M408.485,411.145h-.423l-.117-.524-1.4.632h-3.55s-.565-.568,1.127-1.02a1.421,1.421,0,0,0,.24-.092,9.952,9.952,0,0,0,2.185-1.851h1.949a2.341,2.341,0,0,1,.161.281,2.482,2.482,0,0,1-.164,2.571Z" transform="translate(-402.903 -407.876)" fill="#407bff"/>
          <path id="Path_5482" data-name="Path 5482" d="M411.819,407.678v.006c-.256-.287-1.427.973-2.283,1.4-.764.382-1.626.549-2.005.161a10.285,10.285,0,0,0,2.318-2.267h1.566s.316.515.407.7Z" transform="translate(-406.069 -406.98)" fill="#ebb376"/>
        </g>
        <path id="Path_5483" data-name="Path 5483" d="M384.041,286.092c.951,1.753,1.911,3.638,2.833,5.527,1.213,2.492,2.359,4.99,3.338,7.226,1.03,2.356,1.87,4.415,2.394,5.846a3.9,3.9,0,0,0,2.422-1.645,80.367,80.367,0,0,0-3.483-13.52,34.613,34.613,0,0,0-3.569-7.342c5.808-16.526,4.383-22.722,4.383-22.722l-6.73-.3s-1.02,6.155-1.832,12.468h0c-.423,3.313-.793,6.667-.928,9.2v.025a9.859,9.859,0,0,0,1.178,5.239Z" transform="translate(-379.835 -231.419)" fill="#263238"/>
        <path id="Path_5484" data-name="Path 5484" d="M403.074,292.245c.853-2.811,1.465-5.242,1.9-7.327a8.775,8.775,0,0,0-1.873-3.869,28.681,28.681,0,0,0-.028,11.2Z" transform="translate(-393.319 -246.396)" opacity="0.2"/>
        <path id="Path_5485" data-name="Path 5485" d="M406.15,364.639c1.03,2.356,1.87,4.415,2.394,5.846a3.9,3.9,0,0,0,2.422-1.645,80.372,80.372,0,0,0-3.483-13.52c-.493,2.738-1.042,6.2-1.333,9.319Z" transform="translate(-395.774 -297.211)" opacity="0.2"/>
        <path id="Path_5486" data-name="Path 5486" d="M399.76,256.8s1.958,15.165,3.082,22.46a152.327,152.327,0,0,1,1.036,24.974,4.96,4.96,0,0,0,2.839.287s3.995-15.5,1.342-24.5c2.416-17.733-1.08-22.075-1.08-22.075l-7.216-1.143Z" transform="translate(-391.402 -229.804)" fill="#263238"/>
        <path id="Path_5487" data-name="Path 5487" d="M401.282,216.212a31.742,31.742,0,0,1,6.5-4.532q-.322-.038-.654-.066a31.332,31.332,0,0,0-4.491-.152c-.373.022-.752.054-1.127.082h0a7.985,7.985,0,0,0-.234,4.668Z" transform="translate(-392.27 -198.763)" fill="#fff" opacity="0.7"/>
        <g id="Group_1640" data-name="Group 1640" transform="translate(5.478 12.665)">
          <path id="Path_5488" data-name="Path 5488" d="M400.7,225.752a56.772,56.772,0,0,1,2.447-10.943,4.756,4.756,0,0,0-.322-3.066s-1.93-.051-2.125-.073q-.322-.038-.654-.066a31.335,31.335,0,0,0-4.491-.152c-.373.022-.752.054-1.127.082-.12.013-1.478.025-1.595.038,0,0-1.879,2.147-1.993,3.888a30.181,30.181,0,0,0-.155,4.033c.009,1.579.123,3.663.227,5.883l9.784.373Z" transform="translate(-390.662 -211.421)" fill="#407bff"/>
          <path id="Path_5489" data-name="Path 5489" d="M400.7,225.752a56.772,56.772,0,0,1,2.447-10.943,4.756,4.756,0,0,0-.322-3.066s-1.93-.051-2.125-.073q-.322-.038-.654-.066a31.335,31.335,0,0,0-4.491-.152c-.373.022-.752.054-1.127.082-.12.013-1.478.025-1.595.038,0,0-1.879,2.147-1.993,3.888a30.181,30.181,0,0,0-.155,4.033c.009,1.579.123,3.663.227,5.883l9.784.373Z" transform="translate(-390.662 -211.421)" fill="#fff" opacity="0.8"/>
          <path id="Path_5490" data-name="Path 5490" d="M400.676,255.37l-9.8-.66s-.294,2.943-.227,2.9,10.488.366,10.488.366l-.464-2.605Z" transform="translate(-390.639 -241.039)" fill="#263238"/>
          <path id="Path_5491" data-name="Path 5491" d="M401.128,256.154l-9.7-.534v.919l9.787.518Z" transform="translate(-391.18 -241.662)"/>
          <path id="Path_5492" data-name="Path 5492" d="M402.423,257.15l.041-.54a.185.185,0,0,0-.171-.2l-1.061-.082a.187.187,0,0,0-.2.186v.568a.189.189,0,0,0,.177.186l1.02.054a.186.186,0,0,0,.2-.17Z" transform="translate(-397.749 -242.146)" fill="none" stroke="#fff" stroke-miterlimit="10" stroke-width="0.5"/>
        </g>
        <path id="Path_5493" data-name="Path 5493" d="M415.758,232.317l3.389-.613-1.974-7.286s.505-1.81,1.061-3.881c.268-1.011.553-2.081.789-3.035a24.805,24.805,0,0,0,.625-2.886,7.758,7.758,0,0,0-.973-3.041l-2.447-.395a11.7,11.7,0,0,0-2.375,7.178c-.145,4.712,1.9,13.962,1.9,13.962Z" transform="translate(-401.04 -198.591)" fill="#407bff"/>
        <path id="Path_5494" data-name="Path 5494" d="M392.486,211.19a25.7,25.7,0,0,0-2.612,6.436c-.49,2.735-1.838,14.372-1.838,14.372l-.736-.366,1.02-6.941s-.366-8.047-.082-9.7a10.591,10.591,0,0,1,2.135-3.8h2.11Z" transform="translate(-382.877 -198.598)" fill="#407bff"/>
        <g id="Group_1641" data-name="Group 1641" transform="translate(6.025 12.177)">
          <path id="Path_5495" data-name="Path 5495" d="M397.006,210.349l-.145-.129a6.683,6.683,0,0,0-3.97,2.624l.736.72-1.257,1.011.6,4.879a84.294,84.294,0,0,1,2.741-8.066A5.834,5.834,0,0,1,397.006,210.349Z" transform="translate(-392.37 -210.112)" fill="#407bff"/>
          <path id="Path_5496" data-name="Path 5496" d="M397.006,210.37l-.145-.12a6.635,6.635,0,0,0-3.97,2.615l.736.72L392.37,214.6l.6,4.879a84.3,84.3,0,0,1,2.741-8.066A5.834,5.834,0,0,1,397.006,210.37Z" transform="translate(-392.37 -210.132)" opacity="0.2"/>
          <path id="Path_5497" data-name="Path 5497" d="M415.752,210.292s-2.365,2.612-1.838,9.471l2.312-4.93-.837-1.349,1.961-1.838s-1.03-1.949-1.753-1.756l.158.4Z" transform="translate(-407.058 -209.878)" fill="#407bff"/>
          <path id="Path_5498" data-name="Path 5498" d="M415.752,210.292s-2.365,2.612-1.838,9.471l2.312-4.93-.837-1.349,1.961-1.838s-1.03-1.949-1.753-1.756l.158.4Z" transform="translate(-407.058 -209.878)" opacity="0.2"/>
        </g>
        <g id="Group_1642" data-name="Group 1642" transform="translate(7.986 7.782)">
          <path id="Path_5499" data-name="Path 5499" d="M404.3,201.509l.546,3.25,4.276-3.739c-.9-1-.335-3.625.1-5.059l-1.21.906-1.8,1.345a3.394,3.394,0,0,1-.085,1.108c-.136.572-.382,1.112-.651,1.225l-1.178.96Z" transform="translate(-402.494 -195.96)" fill="#ebb376"/>
          <path id="Path_5500" data-name="Path 5500" d="M410.08,201.287a2.622,2.622,0,0,0,1.813-1.639,3.585,3.585,0,0,0,.079-.818l-1.8,1.345a3.393,3.393,0,0,1-.085,1.108Z" transform="translate(-406.448 -197.924)" opacity="0.2"/>
          <path id="Path_5501" data-name="Path 5501" d="M405,209.38a22.776,22.776,0,0,0-3.976,4.393s-.193-2.975.543-4.042l-.155-.183a7.107,7.107,0,0,0-2.83,2.245l1.418-.448.97,2.624,2.921-2.41,1.964.341s-.1-1.936-.856-2.517Z" transform="translate(-398.58 -205.142)" fill="#407bff"/>
          <path id="Path_5502" data-name="Path 5502" d="M405,209.38a22.776,22.776,0,0,0-3.976,4.393s-.193-2.975.543-4.042l-.155-.183a7.107,7.107,0,0,0-2.83,2.245l1.418-.448.97,2.624,2.921-2.41,1.964.341s-.1-1.936-.856-2.517Z" transform="translate(-398.58 -205.142)" fill="#fff" opacity="0.7"/>
        </g>
        <path id="Path_5503" data-name="Path 5503" d="M425.749,230.662a1.124,1.124,0,0,0,.448.559c.268-1.011.553-2.081.789-3.035-.625-.755-1.156-1.386-1.156-1.386A6.83,6.83,0,0,0,425.749,230.662Z" transform="translate(-409.003 -209.278)" opacity="0.2"/>
        <path id="Path_5504" data-name="Path 5504" d="M420.752,212.44c1.342.161,5.444,10.352,5.2,11.963s-9.07.878-9.07.878V222.83l5.151-1.039-1.784-3.5a8.894,8.894,0,0,1-.388-3.142,7.076,7.076,0,0,1,.891-2.713Z" transform="translate(-403.115 -199.453)" fill="#407bff"/>
        <g id="Group_1643" data-name="Group 1643" transform="translate(8.176 17.433)">
          <path id="Path_5505" data-name="Path 5505" d="M400.923,236.969l6.771-.821a.451.451,0,0,0,.4-.515l-1.191-8.71a.491.491,0,0,0-.543-.4l-6.771.821a.451.451,0,0,0-.4.515l1.191,8.71a.491.491,0,0,0,.543.4Z" transform="translate(-399.184 -226.519)" fill="#263238"/>
          <path id="Path_5506" data-name="Path 5506" d="M400.923,236.969l6.771-.821a.451.451,0,0,0,.4-.515l-1.191-8.71a.491.491,0,0,0-.543-.4l-6.771.821a.451.451,0,0,0-.4.515l1.191,8.71a.491.491,0,0,0,.543.4Z" transform="translate(-399.184 -226.519)" fill="#fff" opacity="0.6"/>
          <path id="Path_5507" data-name="Path 5507" d="M401.823,236.934l6.49-.786a.451.451,0,0,0,.4-.515l-1.191-8.71a.491.491,0,0,0-.543-.4l-6.49.786a.451.451,0,0,0-.4.515l1.191,8.71A.491.491,0,0,0,401.823,236.934Z" transform="translate(-399.8 -226.519)" fill="#fff" opacity="0.2"/>
          <path id="Path_5508" data-name="Path 5508" d="M412.452,240.707a.76.76,0,0,1,.843.622.7.7,0,0,1-.622.8.76.76,0,0,1-.843-.622A.7.7,0,0,0,412.452,240.707Z" transform="translate(-407.836 -236.222)" fill="#263238"/>
          <path id="Path_5509" data-name="Path 5509" d="M405.056,228.034l3.578-.433a.415.415,0,0,0,.357-.309l.111-.452-4.721.572.243.407a.446.446,0,0,0,.436.212Z" transform="translate(-402.739 -226.739)" opacity="0.3"/>
        </g>
        <path id="Path_5510" data-name="Path 5510" d="M401.931,244.342l2.015.578.423,1.336c-.193,1.083-2.277.622-2.277.622l-.426.268a.576.576,0,0,1-.875-.388l-.221-1.26a.573.573,0,0,1,.215-.556l.638-.5a.578.578,0,0,1,.515-.1Z" transform="translate(-391.95 -221.266)" fill="#ebb376"/>
        <path id="Path_5511" data-name="Path 5511" d="M421.033,237a13.809,13.809,0,0,1,1.1,4.207c-.246,1.611-10.583.616-10.583.616l-.256-1.914,6.919-1.314Z" transform="translate(-399.29 -216.257)" fill="#407bff"/>
        <g id="Group_1648" data-name="Group 1648" transform="translate(7.814 1.475)">
          <path id="Path_5512" data-name="Path 5512" d="M404.124,178.995c-2.321.161-2.981,1.453-2.984,3.856-.006,3,.8,5.078,3.66,4.241,3.881-1.14,3.18-8.363-.673-8.1Z" transform="translate(-400.16 -178.04)" fill="#ebb376"/>
          <path id="Path_5513" data-name="Path 5513" d="M404.54,190.48a4.928,4.928,0,0,1-.61,1.007.637.637,0,0,0,.628.221l-.022-1.228Z" transform="translate(-402.069 -185.903)" fill="#d58745"/>
          <g id="Group_1644" data-name="Group 1644" transform="translate(3.722 3.797)">
            <path id="Path_5514" data-name="Path 5514" d="M410.309,188.8c.009.189.12.341.246.335s.224-.164.215-.357-.12-.341-.246-.335S410.3,188.6,410.309,188.8Z" transform="translate(-410.154 -188.304)" fill="#263238"/>
            <path id="Path_5515" data-name="Path 5515" d="M410.243,188.155l-.423-.145S410.041,188.351,410.243,188.155Z" transform="translate(-409.82 -188.01)" fill="#263238"/>
          </g>
          <g id="Group_1645" data-name="Group 1645" transform="translate(1.347 3.863)">
            <path id="Path_5516" data-name="Path 5516" d="M402.8,189.016c.009.189.12.341.246.335s.224-.164.215-.357-.12-.341-.246-.335S402.789,188.824,402.8,189.016Z" transform="translate(-402.641 -188.521)" fill="#263238"/>
            <path id="Path_5517" data-name="Path 5517" d="M402.723,188.365l-.423-.145S402.521,188.561,402.723,188.365Z" transform="translate(-402.3 -188.22)" fill="#263238"/>
          </g>
          <path id="Path_5518" data-name="Path 5518" d="M410.04,184.448a1.21,1.21,0,0,1,1.03.281" transform="translate(-406.249 -181.763)" fill="none" stroke="#263238" stroke-linecap="round" stroke-linejoin="round" stroke-width="0.7"/>
          <path id="Path_5519" data-name="Path 5519" d="M402.7,184.509a1.087,1.087,0,0,0-.913.256" transform="translate(-400.604 -181.805)" fill="none" stroke="#263238" stroke-linecap="round" stroke-linejoin="round" stroke-width="0.7"/>
          <path id="Path_5520" data-name="Path 5520" d="M406.829,180.678a6.976,6.976,0,0,1-1.153-3.313s-4.728-1.56-4.633,3.12c0,0-.736-4.112,3.246-4.481s4.368,5.467,2.429,7.349A2.871,2.871,0,0,0,406.829,180.678Z" transform="translate(-400.057 -175.988)" fill="#263238"/>
          <path id="Path_5521" data-name="Path 5521" d="M408.183,195.38a1.126,1.126,0,0,1-1.323.679" transform="translate(-404.073 -189.256)" fill="none" stroke="#263238" stroke-linecap="round" stroke-linejoin="round" stroke-width="0.5"/>
          <g id="Group_1647" data-name="Group 1647" transform="translate(0 3.24)">
            <path id="Path_5522" data-name="Path 5522" d="M405.209,187.287h-2.315a.986.986,0,0,0-.041-.205,1.191,1.191,0,0,0-1.39-.745.983.983,0,0,0-.793.894.419.419,0,0,0-.281-.095.247.247,0,0,0-.129.047.735.735,0,0,0-.035-.161,1.191,1.191,0,0,0-1.39-.745.968.968,0,0,0-.755,1.235,1.189,1.189,0,0,0,1.386.745.983.983,0,0,0,.793-.887.2.2,0,0,1,.142-.1.376.376,0,0,1,.265.145.966.966,0,0,0,.032.161,1.191,1.191,0,0,0,1.39.745.984.984,0,0,0,.793-.9h2.324a.082.082,0,0,1,.016-.006.062.062,0,0,0,.051-.063.07.07,0,0,0-.073-.063Zm-5.776.843a1.038,1.038,0,0,1-1.213-.651.847.847,0,0,1,.66-1.08,1.038,1.038,0,0,1,1.213.651A.847.847,0,0,1,399.433,188.131Zm2.624.06a1.038,1.038,0,0,1-1.213-.651.847.847,0,0,1,.66-1.08,1.038,1.038,0,0,1,1.213.651A.847.847,0,0,1,402.057,188.191Z" transform="translate(-398.036 -186.248)" fill="#263238"/>
            <g id="Group_1646" data-name="Group 1646" opacity="0.3">
              <path id="Path_5523" data-name="Path 5523" d="M405.209,187.287h-2.315a.986.986,0,0,0-.041-.205,1.191,1.191,0,0,0-1.39-.745.983.983,0,0,0-.793.894.419.419,0,0,0-.281-.095.247.247,0,0,0-.129.047.735.735,0,0,0-.035-.161,1.191,1.191,0,0,0-1.39-.745.968.968,0,0,0-.755,1.235,1.189,1.189,0,0,0,1.386.745.983.983,0,0,0,.793-.887.2.2,0,0,1,.142-.1.376.376,0,0,1,.265.145.966.966,0,0,0,.032.161,1.191,1.191,0,0,0,1.39.745.984.984,0,0,0,.793-.9h2.324a.082.082,0,0,1,.016-.006.062.062,0,0,0,.051-.063.07.07,0,0,0-.073-.063Zm-5.776.843a1.038,1.038,0,0,1-1.213-.651.847.847,0,0,1,.66-1.08,1.038,1.038,0,0,1,1.213.651A.847.847,0,0,1,399.433,188.131Zm2.624.06a1.038,1.038,0,0,1-1.213-.651.847.847,0,0,1,.66-1.08,1.038,1.038,0,0,1,1.213.651A.847.847,0,0,1,402.057,188.191Z" transform="translate(-398.036 -186.248)" fill="#fff"/>
            </g>
          </g>
          <path id="Path_5524" data-name="Path 5524" d="M418.39,190.292a1.019,1.019,0,0,1,1.033-1c.723.028,1.168,1.481-.594,1.958-.253.07-.414-.174-.436-.954Z" transform="translate(-411.962 -185.087)" fill="#ebb376"/>
        </g>
        <path id="Path_5525" data-name="Path 5525" d="M382.44,219.682s5.211-6.844,4.759-8.46-3.515,3.461-3.515,3.461l-1.244,5Z" transform="translate(-379.551 -198.402)" opacity="0.2"/>
        <path id="Path_5526" data-name="Path 5526" d="M403.667,201.063a2.262,2.262,0,0,1-1.367-1.525l.73-.227Z" transform="translate(-393.139 -190.47)" opacity="0.2"/>
        <g id="Group_1649" data-name="Group 1649" transform="translate(6.372 8.922)">
          <path id="Path_5527" data-name="Path 5527" d="M393.47,204.73l1.323-1.99,1.358,2.277s-1.288,1.705-2.138,1l-.543-1.288Z" transform="translate(-393.47 -201.739)" fill="#ebb376"/>
          <path id="Path_5528" data-name="Path 5528" d="M399.8,199.57l.505,2.353-1.292.922-1.358-2.274Z" transform="translate(-396.337 -199.57)" fill="#ebb376"/>
        </g>
        <path id="Path_5529" data-name="Path 5529" d="M376.308,217.615l-1.421,1.21a1.593,1.593,0,0,1-1.573-1.412c-.442-2.419,6.221-9.373,6.221-9.373l1.292,1.756-4.519,7.816Z" transform="translate(-373.293 -196.443)" fill="#407bff"/>
      </g>
    </g>
  </g>
</svg>
