<svg xmlns="http://www.w3.org/2000/svg" xmlns:xlink="http://www.w3.org/1999/xlink" width="131.572" height="131.666" viewBox="0 0 131.572 131.666">
  <defs>
    <linearGradient id="linear-gradient" x1="1.13" y1="1.295" x2="0.236" y2="0.19" gradientUnits="objectBoundingBox">
      <stop offset="0" stop-color="#b37cff"/>
      <stop offset="1" stop-color="#f895e7"/>
    </linearGradient>
    <linearGradient id="linear-gradient-2" x1="1.094" y1="-1.029" x2="1.143" y2="0.752" gradientUnits="objectBoundingBox">
      <stop offset="0" stop-color="#cb236d"/>
      <stop offset="1" stop-color="#4c246d"/>
    </linearGradient>
    <linearGradient id="linear-gradient-3" x1="0.34" y1="-1.172" x2="1.834" y2="1.463" xlink:href="#linear-gradient-2"/>
    <linearGradient id="linear-gradient-4" x1="0.699" y1="-0.014" x2="1.371" y2="-0.646" xlink:href="#linear-gradient-2"/>
    <linearGradient id="linear-gradient-5" x1="-2.506" y1="0.26" x2="-2.833" y2="5.492" gradientUnits="objectBoundingBox">
      <stop offset="0" stop-color="#fdf53f"/>
      <stop offset="1" stop-color="#d93c65"/>
    </linearGradient>
    <linearGradient id="linear-gradient-6" x1="-5.639" y1="-1.31" x2="-8.963" y2="3.356" gradientUnits="objectBoundingBox">
      <stop offset="0" stop-color="#f9b776"/>
      <stop offset="1" stop-color="#f47960"/>
    </linearGradient>
    <linearGradient id="linear-gradient-7" x1="-2.564" y1="1.481" x2="-0.548" y2="0.722" gradientUnits="objectBoundingBox">
      <stop offset="0" stop-color="#53d8ff"/>
      <stop offset="1" stop-color="#3840f7"/>
    </linearGradient>
    <linearGradient id="linear-gradient-8" x1="-0.597" y1="-7.079" x2="0.076" y2="-5.361" xlink:href="#linear-gradient-7"/>
    <linearGradient id="linear-gradient-9" x1="-0.104" y1="-5.298" x2="0.38" y2="-3.603" xlink:href="#linear-gradient-7"/>
    <linearGradient id="linear-gradient-10" x1="-0.441" y1="-1.994" x2="0.254" y2="-1.304" xlink:href="#linear-gradient-7"/>
    <linearGradient id="linear-gradient-11" x1="-25.668" y1="8.275" x2="-21.669" y2="12.842" xlink:href="#linear-gradient-6"/>
    <linearGradient id="linear-gradient-12" x1="-2.414" y1="0.5" x2="-1.422" y2="0.5" xlink:href="#linear-gradient-6"/>
    <linearGradient id="linear-gradient-13" x1="-2.904" y1="-2.902" x2="-2.87" y2="1.801" xlink:href="#linear-gradient-2"/>
    <linearGradient id="linear-gradient-14" x1="-0.917" y1="-11.531" x2="-4.618" y2="10.38" xlink:href="#linear-gradient-7"/>
    <linearGradient id="linear-gradient-15" x1="-8.067" y1="-0.803" x2="-8.563" y2="2.421" xlink:href="#linear-gradient-6"/>
    <linearGradient id="linear-gradient-16" x1="-1.217" y1="-5.018" x2="-3.732" y2="17.97" xlink:href="#linear-gradient-7"/>
    <linearGradient id="linear-gradient-17" x1="-1.872" y1="-3.382" x2="-1.848" y2="1.958" xlink:href="#linear-gradient-2"/>
    <linearGradient id="linear-gradient-18" x1="-8.256" y1="-0.139" x2="-8.76" y2="2.61" xlink:href="#linear-gradient-6"/>
    <linearGradient id="linear-gradient-19" x1="0.495" y1="-0.305" x2="-1.857" y2="1.241" gradientUnits="objectBoundingBox">
      <stop offset="0" stop-color="#7c27dd"/>
      <stop offset="1" stop-color="#2b41d9"/>
    </linearGradient>
    <linearGradient id="linear-gradient-20" x1="-1.812" y1="0.081" x2="-2.048" y2="2.225" xlink:href="#linear-gradient-5"/>
    <linearGradient id="linear-gradient-21" x1="-2.856" y1="-0.197" x2="-3.676" y2="2.975" xlink:href="#linear-gradient-6"/>
    <linearGradient id="linear-gradient-22" x1="-12.491" y1="-11.885" x2="-13.553" y2="-10.602" xlink:href="#linear-gradient-6"/>
    <linearGradient id="linear-gradient-23" x1="-9.203" y1="-7.473" x2="-8.307" y2="-7.473" gradientUnits="objectBoundingBox">
      <stop offset="0" stop-color="#2b3582"/>
      <stop offset="1" stop-color="#150e42"/>
    </linearGradient>
    <linearGradient id="linear-gradient-24" x1="-40.074" y1="-38.462" x2="-37.634" y2="-41.123" xlink:href="#linear-gradient-6"/>
    <linearGradient id="linear-gradient-25" x1="13.103" y1="0.113" x2="-10.355" y2="0.827" xlink:href="#linear-gradient-5"/>
    <linearGradient id="linear-gradient-26" x1="-4.589" y1="-0.858" x2="-5.497" y2="0.879" xlink:href="#linear-gradient-23"/>
    <linearGradient id="linear-gradient-27" x1="0.775" y1="1.273" x2="-0.786" y2="-3.597" xlink:href="#linear-gradient-5"/>
  </defs>
  <g id="FEATURES_TOOLS-01" data-name="FEATURES &amp; TOOLS-01" transform="translate(-466.607 -458.308)">
    <path id="Path_5966" data-name="Path 5966" d="M585.852,570.659a47.039,47.039,0,0,1-7.2,6.061c-23.481,16.848-51.266,11.937-57.171,10.738-8.72-1.771-25.576-5.194-37.762-19.525-18.437-21.681-15.566-55.839-1.265-78.387,2.616-4.125,16.434-27.016,44.517-30.687,17-2.222,36.809,2.259,51.156,14.28,30.117,25.232,27.973,76.2,7.723,97.522Z" transform="translate(-4 0)" opacity="0.3" fill="url(#linear-gradient)"/>
    <path id="Path_5967" data-name="Path 5967" d="M1737.362,659.152l2.457-1.479a12.479,12.479,0,0,0,3.861,1.214l1.17,2.616a.235.235,0,0,0,.236.138l3.426-.3a.236.236,0,0,0,.208-.178l.692-2.781a12.507,12.507,0,0,0,3.587-1.874l2.679,1.023a.236.236,0,0,0,.265-.069l2.209-2.637a.235.235,0,0,0,.021-.273l-1.479-2.457a12.5,12.5,0,0,0,1.214-3.861l2.616-1.169a.235.235,0,0,0,.138-.236l-.3-3.427a.235.235,0,0,0-.178-.208l-2.781-.692a12.5,12.5,0,0,0-1.874-3.587l1.023-2.679a.236.236,0,0,0-.069-.265l-2.637-2.208a.235.235,0,0,0-.272-.021l-2.457,1.479a12.489,12.489,0,0,0-3.861-1.214l-1.17-2.616a.235.235,0,0,0-.236-.138l-3.426.3a.235.235,0,0,0-.208.178l-.692,2.781a12.489,12.489,0,0,0-3.587,1.874l-2.679-1.023a.236.236,0,0,0-.265.069l-2.208,2.637a.236.236,0,0,0-.021.273l1.479,2.457a12.5,12.5,0,0,0-1.215,3.861l-2.616,1.17a.235.235,0,0,0-.138.236l.3,3.427a.237.237,0,0,0,.178.208l2.782.692a12.5,12.5,0,0,0,1.874,3.587l-1.023,2.679a.236.236,0,0,0,.069.265l2.637,2.208a.236.236,0,0,0,.273.021Z" transform="translate(-1204.17 -164.8)" fill="url(#linear-gradient-2)"/>
    <path id="Path_5968" data-name="Path 5968" d="M1985.633,890.621a3.284,3.284,0,1,1,1.945-.067h0a3.272,3.272,0,0,1-1.945.067Zm1.6-5.9a2.821,2.821,0,1,0,.191,5.386h0a2.82,2.82,0,0,0,.3-5.2,2.872,2.872,0,0,0-.488-.183Zm.268,5.607h0Z" transform="translate(-1445.198 -405.802)" fill="#fff" opacity="0.56"/>
    <g id="Group_1802" data-name="Group 1802" transform="translate(522.323 462.62)">
      <g id="Group_1800" data-name="Group 1800" transform="translate(0 0)" opacity="0.64">
        <path id="Path_5969" data-name="Path 5969" d="M1727.244,1177.271a.582.582,0,0,1-.3-.192c-.2-.248-.405-.5-.6-.76a.585.585,0,0,1,.939-.7c.179.241.367.48.558.712a.585.585,0,0,1-.605.937Z" transform="translate(-1722.65 -1145.938)" fill="#f47abb"/>
        <path id="Path_5970" data-name="Path 5970" d="M1652.426,577.837a.581.581,0,0,1-.368-.3,19.171,19.171,0,0,1-.8-1.815.585.585,0,1,1,1.092-.417,18.184,18.184,0,0,0,.754,1.7.585.585,0,0,1-.676.828Zm-1.645-4.761a.585.585,0,0,1-.42-.45,19.009,19.009,0,0,1-.286-1.965.585.585,0,0,1,1.165-.107,17.675,17.675,0,0,0,.269,1.843.586.586,0,0,1-.727.679Zm-.3-5.028a.584.584,0,0,1-.428-.61,18.983,18.983,0,0,1,.259-1.968.585.585,0,1,1,1.15.213,17.882,17.882,0,0,0-.243,1.846.586.586,0,0,1-.738.518Zm1.08-4.919-.048-.016a.585.585,0,0,1-.347-.751,19.184,19.184,0,0,1,.781-1.824.585.585,0,0,1,1.049.516,18.05,18.05,0,0,0-.734,1.713.585.585,0,0,1-.7.362Zm2.364-4.447a.585.585,0,0,1-.32-.906,19.077,19.077,0,0,1,1.244-1.546.585.585,0,0,1,.872.78,18.019,18.019,0,0,0-1.167,1.451.585.585,0,0,1-.629.222Zm3.477-3.642a.585.585,0,0,1-.209-1.022,18.907,18.907,0,0,1,1.617-1.15.585.585,0,0,1,.627.987,17.837,17.837,0,0,0-1.517,1.079.583.583,0,0,1-.518.106Zm4.337-2.558a.585.585,0,0,1-.072-1.1c.356-.149.723-.29,1.09-.418.257-.089.518-.175.777-.253a.585.585,0,1,1,.338,1.12c-.243.073-.489.154-.73.237-.345.12-.69.253-1.024.393a.582.582,0,0,1-.38.024Zm4.867-1.3a.585.585,0,0,1,.081-1.144,18.943,18.943,0,0,1,1.98-.142.585.585,0,0,1,.021,1.17,17.914,17.914,0,0,0-1.858.133.584.584,0,0,1-.226-.016Z" transform="translate(-1650.051 -549.898)" fill="#f47abb"/>
        <path id="Path_5971" data-name="Path 5971" d="M2100.146,555.476a.585.585,0,0,1,.243-1.142c.314.048.634.105.95.17a.585.585,0,0,1-.236,1.145c-.3-.061-.6-.115-.891-.16a.487.487,0,0,1-.066-.014Z" transform="translate(-2078.546 -554.119)" fill="#f47abb"/>
      </g>
      <g id="Group_1801" data-name="Group 1801" transform="translate(13.854 7.943)" opacity="0.64">
        <path id="Path_5972" data-name="Path 5972" d="M2363.708,720.54a.585.585,0,0,1-.343-.257c-.157-.254-.324-.509-.5-.757a.585.585,0,1,1,.962-.665c.183.265.361.536.528.807a.585.585,0,0,1-.652.872Z" transform="translate(-2343.066 -718.608)" fill="#f47abb"/>
        <path id="Path_5973" data-name="Path 5973" d="M2029.174,820a.585.585,0,0,1,.173-1.149,17.739,17.739,0,0,0,1.832-.039.585.585,0,0,1,.085,1.166,18.926,18.926,0,0,1-1.953.041.6.6,0,0,1-.136-.02Zm4.929-.52a.585.585,0,0,1,.014-1.132c.554-.136,1.11-.3,1.652-.49l.1-.037a.585.585,0,0,1,.392,1.1l-.112.04c-.577.2-1.169.377-1.759.521a.581.581,0,0,1-.293,0Zm4.614-1.809a.585.585,0,0,1-.13-1.075,17.723,17.723,0,0,0,1.552-.971.585.585,0,1,1,.671.958,19.1,19.1,0,0,1-1.654,1.035.583.583,0,0,1-.438.053Zm3.963-2.97a.585.585,0,0,1-.256-.981,17.771,17.771,0,0,0,1.236-1.352.585.585,0,1,1,.9.744,19,19,0,0,1-1.317,1.441.584.584,0,0,1-.565.148Zm3.028-3.922a.578.578,0,0,1-.138-.058.585.585,0,0,1-.215-.8,17.96,17.96,0,0,0,.833-1.633.585.585,0,1,1,1.067.478,19.033,19.033,0,0,1-.887,1.739.584.584,0,0,1-.661.272Zm1.879-4.585a.585.585,0,0,1-.411-.712,17.77,17.77,0,0,0,.37-1.795.585.585,0,1,1,1.156.177,19.148,19.148,0,0,1-.394,1.913.585.585,0,0,1-.713.419l-.007,0Zm.591-4.92a.585.585,0,0,1-.43-.555,17.768,17.768,0,0,0-.124-1.829.585.585,0,0,1,1.161-.139,18.856,18.856,0,0,1,.132,1.949.585.585,0,0,1-.575.594.6.6,0,0,1-.164-.021Zm-.746-4.9a.584.584,0,0,1-.407-.4c-.084-.285-.177-.574-.276-.857s-.213-.587-.33-.874a.585.585,0,1,1,1.083-.442c.125.306.243.619.352.93s.2.609.293.913a.585.585,0,0,1-.715.729Z" transform="translate(-2024.769 -789.915)" fill="#f47abb"/>
        <path id="Path_5974" data-name="Path 5974" d="M1944.745,1322.453a.585.585,0,0,1,.3-1.131c.29.074.587.142.883.2a.585.585,0,0,1-.231,1.147c-.315-.064-.631-.136-.94-.214Z" transform="translate(-1944.314 -1292.929)" fill="#f47abb"/>
      </g>
    </g>
    <path id="Path_5975" data-name="Path 5975" d="M1879.216,789.734a.234.234,0,0,1-.17-.255.29.29,0,0,1,.006-.033.234.234,0,0,1,.255-.17,8.118,8.118,0,0,0,1.717.03h0a8.064,8.064,0,1,0-7.242-3.3.233.233,0,0,1,.036.2.237.237,0,0,1-.088.128.233.233,0,0,1-.327-.052,8.536,8.536,0,1,1,7.662,3.49h0a8.611,8.611,0,0,1-1.671-.015l-.05-.006-.094-.011-.033-.007Z" transform="translate(-1339.016 -299.624)" fill="#fff" opacity="0.56"/>
    <g id="Group_1803" data-name="Group 1803" transform="translate(466.607 470.692)" opacity="0.64">
      <path id="Path_5976" data-name="Path 5976" d="M466.758,1218.781a.459.459,0,0,1-.144-.421q.066-.367.14-.733a.459.459,0,0,1,.9.185q-.073.355-.136.71a.459.459,0,0,1-.761.259Z" transform="translate(-466.607 -1193.913)" fill="#f47abb"/>
      <path id="Path_5977" data-name="Path 5977" d="M481.643,743.224a.46.46,0,0,1-.132-.469c.136-.467.285-.937.444-1.4a.459.459,0,0,1,.869.3c-.154.444-.3.9-.43,1.352a.459.459,0,0,1-.75.212Zm1.29-3.555a.46.46,0,0,1-.112-.524c.195-.445.4-.891.621-1.326a.459.459,0,1,1,.822.41c-.21.421-.412.854-.6,1.285a.459.459,0,0,1-.6.236A.45.45,0,0,1,482.932,739.669Zm1.737-3.36a.46.46,0,0,1-.084-.576c.251-.418.515-.834.784-1.236a.459.459,0,0,1,.764.511c-.261.39-.517.793-.76,1.2a.459.459,0,0,1-.63.157.468.468,0,0,1-.073-.054Zm2.151-3.111a.46.46,0,0,1-.051-.625c.3-.381.617-.759.937-1.125a.459.459,0,0,1,.691.605c-.31.354-.616.721-.908,1.09a.459.459,0,0,1-.645.075Zm2.535-2.805-.021-.02a.46.46,0,0,1,.009-.65c.348-.338.711-.674,1.078-1a.459.459,0,1,1,.606.69c-.355.312-.706.637-1.044.965A.46.46,0,0,1,489.356,730.393Zm2.881-2.454a.469.469,0,0,1-.06-.066.459.459,0,0,1,.094-.643c.39-.29.793-.575,1.2-.847a.459.459,0,0,1,.512.763c-.392.263-.782.539-1.16.82A.459.459,0,0,1,492.237,727.94Zm3.174-2.058a.454.454,0,0,1-.092-.116.459.459,0,0,1,.176-.625c.424-.237.86-.467,1.3-.684a.459.459,0,0,1,.409.823c-.423.21-.845.433-1.256.662A.46.46,0,0,1,495.411,725.881Zm3.413-1.63a.459.459,0,0,1,.138-.766c.451-.18.912-.352,1.372-.511a.459.459,0,0,1,.3.869c-.445.154-.893.32-1.33.495a.46.46,0,0,1-.48-.087Zm3.594-1.177a.459.459,0,0,1,.195-.784c.47-.121.95-.232,1.426-.33a.459.459,0,0,1,.185.9c-.462.1-.927.2-1.382.32a.459.459,0,0,1-.424-.106Zm3.715-.7a.46.46,0,0,1,.253-.8c.482-.06.972-.108,1.456-.144a.459.459,0,1,1,.068.916c-.469.035-.944.081-1.411.139a.459.459,0,0,1-.366-.116Zm3.774-.221a.46.46,0,0,1,.312-.8c.484,0,.976.018,1.462.045a.459.459,0,1,1-.051.917c-.47-.026-.947-.041-1.416-.044a.459.459,0,0,1-.306-.12Zm3.77.269a.459.459,0,0,1,.371-.8c.48.066.966.144,1.442.234a.459.459,0,1,1-.169.9c-.462-.087-.933-.163-1.4-.227A.456.456,0,0,1,513.677,722.418Zm3.7.756a.459.459,0,0,1,.43-.783c.469.128.941.27,1.4.421a.459.459,0,1,1-.286.873c-.447-.146-.9-.283-1.359-.408a.458.458,0,0,1-.188-.1Zm3.574,1.232a.46.46,0,0,1,.487-.764c.448.188.9.389,1.336.6a.459.459,0,0,1-.4.829c-.425-.2-.86-.4-1.294-.581a.446.446,0,0,1-.131-.084Zm12.728,10.275a.461.461,0,0,1-.068-.078c-.269-.387-.551-.773-.838-1.145a.459.459,0,0,1,.727-.561c.3.384.587.782.865,1.182a.459.459,0,0,1-.686.6Zm-9.343-8.593a.459.459,0,0,1,.54-.737l.161.095c.364.214.731.44,1.087.67a.459.459,0,0,1-.5.772c-.346-.223-.7-.442-1.055-.651l-.155-.091a.458.458,0,0,1-.08-.058Zm6.988,5.634-.031-.031c-.317-.349-.646-.694-.98-1.026a.459.459,0,0,1,.648-.651c.344.343.685.7,1.011,1.059a.459.459,0,0,1-.649.649Zm-3.844-3.532a.459.459,0,0,1,.589-.7c.386.3.769.6,1.14.918a.459.459,0,0,1-.594.7c-.36-.3-.732-.6-1.1-.89l-.03-.025Z" transform="translate(-480.791 -721.35)" fill="#f47abb"/>
      <path id="Path_5978" data-name="Path 5978" d="M1614.219,1031.237a.452.452,0,0,1-.094-.119q-.174-.317-.355-.629a.46.46,0,0,1,.795-.461q.187.323.366.65a.459.459,0,0,1-.712.56Z" transform="translate(-1559.703 -1015.276)" fill="#f47abb"/>
    </g>
    <g id="Group_1804" data-name="Group 1804" transform="translate(470.909 507.731)" opacity="0.64">
      <path id="Path_5979" data-name="Path 5979" d="M1710.472,1509.573a.459.459,0,0,1-.132-.47c.068-.232.134-.463.2-.7a.459.459,0,1,1,.888.238q-.1.36-.2.719a.459.459,0,0,1-.571.31A.449.449,0,0,1,1710.472,1509.573Z" transform="translate(-1656.069 -1508.066)" fill="#f47abb"/>
      <path id="Path_5980" data-name="Path 5980" d="M596.181,1583.92a.459.459,0,0,1,.617-.68c.362.328.739.651,1.119.962a.459.459,0,0,1-.581.712c-.392-.32-.781-.654-1.155-.992h0Zm-1.735-1.708-.027-.027c-.345-.37-.685-.753-1.01-1.14a.46.46,0,0,1,.7-.592c.315.375.644.746.979,1.1a.459.459,0,0,1-.645.654Zm4.821,4.145a.459.459,0,0,1,.569-.718c.4.277.82.547,1.238.8a.459.459,0,1,1-.481.783c-.431-.264-.861-.543-1.277-.829a.548.548,0,0,1-.05-.039Zm-7.3-7.2a.451.451,0,0,1-.066-.075c-.292-.412-.576-.838-.846-1.266a.459.459,0,0,1,.776-.491c.262.415.538.827.82,1.226a.459.459,0,0,1-.684.605Zm10.688,9.2a.459.459,0,0,1,.516-.749c.437.221.886.434,1.333.632a.459.459,0,0,1-.372.84c-.461-.2-.924-.424-1.375-.652A.456.456,0,0,1,602.651,1588.361Zm3.62,1.535a.459.459,0,0,1,.459-.774c.462.16.935.311,1.406.447a.459.459,0,0,1-.255.882c-.486-.141-.974-.3-1.451-.461a.459.459,0,0,1-.159-.094Zm3.794,1.033a.459.459,0,0,1,.4-.79c.48.1.968.181,1.451.252a.459.459,0,0,1-.134.909c-.5-.073-1-.161-1.5-.26A.454.454,0,0,1,610.065,1590.929Zm3.9.51a.459.459,0,0,1,.338-.8c.487.031.983.049,1.473.054a.459.459,0,1,1-.01.918c-.506-.005-1.017-.024-1.52-.056a.454.454,0,0,1-.28-.119Zm3.93-.02a.454.454,0,0,1-.149-.306.459.459,0,0,1,.425-.491c.487-.035.981-.083,1.468-.144a.459.459,0,1,1,.113.911c-.5.062-1.011.112-1.514.149a.459.459,0,0,1-.342-.118Zm3.893-.546a.459.459,0,0,1,.215-.789c.479-.1.962-.214,1.436-.339a.459.459,0,0,1,.234.888c-.489.128-.987.246-1.482.35A.457.457,0,0,1,621.785,1590.873Zm3.786-1.062a.46.46,0,0,1,.156-.773c.462-.163.926-.341,1.378-.528a.459.459,0,1,1,.35.849c-.467.193-.945.376-1.422.545A.46.46,0,0,1,625.571,1589.811Zm3.611-1.558a.46.46,0,0,1,.1-.749c.435-.224.871-.462,1.3-.708a.459.459,0,1,1,.461.795c-.438.254-.888.5-1.337.731A.46.46,0,0,1,629.182,1588.253Zm3.37-2.03a.46.46,0,0,1,.046-.717c.4-.28.8-.576,1.189-.877a.459.459,0,1,1,.564.724c-.4.311-.812.615-1.227.905A.459.459,0,0,1,632.552,1586.223Zm3.065-2.467a.37.37,0,0,1-.029-.028.459.459,0,0,1,.026-.649c.36-.332.716-.678,1.057-1.028a.459.459,0,0,1,.657.642c-.353.362-.72.719-1.091,1.062a.46.46,0,0,1-.62,0Zm2.7-2.858a.459.459,0,0,1-.045-.632c.311-.377.617-.768.909-1.162a.459.459,0,1,1,.738.548c-.3.407-.618.81-.939,1.2a.459.459,0,0,1-.646.062l-.017-.015Zm2.293-3.2a.46.46,0,0,1-.081-.582q.187-.3.368-.609.194-.331.379-.664a.459.459,0,0,1,.8.445q-.19.344-.391.685-.186.317-.38.628a.459.459,0,0,1-.632.148.447.447,0,0,1-.067-.051Zm1.849-3.471a.459.459,0,0,1-.11-.528c.2-.447.393-.9.571-1.361a.459.459,0,1,1,.856.333c-.183.47-.381.943-.589,1.4a.459.459,0,0,1-.607.23A.453.453,0,0,1,642.459,1574.233Z" transform="translate(-589.426 -1569.038)" fill="#f47abb"/>
      <path id="Path_5981" data-name="Path 5981" d="M558.466,1621.975a.451.451,0,0,1-.1-.128q-.172-.331-.336-.666a.459.459,0,0,1,.825-.4q.159.325.325.646a.459.459,0,0,1-.716.552Z" transform="translate(-557.985 -1615.225)" fill="#f47abb"/>
    </g>
    <g id="Group_1805" data-name="Group 1805" transform="translate(471.035 475.109)">
      <path id="Path_5982" data-name="Path 5982" d="M561.907,848.057a.385.385,0,0,0,.333.3l4.659.514a20.434,20.434,0,0,0,3.814,5.405l-1.073,4.56a.385.385,0,0,0,.169.414l4.754,3a.385.385,0,0,0,.446-.025l3.656-2.929a20.421,20.421,0,0,0,6.52,1.12l2.466,3.986a.385.385,0,0,0,.412.173l5.484-1.239a.384.384,0,0,0,.3-.333l.514-4.659a20.426,20.426,0,0,0,5.4-3.814l4.56,1.073a.385.385,0,0,0,.414-.169l3-4.754a.385.385,0,0,0-.025-.446l-2.929-3.656a20.419,20.419,0,0,0,1.12-6.52l3.986-2.467a.385.385,0,0,0,.173-.412l-1.239-5.484a.384.384,0,0,0-.333-.3l-4.659-.514a20.42,20.42,0,0,0-3.814-5.405l1.073-4.56a.385.385,0,0,0-.169-.414l-4.754-3a.385.385,0,0,0-.446.025l-3.656,2.929a20.42,20.42,0,0,0-6.519-1.121l-2.467-3.986a.385.385,0,0,0-.412-.173l-5.484,1.239a.386.386,0,0,0-.3.333l-.514,4.659a20.425,20.425,0,0,0-5.4,3.814l-4.56-1.073a.385.385,0,0,0-.414.169l-3,4.754a.385.385,0,0,0,.025.446l2.929,3.656a20.415,20.415,0,0,0-1.121,6.519l-3.986,2.467a.385.385,0,0,0-.173.412l1.239,5.484Z" transform="translate(-560.658 -815.168)" fill="url(#linear-gradient-3)"/>
      <path id="Path_5983" data-name="Path 5983" d="M972.571,1234.7a5.4,5.4,0,1,1,1.954,1.133,5.393,5.393,0,0,1-1.954-1.133Zm6.713-7.394a4.588,4.588,0,1,0,1.279,4.825A4.57,4.57,0,0,0,979.285,1227.3Z" transform="translate(-951.494 -1205.995)" fill="#fff"/>
      <path id="Path_5984" data-name="Path 5984" d="M799.966,1070.771l-.126-.116s0,0,0,0l-.061-.058,0,0,0,0-.157-.151-.017-.017a.2.2,0,0,1-.008-.28l.005-.006a.2.2,0,0,1,.285,0,13.431,13.431,0,0,0,2.233,1.765h0a13.36,13.36,0,1,0-6.227-11.623.2.2,0,0,1-.052.131.2.2,0,0,1-.352-.14,13.771,13.771,0,1,1,6.415,11.973h0a13.89,13.89,0,0,1-1.928-1.467Z" transform="translate(-784.424 -1035.926)" fill="#fff"/>
    </g>
    <g id="Group_1806" data-name="Group 1806" transform="translate(516.543 502.756)" opacity="0.64">
      <path id="Path_5985" data-name="Path 5985" d="M1528.057,1440.794a.988.988,0,0,1-.775-1.058c.1-1.062.243-2.134.426-3.186a.988.988,0,1,1,1.946.338c-.174,1-.311,2.022-.405,3.033a.987.987,0,0,1-1.076.891,1.071,1.071,0,0,1-.116-.018Zm1.6-8.065c-.028-.006-.055-.013-.083-.022a.988.988,0,0,1-.655-1.234c.313-1.022.67-2.042,1.059-3.033a.988.988,0,1,1,1.839.724c-.371.943-.71,1.915-1.009,2.888A.988.988,0,0,1,1529.661,1432.729Zm3.195-7.574a.988.988,0,0,1-.659-1.442c.514-.936,1.071-1.863,1.656-2.754a.988.988,0,0,1,1.651,1.084c-.556.848-1.087,1.73-1.576,2.622a.989.989,0,0,1-1.073.49Zm4.678-6.763a.988.988,0,0,1-.542-1.609c.694-.81,1.43-1.6,2.187-2.358a.988.988,0,0,1,1.4,1.4c-.72.718-1.421,1.473-2.082,2.244A.987.987,0,0,1,1537.534,1418.392Zm5.966-5.662a.988.988,0,0,1-.4-1.748c.847-.653,1.728-1.279,2.62-1.862a.988.988,0,1,1,1.081,1.654c-.849.555-1.689,1.152-2.495,1.773a.984.984,0,0,1-.811.183Zm6.991-4.33a.988.988,0,0,1-.225-1.854c.96-.467,1.95-.9,2.942-1.292a.988.988,0,0,1,.724,1.839c-.945.372-1.888.786-2.8,1.23A.987.987,0,0,1,1550.49,1408.4Zm7.72-2.823a.988.988,0,0,1-.036-1.924c1.034-.262,2.092-.487,3.142-.667a.988.988,0,0,1,.334,1.947c-1,.172-2.006.385-2.991.635a.983.983,0,0,1-.45.009Zm34.173,7a.988.988,0,0,1-.391-.18c-.807-.616-1.649-1.207-2.5-1.759a.988.988,0,0,1,1.071-1.661c.9.58,1.783,1.2,2.631,1.848a.988.988,0,0,1-.807,1.751Zm-26.041-8.188a.988.988,0,0,1,.167-1.953c1.065-.045,2.146-.048,3.214-.009a.988.988,0,0,1-.073,1.975c-1.016-.037-2.045-.035-3.059.008a.985.985,0,0,1-.25-.021Zm19.024,3.9a1.011,1.011,0,0,1-.219-.074c-.918-.437-1.863-.844-2.812-1.208a.988.988,0,0,1,.709-1.844c1,.383,1.99.81,2.953,1.269a.988.988,0,0,1-.632,1.858Zm-10.819-3.4a.988.988,0,0,1,.37-1.94c1.053.174,2.1.391,3.147.648a.988.988,0,0,1-.472,1.919c-.993-.245-2-.451-3-.617l-.047-.009Z" transform="translate(-1527.277 -1402.398)" fill="#f47abb"/>
    </g>
    <g id="Group_1807" data-name="Group 1807" transform="translate(525.502 541.918)" opacity="0.64">
      <path id="Path_5986" data-name="Path 5986" d="M3219.041,2237.772a.987.987,0,0,1-.777-1.016c.026-.513.042-1.031.048-1.54a.988.988,0,1,1,1.976.022c-.006.535-.023,1.079-.05,1.618a.989.989,0,0,1-1.037.937,1.072,1.072,0,0,1-.158-.021Z" transform="translate(-3147.61 -2234.239)" fill="#f47abb"/>
      <path id="Path_5987" data-name="Path 5987" d="M1835.085,2407.755l-.008,0c-.821-.184-1.647-.395-2.455-.628-.2-.058-.4-.118-.6-.179a.988.988,0,0,1,.577-1.89c.191.059.382.115.574.17.77.222,1.557.424,2.339.6a.988.988,0,0,1-.423,1.93Zm4.949.787a.988.988,0,0,1,.3-1.949c.994.1,2.005.153,3,.171a.988.988,0,1,1-.035,1.975c-1.05-.019-2.113-.079-3.157-.178a1.009,1.009,0,0,1-.115-.018Zm-12.632-3.329a.968.968,0,0,1-.2-.064c-.961-.429-1.916-.9-2.837-1.4a.988.988,0,0,1,.942-1.737c.878.476,1.786.924,2.7,1.333a.988.988,0,0,1-.609,1.869Zm20.722,3.278a.988.988,0,0,1,.1-1.948c.993-.107,1.994-.255,2.975-.439a.988.988,0,0,1,.364,1.942c-1.031.193-2.083.349-3.127.462A.988.988,0,0,1,1848.124,2408.491Zm-27.741-7.308a.987.987,0,0,1-.368-.163c-.852-.612-1.692-1.266-2.5-1.943a.988.988,0,0,1,1.273-1.511c.766.645,1.565,1.268,2.376,1.85a.988.988,0,0,1-.784,1.768Zm35.651,5.628a.988.988,0,0,1-.1-1.906c.951-.3,1.9-.65,2.829-1.028a.988.988,0,1,1,.745,1.83c-.973.4-1.973.76-2.971,1.08a.985.985,0,0,1-.508.025Zm7.415-3.23a.988.988,0,0,1-.276-1.827c.873-.49,1.737-1.019,2.568-1.573a.988.988,0,1,1,1.1,1.644c-.873.582-1.78,1.137-2.7,1.651a.987.987,0,0,1-.691.1Zm6.623-4.646a.987.987,0,0,1-.437-1.713c.757-.654,1.5-1.345,2.2-2.055a.988.988,0,0,1,1.4,1.392c-.74.745-1.518,1.471-2.313,2.158A.985.985,0,0,1,1870.073,2398.935Zm5.561-5.88a.989.989,0,0,1-.574-1.569c.61-.792,1.2-1.619,1.743-2.456a.988.988,0,1,1,1.654,1.08c-.574.88-1.191,1.748-1.832,2.582a.989.989,0,0,1-.991.364Zm4.261-6.879a1.017,1.017,0,0,1-.225-.078.988.988,0,0,1-.456-1.321c.437-.9.844-1.824,1.211-2.755a.988.988,0,0,1,1.838.725c-.386.979-.814,1.952-1.273,2.895a.988.988,0,0,1-1.1.534Zm2.79-7.593-.04-.009a.988.988,0,0,1-.71-1.2c.134-.521.26-1.052.373-1.579q.146-.681.268-1.364a.988.988,0,1,1,1.945.346q-.128.717-.281,1.432c-.119.553-.251,1.111-.392,1.658a.988.988,0,0,1-1.163.719Z" transform="translate(-1812.479 -2367.05)" fill="#f47abb"/>
      <path id="Path_5988" data-name="Path 5988" d="M1719.392,2781.451a.985.985,0,0,1-.518-.3c-.364-.4-.725-.8-1.073-1.212a.988.988,0,1,1,1.5-1.28c.331.389.675.777,1.022,1.153a.988.988,0,0,1-.935,1.635Z" transform="translate(-1717.565 -2752.7)" fill="#f47abb"/>
    </g>
    <g id="Group_1808" data-name="Group 1808" transform="translate(522.837 507.896)">
      <path id="Path_5989" data-name="Path 5989" d="M1667.321,1567.906a.556.556,0,0,0,.583.274l6.644-1.211a29.415,29.415,0,0,0,7.495,5.889l.4,6.738a.556.556,0,0,0,.4.5l7.8,2.184a.555.555,0,0,0,.606-.219l3.839-5.551a29.411,29.411,0,0,0,9.463-1.141l5.049,4.486a.555.555,0,0,0,.641.069l7.061-3.972a.556.556,0,0,0,.274-.583l-1.211-6.644a29.429,29.429,0,0,0,5.89-7.495l6.738-.4a.554.554,0,0,0,.5-.4l2.185-7.8a.555.555,0,0,0-.219-.606l-5.551-3.839a29.416,29.416,0,0,0-1.142-9.463l4.486-5.049a.554.554,0,0,0,.069-.64l-3.971-7.061a.555.555,0,0,0-.583-.274l-6.645,1.211a29.415,29.415,0,0,0-7.494-5.89l-.4-6.738a.555.555,0,0,0-.4-.5l-7.8-2.184a.554.554,0,0,0-.606.219l-3.839,5.551a29.41,29.41,0,0,0-9.464,1.142l-5.049-4.486a.555.555,0,0,0-.641-.069l-7.061,3.972a.556.556,0,0,0-.274.583l1.211,6.644a29.424,29.424,0,0,0-5.889,7.495l-6.738.4a.554.554,0,0,0-.5.4l-2.184,7.8a.554.554,0,0,0,.218.606l5.551,3.839a29.412,29.412,0,0,0,1.142,9.463l-4.485,5.049a.555.555,0,0,0-.069.641l3.972,7.061Z" transform="translate(-1660.971 -1511.571)" fill="url(#linear-gradient-4)"/>
      <path id="Path_5990" data-name="Path 5990" d="M2237.457,2097.95a8.568,8.568,0,1,1,1.251.124h0A8.536,8.536,0,0,1,2237.457,2097.95Zm2.481-14.173a5.94,5.94,0,0,0-.86-.085,5.828,5.828,0,0,0-.3,11.653h0a5.829,5.829,0,0,0,1.16-11.567Z" transform="translate(-2203.561 -2054.152)" fill="#fff" opacity="0.56"/>
      <path id="Path_5991" data-name="Path 5991" d="M2006.858,1875.5a20.066,20.066,0,0,1-1.983-.449h0a20.187,20.187,0,0,1-3.5-1.343q-.191-.095-.38-.193l-.073-.039a.456.456,0,0,1-.236-.48.468.468,0,0,1,.046-.135.456.456,0,0,1,.615-.19,19.187,19.187,0,0,0,3.778,1.5c.108.03.216.06.325.088a19.1,19.1,0,0,0,23.171-13.194c.013-.044.025-.088.037-.132a19.093,19.093,0,1,0-36.809-.126.455.455,0,0,1-.878.241,20.005,20.005,0,1,1,39.014-1.856,20.013,20.013,0,0,1-23.122,16.305Z" transform="translate(-1974.76 -1820.516)" fill="#fff" opacity="0.56"/>
    </g>
    <g id="Group_1812" data-name="Group 1812" transform="translate(484.382 497.633)">
      <g id="Group_1809" data-name="Group 1809" transform="translate(14.965 30.489)">
        <path id="Path_5992" data-name="Path 5992" d="M1179.075,1947.259c-5.153.9-8.586-2.418-11.135-4.424-3.365-2.648-5.92-1.281-5.92-1.281l3.667,6.934c5.376,5.065,10.766,3.816,14.146,2.078a7.051,7.051,0,0,0-.758-3.308Z" transform="translate(-1162.02 -1941.201)" fill="url(#linear-gradient-5)"/>
        <path id="Path_5993" data-name="Path 5993" d="M1531.484,1998.99l-1.7.99a14.672,14.672,0,0,1-5.508,2.348,7.049,7.049,0,0,1,.758,3.307,15.8,15.8,0,0,0,3.489-2.411c3.837-2.476,2.957-4.234,2.957-4.234Z" transform="translate(-1507.225 -1996.269)" fill="url(#linear-gradient-6)"/>
      </g>
      <g id="Group_1810" data-name="Group 1810" transform="translate(19.368 0)">
        <path id="Path_5994" data-name="Path 5994" d="M1256.1,1842.123l-.381,1.977c-.654,3.392.669,6.5,2.956,6.941l2.719.525c2.287.441,4.672-1.951,5.326-5.343l.381-1.977c.026-.131.048-.262.067-.394l8.779-59.089-5.924-1.143-13.84,58.112q-.046.194-.084.391Zm2.783.376c.493-2.553,2.122-4.386,3.64-4.093s2.348,2.6,1.855,5.154-2.122,4.386-3.64,4.094S1258.394,1845.052,1258.887,1842.5Z" transform="translate(-1255.556 -1760.549)" fill="url(#linear-gradient-7)"/>
        <path id="Path_5995" data-name="Path 5995" d="M1367.092,1296.056l-2.214,11.469a2.681,2.681,0,0,0,.624,2.284l2.823,3.194a2.681,2.681,0,0,0,3.212.62l3.809-1.914a2.681,2.681,0,0,0,1.428-1.887l2.214-11.47a2.06,2.06,0,0,1,3.64-.893,15.417,15.417,0,0,1,2.875,12.364c-1.592,8.248-9.118,12.681-17.052,11.15s-13.271-8.447-11.678-16.694a15.419,15.419,0,0,1,7.271-10.406A2.06,2.06,0,0,1,1367.092,1296.056Z" transform="translate(-1351.741 -1293.589)" fill="url(#linear-gradient-8)"/>
        <path id="Path_5996" data-name="Path 5996" d="M1390.043,1300.483l-2.214,11.469a2.682,2.682,0,0,0,.623,2.283l2.823,3.195a2.681,2.681,0,0,0,3.212.62l3.809-1.914a2.68,2.68,0,0,0,1.428-1.887l2.214-11.469a2.06,2.06,0,0,1,3.64-.893,15.417,15.417,0,0,1,2.875,12.364c-1.592,8.248-9.118,12.681-17.052,11.15s-13.27-8.447-11.678-16.694a15.42,15.42,0,0,1,7.271-10.406,2.06,2.06,0,0,1,3.047,2.183Z" transform="translate(-1373.61 -1297.807)" fill="url(#linear-gradient-9)"/>
        <path id="Path_5997" data-name="Path 5997" d="M1274.424,1845.663l-.381,1.977c-.655,3.392.668,6.5,2.956,6.941l2.719.525c2.287.441,4.672-1.951,5.326-5.343l.381-1.977c.026-.131.048-.262.068-.394l8.779-59.089-5.923-1.143-13.84,58.113q-.046.194-.084.391Zm2.783.376c.493-2.554,2.122-4.386,3.64-4.093s2.348,2.6,1.855,5.154-2.122,4.386-3.64,4.094S1276.714,1848.592,1277.207,1846.039Z" transform="translate(-1273.013 -1763.923)" fill="url(#linear-gradient-10)"/>
      </g>
      <path id="Path_5998" data-name="Path 5998" d="M1630.155,2012.909a1.253,1.253,0,0,0-.291-1.031c-.476-.551-1.3-1.306-1.9-.8-.889.758.085,3.35.085,3.35l.986,1.505.014.96C1629.585,2016.271,1629.9,2014.736,1630.155,2012.909Z" transform="translate(-1590.71 -1977.141)" fill="url(#linear-gradient-11)"/>
      <path id="Path_5999" data-name="Path 5999" d="M910.823,2317.11a11.407,11.407,0,0,1-2.613,1.986,21.986,21.986,0,0,0,4.924,4.215l.624,1.333,1.876-2.337a10.419,10.419,0,0,1-4.812-5.2Z" transform="translate(-905.194 -2268.923)" fill="url(#linear-gradient-12)"/>
      <path id="Path_6000" data-name="Path 6000" d="M1087.313,3157.654a.467.467,0,0,0-.015-.124c-.668-2.453-3.783-3.93-3.783-3.93l-1.221.119a8.479,8.479,0,0,0-.422,4.108c0,.017.009.033.014.048a29,29,0,0,0,5.427-.22Z" transform="translate(-1070.589 -3066.032)" fill="url(#linear-gradient-13)"/>
      <path id="Path_6001" data-name="Path 6001" d="M1084.1,3239.93a.53.53,0,0,0,.4.385,16.782,16.782,0,0,0,4.671-.154.444.444,0,0,0,.361-.45A29,29,0,0,1,1084.1,3239.93Z" transform="translate(-1072.804 -3148.088)" fill="url(#linear-gradient-14)"/>
      <path id="Path_6002" data-name="Path 6002" d="M1081.61,3116.982l.565,2.483a.408.408,0,0,0,.354.328,3.443,3.443,0,0,0,.8-.028.513.513,0,0,0,.395-.61l-.4-2.207-1.714.032Z" transform="translate(-1070.431 -3031.107)" fill="url(#linear-gradient-15)"/>
      <path id="Path_6003" data-name="Path 6003" d="M1263,3233.366a7.3,7.3,0,0,1-2.416-.3c0,.134.005.271.012.412a.266.266,0,0,0,.259.266l7.414-.187a.34.34,0,0,0,.263-.5c-.971.1-3.443.325-5.532.306Z" transform="translate(-1240.975 -3141.751)" fill="url(#linear-gradient-16)"/>
      <path id="Path_6004" data-name="Path 6004" d="M1268.5,3162.287a.342.342,0,0,0-.031-.055,9.448,9.448,0,0,0-5.684-3.421l-1.582-.02a7.584,7.584,0,0,0-.651,3.5,7.313,7.313,0,0,0,2.416.3C1265.056,3162.611,1267.528,3162.385,1268.5,3162.287Z" transform="translate(-1240.946 -3070.978)" fill="url(#linear-gradient-17)"/>
      <path id="Path_6005" data-name="Path 6005" d="M1267.22,3099.482c.02.118.27,1.9.367,2.6a.343.343,0,0,0,.3.305,3.617,3.617,0,0,0,1.086-.037.468.468,0,0,0,.346-.476l-.053-2.812Z" transform="translate(-1247.302 -3014.059)" fill="url(#linear-gradient-18)"/>
      <path id="Path_6006" data-name="Path 6006" d="M1025.217,2414.29a140.789,140.789,0,0,1,4.362,32.655.706.706,0,0,1-.547.7,8.186,8.186,0,0,1-1.764.238.655.655,0,0,1-.635-.535c-.594-3.125-4-20.73-5.8-23.565,0,0-.853,15.753-.331,23.907a.387.387,0,0,1-.334.409,6.538,6.538,0,0,1-1.419.023.518.518,0,0,1-.469-.431c-.431-2.646-2.921-18.4-3.043-29.78a17.284,17.284,0,0,1,1.632-3.463Z" transform="translate(-1007.185 -2361.528)" fill="url(#linear-gradient-19)"/>
      <path id="Path_6007" data-name="Path 6007" d="M867.161,1939.384a15.853,15.853,0,0,1-1.661-2.434c-.656-1.184-.036.776-.235-.573-4.808-3.333-11.917-1.466-14.673-1.065a3.687,3.687,0,0,0-2.307,1.3c-2.315,2.784-7.368,10.383-1.112,17.824a11.412,11.412,0,0,0,2.613-1.987,9.342,9.342,0,0,1,.547-7.345,6.929,6.929,0,0,0,.194.7,43.479,43.479,0,0,1,2.29,12.49.393.393,0,0,0,.253.362c2.591.982,7.529.275,9.187,0a.559.559,0,0,0,.456-.643c-.927-5.893,3.075-15.691,4.135-18.147a1.625,1.625,0,0,1,.314-.474Z" transform="translate(-844.157 -1904.259)" fill="url(#linear-gradient-20)"/>
      <path id="Path_6008" data-name="Path 6008" d="M1065.16,1841.7l-.4,5.073s2.865.8,4.909-.7l-1.543-4.575-2.966.2Z" transform="translate(-1054.374 -1815.705)" fill="url(#linear-gradient-21)"/>
      <g id="Group_1811" data-name="Group 1811" transform="translate(8.388 17.67)">
        <path id="Path_6009" data-name="Path 6009" d="M1065.784,1717.7c.07.063,3,5.557,3,5.557l-3.173,1.606-3.55-4.794S1064.616,1716.642,1065.784,1717.7Z" transform="translate(-1060.19 -1715.21)" fill="url(#linear-gradient-22)"/>
        <path id="Path_6010" data-name="Path 6010" d="M1025.618,1673.869a.511.511,0,0,0,.047.448l1.647,2.632a.5.5,0,0,0,.089.107.838.838,0,0,0,1.343-.034,4.508,4.508,0,0,1,1.236-1.388.51.51,0,0,1,.693.214,19.026,19.026,0,0,1,1.142,2.572.509.509,0,0,1-.284.629,14.151,14.151,0,0,1-3.05.952.512.512,0,0,1-.487-.2c-.5-.661-1.916-2.508-2.4-2.968-.445-.427-1.249-.248-1.611-.136a.515.515,0,0,1-.409-.046,1.125,1.125,0,0,1-.456-1.7.511.511,0,0,0-.171-.691,1.13,1.13,0,0,1-.463-1.595,1.593,1.593,0,0,1,1.709-.877.531.531,0,0,0,.551-.32.337.337,0,0,1,.26-.212.5.5,0,0,0,.39-.59,1.309,1.309,0,0,1,.7-1.513c1.367-.786,2.6.429,2.928,1.468s-1.2,1.807-2.172,1.948c-.712.1-1.088.89-1.238,1.3Z" transform="translate(-1022.329 -1668.902)" fill="url(#linear-gradient-23)"/>
        <path id="Path_6011" data-name="Path 6011" d="M1057.418,1823.421s-.648-1.786-1.433-1.7-1.389.876-.4,1.738c1.233,1.072,1.831-.033,1.831-.033Z" transform="translate(-1053.529 -1814.519)" fill="url(#linear-gradient-24)"/>
      </g>
      <path id="Path_6012" data-name="Path 6012" d="M953.074,2024.184a16.021,16.021,0,0,1-.775-6.284l.286.027a15.7,15.7,0,0,0,.758,6.152Z" transform="translate(-947.165 -1983.8)" fill="url(#linear-gradient-25)"/>
      <path id="Path_6013" data-name="Path 6013" d="M1070.8,2549.473a.144.144,0,0,1-.141-.105c-.34-1.213-2.732-2.509-2.757-2.522a.144.144,0,0,1,.136-.253c.1.055,2.525,1.366,2.9,2.7a.144.144,0,0,1-.1.177.131.131,0,0,1-.036.005Z" transform="translate(-1057.295 -2487.586)" fill="url(#linear-gradient-26)"/>
      <path id="Path_6014" data-name="Path 6014" d="M993.579,1647.678l-7.334,5.712a.175.175,0,0,1-.281-.113l-.076-.524s-3.052-3.069.084-5.843,6.836.369,6.836.369l.709.141a.146.146,0,0,1,.062.259Z" transform="translate(-977.947 -1629.185)" fill="url(#linear-gradient-27)"/>
    </g>
  </g>
</svg>
