<svg id="Group_995" data-name="Group 995" xmlns="http://www.w3.org/2000/svg" xmlns:xlink="http://www.w3.org/1999/xlink" width="133.983" height="133.729" viewBox="0 0 133.983 133.729">
  <defs>
    <linearGradient id="linear-gradient" x1="-0.837" y1="0.234" x2="0.195" y2="0.234" gradientUnits="objectBoundingBox">
      <stop offset="0" stop-color="#aa80f9"/>
      <stop offset="1" stop-color="#6165d7"/>
    </linearGradient>
    <linearGradient id="linear-gradient-2" x1="0.494" y1="0.468" x2="0.699" y2="1.038" gradientUnits="objectBoundingBox">
      <stop offset="0" stop-color="#ff9085"/>
      <stop offset="0.63" stop-color="#fc7ba7"/>
      <stop offset="1" stop-color="#fb6fbb"/>
    </linearGradient>
    <linearGradient id="linear-gradient-3" x1="0.453" y1="1.209" x2="0.493" y2="0.605" gradientUnits="objectBoundingBox">
      <stop offset="0" stop-color="#26264f"/>
      <stop offset="1" stop-color="#444b8c"/>
    </linearGradient>
    <linearGradient id="linear-gradient-4" x1="0.341" y1="0.939" x2="0.642" y2="-0.276" xlink:href="#linear-gradient-3"/>
    <linearGradient id="linear-gradient-5" x1="0" y1="0.5" x2="1" y2="0.5" xlink:href="#linear-gradient-3"/>
    <linearGradient id="linear-gradient-6" x1="0.384" y1="1.047" x2="0.649" y2="-0.416" xlink:href="#linear-gradient-3"/>
    <linearGradient id="linear-gradient-7" x1="0" y1="0.5" x2="1" y2="0.5" xlink:href="#linear-gradient-3"/>
    <linearGradient id="linear-gradient-9" x1="0.475" y1="1.004" x2="0.576" y2="-0.995" xlink:href="#linear-gradient-3"/>
    <linearGradient id="linear-gradient-10" x1="0.429" y1="0.313" x2="1.075" y2="1.164" gradientUnits="objectBoundingBox">
      <stop offset="0" stop-color="#fcb148"/>
      <stop offset="0.05" stop-color="#fdb946"/>
      <stop offset="0.14" stop-color="#fec144"/>
      <stop offset="0.32" stop-color="#ffc444"/>
      <stop offset="0.48" stop-color="#fdb946"/>
      <stop offset="0.78" stop-color="#f99c4c"/>
      <stop offset="0.87" stop-color="#f8924f"/>
      <stop offset="1" stop-color="#f8924f"/>
    </linearGradient>
    <linearGradient id="linear-gradient-11" x1="-0.216" y1="0.974" x2="0.607" y2="0.429" gradientUnits="objectBoundingBox">
      <stop offset="0.49" stop-color="#ebeff2"/>
      <stop offset="1" stop-color="#fff"/>
    </linearGradient>
    <linearGradient id="linear-gradient-12" x1="-0.348" y1="1.062" x2="0.515" y2="0.49" xlink:href="#linear-gradient-11"/>
    <linearGradient id="linear-gradient-13" x1="0.546" y1="0.061" x2="0.39" y2="1.002" xlink:href="#linear-gradient-10"/>
    <linearGradient id="linear-gradient-17" x1="0" y1="0.5" x2="1" y2="0.5" xlink:href="#linear-gradient-3"/>
    <linearGradient id="linear-gradient-18" x1="0.402" y1="-3.524" x2="0.634" y2="6.386" gradientUnits="objectBoundingBox">
      <stop offset="0" stop-color="#444b8c"/>
      <stop offset="1" stop-color="#26264f"/>
    </linearGradient>
    <linearGradient id="linear-gradient-19" x1="0.561" y1="1.882" x2="0.206" y2="-8.959" gradientUnits="objectBoundingBox">
      <stop offset="0" stop-color="#ffc444"/>
      <stop offset="1" stop-color="#f36f56"/>
    </linearGradient>
    <linearGradient id="linear-gradient-20" x1="0.365" y1="-1.189" x2="0.664" y2="2.684" xlink:href="#linear-gradient-18"/>
    <linearGradient id="linear-gradient-21" x1="0.527" y1="1.268" x2="0.349" y2="-3.814" xlink:href="#linear-gradient-19"/>
    <linearGradient id="linear-gradient-22" x1="-0.055" y1="0.668" x2="0.95" y2="0.31" xlink:href="#linear-gradient-18"/>
    <linearGradient id="linear-gradient-23" x1="-4.938" y1="2.046" x2="-4.206" y2="8.194" gradientUnits="objectBoundingBox">
      <stop offset="0" stop-color="#311944"/>
      <stop offset="1" stop-color="#893976"/>
    </linearGradient>
    <linearGradient id="linear-gradient-24" x1="-0.132" y1="0.737" x2="1.486" y2="0.111" xlink:href="#linear-gradient-18"/>
    <linearGradient id="linear-gradient-25" x1="0.61" y1="0.683" x2="0.394" y2="0.44" xlink:href="#linear-gradient-18"/>
    <linearGradient id="linear-gradient-26" x1="-0.295" y1="0.693" x2="1.109" y2="0.332" xlink:href="#linear-gradient"/>
    <linearGradient id="linear-gradient-27" x1="0" y1="0.5" x2="1" y2="0.5" xlink:href="#linear-gradient"/>
    <linearGradient id="linear-gradient-28" x1="0.315" y1="-0.146" x2="0.528" y2="0.812" xlink:href="#linear-gradient"/>
    <linearGradient id="linear-gradient-29" x1="0.735" y1="1.882" x2="0.496" y2="0.857" xlink:href="#linear-gradient-23"/>
    <linearGradient id="linear-gradient-30" x1="2.965" y1="3.606" x2="1.401" y2="1.718" xlink:href="#linear-gradient-23"/>
    <linearGradient id="linear-gradient-31" x1="0.475" y1="0.258" x2="1.407" y2="6.39" xlink:href="#linear-gradient-23"/>
    <linearGradient id="linear-gradient-32" x1="3.053" y1="0.389" x2="4.049" y2="0.389" xlink:href="#linear-gradient-18"/>
    <linearGradient id="linear-gradient-33" x1="22.943" y1="0.749" x2="24.167" y2="-1.027" xlink:href="#linear-gradient-19"/>
    <linearGradient id="linear-gradient-34" x1="5.008" y1="-0.977" x2="5.971" y2="-0.977" xlink:href="#linear-gradient-18"/>
    <linearGradient id="linear-gradient-35" x1="7.971" y1="0.712" x2="8.983" y2="-1.167" xlink:href="#linear-gradient-19"/>
    <linearGradient id="linear-gradient-36" x1="1.099" y1="0.836" x2="0.299" y2="0.171" xlink:href="#linear-gradient-18"/>
    <linearGradient id="linear-gradient-37" x1="-0.522" y1="0.866" x2="-1.656" y2="0.218" xlink:href="#linear-gradient-18"/>
    <linearGradient id="linear-gradient-38" x1="0.607" y1="0.219" x2="0.253" y2="0.722" xlink:href="#linear-gradient"/>
    <linearGradient id="linear-gradient-39" x1="0.214" y1="0.621" x2="0.738" y2="0.22" xlink:href="#linear-gradient"/>
    <linearGradient id="linear-gradient-40" x1="0.816" y1="0.192" x2="0.334" y2="0.711" xlink:href="#linear-gradient"/>
    <linearGradient id="linear-gradient-41" x1="0.314" y1="0.693" x2="1.174" y2="0.04" xlink:href="#linear-gradient"/>
    <linearGradient id="linear-gradient-42" x1="0.647" y1="3.338" x2="0.526" y2="0.667" xlink:href="#linear-gradient-23"/>
    <linearGradient id="linear-gradient-43" x1="0.444" y1="-0.345" x2="0.57" y2="1.229" xlink:href="#linear-gradient-23"/>
    <linearGradient id="linear-gradient-44" x1="0" y1="0.5" x2="1" y2="0.5" xlink:href="#linear-gradient-19"/>
    <linearGradient id="linear-gradient-45" x1="0.583" y1="0.69" x2="0.394" y2="0.249" xlink:href="#linear-gradient-18"/>
    <linearGradient id="linear-gradient-46" x1="0.206" y1="1.422" x2="0.626" y2="0.015" xlink:href="#linear-gradient-23"/>
    <linearGradient id="linear-gradient-47" x1="0" y1="0.5" x2="1" y2="0.5" xlink:href="#linear-gradient-23"/>
    <linearGradient id="linear-gradient-48" x1="-0.043" y1="-0.579" x2="1.277" y2="1.759" xlink:href="#linear-gradient-19"/>
    <linearGradient id="linear-gradient-49" x1="2.699" y1="-0.26" x2="2.755" y2="-2.033" xlink:href="#linear-gradient-19"/>
    <linearGradient id="linear-gradient-50" x1="0.504" y1="0.006" x2="-0.174" y2="-1.537" gradientUnits="objectBoundingBox">
      <stop offset="0" stop-color="#311944"/>
      <stop offset="1" stop-color="#6b3976"/>
    </linearGradient>
    <linearGradient id="linear-gradient-51" x1="-7.437" y1="-2.402" x2="-7.473" y2="0.761" xlink:href="#linear-gradient-19"/>
    <linearGradient id="linear-gradient-52" x1="0.205" y1="-0.518" x2="-0.58" y2="-2.708" xlink:href="#linear-gradient-50"/>
    <linearGradient id="linear-gradient-53" x1="-5.596" y1="-27.431" x2="-5.411" y2="-22.861" xlink:href="#linear-gradient-19"/>
  </defs>
  <path id="Path_4879" data-name="Path 4879" d="M422.178,430.319c-4.449,6.369.767,16.694-5.834,21.484-6.426,4.663-14.32-2.98-20.376,1.033-8.984,5.954-7.343,33.2,5.791,50.124,3.95,5.091,7.251,7.071,8.712,12.828,3.139,12.362-7.892,19.716-5.793,25.83,4.727,13.766,77.422,25.318,106.591-16.055,13.623-19.323,15.661-47.225,3.49-68.417-21.994-38.294-82.6-41.118-92.581-26.827Z" transform="translate(-390.335 -420.574)" fill="#f4f7fa"/>
  <path id="Path_4880" data-name="Path 4880" d="M1324.921,504.876c-3.566-1.077-9.568-2.889-13.937-8.4-7.943-10.026-5.329-25.782.192-35.813,4.742-8.617,13.541-14.228,31.137-25.45,16.573-10.569,22.236-11.793,23.637-18.227,2-9.172-7.491-15.963-3.555-26.314.473-1.242,2.094-5.508,5.984-7.121,6.659-2.762,15.291,4.186,19.336,9.318,3.9,4.949,8.112,14.016,4.985,21.362-2.265,5.323-6.458,5.22-7.333,10.113-.88,4.922,3.1,6.51,4.96,14.6.744,3.233,2.237,9.722-.609,15.317-3.681,7.234-11.284,6.424-12.653,12.435-.989,4.344,2.658,6.186,2.591,11.212-.089,6.617-6.516,11.485-11.919,15.464-6.362,4.686-23.528,17.329-42.816,11.505Z" transform="translate(-1263.852 -382.92)" fill="url(#linear-gradient)"/>
  <path id="Path_4881" data-name="Path 4881" d="M1519.762,447.538c-3.539,2.635,7.286,13.51,4.809,28.4-2.666,16.025-19.106,26.924-26.7,31.961-12.963,8.594-18.648,7.044-26.864,16.522-3.252,3.751-10.026,11.566-8.9,22.072.1.976,1.43,11.841,10,16.726,9.719,5.542,21.366-.822,31.4-6.305,6.064-3.313,18.178-9.932,17.068-16.741-.679-4.162-6.144-7.437-10.578-8.292-6.33-1.221-11.428,2.321-12.031,1.247-.543-.967,3.072-4.771,8.1-7.665,10.064-5.789,15.509-2.019,22.95-7.343.9-.646,7.974-5.862,7.871-13.467-.059-4.386-2.507-9.681-6.078-10.461-4.038-.882-7.769,4.391-8.727,3.561-.916-.794,1.939-6.1,5.526-10.926,5.271-7.1,7.73-7.256,9.624-11.7,2.889-6.784.262-13.688-.13-14.675-3.672-9.25-14.314-15.168-17.339-12.915Z" transform="translate(-1412.675 -444.108)" fill="#fff" opacity="0.16"/>
  <g id="Group_981" data-name="Group 981" transform="translate(80.658 75.903)">
    <path id="Path_4882" data-name="Path 4882" d="M2149.081,2081.228a12.753,12.753,0,0,1-5.013-6.117c-2-5.884,1.758-12.672,5.919-16.366,3.574-3.173,8.516-4.309,18.4-6.583,9.308-2.141,12.1-1.779,13.79-4.5,2.408-3.874-.83-8.529,2.656-12.627a5.892,5.892,0,0,1,3.9-2.286c3.5-.18,6.319,4.406,7.336,7.414.98,2.9,1.432,7.738-1.2,10.593-1.9,2.068-3.807,1.339-5,3.436s.358,3.486-.106,7.493c-.186,1.6-.559,4.815-2.773,6.914-2.863,2.713-6.212,1.1-7.818,3.634-1.16,1.827.21,3.265-.639,5.555-1.118,3.015-4.853,4.2-7.975,5.14-3.676,1.11-13.594,4.1-21.476-1.7Z" transform="translate(-2143.514 -2032.748)" fill="url(#linear-gradient-2)"/>
    <path id="Path_4883" data-name="Path 4883" d="M2254.166,2068.878c-2.049.63,1.136,7.372-2.423,13.788-3.83,6.9-13.131,9.217-17.43,10.286-7.334,1.824-9.685.189-14.99,3.191-2.1,1.188-6.473,3.663-7.669,8.656-.111.464-1.273,5.654,1.854,9.286,3.547,4.12,9.916,3.1,15.4,2.226,3.316-.53,9.94-1.588,10.54-4.886.366-2.017-1.6-4.406-3.493-5.519-2.7-1.589-5.61-.8-5.711-1.387-.091-.531,2.183-1.684,4.958-2.19,5.55-1.012,7.43,1.6,11.7.375.518-.149,4.605-1.386,5.8-4.885.687-2.018.428-4.84-1.079-5.779-1.7-1.061-4.272.746-4.575.21-.29-.513,1.88-2.476,4.309-4.1,3.568-2.391,4.721-2.063,6.312-3.791a9.918,9.918,0,0,0,2.33-6.74C2259.827,2072.782,2255.918,2068.34,2254.166,2068.878Z" transform="translate(-2208.231 -2067.174)" fill="#fff" opacity="0.16"/>
  </g>
  <g id="Group_985" data-name="Group 985" transform="translate(24.241 5.782)">
    <path id="Path_4884" data-name="Path 4884" d="M1000.164,548.084c0-21.807-18.566-39.484-41.467-39.484s-41.467,17.678-41.467,39.484A38.9,38.9,0,0,0,934.563,580.2a16.288,16.288,0,0,1,7.153,13.44v3.022A11.887,11.887,0,0,0,953.6,608.544H963.79a11.887,11.887,0,0,0,11.887-11.887v-3.022A16.288,16.288,0,0,1,982.83,580.2a38.9,38.9,0,0,0,17.333-32.111Z" transform="translate(-917.23 -508.6)" fill="#f4f7fa" opacity="0.75"/>
    <path id="Path_4885" data-name="Path 4885" d="M1637.017,2962.64c0,2.689-4.119,4.87-9.2,4.87s-9.2-2.18-9.2-4.87,4.119-4.87,9.2-4.87S1637.017,2959.95,1637.017,2962.64Z" transform="translate(-1586.351 -2845.092)" fill="url(#linear-gradient-3)"/>
    <path id="Path_4886" data-name="Path 4886" d="M1552.92,2874.52v4.973a4.37,4.37,0,0,0,2.476,3.948,23.309,23.309,0,0,0,10.708,1.979,24.047,24.047,0,0,0,8.542-1.49,4.441,4.441,0,0,0,2.716-4.113v-2.752Z" transform="translate(-1523.674 -2765.672)" fill="url(#linear-gradient-4)"/>
    <path id="Path_4887" data-name="Path 4887" d="M1552.92,2878.886a4.841,4.841,0,0,0,1.289.9c2.365,1.128,17.859,3.648,21.6,2.244a5.037,5.037,0,0,0,1.3-.72,4.516,4.516,0,0,0,.254-1.483v-2.752l-24.443-2.545v4.356Z" transform="translate(-1523.674 -2765.682)" opacity="0.3" fill="url(#linear-gradient-5)"/>
    <path id="Path_4888" data-name="Path 4888" d="M1523.115,2800.7a2.333,2.333,0,0,0-2.574,2.32v.141a4.9,4.9,0,0,0,2.778,4.43c2.365,1.128,17.859,3.648,21.6,2.244a4.515,4.515,0,0,0,3.047-4.332v-.114a2.334,2.334,0,0,0-2.091-2.321Z" transform="translate(-1492.784 -2695.24)" fill="url(#linear-gradient-6)"/>
    <path id="Path_4889" data-name="Path 4889" d="M1554.056,2803.085l-22.756-2.37a2.33,2.33,0,0,0-2.18,1.027,4.869,4.869,0,0,0,2.384,2.5c2.365,1.128,18.519,3.978,21.6,2.527a5.337,5.337,0,0,0,2.641-2.676A2.328,2.328,0,0,0,1554.056,2803.085Z" transform="translate(-1500.969 -2695.251)" opacity="0.3" fill="url(#linear-gradient-7)"/>
    <path id="Path_4890" data-name="Path 4890" d="M1522.224,2625.84a1.684,1.684,0,0,0-1.684,1.684v3.895a4.9,4.9,0,0,0,2.778,4.43c2.365,1.128,18.519,3.977,21.6,2.527a5.139,5.139,0,0,0,3.047-4.615v-6.237a1.684,1.684,0,0,0-1.684-1.684Z" transform="translate(-1492.784 -2528.433)" fill="url(#linear-gradient-5)"/>
    <path id="Path_4891" data-name="Path 4891" d="M1554.654,2586.631c0,1.746-5.987,3.162-13.372,3.162s-13.372-1.416-13.372-3.162,5.987-3.161,13.372-3.161S1554.654,2584.885,1554.654,2586.631Z" transform="translate(-1499.815 -2488.012)" fill="url(#linear-gradient-9)"/>
    <path id="Path_4892" data-name="Path 4892" d="M1000.164,548.084c0-21.807-18.566-39.484-41.467-39.484s-41.467,17.678-41.467,39.484A38.9,38.9,0,0,0,934.563,580.2a16.288,16.288,0,0,1,7.153,13.44v3.022A11.887,11.887,0,0,0,953.6,608.544H963.79a11.887,11.887,0,0,0,11.887-11.887v-3.022A16.288,16.288,0,0,1,982.83,580.2a38.9,38.9,0,0,0,17.333-32.111Z" transform="translate(-917.23 -508.6)" fill="url(#linear-gradient-10)"/>
    <ellipse id="Ellipse_184" data-name="Ellipse 184" cx="9.785" cy="2.313" rx="9.785" ry="2.313" transform="translate(31.683 93.814)" fill="#f4f7fa" opacity="0.5"/>
    <g id="Group_982" data-name="Group 982" transform="translate(31.154 60.83)">
      <path id="Path_4893" data-name="Path 4893" d="M1602.163,1867.511a.566.566,0,0,1-.56-.494l-7.2-35.578a.566.566,0,0,1,1.122-.144l7.2,35.579a.565.565,0,0,1-.561.637Z" transform="translate(-1594.399 -1830.801)" fill="url(#linear-gradient-11)"/>
      <path id="Path_4894" data-name="Path 4894" d="M1848.583,1867.519a.565.565,0,0,1-.561-.637l7.2-35.579a.565.565,0,1,1,1.122.145l-7.2,35.578a.566.566,0,0,1-.56.494Z" transform="translate(-1836.349 -1830.809)" fill="url(#linear-gradient-12)"/>
    </g>
    <ellipse id="Ellipse_185" data-name="Ellipse 185" cx="35.683" cy="34.413" rx="35.683" ry="34.413" transform="translate(6.447 6.611)" fill="#f4f7fa" opacity="0.44"/>
    <path id="Path_4895" data-name="Path 4895" d="M959.45,712.377c.888-15.219,26.544-18.78,26.434-32.371-.068-8.37-10.263-14.587-12.439-15.832-16.041-9.175-35.786,1.42-39.863-6.078a7,7,0,0,1-.268-5.057,10.846,10.846,0,0,1,2.713-4.868,39.016,39.016,0,0,0-18.8,33.063c0,13.839,6.838,24.947,17.333,32.111a16.288,16.288,0,0,1,7.153,13.44v3.021A11.887,11.887,0,0,0,953.6,741.692h10.188a11.887,11.887,0,0,0,11.887-11.887v-2.416A7.8,7.8,0,0,1,970.9,729.2c-6.128-.051-11.892-9.249-11.45-16.822Z" transform="translate(-917.23 -641.749)" opacity="0.3" fill="url(#linear-gradient-13)"/>
    <g id="Group_983" data-name="Group 983" transform="translate(7.799 10.734)">
      <path id="Path_4896" data-name="Path 4896" d="M1124.129,768.96c1.756.148,3.432-.76,3.592-2.662a3.332,3.332,0,0,0-2.891-3.712c-.091-.008-.181-.009-.271-.008a19.969,19.969,0,0,0-.457-2.88c.083-.034.167-.069.248-.112a3.617,3.617,0,0,0,1.561-4.607,3.063,3.063,0,0,0-4.239-1.627c-.084.043-.163.092-.242.141a18.294,18.294,0,0,0-1.732-2.224c.058-.076.115-.153.169-.235a3.617,3.617,0,0,0-.768-4.8,3.062,3.062,0,0,0-4.451.895c-.052.081-.1.164-.143.247a16.179,16.179,0,0,0-2.542-.972c.016-.1.03-.192.038-.291.16-1.9.507-4.05-1.252-4.17-4.068-.279-4.949,1.732-5.11,3.634-.008.1-.01.2-.011.293a16.209,16.209,0,0,0-2.669.533c-.031-.09-.062-.179-.1-.267-.74-1.721-.606-2.869-2.287-2.224-3.666,1.406-4.252,3.484-3.512,5.2.039.09.083.175.127.26a18.28,18.28,0,0,0-2.08,1.9c-.069-.062-.14-.123-.215-.179a3.063,3.063,0,0,0-4.451.895,3.616,3.616,0,0,0,.768,4.8c.074.055.15.1.226.152a19.9,19.9,0,0,0-.933,2.763c-.088-.016-.178-.03-.268-.037a3.467,3.467,0,0,0-.58,6.888c.091.008.181.009.271.008a19.907,19.907,0,0,0,.457,2.88c-.083.034-.167.069-.249.112a3.617,3.617,0,0,0-1.561,4.607,3.063,3.063,0,0,0,4.239,1.627c.084-.043.163-.091.242-.141a18.29,18.29,0,0,0,1.732,2.224c-.058.076-.115.153-.169.235a3.617,3.617,0,0,0,.768,4.8,4.486,4.486,0,0,0,5.578-.988c.052-.081-1.029-.07-.984-.154a16.188,16.188,0,0,0,2.542.972c-.016.1-.03.192-.038.291a3.2,3.2,0,1,0,6.361.536c.008-.1.01-.2.011-.293a16.178,16.178,0,0,0,2.669-.533c.03.09.062.179.1.267a3.063,3.063,0,0,0,4.239,1.626,3.617,3.617,0,0,0,1.561-4.607c-.039-.09-.082-.176-.127-.26a18.274,18.274,0,0,0,2.08-1.9c.07.062.14.123.215.179a3.063,3.063,0,0,0,4.451-.895,3.617,3.617,0,0,0-.768-4.8c-.074-.055-.15-.1-.226-.152a27.161,27.161,0,0,0,.812-3.277c.088.016.177.03.268.037Zm-17.941,8.118c-6.378-.537-11.077-6.571-10.5-13.478s6.224-12.069,12.6-11.532,11.077,6.571,10.5,13.478S1112.566,777.615,1106.188,777.078Z" transform="translate(-1086.749 -741.914)" fill="url(#linear-gradient-5)"/>
      <path id="Path_4897" data-name="Path 4897" d="M1607.024,790.921a3.617,3.617,0,0,0,1.561-4.607,3.063,3.063,0,0,0-4.239-1.627c-.084.043-.163.092-.242.141a18.317,18.317,0,0,0-1.732-2.224c.058-.075.115-.153.169-.235,1.017-1.573,1.8-4.694.254-5.62-2.931-1.757-4.456.139-5.473,1.711-.052.081-.1.163-.144.247a16.232,16.232,0,0,0-2.542-.972c.016-.1.03-.192.038-.291a3.569,3.569,0,0,0-.873-2.685q-.587,4.461-1.1,8.932c5.474,1.378,9.291,6.924,8.763,13.189a12.567,12.567,0,0,1-8.348,11.035c.01.58.025,1.162.02,1.743-.015,1.577-.117,3.156-.221,4.735q.649-.131,1.284-.314c.03.09.062.179.1.267.74,1.721,2.392,2.768,5.339,1.385,1.63-.765,1.2-2.644.461-4.365-.039-.09-.082-.175-.127-.26a18.29,18.29,0,0,0,2.08-1.9c.07.062.14.123.215.179,1.441,1.079,4.674.473,5.692-1.1s-.567-3.518-2.008-4.6c-.074-.055-.15-.1-.226-.152a26.771,26.771,0,0,0,.895-3.246c.088.016.177.03.268.037a3,3,0,0,0,3.509-2.693,3.332,3.332,0,0,0-2.891-3.712c-.091-.008-.181-.009-.271-.008a19.934,19.934,0,0,0-.457-2.88C1606.859,791,1606.942,790.963,1607.024,790.921Z" transform="translate(-1569.423 -773.249)" fill="url(#linear-gradient-5)"/>
      <path id="Path_4898" data-name="Path 4898" d="M1159.879,769.336a3.467,3.467,0,0,0,.58-6.888c-.091-.008-.181-.009-.271-.008a19.941,19.941,0,0,0-.457-2.88c.083-.034.167-.069.248-.112a3.617,3.617,0,0,0,1.561-4.607,3.063,3.063,0,0,0-4.239-1.627c-.084.043-.163.092-.242.141a18.29,18.29,0,0,0-1.732-2.224c.058-.076.115-.153.169-.235a3.617,3.617,0,0,0-.768-4.8,3.063,3.063,0,0,0-4.451.895c-.052.081-.1.164-.143.247a16.233,16.233,0,0,0-2.542-.972c.016-.1.03-.192.038-.291a3.2,3.2,0,1,0-6.361-.536c-.008.1-.01.2-.011.293a16.174,16.174,0,0,0-2.669.533c-.03-.09-.062-.179-.1-.267a3.063,3.063,0,0,0-4.239-1.627,3.617,3.617,0,0,0-1.561,4.607c.039.09.082.176.127.26a18.282,18.282,0,0,0-2.08,1.9c-.069-.062-.14-.123-.215-.179a3.063,3.063,0,0,0-4.451.895,3.617,3.617,0,0,0,.768,4.8c.074.055.15.1.226.152a19.858,19.858,0,0,0-.932,2.763c-.088-.016-.177-.03-.268-.037a3.467,3.467,0,0,0-.58,6.888c.091.008.181.009.271.008a19.925,19.925,0,0,0,.457,2.88c-.083.034-.167.069-.249.112a3.617,3.617,0,0,0-1.561,4.607,3.063,3.063,0,0,0,4.239,1.626c.084-.043.163-.091.242-.141a18.265,18.265,0,0,0,1.732,2.224c-.058.076-.115.153-.169.235a3.617,3.617,0,0,0,.768,4.8,3.063,3.063,0,0,0,4.451-.895c.052-.08.1-.164.143-.247a16.176,16.176,0,0,0,2.542.972c-.016.1-.03.192-.038.291a3.2,3.2,0,1,0,6.361.536c.008-.1.01-.2.011-.293a16.172,16.172,0,0,0,2.669-.533c.03.09.062.179.1.267a3.063,3.063,0,0,0,4.239,1.627,3.617,3.617,0,0,0,1.561-4.607c-.039-.09-.082-.176-.127-.26a18.29,18.29,0,0,0,2.08-1.9c.069.062.14.123.215.179a3.063,3.063,0,0,0,4.451-.895,3.617,3.617,0,0,0-.768-4.8c-.073-.055-.15-.1-.226-.152a19.851,19.851,0,0,0,.933-2.763c.088.016.177.03.268.037Zm-18.062,7.6c-6.378-.537-11.077-6.571-10.5-13.478s6.224-12.069,12.6-11.532,11.077,6.571,10.5,13.478S1148.2,777.477,1141.818,776.939Z" transform="translate(-1120.74 -742.234)" fill="#fff"/>
    </g>
    <g id="Group_984" data-name="Group 984" transform="translate(46.877 34.75)">
      <path id="Path_4899" data-name="Path 4899" d="M1958.917,1280.386a1.852,1.852,0,0,0,2.183-1.618,2.029,2.029,0,0,0-1.761-2.261c-.056,0-.11-.005-.165-.005a12.118,12.118,0,0,0-.279-1.754c.051-.021.1-.042.151-.068a2.2,2.2,0,0,0,.951-2.806,1.865,1.865,0,0,0-2.582-.991c-.051.026-.1.056-.148.086a11.142,11.142,0,0,0-1.055-1.355c.035-.046.07-.093.1-.143a2.2,2.2,0,0,0-.468-2.926,1.865,1.865,0,0,0-2.711.545c-.032.049-.06.1-.087.15a9.875,9.875,0,0,0-1.548-.592c.01-.058.018-.117.023-.177.1-1.159.309-2.466-.763-2.54-2.478-.17-3.015,1.055-3.112,2.213-.005.06-.006.119-.007.179a9.862,9.862,0,0,0-1.626.325c-.018-.055-.038-.109-.061-.163-.45-1.049-.369-1.748-1.393-1.355-2.233.857-2.59,2.122-2.139,3.17.023.055.05.107.077.158a11.131,11.131,0,0,0-1.267,1.159c-.042-.038-.085-.075-.131-.109a1.865,1.865,0,0,0-2.711.545,2.2,2.2,0,0,0,.468,2.926c.045.033.091.063.138.093a12.131,12.131,0,0,0-.568,1.683c-.054-.01-.108-.018-.163-.023a2.112,2.112,0,0,0-.353,4.2c.056,0,.11.005.165.005a12.121,12.121,0,0,0,.279,1.754c-.051.021-.1.042-.151.068a2.2,2.2,0,0,0-.951,2.806,1.865,1.865,0,0,0,2.582.99c.051-.026.1-.056.148-.086a11.149,11.149,0,0,0,1.055,1.355c-.035.046-.07.093-.1.143a2.2,2.2,0,0,0,.468,2.925,2.732,2.732,0,0,0,3.4-.6c.032-.049-.627-.043-.6-.094a9.884,9.884,0,0,0,1.549.592c-.01.058-.018.117-.023.177a1.95,1.95,0,1,0,3.875.326c.005-.06.006-.119.007-.178a9.828,9.828,0,0,0,1.626-.325c.018.055.038.109.061.163a1.865,1.865,0,0,0,2.582.99,2.2,2.2,0,0,0,.95-2.806c-.023-.055-.05-.107-.077-.158a11.1,11.1,0,0,0,1.267-1.159c.042.038.085.075.131.109a1.865,1.865,0,0,0,2.711-.545,2.2,2.2,0,0,0-.468-2.926c-.045-.034-.091-.063-.138-.093a16.619,16.619,0,0,0,.5-2c.054.01.108.018.163.023Zm-10.933,4.947c-3.885-.327-6.747-4-6.393-8.209s3.791-7.351,7.676-7.024,6.747,4,6.393,8.209S1951.868,1285.66,1947.984,1285.333Z" transform="translate(-1936.142 -1263.916)" fill="url(#linear-gradient-5)"/>
      <path id="Path_4900" data-name="Path 4900" d="M2253.084,1293.773a2.2,2.2,0,0,0,.95-2.806,1.865,1.865,0,0,0-2.582-.991c-.051.026-.1.056-.147.086a11.171,11.171,0,0,0-1.055-1.355c.035-.046.07-.093.1-.143.62-.958,1.1-2.859.155-3.423-1.785-1.07-2.714.084-3.333,1.042-.032.049-.06.1-.087.151a9.882,9.882,0,0,0-1.549-.592c.01-.058.018-.117.023-.177a2.173,2.173,0,0,0-.532-1.635q-.357,2.717-.67,5.44a7.482,7.482,0,0,1,5.338,8.033,7.655,7.655,0,0,1-5.084,6.722c.006.353.015.708.012,1.061-.009.96-.071,1.923-.134,2.884q.4-.08.782-.191c.018.055.038.109.061.163.451,1.048,1.457,1.686,3.252.844.993-.466.731-1.61.281-2.659-.023-.055-.05-.107-.077-.158a11.084,11.084,0,0,0,1.266-1.159c.042.038.085.075.131.109a2.847,2.847,0,0,0,3.467-.67c.62-.958-.345-2.143-1.223-2.8-.045-.034-.091-.063-.138-.093a17.548,17.548,0,0,0,.542-2.051,1.541,1.541,0,0,0,.163.022,1.779,1.779,0,0,0,2.141-1.567,2.029,2.029,0,0,0-1.761-2.261c-.056,0-.11-.005-.165-.005a12.17,12.17,0,0,0-.279-1.754c.051-.021.1-.042.151-.068Z" transform="translate(-2230.18 -1283.009)" fill="url(#linear-gradient-17)"/>
      <path id="Path_4901" data-name="Path 4901" d="M1980.685,1280.608a2.112,2.112,0,0,0,.354-4.2c-.056,0-.111-.005-.165-.005a12.134,12.134,0,0,0-.279-1.754c.051-.021.1-.042.151-.068a2.2,2.2,0,0,0,.95-2.806,1.866,1.866,0,0,0-2.582-.991c-.051.026-.1.056-.148.086a11.173,11.173,0,0,0-1.055-1.355c.035-.046.07-.093.1-.143a2.2,2.2,0,0,0-.468-2.925,1.866,1.866,0,0,0-2.711.545c-.032.049-.06.1-.087.151a9.882,9.882,0,0,0-1.549-.592c.01-.058.018-.117.023-.177a1.95,1.95,0,1,0-3.875-.326c-.005.06-.006.119-.007.178a9.894,9.894,0,0,0-1.626.325c-.018-.055-.038-.109-.061-.163a1.866,1.866,0,0,0-2.582-.991,2.2,2.2,0,0,0-.95,2.806c.023.055.05.107.077.158a11.131,11.131,0,0,0-1.267,1.159c-.042-.038-.085-.075-.131-.109a1.866,1.866,0,0,0-2.711.545,2.2,2.2,0,0,0,.468,2.925c.045.034.091.063.138.093a12.115,12.115,0,0,0-.568,1.683c-.054-.01-.108-.018-.163-.023a2.112,2.112,0,0,0-.353,4.2c.056,0,.11.005.165.005a12.139,12.139,0,0,0,.279,1.754c-.051.021-.1.042-.151.068a2.2,2.2,0,0,0-.95,2.806,1.865,1.865,0,0,0,2.582.99c.051-.026.1-.056.147-.085a11.161,11.161,0,0,0,1.055,1.355c-.035.046-.07.093-.1.143a2.2,2.2,0,0,0,.468,2.925,1.866,1.866,0,0,0,2.711-.545c.031-.049.06-.1.087-.151a9.863,9.863,0,0,0,1.549.592c-.01.058-.019.117-.023.177a1.95,1.95,0,1,0,3.875.326c.005-.06.007-.119.007-.178a9.826,9.826,0,0,0,1.626-.325c.018.055.038.109.061.163a1.865,1.865,0,0,0,2.582.99,2.2,2.2,0,0,0,.951-2.806c-.024-.055-.05-.107-.077-.158a11.117,11.117,0,0,0,1.267-1.159c.042.038.085.075.131.109a1.865,1.865,0,0,0,2.711-.545,2.2,2.2,0,0,0-.468-2.926c-.045-.034-.091-.063-.138-.093a12.12,12.12,0,0,0,.568-1.683c.054.01.108.018.163.023Zm-11,4.631c-3.885-.327-6.747-4-6.393-8.209s3.791-7.352,7.676-7.024,6.747,4,6.393,8.209S1973.568,1285.567,1969.684,1285.239Z" transform="translate(-1956.844 -1264.101)" fill="#fff"/>
    </g>
  </g>
  <g id="Group_987" data-name="Group 987" transform="translate(77.052 59.258)">
    <path id="Path_4902" data-name="Path 4902" d="M2517.151,3157.09a5.224,5.224,0,0,1,.035,1.149c-.073.289-2.575.5-3.424.4s.506-.968,1.047-1.131S2517.151,3157.09,2517.151,3157.09Z" transform="translate(-2492.862 -3088.718)" fill="url(#linear-gradient-18)"/>
    <path id="Path_4903" data-name="Path 4903" d="M2565.7,3124.287l.264,1.727s.673.3,1,0l.036-1.807-1.3.077Z" transform="translate(-2542.671 -3057.35)" fill="url(#linear-gradient-19)"/>
    <path id="Path_4904" data-name="Path 4904" d="M2863.721,3121.83s-.531.394-.389.866a8.3,8.3,0,0,0,2.263,2.9c.883.536.606-.582.349-1.278a13.38,13.38,0,0,0-1.169-2.487C2864.518,3121.573,2863.721,3121.83,2863.721,3121.83Z" transform="translate(-2826.587 -3054.97)" fill="url(#linear-gradient-20)"/>
    <path id="Path_4905" data-name="Path 4905" d="M2851.54,3082.97c.257.715.5,1.3.7,1.737a6.2,6.2,0,0,0,.925,1.632c.23.272.777.852.923.755s-.25-.8-1.02-2.869c-.112-.3-.465-1.256-.465-1.256h-1.06Z" transform="translate(-2815.361 -3018.007)" fill="url(#linear-gradient-21)"/>
    <path id="Path_4906" data-name="Path 4906" d="M2447.05,2432.216a44.7,44.7,0,0,0-.1,7.976c.342,4.413,1.225,7.206,2.331,11.911.676,2.875,1.588,7.107,2.412,12.4a2.324,2.324,0,0,0,1.479.29,2.239,2.239,0,0,0,.888-.338c2.164-6.612,1.525-10.708.48-13.261a14.288,14.288,0,0,1-1.273-3.619c-.382-2.213.09-3.45.763-8.576.48-3.654.4-4.219.077-4.766-1.276-2.19-5.178-2.147-7.063-2.018Z" transform="translate(-2429.261 -2397.145)" fill="url(#linear-gradient-22)"/>
    <path id="Path_4907" data-name="Path 4907" d="M2069.476,1982.986s-.3-1.191-.809-1.505-1.22-.651-1.383-.789-.355.275.117.591l.472.316a.468.468,0,0,1-.019.2.71.71,0,0,1-.645.406,5.134,5.134,0,0,1-1.867.212c-.028-.008-.133-.042-.177,0-.071.075.057.313.111.4a2.06,2.06,0,0,0,2.315.326c.311-.143.43-.3.656-.258.36.061.582.536.712.929l.518-.832Z" transform="translate(-2065.142 -1966.416)" fill="url(#linear-gradient-23)"/>
    <path id="Path_4908" data-name="Path 4908" d="M2613.671,2449.96c1.325,6.845,2.626,10.44,3.611,12.474a34.177,34.177,0,0,1,1.819,4.439,36.1,36.1,0,0,1,1.105,4.228,23.638,23.638,0,0,0,4.625,9.18,1.154,1.154,0,0,0,1.051.054,1.018,1.018,0,0,0,.426-.442c-.4-3.842-.854-7.07-1.249-9.562-.083-.523-.449-2.809-1.022-5.829-.225-1.182-.554-2.914-.948-4.693-.491-2.215-1.243-5.229-2.4-8.841l-7.015-1.009Z" transform="translate(-2588.434 -2414.12)" fill="url(#linear-gradient-24)"/>
    <path id="Path_4909" data-name="Path 4909" d="M2138.12,1831.38l1.034-.919a5.216,5.216,0,0,0,4.537,1.378,5.917,5.917,0,0,0,3.446-2.757c1.965-2.788.79-4.833,2.906-6.727a3.393,3.393,0,0,1,2.493-.968c1.8.463,2.829,5.861,1.091,10.108-.351.857-2.281,5.577-6.662,6.088-3.536.413-7.287-2.079-8.844-6.2Z" transform="translate(-2134.762 -1814.432)" fill="#fff"/>
    <path id="Path_4910" data-name="Path 4910" d="M2519.311,1679.714a8.328,8.328,0,0,1-2.911-3.358c-.217-.56-.986-2.547.148-4.066a3.245,3.245,0,0,1,3.027-1.3c.942.185,1.089.841,2.69,2.162a11.341,11.341,0,0,0,2.74,1.8c1.91.787,3.058.047,4.975.131a8.743,8.743,0,0,1,6.411,3.33c2.34,3.393-1.05,6.836,1.514,10.811.84,1.3,1.254,1.01,3.243,3.531s2.988,3.786,2.811,5.333a5.457,5.457,0,0,1-4.736,4.337c-2.127.136-3.479-1.537-4.562-.805-.771.521-.33,1.534-1.149,2.752a5.225,5.225,0,0,1-3.464,1.933c-3.109.469-7.3-3.176-9.081-7.5-3.21-7.788,2.429-15.321-1.658-19.1Z" transform="translate(-2495.204 -1670.949)" fill="url(#linear-gradient-25)"/>
    <path id="Path_4911" data-name="Path 4911" d="M2505.765,2453.965a14.288,14.288,0,0,1-1.273-3.619c-.382-2.213.09-3.45.763-8.576.479-3.653.4-4.218.077-4.766a4.841,4.841,0,0,0-3.662-1.935c.02.077.04.154.057.228.787,3.593-2.216,5.785-.861,9.734.667,1.947,1.733,2.394,1.981,4.652.232,2.116-.611,2.557-.431,4.48.269,2.875,2.312,3.57,2.843,5.771.345,1.43.054,3.522-2.467,6.55.042.261.083.523.125.789a2.328,2.328,0,0,0,1.479.29,2.244,2.244,0,0,0,.889-.338c2.164-6.612,1.524-10.708.48-13.261Z" transform="translate(-2480.481 -2399.915)" opacity="0.3" fill="url(#linear-gradient-26)"/>
    <path id="Path_4912" data-name="Path 4912" d="M2152.142,1910.22c-3.238,2.557-2.877,7.461-4.867,7.71-.608.076-.575-.39-2.024-.861-2.12-.69-3.117.007-4.608-.517a4.624,4.624,0,0,1-2.213-1.774l-.3.266c1.557,4.123,5.307,6.615,8.844,6.2,4.38-.511,6.311-5.23,6.662-6.088a13,13,0,0,0,.823-6.109,6.748,6.748,0,0,0-2.316,1.17Z" transform="translate(-2134.772 -1898.096)" opacity="0.15" fill="url(#linear-gradient-27)"/>
    <path id="Path_4913" data-name="Path 4913" d="M2383.487,1802.617c.2-.308.829-1.162,3.506-1.792a15.407,15.407,0,0,1,7.013-.179,15.666,15.666,0,0,1,8.141,4.665,10.986,10.986,0,0,0-4.313,5.391,10.125,10.125,0,0,0,.1,7.52,14.028,14.028,0,0,0,3.582,4.226c1.755,1.557,2.664,1.8,3.253,3.191.641,1.519-.005,2.26.791,3.3.855,1.117,1.856.6,3.3,1.727,1.484,1.157.956,2.109,2.306,3.387,1.962,1.857,4.563,1.254,4.685,2.09.1.719-1.745,1.694-3.315,2.09a9.721,9.721,0,0,1-6.631-.937c-2.233-1.122-1.848-1.849-3.551-2.7-2.852-1.433-4.8.161-11.3.326-3.517.089-5.3.109-6.27-1.081-.89-1.087-.422-2.279.112-7.418h0c.172-1.716.531-5.309.533-7.357a45.484,45.484,0,0,0-1.258-7.142c-.05-.233-.5-2.369-.871-5.223-.331-2.57-.283-3.359.182-4.08Z" transform="translate(-2368.465 -1794.369)" fill="#fff"/>
    <g id="Group_986" data-name="Group 986" transform="translate(23.921 10.65)" opacity="0.15">
      <path id="Path_4914" data-name="Path 4914" d="M2603.877,1931.473c-1.351-1.279-.822-2.23-2.307-3.387-1.448-1.129-2.45-.611-3.3-1.727-.8-1.04-.15-1.781-.791-3.3-.589-1.4-1.5-1.634-3.253-3.192a14.041,14.041,0,0,1-3.582-4.226,10.128,10.128,0,0,1-.1-7.52,10.984,10.984,0,0,1,4.313-5.391c-.081-.087-.177-.187-.279-.291-5.544.762-8.776,3.965-9.176,4.914-.924,2.193.539,3,.577,9.321.018,3.023-.308,4.216.672,5.478,1.122,1.443,2.414,1,4.036,2.883,1.247,1.449,1.047,2.368,2.21,2.979,1.251.656,2.048-.109,3.459.192,2.358.5,2.862,3.221,4.42,4.708,1.179,1.125,3.357,1.911,7.656,1.067a.6.6,0,0,0,.128-.418c-.121-.836-2.722-.233-4.685-2.09Z" transform="translate(-2585.096 -1902.44)" fill="url(#linear-gradient-28)"/>
    </g>
    <path id="Path_4915" data-name="Path 4915" d="M2626.615,1837.242c-.589,1.251,2.119,4.166,5.128,5.55.614.282,5.017,2.307,6.98.36,1.622-1.609.575-4.936.2-6.124-1.835-5.832-7.47-8.8-9.831-9.869-1.762,4.407-.725,6.371-.316,6.983a23.483,23.483,0,0,0,2.883,3.171c.89.834,1.444,1.24,1.37,1.369-.093.162-1.136-.144-5.187-2.116a1.577,1.577,0,0,0-1.228.674Z" transform="translate(-2600.706 -1819.973)" fill="#fff"/>
    <path id="Path_4916" data-name="Path 4916" d="M2491.906,1732.9s.28,2.235,1.1,2.747,2.159,1.181,2.306,1.362-5.111.747-7.716-.568h0c.858-.179,1.092-.245,1.092-.245a4.8,4.8,0,0,0,1.1-.437,3.744,3.744,0,0,0,1.213-1.122l-.01-1.238Z" transform="translate(-2468.164 -1730.05)" fill="url(#linear-gradient-29)"/>
    <path id="Path_4917" data-name="Path 4917" d="M2547.044,1707.47a1.236,1.236,0,0,1-1.381.431c-.756-.276-.3-2.226.294-2.448a1.06,1.06,0,0,1,.812.112,1.175,1.175,0,0,1,.369,1.321c.191-.055.359-.005.4.089.053.12-.108.283-.145.32a.64.64,0,0,1-.351.176Z" transform="translate(-2523.177 -1703.828)" fill="url(#linear-gradient-30)"/>
    <path id="Path_4918" data-name="Path 4918" d="M2567.1,1977.2s-2.47-2.527-3.475-2.9-.4.172,0,.488.67.419.464.9-.579.9.01,1.281a2.762,2.762,0,0,0,1.278.577l.46.058.6.322s.775-.092.66-.724Z" transform="translate(-2540.168 -1960.221)" fill="url(#linear-gradient-31)"/>
  </g>
  <g id="Group_994" data-name="Group 994" transform="translate(14.117 61.593)">
    <path id="Path_4919" data-name="Path 4919" d="M982.042,3196.718c-.208.169-.246.591-.271.866a.7.7,0,0,0,0,.228c.1.317.716.35,1.681.449,1.525.156,1.978.276,2.1.049s-.159-.561-.189-.6a1.4,1.4,0,0,0-.754-.409c-.72-.237-1.205-.366-1.353-.406-.919-.245-1.072-.29-1.209-.179Z" transform="translate(-968.668 -3128.802)" fill="url(#linear-gradient-32)"/>
    <path id="Path_4920" data-name="Path 4920" d="M982.529,3167.65l.153,1.738a.944.944,0,0,1-.97.12l-.392-1.708,1.21-.149Z" transform="translate(-968.248 -3101.127)" fill="url(#linear-gradient-33)"/>
    <path id="Path_4921" data-name="Path 4921" d="M1272.986,3175.909a.857.857,0,0,0-.089,1.03c.213.245.533.061,1.44.088.972.029,1.226.259,1.887.076.267-.073.739-.252.729-.443-.006-.134-.246-.2-1.048-.472a10.447,10.447,0,0,0-1.374-.442c-.607-.1-1.216-.2-1.545.161Z" transform="translate(-1246.282 -3108.761)" fill="url(#linear-gradient-34)"/>
    <path id="Path_4922" data-name="Path 4922" d="M1266.394,3146.75l.488,1.622a.943.943,0,0,1-.958.193l-.724-1.574,1.195-.241Z" transform="translate(-1239.068 -3081.188)" fill="url(#linear-gradient-35)"/>
    <path id="Path_4923" data-name="Path 4923" d="M1017.734,2374.551a151.965,151.965,0,0,0,4.8,36l-1.866.5a15.826,15.826,0,0,1-4.53-7.063c-.6-2.032-.4-3.077-.776-5.576-.6-3.979-1.822-6.064-3.083-9.274a52.794,52.794,0,0,1-3.191-12.773l8.645-1.814Z" transform="translate(-994.74 -2344.515)" fill="url(#linear-gradient-36)"/>
    <path id="Path_4924" data-name="Path 4924" d="M851.12,2374.594q-.571,10.4-.931,21.183-.267,8.09-.4,15.973l-1.906.236a22.188,22.188,0,0,1-1.988-5.132c-.679-2.721-.521-4.337-.819-7.157-.334-3.163-.819-3.852-1.678-7.842-1.744-8.1-2.616-12.147-.67-14.665.632-.818,2.611-2.869,8.39-2.6Z" transform="translate(-834.979 -2344.533)" fill="url(#linear-gradient-37)"/>
    <path id="Path_4925" data-name="Path 4925" d="M790.691,1854.7c.6-.267,1.423-.314,2.45-.606a20.848,20.848,0,0,1,4.909-.429c3.111-.092,5.1-.152,7.065.584,4.393,1.649,8.238,7.147,7.224,11.211-.927,3.71-5.43,4.332-5.243,7.71.086,1.548.962,2.991.355,5.153a5.2,5.2,0,0,1-.79,1.427c-2.093,3.106-8.938-1.915-12.656.792-2,1.452-2,4.145-3.527,4.169-1.059.017-1.871-1.261-2.175-1.74-2.918-4.591,1.336-23.7,2.39-28.271Z" transform="translate(-783.15 -1847.543)" fill="url(#linear-gradient-38)"/>
    <path id="Path_4926" data-name="Path 4926" d="M790.691,1854.7c.6-.267,1.423-.314,2.45-.606a20.848,20.848,0,0,1,4.909-.429c3.111-.092,5.1-.152,7.065.584,4.393,1.649,8.238,7.147,7.224,11.211-.927,3.71-5.43,4.332-5.243,7.71.086,1.548.962,2.991.355,5.153a5.2,5.2,0,0,1-.79,1.427c-2.093,3.106-8.938-1.915-12.656.792-2,1.452-2,4.145-3.527,4.169-1.059.017-1.871-1.261-2.175-1.74-2.918-4.591,1.336-23.7,2.39-28.271Z" transform="translate(-783.15 -1847.543)" fill="url(#linear-gradient-39)"/>
    <g id="Group_988" data-name="Group 988" transform="translate(4.146 6.961)" opacity="0.3">
      <path id="Path_4927" data-name="Path 4927" d="M797.393,1895.432c-1.346-3.19,2.993-6.7,1.224-10.36-1.484-3.073-5.4-2.406-7.178-5.628-1.085-1.971-.789-4.349-.114-6.443a3.621,3.621,0,0,0-.623.2c-1.053,4.573-5.308,23.68-2.39,28.271.3.479,1.117,1.757,2.175,1.74,1.528-.024,1.532-2.717,3.527-4.169,3.315-2.413,9.115,1.315,11.818-.048-5.856-.467-7.808-2.065-8.438-3.559Z" transform="translate(-787.306 -1873)" fill="url(#linear-gradient-40)"/>
    </g>
    <path id="Path_4928" data-name="Path 4928" d="M704.728,1876.9c-4.319,1.688-8.312,7.17-7.414,12.205.15.839.76,4.283,3.683,5.955a8.474,8.474,0,0,0,9.2-1.032l1.188-1.054,1.169-1.264a9.387,9.387,0,0,0-3.115-1.716c-1.9-.613-3.25.418-4.224-.354-.76-.6-.8-1.766-.771-2.774.107-3.731,1.36-10.383.289-9.965Z" transform="translate(-697.187 -1869.741)" fill="url(#linear-gradient-41)"/>
    <g id="Group_989" data-name="Group 989" transform="translate(11.603 23.474)">
      <path id="Path_4929" data-name="Path 4929" d="M979.37,2232.583l-16.97-.253,4.513,2.177,12.5-.818Z" transform="translate(-961.802 -2232.312)" fill="url(#linear-gradient-42)"/>
      <path id="Path_4930" data-name="Path 4930" d="M949.39,2232.4h0a.756.756,0,0,0,.5.71l5.422,2.125.025-1.474-5.346-1.813A.469.469,0,0,0,949.39,2232.4Z" transform="translate(-949.39 -2231.928)" fill="url(#linear-gradient-43)"/>
    </g>
    <path id="Path_4931" data-name="Path 4931" d="M1005.938,2197.246c-.1-.023.508-1.241.987-1.1s2.828,1.5,3.042,2.062l.214.56a5.258,5.258,0,0,1-1.659-.134C1007.885,2198.42,1006.785,2197.436,1005.938,2197.246Z" transform="translate(-991.722 -2174.307)" fill="url(#linear-gradient-44)"/>
    <g id="Group_991" data-name="Group 991" transform="translate(16.799 13.9)">
      <g id="Group_990" data-name="Group 990">
        <path id="Path_4932" data-name="Path 4932" d="M1063.528,2024.9l-1.2,10.891a1.027,1.027,0,0,0,.863.918l17.547-1.077a.615.615,0,0,0,.577-.51l2.2-10.519c.066-.383-.622-.778-1.011-.767l-18.388.517a.615.615,0,0,0-.594.548Z" transform="translate(-1062.33 -2023.835)" fill="url(#linear-gradient-45)"/>
        <path id="Path_4933" data-name="Path 4933" d="M1072.208,2031.809l-1.2,10.891a.616.616,0,0,0,.641.682l17.769-.841a.616.616,0,0,0,.577-.51l1.815-10.567a.615.615,0,0,0-.623-.719l-18.388.517a.616.616,0,0,0-.594.548Z" transform="translate(-1070.609 -2030.426)" fill="url(#linear-gradient-46)"/>
      </g>
      <path id="Path_4934" data-name="Path 4934" d="M1082.642,2049.925c-1.551-.657-1-1.912-2.836-3.474-2.417-2.062-4.881-1.167-5.743-2.765a2.965,2.965,0,0,1,.071-2.525l-1.331.037a.616.616,0,0,0-.594.548l-1.2,10.891a.615.615,0,0,0,.641.682l17.769-.841a.616.616,0,0,0,.577-.51l.251-1.458a6.722,6.722,0,0,0-1.935-.725c-2.607-.529-3.886.9-5.672.142Z" transform="translate(-1070.609 -2040.363)" opacity="0.3" fill="url(#linear-gradient-47)"/>
    </g>
    <path id="Path_4935" data-name="Path 4935" d="M1436.217,2250.077a.138.138,0,0,0-.125-.183,3.507,3.507,0,0,0-1.728.268c-.625.383-1.432,1.081-.752,1.433l.635.329a.135.135,0,0,0,.093.013c.226-.05,1.175-.26,1.279-.313A9.536,9.536,0,0,0,1436.217,2250.077Z" transform="translate(-1399.486 -2225.587)" fill="url(#linear-gradient-48)"/>
    <g id="Group_993" data-name="Group 993" transform="translate(11.478)">
      <path id="Path_4936" data-name="Path 4936" d="M950.378,1764.29a13.2,13.2,0,0,1-.235,2.639,2.043,2.043,0,0,1-.361,1.032c-.189.222-.476.408-2.094.809-.881.219-.994.213-1.014.3-.095.426,2.307,1.88,4.788,1.529,1.519-.214,2.9-1.081,2.816-1.536s-1.6-.212-2.054-1.041c-.315-.576.038-1.394.455-2.072-.4-.756-1.9-.9-2.3-1.661Z" transform="translate(-946.671 -1762.331)" fill="url(#linear-gradient-49)"/>
      <g id="Group_992" data-name="Group 992" transform="translate(2.557)">
        <path id="Path_4937" data-name="Path 4937" d="M1006.224,1724.111a1.6,1.6,0,0,0-.033-1.832,1.739,1.739,0,0,0-1.25-.555,2.632,2.632,0,0,0-2.62,1.186c-.252.529.294,1.629.379,1.826.1.224.272.3.435.469.225.234.577.607,1.152,1.23a4.009,4.009,0,0,1,.22-.658,3.529,3.529,0,0,1,.461-.773c.506-.616.916-.441,1.255-.892Z" transform="translate(-1002.256 -1721.705)" fill="url(#linear-gradient-50)"/>
        <path id="Path_4938" data-name="Path 4938" d="M1012.878,1763.4a2.168,2.168,0,0,0,1.908.964c1.137-.074,1.3-2.624.577-3.165a1.436,1.436,0,0,0-1.122-.145c-.233.065-.312.162-.695.261-.353.092-.453.052-.559.142-.133.112-.231.387-.008,1.133a.619.619,0,0,0-.662-.217.387.387,0,0,0-.151.148c-.159.291.107.663.713.879Z" transform="translate(-1011.666 -1759.199)" fill="url(#linear-gradient-51)"/>
        <path id="Path_4939" data-name="Path 4939" d="M1014.051,1767.464c.055.041-.113.246-.125.535a1.392,1.392,0,0,0,1.125,1.294c.343.034.438-.173,1-.233a2.579,2.579,0,0,1,.827.048,1.367,1.367,0,0,1-.4,1.516,1.425,1.425,0,0,1-1.247.043,1.628,1.628,0,0,1-.932-.684c-.276-.485-.005-.778-.323-1.106-.16-.166-.37-.237-.575-.558a1.62,1.62,0,0,1-.115-.216c.294-.311.682-.7.761-.639Z" transform="translate(-1012.782 -1765.353)" fill="url(#linear-gradient-52)"/>
        <path id="Path_4940" data-name="Path 4940" d="M1067.561,1808.174a1.384,1.384,0,0,1-.67.1c-.021,0-.043.005-.046.016a.522.522,0,0,0,.513.151c.178-.05.317-.219.293-.262C1067.641,1808.165,1067.6,1808.167,1067.561,1808.174Z" transform="translate(-1063.873 -1804.191)" fill="url(#linear-gradient-53)"/>
      </g>
    </g>
  </g>
</svg>
