<svg id="Layer_1" data-name="Layer 1" xmlns="http://www.w3.org/2000/svg" xmlns:xlink="http://www.w3.org/1999/xlink" width="151" height="131.331" viewBox="0 0 151 131.331">
  <defs>
    <clipPath id="clip-path">
      <path id="Path_6044" data-name="Path 6044" d="M144.537,19.4l5.67,3.3c-1.894-1.1-4.516-.945-7.406.724a15.948,15.948,0,0,0-1.811,1.228l-5.67-3.3a15.608,15.608,0,0,1,1.811-1.228C140.025,18.452,142.647,18.294,144.537,19.4Z" transform="translate(-135.32 -18.693)" fill="#cddcfb"/>
    </clipPath>
    <clipPath id="clip-path-2">
      <path id="Path_6049" data-name="Path 6049" d="M107.867,8.817l5.67,3.3c-2.839-1.65-6.768-1.417-11.107,1.087L96.76,9.9C101.1,7.4,105.028,7.168,107.867,8.817Z" transform="translate(-96.76 -7.764)" fill="#cddcfb"/>
    </clipPath>
    <clipPath id="clip-path-3">
      <path id="Path_6054" data-name="Path 6054" d="M64.06,38.8l-5.67-3.3C60.067,26.733,66.19,17.421,73.5,13.2l5.67,3.3C71.86,20.716,65.741,30.028,64.06,38.8Z" transform="translate(-58.39 -13.2)" fill="#cddcfb"/>
    </clipPath>
    <clipPath id="clip-path-4">
      <path id="Path_6059" data-name="Path 6059" d="M36.145,98.66l-5.67-3.3c-1.87-1.087-3.028-3.394-3.036-6.678-.02-6.607,4.626-14.655,10.379-17.974a11.559,11.559,0,0,1,1.811-.862l5.67,3.3a12.5,12.5,0,0,0-1.811.862C37.74,77.327,33.094,85.375,33.11,91.982c.008,3.284,1.169,5.591,3.036,6.678Z" transform="translate(-27.44 -69.85)" fill="#cddcfb"/>
    </clipPath>
    <clipPath id="clip-path-5">
      <path id="Path_6076" data-name="Path 6076" d="M110.318,229.975v3.693c-.008,2.406-1.587,4.808-4.748,6.642-6.359,3.693-16.7,3.693-23.1,0-3.221-1.858-4.831-4.3-4.823-6.737V229.88c-.008,2.437,1.6,4.878,4.823,6.737,6.4,3.693,16.742,3.693,23.1,0C108.728,234.782,110.31,232.38,110.318,229.975Z" transform="translate(-77.65 -229.88)" fill="#d4e2fc"/>
    </clipPath>
    <clipPath id="clip-path-6">
      <path id="Path_6084" data-name="Path 6084" d="M110.538,213.761l-.016,5.327c-.008,2.339-1.543,4.674-4.615,6.461-6.182,3.591-16.234,3.591-22.459,0-3.13-1.807-4.7-4.181-4.689-6.552l.016-5.327c-.008,2.37,1.559,4.745,4.689,6.552,6.221,3.591,16.277,3.591,22.459,0C108.995,218.438,110.534,216.1,110.538,213.761Z" transform="translate(-78.76 -213.67)" fill="#1499fc"/>
    </clipPath>
    <clipPath id="clip-path-7">
      <path id="Path_6092" data-name="Path 6092" d="M110.318,203.714v3.693c-.008,2.406-1.587,4.808-4.748,6.642-6.359,3.693-16.7,3.693-23.1,0-3.221-1.858-4.831-4.3-4.823-6.737V203.62c-.008,2.437,1.6,4.878,4.823,6.737,6.4,3.693,16.742,3.693,23.1,0C108.728,208.522,110.31,206.12,110.318,203.714Z" transform="translate(-77.65 -203.62)" fill="#d4e2fc"/>
    </clipPath>
    <clipPath id="clip-path-8">
      <path id="Path_6100" data-name="Path 6100" d="M110.538,187.581l-.016,5.327c-.008,2.339-1.543,4.674-4.615,6.461-6.182,3.591-16.234,3.591-22.459,0-3.13-1.807-4.7-4.181-4.689-6.552l.016-5.327c-.008,2.37,1.559,4.741,4.689,6.552,6.221,3.591,16.277,3.591,22.459,0C108.995,192.258,110.534,189.919,110.538,187.581Z" transform="translate(-78.76 -187.49)" fill="#1499fc"/>
    </clipPath>
    <clipPath id="clip-path-9">
      <path id="Path_6108" data-name="Path 6108" d="M110.318,177.534v3.693c-.008,2.406-1.587,4.808-4.748,6.642-6.359,3.693-16.7,3.693-23.1,0-3.221-1.858-4.831-4.3-4.823-6.737V177.44c-.008,2.437,1.6,4.878,4.823,6.737,6.4,3.693,16.742,3.693,23.1,0C108.728,182.342,110.31,179.94,110.318,177.534Z" transform="translate(-77.65 -177.44)" fill="#d4e2fc"/>
    </clipPath>
    <clipPath id="clip-path-10">
      <path id="Path_6116" data-name="Path 6116" d="M110.538,160.841l-.016,5.327c-.008,2.339-1.543,4.674-4.615,6.461-6.182,3.591-16.234,3.591-22.459,0-3.13-1.807-4.7-4.181-4.689-6.552l.016-5.327c-.008,2.37,1.559,4.741,4.689,6.552,6.221,3.591,16.277,3.591,22.459,0C108.995,165.518,110.534,163.179,110.538,160.841Z" transform="translate(-78.76 -160.75)" fill="#1499fc"/>
    </clipPath>
    <clipPath id="clip-path-11">
      <path id="Path_6124" data-name="Path 6124" d="M110.318,150.794v3.693c-.008,2.406-1.587,4.808-4.748,6.642-6.359,3.693-16.7,3.693-23.1,0-3.221-1.858-4.831-4.3-4.823-6.737V150.7c-.008,2.437,1.6,4.878,4.823,6.737,6.4,3.693,16.742,3.693,23.1,0C108.728,155.6,110.31,153.2,110.318,150.794Z" transform="translate(-77.65 -150.7)" fill="#d4e2fc"/>
    </clipPath>
    <clipPath id="clip-path-12">
      <path id="Path_6278" data-name="Path 6278" d="M161.12,153.031l.484.28a.132.132,0,0,0-.13.012l-.484-.28A.132.132,0,0,1,161.12,153.031Z" transform="translate(-160.99 -153.019)" fill="#3a4648"/>
    </clipPath>
    <clipPath id="clip-path-13">
      <path id="Path_6283" data-name="Path 6283" d="M145.544,162.668l-.484-.28a.406.406,0,0,1,.185-.319l.484.28A.406.406,0,0,0,145.544,162.668Z" transform="translate(-145.06 -162.07)" fill="#3a4648"/>
    </clipPath>
  </defs>
  <g id="Group_1813" data-name="Group 1813" transform="translate(0 60.206)">
    <ellipse id="Ellipse_217" data-name="Ellipse 217" cx="61.592" cy="35.562" rx="61.592" ry="35.562" fill="#7f7f7f" opacity="0"/>
    <ellipse id="Ellipse_218" data-name="Ellipse 218" cx="53.005" cy="30.605" rx="53.005" ry="30.605" transform="translate(8.587 4.957)" fill="#929394" opacity="0.17"/>
    <ellipse id="Ellipse_219" data-name="Ellipse 219" cx="44.417" cy="25.644" rx="44.417" ry="25.644" transform="translate(17.175 9.918)" fill="#a4a7a9" opacity="0.33"/>
    <ellipse id="Ellipse_220" data-name="Ellipse 220" cx="35.83" cy="20.687" rx="35.83" ry="20.687" transform="translate(25.762 14.875)" fill="#b7bbbf" opacity="0.5"/>
    <ellipse id="Ellipse_221" data-name="Ellipse 221" cx="27.239" cy="15.726" rx="27.239" ry="15.726" transform="translate(34.353 19.836)" fill="#caced4" opacity="0.67"/>
    <ellipse id="Ellipse_222" data-name="Ellipse 222" cx="18.651" cy="10.769" rx="18.651" ry="10.769" transform="translate(42.941 24.794)" fill="#dce2e9" opacity="0.83"/>
    <ellipse id="Ellipse_223" data-name="Ellipse 223" cx="10.064" cy="5.812" rx="10.064" ry="5.812" transform="translate(51.528 29.751)" fill="#eff6fe"/>
  </g>
  <g id="Group_1814" data-name="Group 1814" transform="translate(69.395 33.511)">
    <circle id="Ellipse_224" data-name="Ellipse 224" cx="32.731" cy="32.731" r="32.731" transform="translate(0 18.943) rotate(-16.82)" fill="#7f7f7f" opacity="0"/>
    <circle id="Ellipse_225" data-name="Ellipse 225" cx="27.408" cy="27.408" r="27.408" transform="translate(6.539 22.67) rotate(-17.12)" fill="#929394" opacity="0.17"/>
    <circle id="Ellipse_226" data-name="Ellipse 226" cx="22.089" cy="22.089" r="22.089" transform="translate(13.072 26.423) rotate(-17.58)" fill="#a4a7a9" opacity="0.33"/>
    <circle id="Ellipse_227" data-name="Ellipse 227" cx="16.765" cy="16.765" r="16.765" transform="matrix(0.949, -0.316, 0.316, 0.949, 19.6, 30.188)" fill="#b7bbbf" opacity="0.5"/>
    <circle id="Ellipse_228" data-name="Ellipse 228" cx="11.442" cy="11.442" r="11.442" transform="translate(26.102 34.038) rotate(-20.27)" fill="#caced4" opacity="0.67"/>
    <circle id="Ellipse_229" data-name="Ellipse 229" cx="6.123" cy="6.123" r="6.123" transform="matrix(0.882, -0.471, 0.471, 0.882, 32.515, 38.288)" fill="#dce2e9" opacity="0.83"/>
    <path id="Path_6015" data-name="Path 6015" d="M279.439,187.519a.8.8,0,1,1-.8-.8A.8.8,0,0,1,279.439,187.519Z" transform="translate(-237.839 -146.713)" fill="#eff6fe"/>
  </g>
  <g id="Group_1820" data-name="Group 1820" transform="translate(16.198 1.421)">
    <path id="Path_6016" data-name="Path 6016" d="M49.95,165.992V110.81l.134-.079L68.92,99.616V87.06h.547V99.927l-.134.079L50.5,111.125v53.922L70.531,153.6l.272.476Z" transform="translate(-46.481 -54.203)" fill="#50cef5"/>
    <g id="Group_1815" data-name="Group 1815" transform="translate(0 26.443)">
      <rect id="Rectangle_7006" data-name="Rectangle 7006" width="0.547" height="0.957" transform="translate(28.038)" fill="#50cef5"/>
      <path id="Path_6017" data-name="Path 6017" d="M112.9,85.167h-.547V83.009h.547Zm0-4.319h-.547V78.69h.547Z" transform="translate(-84.312 -75.572)" fill="#50cef5"/>
      <path id="Path_6018" data-name="Path 6018" d="M110.866,102.3l-.276-.472.693-.406v-.8h.547v1.114Z" transform="translate(-83.245 -88.867)" fill="#50cef5"/>
      <path id="Path_6019" data-name="Path 6019" d="M48.336,120.118l-.276-.472,1.76-1.028.276.472Zm3.516-2.051-.276-.472,1.76-1.028.276.472Zm3.516-2.051-.276-.472,1.76-1.028.276.472Zm3.516-2.051-.276-.472,1.76-1.028.276.472Zm3.516-2.051-.276-.472,1.76-1.028.276.472Zm3.516-2.051-.276-.472,1.76-1.028.276.472Zm3.516-2.051-.276-.472,1.76-1.028.276.472Z" transform="translate(-45.335 -92.317)" fill="#50cef5"/>
      <path id="Path_6020" data-name="Path 6020" d="M41.687,144.457H41.14v-1.114l.965-.563.276.472-.693.406Z" transform="translate(-41.14 -114.427)" fill="#50cef5"/>
      <path id="Path_6021" data-name="Path 6021" d="M41.687,200.745H41.14V198.8h.547Zm0-3.9H41.14V194.9h.547Zm0-3.9H41.14V191h.547Zm0-3.9H41.14V187.1h.547Zm0-3.9H41.14V183.2h.547Zm0-3.9H41.14v-1.949h.547Zm0-3.9H41.14v-1.949h.547Zm0-3.9H41.14V171.51h.547Zm0-3.9H41.14v-1.949h.547Zm0-3.9H41.14v-1.949h.547Zm0-3.9H41.14v-1.949h.547Zm0-3.9H41.14v-1.949h.547Zm0-3.9H41.14V152.02h.547Z" transform="translate(-41.14 -120.029)" fill="#50cef5"/>
      <path id="Path_6022" data-name="Path 6022" d="M41.14,282.155V280.73h.547v.484l.425-.24.268.472Z" transform="translate(-41.14 -198.061)" fill="#50cef5"/>
      <path id="Path_6023" data-name="Path 6023" d="M48.212,265.815l-.272-.476,1.709-.976.272.476Zm3.414-1.953-.272-.476,1.709-.977.272.476Zm3.414-1.953-.272-.476,1.709-.976.272.476Zm3.414-1.953-.272-.476,1.709-.977.272.476ZM61.866,258l-.272-.476,1.709-.976.272.476Z" transform="translate(-45.263 -183.402)" fill="#50cef5"/>
      <rect id="Rectangle_7007" data-name="Rectangle 7007" width="0.957" height="0.547" transform="matrix(0.868, -0.496, 0.496, 0.868, 19.756, 72.174)" fill="#50cef5"/>
    </g>
    <path id="Path_6024" data-name="Path 6024" d="M192.449,33.888H191.9V4.559l-18.84,10.875-.272-.472L192.449,3.61Z" transform="translate(-120.955 -3.61)" fill="#50cef5"/>
    <g id="Group_1816" data-name="Group 1816" transform="translate(46.06 0.819)">
      <rect id="Rectangle_7008" data-name="Rectangle 7008" width="0.957" height="0.547" transform="matrix(0.866, -0.5, 0.5, 0.866, 0, 17.005)" fill="#50cef5"/>
      <path id="Path_6025" data-name="Path 6025" d="M164.566,24.262l-.276-.472,1.606-.933.276.472-1.6.933Zm3.209-1.862-.276-.472L169.1,21l.276.472Zm3.209-1.862-.276-.472,1.6-.929.276.472Zm3.209-1.862-.276-.472,1.6-.929.276.472Zm3.209-1.862-.276-.472,1.6-.929.276.472Zm3.209-1.862-.276-.472,1.6-.929.276.472Zm3.209-1.862-.276-.472,1.6-.929.276.472-1.6.933Zm3.209-1.862-.276-.472,1.6-.933.276.472-1.606.933Z" transform="translate(-161.861 -8.194)" fill="#50cef5"/>
      <path id="Path_6026" data-name="Path 6026" d="M230.626,7.123h-.547V6.639l-.413.244-.276-.476,1.236-.717Z" transform="translate(-201.329 -5.69)" fill="#50cef5"/>
      <path id="Path_6027" data-name="Path 6027" d="M231.687,38.24h-.547V36.381h.547Zm0-3.717h-.547V32.664h.547Zm0-3.717h-.547V28.947h.547Zm0-3.717h-.547V25.231h.547Zm0-3.717h-.547V21.514h.547Zm0-3.717h-.547V17.8h.547Zm0-3.717h-.547V14.08h.547Z" transform="translate(-202.39 -10.777)" fill="#50cef5"/>
      <rect id="Rectangle_7009" data-name="Rectangle 7009" width="0.547" height="0.957" transform="translate(28.75 29.322)" fill="#50cef5"/>
    </g>
    <g id="Group_1819" data-name="Group 1819" transform="translate(29.542 84.047)">
      <path id="Path_6028" data-name="Path 6028" d="M157.156,245.065l-.138-.079-28.3-16.336.276-.476,28.16,16.261,23.975-14.009-22.364-12.883.276-.472,23.179,13.352Z" transform="translate(-123.779 -217.07)" fill="#50cef5"/>
      <g id="Group_1817" data-name="Group 1817" transform="translate(0 1.883)">
        <path id="Path_6029" data-name="Path 6029" d="M116.965,252.984c-.63-.35-.764-.417-.8-.429l.087-.22-.047-.311c.114-.016.126-.02,1.02.48l-.268.476Z" transform="translate(-116.17 -240.141)" fill="#50cef5"/>
        <path id="Path_6030" data-name="Path 6030" d="M148.949,271.476l-1.571-.913.276-.472,1.571.913Zm-3.142-1.831-1.571-.913.276-.473,1.571.913Zm-3.142-1.827-1.571-.913.276-.473,1.571.913Zm-3.142-1.827-1.571-.913.276-.472,1.571.913Zm-3.146-1.827-1.571-.913.276-.472,1.571.913Zm-3.142-1.823-1.575-.909.276-.473,1.575.91Zm-3.146-1.823-1.575-.91.272-.473,1.575.91-.276.473Zm-3.15-1.819-1.575-.906.272-.473,1.575.91-.272.473Zm-3.15-1.811c-.579-.331-1.106-.634-1.579-.9l.272-.476c.472.268,1,.571,1.579.9l-.272.476Z" transform="translate(-119.832 -242.258)" fill="#50cef5"/>
        <path id="Path_6031" data-name="Path 6031" d="M194.975,298.153l-.965-.563.276-.472.689.4.685-.406.276.472Z" transform="translate(-163.362 -267.479)" fill="#50cef5"/>
        <path id="Path_6032" data-name="Path 6032" d="M202.92,277.444l-.28-.473,1.748-1.036.28.472Zm3.5-2.067-.28-.473,1.748-1.036.28.473Zm3.5-2.067-.28-.473,1.748-1.035.28.472Zm3.5-2.067-.28-.473,1.748-1.036.28.473Zm3.5-2.067-.28-.473,1.748-1.035.28.472Zm3.5-2.067-.28-.473,1.748-1.036.28.472Z" transform="translate(-168.594 -248.375)" fill="#50cef5"/>
        <path id="Path_6033" data-name="Path 6033" d="M256.236,261.929l-.276-.473.425-.252-.425-.252.28-.472,1.221.724Z" transform="translate(-200.92 -245.271)" fill="#50cef5"/>
        <path id="Path_6034" data-name="Path 6034" d="M218.694,238.834l-1.654-.98.28-.469,1.654.98Zm-3.3-1.961-1.654-.98.28-.469,1.654.98Zm-3.3-1.961-1.654-.98.28-.469,1.654.98Zm-3.3-1.961-1.654-.98.28-.469,1.654.98Zm-3.3-1.961-1.654-.98.28-.469,1.654.98Zm-3.3-1.961-1.654-.98.28-.469,1.654.98Zm-3.3-1.961-1.654-.98.28-.469,1.654.98Z" transform="translate(-165.308 -224.137)" fill="#50cef5"/>
        <rect id="Rectangle_7010" data-name="Rectangle 7010" width="0.547" height="0.957" transform="translate(29.43 0.471) rotate(-59.31)" fill="#50cef5"/>
      </g>
      <g id="Group_1818" data-name="Group 1818" transform="translate(10.635 4.373)">
        <rect id="Rectangle_7011" data-name="Rectangle 7011" width="0.547" height="0.957" transform="translate(0 5.232) rotate(-59.3)" fill="#50cef5"/>
        <path id="Path_6035" data-name="Path 6035" d="M177.245,260.97,175.607,260l.28-.469,1.638.973Zm-3.276-1.941-1.638-.973.28-.469,1.638.973Zm-3.276-1.941-1.638-.972.28-.469,1.638.973Zm-3.276-1.941-1.638-.973.28-.469,1.638.973Zm-3.276-1.941-1.638-.973.28-.469,1.638.973Zm-3.276-1.941-1.638-.973.28-.469,1.638.973Zm-3.276-1.941-1.638-.973.28-.469,1.638.973Zm-3.276-1.941-1.638-.973.28-.469,1.638.973Zm-3.276-1.941-1.638-.973.28-.469,1.638.973Z" transform="translate(-146.951 -237.77)" fill="#50cef5"/>
        <path id="Path_6036" data-name="Path 6036" d="M225.235,289.409l-.965-.571.28-.469.685.406.689-.4.276.472Z" transform="translate(-192.342 -264.67)" fill="#50cef5"/>
        <path id="Path_6037" data-name="Path 6037" d="M232.606,274.4l-.276-.472,1.516-.882.276.472Zm3.036-1.764-.276-.473,1.516-.882.276.473Zm3.036-1.764-.276-.472,1.52-.882.276.472Zm3.036-1.764-.276-.473,1.516-.882.276.473Zm3.036-1.764-.276-.472,1.516-.882.276.472Z" transform="translate(-197.229 -251.101)" fill="#50cef5"/>
        <path id="Path_6038" data-name="Path 6038" d="M271.146,262.749l-.276-.472.417-.244-.417-.236.272-.476,1.244.709Z" transform="translate(-220.594 -248.27)" fill="#50cef5"/>
        <path id="Path_6039" data-name="Path 6039" d="M237.777,242.961l-1.7-.969.272-.476,1.7.969Zm-3.4-1.933-1.7-.969.272-.476,1.7.969Zm-3.4-1.933-1.7-.969.272-.476,1.7.969Zm-3.4-1.933-1.7-.969.272-.476,1.7.969Zm-3.4-1.933-1.7-.969.272-.476,1.7.969Zm-3.4-1.933-1.7-.969.272-.476,1.7.969Z" transform="translate(-189.202 -230.404)" fill="#50cef5"/>
        <rect id="Rectangle_7012" data-name="Rectangle 7012" width="0.547" height="0.957" transform="translate(27.356 0.476) rotate(-60.35)" fill="#50cef5"/>
      </g>
    </g>
  </g>
  <g id="Group_1833" data-name="Group 1833" transform="translate(10.804 3.057)">
    <g id="Group_1823" data-name="Group 1823" transform="translate(42.476 4.303)">
      <path id="Path_6040" data-name="Path 6040" d="M144.537,19.4l5.67,3.3c-1.894-1.1-4.516-.945-7.406.724a15.948,15.948,0,0,0-1.811,1.228l-5.67-3.3a15.608,15.608,0,0,1,1.811-1.228C140.025,18.452,142.647,18.294,144.537,19.4Z" transform="translate(-135.32 -18.693)" fill="#cddcfb"/>
      <g id="Group_1822" data-name="Group 1822" clip-path="url(#clip-path)">
        <g id="Group_1821" data-name="Group 1821" transform="translate(0 0.001)">
          <path id="Path_6041" data-name="Path 6041" d="M140.99,24.888l-5.67-3.3a15.608,15.608,0,0,1,1.811-1.228A10.794,10.794,0,0,1,140.3,19.1l5.67,3.3a10.836,10.836,0,0,0-3.17,1.264A15.95,15.95,0,0,0,140.99,24.888Z" transform="translate(-135.32 -18.941)" fill="#cddcfb"/>
          <path id="Path_6042" data-name="Path 6042" d="M153.64,22.154l-5.67-3.3a5.949,5.949,0,0,1,4.055.437l5.67,3.3A5.949,5.949,0,0,0,153.64,22.154Z" transform="translate(-142.989 -18.695)" fill="#cddcfb"/>
          <path id="Path_6043" data-name="Path 6043" d="M163.94,23.516l-5.67-3.3c.063.031.122.067.185.1l5.67,3.3C164.066,23.583,164,23.547,163.94,23.516Z" transform="translate(-149.234 -19.62)" fill="#cddcfb"/>
        </g>
      </g>
    </g>
    <g id="Group_1826" data-name="Group 1826" transform="translate(27.294)">
      <path id="Path_6045" data-name="Path 6045" d="M107.867,8.817l5.67,3.3c-2.839-1.65-6.768-1.417-11.107,1.087L96.76,9.9C101.1,7.4,105.028,7.168,107.867,8.817Z" transform="translate(-96.76 -7.764)" fill="#cddcfb"/>
      <g id="Group_1825" data-name="Group 1825" clip-path="url(#clip-path-2)">
        <g id="Group_1824" data-name="Group 1824" transform="translate(0 -0.002)">
          <path id="Path_6046" data-name="Path 6046" d="M102.43,13.579l-5.67-3.3a16.207,16.207,0,0,1,4.748-1.894l5.67,3.3a16.359,16.359,0,0,0-4.748,1.894Z" transform="translate(-96.76 -8.142)" fill="#cddcfb"/>
          <path id="Path_6047" data-name="Path 6047" d="M114.49,11.3,108.82,8a8.945,8.945,0,0,1,6.083.654l5.67,3.3A8.9,8.9,0,0,0,114.49,11.3Z" transform="translate(-104.072 -7.759)" fill="#cddcfb"/>
          <path id="Path_6048" data-name="Path 6048" d="M129.94,13.346l-5.67-3.3c.095.047.185.1.276.154l5.67,3.3-.276-.154Z" transform="translate(-113.438 -9.148)" fill="#cddcfb"/>
        </g>
      </g>
    </g>
    <g id="Group_1829" data-name="Group 1829" transform="translate(12.186 2.141)">
      <path id="Path_6050" data-name="Path 6050" d="M64.06,38.8l-5.67-3.3C60.067,26.733,66.19,17.421,73.5,13.2l5.67,3.3C71.86,20.716,65.741,30.028,64.06,38.8Z" transform="translate(-58.39 -13.2)" fill="#cddcfb"/>
      <g id="Group_1828" data-name="Group 1828" clip-path="url(#clip-path-3)">
        <g id="Group_1827" data-name="Group 1827" transform="translate(0 0)">
          <path id="Path_6051" data-name="Path 6051" d="M64.06,62.105l-5.67-3.3a33.041,33.041,0,0,1,2.292-7.17l5.67,3.3A33.108,33.108,0,0,0,64.06,62.105Z" transform="translate(-58.39 -36.505)" fill="#cddcfb"/>
          <path id="Path_6052" data-name="Path 6052" d="M69.89,41.816l-5.67-3.3A37.845,37.845,0,0,1,69.472,30l5.67,3.3a37.873,37.873,0,0,0-5.252,8.517Z" transform="translate(-61.925 -23.385)" fill="#cddcfb"/>
          <path id="Path_6053" data-name="Path 6053" d="M83.22,23.11l-5.67-3.3A28.332,28.332,0,0,1,85.114,13.2l5.67,3.3A28.523,28.523,0,0,0,83.22,23.11Z" transform="translate(-70.006 -13.2)" fill="#cddcfb"/>
        </g>
      </g>
    </g>
    <g id="Group_1832" data-name="Group 1832" transform="translate(0 24.446)">
      <path id="Path_6055" data-name="Path 6055" d="M36.145,98.66l-5.67-3.3c-1.87-1.087-3.028-3.394-3.036-6.678-.02-6.607,4.626-14.655,10.379-17.974a11.559,11.559,0,0,1,1.811-.862l5.67,3.3a12.5,12.5,0,0,0-1.811.862C37.74,77.327,33.094,85.375,33.11,91.982c.008,3.284,1.169,5.591,3.036,6.678Z" transform="translate(-27.44 -69.85)" fill="#cddcfb"/>
      <g id="Group_1831" data-name="Group 1831" clip-path="url(#clip-path-4)">
        <g id="Group_1830" data-name="Group 1830" transform="translate(0 0)">
          <path id="Path_6056" data-name="Path 6056" d="M36.145,115.526l-5.67-3.3c-1.87-1.087-3.028-3.394-3.036-6.678a19.645,19.645,0,0,1,1.831-7.883l5.67,3.3a19.645,19.645,0,0,0-1.831,7.883C33.118,112.132,34.279,114.439,36.145,115.526Z" transform="translate(-27.44 -86.716)" fill="#cddcfb"/>
          <path id="Path_6057" data-name="Path 6057" d="M37.76,92.227l-5.67-3.3a25.179,25.179,0,0,1,3.5-5.682l5.67,3.3A25.179,25.179,0,0,0,37.76,92.227Z" transform="translate(-30.259 -77.974)" fill="#cddcfb"/>
          <path id="Path_6058" data-name="Path 6058" d="M46.66,78.418l-5.67-3.3a19.026,19.026,0,0,1,5.044-4.41,11.56,11.56,0,0,1,1.811-.862l5.67,3.3a12.5,12.5,0,0,0-1.811.862,18.956,18.956,0,0,0-5.044,4.41Z" transform="translate(-35.655 -69.85)" fill="#cddcfb"/>
        </g>
      </g>
    </g>
    <path id="Path_6060" data-name="Path 6060" d="M69.134,18.271c7.308-4.221,13.458-1.992,15.182,4.819a15.606,15.606,0,0,1,1.811-1.228c5.749-3.319,10.426-.654,10.446,5.953.016,6.19-4.059,13.647-9.3,17.293L52.286,65.37c-5.749,3.319-10.426.654-10.446-5.953s4.626-14.655,10.379-17.974a11.56,11.56,0,0,1,1.811-.862c1.677-8.772,7.8-18.084,15.108-22.305Z" transform="translate(-36.17 -12.835)" fill="#e6f1fe"/>
  </g>
  <g id="Group_1837" data-name="Group 1837" transform="translate(50.379 20.049)">
    <g id="Group_1835" data-name="Group 1835">
      <g id="Group_1834" data-name="Group 1834" transform="translate(26.164 15.108)">
        <path id="Path_6061" data-name="Path 6061" d="M220.536,89.29l-.142,51.123L194.4,155.52l.146-51.127Z" transform="translate(-194.4 -89.29)" fill="#cddcfb"/>
        <path id="Path_6062" data-name="Path 6062" d="M196.84,156.425l.138-48.906L221.055,93.53l-.138,48.906Zm.957-48.433-.134,47,22.431-13.037.134-47Z" transform="translate(-195.879 -91.861)" fill="#dae8fd"/>
      </g>
      <path id="Path_6063" data-name="Path 6063" d="M154.259,104.394l-.146,51.127L127.95,140.413,128.1,89.29Z" transform="translate(-127.95 -74.182)" fill="#dae8fd"/>
      <path id="Path_6064" data-name="Path 6064" d="M180.474,66.028l-25.99,15.1-26.164-15.1L154.314,50.92Z" transform="translate(-128.174 -50.92)" fill="#eff6fe"/>
      <path id="Path_6065" data-name="Path 6065" d="M153.212,78.713l-.575.331-8.509,4.894-4.154-2.461-.575-.339,9.083-5.229Z" transform="translate(-134.892 -66.071)" fill="#dae8fd"/>
      <path id="Path_6066" data-name="Path 6066" d="M153.523,80.081l-8.509,4.894-4.154-2.461,8.509-4.894Z" transform="translate(-135.777 -67.107)" fill="#15d9fd"/>
    </g>
    <g id="Group_1836" data-name="Group 1836" transform="translate(29.164 28.252)">
      <path id="Path_6067" data-name="Path 6067" d="M203.319,131.5a1.437,1.437,0,0,1-.65,1.126c-.358.209-.65.039-.65-.374a1.436,1.436,0,0,1,.65-1.126C203.028,130.914,203.319,131.083,203.319,131.5Z" transform="translate(-202.02 -127.741)" fill="#15d9fd"/>
      <path id="Path_6068" data-name="Path 6068" d="M210.559,127.316a1.437,1.437,0,0,1-.65,1.126c-.358.209-.65.039-.65-.374a1.443,1.443,0,0,1,.65-1.126C210.268,126.734,210.559,126.9,210.559,127.316Z" transform="translate(-206.409 -125.207)" fill="#15d9fd"/>
      <path id="Path_6069" data-name="Path 6069" d="M217.8,123.136a1.436,1.436,0,0,1-.65,1.126c-.358.209-.65.039-.65-.374a1.436,1.436,0,0,1,.65-1.126C217.508,122.554,217.8,122.723,217.8,123.136Z" transform="translate(-210.799 -122.673)" fill="#15d9fd"/>
    </g>
  </g>
  <g id="Group_1867" data-name="Group 1867" transform="translate(30.574 49.924)">
    <g id="Group_1841" data-name="Group 1841" transform="translate(0 31.176)">
      <g id="Group_1840" data-name="Group 1840" transform="translate(0 9.412)">
        <path id="Path_6070" data-name="Path 6070" d="M110.318,229.975v3.693c-.008,2.406-1.587,4.808-4.748,6.642-6.359,3.693-16.7,3.693-23.1,0-3.221-1.858-4.831-4.3-4.823-6.737V229.88c-.008,2.437,1.6,4.878,4.823,6.737,6.4,3.693,16.742,3.693,23.1,0C108.728,234.782,110.31,232.38,110.318,229.975Z" transform="translate(-77.65 -229.88)" fill="#d4e2fc"/>
        <g id="Group_1839" data-name="Group 1839" clip-path="url(#clip-path-5)">
          <g id="Group_1838" data-name="Group 1838" transform="translate(-0.004 0.004)">
            <path id="Path_6071" data-name="Path 6071" d="M146.906,230.12v3.693c-.008,2.406-1.587,4.808-4.748,6.642A18.849,18.849,0,0,1,138,242.208v-3.693a18.847,18.847,0,0,0,4.158-1.752C145.316,234.928,146.9,232.526,146.906,230.12Z" transform="translate(-114.234 -230.029)" fill="#becef9"/>
            <path id="Path_6072" data-name="Path 6072" d="M127.208,251.45v3.693a26.279,26.279,0,0,1-7.008,1.016v-3.693A26.3,26.3,0,0,0,127.208,251.45Z" transform="translate(-103.443 -242.961)" fill="#cddcfb"/>
            <path id="Path_6073" data-name="Path 6073" d="M101.1,249.331v3.693a23.829,23.829,0,0,1-11.934-2.768c-.161-.094-.319-.189-.469-.283V246.28c.154.094.311.189.469.283A23.819,23.819,0,0,0,101.1,249.331Z" transform="translate(-84.345 -239.827)" fill="#dae8fd"/>
            <path id="Path_6074" data-name="Path 6074" d="M83.128,240.7v3.693a10.012,10.012,0,0,1-3.618-3.626V237.07A10.01,10.01,0,0,0,83.128,240.7Z" transform="translate(-78.774 -234.243)" fill="#cddcfb"/>
            <path id="Path_6075" data-name="Path 6075" d="M78.376,232.717v3.693a5.962,5.962,0,0,1-.736-2.827V229.89A5.906,5.906,0,0,0,78.376,232.717Z" transform="translate(-77.64 -229.89)" fill="#cddcfb"/>
          </g>
        </g>
      </g>
      <path id="Path_6077" data-name="Path 6077" d="M105.5,208.745c6.4,3.693,6.434,9.686.075,13.379s-16.7,3.693-23.1,0-6.434-9.686-.075-13.379,16.7-3.693,23.1,0Z" transform="translate(-77.653 -205.975)" fill="#e6f1fe"/>
    </g>
    <g id="Group_1845" data-name="Group 1845" transform="translate(0.437 25.055)">
      <g id="Group_1844" data-name="Group 1844" transform="translate(0 9.15)">
        <path id="Path_6078" data-name="Path 6078" d="M110.538,213.761l-.016,5.327c-.008,2.339-1.543,4.674-4.615,6.461-6.182,3.591-16.234,3.591-22.459,0-3.13-1.807-4.7-4.181-4.689-6.552l.016-5.327c-.008,2.37,1.559,4.745,4.689,6.552,6.221,3.591,16.277,3.591,22.459,0C108.995,218.438,110.534,216.1,110.538,213.761Z" transform="translate(-78.76 -213.67)" fill="#1499fc"/>
        <g id="Group_1843" data-name="Group 1843" clip-path="url(#clip-path-6)">
          <g id="Group_1842" data-name="Group 1842" transform="translate(0 -0.004)">
            <path id="Path_6079" data-name="Path 6079" d="M146.114,213.9l-.016,5.327c-.008,2.339-1.543,4.674-4.615,6.461a18.274,18.274,0,0,1-4.044,1.7l.016-5.327a18.354,18.354,0,0,0,4.044-1.7C144.571,218.578,146.11,216.239,146.114,213.9Z" transform="translate(-114.336 -213.805)" fill="#1499fc"/>
            <path id="Path_6080" data-name="Path 6080" d="M126.967,234.63l-.016,5.327a25.514,25.514,0,0,1-6.812.988l.016-5.327A25.491,25.491,0,0,0,126.967,234.63Z" transform="translate(-103.847 -226.373)" fill="#13b7fd"/>
            <path id="Path_6081" data-name="Path 6081" d="M101.576,232.569l-.016,5.327a23.136,23.136,0,0,1-11.6-2.693c-.158-.091-.307-.181-.457-.276l.016-5.327c.15.094.3.185.457.276A23.117,23.117,0,0,0,101.576,232.569Z" transform="translate(-85.271 -223.324)" fill="#15d9fd"/>
            <path id="Path_6082" data-name="Path 6082" d="M84.112,224.184l-.016,5.327a9.7,9.7,0,0,1-3.516-3.524l.016-5.327A9.7,9.7,0,0,0,84.112,224.184Z" transform="translate(-79.863 -217.904)" fill="#13b7fd"/>
            <path id="Path_6083" data-name="Path 6083" d="M79.488,216.412l-.016,5.327a5.726,5.726,0,0,1-.713-2.752l.016-5.327A5.828,5.828,0,0,0,79.488,216.412Z" transform="translate(-78.76 -213.66)" fill="#13b7fd"/>
          </g>
        </g>
      </g>
      <path id="Path_6085" data-name="Path 6085" d="M105.869,193.123c6.221,3.591,6.253,9.418.071,13.009s-16.234,3.591-22.459,0-6.256-9.418-.075-13.009,16.238-3.591,22.459,0Z" transform="translate(-78.78 -190.43)" fill="#15d9fd"/>
    </g>
    <g id="Group_1849" data-name="Group 1849" transform="translate(0 20.837)">
      <g id="Group_1848" data-name="Group 1848" transform="translate(0 9.412)">
        <path id="Path_6086" data-name="Path 6086" d="M110.318,203.714v3.693c-.008,2.406-1.587,4.808-4.748,6.642-6.359,3.693-16.7,3.693-23.1,0-3.221-1.858-4.831-4.3-4.823-6.737V203.62c-.008,2.437,1.6,4.878,4.823,6.737,6.4,3.693,16.742,3.693,23.1,0C108.728,208.522,110.31,206.12,110.318,203.714Z" transform="translate(-77.65 -203.62)" fill="#d4e2fc"/>
        <g id="Group_1847" data-name="Group 1847" clip-path="url(#clip-path-7)">
          <g id="Group_1846" data-name="Group 1846" transform="translate(-0.004 0.004)">
            <path id="Path_6087" data-name="Path 6087" d="M146.906,203.86v3.693c-.008,2.406-1.587,4.808-4.748,6.642A18.849,18.849,0,0,1,138,215.948v-3.693a18.849,18.849,0,0,0,4.158-1.752C145.316,208.668,146.9,206.266,146.906,203.86Z" transform="translate(-114.234 -203.769)" fill="#becef9"/>
            <path id="Path_6088" data-name="Path 6088" d="M127.208,225.18v3.693a26.28,26.28,0,0,1-7.008,1.016V226.2A26.3,26.3,0,0,0,127.208,225.18Z" transform="translate(-103.443 -216.695)" fill="#cddcfb"/>
            <path id="Path_6089" data-name="Path 6089" d="M101.1,223.061v3.693a23.829,23.829,0,0,1-11.934-2.768c-.161-.095-.319-.189-.469-.284V220.01c.154.095.311.189.469.283A23.819,23.819,0,0,0,101.1,223.061Z" transform="translate(-84.345 -213.561)" fill="#dae8fd"/>
            <path id="Path_6090" data-name="Path 6090" d="M83.128,214.426v3.693a10.012,10.012,0,0,1-3.618-3.626V210.8A10.011,10.011,0,0,0,83.128,214.426Z" transform="translate(-78.774 -207.977)" fill="#cddcfb"/>
            <path id="Path_6091" data-name="Path 6091" d="M78.376,206.457v3.693a5.962,5.962,0,0,1-.736-2.827V203.63A5.906,5.906,0,0,0,78.376,206.457Z" transform="translate(-77.64 -203.63)" fill="#cddcfb"/>
          </g>
        </g>
      </g>
      <path id="Path_6093" data-name="Path 6093" d="M105.5,182.485c6.4,3.693,6.434,9.686.075,13.379s-16.7,3.693-23.1,0-6.434-9.686-.075-13.379,16.7-3.693,23.1,0Z" transform="translate(-77.653 -179.715)" fill="#e6f1fe"/>
    </g>
    <g id="Group_1853" data-name="Group 1853" transform="translate(0.437 14.747)">
      <g id="Group_1852" data-name="Group 1852" transform="translate(0 9.15)">
        <path id="Path_6094" data-name="Path 6094" d="M110.538,187.581l-.016,5.327c-.008,2.339-1.543,4.674-4.615,6.461-6.182,3.591-16.234,3.591-22.459,0-3.13-1.807-4.7-4.181-4.689-6.552l.016-5.327c-.008,2.37,1.559,4.741,4.689,6.552,6.221,3.591,16.277,3.591,22.459,0C108.995,192.258,110.534,189.919,110.538,187.581Z" transform="translate(-78.76 -187.49)" fill="#1499fc"/>
        <g id="Group_1851" data-name="Group 1851" clip-path="url(#clip-path-8)">
          <g id="Group_1850" data-name="Group 1850" transform="translate(0 0)">
            <path id="Path_6095" data-name="Path 6095" d="M146.114,187.72l-.016,5.327c-.008,2.339-1.543,4.674-4.615,6.461a18.272,18.272,0,0,1-4.044,1.7l.016-5.327a18.354,18.354,0,0,0,4.044-1.7C144.571,192.4,146.11,190.059,146.114,187.72Z" transform="translate(-114.336 -187.629)" fill="#1499fc"/>
            <path id="Path_6096" data-name="Path 6096" d="M126.967,208.46l-.016,5.327a25.514,25.514,0,0,1-6.812.988l.016-5.327A25.492,25.492,0,0,0,126.967,208.46Z" transform="translate(-103.847 -200.203)" fill="#13b7fd"/>
            <path id="Path_6097" data-name="Path 6097" d="M101.576,206.4l-.016,5.327a23.137,23.137,0,0,1-11.6-2.693c-.158-.091-.307-.181-.457-.276l.016-5.327c.15.095.3.185.457.276A23.117,23.117,0,0,0,101.576,206.4Z" transform="translate(-85.271 -197.154)" fill="#15d9fd"/>
            <path id="Path_6098" data-name="Path 6098" d="M84.112,198l-.016,5.327a9.7,9.7,0,0,1-3.516-3.524l.016-5.327A9.7,9.7,0,0,0,84.112,198Z" transform="translate(-79.863 -191.728)" fill="#13b7fd"/>
            <path id="Path_6099" data-name="Path 6099" d="M79.488,190.242l-.016,5.327a5.726,5.726,0,0,1-.713-2.752l.016-5.327A5.828,5.828,0,0,0,79.488,190.242Z" transform="translate(-78.76 -187.49)" fill="#13b7fd"/>
          </g>
        </g>
      </g>
      <path id="Path_6101" data-name="Path 6101" d="M105.869,166.943c6.221,3.591,6.253,9.418.071,13.009s-16.234,3.591-22.459,0-6.256-9.418-.075-13.009,16.238-3.591,22.459,0Z" transform="translate(-78.78 -164.25)" fill="#15d9fd"/>
    </g>
    <g id="Group_1857" data-name="Group 1857" transform="translate(0 10.532)">
      <g id="Group_1856" data-name="Group 1856" transform="translate(0 9.408)">
        <path id="Path_6102" data-name="Path 6102" d="M110.318,177.534v3.693c-.008,2.406-1.587,4.808-4.748,6.642-6.359,3.693-16.7,3.693-23.1,0-3.221-1.858-4.831-4.3-4.823-6.737V177.44c-.008,2.437,1.6,4.878,4.823,6.737,6.4,3.693,16.742,3.693,23.1,0C108.728,182.342,110.31,179.94,110.318,177.534Z" transform="translate(-77.65 -177.44)" fill="#d4e2fc"/>
        <g id="Group_1855" data-name="Group 1855" clip-path="url(#clip-path-9)">
          <g id="Group_1854" data-name="Group 1854" transform="translate(-0.004 0.004)">
            <path id="Path_6103" data-name="Path 6103" d="M146.906,177.68v3.693c-.008,2.406-1.587,4.808-4.748,6.642A18.848,18.848,0,0,1,138,189.768v-3.693a18.847,18.847,0,0,0,4.158-1.752C145.316,182.488,146.9,180.086,146.906,177.68Z" transform="translate(-114.234 -177.589)" fill="#becef9"/>
            <path id="Path_6104" data-name="Path 6104" d="M127.208,199.01V202.7a26.278,26.278,0,0,1-7.008,1.016v-3.693A26.3,26.3,0,0,0,127.208,199.01Z" transform="translate(-103.443 -190.521)" fill="#cddcfb"/>
            <path id="Path_6105" data-name="Path 6105" d="M101.1,196.891v3.693a23.829,23.829,0,0,1-11.934-2.768c-.161-.094-.319-.189-.469-.283V193.84c.154.094.311.189.469.283A23.819,23.819,0,0,0,101.1,196.891Z" transform="translate(-84.345 -187.387)" fill="#dae8fd"/>
            <path id="Path_6106" data-name="Path 6106" d="M83.128,188.256v3.693a10.012,10.012,0,0,1-3.618-3.626V184.63A10.01,10.01,0,0,0,83.128,188.256Z" transform="translate(-78.774 -181.803)" fill="#cddcfb"/>
            <path id="Path_6107" data-name="Path 6107" d="M78.376,180.277v3.693a5.962,5.962,0,0,1-.736-2.827V177.45A5.906,5.906,0,0,0,78.376,180.277Z" transform="translate(-77.64 -177.45)" fill="#cddcfb"/>
          </g>
        </g>
      </g>
      <path id="Path_6109" data-name="Path 6109" d="M105.5,156.315c6.4,3.693,6.434,9.686.075,13.379s-16.7,3.693-23.1,0-6.434-9.686-.075-13.379,16.7-3.693,23.1,0Z" transform="translate(-77.653 -153.545)" fill="#e6f1fe"/>
    </g>
    <g id="Group_1861" data-name="Group 1861" transform="translate(0.437 4.219)">
      <g id="Group_1860" data-name="Group 1860" transform="translate(0 9.15)">
        <path id="Path_6110" data-name="Path 6110" d="M110.538,160.841l-.016,5.327c-.008,2.339-1.543,4.674-4.615,6.461-6.182,3.591-16.234,3.591-22.459,0-3.13-1.807-4.7-4.181-4.689-6.552l.016-5.327c-.008,2.37,1.559,4.741,4.689,6.552,6.221,3.591,16.277,3.591,22.459,0C108.995,165.518,110.534,163.179,110.538,160.841Z" transform="translate(-78.76 -160.75)" fill="#1499fc"/>
        <g id="Group_1859" data-name="Group 1859" clip-path="url(#clip-path-10)">
          <g id="Group_1858" data-name="Group 1858" transform="translate(0)">
            <path id="Path_6111" data-name="Path 6111" d="M146.114,160.98l-.016,5.327c-.008,2.339-1.543,4.674-4.615,6.461a18.273,18.273,0,0,1-4.044,1.7l.016-5.327a18.352,18.352,0,0,0,4.044-1.7C144.571,165.658,146.11,163.319,146.114,160.98Z" transform="translate(-114.336 -160.889)" fill="#1499fc"/>
            <path id="Path_6112" data-name="Path 6112" d="M126.967,181.71l-.016,5.327a25.515,25.515,0,0,1-6.812.988l.016-5.327A25.492,25.492,0,0,0,126.967,181.71Z" transform="translate(-103.847 -173.457)" fill="#13b7fd"/>
            <path id="Path_6113" data-name="Path 6113" d="M101.576,179.649l-.016,5.327a23.137,23.137,0,0,1-11.6-2.693c-.158-.091-.307-.181-.457-.276l.016-5.327c.15.095.3.185.457.276A23.117,23.117,0,0,0,101.576,179.649Z" transform="translate(-85.271 -170.408)" fill="#15d9fd"/>
            <path id="Path_6114" data-name="Path 6114" d="M84.112,171.264l-.016,5.327a9.7,9.7,0,0,1-3.516-3.524l.016-5.327A9.7,9.7,0,0,0,84.112,171.264Z" transform="translate(-79.863 -164.988)" fill="#13b7fd"/>
            <path id="Path_6115" data-name="Path 6115" d="M79.488,163.5l-.016,5.327a5.727,5.727,0,0,1-.713-2.752l.016-5.327A5.828,5.828,0,0,0,79.488,163.5Z" transform="translate(-78.76 -160.75)" fill="#13b7fd"/>
          </g>
        </g>
      </g>
      <path id="Path_6117" data-name="Path 6117" d="M105.869,140.2c6.221,3.591,6.253,9.418.071,13.009s-16.234,3.591-22.459,0-6.256-9.418-.075-13.009,16.238-3.591,22.459,0Z" transform="translate(-78.78 -137.51)" fill="#15d9fd"/>
    </g>
    <g id="Group_1866" data-name="Group 1866">
      <g id="Group_1864" data-name="Group 1864" transform="translate(0 9.412)">
        <path id="Path_6118" data-name="Path 6118" d="M110.318,150.794v3.693c-.008,2.406-1.587,4.808-4.748,6.642-6.359,3.693-16.7,3.693-23.1,0-3.221-1.858-4.831-4.3-4.823-6.737V150.7c-.008,2.437,1.6,4.878,4.823,6.737,6.4,3.693,16.742,3.693,23.1,0C108.728,155.6,110.31,153.2,110.318,150.794Z" transform="translate(-77.65 -150.7)" fill="#d4e2fc"/>
        <g id="Group_1863" data-name="Group 1863" clip-path="url(#clip-path-11)">
          <g id="Group_1862" data-name="Group 1862" transform="translate(-0.004 0.004)">
            <path id="Path_6119" data-name="Path 6119" d="M146.906,150.94v3.693c-.008,2.406-1.587,4.808-4.748,6.642A18.846,18.846,0,0,1,138,163.028v-3.693a18.848,18.848,0,0,0,4.158-1.752C145.316,155.747,146.9,153.346,146.906,150.94Z" transform="translate(-114.234 -150.849)" fill="#becef9"/>
            <path id="Path_6120" data-name="Path 6120" d="M127.208,172.27v3.693a26.279,26.279,0,0,1-7.008,1.016v-3.693A26.3,26.3,0,0,0,127.208,172.27Z" transform="translate(-103.443 -163.781)" fill="#cddcfb"/>
            <path id="Path_6121" data-name="Path 6121" d="M101.1,170.151v3.693a23.829,23.829,0,0,1-11.934-2.768c-.161-.094-.319-.189-.469-.283V167.1c.154.094.311.189.469.283A23.819,23.819,0,0,0,101.1,170.151Z" transform="translate(-84.345 -160.647)" fill="#dae8fd"/>
            <path id="Path_6122" data-name="Path 6122" d="M83.128,161.516v3.693a10.012,10.012,0,0,1-3.618-3.626V157.89A10.01,10.01,0,0,0,83.128,161.516Z" transform="translate(-78.774 -155.063)" fill="#cddcfb"/>
            <path id="Path_6123" data-name="Path 6123" d="M78.376,153.537v3.693a5.962,5.962,0,0,1-.736-2.827V150.71A5.906,5.906,0,0,0,78.376,153.537Z" transform="translate(-77.64 -150.71)" fill="#cddcfb"/>
          </g>
        </g>
      </g>
      <g id="Group_1865" data-name="Group 1865" transform="translate(0.002)">
        <path id="Path_6125" data-name="Path 6125" d="M105.5,129.565c6.4,3.693,6.434,9.686.075,13.379s-16.7,3.693-23.1,0-6.434-9.686-.075-13.379,16.7-3.693,23.1,0Z" transform="translate(-77.655 -126.795)" fill="#e6f1fe"/>
        <path id="Path_6126" data-name="Path 6126" d="M107.209,134.506c5.6,2.835,5.623,7.434.063,10.269s-14.6,2.835-20.195,0-5.626-7.434-.067-10.269,14.6-2.835,20.195,0Z" transform="translate(-80.811 -130.181)" fill="#dae8fd"/>
        <path id="Path_6127" data-name="Path 6127" d="M107.212,133.531a23.827,23.827,0,0,0-21.447,0c-2.5,1.449-3.929,3.359-3.926,5.237,0,.091,0,.181.012.276.13,1.807,1.571,3.622,3.985,5.016a23.843,23.843,0,0,0,21.447,0c2.378-1.378,3.788-3.174,3.918-4.965a2.151,2.151,0,0,0,.012-.276c0-1.894-1.461-3.823-4-5.284Zm2.729,5.839c0,1.414-1.2,2.922-3.3,4.142a22.567,22.567,0,0,1-20.175,0c-2.134-1.232-3.359-2.76-3.363-4.193a2.1,2.1,0,0,1,.016-.272,2.155,2.155,0,0,1-.016-.276c0-1.414,1.2-2.925,3.3-4.142a22.566,22.566,0,0,1,20.175,0c2.134,1.232,3.359,2.76,3.363,4.189a2.1,2.1,0,0,1-.016.272,2.218,2.218,0,0,1,.016.28Z" transform="translate(-80.192 -129.332)" fill="#98a4e0"/>
        <path id="Path_6128" data-name="Path 6128" d="M107.231,134.927a23.843,23.843,0,0,0-21.447,0c-2.378,1.378-3.788,3.177-3.914,4.961.13,1.807,1.571,3.622,3.985,5.016a23.844,23.844,0,0,0,21.447,0c2.378-1.378,3.788-3.174,3.918-4.965-.134-1.807-1.571-3.618-3.985-5.012Zm-.567,9.434a22.566,22.566,0,0,1-20.175,0c-2.134-1.232-3.359-2.76-3.363-4.193a2.1,2.1,0,0,1,.016-.272,2.156,2.156,0,0,1-.016-.276c0-1.414,1.2-2.925,3.3-4.142a22.566,22.566,0,0,1,20.175,0c2.134,1.232,3.359,2.76,3.363,4.189a2.1,2.1,0,0,1-.016.272,2.217,2.217,0,0,1,.016.28c0,1.414-1.2,2.922-3.3,4.142Z" transform="translate(-80.21 -130.181)" fill="#15d9fd"/>
      </g>
    </g>
  </g>
  <g id="Group_1870" data-name="Group 1870" transform="translate(36.173 17.083)">
    <g id="Group_1868" data-name="Group 1868">
      <path id="Path_6129" data-name="Path 6129" d="M96.528,56.532a1.038,1.038,0,0,1-.35.134c-.575.11-.886-.433-.689-1.209a19.162,19.162,0,0,1,5.7-9.434c3.926-3.449,7.953-3.52,9.572-.165a2.052,2.052,0,0,1-.567,2c-.555.6-1.2.681-1.445.181-1.185-2.453-4.134-2.4-7,.126a14.047,14.047,0,0,0-4.174,6.91,2.457,2.457,0,0,1-1.039,1.465Z" transform="translate(-94.028 -43.388)" fill="#cddcfb"/>
      <path id="Path_6130" data-name="Path 6130" d="M91.87,69.942l2.807,3.807,2.666-7.06Z" transform="translate(-91.87 -57.515)" fill="#cddcfb"/>
    </g>
    <g id="Group_1869" data-name="Group 1869" transform="translate(2.045 5.423)">
      <path id="Path_6131" data-name="Path 6131" d="M104.5,77.546c-3.016,1.74-5.9,1.469-7.316-.9a1.95,1.95,0,0,1,.476-1.98c.539-.63,1.2-.768,1.477-.3,1.272,2.122,4.15,1.945,6.847-.421a14.027,14.027,0,0,0,4.2-7.028,2.211,2.211,0,0,1,1.378-1.618c.579-.122.9.409.713,1.181a19.115,19.115,0,0,1-5.741,9.6A12.734,12.734,0,0,1,104.5,77.55Z" transform="translate(-97.064 -62.08)" fill="#cddcfb"/>
      <path id="Path_6132" data-name="Path 6132" d="M130.965,61.467l-2.39-4.307-3.075,7Z" transform="translate(-114.304 -57.16)" fill="#cddcfb"/>
    </g>
  </g>
  <path id="Path_6133" data-name="Path 6133" d="M198.92,136.061l.039,20.313,23.195-13.391-.043-20.313Z" transform="translate(-120.598 -74.37)" fill="#10191b"/>
  <g id="Group_1891" data-name="Group 1891" transform="translate(79.283 39.228)">
    <g id="Group_1871" data-name="Group 1871" transform="translate(19.671 19.474)">
      <path id="Path_6134" data-name="Path 6134" d="M295.7,175.149l.74-.429-.043,10.355-.74.429Z" transform="translate(-278.202 -164.629)" fill="#0f76c2"/>
      <path id="Path_6135" data-name="Path 6135" d="M251.43,149.523l.74-.433,17.458,10.091-.74.429Z" transform="translate(-251.387 -149.09)" fill="#37404a"/>
      <path id="Path_6136" data-name="Path 6136" d="M268.822,160.278l-.043,10.355L251.32,160.545l.043-10.355Z" transform="translate(-251.32 -149.757)" fill="#242a31"/>
    </g>
    <g id="Group_1875" data-name="Group 1875" transform="translate(1.047 15.064)">
      <g id="Group_1872" data-name="Group 1872">
        <path id="Path_6137" data-name="Path 6137" d="M225.191,145.69l-.591-.343,12.918-7.457.591.343Z" transform="translate(-216.497 -137.89)" fill="#ffd438"/>
        <path id="Path_6138" data-name="Path 6138" d="M204.666,179.931l-.595-.343-.051-15.809.591.343Z" transform="translate(-204.02 -153.586)" fill="#ffb700"/>
        <path id="Path_6139" data-name="Path 6139" d="M204.611,157.672l-.591-.343,7.253-4.189.591.346Z" transform="translate(-204.02 -147.136)" fill="#ffd438"/>
        <path id="Path_6140" data-name="Path 6140" d="M212.773,144.768l.85,1.449,12.918-7.457.051,13.867-21.018,12.135-.055-15.809Z" transform="translate(-204.929 -138.417)" fill="#fbc70e"/>
      </g>
      <g id="Group_1873" data-name="Group 1873" transform="translate(1.004 1.693)">
        <path id="Path_6141" data-name="Path 6141" d="M208.192,184.976l-1.579-.917-.043-12.418,1.579.917Z" transform="translate(-206.57 -160.044)" fill="#d4e2fc"/>
        <path id="Path_6142" data-name="Path 6142" d="M208.149,154.7l-1.579-.917,20.088-11.6,1.579.917Z" transform="translate(-206.57 -142.19)" fill="#ecf5fe"/>
        <path id="Path_6143" data-name="Path 6143" d="M230.668,144.52l.043,12.418-20.088,11.6-.043-12.418Z" transform="translate(-209.001 -143.603)" fill="#b5b3c4"/>
      </g>
      <path id="Path_6144" data-name="Path 6144" d="M204.741,199.63v.606l-.012.248h-.579v.374l2.547,1.469,0-1.52Z" transform="translate(-204.099 -175.321)" fill="#fbc70e"/>
      <g id="Group_1874" data-name="Group 1874" transform="translate(1.961 2.327)">
        <path id="Path_6145" data-name="Path 6145" d="M209.638,187.623l-.591-.343L209,174.61l.595.347Z" transform="translate(-209 -162.479)" fill="#ffb700"/>
        <path id="Path_6146" data-name="Path 6146" d="M209.595,156.277l-.595-.346L230.018,143.8l.595.343Z" transform="translate(-209 -143.8)" fill="#ffd438"/>
        <path id="Path_6147" data-name="Path 6147" d="M231.528,144.67l.043,12.666-21.018,12.135L210.51,156.8Z" transform="translate(-209.915 -144.327)" fill="#fbc70e"/>
      </g>
      <path id="Path_6148" data-name="Path 6148" d="M206.7,202.968,204.15,201.5V199.92l2.551,1.528Z" transform="translate(-204.099 -175.497)" fill="#ffb700"/>
    </g>
    <g id="Group_1879" data-name="Group 1879" transform="translate(4.39 16.982)">
      <g id="Group_1876" data-name="Group 1876">
        <path id="Path_6149" data-name="Path 6149" d="M233.681,150.564l-.591-.343,12.918-7.461.591.346Z" transform="translate(-224.987 -142.76)" fill="#ffd438"/>
        <path id="Path_6150" data-name="Path 6150" d="M213.156,184.8l-.595-.346-.051-15.809.591.346Z" transform="translate(-212.51 -158.456)" fill="#ffb700"/>
        <path id="Path_6151" data-name="Path 6151" d="M213.1,162.552l-.591-.346,7.253-4.185.591.343Z" transform="translate(-212.51 -152.012)" fill="#ffd438"/>
        <path id="Path_6152" data-name="Path 6152" d="M221.263,149.644l.85,1.453,12.918-7.457.051,13.867-21.018,12.135-.055-15.809Z" transform="translate(-213.419 -143.294)" fill="#fbc70e"/>
      </g>
      <g id="Group_1877" data-name="Group 1877" transform="translate(1.004 1.693)">
        <path id="Path_6153" data-name="Path 6153" d="M216.682,189.85l-1.579-.921-.043-12.418,1.579.921Z" transform="translate(-215.06 -164.914)" fill="#d4e2fc"/>
        <path id="Path_6154" data-name="Path 6154" d="M216.639,159.577l-1.579-.921,20.088-11.6,1.579.917Z" transform="translate(-215.06 -147.06)" fill="#ecf5fe"/>
        <path id="Path_6155" data-name="Path 6155" d="M239.158,149.39l.043,12.418-20.088,11.6-.043-12.418Z" transform="translate(-217.491 -148.473)" fill="#b5b3c4"/>
      </g>
      <path id="Path_6156" data-name="Path 6156" d="M213.231,204.51v.606l-.012.248h-.579v.37l2.547,1.473,0-1.52Z" transform="translate(-212.589 -180.197)" fill="#fbc70e"/>
      <g id="Group_1878" data-name="Group 1878" transform="translate(1.961 2.327)">
        <path id="Path_6157" data-name="Path 6157" d="M218.128,192.5l-.591-.343-.047-12.666.595.343Z" transform="translate(-217.49 -167.355)" fill="#ffb700"/>
        <path id="Path_6158" data-name="Path 6158" d="M218.085,161.147l-.595-.343,21.018-12.135.595.346Z" transform="translate(-217.49 -148.67)" fill="#ffd438"/>
        <path id="Path_6159" data-name="Path 6159" d="M240.018,149.55l.043,12.666-21.018,12.131L219,161.681Z" transform="translate(-218.405 -149.204)" fill="#f3ab05"/>
      </g>
      <path id="Path_6160" data-name="Path 6160" d="M215.187,207.838l-2.547-1.469V204.79l2.551,1.532Z" transform="translate(-212.589 -180.367)" fill="#ffb700"/>
    </g>
    <g id="Group_1883" data-name="Group 1883" transform="translate(8.095)">
      <g id="Group_1880" data-name="Group 1880">
        <path id="Path_6161" data-name="Path 6161" d="M243.095,107.434l-.595-.346,12.918-7.457.595.346Z" transform="translate(-234.397 -99.63)" fill="#ffd438"/>
        <path id="Path_6162" data-name="Path 6162" d="M222.566,145.309l-.591-.343-.055-19.447.595.346Z" transform="translate(-221.92 -115.326)" fill="#ffb700"/>
        <path id="Path_6163" data-name="Path 6163" d="M222.515,119.422l-.595-.346,7.253-4.185.595.343Z" transform="translate(-221.92 -108.882)" fill="#ffd438"/>
        <path id="Path_6164" data-name="Path 6164" d="M230.683,106.514l.85,1.453,12.918-7.457.047,17.5-21.018,12.135L223.43,110.7Z" transform="translate(-222.835 -100.164)" fill="#fbc70e"/>
      </g>
      <g id="Group_1881" data-name="Group 1881" transform="translate(1.004 1.693)">
        <path id="Path_6165" data-name="Path 6165" d="M226.092,150.354l-1.579-.917-.043-16.057,1.579.917Z" transform="translate(-224.47 -121.784)" fill="#d4e2fc"/>
        <path id="Path_6166" data-name="Path 6166" d="M226.049,116.443l-1.579-.917,20.088-11.6,1.583.917Z" transform="translate(-224.47 -103.93)" fill="#ecf5fe"/>
        <path id="Path_6167" data-name="Path 6167" d="M248.572,106.26l.043,16.057-20.092,11.6-.043-16.057Z" transform="translate(-226.901 -105.343)" fill="#b5b3c4"/>
      </g>
      <path id="Path_6168" data-name="Path 6168" d="M222.647,170.61v.606l-.008.248h-.579v.374l2.547,1.469,0-1.52Z" transform="translate(-222.005 -142.663)" fill="#fbc70e"/>
      <g id="Group_1882" data-name="Group 1882" transform="translate(1.965 2.327)">
        <path id="Path_6169" data-name="Path 6169" d="M227.548,153.007l-.595-.343-.043-16.3.591.343Z" transform="translate(-226.91 -124.225)" fill="#ffb700"/>
        <path id="Path_6170" data-name="Path 6170" d="M227.5,118.017l-.591-.343,21.018-12.135.591.343Z" transform="translate(-226.91 -105.54)" fill="#ffd438"/>
        <path id="Path_6171" data-name="Path 6171" d="M249.428,106.41l.043,16.3L228.457,134.85l-.047-16.3Z" transform="translate(-227.819 -106.067)" fill="#fbc70e"/>
      </g>
      <path id="Path_6172" data-name="Path 6172" d="M224.607,173.948l-2.547-1.469V170.9l2.551,1.528Z" transform="translate(-222.005 -142.838)" fill="#ffb700"/>
    </g>
    <g id="Group_1887" data-name="Group 1887" transform="translate(11.67 21.285)">
      <g id="Group_1884" data-name="Group 1884">
        <path id="Path_6173" data-name="Path 6173" d="M252.175,161.494l-.595-.346L264.5,153.69l.591.343Z" transform="translate(-243.477 -153.69)" fill="#ffd438"/>
        <path id="Path_6174" data-name="Path 6174" d="M231.646,195.731l-.591-.343L231,179.58l.591.343Z" transform="translate(-231 -169.386)" fill="#ffb700"/>
        <path id="Path_6175" data-name="Path 6175" d="M231.591,173.472l-.591-.343,7.253-4.189.591.346Z" transform="translate(-231 -162.936)" fill="#ffd438"/>
        <path id="Path_6176" data-name="Path 6176" d="M239.753,160.568l.854,1.453,12.915-7.461.051,13.867-21.018,12.135-.055-15.809Z" transform="translate(-231.909 -154.217)" fill="#fbc70e"/>
      </g>
      <g id="Group_1885" data-name="Group 1885" transform="translate(1.004 1.693)">
        <path id="Path_6177" data-name="Path 6177" d="M235.172,200.776l-1.579-.917-.043-12.418,1.579.917Z" transform="translate(-233.55 -175.844)" fill="#d4e2fc"/>
        <path id="Path_6178" data-name="Path 6178" d="M235.129,170.5l-1.579-.917,20.088-11.6,1.579.917Z" transform="translate(-233.55 -157.99)" fill="#ecf5fe"/>
        <path id="Path_6179" data-name="Path 6179" d="M257.648,160.32l.047,12.418-20.092,11.6-.043-12.418Z" transform="translate(-235.981 -159.403)" fill="#b5b3c4"/>
      </g>
      <path id="Path_6180" data-name="Path 6180" d="M231.727,215.43v.606l-.012.248h-.575v.374l2.544,1.469,0-1.52Z" transform="translate(-231.085 -191.121)" fill="#fbc70e"/>
      <g id="Group_1886" data-name="Group 1886" transform="translate(1.965 2.327)">
        <path id="Path_6181" data-name="Path 6181" d="M236.624,203.423l-.591-.343-.043-12.67.591.346Z" transform="translate(-235.99 -178.279)" fill="#ffb700"/>
        <path id="Path_6182" data-name="Path 6182" d="M236.581,172.077l-.591-.346L257,159.6l.595.343Z" transform="translate(-235.99 -159.6)" fill="#ffd438"/>
        <path id="Path_6183" data-name="Path 6183" d="M258.508,160.47l.043,12.667-21.018,12.135L237.49,172.6Z" transform="translate(-236.899 -160.127)" fill="#fbc70e"/>
      </g>
      <path id="Path_6184" data-name="Path 6184" d="M233.684,218.768,231.14,217.3V215.72l2.547,1.528Z" transform="translate(-231.085 -191.297)" fill="#ffb700"/>
    </g>
    <g id="Group_1888" data-name="Group 1888" transform="translate(0 30.833)">
      <path id="Path_6185" data-name="Path 6185" d="M245.743,203.993l.74-.433-.043,10.359-.74.429Z" transform="translate(-228.242 -193.472)" fill="#0f76c2"/>
      <path id="Path_6186" data-name="Path 6186" d="M201.47,178.369l.74-.429,17.458,10.087-.74.433Z" transform="translate(-201.427 -177.94)" fill="#37404a"/>
      <path id="Path_6187" data-name="Path 6187" d="M218.862,189.121l-.043,10.355L201.36,189.389l.043-10.359Z" transform="translate(-201.36 -178.601)" fill="#242a31"/>
    </g>
    <g id="Group_1889" data-name="Group 1889" transform="translate(17.065 26.932)">
      <path id="Path_6188" data-name="Path 6188" d="M245.4,198.049l-.7-.409L244.739,211l.7.406Z" transform="translate(-244.7 -185.981)" fill="#dae8fd"/>
      <path id="Path_6189" data-name="Path 6189" d="M265.611,168.439l-.7-.41L244.7,179.689l.7.409Z" transform="translate(-244.7 -168.03)" fill="#eff6fe"/>
      <path id="Path_6190" data-name="Path 6190" d="M246.48,180.729l.039,13.359,20.21-11.659-.039-13.359Z" transform="translate(-245.779 -168.661)" fill="#c6d5fa"/>
    </g>
    <g id="Group_1890" data-name="Group 1890" transform="translate(26.404 32.704)">
      <path id="Path_6191" data-name="Path 6191" d="M275.285,183.017l-2.555,1.477,3.122,1.5v-3.3Z" transform="translate(-271.033 -182.69)" fill="#d4e2fc"/>
      <path id="Path_6192" data-name="Path 6192" d="M268.42,188.246v3.3l4.819-2.784-3.122-1.5Z" transform="translate(-268.42 -185.467)" fill="#f1f1f1"/>
    </g>
    <path id="Path_6193" data-name="Path 6193" d="M272.672,183.52v2.7l-4.252,2.453v-2.7Z" transform="translate(-242.016 -150.49)" fill="#10191b"/>
  </g>
  <g id="Group_1897" data-name="Group 1897" transform="translate(80.936 15.924)">
    <g id="Group_1895" data-name="Group 1895" transform="translate(0 2.876)">
      <g id="Group_1892" data-name="Group 1892" transform="translate(1.492)">
        <path id="Path_6194" data-name="Path 6194" d="M211.188,57.036c.354-.819.685-1.9,1.15-3.252a3.6,3.6,0,0,0,.2-1.138,2.218,2.218,0,0,0-.3-1.071.61.61,0,0,0-.378-.366.583.583,0,0,0-.449.154,4.076,4.076,0,0,0-1.382,2.488c-.165.862-.453,1.7-.61,2.563a2.467,2.467,0,0,0-.071.508c.02.8.547,1.3,1.087,1.051a1.883,1.883,0,0,0,.752-.941Z" transform="translate(-209.349 -49.842)" fill="#fff"/>
        <path id="Path_6195" data-name="Path 6195" d="M219.605,111.381a24.259,24.259,0,0,0-1.677,2.02,4.075,4.075,0,0,0-.453.524,1.16,1.16,0,0,0-.142.721c.079.272.681.272.906.26a1.878,1.878,0,0,0,.87-.256,1.123,1.123,0,0,0,.512-.642,1.627,1.627,0,0,1,.394-.713c.2-.165.492-.232.6-.465a.723.723,0,0,0,.039-.39c-.028-.248-.126-.48-.154-.724a1.84,1.84,0,0,0-.079-.547.433.433,0,0,0-.413-.2.681.681,0,0,0-.433.228l.024.181Z" transform="translate(-214.179 -86.076)" fill="#242a31"/>
        <path id="Path_6196" data-name="Path 6196" d="M219.367,110.983a24.294,24.294,0,0,0-1.654,2,4.942,4.942,0,0,0-.421.61.9.9,0,0,0-.165.622c.075.268.669.268.894.256a1.874,1.874,0,0,0,.858-.252,1.105,1.105,0,0,0,.5-.638,1.648,1.648,0,0,1,.386-.7c.193-.165.484-.232.595-.461a.742.742,0,0,0,.039-.382c-.028-.244-.122-.476-.15-.717a1.771,1.771,0,0,0-.079-.539.424.424,0,0,0-.409-.2.648.648,0,0,0-.425.224l.024.181Z" transform="translate(-214.055 -85.839)" fill="#10191b"/>
        <path id="Path_6197" data-name="Path 6197" d="M213.718,108.525a24.927,24.927,0,0,0-2.02,1.677,4.124,4.124,0,0,0-.539.433,1.156,1.156,0,0,0-.272.685c.028.28.618.39.847.421a1.891,1.891,0,0,0,.9-.091,1.117,1.117,0,0,0,.622-.539,1.656,1.656,0,0,1,.516-.63c.224-.126.524-.138.677-.346a.728.728,0,0,0,.11-.374c.02-.248-.035-.5-.016-.74a1.852,1.852,0,0,0,.02-.551.437.437,0,0,0-.37-.276.646.646,0,0,0-.465.146l-.012.185Z" transform="translate(-210.281 -84.393)" fill="#242a31"/>
        <path id="Path_6198" data-name="Path 6198" d="M213.568,108.071a24.963,24.963,0,0,0-1.992,1.658,4.384,4.384,0,0,0-.524.524.9.9,0,0,0-.276.579c.028.276.61.386.831.417a1.892,1.892,0,0,0,.89-.091,1.116,1.116,0,0,0,.614-.532,1.621,1.621,0,0,1,.512-.622c.221-.126.52-.138.669-.343a.676.676,0,0,0,.106-.37c.02-.244-.035-.492-.016-.732a1.8,1.8,0,0,0,.02-.543.434.434,0,0,0-.366-.272.636.636,0,0,0-.461.146l-.012.181Z" transform="translate(-210.213 -84.12)" fill="#10191b"/>
        <path id="Path_6199" data-name="Path 6199" d="M212.827,77.106c.248,1.449.217,5.705,1.622,5.276a2.27,2.27,0,0,0,1.217-1.917c.02-.524-.035-1.264-.028-1.788.02-1.083.941-4.595-1.284-5.182-.335-.087-.87-.724-1.142-.48a1.747,1.747,0,0,0-.35.784,10.355,10.355,0,0,0-.134,1.1A8.407,8.407,0,0,0,212.827,77.106Z" transform="translate(-211.378 -63.033)" fill="#242a31"/>
        <path id="Path_6200" data-name="Path 6200" d="M215.3,98.842c.063.3.268.634,1.311.555.284-.024.413-.854.453-1.079a24.111,24.111,0,0,0-.016-3.063,9.945,9.945,0,0,0-.319-2.713,1.779,1.779,0,0,0-.177-.858c-.425-.579-1.429-.067-1.681.642a1.078,1.078,0,0,0,0,.721c.268,1.264.425,5.78.429,5.792Z" transform="translate(-212.662 -74.233)" fill="#242a31"/>
        <path id="Path_6201" data-name="Path 6201" d="M219.338,93.954c-.008.331.012.661.024.988.024.532.051,1.063.079,1.595a33.23,33.23,0,0,0,.366,5.13c.193.516.874.492,1.315.354a.943.943,0,0,0,.5-.335,1.319,1.319,0,0,0,.181-.559,14.928,14.928,0,0,0-.157-5.654,3.973,3.973,0,0,0-.465-1.276c-.087-.138-.642.756-.78.669s.2-.343.028-.335a1.311,1.311,0,0,0-.874.406l-.22-.988Z" transform="translate(-215.4 -75.759)" fill="#37404a"/>
        <path id="Path_6202" data-name="Path 6202" d="M219.68,74.5s-.126-.181-.13-.177a4.99,4.99,0,0,1-1.654.22c-1.232.122-1.335.339-2.134-.22a6.334,6.334,0,0,0,0,1.835c-.055.973.847,1.071.87,1.583.059,1.189.165,3.54.323,4.721a3.449,3.449,0,0,0,.374,1.331,1.38,1.38,0,0,0,1.307.681.658.658,0,0,0,.382-.142c.244-.213.5-.15.469-.472a11.579,11.579,0,0,1,.291-3.166,10.88,10.88,0,0,0-.11-6.193Z" transform="translate(-213.191 -63.858)" fill="#37404a"/>
        <path id="Path_6203" data-name="Path 6203" d="M225.849,69.72a9.3,9.3,0,0,0-.079.937C225.786,70.346,225.813,70.031,225.849,69.72Z" transform="translate(-219.305 -61.069)" fill="#f3a984"/>
        <path id="Path_6204" data-name="Path 6204" d="M225.752,72.09c-.008.189-.012.382-.012.571a.019.019,0,0,0,.012,0c0-.189,0-.378,0-.563Z" transform="translate(-219.286 -62.506)" fill="#f3a984"/>
        <path id="Path_6205" data-name="Path 6205" d="M217.953,59.275c.016-.311.043-.626.079-.937a11.884,11.884,0,0,1,.209-1.177c.158-.693.343-1.248.532-1.933.106-.382.335-.961.366-1.236.075-.63-.291-1.118-1.106-1.669a11.88,11.88,0,0,0-2.729-1.2c-1.508-.472-1.721.079-2.154,1.28a9.909,9.909,0,0,0-.106,4.158,17.134,17.134,0,0,1,.177,1.906,7.873,7.873,0,0,1-.134,1.61c1.319.933,3.118.7,4.626.331a1.056,1.056,0,0,0,.268-.083,8.591,8.591,0,0,1-.028-1.055Z" transform="translate(-211.488 -49.691)" fill="#f4f4f4"/>
        <path id="Path_6206" data-name="Path 6206" d="M221.874,57.915c-.3.843.15,1.681.15,2.524.039,1.1,0,2.2-.071,3.311.394-.059.78-.142,1.15-.228a1.056,1.056,0,0,0,.268-.083,8.57,8.57,0,0,1-.028-1.055c.016-.311.043-.626.079-.937a11.879,11.879,0,0,1,.209-1.177c.158-.693.343-1.248.532-1.933.106-.382.335-.961.366-1.236a1.274,1.274,0,0,0-.343-1.02c-.9.508-1.921.807-2.315,1.835Z" transform="translate(-216.881 -52.8)" fill="#d4e2fc"/>
        <path id="Path_6207" data-name="Path 6207" d="M217.466,61.974c-.165.138-.358.307-.52.445-.232-.366-.24-.4-.457-.764a25.232,25.232,0,0,1,.606-6.316c.2.142.3.217.508.358a23.579,23.579,0,0,0-.138,6.276Z" transform="translate(-213.678 -52.351)" fill="#37404a"/>
        <path id="Path_6208" data-name="Path 6208" d="M217.49,54.744v.031a.708.708,0,0,0,.059.2,2.3,2.3,0,0,0,.169.358.333.333,0,0,0,.15.154.272.272,0,0,0,.232-.032c.083-.047.228-.114.213-.213a2.211,2.211,0,0,0-.075-.264.938.938,0,0,0-.3-.5c-.181-.118-.307.059-.4.193a.285.285,0,0,0-.043.071Z" transform="translate(-214.285 -51.806)" fill="#283032"/>
        <path id="Path_6209" data-name="Path 6209" d="M219.862,49.8c.039,1.217-2.244,1.236-2.213.094.047-1.595.142-1.78.894-2.028a2.082,2.082,0,0,1,.638-.122c.8-.016.488.39.457.669-.087.835.209.949.22,1.386Z" transform="translate(-214.381 -47.749)" fill="#f5a783"/>
        <path id="Path_6210" data-name="Path 6210" d="M219.869,49.8c-.012-.437-.311-.555-.22-1.386.031-.28.339-.685-.457-.669a2.081,2.081,0,0,0-.638.122c-.74.244-.847.425-.894,1.961.63-.059,1.189-.76,1.835-.343a1.154,1.154,0,0,1,.366.476A.728.728,0,0,0,219.869,49.8Z" transform="translate(-214.388 -47.749)" fill="#ee9c76"/>
        <path id="Path_6211" data-name="Path 6211" d="M219.494,51.969c-.646-.413-1.2.283-1.835.343v.063c-.032,1.091,2.043,1.122,2.2.067a1.162,1.162,0,0,0-.366-.476Z" transform="translate(-214.387 -50.229)" fill="#f5a783"/>
        <path id="Path_6212" data-name="Path 6212" d="M217.2,52.509c-.039.13-.213.177-.327.252-.051.032-.138.1-.2.083s-.106-.1-.126-.157a3.4,3.4,0,0,1-.256-1.248.5.5,0,0,1,.126-.382.367.367,0,0,1,.374-.051c.126.055.154.3.11.413a.974.974,0,0,0,.3,1.087Z" transform="translate(-213.557 -49.705)" fill="#fff"/>
        <path id="Path_6213" data-name="Path 6213" d="M218.56,52.853a2.73,2.73,0,0,0,.441.528c.059.055.106.118.189.094a3.1,3.1,0,0,0,1.382-1.256.58.58,0,0,0-.146-.48,2.138,2.138,0,0,0-.165-.209,2.846,2.846,0,0,1-.24.543,2.082,2.082,0,0,1-1.461.784Z" transform="translate(-214.933 -50.041)" fill="#fff"/>
      </g>
      <g id="Group_1893" data-name="Group 1893" transform="translate(2.986 8.963)">
        <path id="Path_6214" data-name="Path 6214" d="M215.889,72.025a2.844,2.844,0,0,0-.579.012c-.118.024.209.169.138.268-.106.146-.315.248-.291.429a1.71,1.71,0,0,0,.095.425.662.662,0,0,0,.272.331.322.322,0,0,0,.161.047.579.579,0,0,0,.114-.02l.626-.165a.542.542,0,0,0,.134-.047.432.432,0,0,0,.142-.126.762.762,0,0,0,.11-.638.681.681,0,0,0-.146-.315c-.063-.067-.181-.071-.268-.094a3.826,3.826,0,0,0-.512-.11Z" transform="translate(-214.364 -71.424)" fill="#ffbfa2"/>
        <path id="Path_6215" data-name="Path 6215" d="M215.151,71.181c-.189-.142-.382-.283-.571-.421a1.02,1.02,0,0,0-.232-.142,1.946,1.946,0,0,0-.2-.051,1.47,1.47,0,0,0-.189-.047,1.031,1.031,0,0,0-.563.13.6.6,0,0,0-.2.126c-.035.035-.063.094-.031.138a.121.121,0,0,0,.059.039.447.447,0,0,0,.2.051c.083,0,.161-.051.244-.063a.429.429,0,0,1,.374.185c.091.114.146.252.224.374a.517.517,0,0,0,.335.256.668.668,0,0,0,.154,0,.853.853,0,0,0,.339-.106.44.44,0,0,0,.189-.232c.035-.11-.043-.165-.126-.228Z" transform="translate(-213.145 -70.513)" fill="#ffbfa2"/>
      </g>
      <path id="Path_6216" data-name="Path 6216" d="M217.9,71.95a1.115,1.115,0,0,0,.87.13c.85-.114,4.331-.394,3.815-1.866-.079-.224-.457-.3-.709-.339a12.7,12.7,0,0,0-3.835.945.835.835,0,0,0-.366.3.849.849,0,0,0,.221.827Z" transform="translate(-212.881 -61.161)" fill="#fff"/>
      <path id="Path_6217" data-name="Path 6217" d="M208.588,63.031l-3.028-1.752.146-.1,3.028,1.752Z" transform="translate(-205.56 -55.892)" fill="#37404a"/>
      <path id="Path_6218" data-name="Path 6218" d="M213.4,65.63l1.276,3.906-.244-.165-1.177-3.642Z" transform="translate(-210.222 -58.59)" fill="#242a31"/>
      <path id="Path_6219" data-name="Path 6219" d="M209.864,67.088l-3.024-1.756-1.28-3.9,3.028,1.752Z" transform="translate(-205.56 -56.043)" fill="#10191b"/>
      <path id="Path_6220" data-name="Path 6220" d="M213.979,73.229c.126-.075.035-.461-.016-.524-.122-.15-.1.094-.547.087a1.032,1.032,0,0,1-.382-.051c-.087-.035-.189-.091-.268-.039a.151.151,0,0,0-.043.193c-.122-.055-.142.169-.055.276.169.2-.13.236.224.512l-.067.043c.039.386.984.264,1.37.193.681-.126.094-.65-.213-.693Z" transform="translate(-209.837 -62.849)" fill="#ffbfa2"/>
      <g id="Group_1894" data-name="Group 1894" transform="translate(0.33 6.67)">
        <path id="Path_6221" data-name="Path 6221" d="M207.613,67.446c-.213.1-.323-.15-.232-.236s.425-.122.5.055C207.94,67.411,207.751,67.379,207.613,67.446Z" transform="translate(-206.975 -66.174)" fill="#ffbfa2"/>
        <path id="Path_6222" data-name="Path 6222" d="M206.462,64.768c-.13.091-.031.335.035.339a.311.311,0,0,0,.114-.043.486.486,0,0,1,.272-.028.4.4,0,0,0,.114.016.087.087,0,0,0,.087-.063c.059-.165-.2-.26-.276-.28a.351.351,0,0,0-.35.059Z" transform="translate(-206.398 -64.689)" fill="#ffbfa2"/>
        <path id="Path_6223" data-name="Path 6223" d="M206.653,65.9c.1.1.138-.087.429-.039a.389.389,0,0,0,.114.012.1.1,0,0,0,.087-.067c.059-.165-.2-.256-.28-.276-.358-.091-.539.185-.35.366Z" transform="translate(-206.507 -65.19)" fill="#ffbfa2"/>
        <path id="Path_6224" data-name="Path 6224" d="M206.947,66.726c.118.047.134-.008.354-.032.343-.039.217-.35-.189-.287a.87.87,0,0,0-.165.031A.158.158,0,0,0,206.947,66.726Z" transform="translate(-206.674 -65.725)" fill="#ffbfa2"/>
      </g>
    </g>
    <path id="Path_6225" data-name="Path 6225" d="M227.037,61.314c.024-.894-.067-2.024-.134-3.445a3.706,3.706,0,0,0-.232-1.13,2.2,2.2,0,0,0-.673-.886.621.621,0,0,0-.484-.2.588.588,0,0,0-.362.311,4.079,4.079,0,0,0-.366,2.823c.165.862.209,1.744.378,2.607a2.725,2.725,0,0,0,.122.5c.315.74.984,1,1.4.579a1.9,1.9,0,0,0,.35-1.154Z" transform="translate(-217.158 -49.661)" fill="#fff"/>
    <g id="Group_1896" data-name="Group 1896" transform="translate(3.661)">
      <path id="Path_6226" data-name="Path 6226" d="M215.248,41.89a1.57,1.57,0,0,0-.248.854,1.216,1.216,0,0,0,.067.394,1.087,1.087,0,0,1,.118.362,1.544,1.544,0,0,1-.158.465.59.59,0,0,0-.02.4,1.071,1.071,0,0,0,.126.2c.2.315.012.784.362,1.012a.632.632,0,0,0,.3.075,4.056,4.056,0,0,0,.941-.256,2.293,2.293,0,0,0,.677-.6,2.994,2.994,0,0,0,.469-.559c.028-.059-.039-.071.02-.1.035-.02.083-.252.122-.256a.428.428,0,0,0,.154-.087c.079-.051.118.138.142.047a3.839,3.839,0,0,0,.232-1.185,1.591,1.591,0,0,0-.248-1.008,1.625,1.625,0,0,0-.717-.516,2.014,2.014,0,0,0-1.343-.024,1.92,1.92,0,0,0-1,.784Z" transform="translate(-214.932 -40.785)" fill="#ffbfa2"/>
      <path id="Path_6227" data-name="Path 6227" d="M220.226,42.647a1.591,1.591,0,0,0-.248-1.008,1.625,1.625,0,0,0-.717-.516,1.981,1.981,0,0,0-.8-.126c-.406.811.181,1.854-.26,2.7-.15.2-.445.346-.445.595-.1.445.343.839.1,1.284a4.615,4.615,0,0,0,.555-.181,2.292,2.292,0,0,0,.677-.6,2.994,2.994,0,0,0,.469-.559c.028-.059-.039-.071.02-.1.035-.02.083-.252.122-.256a.428.428,0,0,0,.154-.087c.079-.051.114.138.142.047a3.839,3.839,0,0,0,.232-1.185Z" transform="translate(-216.607 -40.778)" fill="#f8b495"/>
      <path id="Path_6228" data-name="Path 6228" d="M216.588,41.891a.577.577,0,0,1,.307.028.551.551,0,0,1,.287.429,6.881,6.881,0,0,1-.087,1.169.311.311,0,0,0,.031.169c.079.138.224.063.307-.024.055-.055.094-.122.146-.181a.331.331,0,0,1,.189-.122.2.2,0,0,1,.232.185.718.718,0,0,1-.028.3c-.008.024-.059.2.016.2a2.361,2.361,0,0,0,.752-1.8c.028-1.087-.724-1.288-.724-1.288a1.3,1.3,0,0,0-1.209-.52,2.763,2.763,0,0,0-1.3.413.327.327,0,0,0-.047.031,1.593,1.593,0,0,0-.488.457c-.335.52.118.933.661.847a4.481,4.481,0,0,0,.736-.244,1.478,1.478,0,0,1,.217-.059Z" transform="translate(-214.859 -40.444)" fill="#c99c83"/>
    </g>
    <path id="Path_6229" data-name="Path 6229" d="M219.25,42.7a.577.577,0,0,1,.307.028.551.551,0,0,1,.287.429,6.88,6.88,0,0,1-.087,1.169.311.311,0,0,0,.032.169c.079.138.224.063.307-.024.055-.055.094-.122.146-.181a.331.331,0,0,1,.189-.122.2.2,0,0,1,.232.185.718.718,0,0,1-.028.3c-.008.024-.059.2.016.2a2.361,2.361,0,0,0,.752-1.8c.028-1.087-.724-1.288-.724-1.288a5.022,5.022,0,0,0-.76.366,4.605,4.605,0,0,0-.665.559Z" transform="translate(-213.86 -41.248)" fill="#b98c74"/>
    <path id="Path_6230" data-name="Path 6230" d="M221.466,47.1c.323-.02.406.378.181.689a1.565,1.565,0,0,1-.264.244c-.579.492-.724-.039-.539-.209.425-.39.213-.7.618-.724Z" transform="translate(-214.78 -44.478)" fill="#f8b495"/>
    <path id="Path_6231" data-name="Path 6231" d="M221.8,48.408c.035-.035.406-.252.154-.4a.112.112,0,0,0-.158.094,1.1,1.1,0,0,1,0,.114.124.124,0,0,1-.024.063c-.032.055-.146.106-.122.181S221.781,48.428,221.8,48.408Z" transform="translate(-215.316 -45.024)" fill="#f3a984"/>
  </g>
  <g id="Group_1898" data-name="Group 1898" transform="translate(30.575 49.924)">
    <path id="Path_6232" data-name="Path 6232" d="M105.5,129.565c6.4,3.693,6.434,9.686.075,13.379s-16.7,3.693-23.1,0-6.434-9.686-.075-13.379,16.7-3.693,23.1,0Z" transform="translate(-77.655 -126.795)" fill="#e6f1fe"/>
    <path id="Path_6233" data-name="Path 6233" d="M107.209,134.506c5.6,2.835,5.623,7.434.063,10.269s-14.6,2.835-20.195,0-5.626-7.434-.067-10.269,14.6-2.835,20.195,0Z" transform="translate(-80.811 -130.181)" fill="#dae8fd"/>
    <path id="Path_6234" data-name="Path 6234" d="M107.212,133.531a23.827,23.827,0,0,0-21.447,0c-2.5,1.449-3.929,3.359-3.926,5.237,0,.091,0,.181.012.276.13,1.807,1.571,3.622,3.985,5.016a23.843,23.843,0,0,0,21.447,0c2.378-1.378,3.788-3.174,3.918-4.965a2.151,2.151,0,0,0,.012-.276c0-1.894-1.461-3.823-4-5.284Z" transform="translate(-80.192 -129.332)" fill="#cddcfb"/>
    <path id="Path_6235" data-name="Path 6235" d="M107.231,134.927a23.843,23.843,0,0,0-21.447,0c-2.378,1.378-3.788,3.177-3.914,4.961.13,1.807,1.571,3.622,3.985,5.016a23.844,23.844,0,0,0,21.447,0c2.378-1.378,3.788-3.174,3.918-4.965-.134-1.807-1.571-3.618-3.985-5.012Zm-.567,9.434a22.566,22.566,0,0,1-20.175,0c-2.134-1.232-3.359-2.76-3.363-4.193a2.1,2.1,0,0,1,.016-.272,2.156,2.156,0,0,1-.016-.276c0-1.414,1.2-2.925,3.3-4.142a22.566,22.566,0,0,1,20.175,0c2.134,1.232,3.359,2.76,3.363,4.189a2.1,2.1,0,0,1-.016.272,2.217,2.217,0,0,1,.016.28c0,1.414-1.2,2.922-3.3,4.142Z" transform="translate(-80.21 -130.181)" fill="#15d9fd"/>
  </g>
  <g id="Group_1916" data-name="Group 1916" transform="translate(47.963 46.592)">
    <path id="Path_6236" data-name="Path 6236" d="M122.423,120.965a13.443,13.443,0,0,0-.028,1.736,9.77,9.77,0,0,1-.209,1.882,16.188,16.188,0,0,0-.35,1.662,2.482,2.482,0,0,0,.311,1.638.893.893,0,0,0,.3.3.84.84,0,0,0,.563.067,1.818,1.818,0,0,0,1.291-1.13,3.52,3.52,0,0,0,.161-1.764c-.071-.591-.22-1.173-.3-1.764a10.539,10.539,0,0,1,.024-2.114c.016-.228-.016-.374.154-.551a1.281,1.281,0,0,1,.709-.362,3.345,3.345,0,0,0,.721-.1.744.744,0,0,0,.445-.8,1.234,1.234,0,0,0-.346-.6,2.074,2.074,0,0,0-1.319-.736,1.722,1.722,0,0,0-1.374.642,3.327,3.327,0,0,0-.654,1.414c-.043.189-.083.378-.11.571Z" transform="translate(-121.814 -118.332)" fill="#242a31"/>
    <path id="Path_6237" data-name="Path 6237" d="M138.326,162.309c.394.323.732,2.311-.858,2.268a4.787,4.787,0,0,1-2.248-1.028c-.406-.256-.2-.7-.622-.913-1.941-1-4.43-1.536-4.071-3.882.039-.264.11-1.374.311-1.5.146-.091.969.2,1.154.228,1.776.3,2.008.3,2.3.5.047,1.335.264,1.567.992,2,.339.2,2.744,2.075,3.04,2.319Z" transform="translate(-127.075 -141.918)" fill="#ffbfa2"/>
    <g id="Group_1899" data-name="Group 1899" transform="translate(10.94 18.021)">
      <path id="Path_6238" data-name="Path 6238" d="M151.52,188.523V187.07h.4l-.1,1.469a.207.207,0,0,1-.3-.012Z" transform="translate(-150.764 -178.026)" fill="#283032"/>
      <path id="Path_6239" data-name="Path 6239" d="M154.179,187.227a9.931,9.931,0,0,1,.622.886.363.363,0,0,1,.075.24.3.3,0,0,1-.15.2.67.67,0,0,1-.252.075,2.584,2.584,0,0,1-1.028-.055,1.085,1.085,0,0,1-.5-.256,1.606,1.606,0,0,1-.323-.732.99.99,0,0,0-.425-.661c-.067-.035-.138-.055-.2-.087a.919.919,0,0,1-.319-1.323c.15-.236.35-.22.583-.122a2.223,2.223,0,0,1,.65.563.947.947,0,0,0,.095.083c.224.181-.1-.827.032-.555a9.269,9.269,0,0,0,1.146,1.732Z" transform="translate(-150.765 -176.97)" fill="#283032"/>
      <path id="Path_6240" data-name="Path 6240" d="M151.585,164.309a1.006,1.006,0,0,1,.315.618,18.4,18.4,0,0,1,.071,2.8c-.016.831-.181,1.654-.181,2.484a17.73,17.73,0,0,0,.181,2.5c.063.272-.441.465-.693.339-.173-.087-.516-.3-.535-.5a23.234,23.234,0,0,0-.957-3.142,6.488,6.488,0,0,1-.071-2.752,4.481,4.481,0,0,1,.724-2.264.786.786,0,0,1,1.146-.087Z" transform="translate(-149.6 -164.101)" fill="#ee9c76"/>
      <path id="Path_6241" data-name="Path 6241" d="M153.42,184.208a3.164,3.164,0,0,0,.11.543,2.463,2.463,0,0,0,.063.244,1.469,1.469,0,0,0,.126.248,5.064,5.064,0,0,0,.28.433,3.21,3.21,0,0,1,.3.394c.051.1.114.311-.008.39a.314.314,0,0,1-.232.024,1.247,1.247,0,0,1-.6-.382,4.154,4.154,0,0,0-.524-.5c-.13-.091-.276-.154-.406-.244a.907.907,0,0,1-.437-.784c.016-.169.122-.311.134-.476a1,1,0,0,1,.091-.492l1.118.595Z" transform="translate(-151.105 -175.929)" fill="#ee9c76"/>
    </g>
    <g id="Group_1900" data-name="Group 1900" transform="translate(8.511 18.016)">
      <path id="Path_6242" data-name="Path 6242" d="M150.684,189.979c.008.047.012.095.016.142a.564.564,0,0,1-.169.429.529.529,0,0,1-.358.114,1.388,1.388,0,0,1-1.043-.744,6.561,6.561,0,0,0-.724-1.378c-.087-.083-.185-.154-.264-.244a.891.891,0,0,1-.2-.524.747.747,0,0,1,.1-.469.629.629,0,0,1,.807-.15c.2.094.48.039.626.209a1.974,1.974,0,0,1,.264.441,12.3,12.3,0,0,1,.862,1.847,1.889,1.889,0,0,1,.095.323Z" transform="translate(-146.159 -178.025)" fill="#3a4648"/>
      <path id="Path_6243" data-name="Path 6243" d="M145.8,164.094c.307,2.075.154,4.642.441,6.717a31.44,31.44,0,0,0,.784,3.41c.11.287-.665.453-.957.354-.2-.067-.555-.85-.606-1.055a25.031,25.031,0,0,0-1.52-3.268,7.986,7.986,0,0,1-.4-4.087.8.8,0,0,1,.374-.622l1.878-1.453Z" transform="translate(-143.43 -164.09)" fill="#f8b495"/>
      <path id="Path_6244" data-name="Path 6244" d="M149.554,186.544c.063.134.26.114.3.256.047.158.181.551.248.7a2.2,2.2,0,0,1,.189.63.4.4,0,0,1-.177.406.393.393,0,0,1-.5,0,2.112,2.112,0,0,1-.453-.465,2.888,2.888,0,0,1-.327-.492,3.992,3.992,0,0,1-.4-1.11,2.624,2.624,0,0,1,.016-.539,1.577,1.577,0,0,1,.217.106c.276.15.551.3.831.445.106.055.012-.059.063.055Z" transform="translate(-146.459 -177.331)" fill="#f8b495"/>
    </g>
    <g id="Group_1902" data-name="Group 1902" transform="translate(1.058 0.935)">
      <g id="Group_1901" data-name="Group 1901" transform="translate(0.496 5.073)">
        <path id="Path_6245" data-name="Path 6245" d="M137.995,139.835c-.378-.878-.732-2.04-1.228-3.481a4,4,0,0,1-.217-1.217,2.342,2.342,0,0,1,.323-1.146.668.668,0,0,1,.406-.394.633.633,0,0,1,.48.165,3.542,3.542,0,0,1,1.165,2.473,30.471,30.471,0,0,1,.228,3.067c.016.177.228,1.8-.35,1.54a2.016,2.016,0,0,1-.8-1.008Z" transform="translate(-132.301 -133.591)" fill="#1499fc"/>
        <path id="Path_6246" data-name="Path 6246" d="M139.8,145.882c.2-.154.437-1.028.563-.835.087.134,1.059,1.662,1.465,2.225a10.286,10.286,0,0,0-1.465,1.272,4.3,4.3,0,0,1-1.146-2.055c0-.26.319-.394.583-.6Z" transform="translate(-133.92 -140.52)" fill="#1499fc"/>
        <path id="Path_6247" data-name="Path 6247" d="M125.76,151.74c.047.354.079.717.094,1.075Q125.831,152.277,125.76,151.74Z" transform="translate(-125.76 -144.594)" fill="#f3a984"/>
        <path id="Path_6248" data-name="Path 6248" d="M125.99,154.464c.012.217.016.437.016.654,0,0-.008,0-.012-.008.008-.217,0-.433,0-.65Z" transform="translate(-125.899 -146.243)" fill="#f3a984"/>
        <path id="Path_6249" data-name="Path 6249" d="M137.62,161.224a9.4,9.4,0,0,1-1.047.622,4.52,4.52,0,0,1-2.225.579c-.614-.059-1.075-.721-1.634-.945a11.9,11.9,0,0,1-3.622-1.752c-1.1-.874-1.193-2.225-1.008-3.563.039-.287.067-.579.122-.862.031-.154.063-.461.213-.555.177-.11,1.165.24,1.386.276,2.138.354,2.929-.437,3.284-.2.917.622,1.866,1.189,2.827,1.744.748.429,1.465.886,2.193,1.347a2.408,2.408,0,0,1,.807,1.024,1.438,1.438,0,0,1,.028,1.232,1.715,1.715,0,0,1-.441.417C138.21,160.807,137.919,161.019,137.62,161.224Z" transform="translate(-127.123 -146.404)" fill="#021b74"/>
      </g>
      <path id="Path_6250" data-name="Path 6250" d="M128.77,133.76a8.118,8.118,0,0,1,1.559-.484c.083-.02.169-.039.252-.055a3.141,3.141,0,0,1,1.894.154c.008,0,.012.008.02.008v3.89H128.77Z" transform="translate(-127.089 -128.246)" fill="#f3a984"/>
      <path id="Path_6251" data-name="Path 6251" d="M124.51,135.385c.079-.894,1.095-1.386,1.839-1.839a1.868,1.868,0,0,0,1.173,1.658.969.969,0,0,0,1.13-.339,2.515,2.515,0,0,0,.28-1.835,3.769,3.769,0,0,1,.965.272,1.8,1.8,0,0,1,.724.606,2.12,2.12,0,0,1,.169.724,4.9,4.9,0,0,0,.268.823c.134.327.358.622.476.953a2.076,2.076,0,0,1-.059,1.138,3.449,3.449,0,0,1-.224.492c-.13.252-.248.508-.358.768a2.631,2.631,0,0,0-.224.74,2.469,2.469,0,0,0,.035.681c.095.618.535,1.437-.012,1.961a3.681,3.681,0,0,1-1.173.748,3.24,3.24,0,0,1-3.221-.441c-.079-.059-.122-.091-.138-.173a1.421,1.421,0,0,1,0-.224,6.733,6.733,0,0,1,.039-.689,6.533,6.533,0,0,0-.051-1.441c-.24-1.437-1.185-2.662-1.579-4.067a1.554,1.554,0,0,1-.055-.524Z" transform="translate(-124.506 -128.178)" fill="#13b7fd"/>
      <path id="Path_6252" data-name="Path 6252" d="M124.788,137.228c1.1.228.937,2.264,1.516,3.154.429.7,1.339.535,2.087.587a1.416,1.416,0,0,0-.8,1.228,13.713,13.713,0,0,0,.26,3.457,3.177,3.177,0,0,1-1.559-.618c-.079-.059-.122-.091-.138-.173a1.425,1.425,0,0,1,0-.224,6.741,6.741,0,0,1,.039-.689,6.536,6.536,0,0,0-.051-1.441c-.24-1.437-1.185-2.662-1.579-4.067a1.554,1.554,0,0,1-.055-.524,1.349,1.349,0,0,1,.283-.7Z" transform="translate(-124.501 -130.718)" fill="#1499fc"/>
      <path id="Path_6253" data-name="Path 6253" d="M134,135.625c.047.15.673.26.748.244s.118-.114.146-.177a3.922,3.922,0,0,0,.3-1.421.557.557,0,0,0-.146-.433.416.416,0,0,0-.425-.059c-.142.063-.091.071-.039.2a1.955,1.955,0,0,1-.579,1.646Z" transform="translate(-130.26 -128.612)" fill="#1499fc"/>
      <path id="Path_6254" data-name="Path 6254" d="M129.609,131.431c-.039,1.37,2.351,1.394,2.315.106-.047-1.8-.15-2-.937-2.28a2.181,2.181,0,0,0-.669-.138c-.831-.016-.508.437-.476.752.095.937-.217,1.067-.232,1.563Z" transform="translate(-127.597 -125.807)" fill="#f3a984"/>
      <path id="Path_6255" data-name="Path 6255" d="M131.21,129.247a2.181,2.181,0,0,0-.669-.138c-.831-.016-.508.437-.476.752a2.87,2.87,0,0,1,0,.614,3.453,3.453,0,0,0,2.055,1.311,1.068,1.068,0,0,0,.031-.26c-.047-1.8-.15-2-.937-2.28Z" transform="translate(-127.821 -125.801)" fill="#ee9c76"/>
      <path id="Path_6256" data-name="Path 6256" d="M130.262,126.066c-.071-.059-.138-.118-.2-.177a3.541,3.541,0,0,1-.646-.728,2.312,2.312,0,0,1,.193-2.776,2.1,2.1,0,0,1,2.047-.551,3.105,3.105,0,0,1,.555.228,1.525,1.525,0,0,1,.425.3,1.287,1.287,0,0,1,.193.283,1.65,1.65,0,0,1,.15.354c.138.559-.232,1.134-.02,1.685.047.122.118.232.157.354a.443.443,0,0,1-.012.374c-.063.1-.146.157-.185.272-.051.157-.087.323-.13.48a2.276,2.276,0,0,1-.185.5c-.213.382-.524.409-.91.256a5.127,5.127,0,0,1-1.425-.85Z" transform="translate(-127.254 -121.344)" fill="#ffbfa2"/>
      <path id="Path_6257" data-name="Path 6257" d="M127.77,122.8a1.7,1.7,0,0,1,.772-1.622,2.2,2.2,0,0,1,1.465-.472,3.058,3.058,0,0,1,1.5.48l.055.035a1.5,1.5,0,0,1,.563.579,1.637,1.637,0,0,1,.142.425c.047.28-.2.394-.437.472a3.125,3.125,0,0,1-1.126-.075,1.248,1.248,0,0,0-.469.008.44.44,0,0,0-.331.3,1.152,1.152,0,0,0,.087.48.828.828,0,0,1-.354.839.38.38,0,0,1-.437.035c-.154-.071-.307-.189-.476-.083-.154.094-.1.3-.059.445.008.028.165.256.079.256a2.469,2.469,0,0,1-.965-2.1Z" transform="translate(-126.483 -120.707)" fill="#37404a"/>
      <path id="Path_6258" data-name="Path 6258" d="M129.913,124.317a1.152,1.152,0,0,0,.087.48.828.828,0,0,1-.354.839.38.38,0,0,1-.437.035c-.154-.071-.307-.189-.476-.083-.154.095-.043.28-.008.425.008.028.11.276.028.276a2.469,2.469,0,0,1-.965-2.1,1.974,1.974,0,0,1,.319-1.2,4.969,4.969,0,0,1,.941.508,6.21,6.21,0,0,1,.87.823Z" transform="translate(-126.492 -122.091)" fill="#242a31"/>
      <path id="Path_6259" data-name="Path 6259" d="M129.865,128.549c-.37-.024-.465.437-.213.791a1.863,1.863,0,0,0,.3.28c.665.567.835-.047.622-.24C130.086,128.931,130.33,128.58,129.865,128.549Z" transform="translate(-127.539 -125.461)" fill="#ffbfa2"/>
    </g>
    <g id="Group_1904" data-name="Group 1904" transform="translate(4.172 15.217)">
      <path id="Path_6260" data-name="Path 6260" d="M149.023,162.85v.559l-6.453,3.748,0-.559Z" transform="translate(-138.57 -160.539)" fill="#37404a"/>
      <path id="Path_6261" data-name="Path 6261" d="M136.414,168.811l0,.559-4-2.311V166.5Z" transform="translate(-132.41 -162.752)" fill="#30383a"/>
      <g id="Group_1903" data-name="Group 1903">
        <path id="Path_6262" data-name="Path 6262" d="M142.864,159.291l-6.449,3.748-4-2.311,6.453-3.748Z" transform="translate(-132.41 -156.98)" fill="#37404a"/>
        <path id="Path_6263" data-name="Path 6263" d="M142,161.091l-1.752,1.012-.957-.551,1.752-1.012Z" transform="translate(-136.581 -159.138)" fill="#0d1315"/>
        <path id="Path_6264" data-name="Path 6264" d="M136.87,162.805l5.894-3.425,2.1,1.221-5.89,3.422Z" transform="translate(-135.114 -158.435)" fill="#0d1315"/>
      </g>
    </g>
    <path id="Path_6265" data-name="Path 6265" d="M123.114,143.6c-.185-.957-.287-2.189-.465-3.737a4.1,4.1,0,0,1,.051-1.26,2.366,2.366,0,0,1,.571-1.071.679.679,0,0,1,.488-.3.627.627,0,0,1,.441.272,4.432,4.432,0,0,1,.89,2.977c-.024.957.087,1.914.051,2.874a2.973,2.973,0,0,1-.043.559c-.209.854-.886,1.256-1.406.87A2.032,2.032,0,0,1,123.114,143.6Z" transform="translate(-122.305 -129.789)" fill="#15d9fd"/>
    <g id="Group_1908" data-name="Group 1908" transform="translate(0.942 12.756)">
      <g id="Group_1906" data-name="Group 1906" transform="translate(8.754 2.023)">
        <g id="Group_1905" data-name="Group 1905">
          <path id="Path_6266" data-name="Path 6266" d="M146.708,157.164a2.718,2.718,0,0,0,.323.465c.083.083.024-.264.142-.26.177.008.374.122.508,0a1.82,1.82,0,0,0,.3-.307.622.622,0,0,0,.122-.4.325.325,0,0,0-.051-.158.52.52,0,0,0-.079-.083c-.157-.142-.319-.28-.476-.421a.538.538,0,0,0-.11-.083.413.413,0,0,0-.181-.047.743.743,0,0,0-.579.256.732.732,0,0,0-.177.287c-.02.087.043.185.071.268a4.132,4.132,0,0,0,.189.476Z" transform="translate(-146.44 -155.868)" fill="#f8b495"/>
          <path id="Path_6267" data-name="Path 6267" d="M146.53,157.719l-.035.7a1.011,1.011,0,0,0,.012.268,1.974,1.974,0,0,0,.071.2,1.652,1.652,0,0,0,.063.181,1,1,0,0,0,.413.386.7.7,0,0,0,.213.1c.047.008.11,0,.13-.047a.144.144,0,0,0,0-.071.471.471,0,0,0-.067-.193c-.051-.067-.13-.1-.185-.165a.422.422,0,0,1-.051-.406c.043-.134.126-.256.181-.386a.507.507,0,0,0,.024-.413.457.457,0,0,0-.087-.122.848.848,0,0,0-.272-.217.439.439,0,0,0-.291-.028c-.106.032-.11.126-.114.228Z" transform="translate(-146.472 -156.848)" fill="#f8b495"/>
        </g>
        <path id="Path_6268" data-name="Path 6268" d="M148.662,157.718c-.13-.059-.394.224-.417.3-.055.181.13.031.37.4a1.241,1.241,0,0,1,.169.339c.02.091.031.2.114.24a.153.153,0,0,0,.181-.071c.02.13.213.024.252-.106.075-.252.264-.024.3-.461.024.012.047.02.071.032.3-.24-.319-.945-.587-1.221-.472-.484-.579.276-.449.551Z" transform="translate(-147.529 -156.56)" fill="#f8b495"/>
      </g>
      <path id="Path_6269" data-name="Path 6269" d="M142.12,152a10.507,10.507,0,0,1,1.465-1.272,12.237,12.237,0,0,1,1.181,1.977c.24.532-.787,1.032-1.036.756A15.767,15.767,0,0,1,142.12,152Z" transform="translate(-135.067 -150.73)" fill="#1499fc"/>
      <g id="Group_1907" data-name="Group 1907" transform="translate(4.474 4.993)">
        <path id="Path_6270" data-name="Path 6270" d="M137.023,163.73a3.148,3.148,0,0,1,.508.378c.091.095-.3.02-.3.15,0,.2.118.417-.016.563a1.681,1.681,0,0,1-.354.315.718.718,0,0,1-.453.122.379.379,0,0,1-.173-.059.472.472,0,0,1-.087-.091c-.15-.181-.3-.362-.449-.547a.733.733,0,0,1-.091-.126.451.451,0,0,1-.043-.2.829.829,0,0,1,.307-.634.775.775,0,0,1,.327-.185c.1-.02.2.055.3.087A4.387,4.387,0,0,1,137.023,163.73Z" transform="translate(-135.57 -163.412)" fill="#ffbfa2"/>
        <path id="Path_6271" data-name="Path 6271" d="M137.632,163.572c.26,0,.516-.008.776-.012a1.231,1.231,0,0,1,.3.024c.075.02.142.059.217.087s.134.043.2.075a1.124,1.124,0,0,1,.413.472.675.675,0,0,1,.1.24.128.128,0,0,1-.059.142.263.263,0,0,1-.079,0,.522.522,0,0,1-.213-.083c-.071-.059-.11-.15-.177-.213a.466.466,0,0,0-.449-.075,4.724,4.724,0,0,0-.437.189.555.555,0,0,1-.461.012.576.576,0,0,1-.134-.1.949.949,0,0,1-.232-.311.468.468,0,0,1-.02-.327c.039-.118.142-.118.256-.118Z" transform="translate(-136.647 -163.502)" fill="#ffbfa2"/>
      </g>
      <path id="Path_6272" data-name="Path 6272" d="M128.854,157.68a1.221,1.221,0,0,1-.9-.331c-.6-.445-3.54-2.886-3.74-4.02-.051-.287.276-.437.528-.669a1.767,1.767,0,0,1,1.374.244,47.176,47.176,0,0,1,3.189,3.622.9.9,0,0,1,.193.476c0,.276-.394.626-.646.677Z" transform="translate(-124.206 -151.861)" fill="#15d9fd"/>
      <path id="Path_6273" data-name="Path 6273" d="M137.56,165.939c-.063-.146.264-.429.35-.453.2-.055.028.146.425.425a1.17,1.17,0,0,0,.37.2c.1.028.224.043.264.138a.17.17,0,0,1-.083.2c.142.028.02.24-.126.276-.283.075-.035.3-.524.311.012.028.02.055.031.083-.28.319-1.039-.394-1.335-.7-.524-.543.331-.634.63-.48Z" transform="translate(-131.822 -159.67)" fill="#ffbfa2"/>
    </g>
    <g id="Group_1915" data-name="Group 1915" transform="translate(7.692 13.657)">
      <g id="Group_1911" data-name="Group 1911" transform="translate(7.733)">
        <path id="Path_6274" data-name="Path 6274" d="M161.12,153.031l.484.28a.132.132,0,0,0-.13.012l-.484-.28A.132.132,0,0,1,161.12,153.031Z" transform="translate(-160.99 -153.019)" fill="#3a4648"/>
        <g id="Group_1910" data-name="Group 1910" clip-path="url(#clip-path-12)">
          <g id="Group_1909" data-name="Group 1909" transform="translate(0 0.003)">
            <path id="Path_6275" data-name="Path 6275" d="M161.474,153.333l-.484-.28a.443.443,0,0,1,.055-.024l.484.28A.356.356,0,0,0,161.474,153.333Z" transform="translate(-160.99 -153.028)" fill="#3a4648"/>
            <path id="Path_6276" data-name="Path 6276" d="M161.614,153.307l-.484-.28a.136.136,0,0,1,.071.008l.484.28A.105.105,0,0,0,161.614,153.307Z" transform="translate(-161.075 -153.026)" fill="#3a4648"/>
            <path id="Path_6277" data-name="Path 6277" d="M161.8,153.333l-.484-.283Z" transform="translate(-161.19 -153.041)" fill="#3a4648"/>
          </g>
        </g>
      </g>
      <path id="Path_6279" data-name="Path 6279" d="M146.014,156.905l-.484-.28,6.087-3.536.484.28Z" transform="translate(-143.884 -153.062)" fill="#3a4648"/>
      <g id="Group_1914" data-name="Group 1914" transform="translate(1.461 3.564)">
        <path id="Path_6280" data-name="Path 6280" d="M145.544,162.668l-.484-.28a.406.406,0,0,1,.185-.319l.484.28A.406.406,0,0,0,145.544,162.668Z" transform="translate(-145.06 -162.07)" fill="#3a4648"/>
        <g id="Group_1913" data-name="Group 1913" clip-path="url(#clip-path-13)">
          <g id="Group_1912" data-name="Group 1912" transform="translate(0.031)">
            <path id="Path_6281" data-name="Path 6281" d="M145.784,162.428l-.484-.28a.419.419,0,0,1,.091-.079l.484.28A.419.419,0,0,0,145.784,162.428Z" transform="translate(-145.237 -162.07)" fill="#353f41"/>
            <path id="Path_6282" data-name="Path 6282" d="M145.624,162.652l-.484-.28a.4.4,0,0,1,.063-.1l.484.28A.448.448,0,0,0,145.624,162.652Z" transform="translate(-145.14 -162.191)" fill="#353f41"/>
          </g>
        </g>
      </g>
      <path id="Path_6284" data-name="Path 6284" d="M150.313,153.761c.1-.059.185-.012.185.106l-1.465,3.457-6.453,3.748,1.441-3.465a.5.5,0,0,1,.209-.311l6.087-3.536Z" transform="translate(-142.096 -153.453)" fill="#37404a"/>
      <path id="Path_6285" data-name="Path 6285" d="M141.83,166.4l-.48-.28,1.5-3.595.48.28Z" transform="translate(-141.35 -158.785)" fill="#30383a"/>
    </g>
    <path id="Path_6286" data-name="Path 6286" d="M130.662,135.8a3.45,3.45,0,0,1-.665.587c-.079.047-.15.11-.232.063a3.544,3.544,0,0,1-1.264-1.717.7.7,0,0,1,.193-.563c.024-.02.28-.122.311-.138a3.293,3.293,0,0,0,.146.661,2.333,2.333,0,0,0,1.512,1.11Z" transform="translate(-125.864 -127.849)" fill="#1499fc"/>
  </g>
  <g id="Group_1917" data-name="Group 1917" transform="translate(22.99 15.316)">
    <path id="Path_6287" data-name="Path 6287" d="M285.12,59.91l1.307-.752V57.65l-1.307.756Z" transform="translate(-195.848 -50.267)" fill="#eff6fe" opacity="0.4"/>
    <path id="Path_6288" data-name="Path 6288" d="M58.39,191.28l1.307-.752V189.02l-1.307.752Z" transform="translate(-58.39 -129.912)" fill="#eff6fe"/>
    <path id="Path_6289" data-name="Path 6289" d="M68.19,250.12l1.307-.752V247.86l-1.307.756Z" transform="translate(-64.331 -165.585)" fill="#eff6fe"/>
    <path id="Path_6290" data-name="Path 6290" d="M91.87,271.276l1.3-.752v-1.5l-1.3.752Z" transform="translate(-78.688 -178.413)" fill="#eff6fe"/>
    <path id="Path_6291" data-name="Path 6291" d="M307.82,178.426l1.307-.752v-1.5l-1.307.752Z" transform="translate(-209.61 -122.122)" fill="#eff6fe"/>
    <path id="Path_6292" data-name="Path 6292" d="M279.98,90.87l1.3-.756v-1.5l-1.3.752Z" transform="translate(-192.732 -69.037)" fill="#eff6fe" opacity="0.5"/>
    <path id="Path_6293" data-name="Path 6293" d="M171.43,250.206l1.3-.752v-1.5l-1.3.752Z" transform="translate(-126.922 -165.639)" fill="#eff6fe" opacity="0.5"/>
    <path id="Path_6294" data-name="Path 6294" d="M191.69,41.16l1.3-.752V38.9l-1.3.752Z" transform="translate(-139.205 -38.9)" fill="#eff6fe" opacity="0.2"/>
  </g>
  <g id="Group_1918" data-name="Group 1918" transform="translate(39.543 60.923)">
    <path id="Path_6295" data-name="Path 6295" d="M101.718,155.309a.579.579,0,1,1-.579-.579A.58.58,0,0,1,101.718,155.309Z" transform="translate(-100.509 -154.73)" fill="#7f7f7f" opacity="0"/>
    <path id="Path_6296" data-name="Path 6296" d="M101.713,174.107a.587.587,0,1,1-.587-.587A.588.588,0,0,1,101.713,174.107Z" transform="translate(-100.497 -166.122)" fill="#929394" opacity="0.17"/>
    <path id="Path_6297" data-name="Path 6297" d="M101.709,192.9a.595.595,0,1,1-.595-.595A.594.594,0,0,1,101.709,192.9Z" transform="translate(-100.485 -177.513)" fill="#a4a7a9" opacity="0.33"/>
    <path id="Path_6298" data-name="Path 6298" d="M101.693,211.686a.606.606,0,1,1-.606-.606A.607.607,0,0,1,101.693,211.686Z" transform="translate(-100.46 -188.893)" fill="#b7bbbf" opacity="0.5"/>
    <path id="Path_6299" data-name="Path 6299" d="M101.7,230.484a.614.614,0,1,1-.614-.614A.615.615,0,0,1,101.7,230.484Z" transform="translate(-100.454 -200.285)" fill="#caced4" opacity="0.67"/>
    <path id="Path_6300" data-name="Path 6300" d="M101.694,249.282a.622.622,0,1,1-.622-.622A.623.623,0,0,1,101.694,249.282Z" transform="translate(-100.442 -211.676)" fill="#dce2e9" opacity="0.83"/>
    <path id="Path_6301" data-name="Path 6301" d="M101.69,268.08a.63.63,0,1,1-.63-.63A.629.629,0,0,1,101.69,268.08Z" transform="translate(-100.43 -223.068)" fill="#eff6fe"/>
  </g>
  <g id="Group_1919" data-name="Group 1919" transform="translate(115.105 10.253)">
    <path id="Path_6302" data-name="Path 6302" d="M293.628,26.619a.579.579,0,1,1-.579-.579A.58.58,0,0,1,293.628,26.619Z" transform="translate(-292.419 -26.04)" fill="#7f7f7f" opacity="0"/>
    <path id="Path_6303" data-name="Path 6303" d="M293.623,45.417a.587.587,0,1,1-.587-.587A.588.588,0,0,1,293.623,45.417Z" transform="translate(-292.407 -37.432)" fill="#929394" opacity="0.17"/>
    <path id="Path_6304" data-name="Path 6304" d="M293.619,64.215a.595.595,0,1,1-.595-.595A.594.594,0,0,1,293.619,64.215Z" transform="translate(-292.395 -48.823)" fill="#a4a7a9" opacity="0.33"/>
    <path id="Path_6305" data-name="Path 6305" d="M293.613,83.006a.606.606,0,1,1-.606-.606A.607.607,0,0,1,293.613,83.006Z" transform="translate(-292.376 -60.209)" fill="#b7bbbf" opacity="0.5"/>
    <path id="Path_6306" data-name="Path 6306" d="M293.608,101.8a.614.614,0,1,1-.614-.614A.615.615,0,0,1,293.608,101.8Z" transform="translate(-292.364 -71.601)" fill="#caced4" opacity="0.67"/>
    <path id="Path_6307" data-name="Path 6307" d="M293.6,120.6a.622.622,0,1,1-.622-.622A.623.623,0,0,1,293.6,120.6Z" transform="translate(-292.352 -82.992)" fill="#dce2e9" opacity="0.83"/>
    <path id="Path_6308" data-name="Path 6308" d="M293.6,139.39a.63.63,0,1,1-.63-.63A.629.629,0,0,1,293.6,139.39Z" transform="translate(-292.34 -94.378)" fill="#eff6fe"/>
  </g>
  <g id="Group_1920" data-name="Group 1920" transform="translate(14.923)">
    <path id="Path_6309" data-name="Path 6309" d="M39.178.579A.579.579,0,1,1,38.6,0,.58.58,0,0,1,39.178.579Z" transform="translate(-37.973)" fill="#7f7f7f" opacity="0"/>
    <path id="Path_6310" data-name="Path 6310" d="M39.183,19.377a.587.587,0,1,1-.587-.587A.588.588,0,0,1,39.183,19.377Z" transform="translate(-37.967 -11.392)" fill="#929394" opacity="0.17"/>
    <path id="Path_6311" data-name="Path 6311" d="M39.179,38.175a.595.595,0,1,1-.595-.595A.594.594,0,0,1,39.179,38.175Z" transform="translate(-37.955 -22.783)" fill="#a4a7a9" opacity="0.33"/>
    <path id="Path_6312" data-name="Path 6312" d="M39.163,56.966a.606.606,0,1,1-.606-.606A.607.607,0,0,1,39.163,56.966Z" transform="translate(-37.93 -34.169)" fill="#b7bbbf" opacity="0.5"/>
    <path id="Path_6313" data-name="Path 6313" d="M39.158,75.764a.614.614,0,1,1-.614-.614A.615.615,0,0,1,39.158,75.764Z" transform="translate(-37.918 -45.561)" fill="#caced4" opacity="0.67"/>
    <path id="Path_6314" data-name="Path 6314" d="M39.164,94.562a.622.622,0,1,1-.622-.622A.623.623,0,0,1,39.164,94.562Z" transform="translate(-37.912 -56.952)" fill="#dce2e9" opacity="0.83"/>
    <path id="Path_6315" data-name="Path 6315" d="M39.16,113.35a.63.63,0,1,1-.63-.63A.629.629,0,0,1,39.16,113.35Z" transform="translate(-37.9 -68.338)" fill="#eff6fe"/>
  </g>
</svg>
