<svg xmlns="http://www.w3.org/2000/svg" width="119.878" height="110.65" viewBox="0 0 119.878 110.65">
  <g id="Migration-01" transform="translate(-155.4 -221.649)">
    <g id="window" transform="translate(174.537 238.426)">
      <path id="Path_5852" data-name="Path 5852" d="M553.555,576.381H548.72a35.518,35.518,0,0,1-35.52-35.52V536.32a35.518,35.518,0,0,1,35.52-35.52h4.835a35.518,35.518,0,0,1,35.52,35.52v4.541A35.522,35.522,0,0,1,553.555,576.381Z" transform="translate(-513.2 -500.8)" fill="#aae0ff"/>
    </g>
    <g id="shadow" transform="translate(155.4 291.151)">
      <path id="shadow_1_" d="M156.053,2232.805H274.625a.652.652,0,0,0,.652-.653h0a.652.652,0,0,0-.652-.652H156.053a.652.652,0,0,0-.653.652h0A.652.652,0,0,0,156.053,2232.805Z" transform="translate(-155.4 -2191.657)" fill="#2d5b98"/>
      <g id="plant" transform="translate(17.121 0)">
        <g id="Group_1741" data-name="Group 1741" transform="translate(8.124 18.995)">
          <g id="Group_1740" data-name="Group 1740">
            <path id="Path_5853" data-name="Path 5853" d="M647.727,1857.361h0a6.629,6.629,0,0,1-6.627-6.627V1841.7h13.254v9.034A6.629,6.629,0,0,1,647.727,1857.361Z" transform="translate(-640.367 -1841.7)" fill="#5896fa"/>
            <rect id="Rectangle_6989" data-name="Rectangle 6989" width="0.733" height="14.019" transform="translate(0 6.825)" fill="#0e0e0e"/>
            <rect id="Rectangle_6990" data-name="Rectangle 6990" width="0.733" height="14.019" transform="translate(13.987 6.825)" fill="#0e0e0e"/>
            <rect id="Rectangle_6991" data-name="Rectangle 6991" width="0.733" height="14.019" transform="translate(8.365 6.825)" fill="#0e0e0e"/>
          </g>
          <rect id="Rectangle_6992" data-name="Rectangle 6992" width="14.019" height="0.733" transform="translate(0 15.661)" fill="#0e0e0e"/>
        </g>
        <g id="Group_1742" data-name="Group 1742" transform="translate(15.876 3.385)">
          <path id="Path_5854" data-name="Path 5854" d="M782.262,1550.542c.8,1.15-.808,2.145-1.059,3.739s1.578,2.492-.364,4.583c-1.193,1.289-2.2-.422-3.172,1.551s-.2,2.305-1.3,3.017c-1.9,1.235-4.814-1.5-3.835-3.471s2.958-1.8,2.043-3.418-1.257-2.321.321-3.156c1.958-1.032,3.68-.086,3.835-1.594S781.208,1549.017,782.262,1550.542Z" transform="translate(-772.337 -1549.854)" fill="#ffca59"/>
          <path id="Path_5855" data-name="Path 5855" d="M795.832,1603.466l-.332-.064a29.927,29.927,0,0,1,6.7-13.3l.241.23A29.586,29.586,0,0,0,795.832,1603.466Z" transform="translate(-794.261 -1587.948)" fill="#0e0e0e"/>
        </g>
        <g id="Group_1743" data-name="Group 1743">
          <path id="Path_5856" data-name="Path 5856" d="M475.684,1487.759c-.829,1.685,1.5,2.674,2.155,4.739s-1.749,2.792,1.236,5.167c1.84,1.466,2.225.551,2.9,3.824.594,2.883,2.787.139,4.423,1.829,2.113,2.182,5.413-2.61,3.723-5.017s-3.664-1.786-2.781-4.119-.171-4.086-2.428-4.873c-2.8-.973-3.8,1.375-4.311-.588S476.781,1485.529,475.684,1487.759Z" transform="translate(-475.508 -1486.565)" fill="#ed5a24"/>
          <path id="Path_5857" data-name="Path 5857" d="M539.7,1554.1a39.53,39.53,0,0,0-11.4-16.051l.278-.353a40.014,40.014,0,0,1,11.547,16.254Z" transform="translate(-525.476 -1534.965)" fill="#0e0e0e"/>
        </g>
      </g>
    </g>
    <g id="system" transform="translate(163.588 223.6)">
      <path id="Path_5858" data-name="Path 5858" d="M471.854,394.335v-.465c.23,0,.46-.005.7-.011l.016.465C472.324,394.329,472.089,394.335,471.854,394.335Zm-.706-.005c-.235-.005-.471-.011-.706-.027l.021-.465c.23.011.465.021.7.021Zm2.118-.037-.027-.465c.23-.011.465-.032.69-.048l.037.465C473.736,394.26,473.5,394.281,473.266,394.292Zm-3.53-.027c-.235-.016-.471-.037-.706-.059l.048-.465c.23.021.46.043.69.059Zm4.937-.091-.053-.465c.23-.027.46-.053.69-.086l.064.46C475.143,394.121,474.908,394.147,474.672,394.174Zm-6.343-.053-.7-.1.07-.46c.225.037.46.07.69.1Zm7.745-.139-.075-.46c.23-.037.46-.08.685-.123l.086.46C476.539,393.9,476.3,393.944,476.074,393.981Zm-9.141-.075c-.23-.043-.465-.086-.7-.134l.1-.455c.225.048.455.091.679.134Zm10.526-.193-.1-.455q.337-.072.674-.16l.112.455C477.919,393.612,477.689,393.666,477.459,393.714Zm-11.906-.1c-.23-.054-.46-.112-.685-.171l.118-.449c.225.059.449.118.674.171Zm13.281-.241-.123-.449c.219-.059.444-.128.669-.193l.139.444C479.288,393.249,479.058,393.313,478.834,393.377Zm-14.65-.123c-.225-.064-.455-.139-.674-.209l.144-.444c.219.07.444.139.663.2Zm16-.294-.15-.444c.219-.075.439-.15.652-.23l.16.439C480.631,392.81,480.406,392.89,480.181,392.96Zm-17.34-.139c-.219-.08-.444-.16-.663-.246l.166-.439c.214.086.439.166.652.241Zm18.667-.342-.171-.433c.214-.086.428-.171.642-.262l.182.428C481.946,392.3,481.727,392.393,481.508,392.479Zm-19.993-.166c-.219-.091-.439-.187-.653-.278l.193-.428c.209.1.428.187.637.278Zm21.293-.39-.193-.423c.209-.1.417-.2.626-.294l.2.417C483.23,391.724,483.016,391.826,482.808,391.922Zm-22.582-.187c-.209-.1-.423-.209-.636-.316L459.8,391c.209.107.417.209.62.31Zm23.844-.433-.219-.412c.2-.107.406-.219.61-.332l.23.407C484.487,391.083,484.278,391.195,484.07,391.3Zm-25.106-.214c-.2-.112-.412-.23-.615-.348l.235-.4c.2.118.4.23.6.342Zm26.336-.471-.241-.4c.2-.118.4-.241.588-.364l.251.4C485.707,390.371,485.5,390.494,485.3,390.617Zm-27.561-.241c-.2-.123-.4-.251-.6-.38l.257-.391c.193.128.39.251.588.374Zm28.754-.514-.262-.39c.193-.128.385-.262.572-.39l.267.38Q486.79,389.671,486.493,389.863Zm-29.936-.262c-.193-.134-.385-.273-.578-.412l.278-.374c.187.139.374.273.567.4Zm31.091-.551-.278-.374c.182-.139.369-.278.551-.423l.289.369C488.022,388.761,487.835,388.911,487.648,389.05Zm-32.231-.289c-.187-.144-.369-.294-.551-.439l.294-.364c.176.144.364.294.545.433Zm33.338-.588-.3-.358.529-.449.31.353C489.114,387.868,488.932,388.023,488.755,388.173Zm-34.429-.3c-.176-.155-.353-.31-.53-.471l.316-.348c.171.155.342.31.519.46Zm35.488-.626-.316-.342c.166-.155.337-.316.5-.476l.326.332C490.156,386.921,489.985,387.082,489.814,387.242Zm-36.536-.326c-.171-.16-.337-.332-.5-.5l.332-.326c.16.166.326.326.492.487Zm37.547-.663-.337-.326c.16-.166.321-.332.476-.5l.342.316C491.151,385.916,490.986,386.087,490.825,386.253Zm-38.537-.342c-.16-.171-.321-.348-.476-.524l.348-.31.465.513Zm39.494-.7-.353-.3c.15-.171.3-.353.449-.53l.358.3Zm-40.435-.358-.449-.546.364-.289c.144.182.289.358.439.535Zm41.334-.733-.369-.289c.144-.182.284-.369.423-.551l.374.278C492.97,383.75,492.825,383.942,492.681,384.124Zm-42.211-.374c-.139-.187-.283-.38-.417-.567l.38-.273c.134.187.273.374.412.556Zm43.056-.759-.38-.267c.134-.187.262-.385.39-.572l.39.257C493.794,382.6,493.66,382.8,493.526,382.99Zm-43.88-.385c-.128-.193-.262-.391-.385-.588l.4-.251c.123.193.251.39.38.578Zm44.661-.792-.4-.246c.123-.2.246-.4.358-.594l.4.235C494.553,381.407,494.43,381.61,494.307,381.813Zm-45.415-.4c-.118-.2-.241-.406-.353-.61l.407-.23c.112.2.23.4.348.6Zm46.132-.818-.406-.225c.112-.2.225-.407.326-.615l.412.214C495.248,380.177,495.136,380.385,495.024,380.594Zm-46.827-.406c-.107-.209-.219-.417-.321-.626l.417-.209c.1.209.209.412.316.615Zm47.479-.85-.423-.2c.1-.209.2-.417.294-.631l.428.193C495.88,378.909,495.778,379.123,495.676,379.337Zm-48.111-.412c-.1-.214-.2-.428-.289-.642l.428-.187c.091.209.187.422.284.631Zm48.694-.883-.428-.182c.091-.214.176-.428.262-.647l.433.171C496.441,377.609,496.35,377.829,496.259,378.043Zm-49.25-.406-.257-.658.439-.16c.08.214.166.433.251.647Zm49.769-.909-.439-.16q.12-.329.225-.658l.444.144C496.933,376.278,496.858,376.5,496.778,376.727Zm-50.261-.417c-.075-.219-.15-.449-.219-.674l.444-.139c.07.219.139.444.214.658Zm50.7-.931-.449-.134c.064-.219.128-.444.193-.669l.449.123C497.35,374.924,497.286,375.154,497.222,375.379Zm-51.127-.417c-.064-.225-.123-.455-.182-.685l.455-.112c.059.225.118.449.182.669Zm51.5-.947-.455-.112c.053-.225.107-.455.155-.679l.455.1C497.7,373.555,497.645,373.785,497.591,374.015Zm-51.844-.422q-.08-.345-.144-.69l.46-.091c.043.225.091.455.144.679Zm52.138-.957-.46-.086c.043-.225.08-.455.118-.685l.46.075C497.971,372.17,497.928,372.405,497.885,372.635Zm-52.411-.433c-.037-.23-.075-.465-.107-.7l.46-.064c.032.23.07.46.107.685Zm52.635-.963-.465-.059q.048-.345.08-.69l.465.048C498.169,370.769,498.137,371,498.11,371.239Zm-52.833-.433c-.027-.235-.053-.471-.069-.7l.465-.043c.021.23.043.46.07.69Zm52.978-.973-.465-.037c.016-.23.032-.46.043-.69l.465.027C498.292,369.362,498.276,369.6,498.254,369.833Zm-53.1-.433q-.024-.353-.032-.706l.465-.016c.011.23.021.465.032.7Zm53.176-.979-.465-.011c.005-.23.011-.465.011-.7,0-.177,0-.353-.005-.53l.465-.011c.005.176.005.364.005.54C498.34,367.95,498.335,368.191,498.329,368.421Zm-53.229-.433v-.273c0-.144,0-.289.005-.433l.465.005c0,.144-.005.283-.005.428v.267Zm.492-1.391-.465-.021c.011-.235.021-.471.037-.706l.465.032C445.613,366.131,445.6,366.361,445.592,366.6Zm52.25-.107c-.011-.23-.027-.46-.043-.7l.465-.032c.016.235.032.471.043.706Zm-52.159-1.278-.465-.043c.022-.235.048-.471.075-.7l.465.059C445.731,364.746,445.7,364.981,445.683,365.211Zm52.063-.107c-.021-.23-.048-.46-.075-.69l.465-.059c.032.235.053.471.08.7Zm-51.892-1.273-.46-.07c.032-.23.075-.465.112-.7l.46.08C445.924,363.372,445.886,363.6,445.854,363.832Zm51.716-.1c-.032-.225-.075-.46-.112-.685l.46-.08c.043.23.08.465.118.7Zm-51.475-1.268-.46-.091c.048-.23.1-.46.15-.69l.455.107C446.191,362.013,446.138,362.238,446.095,362.462Zm51.229-.1c-.048-.225-.1-.455-.15-.679l.455-.107c.054.23.107.46.155.69Zm-50.919-1.246-.449-.118c.059-.225.123-.455.187-.679l.449.128C446.528,360.665,446.464,360.89,446.405,361.114Zm50.6-.1c-.059-.225-.123-.449-.187-.669l.449-.134c.064.225.128.455.187.679Zm-50.213-1.236-.444-.139q.1-.337.225-.674l.439.155C446.935,359.339,446.86,359.558,446.79,359.777Zm49.822-.1c-.07-.219-.144-.439-.219-.658l.439-.155c.08.219.155.449.225.669Zm-49.362-1.22-.439-.166c.086-.219.171-.444.262-.658l.433.176C447.416,358.028,447.33,358.248,447.25,358.461Zm48.9-.091c-.08-.214-.171-.433-.257-.647l.433-.176c.091.214.176.439.262.658Zm-48.378-1.193-.428-.187c.1-.214.193-.433.294-.642l.423.2C447.967,356.75,447.871,356.964,447.774,357.178Zm47.849-.086c-.091-.209-.193-.423-.289-.626l.422-.2c.1.209.2.428.294.642Zm-47.249-1.171-.417-.209c.107-.209.214-.423.326-.626l.412.225C448.587,355.5,448.475,355.712,448.373,355.921Zm46.656-.08c-.1-.2-.214-.412-.321-.61l.412-.225c.112.209.225.417.326.626Zm-46-1.145-.407-.235c.118-.2.241-.407.358-.61l.4.246C449.267,354.295,449.149,354.493,449.031,354.7Zm45.335-.07c-.118-.2-.235-.4-.353-.594l.4-.246c.123.2.246.4.364.6Zm-44.607-1.118-.39-.251c.128-.2.262-.4.39-.588l.385.262C450.015,353.118,449.882,353.316,449.759,353.509Zm43.88-.064c-.123-.193-.257-.385-.385-.578l.385-.267c.134.193.267.39.4.583Zm-43.094-1.08-.38-.273c.139-.187.278-.38.422-.567l.369.284C450.818,351.99,450.679,352.177,450.545,352.364Zm42.307-.059c-.134-.187-.278-.374-.417-.556l.369-.283c.144.187.283.374.423.567Zm-41.462-1.043-.364-.294c.15-.182.3-.364.455-.546l.353.3C451.684,350.9,451.534,351.081,451.39,351.262Zm40.617-.053c-.144-.177-.294-.358-.444-.53l.353-.3c.155.177.3.358.455.54ZM452.294,350.2l-.348-.31c.155-.176.321-.348.481-.519l.337.321C452.6,349.861,452.449,350.037,452.294,350.2Zm38.8-.048c-.155-.171-.316-.342-.471-.508l.337-.321c.16.171.326.342.481.519Zm-37.847-.957-.332-.332c.166-.166.337-.332.508-.492l.321.337C453.578,348.877,453.412,349.037,453.251,349.2Zm36.889-.048c-.16-.16-.332-.326-.5-.481l.321-.342c.171.16.342.326.508.492Zm-35.884-.9-.31-.348.53-.465.3.353C454.6,347.941,454.428,348.091,454.257,348.246Zm34.873-.043c-.171-.155-.348-.3-.524-.455l.3-.358c.176.15.358.3.535.465Zm-33.814-.856-.294-.364c.182-.144.369-.294.556-.433l.284.369C455.674,347.058,455.492,347.2,455.316,347.347Zm32.755-.043c-.182-.144-.364-.289-.546-.428l.283-.374c.187.139.374.289.556.433Zm-31.653-.8-.273-.38c.187-.139.385-.273.578-.406l.262.385C456.792,346.235,456.6,346.368,456.418,346.507Zm30.546-.043c-.187-.134-.38-.267-.567-.4l.262-.385c.193.134.39.267.578.406Zm-29.4-.743-.251-.391c.2-.128.4-.251.6-.374l.241.4C457.953,345.475,457.755,345.6,457.562,345.721Zm28.251-.037c-.193-.123-.39-.246-.588-.369l.241-.4c.2.123.4.246.6.374ZM458.744,345l-.23-.407c.2-.118.412-.23.615-.342l.219.412C459.145,344.774,458.942,344.887,458.744,345Zm25.882-.043-.61-.337.219-.412c.209.112.417.225.62.342Zm-24.662-.615-.209-.417c.209-.107.422-.209.631-.31l.2.423C460.376,344.143,460.167,344.245,459.964,344.347Zm23.432-.037-.626-.3.2-.423c.214.1.428.2.637.31Zm-22.181-.551-.187-.428c.214-.1.433-.187.647-.273l.176.433C461.638,343.576,461.424,343.667,461.215,343.758Zm20.924-.037c-.214-.091-.428-.182-.642-.267l.176-.433c.219.086.439.182.653.273Zm-19.64-.487-.166-.439c.219-.08.444-.166.663-.241l.155.439C462.932,343.074,462.713,343.154,462.5,343.234Zm18.346-.032c-.214-.08-.439-.16-.658-.235l.15-.444c.225.075.449.155.669.241Zm-17.035-.423-.139-.444c.225-.07.449-.139.674-.2l.128.449C464.253,342.64,464.029,342.71,463.809,342.779Zm15.72-.032c-.219-.07-.444-.134-.663-.2l.128-.449c.225.064.455.134.679.2Zm-14.388-.353-.118-.455c.225-.059.46-.118.685-.166l.107.455C465.6,342.282,465.366,342.341,465.141,342.394Zm13.051-.027q-.337-.088-.674-.16l.1-.455c.23.053.46.107.685.166Zm-11.7-.283-.091-.46c.23-.048.465-.091.7-.134l.08.46C466.954,341.993,466.724,342.036,466.494,342.084Zm10.344-.021-.685-.128.08-.46c.23.037.465.08.7.128Zm-8.975-.219-.07-.46.7-.1.053.465C468.324,341.779,468.088,341.811,467.864,341.843Zm7.606-.016c-.23-.032-.46-.064-.69-.091l.053-.465c.235.027.471.059.7.091Zm-6.226-.15-.043-.465c.235-.021.471-.043.706-.059l.032.465C469.7,341.64,469.468,341.656,469.244,341.678Zm4.851-.011c-.23-.021-.46-.037-.69-.053l.032-.465c.235.016.471.032.706.053Zm-3.466-.08-.021-.465c.235-.011.471-.016.706-.021l.005.465C471.089,341.571,470.859,341.576,470.629,341.587Zm2.081-.005c-.23-.011-.465-.016-.7-.016l.005-.465c.235,0,.471.011.706.016Z" transform="translate(-437.793 -334.815)" fill="#2e77e6"/>
      <path id="Path_5859" data-name="Path 5859" d="M748.535,712.974a4.921,4.921,0,0,0,.048-.626,4.649,4.649,0,0,0-8.932-1.808,3.213,3.213,0,0,0-2.156-.824,3.251,3.251,0,0,0-3.252,3.252h-.6a3.148,3.148,0,0,0-3.14,3.14h0a3.148,3.148,0,0,0,3.14,3.14h14.671a3.148,3.148,0,0,0,3.14-3.14h0A3.166,3.166,0,0,0,748.535,712.974Z" transform="translate(-707.928 -681.807)" fill="#fff"/>
      <g id="Group_1753" data-name="Group 1753" transform="translate(22.658 46.431)">
        <path id="Path_5860" data-name="Path 5860" d="M752.847,1110.57H733.384a1.284,1.284,0,0,1-1.284-1.284v-16.3a1.284,1.284,0,0,1,1.284-1.284h19.464a1.284,1.284,0,0,1,1.284,1.284v16.3A1.284,1.284,0,0,1,752.847,1110.57Z" transform="translate(-732.1 -1091.7)" fill="#5896fa"/>
        <g id="Group_1752" data-name="Group 1752" transform="translate(3.61 1.492)">
          <g id="Group_1751" data-name="Group 1751">
            <path id="Path_5861" data-name="Path 5861" d="M813.677,1276.683H800.392a.793.793,0,0,1-.792-.791h0a.793.793,0,0,1,.792-.792h13.286a.793.793,0,0,1,.792.792h0A.8.8,0,0,1,813.677,1276.683Z" transform="translate(-799.6 -1266.783)" fill="#fff"/>
            <path id="Path_5862" data-name="Path 5862" d="M813.677,1324.283H800.392a.793.793,0,0,1-.792-.792h0a.793.793,0,0,1,.792-.792h13.286a.793.793,0,0,1,.792.792h0A.8.8,0,0,1,813.677,1324.283Z" transform="translate(-799.6 -1311.837)" fill="#fff"/>
            <g id="Group_1744" data-name="Group 1744" transform="translate(2.717 11.446)">
              <path id="Path_5863" data-name="Path 5863" d="M850.956,1333.878a.278.278,0,1,1-.278-.278A.28.28,0,0,1,850.956,1333.878Z" transform="translate(-850.4 -1333.6)" fill="#80b2ff"/>
              <path id="Path_5864" data-name="Path 5864" d="M868.756,1333.878a.278.278,0,1,1-.278-.278A.276.276,0,0,1,868.756,1333.878Z" transform="translate(-867.248 -1333.6)" fill="#80b2ff"/>
              <path id="Path_5865" data-name="Path 5865" d="M886.556,1333.878a.278.278,0,1,1-.278-.278A.276.276,0,0,1,886.556,1333.878Z" transform="translate(-884.096 -1333.6)" fill="#80b2ff"/>
              <path id="Path_5866" data-name="Path 5866" d="M904.456,1333.878a.278.278,0,1,1-.278-.278A.28.28,0,0,1,904.456,1333.878Z" transform="translate(-901.038 -1333.6)" fill="#80b2ff"/>
              <path id="Path_5867" data-name="Path 5867" d="M922.256,1333.878a.278.278,0,1,1-.278-.278A.276.276,0,0,1,922.256,1333.878Z" transform="translate(-917.886 -1333.6)" fill="#80b2ff"/>
              <path id="Path_5868" data-name="Path 5868" d="M940.156,1333.878a.278.278,0,1,1-.278-.278A.28.28,0,0,1,940.156,1333.878Z" transform="translate(-934.829 -1333.6)" fill="#80b2ff"/>
              <path id="Path_5869" data-name="Path 5869" d="M957.956,1333.878a.278.278,0,1,1-.278-.278A.276.276,0,0,1,957.956,1333.878Z" transform="translate(-951.677 -1333.6)" fill="#80b2ff"/>
              <path id="Path_5870" data-name="Path 5870" d="M975.756,1333.878a.278.278,0,1,1-.278-.278A.276.276,0,0,1,975.756,1333.878Z" transform="translate(-968.525 -1333.6)" fill="#80b2ff"/>
              <path id="Path_5871" data-name="Path 5871" d="M993.656,1333.878a.278.278,0,1,1-.278-.278A.276.276,0,0,1,993.656,1333.878Z" transform="translate(-985.468 -1333.6)" fill="#80b2ff"/>
            </g>
            <g id="Group_1747" data-name="Group 1747" transform="translate(4.386)">
              <circle id="Ellipse_207" data-name="Ellipse 207" cx="3.054" cy="3.054" r="3.054" fill="#fff"/>
              <g id="Group_1746" data-name="Group 1746" transform="translate(1.353 1.006)">
                <g id="Group_1745" data-name="Group 1745" transform="translate(0.738)">
                  <path id="Path_5872" data-name="Path 5872" d="M921.663,1140.326a.963.963,0,1,0-.963-.963.912.912,0,0,0,.209.594A.958.958,0,0,0,921.663,1140.326Z" transform="translate(-920.7 -1138.4)" fill="#005cea"/>
                </g>
                <path id="Path_5873" data-name="Path 5873" d="M910.3,1180.872c0,.61-3.4.61-3.4,0v-.706c.134-.968,3.118-1.011,3.4,0Z" transform="translate(-906.9 -1177.229)" fill="#005cea"/>
              </g>
            </g>
            <path id="Path_5874" data-name="Path 5874" d="M814.869,1328.553v-.043a.31.31,0,1,0-.62,0v.043H814.2v.562c0,.1.717.1.717,0v-.562Zm-.513-.043a.2.2,0,1,1,.4,0v.043h-.4Zm.257.326v.16a.053.053,0,0,1-.053.048.048.048,0,0,1-.048-.048v-.16a.1.1,0,0,1-.048-.086.1.1,0,0,1,.2,0A.169.169,0,0,1,814.612,1328.836Z" transform="translate(-813.419 -1317.043)" fill="#5896fa"/>
            <g id="Group_1750" data-name="Group 1750" transform="translate(0.776 8.643)">
              <g id="Group_1749" data-name="Group 1749">
                <g id="Group_1748" data-name="Group 1748" transform="translate(0.16)">
                  <path id="Path_5875" data-name="Path 5875" d="M817.3,1281.606a.217.217,0,0,0,.16-.075.2.2,0,0,0,.043-.128.2.2,0,1,0-.406,0,.218.218,0,0,0,.043.128A.2.2,0,0,0,817.3,1281.606Z" transform="translate(-817.1 -1281.2)" fill="#5896fa"/>
                </g>
                <path id="Path_5876" data-name="Path 5876" d="M814.822,1290.181c0,.129-.722.129-.722,0l.005-.15c.027-.2.658-.214.717,0Z" transform="translate(-814.1 -1289.411)" fill="#5896fa"/>
              </g>
              <path id="Path_5877" data-name="Path 5877" d="M852.34,1286.16h-2.91a.232.232,0,0,1-.23-.23h0a.232.232,0,0,1,.23-.23h2.91a.232.232,0,0,1,.23.23h0A.232.232,0,0,1,852.34,1286.16Z" transform="translate(-847.323 -1285.459)" fill="#80b2ff"/>
              <path id="Path_5878" data-name="Path 5878" d="M924.14,1286.16h-2.91a.232.232,0,0,1-.23-.23h0a.232.232,0,0,1,.23-.23h2.91a.232.232,0,0,1,.23.23h0A.232.232,0,0,1,924.14,1286.16Z" transform="translate(-915.282 -1285.459)" fill="#80b2ff"/>
            </g>
          </g>
          <path id="Path_5879" data-name="Path 5879" d="M898.132,1374.359h-2.669a.663.663,0,0,1-.663-.663v-.032a.663.663,0,0,1,.663-.663h2.669a.663.663,0,0,1,.663.663v.032A.667.667,0,0,1,898.132,1374.359Z" transform="translate(-889.708 -1359.447)" fill="#1251b3"/>
        </g>
      </g>
      <g id="Group_1761" data-name="Group 1761" transform="translate(0.129 31.755)">
        <g id="Group_1759" data-name="Group 1759">
          <g id="Group_1755" data-name="Group 1755">
            <g id="Group_1754" data-name="Group 1754">
              <path id="Path_5880" data-name="Path 5880" d="M311.2,882.332h0v0Z" transform="translate(-311.184 -878.823)" fill="#d9ffff"/>
              <path id="Path_5881" data-name="Path 5881" d="M311.2,882.332h0v0Z" transform="translate(-311.184 -878.823)" fill="#d9ffff"/>
              <path id="Path_5882" data-name="Path 5882" d="M554,883.432v0Z" transform="translate(-540.997 -879.865)" fill="#d9ffff"/>
              <path id="Path_5883" data-name="Path 5883" d="M554,883.432v0Z" transform="translate(-540.997 -879.865)" fill="#d9ffff"/>
              <path id="Path_5884" data-name="Path 5884" d="M317.434,817.3a12.953,12.953,0,0,1-6.509,3.514c0,.171-.005,1.129-.027,5.536-.027,5.878,5.568,8.75,6.44,9.194.84-.385,6.509-3.257,6.531-9.135.021-4.407.021-5.365.027-5.536A12.839,12.839,0,0,1,317.434,817.3Z" transform="translate(-310.898 -817.3)" fill="#fff"/>
            </g>
          </g>
          <g id="Group_1758" data-name="Group 1758" transform="translate(0.706 1.064)">
            <g id="Group_1756" data-name="Group 1756">
              <path id="Path_5885" data-name="Path 5885" d="M329.912,837.2a13.76,13.76,0,0,1-5.792,3.011l-.021,4.98a8.4,8.4,0,0,0,2.69,6.129,12.887,12.887,0,0,0,3.049,2.23c.027-.016.059-.027.086-.043v-16.3Z" transform="translate(-324.098 -837.2)" fill="#296acc"/>
            </g>
            <g id="Group_1757" data-name="Group 1757" transform="translate(5.825 0.011)">
              <path id="Path_5886" data-name="Path 5886" d="M433,837.4v16.292a12.877,12.877,0,0,0,2.985-2.161,8.4,8.4,0,0,0,2.744-6.1l.021-4.98A13.737,13.737,0,0,1,433,837.4Z" transform="translate(-433 -837.4)" fill="#2e77e6"/>
            </g>
          </g>
        </g>
        <g id="Group_1760" data-name="Group 1760" transform="translate(3.91 5.552)">
          <path id="Path_5887" data-name="Path 5887" d="M384,971.7v3.856c0,.428,5.247.428,5.247,0V971.7Zm2.888,2.049v1.091a.265.265,0,1,1-.529,0v-1.1a.639.639,0,1,1,.529.005Z" transform="translate(-384 -968.994)" fill="#fff"/>
          <path id="Path_5888" data-name="Path 5888" d="M397.022,923.528h-.53v-.262a1.631,1.631,0,1,0-3.263,0v.262h-.53v-.262a2.166,2.166,0,0,1,4.332,0v.262Z" transform="translate(-392.235 -921.1)" fill="#fff"/>
        </g>
      </g>
      <g id="Group_1766" data-name="Group 1766" transform="translate(36.018 0)">
        <g id="Group_1762" data-name="Group 1762">
          <rect id="Rectangle_6993" data-name="Rectangle 6993" width="9.478" height="11.831" fill="#296acc"/>
        </g>
        <g id="Group_1763" data-name="Group 1763" transform="translate(1.23 1.219)">
          <rect id="Rectangle_6994" data-name="Rectangle 6994" width="9.478" height="11.831" fill="#fff" stroke="#5896fa" stroke-miterlimit="10" stroke-width="6.341"/>
        </g>
        <g id="Group_1764" data-name="Group 1764" transform="translate(2.792 2.418)">
          <rect id="Rectangle_6995" data-name="Rectangle 6995" width="9.478" height="11.831" fill="#fff" stroke="#5896fa" stroke-miterlimit="10" stroke-width="6.341"/>
        </g>
        <g id="Group_1765" data-name="Group 1765" transform="translate(3.926 3.642)">
          <rect id="Rectangle_6996" data-name="Rectangle 6996" width="9.478" height="11.831" fill="#5896fa"/>
          <rect id="Rectangle_6997" data-name="Rectangle 6997" width="4.899" height="0.77" transform="translate(3.102 1.942)" fill="#005cea"/>
          <rect id="Rectangle_6998" data-name="Rectangle 6998" width="6.354" height="0.77" transform="translate(1.653 3.749)" fill="#005cea"/>
          <rect id="Rectangle_6999" data-name="Rectangle 6999" width="6.354" height="0.77" transform="translate(1.653 5.557)" fill="#005cea"/>
          <rect id="Rectangle_7000" data-name="Rectangle 7000" width="6.354" height="0.77" transform="translate(1.653 7.36)" fill="#005cea"/>
          <rect id="Rectangle_7001" data-name="Rectangle 7001" width="6.354" height="0.77" transform="translate(1.653 9.167)" fill="#005cea"/>
        </g>
      </g>
      <g id="Group_1769" data-name="Group 1769" transform="translate(1.702 5.953)">
        <circle id="Ellipse_208" data-name="Ellipse 208" cx="3.348" cy="3.348" r="3.348" transform="translate(9.515 9.437) rotate(-77.096)" fill="#fff"/>
        <g id="Group_1767" data-name="Group 1767" transform="translate(6.606)">
          <path id="Path_5889" data-name="Path 5889" d="M476.006,345.009a6.121,6.121,0,0,0,.818-2.284l.251.037.492.075h.005a6.917,6.917,0,0,0-.128-2.674l-.733.182a6.085,6.085,0,0,0-1.038-2.193l.61-.449a6.845,6.845,0,0,0-1.984-1.8l-.39.647a6.118,6.118,0,0,0-2.284-.818l.107-.749a6.916,6.916,0,0,0-2.674.128l.182.733a6.085,6.085,0,0,0-2.193,1.038l-.449-.61a6.845,6.845,0,0,0-1.8,1.984l.647.39a6.118,6.118,0,0,0-.818,2.284l-.529-.08-.214-.032h0a6.915,6.915,0,0,0,.128,2.674l.733-.182a6.177,6.177,0,0,0,1.038,2.193l-.61.449a6.824,6.824,0,0,0,1.979,1.8l.39-.647a6.225,6.225,0,0,0,2.284.824l-.086.583-.021.166a6.916,6.916,0,0,0,2.674-.128l-.182-.733a6.242,6.242,0,0,0,2.2-1.038l.449.61a6.953,6.953,0,0,0,1.8-1.979ZM469,344.694a3.345,3.345,0,1,1,4.594-1.139A3.35,3.35,0,0,1,469,344.694Z" transform="translate(-463.806 -334.906)" fill="#005cea"/>
        </g>
        <g id="Group_1768" data-name="Group 1768" transform="translate(0 7.873)">
          <path id="Path_5890" data-name="Path 5890" d="M346.579,483.886a3.214,3.214,0,0,0-.9-.9l.075-.112.144-.219v-.005a3.554,3.554,0,0,0-1.3-.54l-.08.39a3.213,3.213,0,0,0-1.278-.005l-.075-.39a3.59,3.59,0,0,0-1.305.535l.219.332a3.215,3.215,0,0,0-.9.9l-.332-.219a3.554,3.554,0,0,0-.54,1.3l.39.08a3.213,3.213,0,0,0-.005,1.278l-.39.075a3.589,3.589,0,0,0,.535,1.305l.332-.219a3.214,3.214,0,0,0,.9.9l-.155.235-.064.1h0a3.555,3.555,0,0,0,1.3.54l.08-.39a3.214,3.214,0,0,0,1.278,0l.075.39a3.534,3.534,0,0,0,1.305-.535l-.219-.332a3.306,3.306,0,0,0,.909-.9l.257.171.075.048a3.555,3.555,0,0,0,.54-1.3l-.39-.08a3.315,3.315,0,0,0,.005-1.278l.39-.075a3.767,3.767,0,0,0-.535-1.305Zm-1.733,3.263a1.762,1.762,0,1,1,.492-2.439A1.761,1.761,0,0,1,344.846,487.149Z" transform="translate(-340.3 -482.1)" fill="#1251b3"/>
        </g>
      </g>
      <g id="Group_1770" data-name="Group 1770" transform="translate(54.279 17.18)">
        <path id="Path_5891" data-name="Path 5891" d="M1331.724,550.036h-8.092a.333.333,0,0,1-.332-.332v-4.573a.333.333,0,0,1,.332-.332h8.092a.333.333,0,0,1,.332.332V549.7A.333.333,0,0,1,1331.724,550.036Z" transform="translate(-1323.3 -544.8)" fill="#005cea"/>
        <rect id="Rectangle_7002" data-name="Rectangle 7002" width="8.756" height="0.904" transform="translate(0 0.984)" fill="#5896fa"/>
        <path id="Path_5892" data-name="Path 5892" d="M1335.339,623.9h-1.289a.15.15,0,0,0-.15.15h0a.15.15,0,0,0,.15.15h1.289a.149.149,0,0,0,.15-.15h0A.153.153,0,0,0,1335.339,623.9Z" transform="translate(-1333.333 -619.669)" fill="#d1f5ff"/>
        <path id="Path_5893" data-name="Path 5893" d="M1372.339,623.9h-1.289a.15.15,0,0,0-.15.15h0a.15.15,0,0,0,.15.15h1.289a.15.15,0,0,0,.15-.15h0A.15.15,0,0,0,1372.339,623.9Z" transform="translate(-1368.354 -619.669)" fill="#d1f5ff"/>
        <path id="Path_5894" data-name="Path 5894" d="M1409.339,623.9h-1.289a.149.149,0,0,0-.15.15h0a.15.15,0,0,0,.15.15h1.289a.15.15,0,0,0,.15-.15h0A.15.15,0,0,0,1409.339,623.9Z" transform="translate(-1403.375 -619.669)" fill="#d1f5ff"/>
        <path id="Path_5895" data-name="Path 5895" d="M1446.339,623.9h-1.289a.149.149,0,0,0-.15.15h0a.149.149,0,0,0,.15.15h1.289a.15.15,0,0,0,.15-.15h0A.146.146,0,0,0,1446.339,623.9Z" transform="translate(-1438.396 -619.669)" fill="#d1f5ff"/>
        <path id="Path_5896" data-name="Path 5896" d="M1332.666,549.7h0a.167.167,0,0,0-.166.166v.059a.167.167,0,0,0,.166.166h0a.167.167,0,0,0,.166-.166v-.059A.167.167,0,0,0,1332.666,549.7Z" transform="translate(-1332.008 -549.438)" fill="#d1f5ff"/>
        <path id="Path_5897" data-name="Path 5897" d="M1342.2,549.893h0a.192.192,0,0,0,.193.193h.68a.192.192,0,0,0,.193-.193h0a.192.192,0,0,0-.193-.193h-.68A.192.192,0,0,0,1342.2,549.893Z" transform="translate(-1341.189 -549.438)" fill="#d1f5ff"/>
        <path id="Path_5898" data-name="Path 5898" d="M1336.07,589.2h.845a.274.274,0,0,1,.273.273v.722a.274.274,0,0,1-.273.273h-.845a.274.274,0,0,1-.273-.273v-.722A.267.267,0,0,1,1336.07,589.2Z" transform="translate(-1335.129 -586.825)" fill="#5896fa"/>
      </g>
      <g id="Group_1775" data-name="Group 1775" transform="translate(53.278 32.065)">
        <g id="Group_1771" data-name="Group 1771" transform="translate(0 2.599)">
          <path id="Path_5899" data-name="Path 5899" d="M1310.82,872.791v-.6a.491.491,0,0,0-.492-.492h-5.236a.491.491,0,0,0-.492.492v10.574h13.543v-9.975Z" transform="translate(-1304.6 -871.7)" fill="#1251b3"/>
          <path id="Path_5900" data-name="Path 5900" d="M1318.8,898.9h-13.28l-.824,9.611h13.478Z" transform="translate(-1304.695 -897.445)" fill="#fff"/>
          <path id="Path_5901" data-name="Path 5901" d="M1318.243,902.075H1304.7l1.439-9.494a.565.565,0,0,1,.561-.481h12.4a.568.568,0,0,1,.562.653Z" transform="translate(-1304.695 -891.009)" fill="#3383ff"/>
        </g>
        <g id="Group_1774" data-name="Group 1774" transform="translate(10.915 0)">
          <g id="Group_1772" data-name="Group 1772" transform="translate(0)">
            <circle id="Ellipse_209" data-name="Ellipse 209" cx="3.102" cy="3.102" r="3.102" transform="translate(0 2.374) rotate(-22.5)" fill="#005cea"/>
            <path id="Path_5902" data-name="Path 5902" d="M1527.42,845.229a3.214,3.214,0,1,1,3.219-3.214A3.222,3.222,0,0,1,1527.42,845.229Zm0-6.2a2.99,2.99,0,1,0,2.99,2.99A2.995,2.995,0,0,0,1527.42,839.025Z" transform="translate(-1523.37 -837.961)" fill="#fff"/>
          </g>
          <g id="Group_1773" data-name="Group 1773" transform="translate(2.558 1.952)">
            <path id="Path_5903" data-name="Path 5903" d="M1556.5,888.4v2.2a6.148,6.148,0,0,0,2.99,0v-2.2Zm1.642,1.166v.62a.15.15,0,1,1-.3,0v-.626a.363.363,0,1,1,.3.005Z" transform="translate(-1556.5 -886.86)" fill="#fff"/>
            <path id="Path_5904" data-name="Path 5904" d="M1563.671,860.98h-.3v-.15a.93.93,0,1,0-1.861,0v.15h-.305v-.15a1.23,1.23,0,1,1,2.46,0v.15Z" transform="translate(-1560.949 -859.6)" fill="#fff"/>
          </g>
        </g>
      </g>
      <circle id="Ellipse_210" data-name="Ellipse 210" cx="1.187" cy="1.187" r="1.187" transform="translate(56.279 8.959)" fill="#aae0ff"/>
      <circle id="Ellipse_211" data-name="Ellipse 211" cx="1.187" cy="1.187" r="1.187" transform="translate(24.901 15.548) rotate(-80.248)" fill="#aae0ff"/>
      <circle id="Ellipse_212" data-name="Ellipse 212" cx="0.62" cy="0.62" r="0.62" transform="translate(65.179 29.776)" fill="#fff"/>
      <circle id="Ellipse_213" data-name="Ellipse 213" cx="0.62" cy="0.62" r="0.62" transform="matrix(0.228, -0.974, 0.974, 0.228, 0, 32.024)" fill="#aae0ff"/>
      <circle id="Ellipse_214" data-name="Ellipse 214" cx="1.187" cy="1.187" r="1.187" transform="matrix(0.901, -0.434, 0.434, 0.901, 8.889, 53.656)" fill="#aae0ff"/>
      <g id="Group_1776" data-name="Group 1776" transform="translate(28.231 0.177)">
        <path id="Path_5905" data-name="Path 5905" d="M857.2,229.51h0a.2.2,0,0,1-.2-.2v-2.2a.2.2,0,0,1,.2-.2h0a.2.2,0,0,1,.2.2v2.2A.207.207,0,0,1,857.2,229.51Z" transform="translate(-855.893 -226.9)" fill="#aae0ff"/>
        <path id="Path_5906" data-name="Path 5906" d="M836.3,247.6h0a.2.2,0,0,1,.2-.2h2.2a.2.2,0,0,1,.2.2h0a.2.2,0,0,1-.2.2h-2.2A.2.2,0,0,1,836.3,247.6Z" transform="translate(-836.3 -246.304)" fill="#aae0ff"/>
      </g>
      <g id="Group_1777" data-name="Group 1777" transform="translate(51.663 28.476)">
        <path id="Path_5907" data-name="Path 5907" d="M1295.2,758.61h0a.2.2,0,0,1-.2-.2v-2.2a.2.2,0,0,1,.2-.2h0a.2.2,0,0,1,.2.2v2.2A.2.2,0,0,1,1295.2,758.61Z" transform="translate(-1293.898 -756)" fill="#fff"/>
        <path id="Path_5908" data-name="Path 5908" d="M1274.4,776.7h0a.2.2,0,0,1,.2-.2h2.2a.2.2,0,0,1,.2.2h0a.2.2,0,0,1-.2.2h-2.2A.2.2,0,0,1,1274.4,776.7Z" transform="translate(-1274.4 -775.404)" fill="#fff"/>
      </g>
      <g id="Group_1778" data-name="Group 1778" transform="translate(49.422 57.503)">
        <path id="Path_5909" data-name="Path 5909" d="M1253.3,1301.31h0a.2.2,0,0,1-.2-.2v-2.2a.2.2,0,0,1,.2-.2h0a.2.2,0,0,1,.2.2v2.2A.2.2,0,0,1,1253.3,1301.31Z" transform="translate(-1251.998 -1298.7)" fill="#fff"/>
        <path id="Path_5910" data-name="Path 5910" d="M1232.5,1319.5h0a.2.2,0,0,1,.2-.2h2.2a.2.2,0,0,1,.2.2h0a.2.2,0,0,1-.2.2h-2.2A.2.2,0,0,1,1232.5,1319.5Z" transform="translate(-1232.5 -1318.198)" fill="#fff"/>
      </g>
      <circle id="Ellipse_215" data-name="Ellipse 215" cx="0.658" cy="0.658" r="0.658" transform="translate(31.729 43.003)" fill="none" stroke="#fff" stroke-miterlimit="10" stroke-width="4.226"/>
    </g>
    <g id="male" transform="translate(203.225 271.731)">
      <g id="Group_1793" data-name="Group 1793">
        <g id="Group_1781" data-name="Group 1781" transform="translate(0 13.375)">
          <path id="Path_5911" data-name="Path 5911" d="M1163.059,2124.722h-2.771L1160,2118.7h3.343Z" transform="translate(-1154.093 -2078.845)" fill="#0e0e0e"/>
          <path id="Path_5912" data-name="Path 5912" d="M2062.954,2124.722h-2.765l-.289-6.022h3.343Z" transform="translate(-2005.861 -2078.845)" fill="#0e0e0e"/>
          <path id="Path_5913" data-name="Path 5913" d="M1193.924,1402.95q-.457,1.42-1,2.915h-45.976s-5.932-24.149,0-28.567a3.565,3.565,0,0,1,.546-.332c7.991-4.108,40.029-5.07,46.533.214a1.52,1.52,0,0,1,.139.123C1196.566,1379.5,1198.647,1388.284,1193.924,1402.95Z" transform="translate(-1139.243 -1373.546)" fill="#ea7b00"/>
          <path id="Path_5914" data-name="Path 5914" d="M1211.124,1678.328H1193.8l1.69-16.928C1198.512,1662.711,1206.551,1669.632,1211.124,1678.328Z" transform="translate(-1186.085 -1646.004)" fill="#982c20"/>
          <path id="Path_5915" data-name="Path 5915" d="M1758.7,1672.19q-.457,1.42-1,2.915H1741c2.872-5.327,9.836-13.393,16.6-17.1Z" transform="translate(-1704.018 -1642.786)" fill="#982c20"/>
          <path id="Path_5916" data-name="Path 5916" d="M1110,1657h-6.375a2.134,2.134,0,0,0-2.118,1.856l-2.032,15.372h-37.253l-2.032-15.372a2.135,2.135,0,0,0-2.118-1.856H1051.7a2.133,2.133,0,0,0-2.1,2.508l3.541,25.6h55.427l3.541-25.6A2.133,2.133,0,0,0,1110,1657Z" transform="translate(-1049.559 -1641.839)" fill="#ea7b00"/>
          <g id="Group_1780" data-name="Group 1780" transform="translate(11.15 23.313)">
            <g id="Group_1779" data-name="Group 1779">
              <path id="Path_5917" data-name="Path 5917" d="M1296.413,1810.09c3,1.005,2.412,7.354,0,8.333h-36.386c-2.717-.7-2.947-9.1.973-8.472C1284.983,1814.46,1286.143,1807.266,1296.413,1810.09Z" transform="translate(-1258.016 -1809.411)" fill="#f2b066"/>
            </g>
          </g>
        </g>
        <g id="Group_1792" data-name="Group 1792" transform="translate(18.642)">
          <path id="Path_5918" data-name="Path 5918" d="M1457.384,1353.383a33.856,33.856,0,0,0,.252,4.536H1474.7l1.011-16.661c-1.016-6.087-3.786-7.558-8.178-7.558-3.931,0-6.547,3.2-8.14,7.5A37.194,37.194,0,0,0,1457.384,1353.383Z" transform="translate(-1454.212 -1322.456)" fill="#007880"/>
          <path id="Path_5919" data-name="Path 5919" d="M1457.4,1486.4l6.172-.369c-3.429-1.123-3.7-6.381-.214-9.654l-3.953-2.482A39.12,39.12,0,0,0,1457.4,1486.4Z" transform="translate(-1454.228 -1455.157)" fill="#005459"/>
          <path id="Path_5920" data-name="Path 5920" d="M1435.4,1709.68h23.443v-7.98h-21.116Z" transform="translate(-1433.405 -1670.773)" fill="#0e0e0e"/>
          <g id="Group_1784" data-name="Group 1784" transform="translate(17.223 30.879)">
            <g id="Group_1782" data-name="Group 1782" transform="translate(0.005)">
              <path id="Path_5921" data-name="Path 5921" d="M1731.405,1706.307l-6.3,22.881h-4.91c1.557-9.734,1.209-16.067,2.669-24.149C1724.147,1698.4,1732.93,1700.157,1731.405,1706.307Z" transform="translate(-1720.2 -1700.81)" fill="#0e0e0e"/>
            </g>
            <g id="Group_1783" data-name="Group 1783" transform="translate(0 24.001)">
              <path id="Path_5922" data-name="Path 5922" d="M1779,2176.213v-.043a3.07,3.07,0,0,1,6.14,0v.043Z" transform="translate(-1775.85 -2171.841)" fill="#b15626"/>
              <path id="Path_5923" data-name="Path 5923" d="M1726.909,2150.865l-1.118-.342c-.738-1.449-3.877-1.268-3.439.492a2.316,2.316,0,0,1-1.883-.428l-.369,3.337h6.659Z" transform="translate(-1720.1 -2149.552)" fill="#b15626"/>
            </g>
          </g>
          <g id="Group_1787" data-name="Group 1787" transform="translate(0.604 30.879)">
            <g id="Group_1785" data-name="Group 1785">
              <path id="Path_5924" data-name="Path 5924" d="M1409.566,1706.307l6.3,22.881h4.91c-1.556-9.734-1.209-16.067-2.669-24.149C1416.824,1698.4,1408.042,1700.157,1409.566,1706.307Z" transform="translate(-1409.389 -1700.81)" fill="#0e0e0e"/>
            </g>
            <g id="Group_1786" data-name="Group 1786" transform="translate(2.097 24.001)">
              <path id="Path_5925" data-name="Path 5925" d="M1454.74,2176.213v-.043a3.07,3.07,0,0,0-6.14,0v.043Z" transform="translate(-1448.6 -2171.841)" fill="#b15626"/>
              <path id="Path_5926" data-name="Path 5926" d="M1495,2150.865l1.118-.342c.738-1.449,3.878-1.268,3.439.492a2.316,2.316,0,0,0,1.883-.428l.369,3.337h-6.659Z" transform="translate(-1492.518 -2149.552)" fill="#b15626"/>
            </g>
          </g>
          <path id="Path_5927" data-name="Path 5927" d="M1408.78,1343.7c2.305,1.4,2.631,5.547,1.449,7.2l-6.573,4.894,6.691,3.445-1.086,3.557s-6.985-.567-10.4-4.076C1395.58,1355.36,1403.581,1345.47,1408.78,1343.7Z" transform="translate(-1398.093 -1331.921)" fill="#007880"/>
          <path id="Path_5928" data-name="Path 5928" d="M1650.368,1351.94c-1.968-2.471-.61-6.3,1.9-6.183,8.178,2.877,10.7,10.868,8.109,14.457-2.22,3.075-11.981,4.257-11.981,4.257v-3.364l6.782-1.465S1651.684,1354.224,1650.368,1351.94Z" transform="translate(-1635.012 -1333.866)" fill="#007880"/>
          <g id="Group_1789" data-name="Group 1789" transform="translate(7.43 18.058)">
            <path id="Path_5929" data-name="Path 5929" d="M1551.026,1627.555a2.593,2.593,0,0,1,2.23-2.845c2.963-.54,4.033,1.086,4.316,2.252a.49.49,0,0,1-.455.594.5.5,0,0,1-.476-.4,1.148,1.148,0,0,0-.519-.8c.3.6.177,1.2-.658,1.2Z" transform="translate(-1550.261 -1615.858)" fill="#f7a594"/>
            <g id="Group_1788" data-name="Group 1788">
              <path id="Path_5930" data-name="Path 5930" d="M1544.451,1472.792l2.332-11.692h.492c-.16.808-2.45,12.5-2.525,12.869h-6.985l-.765-1.177Z" transform="translate(-1537 -1461.1)" fill="#99c1ff"/>
              <path id="Path_5931" data-name="Path 5931" d="M1684.525,1461.2h17.345l-2.567,12.863H1682Z" transform="translate(-1674.245 -1461.195)" fill="#fff"/>
            </g>
          </g>
          <g id="Group_1791" data-name="Group 1791" transform="translate(12.65)">
            <g id="Group_1790" data-name="Group 1790" transform="translate(0 7.473)">
              <path id="Path_5932" data-name="Path 5932" d="M1634.6,1268.345c0,1.332,3.99,2.214,5.29.813a1.476,1.476,0,0,0,.385-.792l.749-3.37-4.76-1.8-.145.439Z" transform="translate(-1634.6 -1263.2)" fill="#f7a594"/>
              <path id="Path_5933" data-name="Path 5933" d="M1670.632,1278.684l.749-3.37-4.5-1.214C1665.711,1277.577,1669.872,1280.347,1670.632,1278.684Z" transform="translate(-1664.957 -1273.517)" fill="#f4856d"/>
            </g>
            <path id="Path_5934" data-name="Path 5934" d="M1658.8,1139.5c-.251,3.311,2.364,6.226,4.562,6.375s5.22-2.305,5.472-5.616-1.792-6.167-4.562-6.375S1659.054,1136.191,1658.8,1139.5Z" transform="translate(-1657.492 -1133.318)" fill="#f7a594"/>
            <path id="Path_5935" data-name="Path 5935" d="M1661.187,1124.3c3.038-1.92,4.707-.113,6.22,1.8,1.059,1.348,1.813,2.31,3.134,2.514-2.541,3.2-7.622,1.091-9.221-2.118a3.851,3.851,0,0,1-3.8,3.166C1657.031,1127.632,1658.438,1123.519,1661.187,1124.3Z" transform="translate(-1656.202 -1123.481)" fill="#0e0e0e"/>
            <circle id="Ellipse_216" data-name="Ellipse 216" cx="1.321" cy="1.321" r="1.321" transform="translate(0.38 5.133) rotate(-9.218)" fill="#f7a594"/>
          </g>
        </g>
      </g>
    </g>
  </g>
</svg>
