<svg xmlns="http://www.w3.org/2000/svg" xmlns:xlink="http://www.w3.org/1999/xlink" width="139.47" height="91.667" viewBox="0 0 139.47 91.667">
  <defs>
    <clipPath id="clip-path">
      <path id="Path_5838" data-name="Path 5838" d="M149.121,113.262a17.88,17.88,0,0,1-35.761,0c0-9.875,8.006-21.352,17.88-21.352s17.88,11.477,17.88,21.352Z" transform="translate(-113.36 -91.91)" fill="none"/>
    </clipPath>
  </defs>
  <g id="Support-01" transform="translate(-98.864 -72.137)">
    <path id="Path_5704" data-name="Path 5704" d="M246.064,186.87A31.345,31.345,0,0,1,219.852,200.8H132.621c-17.534,0-22.325-24.828-10.952-36.37s-3.715-17.076,13.824-26.334c16.992-8.969,22.793,10.148,38.448-2.359s38.443-11.328,43.45,1.416,3.827,17.228,14.446,20.06,19.792,18.052,13.421,28.2c-.132.212.946,1.249.809,1.456Z" transform="translate(-12.503 -41.175)" fill="#bdcae0"/>
    <g id="Group_1694" data-name="Group 1694" transform="translate(102.981 117.543)">
      <g id="Group_1690" data-name="Group 1690" transform="translate(91.171 26.296)">
        <path id="Path_5705" data-name="Path 5705" d="M524.693,366.846c-10.283.874-17.216,20.147-42.923,8.563,0,0,2.822-8.414,15.469-13.66S524.693,366.846,524.693,366.846Z" transform="translate(-481.77 -360.265)" fill="#cddcf4"/>
        <path id="Path_5706" data-name="Path 5706" d="M495.88,391.79a71.723,71.723,0,0,1,8.309-3.646c.707-.271,1.423-.515,2.145-.754s1.441-.468,2.168-.692,1.456-.423,2.19-.62c.366-.1.732-.2,1.1-.294l1.107-.266,1.11-.254,1.117-.219,1.117-.219c.373-.072.749-.127,1.125-.184.752-.11,1.5-.236,2.257-.309s1.508-.187,2.27-.216a38.042,38.042,0,0,1,9.076.336,61.254,61.254,0,0,0-9,.473l-.557.062-.555.085-1.112.162c-.742.095-1.478.244-2.215.378-.368.072-.739.124-1.1.2l-1.1.229-1.1.229-1.092.261-1.095.251c-.363.087-.727.187-1.09.279l-1.09.281c-.363.092-.722.2-1.085.3-.724.2-1.448.393-2.165.615s-1.441.423-2.158.652c-2.872.893-5.716,1.879-8.571,2.879Z" transform="translate(-492.369 -378.089)" fill="#b0bdd1"/>
      </g>
      <g id="Group_1691" data-name="Group 1691" transform="translate(86.464 0)">
        <path id="Path_5707" data-name="Path 5707" d="M511.745,254.672C499.2,263.641,505,293.7,463.131,298.431c0,0-2.795-12.965,9.449-29.355S511.745,254.672,511.745,254.672Z" transform="translate(-462.857 -254.596)" fill="#dbe9ff"/>
        <path id="Path_5708" data-name="Path 5708" d="M475.15,308.491a70.372,70.372,0,0,1,6.617-11.281,79.5,79.5,0,0,1,8.451-10.039,69.44,69.44,0,0,1,10.066-8.439,45.291,45.291,0,0,1,11.671-5.923,72.781,72.781,0,0,0-10.833,7.068,104.419,104.419,0,0,0-9.616,8.578,128.352,128.352,0,0,0-8.613,9.611c-2.713,3.352-5.263,6.844-7.742,10.427Z" transform="translate(-472.091 -268.277)" fill="#cddcf4"/>
      </g>
      <g id="Group_1692" data-name="Group 1692" transform="translate(0 24.959)">
        <path id="Path_5709" data-name="Path 5709" d="M115.41,360.132c10.2,1.6,15.753,21.31,42.213,11.564,0,0-2.222-8.593-14.468-14.715s-27.745,3.153-27.745,3.153Z" transform="translate(-115.41 -354.891)" fill="#cddcf4"/>
        <path id="Path_5710" data-name="Path 5710" d="M167.276,385.637c-2.777-1.2-5.547-2.382-8.347-3.477-.7-.279-1.4-.535-2.105-.8s-1.409-.518-2.118-.766c-.356-.119-.7-.259-1.06-.376l-1.068-.358c-.356-.117-.709-.241-1.068-.353l-1.075-.326-1.073-.338-1.083-.306-1.083-.306c-.361-.1-.727-.179-1.088-.276-.727-.184-1.448-.386-2.182-.533l-1.1-.241-.547-.124-.552-.1a61.309,61.309,0,0,0-8.941-1.1,38.123,38.123,0,0,1,9.078.3c.757.082,1.5.244,2.247.376s1.488.3,2.23.468c.371.085.742.164,1.11.264l1.1.3,1.1.3,1.09.331,1.085.343c.361.117.717.246,1.075.371.717.249,1.436.49,2.14.774s1.416.545,2.113.844,1.4.582,2.085.9a71.72,71.72,0,0,1,8.033,4.221Z" transform="translate(-128.465 -370.519)" fill="#b0bdd1"/>
      </g>
      <g id="Group_1693" data-name="Group 1693" transform="translate(8.665 2.738)">
        <path id="Path_5711" data-name="Path 5711" d="M150.23,265.6c10.32,8.536,3.454,34.218,39.436,40.88,0,0,3.215-11.062-6.391-26.008S150.23,265.6,150.23,265.6Z" transform="translate(-150.23 -265.6)" fill="#dbe9ff"/>
        <path id="Path_5712" data-name="Path 5712" d="M208.346,313.791c-2.13-3.556-4.32-7.03-6.674-10.387s-4.858-6.59-7.53-9.681a100.776,100.776,0,0,0-8.533-8.78,70.2,70.2,0,0,0-9.778-7.453,42.653,42.653,0,0,1,10.693,6.371,65.579,65.579,0,0,1,8.994,8.675,74.9,74.9,0,0,1,7.339,10.1,65.861,65.861,0,0,1,5.49,11.161Z" transform="translate(-169.459 -274.531)" fill="#cddcf4"/>
      </g>
    </g>
    <g id="Group_1702" data-name="Group 1702" transform="translate(165.84 96.476)">
      <g id="Group_1695" data-name="Group 1695" transform="translate(0 31.321)">
        <path id="Path_5713" data-name="Path 5713" d="M388.335,354.53c-1.413,1.68-2.7,4.464-3.491,4.907s-2.138.595-3.4,4.676,5.131,3.521,5.131,3.521a9.445,9.445,0,0,0,3.842-5.37l2.74-2.431-4.818-5.3Z" transform="translate(-377.97 -339.915)" fill="#f6a397"/>
        <path id="Path_5714" data-name="Path 5714" d="M389.525,381.2a10.257,10.257,0,0,0,3.827-2.531c1.764-1.864,1.991-5.176,1.991-5.176l.844,1.578,1.69-1.807.814-.08.6.662-2.74,2.431a9.445,9.445,0,0,1-3.842,5.37,10.222,10.222,0,0,1-3.258-.291,1.473,1.473,0,0,1,.07-.157Z" transform="translate(-384.112 -353.923)" fill="#d65863"/>
        <path id="Path_5715" data-name="Path 5715" d="M413.176,295.8a11.5,11.5,0,0,0-4.106,4.422c-.976,1.949-7.082,8.954-7.473,9.578s3.434,7.254,6.493,8.877a71.187,71.187,0,0,1,7.284-7.344c2.665-2.016,1.754-9.163.52-11.567a18.776,18.776,0,0,0-2.718-3.967Z" transform="translate(-393.215 -295.8)" fill="#5470d3"/>
        <path id="Path_5716" data-name="Path 5716" d="M425.438,335.585v-3.979s.518-.207.923,1.135a3.684,3.684,0,0,1,.077,1.588l2.974-2.237c.122,2.5-.279,5.052-1.7,6.129a71.186,71.186,0,0,0-7.284,7.344,9.605,9.605,0,0,1-2.434-2.068c1.881-1.874,5.45-5.487,7.448-7.911Z" transform="translate(-405.55 -322.686)" fill="#314ec6"/>
        <path id="Path_5717" data-name="Path 5717" d="M368.883,400.87c-.508.159-.883.4-.883,1.043a5.175,5.175,0,0,0,.353,2.056c.244.4,1.5.637,1.5.637a15.692,15.692,0,0,0-.348-3.133,1.243,1.243,0,0,0-.617-.6Z" transform="translate(-368 -374.723)" fill="#f6a397"/>
        <path id="Path_5718" data-name="Path 5718" d="M368.894,411.923a1.9,1.9,0,0,1-.174-.463.858.858,0,0,0,.7.306l.953.3c.015.3.02.5.02.5s-1.254-.239-1.5-.637Z" transform="translate(-368.541 -382.677)" fill="#d65863"/>
        <path id="Path_5719" data-name="Path 5719" d="M372.41,396.98a1.305,1.305,0,0,0-1.237,1.172,11.047,11.047,0,0,0,0,2.717,5.271,5.271,0,0,0,1.68,1.172c.376.067,1.013-.045.926-.244S372.41,396.98,372.41,396.98Z" transform="translate(-370.309 -371.801)" fill="#f6a397"/>
        <path id="Path_5720" data-name="Path 5720" d="M371.08,410.68c.47.53,1.67.483,1.67.483a4.736,4.736,0,0,1,.592.744c.04.109.256.254.284.363a1.693,1.693,0,0,1-.771.062,5.246,5.246,0,0,1-1.662-1.152l-.109-.5h0Z" transform="translate(-370.313 -382.091)" fill="#d65863"/>
        <path id="Path_5721" data-name="Path 5721" d="M378.664,392.73c-1.9.107-2.252.284-2.319,1.058a13.505,13.505,0,0,0,.221,3.6,4.594,4.594,0,0,0,.684,1.394,1.215,1.215,0,0,0,.771.311,6.623,6.623,0,0,0,1.085-2.807,19.624,19.624,0,0,0-.443-3.554Z" transform="translate(-374.247 -368.608)" fill="#f6a397"/>
        <path id="Path_5722" data-name="Path 5722" d="M378.19,404.371a11.392,11.392,0,0,0,.336-2.842c.01-.659.622,2.787.348,3.733-.137.234-.234.378-.234.378a1.2,1.2,0,0,1-.771-.311,4.521,4.521,0,0,1-.684-1.391,1.41,1.41,0,0,1-.045-.134A1.122,1.122,0,0,0,378.19,404.371Z" transform="translate(-374.865 -375.155)" fill="#d65863"/>
        <path id="Path_5723" data-name="Path 5723" d="M387.554,394.748c-.119,1.055-1.5,1.436-1.657,1.966s-.045,1.018-.309,1.15-1.371-.485-1.326-1.194a1.37,1.37,0,0,1-.928.707c-.642.11-.8-.358-.684-1.063a9.017,9.017,0,0,0,.067-1.921,5.578,5.578,0,0,1,.154-2.541c.376-.928.883-1.747,1.9-1.59s1.635,1.436,2.187,1.879a2.968,2.968,0,0,1,.6,2.608Z" transform="translate(-378.978 -366.74)" fill="#f6a397"/>
        <path id="Path_5724" data-name="Path 5724" d="M389.213,402.837c.062-1.344.132-2.441.132-2.658s-.07-1.642.436-1.73c.077-.012,1.192.694,1.212,1.17s0,1.331-.346,1.575a15.577,15.577,0,0,0-1.436,1.642Z" transform="translate(-383.932 -372.904)" fill="#d65863"/>
      </g>
      <g id="Group_1696" data-name="Group 1696" transform="translate(18.841 17.644)">
        <path id="Path_5725" data-name="Path 5725" d="M476.21,280.924a12.287,12.287,0,0,0-4.788-4.029,87.69,87.69,0,0,0-11.589-4.678c-1.625-.391-8.177,2.665-10.328,3.638s-4.885,1.934-5.353,2.884c-1.56,3.18,1.53,7.687,1.545,17.131.007,4.947,1.135,16.071,1.135,16.071s24.759.047,25.107-.473,1.212-18.283,1.647-21.922a38.383,38.383,0,0,1,2.62-8.62Z" transform="translate(-443.712 -264.383)" fill="#5470d3"/>
        <path id="Path_5726" data-name="Path 5726" d="M444.247,307.453a13.9,13.9,0,0,1-.53-3.673,13.9,13.9,0,0,1,.53,3.673Z" transform="translate(-443.715 -288.117)" fill="#314ec6"/>
        <path id="Path_5727" data-name="Path 5727" d="M471.666,297.564c-.956-.358-3.223.264-3.638.408s.244-1.628.488-1.847a1.3,1.3,0,0,1,1.381-.5,2.9,2.9,0,0,1,1.483,1.369,4.084,4.084,0,0,0,.286.567Z" transform="translate(-461.877 -281.948)" fill="#314ec6"/>
        <path id="Path_5728" data-name="Path 5728" d="M494.273,300.606a21.3,21.3,0,0,1-2.807-1.16,8.847,8.847,0,0,0-4.086.072s2.79-1.886,4.415-1.869,2.242.6,2.372,1.12a10.825,10.825,0,0,1,.1,1.837Z" transform="translate(-476.513 -283.512)" fill="#314ec6"/>
        <path id="Path_5729" data-name="Path 5729" d="M459.856,344.544c.266-.259,16.437.259,16.76-1.431s.547-4.763.547-4.763a8.981,8.981,0,0,1-4.773.607c1.884-.615,4.614-3.708,4.743-4.616.4-2.8-1.1-10.529-1.1-10.529l1.1-2.207,1.284-.714a17.807,17.807,0,0,1,4.514,3.442,17.515,17.515,0,0,0-.321,1.8c-.408,3.432-1.2,19.413-1.583,21.668-5.01.184-14.088.518-20.162.727-2.944.007-5.009,0-5.009,0s-.037-1.463-.127-3.561a24.675,24.675,0,0,0,4.121-.421Z" transform="translate(-452.739 -300.969)" fill="#314ec6"/>
        <path id="Path_5730" data-name="Path 5730" d="M471.605,278.553c1.744-.212,4.549-1.722,5.654-1.2s1.364,1.851,1.593,2.08,1.2-.911,1.2-3.705.085-5.657-1.971-6.045-7.386,1.625-8.459,2.439a5.045,5.045,0,0,0-1.819,2.426c-.294.791-1.073,3.974-.714,4.007s1.364-2.048,2.113-2.113,1.931,2.17,2.4,2.113Z" transform="translate(-461.204 -262.467)" fill="#5470d3"/>
        <path id="Path_5731" data-name="Path 5731" d="M478.754,282.638a8.1,8.1,0,0,1-.916-2.713c.017-.732.179-1.234.99-1.463s1.155.212,1.2,1.316S478.754,282.638,478.754,282.638Z" transform="translate(-469.346 -269.056)" fill="#314ec6"/>
        <path id="Path_5732" data-name="Path 5732" d="M507.12,274.718c1.7-1.54,1.891-3.262,1.732-3.621s-.861-.617-.861-.617-.276,1.12-.114,1.4a12.658,12.658,0,0,1-.757,2.839Z" transform="translate(-491.341 -263.104)" fill="#314ec6"/>
        <path id="Path_5733" data-name="Path 5733" d="M496.242,293.121a8.561,8.561,0,0,1,1.287-.45,4.5,4.5,0,0,1,1.369-.162,1.217,1.217,0,0,1,.692.234c.184.174.324.331.48.508a5.259,5.259,0,0,1,.719,1.18.621.621,0,0,0,.142.211s0,.008.037-.015a.481.481,0,0,0,.095-.095,3.522,3.522,0,0,0,.331-.562,4.6,4.6,0,0,0,.4-1.259,10.935,10.935,0,0,0,.164-1.336c.04-.45.052-.9.057-1.354a11.61,11.61,0,0,1-.035,2.725,4.352,4.352,0,0,1-.378,1.331,3.716,3.716,0,0,1-.353.61.72.72,0,0,1-.144.144.307.307,0,0,1-.122.055.248.248,0,0,1-.159-.017.443.443,0,0,1-.169-.162,1.516,1.516,0,0,1-.092-.159,5.107,5.107,0,0,0-.677-1.14,6.573,6.573,0,0,0-.438-.49,1.128,1.128,0,0,0-.572-.212,4.421,4.421,0,0,0-1.324.092,10.985,10.985,0,0,0-1.311.331Z" transform="translate(-483.168 -277.781)" fill="#314ec6"/>
        <path id="Path_5734" data-name="Path 5734" d="M469.937,297.5a5.709,5.709,0,0,0-.58-.47,1.983,1.983,0,0,0-.311-.182.654.654,0,0,0-.154-.042.244.244,0,0,0-.062,0,.328.328,0,0,0-.055.03,3.446,3.446,0,0,0-1.023,1.02c-.142.2-.264.421-.431.625a1.811,1.811,0,0,1-.284.286.458.458,0,0,1-.221.1.212.212,0,0,1-.162-.052.286.286,0,0,1-.077-.119,1.072,1.072,0,0,1-.02-.413,3.767,3.767,0,0,1,.067-.378,7.145,7.145,0,0,1,.219-.724c-.035.249-.08.5-.1.744-.015.124-.022.246-.025.368a.913.913,0,0,0,.037.331.06.06,0,0,0,.025.035h.012a.264.264,0,0,0,.109-.065,1.464,1.464,0,0,0,.231-.259c.147-.189.264-.406.411-.62a4,4,0,0,1,.5-.592,2.865,2.865,0,0,1,.63-.453.476.476,0,0,1,.114-.045.517.517,0,0,1,.124,0,.72.72,0,0,1,.2.075,1.986,1.986,0,0,1,.316.231,4.033,4.033,0,0,1,.505.567Z" transform="translate(-460.865 -282.742)" fill="#314ec6"/>
        <path id="Path_5735" data-name="Path 5735" d="M480.56,248.077c.005.687.032,1.371.1,2.053.174,1.675,0,3.885.137,4.293.147.455,1.025,2.08,1.025,2.08a7.815,7.815,0,0,0,2.21-1.5c.65-.779,1.5-.819,2.633-1.968a5.607,5.607,0,0,0,1.657-4.5c-.032-.194-.231-2.14-.276-4.156s-2.16-3.546-4.176-3.546-3.22,2.989-3.282,5c-.025.826-.03,1.6-.027,2.23Z" transform="translate(-471.39 -240.84)" fill="#f6a397"/>
        <path id="Path_5736" data-name="Path 5736" d="M488.043,246.046c.045,2.016.244,3.962.276,4.156a4.179,4.179,0,0,1-.04,1.468c-.445.082-6.184.221-7.67-.47-.035-.488-.05-.976-.052-1.463,0-.627,0-1.4.027-2.23a7.576,7.576,0,0,1,.672-2.785l4.721-1.672a3.614,3.614,0,0,1,2.068,3Z" transform="translate(-471.388 -242.5)" fill="#d65863"/>
      </g>
      <g id="Group_1698" data-name="Group 1698" transform="translate(18.191 0)">
        <path id="Path_5737" data-name="Path 5737" d="M453.718,221.38a3.979,3.979,0,0,0-4.188,4.1c0,1.575.505,4.1,4.188,4.1,1.842,0,3.088-1.834,3.088-4.1S455.56,221.38,453.718,221.38Z" transform="translate(-447.432 -208.579)" fill="#504984"/>
        <path id="Path_5738" data-name="Path 5738" d="M456.273,225.41a3.006,3.006,0,0,0-3.163,3.093c0,1.19.381,3.093,3.163,3.093,1.391,0,2.332-1.386,2.332-3.093S457.664,225.41,456.273,225.41Z" transform="translate(-450.121 -211.606)" fill="#372d5b"/>
        <path id="Path_5739" data-name="Path 5739" d="M450.5,198.527c.179,1.068.709,1.476.946,2.917s-.393,3.531.545,5.355,2.459,4.218,3.335,4.32,7.906-1.085,10.278-5.8c.679-1.354,2.135-6.662.891-9.9s-3.27-6.211-7.948-6.3a7.868,7.868,0,0,0-8.043,9.414Z" transform="translate(-448.065 -184.342)" fill="#f6a397"/>
        <path id="Path_5740" data-name="Path 5740" d="M465.113,248.094a.825.825,0,0,0,.647-.254.679.679,0,0,0,.122-.51,1.5,1.5,0,0,1-1.264.274c-.055.336.2.48.5.488Z" transform="translate(-458.76 -228.071)" fill="#d65863"/>
        <path id="Path_5741" data-name="Path 5741" d="M455.733,184.125a3.147,3.147,0,0,0-.921-1.752,13.8,13.8,0,0,0-3.173-.878,18.165,18.165,0,0,1-2.8-.54,3.834,3.834,0,0,0,1.182,1.585s-3.307-.167-4.353-1.147c0,0,.2.806.406,1.349,0,0-1.62-.167-2.125-.809a10.91,10.91,0,0,0-.406,2.19s-1.946-2.663-1.451-4.778a7.6,7.6,0,0,1,1.17-2.924,10.79,10.79,0,0,1-2.16,0s1.8-1.575,3.151-2.611,5.4-1.08,5.4-1.08a6.225,6.225,0,0,1,.045-2.79s1.732,2.543,3.566,3.32a15.32,15.32,0,0,0,3.531,1.2,8.927,8.927,0,0,1,4.569,2.782,7.951,7.951,0,0,0,2.125,2.294,4.446,4.446,0,0,1-1.822-.674,6.849,6.849,0,0,1-.326,5.263A3.6,3.6,0,0,1,456,185.558a1.275,1.275,0,0,1-.261-1.431Z" transform="translate(-441.1 -169.94)" fill="#ba6454"/>
        <path id="Path_5742" data-name="Path 5742" d="M496.451,197.161a1.275,1.275,0,0,1-.261-1.431,3.165,3.165,0,0,0-.652-1.461,19.709,19.709,0,0,0-.577-8.879,10.49,10.49,0,0,0,1.535.485,16.562,16.562,0,0,1,2.031,4.41,10.956,10.956,0,0,1,.324,6.05,6.732,6.732,0,0,1-.6,1.461,3.21,3.21,0,0,1-1.8-.632Z" transform="translate(-481.557 -181.545)" fill="#874438"/>
        <path id="Path_5743" data-name="Path 5743" d="M493.611,193.011s.231-7.4-3.651-9.765a5.061,5.061,0,0,1,4.726,2.665,12.233,12.233,0,0,1,1.56,7.023c-.042,1.443-2.635.075-2.635.075Z" transform="translate(-477.801 -179.926)" fill="#504984"/>
        <path id="Path_5744" data-name="Path 5744" d="M500.058,221.38a3.979,3.979,0,0,1,4.188,4.1c0,1.575-.505,4.1-4.188,4.1-1.842,0-3.088-1.834-3.088-4.1S498.217,221.38,500.058,221.38Z" transform="translate(-483.066 -208.579)" fill="#504984"/>
        <path id="Path_5745" data-name="Path 5745" d="M502.78,226.876c0-2.008,1.326-3.636,2.961-3.636s2.872,1.628,2.872,3.636-1.237,3.636-2.872,3.636S502.78,228.884,502.78,226.876Z" transform="translate(-487.431 -209.976)" fill="#372d5b"/>
        <ellipse id="Ellipse_200" data-name="Ellipse 200" cx="2.016" cy="2.476" rx="2.016" ry="2.476" transform="translate(16.686 14.424)" fill="#504984"/>
        <g id="Group_1697" data-name="Group 1697" transform="translate(5.52 20.996)">
          <path id="Path_5746" data-name="Path 5746" d="M467.027,254.31a12.346,12.346,0,0,1-3.7.58c-.184-.025.192,2.018.851,2.093a3.812,3.812,0,0,0,2.526-.63c.55-.53.319-2.043.319-2.043Z" transform="translate(-463.282 -254.31)" fill="#d65863"/>
          <path id="Path_5747" data-name="Path 5747" d="M467.47,255.288c-.05-.182-.09-.326-.129-.468a14.547,14.547,0,0,1-3.24.453,3.875,3.875,0,0,0,.234.821c.017-.012,0,.027.012.015a4.014,4.014,0,0,0,3.121-.821Z" transform="translate(-463.897 -254.693)" fill="#fff"/>
        </g>
        <path id="Path_5748" data-name="Path 5748" d="M476.87,232.644c0-.373.184-.674.411-.674s.411.3.411.674-.184.674-.411.674S476.87,233.018,476.87,232.644Z" transform="translate(-467.968 -216.533)" fill="#3f1751"/>
        <path id="Path_5749" data-name="Path 5749" d="M457.99,233.914c0-.373.159-.674.353-.674s.353.3.353.674-.159.674-.353.674S457.99,234.288,457.99,233.914Z" transform="translate(-453.787 -217.487)" fill="#3f1751"/>
        <path id="Path_5750" data-name="Path 5750" d="M475.076,222.586a4.3,4.3,0,0,0-1.856-.5,2.366,2.366,0,0,0-.985.1,1.82,1.82,0,0,0-.814.57l.025.04c.338-.037.62-.119.916-.159s.57-.149.871-.174a5.25,5.25,0,0,1,1.827.164l.02-.042Z" transform="translate(-463.875 -209.105)" fill="#3f1751"/>
        <path id="Path_5751" data-name="Path 5751" d="M453.13,225.79a1.823,1.823,0,0,1,.453-.109,4.043,4.043,0,0,1,.458-.03,1.846,1.846,0,0,0,.453.015,1.379,1.379,0,0,0,.229-.065.983.983,0,0,0,.246-.122l0-.047a.892.892,0,0,0-.483-.236,1.133,1.133,0,0,0-.5.082,2.213,2.213,0,0,0-.478.179,1.556,1.556,0,0,0-.411.3Z" transform="translate(-450.114 -211.438)" fill="#3f1751"/>
      </g>
      <g id="Group_1701" data-name="Group 1701" transform="translate(12.814 33.272)">
        <path id="Path_5752" data-name="Path 5752" d="M432.636,409.624c0,.1-.144.256-.5.256H420.863c-1.3,0-1.6-.515-1.212-1.165s2.036-2.08,6.109-3.076a6.037,6.037,0,0,1,6.876,2.384A1.647,1.647,0,0,1,432.636,409.624Z" transform="translate(-419.492 -380.074)" fill="#504984"/>
        <path id="Path_5753" data-name="Path 5753" d="M419.575,412.024c.224.747,8.824.356,8.824.356s-.871-1.177-1.837-1.212a13.413,13.413,0,0,0-2.725.523c-1.292.221-.333-.525-.333-.525a4.336,4.336,0,0,1-1.284-.49s2.13-.63,3.024-.776a20.012,20.012,0,0,1,3.462,0,5.2,5.2,0,0,1,2.526-.269,5.672,5.672,0,0,1,1.428,1.5,1.647,1.647,0,0,1,0,1.6c0,.1-.144.256-.5.256H420.886c-1.167,0-1.528-.413-1.309-.968Z" transform="translate(-419.51 -383.189)" fill="#372d5b"/>
        <path id="Path_5754" data-name="Path 5754" d="M462.682,376.746s-8.016,1.239-12.358,2.016c-4.116.737-7.667,1.055-8.675.861a54.082,54.082,0,0,1-5.557-1.916,8.374,8.374,0,0,0-4.452-.358,14.689,14.689,0,0,1-2.523.747c-.455,0-.368.737.239.888a4.517,4.517,0,0,0,1.147.129s-2.058,1.127-2.426,1.234.067.779.567.737c0,0-.436.259-.284.52s1.234.259,1.234.259-1.321.65-.216.911,2.426-.976,2.969-1.083a3.741,3.741,0,0,1,2.4.411,7,7,0,0,0,6.759,1.3s24.114.978,26.518.978,3.857-2.125,3.086-6.219a31.173,31.173,0,0,0-2.265-7.15l-8.319.585,2.155,5.149Z" transform="translate(-425.837 -354.244)" fill="#f6a397"/>
        <g id="Group_1699" data-name="Group 1699" transform="translate(3.133 24.137)">
          <path id="Path_5755" data-name="Path 5755" d="M445.87,400.715a3.028,3.028,0,0,1,.488-.085Z" transform="translate(-442.438 -400.63)" fill="#d65863"/>
          <path id="Path_5756" data-name="Path 5756" d="M433.613,401.612a4.51,4.51,0,0,1-1.147-.129.705.705,0,0,1-.386-.239,3.207,3.207,0,0,0,1.959,0c.286-.067.99-.2,1.473-.284A11.369,11.369,0,0,0,433.613,401.612Z" transform="translate(-432.08 -400.878)" fill="#d65863"/>
        </g>
        <g id="Group_1700" data-name="Group 1700" transform="translate(2.244 25.797)">
          <path id="Path_5757" data-name="Path 5757" d="M438.67,407.35a1.272,1.272,0,0,1,.124-.05S438.747,407.32,438.67,407.35Z" transform="translate(-436.142 -407.3)" fill="#d65863"/>
          <path id="Path_5758" data-name="Path 5758" d="M428.51,408.242s.246.216.747,0c.418-.182,1.428-.6,1.782-.742-.443.2-1.645.881-1.966,1A.692.692,0,0,1,428.51,408.242Z" transform="translate(-428.51 -407.45)" fill="#d65863"/>
        </g>
        <path id="Path_5759" data-name="Path 5759" d="M431.151,410.525c.368-.109,1.137-.575,1.608-.8a3.277,3.277,0,0,1,1.073-.249,2.319,2.319,0,0,0-.65.249c-.47.231-1.762,1.035-1.762,1.035a3.969,3.969,0,0,1-1.05-.134A3.137,3.137,0,0,0,431.151,410.525Z" transform="translate(-427.663 -383.141)" fill="#d65863"/>
        <path id="Path_5760" data-name="Path 5760" d="M450.476,411.8a7.22,7.22,0,0,0,3.9.747,1.837,1.837,0,0,0,1.463-1.234l.336,1.083s16.723.478,20.125.324c3.362-.152,8.605-.226,9.29-2.247-.187,2.344-1.458,3.551-3.267,3.551-2.4,0-26.518-.978-26.518-.978a6.99,6.99,0,0,1-6.759-1.3,3.593,3.593,0,0,0-2.075-.45h0A5.551,5.551,0,0,1,450.476,411.8Z" transform="translate(-440.132 -383.885)" fill="#d65863"/>
        <path id="Path_5761" data-name="Path 5761" d="M565.5,386.7s3.133-.426,3.76-.49l-.475-1.949-3.964.8.679,1.64Z" transform="translate(-528.654 -364.197)" fill="#d65863"/>
        <path id="Path_5762" data-name="Path 5762" d="M552.481,320.892a.812.812,0,0,1-.192.876c-1.456,1.421-3.367,3.359-5.333,3.656-2.145.326-5.719.455-5.913,0s-.911-6.239-2.21-9.163-2.145-4.42-2.469-6.109,2.6-5.654,3.9-5.98,4.29-.52,5.525.585,2.145,5.328,3.574,8.513c1.155,2.571,2.6,6.281,3.121,7.62Z" transform="translate(-507.262 -303.848)" fill="#5470d3"/>
        <path id="Path_5763" data-name="Path 5763" d="M545.915,303.911c-.4-.045-.8-.08-1.194-.087s-.8-.015-1.192.007a10.325,10.325,0,0,0-1.177.134c-.194.03-.386.077-.577.119a2.7,2.7,0,0,0-.528.214,3.493,3.493,0,0,0-.488.309c-.147.129-.3.246-.436.391a8.274,8.274,0,0,0-.771.893,11.638,11.638,0,0,0-.66.993c-.211.338-.4.689-.582,1.048a9.964,9.964,0,0,1,1.085-2.15,6.767,6.767,0,0,1,.759-.951,5.116,5.116,0,0,1,.453-.416,3.8,3.8,0,0,1,.52-.338,3.143,3.143,0,0,1,.585-.231c.2-.042.4-.09.6-.115a8.216,8.216,0,0,1,1.209-.092,10.014,10.014,0,0,1,2.391.269Z" transform="translate(-508.741 -303.64)" fill="#314ec6"/>
        <path id="Path_5764" data-name="Path 5764" d="M582.181,329.055a108.848,108.848,0,0,0-4.141-15.865h0c.824,1.812,1.593,4.708,2.643,7.048,1.155,2.571,2.6,6.281,3.121,7.62a.812.812,0,0,1-.192.876c-.557.545-1.182,1.165-1.852,1.74A1.934,1.934,0,0,0,582.181,329.055Z" transform="translate(-538.584 -310.813)" fill="#314ec6"/>
      </g>
    </g>
    <g id="Group_1708" data-name="Group 1708" transform="translate(117.705 130.897)">
      <g id="Group_1704" data-name="Group 1704" transform="translate(0 5.034)">
        <path id="Path_5765" data-name="Path 5765" d="M174.586,329.821a1.538,1.538,0,0,0,.182.926,6.648,6.648,0,0,1,.816,3.392,7.586,7.586,0,0,0,.027,2.314c.363,1.289,1.725,2.083,2.16,3.35.388,1.122.027,2.531.834,3.4a.751.751,0,0,0,.784.271.962.962,0,0,0,.338-.281c.923-1.05,1.914-2.324,1.628-3.693-.269-1.287-1.593-2.155-1.844-3.444-.2-1.053.333-2.27-.271-3.155-.167-.244-.406-.433-.587-.667-.717-.921-.453-2.391-1.279-3.215a1.915,1.915,0,0,0-.976-.5,1.514,1.514,0,0,0-1.814,1.3h0Z" transform="translate(-174.575 -328.487)" fill="#ba5e5b"/>
        <g id="Group_1703" data-name="Group 1703" transform="translate(1.644 1.72)">
          <path id="Path_5766" data-name="Path 5766" d="M185.322,351.354c.055-.687.08-1.371.1-2.061-.032-.687-.067-1.371-.127-2.058s-.137-1.371-.256-2.053a8.864,8.864,0,0,0-.57-2.006c-.5-1.259-.9-2.573-1.307-3.877l-.59-1.966q-.362-.963-.707-1.934c.1.682.256,1.351.393,2.026l.59,1.971c.408,1.309.806,2.618,1.316,3.907a8.364,8.364,0,0,1,.55,1.936c.119.667.194,1.344.254,2.023s.1,1.361.122,2.043l.224,2.046Z" transform="translate(-181.698 -335.4)" fill="#ffa6a4"/>
          <path id="Path_5767" data-name="Path 5767" d="M181.183,341.83a1.6,1.6,0,0,0,.416.413,2.342,2.342,0,0,0,.261.134,1,1,0,0,1,.239.164l.032.027.027-.042c.065-.1.144-.194.207-.294s.124-.2.177-.309a2.451,2.451,0,0,0,.221-.684l-.02-.01a2.418,2.418,0,0,0-.411.59c-.052.107-.095.219-.139.328s-.07.231-.109.343l.06-.015a1,1,0,0,1-.229-.179,2.72,2.72,0,0,0-.2-.212,1.589,1.589,0,0,0-.518-.274l-.012.017Z" transform="translate(-181.18 -339.779)" fill="#ffa6a4"/>
          <path id="Path_5768" data-name="Path 5768" d="M181.853,351.077c.117.1.239.2.366.289a3.1,3.1,0,0,0,.4.246c.142.067.291.122.426.2a2.53,2.53,0,0,1,.383.269l.042.035.042-.057a6.727,6.727,0,0,0,.5-.774,4.8,4.8,0,0,0,.361-.854l-.02-.01a4.912,4.912,0,0,0-.545.749,7.1,7.1,0,0,0-.406.829l.087-.022a2.963,2.963,0,0,1-.411-.224c-.129-.087-.244-.2-.368-.294a2.864,2.864,0,0,0-.4-.239,1.892,1.892,0,0,0-.448-.167l0,.022Z" transform="translate(-181.683 -346.682)" fill="#ffa6a4"/>
          <path id="Path_5769" data-name="Path 5769" d="M185.21,365.027a2.079,2.079,0,0,0,.421.314,1.687,1.687,0,0,0,.48.192,1.247,1.247,0,0,1,.463.221c.137.1.271.219.411.311l.1.067.077-.117a3.436,3.436,0,0,0,.3-.538,2.914,2.914,0,0,0,.192-.595l-.025-.012a2.777,2.777,0,0,0-.4.48,3.147,3.147,0,0,0-.294.54l.182-.047a2.956,2.956,0,0,0-.49-.194,1.474,1.474,0,0,1-.453-.251,1.483,1.483,0,0,0-.445-.266,1.831,1.831,0,0,0-.51-.129Z" transform="translate(-184.207 -357.536)" fill="#ffa6a4"/>
        </g>
      </g>
      <g id="Group_1706" data-name="Group 1706" transform="translate(4.325)">
        <path id="Path_5770" data-name="Path 5770" d="M193.987,331.1c.535-.087,2.546-.732,2.406-1.257-.6-2.252-1.2-4.808.881-5.91,1-.53,2.265-.8,2.837-1.782.59-1.01.154-2.294-.373-3.337a5.364,5.364,0,0,1-.938-3.307c.236-1.2,1.374-2.088,1.555-3.3.249-1.652-1.359-2.986-2.9-3.631a2.722,2.722,0,0,0-1.655-.274,2.022,2.022,0,0,0-1.008.652c-1.083,1.212-1.04,3.039-.791,4.646s.625,3.3.02,4.813c-.431,1.073-1.349,2.08-1.1,3.208.1.45.381.846.488,1.3.289,1.212-.717,2.3-1.18,3.464a4.254,4.254,0,0,0,.943,4.455.938.938,0,0,0,.819.269h0Z" transform="translate(-191.956 -308.259)" fill="#e67471"/>
        <g id="Group_1705" data-name="Group 1705" transform="translate(1.835 2.613)">
          <path id="Path_5771" data-name="Path 5771" d="M199.338,339.014c.124-.891.249-1.779.408-2.663.037-.221.085-.44.119-.659s.052-.443.09-.664q.1-.661.224-1.319a17.182,17.182,0,0,1,.672-2.571,5.345,5.345,0,0,1,.562-1.162,1.606,1.606,0,0,1,.406-.431,2.087,2.087,0,0,0,.542-.505,2.226,2.226,0,0,0,.391-1.4,6.7,6.7,0,0,0-.2-1.371c-.207-.886-.468-1.74-.612-2.611a6.02,6.02,0,0,1,.052-2.583c.07-.2.124-.408.192-.615a4.1,4.1,0,0,1,.256-.6,5.875,5.875,0,0,1,.752-1.1,5.059,5.059,0,0,0-.958.971,4.621,4.621,0,0,0-.376.587,2.379,2.379,0,0,0-.259.652,6.42,6.42,0,0,0-.062,2.76c.149.9.416,1.769.617,2.633a6.647,6.647,0,0,1,.192,1.287,1.817,1.817,0,0,1-.311,1.15,1.679,1.679,0,0,1-.44.406,1.97,1.97,0,0,0-.518.54,5.666,5.666,0,0,0-.61,1.254,17.6,17.6,0,0,0-.689,2.633q-.127.664-.229,1.336c-.03.224-.072.445-.1.669s-.032.45-.047.674c-.05.9-.082,1.8-.065,2.7Z" transform="translate(-199.331 -318.76)" fill="#ffa6a4"/>
          <path id="Path_5772" data-name="Path 5772" d="M207.509,329.475a1.417,1.417,0,0,0-.4.239,1.478,1.478,0,0,0-.316.331,2.125,2.125,0,0,1-.269.373,3.7,3.7,0,0,1-.351.3l.159.01c-.055-.114-.119-.224-.179-.333a3.28,3.28,0,0,0-.2-.321c-.07-.1-.149-.2-.224-.3s-.162-.194-.231-.3l-.027,0a1.086,1.086,0,0,0,.08.393,2.537,2.537,0,0,0,.164.353,2.306,2.306,0,0,0,.212.321,3.045,3.045,0,0,0,.244.3l.1.1.06-.095a2.661,2.661,0,0,1,.261-.376,1.809,1.809,0,0,1,.353-.289,1.757,1.757,0,0,0,.321-.316,2.61,2.61,0,0,0,.266-.376l-.017-.022Z" transform="translate(-203.941 -326.805)" fill="#ffa6a4"/>
          <path id="Path_5773" data-name="Path 5773" d="M205.825,342.374a2.286,2.286,0,0,0,.239.426,3.12,3.12,0,0,0,.306.368c.117.109.249.2.373.306a2.272,2.272,0,0,1,.326.348l.03.04.045-.035a3.5,3.5,0,0,0,.418-.386c.122-.139.251-.269.363-.413s.219-.291.321-.445.194-.311.3-.46l-.015-.022a1.922,1.922,0,0,0-.453.338,4.472,4.472,0,0,0-.378.406c-.117.142-.216.3-.326.443s-.2.321-.3.448l.075.005a1.968,1.968,0,0,1-.331-.343c-.092-.129-.177-.269-.274-.393a4.273,4.273,0,0,0-.328-.343,3.443,3.443,0,0,0-.373-.306l-.022.017Z" transform="translate(-204.205 -336.292)" fill="#ffa6a4"/>
          <path id="Path_5774" data-name="Path 5774" d="M208.98,352.3c-.169.2-.343.381-.525.557s-.373.329-.562.5a1.84,1.84,0,0,1-.654.381,2.415,2.415,0,0,1-.754.085l.112.08a5.05,5.05,0,0,0-.179-.61,3.27,3.27,0,0,0-.259-.58,2.946,2.946,0,0,0-.371-.525,1.372,1.372,0,0,0-.523-.376l-.015.022a2,2,0,0,1,.376.473c.1.172.194.351.281.533l.251.552c.082.187.154.378.226.567l.035.09.077-.012a4.343,4.343,0,0,0,.764-.219,7.721,7.721,0,0,0,.734-.3,2.135,2.135,0,0,0,1-1.2l-.025-.012Z" transform="translate(-203.777 -343.585)" fill="#ffa6a4"/>
          <path id="Path_5775" data-name="Path 5775" d="M200.443,361.873a1.53,1.53,0,0,0-.1.625,2.071,2.071,0,0,0,.117.627,2.275,2.275,0,0,0,.321.547l.376.5.027.035.042-.03a5.442,5.442,0,0,1,.654-.368c.219-.117.448-.219.674-.316s.455-.2.689-.286.47-.172.712-.261l0-.027a3.567,3.567,0,0,0-1.513.309,4.632,4.632,0,0,0-.679.378,4.553,4.553,0,0,0-.6.5l.07,0a1.708,1.708,0,0,1-.346-.5,4.339,4.339,0,0,1-.2-.565,4.4,4.4,0,0,1-.214-1.17l-.027-.005Z" transform="translate(-200.087 -351.142)" fill="#ffa6a4"/>
        </g>
      </g>
      <g id="Group_1707" data-name="Group 1707" transform="translate(0.728 19.045)">
        <path id="Path_5776" data-name="Path 5776" d="M179.486,394.4h5.739a1.152,1.152,0,0,0,1.065-1.083l.908-7.058a1.224,1.224,0,0,0-1.065-1.468h-7.555a1.224,1.224,0,0,0-1.065,1.468l.908,7.058A1.152,1.152,0,0,0,179.486,394.4Z" transform="translate(-177.5 -384.79)" fill="#504984"/>
        <path id="Path_5777" data-name="Path 5777" d="M178.577,384.79h3.862a1.224,1.224,0,0,0-1.065,1.468l.908,7.058a1.152,1.152,0,0,0,1.065,1.083h-3.862a1.152,1.152,0,0,1-1.065-1.083l-.908-7.058A1.224,1.224,0,0,1,178.577,384.79Z" transform="translate(-177.5 -384.79)" fill="#372d5b"/>
      </g>
    </g>
    <g id="Group_1715" data-name="Group 1715" transform="translate(127.554 116.827)">
      <g id="Group_1709" data-name="Group 1709" transform="translate(19.826 40.785)">
        <path id="Path_5778" data-name="Path 5778" d="M318.255,415.62h-24a.439.439,0,0,0-.438.438v1.063a.439.439,0,0,0,.438.438h24Z" transform="translate(-293.82 -415.618)" fill="#282142"/>
        <path id="Path_5779" data-name="Path 5779" d="M397.045,416.95v.433a.168.168,0,0,1-.169.169h-6.045a.34.34,0,0,1-.341-.341v-1.259a.34.34,0,0,1,.378-.338l6.025,1.17a.17.17,0,0,1,.149.169Z" transform="translate(-366.433 -415.611)" fill="#504984"/>
      </g>
      <g id="Group_1714" data-name="Group 1714" transform="translate(0 0)">
        <g id="Group_1712" data-name="Group 1712">
          <path id="Path_5780" data-name="Path 5780" d="M216.514,251.72h44.851a2.154,2.154,0,0,1,2.026,1.423l9.81,27.24c.411,1.406-.617,2.459-2.27,2.635a17.735,17.735,0,0,1-3.35-1.4h-40.1a2.154,2.154,0,0,1-2.026-1.423L216.6,255.585c-1.5-.781-2.352-1.229-2.352-1.229a2.1,2.1,0,0,1,2.27-2.635Z" transform="translate(-214.19 -251.72)" fill="#504984"/>
          <path id="Path_5781" data-name="Path 5781" d="M259.92,257.36H215.072a.921.921,0,0,0-.866,1.232l9.81,27.24a2.154,2.154,0,0,0,2.026,1.423h44.851a.921.921,0,0,0,.866-1.232l-9.81-27.24a2.154,2.154,0,0,0-2.026-1.423Z" transform="translate(-214.151 -255.956)" fill="#372d5b"/>
          <path id="Path_5782" data-name="Path 5782" d="M328.606,355.2l-1.991-7.386L319.07,355.2Z" transform="translate(-292.96 -323.897)" fill="#282142"/>
          <path id="Path_5783" data-name="Path 5783" d="M313.447,290.64a1.833,1.833,0,0,0,1.929,1.71,1.455,1.455,0,0,0,1.488-1.71,2.055,2.055,0,0,0-1.929-1.71A1.46,1.46,0,0,0,313.447,290.64Z" transform="translate(-288.721 -279.67)" fill="#504984"/>
          <g id="Group_1710" data-name="Group 1710" transform="translate(40.648 25.164)">
            <path id="Path_5784" data-name="Path 5784" d="M396.467,354.44l-.577-1.6h.724l.577,1.6Z" transform="translate(-391.311 -352.84)" fill="#282142"/>
            <path id="Path_5785" data-name="Path 5785" d="M390.327,354.44l-.577-1.6h.727l.577,1.6Z" transform="translate(-386.699 -352.84)" fill="#282142"/>
            <path id="Path_5786" data-name="Path 5786" d="M384.2,354.44l-.577-1.6h.724l.577,1.6Z" transform="translate(-382.095 -352.84)" fill="#282142"/>
            <path id="Path_5787" data-name="Path 5787" d="M378.065,354.44l-.575-1.6h.724l.577,1.6Z" transform="translate(-377.49 -352.84)" fill="#282142"/>
          </g>
          <g id="Group_1711" data-name="Group 1711" transform="translate(14.384 25.164)">
            <path id="Path_5788" data-name="Path 5788" d="M290.927,354.44l-.577-1.6h.724l.577,1.6Z" transform="translate(-285.771 -352.84)" fill="#282142"/>
            <path id="Path_5789" data-name="Path 5789" d="M284.795,354.44l-.575-1.6h.724l.577,1.6Z" transform="translate(-281.167 -352.84)" fill="#282142"/>
            <path id="Path_5790" data-name="Path 5790" d="M278.657,354.44l-.577-1.6h.724l.577,1.6Z" transform="translate(-276.555 -352.84)" fill="#282142"/>
            <path id="Path_5791" data-name="Path 5791" d="M272.525,354.44l-.575-1.6h.724l.577,1.6Z" transform="translate(-271.95 -352.84)" fill="#282142"/>
          </g>
        </g>
        <g id="Group_1713" data-name="Group 1713" transform="translate(19.017 21.377)">
          <path id="Path_5792" data-name="Path 5792" d="M295.687,356.72c.443-1.272,5.811-18.59,5.811-18.59h6.888l.455,2.411s-4.619,14.906-5.062,16.178c-.035.1-.065.194-.1.291h0c-.406,1.244.662,1.239,1.866,1.239H317.7v1.1H297.456C295.022,359.352,295.244,357.994,295.687,356.72Z" transform="translate(-294.203 -338.003)" fill="#372d5b"/>
          <path id="Path_5793" data-name="Path 5793" d="M304.75,338.12s-5.368,17.318-5.811,18.59-.664,2.633,1.769,2.633h-8.093c-2.434,0-2.212-1.359-1.769-2.633s5.811-18.59,5.811-18.59Z" transform="translate(-290.567 -337.996)" fill="#504984"/>
          <path id="Path_5794" data-name="Path 5794" d="M313.6,337.744c-.533-.025-1.068-.037-1.6-.055s-1.068-.022-1.6-.035-1.068-.025-1.6-.025l-1.6-.01h-.09l-.027.087c-.224.7-.443,1.4-.652,2.1l-.64,2.1c-.411,1.406-.821,2.812-1.2,4.228.493-1.381.951-2.772,1.409-4.163l.664-2.093c.224-.7.438-1.4.65-2.1l-.117.087,1.6-.01c.533,0,1.068-.015,1.6-.025s1.068-.015,1.6-.035,1.068-.03,1.6-.055Z" transform="translate(-301.1 -337.62)" fill="#7f74d1"/>
        </g>
      </g>
    </g>
    <g id="Group_1716" data-name="Group 1716" transform="translate(110.004 159.553)">
      <path id="Path_5795" data-name="Path 5795" d="M145.765,427.66H264.554a2.124,2.124,0,0,0,2.125-2.125h0a2.124,2.124,0,0,0-2.125-2.125H145.765a2.124,2.124,0,0,0-2.125,2.125h0A2.124,2.124,0,0,0,145.765,427.66Z" transform="translate(-143.638 -423.41)" fill="#8e5058"/>
      <path id="Path_5796" data-name="Path 5796" d="M145.758,434.075H264.547a2.124,2.124,0,0,0,2.125-2.125H143.63a2.124,2.124,0,0,0,2.125,2.125Z" transform="translate(-143.63 -429.825)" fill="#64364a"/>
    </g>
    <g id="Group_1725" data-name="Group 1725" transform="translate(98.864 76.921)">
      <circle id="Ellipse_201" data-name="Ellipse 201" cx="17.88" cy="17.88" r="17.88" transform="translate(0 34.82) rotate(-76.83)" fill="#5470d3"/>
      <g id="Group_1724" data-name="Group 1724" transform="translate(3.607 0.137)" clip-path="url(#clip-path)">
        <g id="Group_1723" data-name="Group 1723" transform="translate(-4.978 1.642)">
          <g id="Group_1717" data-name="Group 1717" transform="translate(25.642 8.187)">
            <path id="Path_5797" data-name="Path 5797" d="M252.009,233.615c.338,1.707-1.239,3.223-1.735,3.506a18.6,18.6,0,0,1-5.808,1.657c-1.993.047-4.624-4.171-3.549-4.644s8.414-1,9.218-1a5.773,5.773,0,0,1,1.871.473Z" transform="translate(-229.651 -207.822)" fill="#ffc5c7"/>
            <path id="Path_5798" data-name="Path 5798" d="M226.74,212.548c-.871,5.119-2.936,9.1-3.581,9.17s-6.841-2.061-8.548-2.844.525-12.794,1.588-12.582,3.394,2.518,5.318,3.626,5.226,2.63,5.226,2.63Z" transform="translate(-209.611 -187.653)" fill="#fff"/>
            <path id="Path_5799" data-name="Path 5799" d="M221.381,239.98c.6,1.025,5.52,3.621,8.232,4.567-.669,1.511-1.3,2.441-1.61,2.476a52.039,52.039,0,0,1-7.563-2.434,36.4,36.4,0,0,1,.938-4.609Z" transform="translate(-214.456 -212.96)" fill="#dcedff"/>
            <path id="Path_5800" data-name="Path 5800" d="M225.387,168.423c.05,2.031-1.779,2.322-3.969,1.8s-5.764-5.45-7.356-7.677-4.562-6.2-5.174-6.552a5.845,5.845,0,0,1-3.228-2.546c-1.2-2,.381-6.2.948-6.694s5.447,1.165,6.015,2-.4,5.353-.229,5.923a32.767,32.767,0,0,0,6.137,6.351c1.812,1.137,6.819,5.923,6.854,7.393Z" transform="translate(-203.023 -142.866)" fill="#ffc5c7"/>
            <path id="Path_5801" data-name="Path 5801" d="M219.2,156.339c-.575-.284-.712-1.575-.351-1.349a3.878,3.878,0,0,0,1.847.212,7.394,7.394,0,0,0,1.2-.085,7.392,7.392,0,0,1,.082,1.018s-2.21.49-2.782.2Z" transform="translate(-213.112 -149.101)" fill="#fe8a8b"/>
            <path id="Path_5802" data-name="Path 5802" d="M205.327,158.237c.348-.647.617-1.137.617-1.137l3.357,3.23a21.22,21.22,0,0,1,2.041-1.523l.3.528a10.717,10.717,0,0,0-1.028,3.335s-.515.57-.8.617c0,0,3.591,5.686,5.9,8.483,2.294,2.78,3.867,5.184,4.947,5.955-2.182-1.259-5.159-5.36-6.572-7.341-1.59-2.227-4.562-6.2-5.174-6.552a5.845,5.845,0,0,1-3.228-2.546,4.78,4.78,0,0,1-.351-3.048Z" transform="translate(-203.039 -150.705)" fill="#fe8a8b"/>
            <path id="Path_5803" data-name="Path 5803" d="M206.758,139.262a41.144,41.144,0,0,1-3.725,3.554.5.5,0,0,1-.358,0c-.886-.779-4.761-7.812-4.828-8.065-.065-.236,2.506-2.655,3.292-3.3a.7.7,0,0,1,.62.072c.791,1.172,5.054,7.314,5,7.742Z" transform="translate(-197.484 -131.404)" fill="#0c0835"/>
            <path id="Path_5804" data-name="Path 5804" d="M205.311,139.333a41.148,41.148,0,0,1-3.725,3.554c-.348.331-5.112-7.792-5.189-8.065-.065-.236,2.8-2.616,3.583-3.265a.221.221,0,0,1,.329.032c.791,1.172,5.054,7.314,5,7.742Z" transform="translate(-196.396 -131.475)" fill="#252384"/>
            <path id="Path_5805" data-name="Path 5805" d="M204.794,138.951a38.79,38.79,0,0,1-3.484,3.325c-.326.311-4.783-7.289-4.853-7.545-.06-.221,2.618-2.449,3.352-3.053a.206.206,0,0,1,.306.03C200.857,132.8,204.843,138.55,204.794,138.951Z" transform="translate(-196.441 -131.568)" fill="#57aff7"/>
            <path id="Path_5806" data-name="Path 5806" d="M218.217,137.679a3.731,3.731,0,0,1-1.207-1.722c-.057-.356-.022-.674.256-.747s1.132,1.043,1.558,1.374.946,1.018.734,1.481-1.157.284-1.259.214-.08-.6-.08-.6Z" transform="translate(-211.862 -134.26)" fill="#ffc5c7"/>
            <path id="Path_5807" data-name="Path 5807" d="M217.107,135.6c-.164.4.9,2.026,1.839,2.494l-.348.4-.361-.082a2.81,2.81,0,0,1-.017-.433,3.731,3.731,0,0,1-1.207-1.722.789.789,0,0,1,.1-.652Z" transform="translate(-211.865 -134.556)" fill="#fe8a8b"/>
            <path id="Path_5808" data-name="Path 5808" d="M219.185,146.559a10.033,10.033,0,0,0-2.068-.617c-.483-.2-.572-.941-.241-1.065a8.609,8.609,0,0,1,2.847.426c.515.231.764,1.294.764,1.294l-1.3-.04Z" transform="translate(-211.631 -141.503)" fill="#ffc5c7"/>
            <path id="Path_5809" data-name="Path 5809" d="M218.888,147.795a1.136,1.136,0,0,0,.674,0c-.015.2.172.294.381.572l-.667-.02a10.034,10.034,0,0,0-2.068-.617.722.722,0,0,1-.408-.5c.214.408,1.588.468,2.088.562Z" transform="translate(-211.722 -143.292)" fill="#fe8a8b"/>
            <path id="Path_5810" data-name="Path 5810" d="M222.945,152.552c-.475.657-2.8.371-3.267.3s-.764-.366-.714-.664c.1-.6,3.168-.5,3.422-.4s.56.766.56.766Z" transform="translate(-213.343 -146.66)" fill="#ffc5c7"/>
            <path id="Path_5811" data-name="Path 5811" d="M219.042,154.2a3.441,3.441,0,0,0,1.914.562,8.117,8.117,0,0,0,1.232.022,9.6,9.6,0,0,1-2.449-.065.778.778,0,0,1-.7-.52Z" transform="translate(-213.405 -148.527)" fill="#fe8a8b"/>
          </g>
          <g id="Group_1718" data-name="Group 1718" transform="translate(8.99 17.082)">
            <path id="Path_5812" data-name="Path 5812" d="M144.855,186.841c4.935,2.511,5.746,2.414,7.864,3.554s1.488,13.127,1.354,14.976-.645,9.193-.363,11.184,1.379,9.382,1.864,10.519,1.413,3.056-.02,4.193-4.467,1.919-11.049,1.493-13.682-4.479-14-5.047,3.148-11.017,3.292-13.008a26.719,26.719,0,0,1,.747-4.407c.209-.923-1.886-5.261-2.22-8.033s-3.347-10.42-2.775-11.821,5.816-2.961,9.389-4.743a4.815,4.815,0,0,1,5.915,1.14Z" transform="translate(-129.48 -180.652)" fill="#fff"/>
            <path id="Path_5813" data-name="Path 5813" d="M173.956,204.51a13.764,13.764,0,0,1-4.669,6.794,20.894,20.894,0,0,1-7.578-3.5,31.809,31.809,0,0,0,7.968,4.352,11.707,11.707,0,0,0,4.278-7.645Z" transform="translate(-153.689 -195.213)" fill="#dcedff"/>
            <path id="Path_5814" data-name="Path 5814" d="M165.046,188.681c-.948-.4-2.165-.963-3.885-1.837a4.817,4.817,0,0,0-5.915-1.14c-1.239.617-2.68,1.209-4.056,1.777a17.842,17.842,0,0,0,9.556,7.8,12.6,12.6,0,0,0,4.3-6.6Z" transform="translate(-145.787 -180.655)" fill="#ffc5c7"/>
            <path id="Path_5815" data-name="Path 5815" d="M133.549,268.917c-.314-.57,3.148-11.017,3.292-13.008a26.718,26.718,0,0,1,.747-4.407c.209-.923-1.886-5.261-2.22-8.033a14.851,14.851,0,0,0-.386-1.832l2.225-1.657c1.3,3.641,2.118,10.036,3.355,11.6s4.318,2.2,4.318,2.2a14.872,14.872,0,0,1-4.37.426,50.663,50.663,0,0,0-1.433,8.386c-.015,2.772.241,6.965.274,7.535.012.212-.035.953-.1,1.8a21.166,21.166,0,0,1-5.706-3.014Z" transform="translate(-132.522 -221.856)" fill="#dcedff"/>
            <path id="Path_5816" data-name="Path 5816" d="M167.023,167.15c-.05,2.966-.246,5-.9,5.572,0,0,1.13,4.922,5.644,4.5,1.528-.142,1.381-2.7.615-3.885l.455-3.638-5.808-2.551Z" transform="translate(-157.002 -167.15)" fill="#ffc5c7"/>
            <path id="Path_5817" data-name="Path 5817" d="M167.49,172.2h0a16.426,16.426,0,0,0,.56-5.049l5.808,2.551-.291,2.334h0c-1.03.463-6.077.167-6.077.167Z" transform="translate(-158.031 -167.15)" fill="#fe8a8b"/>
          </g>
          <g id="Group_1719" data-name="Group 1719" transform="translate(0 26.824)">
            <path id="Path_5818" data-name="Path 5818" d="M99.6,263.542c-1,1.374-2.339,4.786-1.837,6.351s5.681,8.531,8.05,11.136,2.907,3.034,3.32,3.885a40.82,40.82,0,0,0,2.961,4.9,2.68,2.68,0,0,0,1.483.6,2.528,2.528,0,0,0,2.08.64,7.867,7.867,0,0,0,2.135,1.03s.311.6.627.657.717-.587.137-1.866-1.538-1.812-1.692-2.63a16.843,16.843,0,0,0-.893-2.486s1.662,1.7,2.685,1.809,1.16-.5.6-1a13.027,13.027,0,0,1-1.966-2.2,3.9,3.9,0,0,0-2.82-1.777,7.629,7.629,0,0,1-2.553-.57,22.355,22.355,0,0,1-3.2-5.271c-1.165-2.606-2.2-5.938-5.164-8.862l1.3-2.275L99.6,263.54Z" transform="translate(-96.582 -249.295)" fill="#ffc5c7"/>
            <path id="Path_5819" data-name="Path 5819" d="M170.911,366.533a5.488,5.488,0,0,0-1.224-1.884l-.2-.2c-.06-.062-.164-.139-.189-.177-.1-.129-.189-.3-.289-.455-.187-.318-.371-.645-.577-.958a8.037,8.037,0,0,0,.381,1.07,3.059,3.059,0,0,0,.264.515,1.868,1.868,0,0,0,.209.211l.189.2c.256.261.5.538.742.814s.47.565.694.866Z" transform="translate(-149.747 -323.898)" fill="#fe8a8b"/>
            <path id="Path_5820" data-name="Path 5820" d="M166.026,366.713c-.2-.383-.428-.714-.635-1.063s-.411-.689-.607-1.07a2.2,2.2,0,0,0,.361,1.229,2.82,2.82,0,0,0,.881.9Z" transform="translate(-147.007 -325.19)" fill="#fe8a8b"/>
            <path id="Path_5821" data-name="Path 5821" d="M154.573,364.964a2.345,2.345,0,0,1-.985-.545,2.674,2.674,0,0,1-1.483-.6,13.935,13.935,0,0,1-1.185-1.764c.01.012.607.659,1.035,1.194a1.445,1.445,0,0,0,1.468.5l-.117-.692s.575,1.573,1.267,1.911Z" transform="translate(-136.595 -323.29)" fill="#fe8a8b"/>
            <path id="Path_5822" data-name="Path 5822" d="M97.743,282.08a5.246,5.246,0,0,0,1,2.867,135.183,135.183,0,0,0,9.009,11.48c1.418,1.493,1.376,1.588,2.217,3.947-.378-.667-.7-1.249-.834-1.533-.411-.854-.951-1.279-3.32-3.885s-7.548-9.573-8.05-11.136a3.864,3.864,0,0,1-.022-1.737Z" transform="translate(-96.585 -263.221)" fill="#fe8a8b"/>
            <path id="Path_5823" data-name="Path 5823" d="M116.908,274.177l-.528.881a3.035,3.035,0,0,1,1.234.732l1.03-1.749Z" transform="translate(-110.65 -257.182)" fill="#fe8a8b"/>
            <path id="Path_5824" data-name="Path 5824" d="M105.85,218.474c1.359-2.673,1.9-7.01.677-9.295s-3.541-3.106-4.109-2.832-2.105,3.837-3.551,5.48-5.388,6.256-5.507,6.644,2.849,3.521,8.436,5.823c.664.274,4.054-5.823,4.054-5.823Z" transform="translate(-93.356 -206.297)" fill="#fff"/>
            <path id="Path_5825" data-name="Path 5825" d="M119.248,245.868l-.891,1.827s4.39-4.4,6.211-7.685a13.255,13.255,0,0,1-1.177,3.785s-3.389,6.1-4.054,5.823c-.956-.393-1.829-.811-2.628-1.237l2.541-2.513Z" transform="translate(-110.898 -231.62)" fill="#dcedff"/>
          </g>
          <g id="Group_1722" data-name="Group 1722" transform="translate(13.163)">
            <path id="Path_5826" data-name="Path 5826" d="M158.24,115.855a20.279,20.279,0,0,1-.368-3.723c-.055-.936-.1-1.792-.951-2.349a3.146,3.146,0,0,0-2.128-.4c-1.961.249-2.382,2.16-2.232,3.969a13.363,13.363,0,0,0,1.192,3.989,3.043,3.043,0,0,1-2.138-1.01,4.282,4.282,0,0,0,1.132,2.073,6.385,6.385,0,0,1-5.136-3.24,10.949,10.949,0,0,1-1.339-6.241,12.465,12.465,0,0,1,2.526-7.112,9.143,9.143,0,0,1,13.085-1.023,9.43,9.43,0,0,1,2.688,4.452,14.776,14.776,0,0,1,.122,6.918,23.766,23.766,0,0,0-.383,2.693c-.03.291-.383,3.678-.179,3.666a4.6,4.6,0,0,1-3.73-1.195c.4.692.747,1.361,1.147,2.053a4.494,4.494,0,0,1-3.31-3.524Z" transform="translate(-146.251 -98.506)" fill="#372d5b"/>
            <path id="Path_5827" data-name="Path 5827" d="M160.541,125.5a1.427,1.427,0,0,0-1.846.017c-.806.816.338,4.621,2.075,3.7,0,0,2.516,3.519,4.362,4.514s3.163.5,3.855-.214a14.025,14.025,0,0,0,3.474-6.717c.152-1.1-.01-3.27.022-3.733.1-1.421.642-2.588-.48-3.705a6.5,6.5,0,0,0-4.3-1.866,6.955,6.955,0,0,0-5.355,2.342c-1.471,1.667-1.727,3.551-1.812,5.664Z" transform="translate(-155.4 -112.762)" fill="#ffc5c7"/>
            <path id="Path_5828" data-name="Path 5828" d="M160.64,152c.149-.7.744-.834,1.187-.348a3.611,3.611,0,0,1,.413,2.307c-.117.231-.9.217-1.043-.266s.306-.784.744-.64a1.648,1.648,0,0,0-.236-1.155c-.358-.453-.729-.279-.821-.162a3.543,3.543,0,0,1-.244.266Z" transform="translate(-157.059 -138.21)" fill="#fe8a8b"/>
            <g id="Group_1721" data-name="Group 1721" transform="translate(8.389 9.316)">
              <path id="Path_5829" data-name="Path 5829" d="M179.96,138.431a6.134,6.134,0,0,1,.535-.44,3.662,3.662,0,0,1,.6-.358,1.957,1.957,0,0,1,.667-.224,1.433,1.433,0,0,1,.679.09v.032c-.117.045-.224.075-.331.1l-.314.087c-.2.06-.416.077-.622.147a4.566,4.566,0,0,0-.607.256c-.2.1-.4.214-.592.331l-.017-.025Z" transform="translate(-179.96 -137.039)" fill="#3f1751"/>
              <path id="Path_5830" data-name="Path 5830" d="M203.851,136.537a2.3,2.3,0,0,0-.6-.219,3.2,3.2,0,0,0-.635-.075c-.214,0-.428.04-.642.037a6.047,6.047,0,0,1-.664-.017l-.007-.03a1.628,1.628,0,0,1,.662-.269,2.015,2.015,0,0,1,.692.025,2.763,2.763,0,0,1,.654.177,2.117,2.117,0,0,1,.562.343Z" transform="translate(-195.989 -135.943)" fill="#3f1751"/>
              <path id="Path_5831" data-name="Path 5831" d="M186.5,145.01c-.007-.3-.159-.53-.338-.513s-.319.276-.309.577.159.53.338.513S186.505,145.311,186.5,145.01Z" transform="translate(-184.383 -142.368)" fill="#3f1751"/>
              <path id="Path_5832" data-name="Path 5832" d="M205.919,143.466c-.007-.3-.132-.533-.279-.518s-.259.269-.251.57.132.533.279.518S205.926,143.767,205.919,143.466Z" transform="translate(-199.061 -141.204)" fill="#3f1751"/>
              <path id="Path_5833" data-name="Path 5833" d="M194.412,158.255a1.344,1.344,0,0,0,1.466-.015.68.68,0,0,1-.381.54.909.909,0,0,1-.682-.037c-.207-.095-.274-.3-.406-.488Z" transform="translate(-190.814 -152.691)" fill="#fe8a8b"/>
              <g id="Group_1720" data-name="Group 1720" transform="translate(1.951 7.049)">
                <path id="Path_5834" data-name="Path 5834" d="M187.8,164.549a41,41,0,0,0,4.153-.279,2.558,2.558,0,0,1-2.232,2A2.106,2.106,0,0,1,187.8,164.549Z" transform="translate(-187.8 -164.27)" fill="#c31f2a"/>
                <path id="Path_5835" data-name="Path 5835" d="M191.45,170.322a1.771,1.771,0,0,1,.956-.01,1.543,1.543,0,0,1,1.287-.127,1.946,1.946,0,0,1-1.232.463,1.7,1.7,0,0,1-1.01-.328Z" transform="translate(-190.542 -168.653)" fill="#fb8384"/>
                <path id="Path_5836" data-name="Path 5836" d="M192.5,165.239a4.852,4.852,0,0,1-3.044-.117q-.011-.224-.03-.448c.98-.02,2.566-.139,3.414-.234A2.825,2.825,0,0,1,192.5,165.239Z" transform="translate(-189.024 -164.398)" fill="#fff"/>
              </g>
            </g>
            <path id="Path_5837" data-name="Path 5837" d="M163.691,113.633a13.843,13.843,0,0,0,4.716-1.048,5.349,5.349,0,0,0,.336-1.956,5.7,5.7,0,0,1,.689,2.429c.941-.062,1.889-.112,2.829-.172a5.859,5.859,0,0,0,.254-2.3,10,10,0,0,1,.587,2.479,3.99,3.99,0,0,1,1.884.2c.737-1.64.687-4.609-.869-5.853a8.55,8.55,0,0,0-6-1.272,7.672,7.672,0,0,0-6.8,7.921A9.531,9.531,0,0,0,164.3,120.2a9.429,9.429,0,0,1-.607-6.567Z" transform="translate(-157.559 -104.171)" fill="#372d5b"/>
          </g>
        </g>
      </g>
    </g>
    <g id="Group_1727" data-name="Group 1727" transform="translate(141.312 82.235)">
      <circle id="Ellipse_202" data-name="Ellipse 202" cx="10.397" cy="10.397" r="10.397" transform="matrix(0.252, -0.968, 0.968, 0.252, 0, 20.126)" fill="#e67471"/>
      <g id="Group_1726" data-name="Group 1726" transform="translate(6.695 8.604)">
        <rect id="Rectangle_6978" data-name="Rectangle 6978" width="11.965" height="8.14" rx="3.43" transform="translate(11.965 8.14) rotate(180)" fill="#dbe9ff"/>
        <path id="Path_5839" data-name="Path 5839" d="M297.2,166.076h10.26a.853.853,0,0,0,.854-.854l-5.982-3.763-5.983,3.763a.853.853,0,0,0,.854.854Z" transform="translate(-296.348 -157.934)" fill="#cddcf4"/>
        <path id="Path_5840" data-name="Path 5840" d="M297.2,147.3h10.26a.853.853,0,0,1,.854.854l-5.982,3.763-5.983-3.763a.853.853,0,0,1,.854-.854Z" transform="translate(-296.348 -147.298)" fill="#5470d3"/>
      </g>
    </g>
    <g id="Group_1731" data-name="Group 1731" transform="translate(206.514 100.788)">
      <circle id="Ellipse_203" data-name="Ellipse 203" cx="10.397" cy="10.397" r="10.397" transform="translate(0 4.692) rotate(-13.04)" fill="#e67471"/>
      <g id="Group_1730" data-name="Group 1730" transform="translate(5.75 6.319)">
        <g id="Group_1728" data-name="Group 1728">
          <path id="Path_5841" data-name="Path 5841" d="M564.193,216.771h-1.045a3.666,3.666,0,0,0-.475-1.145l.739-.739a.257.257,0,0,0,0-.366l-.821-.821a.257.257,0,0,0-.366,0l-.739.739a3.716,3.716,0,0,0-1.145-.475v-1.045a.259.259,0,0,0-.259-.259H558.92a.259.259,0,0,0-.259.259v1.045a3.664,3.664,0,0,0-1.145.475l-.739-.739a.257.257,0,0,0-.366,0l-.821.821a.257.257,0,0,0,0,.366l.739.739a3.717,3.717,0,0,0-.475,1.145h-1.045a.259.259,0,0,0-.259.259v1.162a.259.259,0,0,0,.259.259h1.045a3.669,3.669,0,0,0,.475,1.145l-.739.739a.257.257,0,0,0,0,.366l.821.821a.257.257,0,0,0,.366,0l.739-.739a3.716,3.716,0,0,0,1.145.475V222.3a.259.259,0,0,0,.259.259h1.162a.259.259,0,0,0,.259-.259v-1.045a3.667,3.667,0,0,0,1.145-.475l.739.739a.257.257,0,0,0,.366,0l.821-.821a.257.257,0,0,0,0-.366l-.739-.739a3.714,3.714,0,0,0,.475-1.145h1.045a.259.259,0,0,0,.259-.259V217.03A.259.259,0,0,0,564.193,216.771Zm-4.693,2.444a1.605,1.605,0,1,1,1.605-1.605A1.606,1.606,0,0,1,559.5,219.215Z" transform="translate(-554.55 -212.66)" fill="#dbe9ff"/>
          <path id="Path_5842" data-name="Path 5842" d="M567.7,223.58a2.232,2.232,0,1,0,2.232,2.232A2.232,2.232,0,0,0,567.7,223.58Zm0,3.6a1.364,1.364,0,1,1,1.364-1.364A1.363,1.363,0,0,1,567.7,227.176Z" transform="translate(-562.753 -220.863)" fill="#5470d3"/>
        </g>
        <g id="Group_1729" data-name="Group 1729" transform="translate(9.178 6.587)">
          <path id="Path_5843" data-name="Path 5843" d="M596.362,241.233h-.535a1.842,1.842,0,0,0-.244-.585l.378-.378a.131.131,0,0,0,0-.187l-.421-.421a.131.131,0,0,0-.187,0l-.378.378a1.928,1.928,0,0,0-.585-.244v-.535a.133.133,0,0,0-.132-.132h-.595a.133.133,0,0,0-.132.132v.535a1.843,1.843,0,0,0-.585.244l-.378-.378a.131.131,0,0,0-.187,0l-.421.421a.131.131,0,0,0,0,.187l.378.378a1.924,1.924,0,0,0-.244.585h-.535a.133.133,0,0,0-.132.132v.595a.133.133,0,0,0,.132.132h.535a1.842,1.842,0,0,0,.244.585l-.378.378a.131.131,0,0,0,0,.187l.421.421a.131.131,0,0,0,.187,0l.378-.378a1.927,1.927,0,0,0,.585.244v.535a.133.133,0,0,0,.132.132h.595a.133.133,0,0,0,.132-.132v-.535a1.843,1.843,0,0,0,.585-.244l.378.378a.131.131,0,0,0,.187,0l.421-.421a.131.131,0,0,0,0-.187l-.378-.378a1.927,1.927,0,0,0,.244-.585h.535a.133.133,0,0,0,.132-.132v-.595A.133.133,0,0,0,596.362,241.233Zm-2.4,1.249a.819.819,0,1,1,.819-.819A.818.818,0,0,1,593.963,242.482Z" transform="translate(-591.43 -239.13)" fill="#dbe9ff"/>
          <path id="Path_5844" data-name="Path 5844" d="M598.17,244.72a1.14,1.14,0,1,0,1.14,1.14A1.14,1.14,0,0,0,598.17,244.72Zm0,1.837a.7.7,0,1,1,.7-.7A.7.7,0,0,1,598.17,246.557Z" transform="translate(-595.636 -243.329)" fill="#5470d3"/>
        </g>
      </g>
    </g>
    <g id="Group_1737" data-name="Group 1737" transform="translate(164.753 72.137)">
      <circle id="Ellipse_204" data-name="Ellipse 204" cx="10.397" cy="10.397" r="10.397" transform="translate(0 7.759) rotate(-21.91)" fill="#e67471"/>
      <g id="Group_1736" data-name="Group 1736" transform="translate(7.544 8.188)">
        <path id="Path_5845" data-name="Path 5845" d="M.821,0h10.32a.822.822,0,0,1,.821.821V9.407a.822.822,0,0,1-.821.821H.821A.822.822,0,0,1,0,9.407V.821A.822.822,0,0,1,.821,0Z" transform="translate(11.965 10.688) rotate(180)" fill="#fff"/>
        <path id="Path_5846" data-name="Path 5846" d="M393.95,109.02h11.965V107.7a.822.822,0,0,0-.821-.821h-10.32a.822.822,0,0,0-.821.821v1.319Z" transform="translate(-393.95 -106.422)" fill="#5470d3"/>
        <g id="Group_1734" data-name="Group 1734" transform="translate(1.924)">
          <g id="Group_1732" data-name="Group 1732" transform="translate(6.941)">
            <path id="Path_5847" data-name="Path 5847" d="M429.811,105.953h0a.242.242,0,0,0,.241-.244v-.428a.242.242,0,0,0-.241-.241h0a.242.242,0,0,0-.241.241v.428A.244.244,0,0,0,429.811,105.953Z" transform="translate(-429.57 -105.04)" fill="#fff"/>
            <path id="Path_5848" data-name="Path 5848" d="M432.6,105.953h0a.242.242,0,0,0,.241-.244v-.428a.242.242,0,0,0-.241-.241h0a.242.242,0,0,0-.241.241v.428A.244.244,0,0,0,432.6,105.953Z" transform="translate(-431.666 -105.04)" fill="#fff"/>
          </g>
          <g id="Group_1733" data-name="Group 1733">
            <path id="Path_5849" data-name="Path 5849" d="M401.921,105.953h0a.242.242,0,0,0,.241-.244v-.428a.242.242,0,0,0-.241-.241h0a.242.242,0,0,0-.241.241v.428A.244.244,0,0,0,401.921,105.953Z" transform="translate(-401.68 -105.04)" fill="#fff"/>
            <path id="Path_5850" data-name="Path 5850" d="M404.7,105.953h0a.242.242,0,0,0,.241-.244v-.428a.242.242,0,0,0-.241-.241h0a.242.242,0,0,0-.241.241v.428A.244.244,0,0,0,404.7,105.953Z" transform="translate(-403.768 -105.04)" fill="#fff"/>
          </g>
        </g>
        <g id="Group_1735" data-name="Group 1735" transform="translate(1.608 3.87)">
          <rect id="Rectangle_6979" data-name="Rectangle 6979" width="1.038" height="1.038" rx="0.519" transform="translate(4.932)" fill="#dbe9ff"/>
          <rect id="Rectangle_6980" data-name="Rectangle 6980" width="1.038" height="1.038" rx="0.519" transform="translate(2.466)" fill="#dbe9ff"/>
          <rect id="Rectangle_6981" data-name="Rectangle 6981" width="1.038" height="1.038" rx="0.519" fill="#dbe9ff"/>
          <rect id="Rectangle_6982" data-name="Rectangle 6982" width="1.035" height="1.038" rx="0.518" transform="translate(7.398 2.125)" fill="#dbe9ff"/>
          <rect id="Rectangle_6983" data-name="Rectangle 6983" width="1.038" height="1.038" rx="0.519" transform="translate(4.932 2.125)" fill="#dbe9ff"/>
          <rect id="Rectangle_6984" data-name="Rectangle 6984" width="1.038" height="1.038" rx="0.519" transform="translate(2.466 2.125)" fill="#dbe9ff"/>
          <rect id="Rectangle_6985" data-name="Rectangle 6985" width="1.038" height="1.038" rx="0.519" transform="translate(0 2.125)" fill="#dbe9ff"/>
          <rect id="Rectangle_6986" data-name="Rectangle 6986" width="1.035" height="1.038" rx="0.518" transform="translate(7.398 4.248)" fill="#dbe9ff"/>
          <rect id="Rectangle_6987" data-name="Rectangle 6987" width="1.038" height="1.038" rx="0.519" transform="translate(4.932 4.248)" fill="#dbe9ff"/>
          <rect id="Rectangle_6988" data-name="Rectangle 6988" width="1.038" height="1.038" rx="0.519" transform="translate(2.466 4.248)" fill="#dbe9ff"/>
        </g>
      </g>
    </g>
    <g id="Group_1739" data-name="Group 1739" transform="translate(190.79 74.825)">
      <circle id="Ellipse_205" data-name="Ellipse 205" cx="10.397" cy="10.397" r="10.397" transform="translate(0 14.704) rotate(-45)" fill="#e67471"/>
      <g id="Group_1738" data-name="Group 1738" transform="translate(4.631 4.631)">
        <circle id="Ellipse_206" data-name="Ellipse 206" cx="7.122" cy="7.122" r="7.122" transform="translate(0 10.072) rotate(-45)" fill="#fff"/>
        <path id="Path_5851" data-name="Path 5851" d="M505.852,113.42a7.122,7.122,0,1,0,7.122,7.122A7.121,7.121,0,0,0,505.852,113.42Zm.6,13.189v-.973a.328.328,0,0,0-.329-.328h-.54a.328.328,0,0,0-.329.328v.973a6.1,6.1,0,0,1-5.47-5.47h.973a.328.328,0,0,0,.328-.328v-.54a.328.328,0,0,0-.328-.328h-.973a6.1,6.1,0,0,1,5.47-5.47v.973a.328.328,0,0,0,.329.328h.54a.328.328,0,0,0,.329-.328v-.973a6.1,6.1,0,0,1,5.47,5.47h-.973a.328.328,0,0,0-.328.328v.54a.328.328,0,0,0,.328.328h.973A6.1,6.1,0,0,1,506.45,126.609Z" transform="translate(-495.779 -110.466)" fill="#5470d3"/>
        <text id="_24_7" data-name="24/7" transform="translate(6.552 11.045)" fill="#d1c8d9" font-size="4" font-family="BebasKai, Bebas Kai"><tspan x="0" y="0">24</tspan><tspan y="0" letter-spacing="0.02em">/</tspan><tspan y="0">7</tspan></text>
      </g>
    </g>
  </g>
</svg>
