<svg xmlns="http://www.w3.org/2000/svg" width="55.5" height="55.5" viewBox="0 0 55.5 55.5">
  <g id="DATA_PROCESSING-01" data-name="DATA PROCESSING-01" transform="translate(-12 -12)">
    <ellipse id="Ellipse_195" data-name="Ellipse 195" cx="16.517" cy="2.937" rx="16.517" ry="2.937" transform="translate(23.819 26.698)" fill="#0092c9"/>
    <path id="Path_1579" data-name="Path 1579" d="M263.985,241.986h-.248l-.052-.054c-.046-.047-.059-.072-.058-.275,0-.093,0-.225.009-.417,0-.115.007-.255.008-.359h-.853l1.048-.371.029.021h.016l.041.041a.145.145,0,0,1,.064.121,5.255,5.255,0,0,1,0,.57c0,.111-.007.245-.008.349h.008Z" transform="translate(-221.549 -201.867)" fill="#0092c9"/>
    <path id="Path_1580" data-name="Path 1580" d="M146.4,173.39l-.037,5.69s-2.3,3.051-13.7,3.416V180.1a2.147,2.147,0,0,0-2.141-2.141H116.9a2.147,2.147,0,0,0-2.141,2.141v.192a3.869,3.869,0,0,1-1.4-.974v-5.93s3.049,2.784,17.072,2.623C144.421,175.85,146.4,173.39,146.4,173.39Z" transform="translate(-89.542 -142.572)" fill="#0092c9"/>
    <path id="Path_1581" data-name="Path 1581" d="M114.974,235.03v0c0,.015-.006.026-.007.041a.347.347,0,0,1-.124.187.671.671,0,0,1-.078.05l-.006,0c-.461.208-.94.391-1.4.609v-1.85a4.982,4.982,0,0,0,1.4.863c.069.034.141.066.215.1Z" transform="translate(-89.542 -196.177)" fill="#0092c9"/>
    <path id="Path_1582" data-name="Path 1582" d="M292.581,234.06l-.037,6.06s-2.3,3.051-13.7,3.416V237C290.819,236.547,292.581,234.06,292.581,234.06Z" transform="translate(-235.727 -196.169)" fill="#0092c9"/>
    <path id="Path_1583" data-name="Path 1583" d="M194.619,260a.309.309,0,0,1-.339-.326c-.006-.091-.014-.169-.023-.24-.019-.131-.037-.267-.047-.4l0-.024,0,0L194.18,259c-.354-.132-.7-.287-.956-.407a.169.169,0,0,0-.052-.019.127.127,0,0,0-.031.023c-.114.1-.231.195-.343.286-.084.068-.168.136-.253.208l-.122.1-.415-.415c-.19-.191-.378-.379-.574-.574l-.113-.113.1-.124c.055-.065.108-.132.163-.2.1-.126.208-.257.318-.381a.132.132,0,0,0,.031-.044h0a.2.2,0,0,0-.025-.066c-.016-.034-.033-.066-.048-.1l.323-.133c.012.028.024.054.037.079a.4.4,0,0,1-.059.5c-.106.119-.209.246-.308.368l-.064.079c.156.155.308.308.462.462l.188.189c.044-.037.09-.073.134-.11.115-.093.225-.182.332-.276a.384.384,0,0,1,.464-.059c.252.117.586.268.925.394l.038.015.05.019.019.017a.333.333,0,0,1,.145.222l.009.061c.009.127.027.254.045.388.01.079.019.166.026.262h0c.132,0,.264,0,.394,0,.164,0,.335,0,.5,0l.014-.01a4.889,4.889,0,0,0,.066-.583l0-.026a.386.386,0,0,1,.276-.366c.167-.061.333-.133.5-.2.146-.063.3-.128.449-.187a.463.463,0,0,1,.194-.023.443.443,0,0,1,.219.073c.167.118.322.25.472.375l0,0,.649-.655c-.12-.148-.24-.294-.367-.44a.391.391,0,0,1-.11-.23l.349-.029a.144.144,0,0,0,.021.026c.169.194.329.389.477.575l.1.121-1.1,1.105-.124-.1-.127-.107c-.145-.122-.294-.248-.45-.358a.152.152,0,0,0-.092,0c-.138.052-.286.117-.428.177-.166.071-.337.146-.511.209a.146.146,0,0,0-.044.023h0a.205.205,0,0,0-.006.042.251.251,0,0,1,0,.033,5.438,5.438,0,0,1-.076.638.385.385,0,0,1-.316.271c-.184.007-.365.006-.54,0-.132,0-.262,0-.394,0h-.009Zm.9-.351Zm.028-.022Z" transform="translate(-158.412 -216.469)" fill="#0092c9"/>
    <rect id="Rectangle_377" data-name="Rectangle 377" width="0.35" height="0.015" transform="translate(42.087 39.931)" fill="#0092c9"/>
    <path id="Path_1584" data-name="Path 1584" d="M173.715,261.313l-.318-.145c.09-.2.175-.4.258-.6.089-.212.181-.431.28-.645a.6.6,0,0,1,.387-.318c.174-.034.349-.054.518-.072s.324-.036.483-.066a.2.2,0,0,0,.057-.065c.016-.465.016-.916,0-1.379a.217.217,0,0,0-.065-.062,6.886,6.886,0,0,0-.946-.119.477.477,0,0,1-.472-.361c-.092-.247-.2-.492-.3-.729s-.2-.454-.285-.686a.627.627,0,0,1,.071-.538c.19-.261.4-.513.593-.736l.022-.026.267.226-.022.026c-.195.229-.4.465-.577.715a.287.287,0,0,0-.028.208c.085.225.184.451.279.67.1.241.213.49.307.743.049.125.063.129.164.136a7.072,7.072,0,0,1,1,.127.463.463,0,0,1,.343.377c.016.479.016.947,0,1.428a.461.461,0,0,1-.344.387c-.164.031-.338.051-.5.07s-.33.037-.49.068a.276.276,0,0,0-.135.118c-.1.213-.189.429-.276.638s-.17.4-.262.606Zm1.61-1.845h0Zm.052-.055v0Zm0-1.383Zm0-.023h0Z" transform="translate(-142.474 -214.464)" fill="#0092c9"/>
    <path id="Path_1585" data-name="Path 1585" d="M146.4,296.32l-.037,6.245s-2.623,3.479-16.15,3.451c-14.636-.029-16.848-3.21-16.848-3.21v-2.872c.455.212.923.416,1.4.6v.74a2.147,2.147,0,0,0,2.141,2.14h13.614a2.146,2.146,0,0,0,2.141-2.14v-1.8c12.057-.337,13.741-3.147,13.741-3.147Z" transform="translate(-89.542 -251.169)" fill="#0092c9"/>
    <path id="Path_1586" data-name="Path 1586" d="M39.75,67.5a27.751,27.751,0,1,1,19.622-8.128A27.569,27.569,0,0,1,39.75,67.5Zm0-54.334A26.584,26.584,0,1,0,66.334,39.75,26.614,26.614,0,0,0,39.75,13.166Z" fill="#0092c9"/>
    <path id="Path_1587" data-name="Path 1587" d="M92.867,237.842a.306.306,0,0,0-.2-.209,6.9,6.9,0,0,0-.975-.124c-.183-.012-.25-.073-.318-.25-.177-.479-.406-.939-.584-1.412a.461.461,0,0,1,.05-.374c.192-.265.409-.518.607-.751l.1-.119c-.353-.352-.693-.684-1.037-1.025l-.281-.275c-.073.061-.15.124-.227.189-.205.173-.422.353-.652.518,0,0-.009.006-.012.009a.138.138,0,0,1-.048.022.409.409,0,0,1-.177.022.354.354,0,0,1-.113-.019c-.477-.185-.939-.41-1.415-.589a.319.319,0,0,1-.255-.321c-.006-.085-.012-.17-.02-.255,0-.035,0-.069-.007-.1-.02-.205-.047-.409-.083-.614a.317.317,0,0,0-.226-.2c-.237-.009-.473-.012-.71-.009s-.472,0-.709-.006c-.176,0-.22.073-.233.227a.03.03,0,0,0,0,.015,8.974,8.974,0,0,1-.114.962v0c0,.015-.006.026-.007.041a.347.347,0,0,1-.124.187.667.667,0,0,1-.078.05l-.006,0c-.461.208-.94.391-1.4.609h0a.327.327,0,0,1-.413-.038c-.11-.092-.213-.185-.321-.271-.189-.161-.375-.307-.551-.451-.192.192-.384.379-.57.568-.25.244-.5.492-.747.742.236.287.5.577.724.892a.459.459,0,0,1,.035.374c-.185.483-.392.964-.609,1.434a.387.387,0,0,1-.248.2c-.34.057-.69.078-1.033.141a.279.279,0,0,0-.187.2c0,.05,0,.11-.006.173v.124c0,.173,0,.368,0,.549v.164c0,.031,0,.061,0,.091,0,.183,0,.318.006.343a.3.3,0,0,0,.209.209c.331.061.669.073,1,.136a.412.412,0,0,1,.258.218.292.292,0,0,1,.031.066c.2.437.357.886.568,1.311a.351.351,0,0,1-.051.459c-.252.28-.483.579-.716.863.448.445.866.867,1.314,1.314.3-.253.6-.486.886-.735a.32.32,0,0,1,.413-.05s.006,0,.007,0c.455.213.923.416,1.4.6h0a.887.887,0,0,1,.083.035.087.087,0,0,1,.02.012.252.252,0,0,1,.11.17c0,.016.006.035.007.056.013.2.044.4.07.6.016.126.029.252.037.374.013.183.07.253.258.25.271-.006.542,0,.814,0,.19,0,.381,0,.571-.009a.319.319,0,0,0,.233-.189,7.894,7.894,0,0,0,.113-.946.128.128,0,0,0,0-.031.315.315,0,0,1,.248-.325c.477-.176.94-.4,1.415-.584a.463.463,0,0,1,.176-.019.385.385,0,0,1,.195.061c.315.222.607.482.885.709.445-.444.87-.876,1.312-1.321-.119-.145-.239-.294-.365-.445h0c-.11-.133-.222-.268-.34-.4a.329.329,0,0,1-.054-.41c.026-.054.05-.107.073-.163.187-.41.347-.831.536-1.242a.435.435,0,0,1,.262-.22c.329-.063.669-.076,1-.139a.3.3,0,0,0,.195-.22c.016-.473.016-.943,0-1.418Zm-4.713,2.14a1.935,1.935,0,0,1-.133.157,2.491,2.491,0,0,1-.329.3,2.325,2.325,0,0,1-1.243.47c-.057,0-.114.006-.17.006s-.094,0-.141-.006h0a2.162,2.162,0,0,1-.441-.072,2.364,2.364,0,0,1-.69-.305,2.542,2.542,0,0,1-.226-.17l0,0a2.406,2.406,0,0,1-.732-1.059,2.073,2.073,0,0,1-.111-.485c0-.013,0-.028,0-.041a.915.915,0,0,1-.009-.126.025.025,0,0,1,0-.013,2.05,2.05,0,0,1,.007-.24c0-.022,0-.043,0-.065a2.587,2.587,0,0,1,.059-.333A2.4,2.4,0,0,1,85,236.585a2.338,2.338,0,0,1,1.166-.387c.035,0,.07,0,.107,0a2.362,2.362,0,0,1,1.454.507,1.6,1.6,0,0,1,.136.117,2.32,2.32,0,0,1,.324.359,2.341,2.341,0,0,1-.04,2.8Z" transform="translate(-59.789 -194.304)" fill="none" stroke="#0092c9" stroke-miterlimit="10" stroke-width="0.5"/>
    <path id="Path_1588" data-name="Path 1588" d="M210.382,231.725a1.782,1.782,0,0,1-.452-.056,1.744,1.744,0,0,1-1.041-.768,1.866,1.866,0,0,1-.178-.366,1.691,1.691,0,0,1-.087-.392.711.711,0,0,1-.006-.1c0-.056,0-.113,0-.176a.19.19,0,0,1,0-.026l0-.033a1.829,1.829,0,0,1,.045-.245,1.784,1.784,0,0,1,1.615-1.327,1.738,1.738,0,0,1,1.158.374,1.224,1.224,0,0,1,.106.091,1.743,1.743,0,0,1,.232.254,1.743,1.743,0,0,1,.008,2.036v0l-.037.048c-.031.038-.064.076-.1.111a1.752,1.752,0,0,1-1.162.568c-.036,0-.071,0-.106,0Zm-1.411-1.884v.044a1.217,1.217,0,0,0,0,.142v.013a.393.393,0,0,0,0,.063,1.384,1.384,0,0,0,.069.314,1.468,1.468,0,0,0,.143.3,1.4,1.4,0,0,0,.834.616,1.489,1.489,0,0,0,.45.043,1.4,1.4,0,0,0,.927-.456l.041-.045v-.009l.044-.045a1.336,1.336,0,0,0,.28-.838v0a1.333,1.333,0,0,0-.262-.809,1.538,1.538,0,0,0-.191-.21.693.693,0,0,0-.082-.07,1.4,1.4,0,0,0-.927-.3A1.43,1.43,0,0,0,209,229.646a1.642,1.642,0,0,0-.036.191Z" transform="translate(-173.691 -191.021)" fill="#0092c9"/>
    <path id="Path_1589" data-name="Path 1589" d="M188.074,226.368a.369.369,0,0,1-.4-.38c-.006-.09-.013-.167-.022-.237-.017-.127-.036-.26-.047-.394-.354-.133-.695-.286-.953-.406l-.016-.007,0,0c-.115.1-.232.2-.345.288-.083.068-.168.136-.252.208l-.163.139-.452-.454c-.19-.19-.378-.379-.574-.574l-.152-.15.136-.164c.055-.065.108-.132.162-.2.1-.126.209-.258.321-.384.006-.006.009-.012.013-.015a.2.2,0,0,0-.014-.03c-.017-.035-.034-.069-.049-.106-.059-.127-.117-.267-.173-.4s-.1-.251-.159-.372l-.021-.05-.016-.01c-.1-.018-.2-.028-.3-.04s-.232-.026-.35-.048a.437.437,0,0,1-.252-.16.349.349,0,0,1-.079-.208c0-.023,0-.062,0-.11v-.115c0-.016,0-.03,0-.043v-.131c0-.121,0-.254,0-.37v-.141a.593.593,0,0,1,0-.066.412.412,0,0,1,.322-.349c.12-.021.244-.035.364-.049s.209-.024.309-.041l.01-.009c.156-.343.286-.648.4-.934a.138.138,0,0,0,0-.036c-.1-.139-.212-.272-.321-.4-.04-.048-.08-.094-.119-.142l-.316-.381h7.468v.466h-6.475c.05.063.1.127.147.194a.531.531,0,0,1,.052.468c-.114.3-.248.614-.41.97a.5.5,0,0,1-.345.266c-.111.019-.229.033-.342.045-.094.01-.185.021-.275.035v.111c0,.118,0,.247,0,.366v.1c0,.023,0,.047,0,.07v.114a.307.307,0,0,1,0,.031c.09.014.177.024.269.035.114.013.231.026.35.048a.524.524,0,0,1,.344.279l.006.013a.329.329,0,0,1,.016.041c.057.127.111.255.162.38s.11.266.168.393c.015.035.027.059.04.084a.454.454,0,0,1-.068.564c-.1.118-.208.244-.305.366l-.031.038c.143.142.283.283.424.426l.15.15c.031-.026.062-.051.093-.076.115-.093.224-.182.33-.275a.44.44,0,0,1,.527-.069c.251.117.584.267.919.392l.041.016.051.018.027.023a.4.4,0,0,1,.17.259l.009.068c.008.125.026.251.044.384.009.066.016.136.022.212.113,0,.227,0,.34,0,.153,0,.31,0,.463,0a4.832,4.832,0,0,0,.059-.54l0-.034a.442.442,0,0,1,.312-.408c.167-.061.332-.133.493-.2s.3-.128.451-.187a.536.536,0,0,1,.219-.028.491.491,0,0,1,.248.084c.154.11.3.229.437.346l.575-.579c-.108-.133-.218-.265-.333-.4a.442.442,0,0,1-.124-.264l.465-.038a.04.04,0,0,0-.007-.024l.013.015c.171.2.33.393.479.577l.131.162-1.171,1.18-.164-.136-.128-.107c-.142-.119-.288-.243-.44-.351l-.021,0a.066.066,0,0,0-.026,0c-.134.051-.281.114-.423.176-.167.072-.338.146-.514.21l-.012,0v0a.186.186,0,0,1,0,.041,5.248,5.248,0,0,1-.077.642.442.442,0,0,1-.368.317c-.188.007-.368.006-.544,0-.131,0-.261,0-.393,0h-.009Zm-.181-1.389.017.015Zm2.573-.01Zm-.009-.006Zm-5.126-1.307Zm-1.011-1.534h0Zm0-.773h0Zm.063-.089v0Zm.937-1.432s0,0,0,0Z" transform="translate(-151.866 -182.776)" fill="#0092c9"/>
    <path id="Path_1590" data-name="Path 1590" d="M230.1,259.2l-.328-.331.2-.2c.1-.1.2-.2.3-.3l.15-.149c.076-.075.152-.149.227-.226l.15-.152.294.243c.078.063.157.129.238.2s.14.117.211.178l.006,0,.022-.009c.185-.089.377-.168.562-.246.122-.051.244-.1.363-.155l.016-.01s0,0,0,0c.033-.183.056-.384.075-.625a.365.365,0,0,1,.392-.377c.138,0,.272,0,.408,0,.178,0,.361,0,.546.007a.432.432,0,0,1,.368.317c.027.154.045.294.059.436.007.082.013.162.019.243v0l.019.007s.006,0,.009,0V251.69h.466v7.076l-.325-.14c-.121-.052-.22-.092-.314-.127a.443.443,0,0,1-.322-.417c-.006-.077-.01-.154-.017-.231-.01-.111-.024-.22-.043-.333-.155,0-.312,0-.465,0h-.339c-.02.24-.044.444-.079.634a.452.452,0,0,1-.161.262l-.009.008c-.017.014-.036.026-.055.038l-.044.026c-.128.057-.259.112-.389.167-.18.076-.366.153-.542.237a.447.447,0,0,1-.526-.058c-.073-.063-.14-.121-.208-.175s-.14-.117-.206-.17l-.082.08-.15.149c-.1.1-.2.2-.3.3l-.2.2Zm2.423-1.166Zm1.392-.519h0Z" transform="translate(-192.379 -211.743)" fill="#0092c9"/>
    <path id="Path_1591" data-name="Path 1591" d="M146.016,321.363H135.277a1.277,1.277,0,0,1-1.115-.659l-.192-.346h.4c.219,0,.388,0,.545-.008a.172.172,0,0,0,.037-.029,7.535,7.535,0,0,0,.1-.888l0-.031a.545.545,0,0,1,.4-.529c.248-.091.5-.2.738-.3.22-.1.448-.194.676-.281l.014,0a.7.7,0,0,1,.265-.028.61.61,0,0,1,.314.106c.24.17.463.357.679.538l.052.043c.264-.263.52-.522.779-.785l.234-.237-.012-.014c-.072-.089-.145-.178-.219-.268l.359-.3.223.272.276.338-.529.534c-.309.312-.614.621-.932.937l-.149.149-.163-.134-.218-.181c-.21-.176-.427-.358-.653-.518l-.012-.008a.383.383,0,0,0-.066-.01.242.242,0,0,0-.083.007c-.217.083-.436.178-.649.271-.247.107-.5.217-.76.313-.087.033-.09.034-.1.114a.255.255,0,0,1,0,.049,8.147,8.147,0,0,1-.115.963.546.546,0,0,1-.452.379h-.022a.8.8,0,0,0,.35.08h10.034c-.033-.078-.065-.155-.1-.233l-.022-.046-.014-.012c-.1-.017-.2-.029-.3-.041s-.232-.026-.351-.048a.421.421,0,0,1-.329-.359h0c0-.022,0-.062,0-.115v-.119c0-.015,0-.029,0-.042v-.132c0-.121,0-.254,0-.37V319.3l0-.064a.557.557,0,0,1,0-.064.412.412,0,0,1,.322-.349c.119-.021.243-.036.363-.05s.21-.025.31-.042l.007-.007c.127-.276.238-.535.337-.787l.434.171c-.1.26-.217.527-.351.817a.487.487,0,0,1-.342.265c-.114.02-.23.033-.342.047-.1.012-.187.022-.275.036,0,.013,0,.024,0,.037v.071c0,.117,0,.247,0,.366v.1c0,.023,0,.047,0,.068v.118c0,.01,0,.021,0,.029.087.014.175.024.267.034.114.013.232.026.351.048a.51.51,0,0,1,.338.271.527.527,0,0,1,.027.058c.049.11.094.22.14.33.031.077.063.153.1.229l.14.325Zm-1.358-1.234v0Zm-.056-.069h0Zm-.007-.774h0Zm.063-.089v0Z" transform="translate(-107.749 -269.738)" fill="#0092c9"/>
    <path id="Path_1592" data-name="Path 1592" d="M230.309,313.266l-.319-.142c.021-.047.04-.094.057-.141a.157.157,0,0,0,0-.087c-.058-.08-.138-.205-.222-.338-.11-.173-.233-.368-.311-.462l.268-.225a5.613,5.613,0,0,1,.339.5c.08.128.157.248.212.323a.48.48,0,0,1,.046.415c-.019.05-.04.1-.064.159Z" transform="translate(-192.149 -264.906)" fill="#0092c9"/>
    <path id="Path_1593" data-name="Path 1593" d="M248.249,325.754h-.754l-.03-.012a1.793,1.793,0,0,1-1.019-1.069,1.622,1.622,0,0,1-.086-.391.857.857,0,0,1-.006-.1c0-.056,0-.112,0-.177a.181.181,0,0,1,0-.026l0-.03a1.777,1.777,0,0,1,1.659-1.573,1.756,1.756,0,0,1,1.158.373c.035.027.069.056.1.087a1.551,1.551,0,0,1,.143.146l.043.049v1.509a1.214,1.214,0,0,1-1.215,1.213Zm-.688-.35h.688a.865.865,0,0,0,.865-.863v-1.376c-.024-.026-.049-.049-.072-.07a1.035,1.035,0,0,0-.082-.071,1.405,1.405,0,0,0-.928-.3,1.432,1.432,0,0,0-1.291,1.066,1.642,1.642,0,0,0-.036.191v.042a1.256,1.256,0,0,0,0,.143v.015a.363.363,0,0,0,0,.061,1.282,1.282,0,0,0,.069.314A1.443,1.443,0,0,0,247.561,325.4Z" transform="translate(-207.027 -274.186)" fill="#0092c9"/>
    <path id="Path_1594" data-name="Path 1594" d="M247.144,223.683a.48.48,0,0,1,.051-.271c.071-.153.139-.314.2-.469.045-.108.091-.217.138-.324.01-.027.026-.062.042-.1l.02-.043a.522.522,0,0,1,.338-.282c.124-.023.238-.036.349-.049.093-.01.182-.021.268-.035.008-.266.008-.526,0-.792a4.268,4.268,0,0,0-.565-.068.437.437,0,0,1-.417-.316c-.061-.163-.131-.326-.2-.484s-.132-.3-.191-.458a.543.543,0,0,1,.061-.465c.129-.175.268-.342.392-.487l.138-.164h1.175a1.275,1.275,0,0,1,1.273,1.273v2.758l-.219.013a.084.084,0,0,0-.029,0l-.083-.237h-.135v-2.537a.808.808,0,0,0-.807-.807h-.957c-.124.147-.252.3-.368.458a.358.358,0,0,0,0,.036c.052.136.114.279.18.429s.145.332.209.506a.137.137,0,0,1,.006.015h0a4.969,4.969,0,0,1,.679.085.431.431,0,0,1,.325.361c.012.324.012.639,0,.962a.425.425,0,0,1-.323.366c-.121.023-.24.036-.356.05s-.2.022-.294.04a.074.074,0,0,0-.022.02l-.019.043c-.013.028-.026.056-.036.084-.049.112-.093.218-.138.324-.068.16-.136.325-.212.486a.263.263,0,0,0-.012.029v-.015l-.463.061Zm1.461-2.351h0Z" transform="translate(-207.723 -182.758)" fill="#0092c9"/>
    <path id="Path_1595" data-name="Path 1595" d="M132.119,220.458l-.449-.127a1.737,1.737,0,0,1,1.6-1.463H138.9v.466h-5.635C133.231,219.334,132.433,219.348,132.119,220.458Z" transform="translate(-105.717 -182.747)" fill="#0092c9"/>
  </g>
</svg>
