<svg xmlns="http://www.w3.org/2000/svg" width="54.76" height="54.76" viewBox="0 0 54.76 54.76">
  <g id="DATA_WAREHOUSING-01" data-name="DATA WAREHOUSING-01" transform="translate(-9.17 -9.15)">
    <path id="Path_1573" data-name="Path 1573" d="M107.026,111.3h-1.37V92.96l-2.3-2.217V84.161H97.176V87.51L86.239,80.594,66.97,92.881V111.3H65.6V92.129L86.237,78.97l9.57,6.052V82.791h8.922v7.37l2.3,2.217Z" transform="translate(-50.009 -61.875)" fill="#0092c9"/>
    <ellipse id="Ellipse_194" data-name="Ellipse 194" cx="12.23" cy="2.176" rx="12.23" ry="2.176" transform="translate(24.32 29.316)" fill="#0092c9"/>
    <path id="Path_1574" data-name="Path 1574" d="M142.31,213.18v4.391s1.636,2.355,12.476,2.377c10.015.02,11.958-2.555,11.958-2.555l.027-4.214s-1.436,2.024-11.82,1.942S142.31,213.18,142.31,213.18Z" transform="translate(-117.99 -180.814)" fill="#0092c9"/>
    <path id="Path_1575" data-name="Path 1575" d="M165.479,258.37l-.02,3.45-1.088-.448a.313.313,0,0,1-.19-.237l-.164-.941a.163.163,0,0,0-.163-.14l-1.591.025c-.082,0-.129.109-.143.191l-.147.868a.365.365,0,0,1-.229.28l-.81.363a.325.325,0,0,1-.333-.042l-.721-.7-1.516,1.376.663.89a.253.253,0,0,1,.03.247l-.41.96a.3.3,0,0,1-.229.176l-.833.119a.236.236,0,0,0-.191.217v.3c-1.123.091-2.46.145-3.9.142-10.84-.023-12.367-2.377-12.367-2.377l.11-4.612s2.038,2.081,12.421,2.163,11.819-2.272,11.819-2.272Z" transform="translate(-116.944 -220.861)" fill="#0092c9"/>
    <path id="Path_1576" data-name="Path 1576" d="M159.977,313.566l.993.429a31.845,31.845,0,0,1-8.353.893c-10.84-.02-12.477-2.376-12.477-2.376V307.9s2.258,2.081,12.642,2.162c1.48.013,2.6-.113,3.743-.175l.014.486a.219.219,0,0,0,.192.2l.987.121a.16.16,0,0,1,.138.1l.455,1.064a.168.168,0,0,1-.022.169l-.809.9,1.421,1.3.825-.636a.25.25,0,0,1,.253-.032Z" transform="translate(-116.067 -264.756)" fill="#0092c9"/>
    <path id="Path_1577" data-name="Path 1577" d="M297.546,280.885a.248.248,0,0,0-.164-.171,5.608,5.608,0,0,0-.79-.1c-.149-.009-.2-.06-.257-.2-.145-.388-.329-.76-.476-1.144a.373.373,0,0,1,.041-.3c.184-.253.394-.489.572-.705-.363-.362-.708-.7-1.067-1.054-.221.18-.457.388-.712.572l-.009.007a.1.1,0,0,1-.039.018.357.357,0,0,1-.145.018.283.283,0,0,1-.09-.016c-.387-.149-.761-.332-1.147-.477a.257.257,0,0,1-.207-.259c-.007-.1-.014-.195-.023-.29-.016-.167-.038-.332-.067-.5a.255.255,0,0,0-.182-.16c-.383-.017-.767,0-1.15-.013-.147,0-.179.064-.19.2a7.613,7.613,0,0,1-.1.815.282.282,0,0,1-.1.151.487.487,0,0,1-.063.041c-.374.168-.765.317-1.139.494a.265.265,0,0,1-.335-.032c-.089-.074-.173-.149-.259-.219-.154-.129-.3-.248-.447-.365-.156.156-.311.307-.462.46-.2.2-.4.4-.607.6.192.233.4.468.587.723a.369.369,0,0,1,.028.3c-.15.391-.317.782-.493,1.163a.312.312,0,0,1-.2.16c-.275.048-.56.064-.837.114a.233.233,0,0,0-.151.16c0,.041,0,.089,0,.14v.1c0,.14,0,.3,0,.446v.207c0,.149,0,.257,0,.278a.245.245,0,0,0,.17.168c.269.05.543.06.813.11a.342.342,0,0,1,.209.176.331.331,0,0,1,.024.055c.16.354.289.719.46,1.063a.281.281,0,0,1-.042.372c-.2.228-.39.469-.58.7.363.361.7.7,1.065,1.065.246-.206.488-.395.719-.6a.261.261,0,0,1,.335-.041c.372.173.752.341,1.141.486.026.01.049.019.068.028l.016.009a.2.2,0,0,1,.089.139c0,.014,0,.027.007.044.011.163.035.324.056.487.014.1.024.2.031.3.011.149.056.2.207.2.375-.009.749,0,1.123-.009a.265.265,0,0,0,.19-.154,6.023,6.023,0,0,0,.09-.767.082.082,0,0,0,0-.024.258.258,0,0,1,.2-.265c.387-.143.762-.327,1.147-.473a.372.372,0,0,1,.142-.016.3.3,0,0,1,.158.05c.255.18.492.389.717.575.361-.361.7-.71,1.063-1.071-.18-.219-.37-.455-.572-.687a.265.265,0,0,1-.043-.332c.176-.374.32-.762.494-1.139a.344.344,0,0,1,.214-.179c.266-.05.542-.06.812-.113a.245.245,0,0,0,.158-.178c.014-.383.014-.765,0-1.148Zm-2.873,2.456a2.174,2.174,0,0,1-.176.2,3.1,3.1,0,0,1-2.065,1.01,3.209,3.209,0,0,1-.992-.093,3.166,3.166,0,0,1-2.168-2.021,2.824,2.824,0,0,1-.151-.691,1.359,1.359,0,0,1-.013-.166.041.041,0,0,1,0-.017,2.67,2.67,0,0,1,.009-.317c0-.028,0-.056.006-.085a3.255,3.255,0,0,1,.079-.438,3.173,3.173,0,0,1,2.866-2.363,3.094,3.094,0,0,1,2.053.666,1.886,1.886,0,0,1,.18.154,3.078,3.078,0,0,1,.376,4.158Z" transform="translate(-246.092 -236.582)" fill="#0092c9"/>
    <line id="Line_131" data-name="Line 131" x2="0.104" y2="0.031" transform="translate(45.154 49.048)" fill="#0092c9"/>
    <path id="Path_1578" data-name="Path 1578" d="M36.55,63.909A27.379,27.379,0,1,1,63.93,36.53,27.411,27.411,0,0,1,36.55,63.909Zm0-53.389A26.009,26.009,0,1,0,62.561,36.529,26.039,26.039,0,0,0,36.55,10.52Z" fill="#0092c9"/>
  </g>
</svg>
