<svg xmlns="http://www.w3.org/2000/svg" width="55.04" height="55.04" viewBox="0 0 55.04 55.04">
  <g id="data_lake-01" data-name="data lake-01" transform="translate(-20.18 -17.61)">
    <path id="Path_1560" data-name="Path 1560" d="M136.4,308.122a4.745,4.745,0,0,1-.629-.042,8.252,8.252,0,0,1-4.127-1.895,5.407,5.407,0,0,0-2.944-1.375c-1.25-.091-2.172.721-3.148,1.58s-1.97,1.735-3.335,1.695a5.243,5.243,0,0,1-3.184-1.511,6.761,6.761,0,0,0-3.324-1.714,4.51,4.51,0,0,0-2.923.6l-.567-1.034a5.668,5.668,0,0,1,3.679-.733,7.826,7.826,0,0,1,3.874,1.959,4.167,4.167,0,0,0,2.482,1.25h.054a4.128,4.128,0,0,0,2.464-1.4c1.063-.937,2.267-2,4.012-1.871a6.5,6.5,0,0,1,3.563,1.605,7.177,7.177,0,0,0,3.576,1.672c1.519.2,2.274-.574,3.148-1.468a4.575,4.575,0,0,1,3.52-1.82,7.59,7.59,0,0,1,3.339.933l-.544,1.045a6.45,6.45,0,0,0-2.819-.8H142.5a3.532,3.532,0,0,0-2.589,1.466,4.7,4.7,0,0,1-3.513,1.855Z" transform="translate(-81.193 -252.306)" fill="#fff"/>
    <g id="Group_630" data-name="Group 630" transform="translate(28.046 28.837)">
      <ellipse id="Ellipse_191" data-name="Ellipse 191" cx="16.613" cy="2.954" rx="16.613" ry="2.954" transform="translate(3.263 0)" fill="#0092c9"/>
      <path id="Path_1561" data-name="Path 1561" d="M112.73,148.04v5.965s2.223,3.2,16.945,3.229c13.6.028,16.243-3.471,16.243-3.471l.038-5.724S144,150.791,129.9,150.679,112.73,148.04,112.73,148.04Z" transform="translate(-109.69 -143.896)" fill="#0092c9"/>
      <path id="Path_1562" data-name="Path 1562" d="M112.73,205.69v6.233s2.223,3.2,16.945,3.229c13.6.028,16.243-3.471,16.243-3.471l.038-5.991S144,208.976,129.9,208.864,112.73,205.69,112.73,205.69Z" transform="translate(-109.69 -194.753)" fill="#0092c9"/>
      <path id="Path_1563" data-name="Path 1563" d="M145.946,265.13l-.037,6.179s-.011.014-.035.041a7.075,7.075,0,0,0-3.078-.866c-3.066-.065-3.292,3.73-6.731,3.283s-4.263-3.068-7.105-3.274-4.114,3.347-6.506,3.273-3.216-2.693-6.432-3.216a5.135,5.135,0,0,0-3.3.668v-5.9s3.066,3.268,17.17,3.174C143.957,268.4,145.946,265.13,145.946,265.13Z" transform="translate(-109.681 -247.188)" fill="#0092c9"/>
      <path id="Path_1564" data-name="Path 1564" d="M113.871,327.149a5.145,5.145,0,0,1-.641-.042,8.308,8.308,0,0,1-4.155-1.906,5.348,5.348,0,0,0-2.913-1.363c-1.227-.088-2.138.714-3.1,1.565s-1.989,1.754-3.376,1.709a5.294,5.294,0,0,1-3.22-1.523,6.7,6.7,0,0,0-3.3-1.7c-2.8-.456-5.2,2.5-5.223,2.531l-1.013-.807c.117-.146,2.9-3.581,6.445-3a7.882,7.882,0,0,1,3.9,1.97,4.114,4.114,0,0,0,2.448,1.237c.874.028,1.619-.628,2.48-1.386,1.071-.944,2.285-2.014,4.054-1.886a6.544,6.544,0,0,1,3.593,1.617,7.033,7.033,0,0,0,3.548,1.66c1.492.194,2.2-.531,3.1-1.451a4.638,4.638,0,0,1,3.564-1.837c3.294.07,6.021,2.837,6.135,2.953l-.93.9c-.024-.025-2.476-2.5-5.234-2.561a3.436,3.436,0,0,0-2.609,1.447,4.751,4.751,0,0,1-3.551,1.873Z" transform="translate(-86.93 -297.826)" fill="#0092c9"/>
      <path id="Path_1565" data-name="Path 1565" d="M113.871,356.316a5.145,5.145,0,0,1-.641-.042,8.308,8.308,0,0,1-4.155-1.906A5.352,5.352,0,0,0,106.162,353c-1.227-.088-2.138.714-3.1,1.565s-1.986,1.754-3.376,1.709a5.294,5.294,0,0,1-3.22-1.523,6.7,6.7,0,0,0-3.3-1.7c-2.8-.456-5.2,2.5-5.223,2.531l-1.013-.807c.117-.146,2.9-3.581,6.445-3a7.882,7.882,0,0,1,3.9,1.97,4.114,4.114,0,0,0,2.448,1.237c.879.028,1.619-.628,2.48-1.386,1.071-.944,2.286-2.014,4.054-1.886a6.544,6.544,0,0,1,3.593,1.617,7.033,7.033,0,0,0,3.548,1.66c1.492.194,2.2-.531,3.1-1.451a4.664,4.664,0,0,1,3.471-1.838h.093c3.294.07,6.021,2.835,6.135,2.953l-.93.9c-.024-.025-2.476-2.5-5.234-2.561a3.451,3.451,0,0,0-2.609,1.447,4.751,4.751,0,0,1-3.551,1.873Z" transform="translate(-86.93 -323.556)" fill="#0092c9"/>
    </g>
    <path id="Path_1566" data-name="Path 1566" d="M47.7,72.649a27.519,27.519,0,1,1,19.459-8.06A27.337,27.337,0,0,1,47.7,72.649Zm0-53.86a26.341,26.341,0,1,0,26.341,26.34A26.371,26.371,0,0,0,47.7,18.788Z" fill="#0092c9"/>
  </g>
</svg>
