<svg xmlns="http://www.w3.org/2000/svg" width="54" height="54" viewBox="0 0 54 54">
  <g id="data_audit-01" data-name="data audit-01" transform="translate(-12 -12)">
    <g id="Group_631" data-name="Group 631" transform="translate(21.83 22.421)">
      <path id="Path_1596" data-name="Path 1596" d="M363.624,303.245c-.125.162-.242.332-.377.484a1.457,1.457,0,0,1-2.424-.209c-1.254-2.312-2.445-4.658-3.693-7.052l2.72-1.328c.161.306.3.567.438.828l3.335,6.291v.985Z" transform="translate(-327.807 -273.44)" fill="#0092c9"/>
      <path id="Path_1597" data-name="Path 1597" d="M115.746,112.764c-.192.923-.365,1.763-.562,2.708h-.771q-6.337,0-12.674,0a1.489,1.489,0,0,0-.621.042c-.179.09-.414.314-.408.471a.83.83,0,0,0,.372.579,1.431,1.431,0,0,0,.684.062q6.3,0,12.6,0h.805c.2.913.386,1.752.591,2.689h-.725q-6.688,0-13.374,0c-.163,0-.372-.058-.48.022-.2.145-.474.374-.471.564s.285.421.5.534a1.454,1.454,0,0,0,.621.027c4.622,0,9.242.006,13.864-.008a1.046,1.046,0,0,1,1.021.521c.488.735,1.095,1.391,1.708,2.15-.214.012-.445.039-.675.039q-8.017,0-16.034,0a1.261,1.261,0,0,0-.615.054.878.878,0,0,0-.4.562c-.011.161.208.408.385.495a1.651,1.651,0,0,0,.687.059q7.423,0,14.844,0a16.565,16.565,0,0,1,5.794.6c.754.272.981.495.97,1.285-.051,3.326-.022,6.655-.022,9.982v.816H104.886v-1.148c0-1.172,0-2.344-.006-3.515-.01-1.1-.439-1.539-1.522-1.549-1.331-.01-2.66,0-3.991-.006H98.65V103.86h24.675v3.02c-.395.085-.8.155-1.2.26a8.9,8.9,0,0,0-5.461,3.994.91.91,0,0,1-.894.487c-3.454-.018-6.909-.01-10.363-.009-.186,0-.419-.052-.548.037-.187.13-.414.372-.41.562s.253.417.45.512a1.713,1.713,0,0,0,.691.041h10.156Zm5.566,18.709a4.33,4.33,0,1,0-4.427,4.294A4.346,4.346,0,0,0,121.312,131.474ZM109.4,107.759h-.21c-2.264,0-4.528,0-6.792,0-.661,0-1.026.41-.72.808a1.078,1.078,0,0,0,.768.327c4.667.018,9.335.01,14,.012.434,0,.846-.06.83-.6s-.464-.548-.877-.548q-3.5,0-7,0Zm-3.571,20.426h4.339c.427,0,.919.042.935-.562s-.467-.588-.9-.588q-4.3,0-8.608,0c-.436,0-.912-.015-.9.592.009.556.458.558.87.558h4.269Z" transform="translate(-98.65 -103.86)" fill="#0092c9"/>
      <path id="Path_1598" data-name="Path 1598" d="M271.011,148.285a7.991,7.991,0,1,1-8.058-8,8.029,8.029,0,0,1,8.058,8Zm-13.61.036a5.621,5.621,0,1,0,5.654-5.661A5.652,5.652,0,0,0,257.4,148.321Z" transform="translate(-237.289 -136.156)" fill="#0092c9"/>
      <path id="Path_1599" data-name="Path 1599" d="M105.42,351.61h4.243v4.253c-.739-.748-1.4-1.423-2.069-2.092S106.245,352.43,105.42,351.61Z" transform="translate(-104.652 -323.504)" fill="#0092c9"/>
      <path id="Path_1600" data-name="Path 1600" d="M352.521,279.695l1.673-.815c.194.381.39.765.618,1.214l-1.678.818c-.211-.419-.4-.786-.615-1.216Z" transform="translate(-323.72 -259.025)" fill="#0092c9"/>
      <path id="Path_1601" data-name="Path 1601" d="M230.738,312.859a4.33,4.33,0,1,1-4.252-4.4A4.331,4.331,0,0,1,230.738,312.859Zm-1.145-.066A3.174,3.174,0,1,0,226.448,316a3.215,3.215,0,0,0,3.145-3.206Z" transform="translate(-208.076 -285.245)" fill="#fff"/>
      <path id="Path_1602" data-name="Path 1602" d="M132.19,138.221q3.5,0,7,0c.413,0,.86-.008.877.548s-.4.6-.83.6c-4.667,0-9.335.006-14-.012a1.078,1.078,0,0,1-.768-.327c-.305-.4.06-.807.72-.808,2.264-.008,4.528,0,6.792,0h.21Z" transform="translate(-121.442 -134.322)" fill="#fff"/>
      <path id="Path_1603" data-name="Path 1603" d="M121.748,309.279h-4.269c-.412,0-.862,0-.87-.558-.01-.608.467-.593.9-.592q4.3,0,8.608,0c.434,0,.918-.023.9.588s-.508.562-.935.562h-4.339Z" transform="translate(-114.571 -284.955)" fill="#fff"/>
      <path id="Path_1604" data-name="Path 1604" d="M238.689,321.813a3.175,3.175,0,1,1-3.174-3.183,3.2,3.2,0,0,1,3.174,3.183Zm-3.879.549c-.327-.313-.513-.592-.771-.708a2.069,2.069,0,0,0-.8-.012c.007.273-.085.611.042.805a7.854,7.854,0,0,0,.909.96.675.675,0,0,0,1.128.007c.762-.785,1.539-1.555,2.313-2.329.284-.284.522-.6.163-.959-.382-.382-.712-.136-1.009.175C236.141,320.973,235.5,321.642,234.811,322.362Z" transform="translate(-217.173 -294.265)" fill="#0092c9"/>
      <path id="Path_1605" data-name="Path 1605" d="M241.6,332.537c.687-.719,1.331-1.389,1.971-2.061.3-.311.627-.556,1.009-.175.358.358.12.675-.163.959-.774.774-1.551,1.545-2.313,2.329a.675.675,0,0,1-1.128-.007,7.767,7.767,0,0,1-.909-.96c-.127-.194-.035-.532-.042-.805a2.069,2.069,0,0,1,.8.012C241.091,331.945,241.279,332.225,241.6,332.537Z" transform="translate(-223.967 -304.44)" fill="#fff"/>
    </g>
    <path id="Path_1606" data-name="Path 1606" d="M39,66a27,27,0,1,1,19.092-7.908A26.824,26.824,0,0,1,39,66Zm0-52.866A25.866,25.866,0,1,0,64.866,39,25.895,25.895,0,0,0,39,13.134Z" fill="#0092c9"/>
  </g>
</svg>
