<svg xmlns="http://www.w3.org/2000/svg" width="115.001" height="101" viewBox="0 0 115.001 101">
  <g id="Group_3009" data-name="Group 3009" transform="translate(-519 -1577)">
    <path id="Union_1" data-name="Union 1" d="M-6197-189h-29a20,20,0,0,1-20-20v-44a20,20,0,0,1,20-20h75a20,20,0,0,1,20,20v44a20,20,0,0,1-20,20h-29l-8.5,17Z" transform="translate(6765 1850)" fill="#a06cdc"/>
    <g id="analyze-01" transform="translate(530.15 1576.91)">
      <path id="Path_5936" data-name="Path 5936" d="M29,11.09H58.91c.24.209.5.4.72.626Q65.1,17.179,70.572,22.642a1.887,1.887,0,0,1,.609,1.446q-.02,19.879-.017,39.76A6.328,6.328,0,0,1,71,65.473a4.823,4.823,0,0,1-4.989,3.616q-18.011,0-36.022,0a4.86,4.86,0,0,1-5.2-5.209c0-2.152-.03-4.306.017-6.456A1.156,1.156,0,0,0,24.04,56.2a17.78,17.78,0,0,1-9.957-13.6A18.151,18.151,0,0,1,24.246,23.31a.845.845,0,0,0,.555-.9c-.018-2.265-.03-4.531.023-6.8a4.529,4.529,0,0,1,1.7-3.385A6.032,6.032,0,0,1,29,11.09ZM26.719,22.216c7.871-1.918,14.686-.222,19.787,6.137s5.3,13.364,1.7,20.666c.123.1.295.221.441.367,2.776,2.777,5.578,5.528,8.312,8.345a4.782,4.782,0,0,1-.909,7.366,4.846,4.846,0,0,1-6.151-.8q-4.022-3.987-8-8.013a.856.856,0,0,0-1.226-.2A17.562,17.562,0,0,1,29.932,58c-1.06-.14-2.1-.382-3.179-.583a2.388,2.388,0,0,0-.028.268c0,2.17,0,4.342,0,6.512a2.983,2.983,0,0,0,.083.727,2.926,2.926,0,0,0,3.131,2.232c11.987,0,23.974-.017,35.96.019a3.146,3.146,0,0,0,3.359-3.366c-.042-12.836-.021-25.672-.021-38.508v-.685h-.715c-2.548,0-5.1.006-7.645,0a2.924,2.924,0,0,1-3.223-3.23q-.005-3.851,0-7.7v-.638c-.185-.012-.312-.027-.439-.027q-13.732,0-27.466,0a2.88,2.88,0,0,0-3.026,3.03c-.016,1.472,0,2.945,0,4.417v1.746Zm5.525,1.165A16.427,16.427,0,1,0,48.665,39.866,16.448,16.448,0,0,0,32.244,23.381Zm10.9,31.363c2.674,2.7,5.385,5.427,8.1,8.157a2.95,2.95,0,0,0,.351.285,2.889,2.889,0,0,0,3.572-4.536q-3.871-3.893-7.758-7.77A2.635,2.635,0,0,0,47.2,50.7l-4.048,4.051ZM59.584,14.5c0,2.36,0,4.658,0,6.954,0,.892.33,1.224,1.233,1.227,2.169.007,4.338,0,6.507,0a2.741,2.741,0,0,0,.386-.052L59.583,14.5Z" transform="translate(0)" fill="#fff"/>
      <path id="Path_5937" data-name="Path 5937" d="M162.913,61.234h-10.19a2.981,2.981,0,0,1-.676-.04.887.887,0,0,1-.719-.841.864.864,0,0,1,.578-.94,2.044,2.044,0,0,1,.72-.108q10.276-.007,20.552,0a2.282,2.282,0,0,1,.668.086.858.858,0,0,1,.64.949.887.887,0,0,1-.816.873,4.414,4.414,0,0,1-.621.023H162.913Z" transform="translate(-120.787 -42.358)" fill="#fff"/>
      <path id="Path_5938" data-name="Path 5938" d="M311.359,154.488h6.793a2.9,2.9,0,0,1,.675.046.878.878,0,0,1,.719.9.861.861,0,0,1-.634.9,2.493,2.493,0,0,1-.725.087q-6.848.007-13.7,0a2.761,2.761,0,0,1-.615-.064.934.934,0,0,1,.073-1.833,4.663,4.663,0,0,1,.677-.034q3.368,0,6.736,0Z" transform="translate(-254.185 -125.991)" fill="#fff"/>
      <path id="Path_5939" data-name="Path 5939" d="M326.29,299.641h-5.828a3.631,3.631,0,0,1-.62-.028.889.889,0,0,1-.778-.848.864.864,0,0,1,.624-.961,2.361,2.361,0,0,1,.722-.092q5.885-.007,11.768,0a2.705,2.705,0,0,1,.561.045.905.905,0,0,1,.784.959.919.919,0,0,1-.9.914c-.262.024-.528.015-.791.015Z" transform="translate(-268.162 -251.826)" fill="#fff"/>
      <path id="Path_5940" data-name="Path 5940" d="M333.709,251.878q-2.8,0-5.6,0a.991.991,0,0,1-1.086-.714.95.95,0,0,1,.973-1.21c.622-.024,1.244-.007,1.866-.007h9.161c.15,0,.3-.007.453,0a.983.983,0,0,1,1.012.992.962.962,0,0,1-1.012.929c-.679.019-1.357.006-2.036.006h-3.733Z" transform="translate(-275.124 -209.859)" fill="#fff"/>
      <path id="Path_5941" data-name="Path 5941" d="M333.841,202.277c1.847,0,3.695-.012,5.541.012a1.544,1.544,0,0,1,.882.269.909.909,0,0,1-.259,1.533,1.975,1.975,0,0,1-.717.112q-5.457.009-10.914,0c-.095,0-.189,0-.283,0a.975.975,0,0,1-1.014-.988.942.942,0,0,1,1.051-.935c.867-.015,1.735,0,2.6,0h3.11Z" transform="translate(-275.208 -167.977)" fill="#fff"/>
      <path id="Path_5942" data-name="Path 5942" d="M398.392,396.445c0,.566.012,1.131,0,1.7a2.863,2.863,0,0,1-2.836,2.924c-1.261.051-2.526.026-3.79.008a.985.985,0,0,1-1.085-.981c.009-.568.428-.935,1.113-.941,1.131-.01,2.263,0,3.394,0,.929,0,1.271-.344,1.275-1.256,0-1.15-.016-2.3.007-3.45.018-.88.808-1.395,1.444-.924.245.181.325.586.476.891a.285.285,0,0,1,0,.112v1.923h0Z" transform="translate(-331.088 -335.851)" fill="#fff"/>
      <path id="Path_5943" data-name="Path 5943" d="M356.7,347.372c-1.415,0-2.831,0-4.245,0-.448,0-.873-.164-.958-.626a1.26,1.26,0,0,1,.205-.966,1.509,1.509,0,0,1,.967-.324c.942-.041,1.886-.015,2.829-.015,1.7,0,3.4,0,5.095,0a3.278,3.278,0,0,1,.672.059.864.864,0,0,1,.736.933.842.842,0,0,1-.777.895,12.713,12.713,0,0,1-1.412.046c-1.038.006-2.076,0-3.114,0Z" transform="translate(-296.644 -293.756)" fill="#fff"/>
      <path id="Path_5944" data-name="Path 5944" d="M267.686,109.03q-1.7,0-3.4,0a4.047,4.047,0,0,1-.619-.038.935.935,0,0,1-.073-1.833,3.118,3.118,0,0,1,.672-.062q3.423-.007,6.846,0c.113,0,.227,0,.34,0,.646.053,1.05.421,1.056.958a.977.977,0,0,1-1.094.967c-1.244.018-2.49,0-3.734,0v0Z" transform="translate(-218.804 -84.35)" fill="#fff"/>
      <path id="Path_5945" data-name="Path 5945" d="M45.9,142.816a14.484,14.484,0,1,1,14.183,14.539A14.475,14.475,0,0,1,45.9,142.816Zm14.49,12.6a12.549,12.549,0,1,0-12.535-12.24,12.521,12.521,0,0,0,12.535,12.24Z" transform="translate(-28.158 -103.041)" fill="#fff"/>
      <path id="Path_5946" data-name="Path 5946" d="M104.217,242q3.368,0,6.736,0a3.686,3.686,0,0,1,.675.05.934.934,0,0,1,.019,1.833,3,3,0,0,1-.618.052q-6.821,0-13.641,0H97.33c-.87-.008-1.334-.34-1.341-.96s.46-.977,1.322-.978C99.613,242,101.915,242,104.217,242Z" transform="translate(-72.169 -202.88)" fill="#fff"/>
      <path id="Path_5947" data-name="Path 5947" d="M132.161,196.087c-1.037,0-2.073.006-3.111,0-.761-.006-1.209-.384-1.193-.98.016-.574.454-.944,1.182-.948q3.166-.015,6.334,0c.722,0,1.157.388,1.16.965s-.419.954-1.15.96c-1.074.011-2.15,0-3.224,0Z" transform="translate(-100.168 -160.839)" fill="#fff"/>
      <path id="Path_5948" data-name="Path 5948" d="M132.373,289.861c1.037,0,2.073-.007,3.111,0,.733.007,1.153.368,1.153.957s-.435.966-1.156.97q-3.2.016-6.391,0a.969.969,0,0,1-1.09-.777.858.858,0,0,1,.493-1.029,1.789,1.789,0,0,1,.713-.118C130.262,289.854,131.317,289.861,132.373,289.861Z" transform="translate(-100.272 -244.93)" fill="#fff"/>
    </g>
  </g>
</svg>
