<svg xmlns="http://www.w3.org/2000/svg" width="115.001" height="101" viewBox="0 0 115.001 101">
  <g id="Group_3019" data-name="Group 3019" transform="translate(-1293 -1577)">
    <path id="Union_5" data-name="Union 5" d="M-6197-189h-29a20,20,0,0,1-20-20v-44a20,20,0,0,1,20-20h75a20,20,0,0,1,20,20v44a20,20,0,0,1-20,20h-29l-8.5,17Z" transform="translate(7539 1850)" fill="#f2c167"/>
    <g id="Group_3018" data-name="Group 3018">
      <g id="Group_3017" data-name="Group 3017">
        <g id="deploy_maintain-01" data-name="deploy &amp; maintain-01" transform="translate(1228.588 1580.817)">
          <path id="Path_5965" data-name="Path 5965" d="M109.2,69.182a11.14,11.14,0,0,1-1.213-.4,4.886,4.886,0,0,1-3.032-4.064,7.565,7.565,0,0,1-.05-.936q0-24.608,0-49.215a4.95,4.95,0,0,1,2.839-4.853,5.1,5.1,0,0,1,2.135-.509q13.038-.05,26.076-.015a4.942,4.942,0,0,1,4.924,4.5,8.612,8.612,0,0,1,.045.877q0,24.608.006,49.215a4.93,4.93,0,0,1-1.9,4.263,13.521,13.521,0,0,1-2.4,1.132H109.2Zm-2.254-50.961V61.163h31.927V18.221Zm31.971-2.053c0-.547,0-1.069,0-1.591a3.056,3.056,0,0,0-3.407-3.4h-25.2c-.2,0-.391,0-.586.007a2.858,2.858,0,0,0-2.673,2.173,20.372,20.372,0,0,0-.194,2.8h32.057Zm-20.507,47.07H106.958c-.3,2.506.964,3.947,3.422,3.949h8.064a4.141,4.141,0,0,1-.036-3.949Zm20.428-.006H127.4a4.119,4.119,0,0,1,0,3.955c2.831,0,5.582.006,8.334,0a3.1,3.1,0,0,0,3.11-3.952Zm-15.894-.037c-.351,0-.7-.009-1.052,0a1.991,1.991,0,0,0-.039,3.982c.7.027,1.4.026,2.106,0a1.992,1.992,0,0,0-.02-3.983c-.331-.01-.663,0-.994,0Z" fill="#fff"/>
          <rect id="Rectangle_7003" data-name="Rectangle 7003" width="2.527" height="21.129" rx="1.263" transform="matrix(0.72, 0.694, -0.694, 0.72, 130.039, 30.347)" fill="#fff"/>
          <rect id="Rectangle_7004" data-name="Rectangle 7004" width="2.527" height="9.503" rx="1.263" transform="matrix(0.72, 0.694, -0.694, 0.72, 121.374, 30.812)" fill="#fff"/>
          <rect id="Rectangle_7005" data-name="Rectangle 7005" width="2.527" height="9.503" rx="1.263" transform="matrix(0.72, 0.694, -0.694, 0.72, 129.949, 38.328)" fill="#fff"/>
        </g>
      </g>
    </g>
  </g>
</svg>
