<svg xmlns="http://www.w3.org/2000/svg" width="115.001" height="101" viewBox="0 0 115.001 101">
  <g id="Group_3010" data-name="Group 3010" transform="translate(-710 -1577)">
    <path id="Union_2" data-name="Union 2" d="M-6197-189h-29a20,20,0,0,1-20-20v-44a20,20,0,0,1,20-20h75a20,20,0,0,1,20,20v44a20,20,0,0,1-20,20h-29l-8.5,17Z" transform="translate(6956 1850)" fill="#5c97e3"/>
    <g id="design-01" transform="translate(694.01 1547)">
      <path id="Path_5949" data-name="Path 5949" d="M49.86,45H98.1c.045.03.089.078.139.087a5.867,5.867,0,0,1,4.75,6.007c-.048,11.3-.018,22.609-.02,33.912a5.705,5.705,0,0,1-5.983,5.966q-8.322,0-16.645,0h-.655v5.209h.886a5.715,5.715,0,0,1,5.819,4.955c.207,1.288-.262,1.838-1.569,1.838H63.136c-.15,0-.3.007-.452,0a1.16,1.16,0,0,1-1.152-1.271,5.626,5.626,0,0,1,4.958-5.439c.591-.072,1.191-.082,1.786-.121V90.972H50.857a5.393,5.393,0,0,1-4.681-2.286A15.219,15.219,0,0,1,44.99,86.1V49.869a5.054,5.054,0,0,0,.071-.506A5.262,5.262,0,0,1,46.8,46.184,4.14,4.14,0,0,1,49.859,45Zm1.19,2.265a3.454,3.454,0,0,0-3.794,3.791V79.622h5.209v-.689c0-5.284-.007-10.568.013-15.853a3.115,3.115,0,0,1,.309-1.289c.779-1.632,1.6-3.243,2.411-4.862q.936-1.87,1.875-3.738a1.136,1.136,0,0,1,2.095-.024c.044.084.085.167.128.252,1.408,2.814,2.826,5.623,4.215,8.447a2.809,2.809,0,0,1,.267,1.188c.017,5.3.011,10.605.011,15.909v.644h5.65c.01-.138.018-.231.021-.325a87.945,87.945,0,0,1,.974-12.005,1,1,0,0,0-.289-.716,5.464,5.464,0,0,1-1.052-6.373c1.272-2.438,2.693-4.8,4.08-7.175a1.119,1.119,0,0,1,2.042.075c1.265,2.164,2.527,4.331,3.76,6.515a5.64,5.64,0,0,1-1.14,7.29,1.011,1.011,0,0,0-.22.728c.262,3.326.557,6.65.821,9.976.052.668.007,1.343.007,2.014h5.728V53.987c0-1.119.386-1.51,1.491-1.51q4.1,0,8.209,0c1.275,0,1.624.345,1.624,1.6V79.617a2.6,2.6,0,0,0,.265.034c1.621,0,3.242,0,4.944,0V51.059a3.455,3.455,0,0,0-3.794-3.792M47.256,81.933v2.88c0,2.556,1.347,3.894,3.916,3.894H96.79c.264,0,.529,0,.791-.021a3.155,3.155,0,0,0,2.975-2.585,33.142,33.142,0,0,0,.037-4.167H47.256ZM93.229,59.267c-.39,0-.708.011-1.025,0a1.134,1.134,0,1,1,.016-2.259c.329-.011.659,0,.98,0V54.776H86.477V79.648h6.488a1.7,1.7,0,0,0,.23-.03V77.385c-.352,0-.669.01-.986,0a1.134,1.134,0,1,1,0-2.259c.33-.013.661,0,.987,0v-4.53c-.3,0-.583,0-.862,0-.827-.011-1.354-.444-1.366-1.116-.011-.691.53-1.137,1.391-1.147.275,0,.55,0,.821,0v-3.4c-.362,0-.682.011-1,0a1.131,1.131,0,1,1-.007-2.256c.333-.016.668,0,1.027,0,.01-.149.021-.24.021-.329V59.271ZM74.167,55.8c-.381.661-.7,1.213-1.021,1.767-.682,1.193-1.4,2.366-2.035,3.584A3.3,3.3,0,0,0,71.794,65a3.385,3.385,0,0,0,3.918.608,3.278,3.278,0,0,0,1.769-3.531,10.7,10.7,0,0,0-1.112-2.442c-.689-1.271-1.437-2.51-2.2-3.839Zm9.781,44.893a5.14,5.14,0,0,0-.244-.536,3.355,3.355,0,0,0-3.053-1.7q-6.644-.006-13.289,0a5,5,0,0,0-.564.028,3.2,3.2,0,0,0-2.731,2.212h19.88ZM54.768,63.824V79.6h2.2V63.824h-2.2Zm6.717,15.8V63.844h-2.2v15.78ZM70.614,91v5.148h6.722V91Zm1.937-22.839c-.235,2.262-.477,4.577-.722,6.931h4.31c-.235-2.332-.467-4.626-.7-6.931H72.553ZM58.127,56.143,55.451,61.5H60.8C59.914,59.715,59.05,57.991,58.127,56.143ZM71.776,79.608h4.391v-2.2H71.776Z" transform="translate(0)" fill="#fff"/>
      <path id="Path_5950" data-name="Path 5950" d="M214,323.516c-1.038,0-2.075.006-3.113,0-.821-.006-1.35-.458-1.35-1.13s.529-1.127,1.352-1.13q3.17-.009,6.339,0c.821,0,1.35.458,1.35,1.13s-.53,1.125-1.352,1.13C216.154,323.522,215.078,323.516,214,323.516Z" transform="translate(-141.214 -237.072)" fill="#fff"/>
      <path id="Path_5951" data-name="Path 5951" d="M291.636,322.46a1.123,1.123,0,1,1-1.116-1.13A1.16,1.16,0,0,1,291.636,322.46Z" transform="translate(-209.739 -237.141)" fill="#fff"/>
    </g>
  </g>
</svg>
