<svg xmlns="http://www.w3.org/2000/svg" width="115.001" height="101" viewBox="0 0 115.001 101">
  <g id="Group_3014" data-name="Group 3014" transform="translate(-902 -1577)">
    <g id="Group_3012" data-name="Group 3012">
      <path id="Union_3" data-name="Union 3" d="M-6197-189h-29a20,20,0,0,1-20-20v-44a20,20,0,0,1,20-20h75a20,20,0,0,1,20,20v44a20,20,0,0,1-20,20h-29l-8.5,17Z" transform="translate(7148 1850)" fill="#5ccccc"/>
    </g>
    <g id="Group_3013" data-name="Group 3013">
      <g id="Group_3011" data-name="Group 3011">
        <g id="develop-01" transform="translate(905.219 1542.539)">
          <path id="Path_5952" data-name="Path 5952" d="M81.572,56.091V95.819a1.432,1.432,0,0,0-.084.207,6.4,6.4,0,0,1-6.776,5.431H45.822c-5.172,0-10.345.013-15.517-.005a6.373,6.373,0,0,1-6.511-6.383q-.029-19.1.018-38.2a6.477,6.477,0,0,1,.6-2.661,6.257,6.257,0,0,1,6.109-3.745q22.147,0,44.294,0c.207,0,.415,0,.62.013a6.3,6.3,0,0,1,5.59,3.852A13.886,13.886,0,0,1,81.572,56.091Zm-1.913,9.7H25.7V94.661a4.536,4.536,0,0,0,4.9,4.882H74.771a4.537,4.537,0,0,0,4.887-4.894q0-14.1,0-28.207v-.647Zm-.029-1.984c.011-.18.028-.327.028-.473,0-2.087.01-4.176,0-6.263a4.5,4.5,0,0,0-4.688-4.7q-22.288-.015-44.578,0a4.5,4.5,0,0,0-4.689,4.7c-.01,1.58,0,3.16,0,4.74v2H79.629Z" transform="translate(0)" fill="#fff"/>
          <path id="Path_5953" data-name="Path 5953" d="M231.473,215.182c-.225,1.073-.472,2.267-.723,3.46l-3,14.215c-.042.2-.071.408-.131.6a.967.967,0,0,1-1.11.729.955.955,0,0,1-.741-1.152c.2-1.032.422-2.059.639-3.088q1.569-7.437,3.139-14.876a1.12,1.12,0,0,1,.73-.98c.612-.194,1.2.282,1.2,1.087Z" transform="translate(-176.199 -142.718)" fill="#fff"/>
          <path id="Path_5954" data-name="Path 5954" d="M149.087,250.17l4.075,3.47c.387.329.783.647,1.157.99a.974.974,0,0,1,.179,1.4.946.946,0,0,1-1.407.048q-3.018-2.545-6.011-5.119a.953.953,0,0,1,.018-1.6q2.968-2.561,5.966-5.084a.962.962,0,0,1,1.448.038.992.992,0,0,1-.251,1.435c-1.5,1.286-3,2.562-4.505,3.843-.2.17-.4.342-.667.574Z" transform="translate(-107.198 -168.821)" fill="#fff"/>
          <path id="Path_5955" data-name="Path 5955" d="M296.207,250.111c-1.716-1.463-3.375-2.876-5.032-4.292a2.651,2.651,0,0,1-.4-.394.93.93,0,0,1,1.2-1.374,2.847,2.847,0,0,1,.45.336q2.771,2.356,5.537,4.718c.884.755.88,1.266,0,2.011-1.876,1.595-3.745,3.2-5.633,4.778a1.369,1.369,0,0,1-.884.382,1.273,1.273,0,0,1-.8-.584.835.835,0,0,1,.262-1.064c.637-.556,1.284-1.1,1.927-1.651,1.1-.938,2.2-1.873,3.365-2.864Z" transform="translate(-232.735 -168.763)" fill="#fff"/>
          <path id="Path_5956" data-name="Path 5956" d="M55.34,89.96a3.01,3.01,0,1,1,6.02-.006,3.01,3.01,0,1,1-6.02.005Zm2.993-1.1A1.113,1.113,0,0,0,57.25,90a1.126,1.126,0,0,0,1.1,1.068,1.1,1.1,0,0,0-.019-2.207Z" transform="translate(-27.533 -31.825)" fill="#fff"/>
          <path id="Path_5957" data-name="Path 5957" d="M206.72,90.448A3.005,3.005,0,1,1,203.7,87.46,2.991,2.991,0,0,1,206.72,90.448Zm-3.02,1.107a1.09,1.09,0,0,0,.033-2.179,1.09,1.09,0,1,0-.033,2.179Z" transform="translate(-154.355 -32.278)" fill="#fff"/>
          <path id="Path_5958" data-name="Path 5958" d="M128.05,90.3a3,3,0,1,1,3.015,3,2.988,2.988,0,0,1-3.015-3Zm2.994-1.1a1.092,1.092,0,0,0,.015,2.183,1.092,1.092,0,1,0-.015-2.184Z" transform="translate(-90.966 -32.13)" fill="#fff"/>
        </g>
      </g>
    </g>
  </g>
</svg>
