<svg xmlns="http://www.w3.org/2000/svg" xmlns:xlink="http://www.w3.org/1999/xlink" width="278" height="278" viewBox="0 0 278 278">
  <defs>
    <clipPath id="clip-path">
      <circle id="Ellipse_263" data-name="Ellipse 263" cx="139" cy="139" r="139" transform="translate(1182 5518)" fill="#fff" stroke="#707070" stroke-width="1"/>
    </clipPath>
    <radialGradient id="radial-gradient" cx="0.309" cy="0.483" fx="1.175719976425171" r="0.891" gradientUnits="objectBoundingBox">
      <stop offset="0" stop-color="#00a4eb"/>
      <stop offset="0.06" stop-color="#00a7ed"/>
      <stop offset="0.26" stop-color="#00adf1"/>
      <stop offset="0.37" stop-color="#009de6"/>
      <stop offset="0.5" stop-color="#0085d7"/>
      <stop offset="0.7" stop-color="#0058ba"/>
    </radialGradient>
  </defs>
  <g id="Mask_Group_12" data-name="Mask Group 12" transform="translate(-1182 -5518)" clip-path="url(#clip-path)">
    <g id="Microservices-01" transform="translate(1147.5 5497.5)">
      <g id="Layer_2" data-name="Layer 2">
        <rect id="Rectangle_7446" data-name="Rectangle 7446" width="329" height="329" transform="translate(0.5 0.5)" fill="url(#radial-gradient)"/>
      </g>
      <g id="Layer_13" data-name="Layer 13" transform="translate(64.03 57.48)">
        <path id="Path_8173" data-name="Path 8173" d="M362.072,301.413a3.041,3.041,0,0,1-1.566-.434l-9.4-5.633.566-.948,9.4,5.633a1.93,1.93,0,0,0,1.974.013l15.292-8.942a.768.768,0,0,0-.026-1.342l-20.385-10.916.52-.974,20.385,10.916a1.875,1.875,0,0,1,.059,3.27L363.6,301a3.055,3.055,0,0,1-1.54.415Z" transform="translate(-184.11 -152.512)" fill="#b2d3ea"/>
        <path id="Path_8174" data-name="Path 8174" d="M288.077,414.4a3.9,3.9,0,0,1-1.921-.5l-37.5-20.878a1.723,1.723,0,0,1-.013-3.007l16.97-9.574a.593.593,0,0,0,0-1.026l-18.885-10.844a1.695,1.695,0,0,1-.059-2.9l7.712-4.889.592.934-7.712,4.889a.592.592,0,0,0,.02,1.013l18.885,10.844a1.692,1.692,0,0,1-.013,2.941l-16.97,9.574a.613.613,0,0,0-.316.54.607.607,0,0,0,.316.54l37.5,20.878a2.869,2.869,0,0,0,2.862-.053l14.259-8.765a.275.275,0,0,0,.132-.23.266.266,0,0,0-.132-.23l-10.324-6.271.572-.948,10.324,6.271a1.374,1.374,0,0,1,.007,2.349l-14.265,8.771a3.967,3.967,0,0,1-2.053.572Z" transform="translate(-148.121 -180.867)" fill="#b2d3ea"/>
        <g id="Group_2879" data-name="Group 2879" transform="translate(132.057 80.914)">
          <path id="Path_8175" data-name="Path 8175" d="M324.832,302.239,306.751,291.8c-1.112-.638-.967-1.757.309-2.5l17.457-10.081a4.808,4.808,0,0,1,4.33-.178l18.082,10.436c1.112.638.967,1.757-.309,2.5l-17.457,10.081A4.808,4.808,0,0,1,324.832,302.239Z" transform="translate(-300.74 -233.679)" fill="#b2d3ea"/>
          <g id="Group_2873" data-name="Group 2873" transform="translate(0 24.971)">
            <path id="Path_8176" data-name="Path 8176" d="M350.2,276.876h0v-7.81H332.682l-6.054-3.507a6.021,6.021,0,0,0-5.422.224l-5.652,3.264H298.018v8.028a1.575,1.575,0,0,0,.928,1.454L321.588,291.6a6.021,6.021,0,0,0,5.422-.224l21.859-12.62c.928-.533,1.375-1.224,1.323-1.869Z" transform="translate(-298.008 -254)" fill="#396caa"/>
            <path id="Path_8177" data-name="Path 8177" d="M324.1,265.03a6.292,6.292,0,0,0-2.908.763l-5.652,3.264H298.008v8.028a1.575,1.575,0,0,0,.928,1.454l22.642,13.074a4.894,4.894,0,0,0,2.514.54v-27.11Z" transform="translate(-298.005 -254.005)" fill="#396caa"/>
            <path id="Path_8178" data-name="Path 8178" d="M300.005,271.13h-1.987v8.034a1.575,1.575,0,0,0,.928,1.454l1.053.605V271.13Z" transform="translate(-298.008 -256.092)" fill="#5793ce"/>
            <path id="Path_8179" data-name="Path 8179" d="M334.38,300.9a6.158,6.158,0,0,0,4.336-.053v-9.12H334.38V300.9Z" transform="translate(-310.445 -263.137)" fill="#5793ce"/>
            <path id="Path_8180" data-name="Path 8180" d="M321.594,277.869l-22.642-13.074c-1.388-.8-1.217-2.2.388-3.132l21.859-12.62a6.021,6.021,0,0,1,5.422-.224l22.642,13.074c1.388.8,1.217,2.2-.388,3.132l-21.859,12.62A6.021,6.021,0,0,1,321.594,277.869Z" transform="translate(-298.008 -248.275)" fill="#d4ecff"/>
            <path id="Path_8181" data-name="Path 8181" d="M324.2,276.781l-18.97-10.956c-1.165-.671-1.02-1.849.329-2.625l18.319-10.574a5.047,5.047,0,0,1,4.54-.191l18.97,10.956c1.165.671,1.02,1.849-.329,2.625L328.742,276.59a5.047,5.047,0,0,1-4.54.191Z" transform="translate(-300.207 -249.543)" fill="#5793ce"/>
            <g id="Group_2872" data-name="Group 2872" transform="translate(42.036 20.89)">
              <path id="Path_8182" data-name="Path 8182" d="M363.719,285.841a2.024,2.024,0,0,1-.915,1.586c-.507.3-.915.053-.915-.526a2.034,2.034,0,0,1,.915-1.586C363.311,285.018,363.719,285.262,363.719,285.841Z" transform="translate(-361.89 -281.789)" fill="#d4ecff"/>
              <path id="Path_8183" data-name="Path 8183" d="M368.189,283.262a2.024,2.024,0,0,1-.915,1.586c-.507.29-.915.053-.915-.526a2.034,2.034,0,0,1,.915-1.586C367.781,282.446,368.189,282.683,368.189,283.262Z" transform="translate(-363.419 -280.908)" fill="#d4ecff"/>
              <path id="Path_8184" data-name="Path 8184" d="M372.659,280.672a2.024,2.024,0,0,1-.915,1.586c-.507.289-.915.053-.915-.526a2.034,2.034,0,0,1,.915-1.586C372.251,279.856,372.659,280.093,372.659,280.672Z" transform="translate(-364.947 -280.022)" fill="#d4ecff"/>
            </g>
          </g>
          <g id="Group_2875" data-name="Group 2875" transform="translate(0 12.482)">
            <path id="Path_8185" data-name="Path 8185" d="M350.2,257.906h0V250.1H332.682l-6.054-3.507a6.021,6.021,0,0,0-5.422.224l-5.652,3.264H298.018V258.1a1.575,1.575,0,0,0,.928,1.454l22.642,13.074a6.021,6.021,0,0,0,5.422-.224l21.859-12.62a2.141,2.141,0,0,0,1.323-1.869Z" transform="translate(-298.008 -235.024)" fill="#396caa"/>
            <path id="Path_8186" data-name="Path 8186" d="M324.1,246.06a6.291,6.291,0,0,0-2.908.763l-5.652,3.264H298.008v8.028a1.575,1.575,0,0,0,.928,1.454l22.642,13.074a4.894,4.894,0,0,0,2.514.54v-27.11Z" transform="translate(-298.005 -235.029)" fill="#396caa"/>
            <path id="Path_8187" data-name="Path 8187" d="M300.005,252.16h-1.987v8.034a1.575,1.575,0,0,0,.928,1.454l1.053.605V252.16Z" transform="translate(-298.008 -237.115)" fill="#5793ce"/>
            <path id="Path_8188" data-name="Path 8188" d="M334.38,281.933a6.158,6.158,0,0,0,4.336-.053v-9.12H334.38Z" transform="translate(-310.445 -244.16)" fill="#5793ce"/>
            <path id="Path_8189" data-name="Path 8189" d="M321.594,258.889l-22.642-13.074c-1.388-.8-1.217-2.2.388-3.132l21.859-12.62a6.021,6.021,0,0,1,5.422-.224l22.642,13.074c1.388.8,1.217,2.2-.388,3.132l-21.859,12.62A6.021,6.021,0,0,1,321.594,258.889Z" transform="translate(-298.008 -229.295)" fill="#d4ecff"/>
            <path id="Path_8190" data-name="Path 8190" d="M324.2,257.811l-18.97-10.956c-1.165-.671-1.02-1.849.329-2.625l18.319-10.574a5.047,5.047,0,0,1,4.54-.191l18.97,10.956c1.165.671,1.02,1.849-.329,2.625L328.742,257.62a5.047,5.047,0,0,1-4.54.191Z" transform="translate(-300.207 -230.567)" fill="#5793ce"/>
            <g id="Group_2874" data-name="Group 2874" transform="translate(42.036 20.896)">
              <path id="Path_8191" data-name="Path 8191" d="M363.719,266.861a2.024,2.024,0,0,1-.915,1.586c-.507.29-.915.053-.915-.526a2.034,2.034,0,0,1,.915-1.586C363.311,266.038,363.719,266.282,363.719,266.861Z" transform="translate(-361.89 -262.815)" fill="#d4ecff"/>
              <path id="Path_8192" data-name="Path 8192" d="M368.189,264.282a2.024,2.024,0,0,1-.915,1.586c-.507.29-.915.053-.915-.526a2.034,2.034,0,0,1,.915-1.586C367.781,263.466,368.189,263.7,368.189,264.282Z" transform="translate(-363.419 -261.935)" fill="#d4ecff"/>
              <path id="Path_8193" data-name="Path 8193" d="M372.659,261.7a2.024,2.024,0,0,1-.915,1.586c-.507.29-.915.053-.915-.526a2.034,2.034,0,0,1,.915-1.586C372.251,260.886,372.659,261.123,372.659,261.7Z" transform="translate(-364.947 -261.052)" fill="#d4ecff"/>
            </g>
          </g>
          <g id="Group_2878" data-name="Group 2878" transform="translate(0)">
            <path id="Path_8194" data-name="Path 8194" d="M350.2,238.936h0v-7.81H332.682l-6.054-3.507a6.021,6.021,0,0,0-5.422.224l-5.652,3.264H298.018v8.028a1.575,1.575,0,0,0,.928,1.454l22.642,13.074a6.021,6.021,0,0,0,5.422-.224l21.859-12.62a2.141,2.141,0,0,0,1.323-1.869Z" transform="translate(-298.008 -216.054)" fill="#396caa"/>
            <path id="Path_8195" data-name="Path 8195" d="M324.1,227.08a6.292,6.292,0,0,0-2.908.763l-5.652,3.264H298.008v8.028a1.575,1.575,0,0,0,.928,1.454l22.642,13.074a4.894,4.894,0,0,0,2.514.54v-27.11Z" transform="translate(-298.005 -216.055)" fill="#396caa"/>
            <path id="Path_8196" data-name="Path 8196" d="M300.005,233.18h-1.987v8.034a1.575,1.575,0,0,0,.928,1.454l1.053.605V233.18Z" transform="translate(-298.008 -218.142)" fill="#5793ce"/>
            <path id="Path_8197" data-name="Path 8197" d="M334.38,262.963a6.158,6.158,0,0,0,4.336-.053v-9.12H334.38Z" transform="translate(-310.445 -225.19)" fill="#5793ce"/>
            <path id="Path_8198" data-name="Path 8198" d="M321.594,239.919l-22.642-13.074c-1.388-.8-1.217-2.2.388-3.132l21.859-12.62a6.021,6.021,0,0,1,5.422-.224l22.642,13.074c1.388.8,1.217,2.2-.388,3.132l-21.859,12.62a6.021,6.021,0,0,1-5.422.224Z" transform="translate(-298.008 -210.325)" fill="#d4ecff"/>
            <path id="Path_8199" data-name="Path 8199" d="M348.875,232.934l-21.859,12.62a6.021,6.021,0,0,1-5.422.224L298.953,232.7a2.056,2.056,0,0,1-.691-.612,1.453,1.453,0,0,0,.691,2.152l22.642,13.074a6.021,6.021,0,0,0,5.422-.224l21.859-12.62c1.244-.717,1.625-1.724,1.086-2.514a3.078,3.078,0,0,1-1.086.98Z" transform="translate(-298.008 -217.724)" fill="#fff"/>
            <g id="Group_2876" data-name="Group 2876" transform="translate(42.036 20.896)">
              <path id="Path_8200" data-name="Path 8200" d="M363.719,247.892a2.024,2.024,0,0,1-.915,1.586c-.507.3-.915.053-.915-.526a2.034,2.034,0,0,1,.915-1.586C363.311,247.076,363.719,247.313,363.719,247.892Z" transform="translate(-361.89 -243.847)" fill="#d4ecff"/>
              <path id="Path_8201" data-name="Path 8201" d="M368.189,245.312a2.024,2.024,0,0,1-.915,1.586c-.507.29-.915.053-.915-.526a2.034,2.034,0,0,1,.915-1.586C367.781,244.5,368.189,244.733,368.189,245.312Z" transform="translate(-363.419 -242.965)" fill="#d4ecff"/>
              <path id="Path_8202" data-name="Path 8202" d="M372.659,242.732a2.024,2.024,0,0,1-.915,1.586c-.507.29-.915.053-.915-.526a2.034,2.034,0,0,1,.915-1.586C372.251,241.916,372.659,242.153,372.659,242.732Z" transform="translate(-364.947 -242.082)" fill="#d4ecff"/>
            </g>
            <g id="Group_2877" data-name="Group 2877" transform="translate(13.896 7.632)">
              <path id="Path_8203" data-name="Path 8203" d="M330.156,235.779l-10.594-6.119c-.651-.375-.566-1.033.184-1.467l10.232-5.909a2.824,2.824,0,0,1,2.54-.105l10.594,6.119c.651.375.566,1.033-.184,1.467L332.7,235.674A2.824,2.824,0,0,1,330.156,235.779Z" transform="translate(-319.124 -221.925)" fill="#5793ce"/>
              <path id="Path_8204" data-name="Path 8204" d="M336.635,234.2l-1.467-.849c-.092-.053-.079-.145.026-.2l1.415-.816a.386.386,0,0,1,.349-.013l1.467.849c.092.053.079.145-.026.2l-1.415.816A.386.386,0,0,1,336.635,234.2Z" transform="translate(-324.59 -225.468)" fill="#d4ecff"/>
              <path id="Path_8205" data-name="Path 8205" d="M319.556,229.67l.033.02a1.5,1.5,0,0,1,.151-.105l10.232-5.909a2.824,2.824,0,0,1,2.54-.105l10.567,6.1c.6-.428.632-1.013.033-1.362l-10.594-6.119a2.825,2.825,0,0,0-2.54.105L319.746,228.2c-.75.434-.836,1.092-.184,1.467Z" transform="translate(-319.124 -221.928)" fill="#396caa"/>
            </g>
          </g>
        </g>
        <path id="Path_8206" data-name="Path 8206" d="M251.917,351.039l-39.079-22.28c-1.428-.822-1.25-2.264.4-3.218l22.484-12.982a6.176,6.176,0,0,1,5.573-.23l39.079,22.28c1.428.823,1.25,2.264-.4,3.218l-22.484,12.982A6.176,6.176,0,0,1,251.917,351.039Z" transform="translate(-136.491 -164.106)" fill="#b2d3ea"/>
        <path id="Path_8207" data-name="Path 8207" d="M282.545,280.4h0V189.179l-36.269-9.495-6.679-3.856a6.625,6.625,0,0,0-5.981.25l-6.231,3.6-19.345-.013,5.731,88.067a1.735,1.735,0,0,0,1.026,1.606l36.19,27.307a6.625,6.625,0,0,0,5.981-.25l24.122-13.923a2.37,2.37,0,0,0,1.454-2.066Z" transform="translate(-135.18 -117.409)" fill="#396caa"/>
        <path id="Path_8208" data-name="Path 8208" d="M236.829,175.24a6.853,6.853,0,0,0-3.2.842l-6.231,3.6-19.345-.013v91.475a1.735,1.735,0,0,0,1.026,1.606L251,296.654a5.379,5.379,0,0,0,2.777.592l.434-92.048L236.835,175.24Z" transform="translate(-135.181 -117.413)" fill="#d4ecff"/>
        <path id="Path_8209" data-name="Path 8209" d="M273.9,311.842a6.846,6.846,0,0,0,4.784-.053V219.11H273.9v92.732Z" transform="translate(-157.704 -132.416)" fill="#5793ce"/>
        <path id="Path_8210" data-name="Path 8210" d="M250.983,198.884l-41.921-23.905c-1.533-.888-1.342-2.428.428-3.454L233.612,157.6a6.666,6.666,0,0,1,5.981-.25l41.921,23.905c1.533.888,1.342,2.428-.428,3.455l-24.122,13.923A6.666,6.666,0,0,1,250.983,198.884Z" transform="translate(-135.175 -111.091)" fill="#d4ecff"/>
        <path id="Path_8211" data-name="Path 8211" d="M281.088,191.25l-24.122,13.923a6.666,6.666,0,0,1-5.981.25l-41.921-23.905a2.289,2.289,0,0,1-.763-.678,1.606,1.606,0,0,0,.763,2.375l41.921,23.905a6.625,6.625,0,0,0,5.981-.25l24.122-13.923c1.375-.8,1.8-1.9,1.2-2.777A3.351,3.351,0,0,1,281.088,191.25Z" transform="translate(-135.176 -119.328)" fill="#fafdff"/>
        <g id="Group_2881" data-name="Group 2881" transform="translate(89.031 53.515)">
          <path id="Path_8212" data-name="Path 8212" d="M261.011,193.4,233.1,177.216c-.717-.415-.625-1.138.2-1.619l11.285-6.514a3.1,3.1,0,0,1,2.8-.118l27.912,16.18c.717.415.625,1.138-.2,1.619l-11.285,6.514A3.1,3.1,0,0,1,261.011,193.4Z" transform="translate(-232.616 -168.685)" fill="#173d7a"/>
          <g id="Group_2880" data-name="Group 2880" transform="translate(12.556 7.585)">
            <path id="Path_8213" data-name="Path 8213" d="M253.285,182.277l-1.527-.882c-.092-.053-.079-.151.033-.217l1.507-.908a.389.389,0,0,1,.368-.02l1.527.882c.092.053.079.151-.033.217l-1.507.908A.389.389,0,0,1,253.285,182.277Z" transform="translate(-251.697 -180.213)" fill="#d4ecff"/>
            <path id="Path_8214" data-name="Path 8214" d="M261.025,186.727l-1.527-.882c-.092-.053-.079-.151.033-.217l1.507-.908a.389.389,0,0,1,.368-.02l1.527.882c.092.053.079.151-.033.217l-1.507.908A.389.389,0,0,1,261.025,186.727Z" transform="translate(-254.344 -181.734)" fill="#d4ecff"/>
            <path id="Path_8215" data-name="Path 8215" d="M268.765,191.177l-1.527-.882c-.092-.053-.079-.151.033-.217l1.507-.908a.389.389,0,0,1,.368-.02l1.527.882c.092.053.079.151-.033.217l-1.507.908A.389.389,0,0,1,268.765,191.177Z" transform="translate(-256.991 -183.256)" fill="#d4ecff"/>
            <path id="Path_8216" data-name="Path 8216" d="M276.5,195.627l-1.527-.882c-.092-.053-.079-.151.033-.217l1.507-.908a.389.389,0,0,1,.368-.02l1.527.882c.092.053.079.151-.033.217l-1.507.908A.389.389,0,0,1,276.5,195.627Z" transform="translate(-259.638 -184.778)" fill="#d4ecff"/>
          </g>
          <path id="Path_8217" data-name="Path 8217" d="M233.1,177.216l.033.02a1.925,1.925,0,0,1,.171-.118l11.285-6.514a3.1,3.1,0,0,1,2.8-.118l27.879,16.16c.658-.474.7-1.119.033-1.5l-27.912-16.18a3.1,3.1,0,0,0-2.8.118L233.3,175.6C232.474,176.078,232.382,176.8,233.1,177.216Z" transform="translate(-232.616 -168.685)" fill="#5793ce"/>
        </g>
        <g id="Group_2883" data-name="Group 2883" transform="translate(124.882 86.6)">
          <path id="Path_8218" data-name="Path 8218" d="M288.719,238.235l15.871-9.087a3.871,3.871,0,0,0,1.619-3.093v-5.672c0-1.191-.724-1.737-1.619-1.224l-15.871,9.087a3.871,3.871,0,0,0-1.619,3.093v5.672C287.1,238.2,287.824,238.748,288.719,238.235Z" transform="translate(-287.1 -218.967)" fill="#173d7a"/>
          <path id="Path_8219" data-name="Path 8219" d="M305.585,219.007a1.586,1.586,0,0,1,.408,1.178v5.672a3.858,3.858,0,0,1-1.619,3.086L288.5,238.029a1.172,1.172,0,0,1-.783.171.964.964,0,0,0,1.211.039l15.871-9.087a3.868,3.868,0,0,0,1.619-3.086v-5.672c0-.809-.336-1.309-.829-1.395Z" transform="translate(-287.312 -218.978)" fill="#fff"/>
          <g id="Group_2882" data-name="Group 2882" transform="translate(6.034 6.919)">
            <path id="Path_8220" data-name="Path 8220" d="M296.625,237.126l1.454-.842a.838.838,0,0,0,.355-.671V234.06c0-.257-.158-.382-.355-.263l-1.454.842a.838.838,0,0,0-.355.671v1.553C296.27,237.12,296.428,237.245,296.625,237.126Z" transform="translate(-296.27 -230.942)" fill="#396caa"/>
            <path id="Path_8221" data-name="Path 8221" d="M304.025,232.856l1.454-.842a.838.838,0,0,0,.355-.671V229.79c0-.257-.158-.382-.355-.263l-1.454.842a.838.838,0,0,0-.355.671v1.553C303.67,232.85,303.828,232.975,304.025,232.856Z" transform="translate(-298.801 -229.482)" fill="#fff"/>
          </g>
        </g>
        <g id="Group_2885" data-name="Group 2885" transform="translate(124.882 127.606)">
          <path id="Path_8222" data-name="Path 8222" d="M288.719,300.555l15.871-9.087a3.871,3.871,0,0,0,1.619-3.093V282.7c0-1.191-.724-1.737-1.619-1.224l-15.871,9.087a3.871,3.871,0,0,0-1.619,3.093v5.672C287.1,300.522,287.824,301.068,288.719,300.555Z" transform="translate(-287.1 -281.287)" fill="#173d7a"/>
          <path id="Path_8223" data-name="Path 8223" d="M305.585,281.323a1.586,1.586,0,0,1,.408,1.178v5.672a3.858,3.858,0,0,1-1.619,3.086L288.5,300.346a1.172,1.172,0,0,1-.783.171.964.964,0,0,0,1.211.039L304.8,291.47a3.871,3.871,0,0,0,1.619-3.093V282.7c0-.809-.336-1.309-.829-1.395Z" transform="translate(-287.312 -281.295)" fill="#fff"/>
          <g id="Group_2884" data-name="Group 2884" transform="translate(6.034 6.919)">
            <path id="Path_8224" data-name="Path 8224" d="M296.625,299.446l1.454-.842a.838.838,0,0,0,.355-.671V296.38c0-.257-.158-.382-.355-.263l-1.454.842a.838.838,0,0,0-.355.671v1.553C296.27,299.44,296.428,299.565,296.625,299.446Z" transform="translate(-296.27 -293.262)" fill="#396caa"/>
            <path id="Path_8225" data-name="Path 8225" d="M304.025,295.176l1.454-.842a.838.838,0,0,0,.355-.671V292.11c0-.257-.158-.382-.355-.263l-1.454.842a.838.838,0,0,0-.355.671v1.553C303.67,295.17,303.828,295.295,304.025,295.176Z" transform="translate(-298.801 -291.802)" fill="#396caa"/>
          </g>
        </g>
        <g id="Group_2887" data-name="Group 2887" transform="translate(124.882 148.11)">
          <path id="Path_8226" data-name="Path 8226" d="M288.719,331.715l15.871-9.087a3.871,3.871,0,0,0,1.619-3.093v-5.672c0-1.191-.724-1.737-1.619-1.224l-15.871,9.087a3.871,3.871,0,0,0-1.619,3.093v5.672C287.1,331.682,287.824,332.228,288.719,331.715Z" transform="translate(-287.1 -312.447)" fill="#173d7a"/>
          <path id="Path_8227" data-name="Path 8227" d="M305.585,312.487a1.586,1.586,0,0,1,.408,1.178v5.672a3.881,3.881,0,0,1-1.619,3.093L288.5,331.516a1.172,1.172,0,0,1-.783.171.964.964,0,0,0,1.211.039L304.8,322.64a3.871,3.871,0,0,0,1.619-3.093v-5.672c0-.809-.336-1.309-.829-1.395Z" transform="translate(-287.312 -312.458)" fill="#fff"/>
          <g id="Group_2886" data-name="Group 2886" transform="translate(6.034 6.919)">
            <path id="Path_8228" data-name="Path 8228" d="M296.625,330.606l1.454-.842a.838.838,0,0,0,.355-.671V327.54c0-.257-.158-.382-.355-.263l-1.454.842a.838.838,0,0,0-.355.671v1.553C296.27,330.6,296.428,330.725,296.625,330.606Z" transform="translate(-296.27 -324.422)" fill="#fff"/>
            <path id="Path_8229" data-name="Path 8229" d="M304.025,326.336l1.454-.842a.838.838,0,0,0,.355-.671V323.27c0-.257-.158-.382-.355-.263l-1.454.842a.838.838,0,0,0-.355.671v1.553C303.67,326.33,303.828,326.455,304.025,326.336Z" transform="translate(-298.801 -322.962)" fill="#396caa"/>
          </g>
        </g>
        <g id="Group_2889" data-name="Group 2889" transform="translate(124.882 107.103)">
          <path id="Path_8230" data-name="Path 8230" d="M288.719,269.4l15.871-9.087a3.871,3.871,0,0,0,1.619-3.093v-5.672c0-1.191-.724-1.737-1.619-1.224l-15.871,9.087A3.871,3.871,0,0,0,287.1,262.5v5.672C287.1,269.362,287.824,269.908,288.719,269.4Z" transform="translate(-287.1 -250.127)" fill="#173d7a"/>
          <path id="Path_8231" data-name="Path 8231" d="M305.585,250.167a1.586,1.586,0,0,1,.408,1.178v5.672a3.858,3.858,0,0,1-1.619,3.086L288.5,269.189a1.172,1.172,0,0,1-.783.171.964.964,0,0,0,1.211.039l15.871-9.087a3.868,3.868,0,0,0,1.619-3.086v-5.672c0-.809-.336-1.309-.829-1.395Z" transform="translate(-287.312 -250.138)" fill="#fff"/>
          <g id="Group_2888" data-name="Group 2888" transform="translate(6.034 6.919)">
            <path id="Path_8232" data-name="Path 8232" d="M296.625,268.286l1.454-.842a.838.838,0,0,0,.355-.671V265.22c0-.257-.158-.382-.355-.263l-1.454.842a.838.838,0,0,0-.355.671v1.553C296.27,268.28,296.428,268.4,296.625,268.286Z" transform="translate(-296.27 -262.102)" fill="#fff"/>
            <path id="Path_8233" data-name="Path 8233" d="M304.025,264.016l1.454-.842a.838.838,0,0,0,.355-.671V260.95c0-.257-.158-.382-.355-.263l-1.454.842a.838.838,0,0,0-.355.671v1.553C303.67,264.01,303.828,264.135,304.025,264.016Z" transform="translate(-298.801 -260.642)" fill="#fff"/>
          </g>
        </g>
        <g id="Group_2890" data-name="Group 2890" transform="translate(74.663 67.808)">
          <path id="Path_8234" data-name="Path 8234" d="M248.872,222.658l-36.611-21.135a3.546,3.546,0,0,1-1.48-2.836v-6.981c0-1.092.665-1.592,1.48-1.119l36.611,21.135a3.546,3.546,0,0,1,1.48,2.836v6.981C250.352,222.632,249.688,223.132,248.872,222.658Z" transform="translate(-210.78 -190.408)" fill="#5793ce"/>
          <path id="Path_8235" data-name="Path 8235" d="M248.756,221.524,214.25,201.6a1.8,1.8,0,0,1-.75-1.441v-5.251c0-.553.336-.809.75-.566l34.506,19.924a1.8,1.8,0,0,1,.75,1.441v5.251C249.506,221.511,249.17,221.768,248.756,221.524Z" transform="translate(-211.71 -191.722)" fill="#d4ecff" opacity="0.4"/>
          <path id="Path_8236" data-name="Path 8236" d="M222.5,205.1l-5.152-2.974a1.747,1.747,0,0,1-.73-1.395h0c0-.54.329-.783.73-.553l5.152,2.974a1.747,1.747,0,0,1,.73,1.395h0C223.233,205.084,222.9,205.327,222.5,205.1Z" transform="translate(-212.777 -193.719)" fill="#d4ecff"/>
          <path id="Path_8237" data-name="Path 8237" d="M231.354,209.251c0,.54-.375.757-.842.487a1.858,1.858,0,0,1-.842-1.461c0-.54.375-.757.842-.487A1.858,1.858,0,0,1,231.354,209.251Z" transform="translate(-217.24 -196.313)" fill="#173d7a"/>
          <path id="Path_8238" data-name="Path 8238" d="M235.874,211.861c0,.54-.375.757-.842.487a1.858,1.858,0,0,1-.842-1.461c0-.54.375-.757.842-.487A1.858,1.858,0,0,1,235.874,211.861Z" transform="translate(-218.786 -197.206)" fill="#173d7a"/>
          <path id="Path_8239" data-name="Path 8239" d="M240.4,214.481c0,.54-.375.757-.842.487a1.858,1.858,0,0,1-.842-1.461c0-.54.375-.757.842-.487A1.858,1.858,0,0,1,240.4,214.481Z" transform="translate(-220.335 -198.102)" fill="#d4ecff"/>
          <path id="Path_8240" data-name="Path 8240" d="M244.934,217.091c0,.54-.375.757-.842.487a1.858,1.858,0,0,1-.842-1.461c0-.54.375-.757.842-.487A1.858,1.858,0,0,1,244.934,217.091Z" transform="translate(-221.885 -198.994)" fill="#173d7a"/>
          <path id="Path_8241" data-name="Path 8241" d="M263.724,229.107l-1.737-1a1.133,1.133,0,0,1-.467-.895v-1.836c0-.342.211-.507.467-.355l1.737,1a1.133,1.133,0,0,1,.467.895v1.836C264.191,229.094,263.981,229.258,263.724,229.107Z" transform="translate(-228.133 -202.226)" fill="#173d7a"/>
        </g>
        <g id="Group_2891" data-name="Group 2891" transform="translate(74.663 80.119)">
          <path id="Path_8242" data-name="Path 8242" d="M248.872,241.368l-36.611-21.135a3.546,3.546,0,0,1-1.48-2.836v-6.981c0-1.092.665-1.592,1.48-1.119l36.611,21.135a3.546,3.546,0,0,1,1.48,2.836v6.981C250.352,241.342,249.688,241.842,248.872,241.368Z" transform="translate(-210.78 -209.118)" fill="#5793ce"/>
          <path id="Path_8243" data-name="Path 8243" d="M248.756,240.234,214.25,220.31a1.8,1.8,0,0,1-.75-1.441v-5.251c0-.553.336-.809.75-.566l34.506,19.924a1.8,1.8,0,0,1,.75,1.441v5.251C249.506,240.221,249.17,240.478,248.756,240.234Z" transform="translate(-211.71 -210.432)" fill="#d4ecff" opacity="0.4"/>
          <path id="Path_8244" data-name="Path 8244" d="M222.5,223.807l-5.152-2.974a1.747,1.747,0,0,1-.73-1.395h0c0-.54.329-.783.73-.553l5.152,2.974a1.747,1.747,0,0,1,.73,1.395h0C223.233,223.794,222.9,224.037,222.5,223.807Z" transform="translate(-212.777 -212.429)" fill="#d4ecff"/>
          <path id="Path_8245" data-name="Path 8245" d="M231.354,227.961c0,.54-.375.757-.842.487a1.858,1.858,0,0,1-.842-1.461c0-.54.375-.757.842-.487A1.858,1.858,0,0,1,231.354,227.961Z" transform="translate(-217.24 -215.023)" fill="#fff"/>
          <path id="Path_8246" data-name="Path 8246" d="M235.874,230.571c0,.54-.375.757-.842.487a1.858,1.858,0,0,1-.842-1.461c0-.54.375-.757.842-.487A1.858,1.858,0,0,1,235.874,230.571Z" transform="translate(-218.786 -215.916)" fill="#173d7a"/>
          <path id="Path_8247" data-name="Path 8247" d="M240.4,233.191c0,.54-.375.757-.842.487a1.858,1.858,0,0,1-.842-1.461c0-.54.375-.757.842-.487A1.858,1.858,0,0,1,240.4,233.191Z" transform="translate(-220.335 -216.812)" fill="#d4ecff"/>
          <path id="Path_8248" data-name="Path 8248" d="M244.934,235.8c0,.54-.375.757-.842.487a1.858,1.858,0,0,1-.842-1.461c0-.54.375-.757.842-.487A1.858,1.858,0,0,1,244.934,235.8Z" transform="translate(-221.885 -217.704)" fill="#173d7a"/>
          <path id="Path_8249" data-name="Path 8249" d="M263.724,247.817l-1.737-1a1.133,1.133,0,0,1-.467-.895v-1.836c0-.342.211-.507.467-.355l1.737,1a1.133,1.133,0,0,1,.467.895v1.836C264.191,247.8,263.981,247.968,263.724,247.817Z" transform="translate(-228.133 -220.936)" fill="#173d7a"/>
        </g>
        <g id="Group_2892" data-name="Group 2892" transform="translate(74.663 92.431)">
          <path id="Path_8250" data-name="Path 8250" d="M248.872,260.078l-36.611-21.135a3.546,3.546,0,0,1-1.48-2.836v-6.981c0-1.092.665-1.592,1.48-1.119l36.611,21.135a3.546,3.546,0,0,1,1.48,2.836v6.981C250.352,260.052,249.688,260.552,248.872,260.078Z" transform="translate(-210.78 -227.828)" fill="#5793ce"/>
          <path id="Path_8251" data-name="Path 8251" d="M248.756,258.944,214.25,239.02a1.8,1.8,0,0,1-.75-1.441v-5.251c0-.553.336-.809.75-.566l34.506,19.924a1.8,1.8,0,0,1,.75,1.441v5.251C249.506,258.931,249.17,259.188,248.756,258.944Z" transform="translate(-211.71 -229.142)" fill="#d4ecff" opacity="0.4"/>
          <path id="Path_8252" data-name="Path 8252" d="M222.5,242.517l-5.152-2.974a1.747,1.747,0,0,1-.73-1.395h0c0-.54.329-.783.73-.553l5.152,2.974a1.747,1.747,0,0,1,.73,1.395h0C223.233,242.5,222.9,242.747,222.5,242.517Z" transform="translate(-212.777 -231.139)" fill="#d4ecff"/>
          <path id="Path_8253" data-name="Path 8253" d="M231.354,246.671c0,.54-.375.757-.842.487a1.858,1.858,0,0,1-.842-1.461c0-.54.375-.757.842-.487A1.858,1.858,0,0,1,231.354,246.671Z" transform="translate(-217.24 -233.733)" fill="#fff"/>
          <path id="Path_8254" data-name="Path 8254" d="M235.874,249.281c0,.54-.375.757-.842.487a1.858,1.858,0,0,1-.842-1.461c0-.54.375-.757.842-.487A1.858,1.858,0,0,1,235.874,249.281Z" transform="translate(-218.786 -234.626)" fill="#173d7a"/>
          <path id="Path_8255" data-name="Path 8255" d="M240.4,251.891c0,.54-.375.757-.842.487a1.858,1.858,0,0,1-.842-1.461c0-.54.375-.757.842-.487A1.858,1.858,0,0,1,240.4,251.891Z" transform="translate(-220.335 -235.518)" fill="#d4ecff"/>
          <path id="Path_8256" data-name="Path 8256" d="M244.934,254.511c0,.54-.375.757-.842.487a1.858,1.858,0,0,1-.842-1.461c0-.54.375-.757.842-.487A1.858,1.858,0,0,1,244.934,254.511Z" transform="translate(-221.885 -236.414)" fill="#173d7a"/>
          <path id="Path_8257" data-name="Path 8257" d="M263.724,266.527l-1.737-1a1.133,1.133,0,0,1-.467-.895V262.8c0-.342.211-.507.467-.355l1.737,1a1.133,1.133,0,0,1,.467.895v1.836C264.191,266.514,263.981,266.678,263.724,266.527Z" transform="translate(-228.133 -239.646)" fill="#173d7a"/>
        </g>
        <g id="Group_2893" data-name="Group 2893" transform="translate(74.663 104.742)">
          <path id="Path_8258" data-name="Path 8258" d="M248.872,278.788l-36.611-21.135a3.546,3.546,0,0,1-1.48-2.836v-6.981c0-1.092.665-1.592,1.48-1.119l36.611,21.135a3.546,3.546,0,0,1,1.48,2.836v6.981C250.352,278.762,249.688,279.262,248.872,278.788Z" transform="translate(-210.78 -246.538)" fill="#5793ce"/>
          <path id="Path_8259" data-name="Path 8259" d="M248.756,277.654,214.25,257.73a1.8,1.8,0,0,1-.75-1.441v-5.251c0-.553.336-.809.75-.566L248.756,270.4a1.8,1.8,0,0,1,.75,1.441v5.251C249.506,277.641,249.17,277.9,248.756,277.654Z" transform="translate(-211.71 -247.852)" fill="#d4ecff" opacity="0.4"/>
          <path id="Path_8260" data-name="Path 8260" d="M222.5,261.227l-5.152-2.974a1.747,1.747,0,0,1-.73-1.395h0c0-.54.329-.783.73-.553l5.152,2.974a1.747,1.747,0,0,1,.73,1.395h0C223.233,261.214,222.9,261.457,222.5,261.227Z" transform="translate(-212.777 -249.849)" fill="#d4ecff"/>
          <path id="Path_8261" data-name="Path 8261" d="M231.354,265.381c0,.54-.375.757-.842.487a1.858,1.858,0,0,1-.842-1.461c0-.54.375-.757.842-.487A1.858,1.858,0,0,1,231.354,265.381Z" transform="translate(-217.24 -252.443)" fill="#173d7a"/>
          <path id="Path_8262" data-name="Path 8262" d="M235.874,267.991c0,.54-.375.757-.842.487a1.858,1.858,0,0,1-.842-1.461c0-.54.375-.757.842-.487A1.858,1.858,0,0,1,235.874,267.991Z" transform="translate(-218.786 -253.336)" fill="#173d7a"/>
          <path id="Path_8263" data-name="Path 8263" d="M240.4,270.6c0,.54-.375.757-.842.487a1.858,1.858,0,0,1-.842-1.461c0-.54.375-.757.842-.487A1.858,1.858,0,0,1,240.4,270.6Z" transform="translate(-220.335 -254.228)" fill="#d4ecff"/>
          <path id="Path_8264" data-name="Path 8264" d="M244.934,273.221c0,.54-.375.757-.842.487a1.858,1.858,0,0,1-.842-1.461c0-.54.375-.757.842-.487A1.858,1.858,0,0,1,244.934,273.221Z" transform="translate(-221.885 -255.124)" fill="#173d7a"/>
          <path id="Path_8265" data-name="Path 8265" d="M263.724,285.237l-1.737-1a1.133,1.133,0,0,1-.467-.895v-1.836c0-.342.211-.507.467-.355l1.737,1a1.134,1.134,0,0,1,.467.895v1.836C264.191,285.224,263.981,285.388,263.724,285.237Z" transform="translate(-228.133 -258.356)" fill="#d4ecff"/>
        </g>
        <g id="Group_2894" data-name="Group 2894" transform="translate(74.663 117.053)">
          <path id="Path_8266" data-name="Path 8266" d="M248.872,297.5l-36.611-21.135a3.546,3.546,0,0,1-1.48-2.836v-6.981c0-1.092.665-1.592,1.48-1.119l36.611,21.135a3.546,3.546,0,0,1,1.48,2.836v6.981C250.352,297.472,249.688,297.972,248.872,297.5Z" transform="translate(-210.78 -265.248)" fill="#5793ce"/>
          <path id="Path_8267" data-name="Path 8267" d="M248.756,296.364,214.25,276.44A1.8,1.8,0,0,1,213.5,275v-5.251c0-.553.336-.809.75-.566l34.506,19.924a1.8,1.8,0,0,1,.75,1.441V295.8C249.506,296.351,249.17,296.608,248.756,296.364Z" transform="translate(-211.71 -266.562)" fill="#d4ecff" opacity="0.4"/>
          <path id="Path_8268" data-name="Path 8268" d="M222.5,279.937l-5.152-2.974a1.747,1.747,0,0,1-.73-1.395h0c0-.54.329-.783.73-.553l5.152,2.974a1.747,1.747,0,0,1,.73,1.395h0C223.233,279.924,222.9,280.167,222.5,279.937Z" transform="translate(-212.777 -268.559)" fill="#d4ecff"/>
          <path id="Path_8269" data-name="Path 8269" d="M231.354,284.091c0,.54-.375.757-.842.487a1.858,1.858,0,0,1-.842-1.461c0-.54.375-.757.842-.487A1.858,1.858,0,0,1,231.354,284.091Z" transform="translate(-217.24 -271.153)" fill="#173d7a"/>
          <path id="Path_8270" data-name="Path 8270" d="M235.874,286.7c0,.54-.375.757-.842.487a1.858,1.858,0,0,1-.842-1.461c0-.54.375-.757.842-.487A1.858,1.858,0,0,1,235.874,286.7Z" transform="translate(-218.786 -272.046)" fill="#fff"/>
          <path id="Path_8271" data-name="Path 8271" d="M240.4,289.311c0,.54-.375.757-.842.487a1.858,1.858,0,0,1-.842-1.461c0-.54.375-.757.842-.487A1.858,1.858,0,0,1,240.4,289.311Z" transform="translate(-220.335 -272.938)" fill="#d4ecff"/>
          <path id="Path_8272" data-name="Path 8272" d="M244.934,291.921c0,.54-.375.757-.842.487a1.858,1.858,0,0,1-.842-1.461c0-.54.375-.757.842-.487A1.858,1.858,0,0,1,244.934,291.921Z" transform="translate(-221.885 -273.831)" fill="#fff"/>
          <path id="Path_8273" data-name="Path 8273" d="M263.724,303.947l-1.737-1a1.133,1.133,0,0,1-.467-.895v-1.836c0-.342.211-.507.467-.355l1.737,1a1.134,1.134,0,0,1,.467.895v1.836C264.191,303.934,263.981,304.1,263.724,303.947Z" transform="translate(-228.133 -277.066)" fill="#d4ecff"/>
        </g>
        <g id="Group_2895" data-name="Group 2895" transform="translate(74.663 129.364)">
          <path id="Path_8274" data-name="Path 8274" d="M248.872,316.208l-36.611-21.135a3.546,3.546,0,0,1-1.48-2.836v-6.981c0-1.092.665-1.592,1.48-1.119l36.611,21.135a3.546,3.546,0,0,1,1.48,2.836v6.981C250.352,316.182,249.688,316.682,248.872,316.208Z" transform="translate(-210.78 -283.958)" fill="#5793ce"/>
          <path id="Path_8275" data-name="Path 8275" d="M248.756,315.074,214.25,295.15a1.8,1.8,0,0,1-.75-1.441v-5.251c0-.553.336-.809.75-.566l34.506,19.924a1.8,1.8,0,0,1,.75,1.441v5.251C249.506,315.061,249.17,315.318,248.756,315.074Z" transform="translate(-211.71 -285.272)" fill="#d4ecff" opacity="0.4"/>
          <path id="Path_8276" data-name="Path 8276" d="M222.5,298.647l-5.152-2.974a1.747,1.747,0,0,1-.73-1.395h0c0-.54.329-.783.73-.553L222.5,296.7a1.747,1.747,0,0,1,.73,1.395h0C223.233,298.634,222.9,298.877,222.5,298.647Z" transform="translate(-212.777 -287.269)" fill="#d4ecff"/>
          <path id="Path_8277" data-name="Path 8277" d="M231.354,302.8c0,.54-.375.757-.842.487a1.858,1.858,0,0,1-.842-1.461c0-.54.375-.757.842-.487A1.858,1.858,0,0,1,231.354,302.8Z" transform="translate(-217.24 -289.863)" fill="#173d7a"/>
          <path id="Path_8278" data-name="Path 8278" d="M235.874,305.411c0,.54-.375.757-.842.487a1.858,1.858,0,0,1-.842-1.461c0-.54.375-.757.842-.487A1.858,1.858,0,0,1,235.874,305.411Z" transform="translate(-218.786 -290.756)" fill="#173d7a"/>
          <path id="Path_8279" data-name="Path 8279" d="M240.4,308.021c0,.54-.375.757-.842.487a1.858,1.858,0,0,1-.842-1.461c0-.54.375-.757.842-.487A1.858,1.858,0,0,1,240.4,308.021Z" transform="translate(-220.335 -291.648)" fill="#d4ecff"/>
          <path id="Path_8280" data-name="Path 8280" d="M244.934,310.631c0,.54-.375.757-.842.487a1.858,1.858,0,0,1-.842-1.461c0-.54.375-.757.842-.487A1.858,1.858,0,0,1,244.934,310.631Z" transform="translate(-221.885 -292.541)" fill="#173d7a"/>
          <path id="Path_8281" data-name="Path 8281" d="M263.724,322.647l-1.737-1a1.133,1.133,0,0,1-.467-.895v-1.836c0-.342.211-.507.467-.355l1.737,1a1.133,1.133,0,0,1,.467.895v1.836C264.191,322.634,263.981,322.8,263.724,322.647Z" transform="translate(-228.133 -295.773)" fill="#173d7a"/>
        </g>
        <g id="Group_2896" data-name="Group 2896" transform="translate(74.663 141.675)">
          <path id="Path_8282" data-name="Path 8282" d="M248.872,334.918l-36.611-21.135a3.546,3.546,0,0,1-1.48-2.836v-6.981c0-1.092.665-1.592,1.48-1.119l36.611,21.135a3.546,3.546,0,0,1,1.48,2.836V333.8C250.352,334.892,249.688,335.392,248.872,334.918Z" transform="translate(-210.78 -302.668)" fill="#5793ce"/>
          <path id="Path_8283" data-name="Path 8283" d="M248.756,333.784,214.25,313.86a1.8,1.8,0,0,1-.75-1.441v-5.251c0-.553.336-.809.75-.566l34.506,19.924a1.8,1.8,0,0,1,.75,1.441v5.251C249.506,333.771,249.17,334.028,248.756,333.784Z" transform="translate(-211.71 -303.982)" fill="#d4ecff" opacity="0.4"/>
          <path id="Path_8284" data-name="Path 8284" d="M222.5,317.347l-5.152-2.974a1.747,1.747,0,0,1-.73-1.395h0c0-.54.329-.783.73-.553L222.5,315.4a1.747,1.747,0,0,1,.73,1.395h0C223.233,317.334,222.9,317.577,222.5,317.347Z" transform="translate(-212.777 -305.975)" fill="#d4ecff"/>
          <path id="Path_8285" data-name="Path 8285" d="M231.354,321.5c0,.54-.375.757-.842.487a1.858,1.858,0,0,1-.842-1.461c0-.54.375-.757.842-.487A1.858,1.858,0,0,1,231.354,321.5Z" transform="translate(-217.24 -308.57)" fill="#fff"/>
          <path id="Path_8286" data-name="Path 8286" d="M235.874,324.121c0,.54-.375.757-.842.487a1.858,1.858,0,0,1-.842-1.461c0-.54.375-.757.842-.487A1.858,1.858,0,0,1,235.874,324.121Z" transform="translate(-218.786 -309.466)" fill="#173d7a"/>
          <path id="Path_8287" data-name="Path 8287" d="M240.4,326.731c0,.54-.375.757-.842.487a1.858,1.858,0,0,1-.842-1.461c0-.54.375-.757.842-.487A1.858,1.858,0,0,1,240.4,326.731Z" transform="translate(-220.335 -310.358)" fill="#d4ecff"/>
          <path id="Path_8288" data-name="Path 8288" d="M244.934,329.341c0,.54-.375.757-.842.487a1.858,1.858,0,0,1-.842-1.461c0-.54.375-.757.842-.487A1.858,1.858,0,0,1,244.934,329.341Z" transform="translate(-221.885 -311.251)" fill="#173d7a"/>
          <path id="Path_8289" data-name="Path 8289" d="M263.724,341.357l-1.737-1a1.133,1.133,0,0,1-.467-.895v-1.836c0-.342.211-.507.467-.355l1.737,1a1.134,1.134,0,0,1,.467.895V341C264.191,341.344,263.981,341.508,263.724,341.357Z" transform="translate(-228.133 -314.483)" fill="#d4ecff"/>
        </g>
        <path id="Path_8290" data-name="Path 8290" d="M255.417,172.508a.469.469,0,0,1-.467-.467V152.827a.467.467,0,1,1,.934,0v19.214A.469.469,0,0,1,255.417,172.508Z" transform="translate(-151.223 -109.588)" fill="#5793ce"/>
        <g id="Group_2899" data-name="Group 2899" transform="translate(101.49 31.994)">
          <g id="Group_2897" data-name="Group 2897" transform="translate(1.031 10.041)">
            <rect id="Rectangle_7447" data-name="Rectangle 7447" width="3.336" height="7.205" transform="translate(0.002)" fill="#5793ce"/>
            <path id="Path_8291" data-name="Path 8291" d="M255.968,162.366a2.62,2.62,0,0,1-2.362,0,.719.719,0,0,1,0-1.362,2.62,2.62,0,0,1,2.362,0A.719.719,0,0,1,255.968,162.366Z" transform="translate(-253.118 -154.483)" fill="#5793ce"/>
          </g>
          <g id="Group_2898" data-name="Group 2898">
            <rect id="Rectangle_7448" data-name="Rectangle 7448" width="5.409" height="11.298" fill="#5793ce"/>
            <path id="Path_8292" data-name="Path 8292" d="M253.12,152.866V155.3a4.313,4.313,0,0,0,3.336,0v-2.435A4.313,4.313,0,0,0,253.12,152.866Z" transform="translate(-252.087 -141.64)" fill="#396caa"/>
            <path id="Path_8293" data-name="Path 8293" d="M256.17,153.442a4.21,4.21,0,0,1-3.823,0,1.166,1.166,0,0,1,0-2.211,4.21,4.21,0,0,1,3.823,0A1.166,1.166,0,0,1,256.17,153.442Z" transform="translate(-251.551 -141.039)" fill="#5793ce"/>
          </g>
        </g>
        <path id="Path_8294" data-name="Path 8294" d="M262.347,176.648a.469.469,0,0,1-.467-.467V156.967a.467.467,0,1,1,.934,0v19.214A.469.469,0,0,1,262.347,176.648Z" transform="translate(-153.593 -111.003)" fill="#5793ce"/>
        <g id="Group_2902" data-name="Group 2902" transform="translate(106.05 34.719)">
          <g id="Group_2900" data-name="Group 2900" transform="translate(1.038 10.041)">
            <rect id="Rectangle_7449" data-name="Rectangle 7449" width="3.336" height="7.205" transform="translate(0.002)" fill="#5793ce"/>
            <path id="Path_8295" data-name="Path 8295" d="M262.908,166.506a2.62,2.62,0,0,1-2.362,0,.719.719,0,0,1,0-1.362,2.62,2.62,0,0,1,2.362,0A.719.719,0,0,1,262.908,166.506Z" transform="translate(-260.058 -158.623)" fill="#5793ce"/>
          </g>
          <g id="Group_2901" data-name="Group 2901">
            <rect id="Rectangle_7450" data-name="Rectangle 7450" width="5.409" height="11.298" fill="#5793ce"/>
            <path id="Path_8296" data-name="Path 8296" d="M260.06,157.006v2.435a4.313,4.313,0,0,0,3.336,0v-2.435A4.313,4.313,0,0,0,260.06,157.006Z" transform="translate(-259.02 -145.78)" fill="#396caa"/>
            <path id="Path_8297" data-name="Path 8297" d="M263.1,157.582a4.21,4.21,0,0,1-3.823,0,1.167,1.167,0,0,1,0-2.211,4.21,4.21,0,0,1,3.823,0A1.166,1.166,0,0,1,263.1,157.582Z" transform="translate(-258.482 -145.179)" fill="#5793ce"/>
          </g>
        </g>
        <g id="Group_2906" data-name="Group 2906" transform="translate(110.614 37.443)">
          <path id="Path_8298" data-name="Path 8298" d="M269.287,180.788a.469.469,0,0,1-.467-.467V161.107a.467.467,0,1,1,.934,0v19.214A.469.469,0,0,1,269.287,180.788Z" transform="translate(-266.58 -149.862)" fill="#5793ce"/>
          <g id="Group_2905" data-name="Group 2905">
            <g id="Group_2903" data-name="Group 2903" transform="translate(1.034 10.035)">
              <rect id="Rectangle_7451" data-name="Rectangle 7451" width="3.336" height="7.205" transform="translate(0.002)" fill="#5793ce"/>
              <path id="Path_8299" data-name="Path 8299" d="M269.838,170.646a2.62,2.62,0,0,1-2.362,0,.719.719,0,0,1,0-1.362,2.62,2.62,0,0,1,2.362,0A.719.719,0,0,1,269.838,170.646Z" transform="translate(-266.988 -162.756)" fill="#5793ce"/>
            </g>
            <g id="Group_2904" data-name="Group 2904">
              <rect id="Rectangle_7452" data-name="Rectangle 7452" width="5.409" height="11.298" transform="translate(0.002)" fill="#5793ce"/>
              <path id="Path_8300" data-name="Path 8300" d="M266.99,161.146v2.435a4.313,4.313,0,0,0,3.336,0v-2.435A4.313,4.313,0,0,0,266.99,161.146Z" transform="translate(-265.954 -149.92)" fill="#396caa"/>
              <path id="Path_8301" data-name="Path 8301" d="M270.031,161.722a4.21,4.21,0,0,1-3.823,0,1.167,1.167,0,0,1,0-2.211,4.21,4.21,0,0,1,3.823,0A1.166,1.166,0,0,1,270.031,161.722Z" transform="translate(-265.416 -149.319)" fill="#5793ce"/>
            </g>
          </g>
        </g>
        <g id="Group_2910" data-name="Group 2910" transform="translate(115.174 40.167)">
          <path id="Path_8302" data-name="Path 8302" d="M276.217,184.928a.469.469,0,0,1-.467-.467V165.247a.467.467,0,1,1,.934,0v19.214A.469.469,0,0,1,276.217,184.928Z" transform="translate(-273.51 -154.002)" fill="#5793ce"/>
          <g id="Group_2909" data-name="Group 2909">
            <g id="Group_2907" data-name="Group 2907" transform="translate(1.034 10.035)">
              <rect id="Rectangle_7453" data-name="Rectangle 7453" width="3.336" height="7.205" transform="translate(0.002)" fill="#5793ce"/>
              <path id="Path_8303" data-name="Path 8303" d="M276.768,174.786a2.62,2.62,0,0,1-2.362,0,.719.719,0,0,1,0-1.362,2.62,2.62,0,0,1,2.362,0A.719.719,0,0,1,276.768,174.786Z" transform="translate(-273.917 -166.896)" fill="#5793ce"/>
            </g>
            <g id="Group_2908" data-name="Group 2908">
              <rect id="Rectangle_7454" data-name="Rectangle 7454" width="5.409" height="11.298" transform="translate(0.002)" fill="#5793ce"/>
              <path id="Path_8304" data-name="Path 8304" d="M273.92,165.276v2.435a4.313,4.313,0,0,0,3.336,0v-2.435A4.313,4.313,0,0,0,273.92,165.276Z" transform="translate(-272.884 -154.057)" fill="#396caa"/>
              <path id="Path_8305" data-name="Path 8305" d="M276.961,165.852a4.21,4.21,0,0,1-3.823,0,1.167,1.167,0,0,1,0-2.211,4.21,4.21,0,0,1,3.823,0A1.167,1.167,0,0,1,276.961,165.852Z" transform="translate(-272.346 -153.456)" fill="#5793ce"/>
            </g>
          </g>
        </g>
        <g id="Group_2912" data-name="Group 2912" transform="translate(83.467)">
          <path id="Path_8306" data-name="Path 8306" d="M307.914,173.09l7.251-4.27-6.909-8.62-1.816,2.961Z" transform="translate(-252.3 -112.269)" fill="#5793ce"/>
          <path id="Path_8307" data-name="Path 8307" d="M228.65,104.429l11.574-6.659s-.434,6.646-.434,6.659-6.652,2.06-6.652,2.06Z" transform="translate(-225.696 -90.918)" fill="#5793ce"/>
          <path id="Path_8308" data-name="Path 8308" d="M287.8,126.5a7.391,7.391,0,0,0-2.507-.928c-1.165-6.133-5.435-12.647-10.521-15.581a10.3,10.3,0,0,0-4.3-1.454c-.7-7.435-5.863-15.884-12.14-19.5-3.277-1.9-6.251-2.119-8.449-.961h0l-.105.053c-.059.033-.112.066-.165.1l-6.823,4.034,2.27,1.79c-2.033.888-3.323,3.172-3.323,6.547,0,6.225,4.369,13.792,9.758,16.9L287.8,143.43c4.047,2.336,7.33.441,7.33-4.231a16.2,16.2,0,0,0-7.33-12.693Z" transform="translate(-230.169 -87.359)" fill="#5793ce"/>
          <path id="Path_8309" data-name="Path 8309" d="M242.23,97.847,257.9,88.694c-3.04-1.586-5.79-1.717-7.85-.632h0l-.105.053c-.059.033-.112.066-.165.1l-6.823,4.034,2.27,1.79a5.485,5.485,0,0,0-2.987,3.81Z" transform="translate(-230.34 -87.356)" fill="#5793ce"/>
          <path id="Path_8310" data-name="Path 8310" d="M279.993,136.221l11.429-6.705a22.21,22.21,0,0,0-7.646-8.08c-.395-.23-.783-.428-1.171-.605l-14.535,8.5L280,136.221Z" transform="translate(-239.177 -98.804)" fill="#5793ce"/>
          <path id="Path_8311" data-name="Path 8311" d="M248.21,93.153l5.093,2.941,9.33-5.494a19.891,19.891,0,0,0-2.092-1.421,13.292,13.292,0,0,0-3.257-1.369l-9.067,5.343Z" transform="translate(-232.385 -87.511)" fill="#d4ecff"/>
          <path id="Path_8312" data-name="Path 8312" d="M296.91,131.03l-9.12,5.376,3.172,3.54,8.284-4.889a27.245,27.245,0,0,0-2.329-4.027Z" transform="translate(-245.921 -102.293)" fill="#d4ecff"/>
          <path id="Path_8313" data-name="Path 8313" d="M274.622,132.919a7.391,7.391,0,0,0-2.507-.928c-1.165-6.133-5.435-12.647-10.521-15.581a10.3,10.3,0,0,0-4.3-1.454c-.7-7.435-5.863-15.884-12.14-19.5-6.751-3.9-12.219-.737-12.219,7.054,0,.263.007.533.02.8-4.935-2.29-8.791.29-8.791,6.139,0,6.225,4.369,13.792,9.758,16.9l40.71,23.5c4.047,2.336,7.33.441,7.33-4.231a16.2,16.2,0,0,0-7.33-12.693Z" transform="translate(-224.16 -89.555)" fill="#d4ecff"/>
          <g id="Group_2911" data-name="Group 2911" transform="translate(2.224 3.649)">
            <path id="Path_8314" data-name="Path 8314" d="M234.1,107.515c-.013-.27-.02-.533-.02-.8v-.033c-2.724-1.059-5.073-.6-6.541,1.105,1.6-1.316,3.922-1.494,6.56-.27Z" transform="translate(-227.54 -97.423)" fill="#fff"/>
            <path id="Path_8315" data-name="Path 8315" d="M281.175,132.039a7.391,7.391,0,0,0-2.507-.928c-1.165-6.133-5.435-12.647-10.521-15.581a10.3,10.3,0,0,0-4.3-1.454c-.7-7.435-5.863-15.884-12.14-19.5-4.2-2.428-7.916-2.119-10.113.349,2.237-1.915,5.672-1.987,9.515.23,6.277,3.626,11.443,12.074,12.14,19.5a10.24,10.24,0,0,1,4.3,1.454c5.086,2.935,9.357,9.449,10.521,15.581a7.391,7.391,0,0,1,2.507.928,16.2,16.2,0,0,1,7.33,12.693,6.049,6.049,0,0,1-1.171,3.9,5.433,5.433,0,0,0,1.763-4.481,16.2,16.2,0,0,0-7.33-12.693Z" transform="translate(-232.345 -92.902)" fill="#fff"/>
          </g>
          <path id="Path_8316" data-name="Path 8316" d="M233.132,106.208l3.06,1.421-.158-3.369c-.013-.237-.02-.474-.02-.7,0-3.007.908-5.192,2.56-6.139s3.994-.645,6.6.855c5.6,3.237,10.488,11.107,11.127,17.924l.158,1.717,1.717.132a8.2,8.2,0,0,1,3.441,1.191c4.448,2.566,8.462,8.541,9.534,14.193l.27,1.415,1.421.224a5.333,5.333,0,0,1,1.8.678,14.18,14.18,0,0,1,6.3,10.923c0,1.474-.408,2.56-1.125,2.974s-1.856.224-3.139-.513l-40.71-23.5c-4.738-2.737-8.738-9.666-8.738-15.134,0-2.145.632-3.784,1.737-4.488a2.969,2.969,0,0,1,1.625-.434,6.059,6.059,0,0,1,2.527.638Z" transform="translate(-225.21 -90.611)" fill="#396caa"/>
        </g>
        <g id="Group_2915" data-name="Group 2915" transform="translate(102.829 26.034)">
          <path id="Path_8317" data-name="Path 8317" d="M267.08,149.142l1.073-.54-1.053-.8Z" transform="translate(-258.2 -134.062)" fill="#5793ce"/>
          <path id="Path_8318" data-name="Path 8318" d="M262.18,127.516l1.04-.526.02.546Z" transform="translate(-256.525 -126.945)" fill="#5793ce"/>
          <path id="Path_8319" data-name="Path 8319" d="M271.217,143.37l1.086-.553-2.092-1.987Z" transform="translate(-259.271 -131.678)" fill="#5793ce"/>
          <g id="Group_2913" data-name="Group 2913" transform="translate(1.092)">
            <path id="Path_8320" data-name="Path 8320" d="M265.354,143.908l-5.086-2.994a1.088,1.088,0,0,1-.467-.855l.02-5.889,6.021,3.547-.02,5.889C265.821,143.928,265.61,144.06,265.354,143.908Z" transform="translate(-256.803 -129.4)" fill="#5793ce"/>
            <path id="Path_8321" data-name="Path 8321" d="M260.841,126.973l-5.494,3.533c-.23.151-.046.711.309.915l5.606,3.3,5.606,3.3c.355.211.546-.125.316-.553l-5.455-9.982c-.237-.434-.658-.678-.895-.526Z" transform="translate(-255.245 -126.922)" fill="#5793ce"/>
          </g>
          <g id="Group_2914" data-name="Group 2914" transform="translate(0 0.553)">
            <path id="Path_8322" data-name="Path 8322" d="M263.693,144.738l-5.086-2.994a1.088,1.088,0,0,1-.467-.855l.02-5.889,6.021,3.547-.02,5.889C264.161,144.758,263.95,144.89,263.693,144.738Z" transform="translate(-255.143 -130.237)" fill="#d4ecff"/>
            <path id="Path_8323" data-name="Path 8323" d="M259.181,127.813l-5.494,3.533c-.23.151-.046.711.309.915l5.606,3.3,5.606,3.3c.355.211.546-.125.316-.553l-5.455-9.982c-.237-.434-.658-.678-.895-.526Z" transform="translate(-253.585 -127.762)" fill="#d4ecff"/>
          </g>
        </g>
        <path id="Path_8324" data-name="Path 8324" d="M298.1,296.4h-.737V255.182l4.869-2.816V232.08h.737v20.714L298.1,255.6Z" transform="translate(-165.727 -136.852)" fill="#fff"/>
        <path id="Path_8325" data-name="Path 8325" d="M112.668,327.547a2.592,2.592,0,0,1-1.25-.329L97.968,319.6a1.292,1.292,0,0,1-.013-2.244l33.551-19.4a6.249,6.249,0,0,1,6.238,0l38.348,22.161-.553.961-38.348-22.161a5.143,5.143,0,0,0-5.132,0l-33.551,19.4a.181.181,0,0,0-.092.164.172.172,0,0,0,.092.158l13.45,7.613a1.415,1.415,0,0,0,1.474-.046l5.685-3.672.6.928-5.685,3.678a2.541,2.541,0,0,1-1.375.408Z" transform="translate(-97.31 -159.096)" fill="#b2d3ea"/>
        <g id="Group_2926" data-name="Group 2926" transform="translate(8.78 102.838)">
          <path id="Path_8326" data-name="Path 8326" d="M137.472,335.559l-18.082-10.436c-1.112-.638-.967-1.757.309-2.5l17.457-10.081a4.808,4.808,0,0,1,4.33-.178L159.568,322.8c1.112.638.967,1.757-.309,2.5L141.8,335.381A4.808,4.808,0,0,1,137.472,335.559Z" transform="translate(-113.386 -266.999)" fill="#b2d3ea"/>
          <g id="Group_2917" data-name="Group 2917" transform="translate(0 24.965)">
            <path id="Path_8327" data-name="Path 8327" d="M162.838,310.2h0v-7.81H145.322l-6.054-3.507a6.021,6.021,0,0,0-5.422.224l-5.652,3.264H110.658v8.028a1.575,1.575,0,0,0,.928,1.454l22.642,13.074a6.021,6.021,0,0,0,5.422-.224l21.859-12.62a2.141,2.141,0,0,0,1.323-1.869Z" transform="translate(-110.654 -287.314)" fill="#396caa"/>
            <path id="Path_8328" data-name="Path 8328" d="M136.755,298.35a6.292,6.292,0,0,0-2.908.763l-5.652,3.264H110.658V310.4a1.575,1.575,0,0,0,.928,1.454l22.642,13.074a4.895,4.895,0,0,0,2.514.54v-27.11Z" transform="translate(-110.654 -287.319)" fill="#396caa"/>
            <path id="Path_8329" data-name="Path 8329" d="M112.655,304.45h-1.987v8.034a1.575,1.575,0,0,0,.928,1.454l1.053.605V304.45Z" transform="translate(-110.658 -289.405)" fill="#5793ce"/>
            <path id="Path_8330" data-name="Path 8330" d="M147.02,334.223a6.158,6.158,0,0,0,4.336-.053v-9.12H147.02v9.173Z" transform="translate(-123.091 -296.45)" fill="#5793ce"/>
            <path id="Path_8331" data-name="Path 8331" d="M134.234,311.179,111.592,298.1c-1.388-.8-1.217-2.2.388-3.132l21.859-12.62a6.021,6.021,0,0,1,5.422-.224L161.9,295.2c1.388.8,1.217,2.2-.388,3.132l-21.859,12.62A6.021,6.021,0,0,1,134.234,311.179Z" transform="translate(-110.654 -281.585)" fill="#d4ecff"/>
            <path id="Path_8332" data-name="Path 8332" d="M136.841,310.1l-18.97-10.956c-1.165-.671-1.02-1.849.329-2.625l18.319-10.574a5.047,5.047,0,0,1,4.54-.191l18.97,10.956c1.165.671,1.02,1.849-.329,2.625L141.382,309.91A5.047,5.047,0,0,1,136.841,310.1Z" transform="translate(-112.853 -282.857)" fill="#5793ce"/>
            <g id="Group_2916" data-name="Group 2916" transform="translate(42.03 20.896)">
              <path id="Path_8333" data-name="Path 8333" d="M176.359,319.161a2.024,2.024,0,0,1-.915,1.586c-.507.29-.915.053-.915-.526a2.034,2.034,0,0,1,.915-1.586C175.951,318.338,176.359,318.582,176.359,319.161Z" transform="translate(-174.53 -315.109)" fill="#d4ecff"/>
              <path id="Path_8334" data-name="Path 8334" d="M180.829,316.572a2.024,2.024,0,0,1-.915,1.586c-.507.29-.915.053-.915-.526a2.034,2.034,0,0,1,.915-1.586C180.421,315.756,180.829,315.993,180.829,316.572Z" transform="translate(-176.059 -314.225)" fill="#d4ecff"/>
              <path id="Path_8335" data-name="Path 8335" d="M185.3,313.992a2.024,2.024,0,0,1-.915,1.586c-.507.29-.915.053-.915-.526a2.034,2.034,0,0,1,.915-1.586C184.891,313.176,185.3,313.413,185.3,313.992Z" transform="translate(-177.587 -313.342)" fill="#d4ecff"/>
            </g>
          </g>
          <g id="Group_2919" data-name="Group 2919" transform="translate(0 12.482)">
            <path id="Path_8336" data-name="Path 8336" d="M162.838,291.226h0v-7.81H145.322l-6.054-3.507a6.021,6.021,0,0,0-5.422.224l-5.652,3.264H110.658v8.028a1.575,1.575,0,0,0,.928,1.454l22.642,13.074a6.021,6.021,0,0,0,5.422-.224l21.859-12.62a2.141,2.141,0,0,0,1.323-1.869Z" transform="translate(-110.654 -268.344)" fill="#396caa"/>
            <path id="Path_8337" data-name="Path 8337" d="M136.755,279.37a6.291,6.291,0,0,0-2.908.763l-5.652,3.264H110.658v8.028a1.575,1.575,0,0,0,.928,1.454l22.642,13.074a4.894,4.894,0,0,0,2.514.54v-27.11Z" transform="translate(-110.654 -268.345)" fill="#396caa"/>
            <path id="Path_8338" data-name="Path 8338" d="M112.655,285.47h-1.987V293.5a1.575,1.575,0,0,0,.928,1.454l1.053.605V285.47Z" transform="translate(-110.658 -270.432)" fill="#5793ce"/>
            <path id="Path_8339" data-name="Path 8339" d="M147.02,315.253a6.158,6.158,0,0,0,4.336-.053v-9.12H147.02v9.173Z" transform="translate(-123.091 -277.48)" fill="#5793ce"/>
            <path id="Path_8340" data-name="Path 8340" d="M134.234,292.209l-22.642-13.074c-1.388-.8-1.217-2.2.388-3.132l21.859-12.62a6.021,6.021,0,0,1,5.422-.224L161.9,276.232c1.388.8,1.217,2.2-.388,3.132l-21.859,12.62A6.021,6.021,0,0,1,134.234,292.209Z" transform="translate(-110.654 -262.615)" fill="#d4ecff"/>
            <path id="Path_8341" data-name="Path 8341" d="M136.841,291.121l-18.97-10.956c-1.165-.671-1.02-1.849.329-2.625l18.319-10.574a5.047,5.047,0,0,1,4.54-.191l18.97,10.956c1.165.671,1.02,1.849-.329,2.625L141.382,290.93A5.047,5.047,0,0,1,136.841,291.121Z" transform="translate(-112.853 -263.883)" fill="#5793ce"/>
            <g id="Group_2918" data-name="Group 2918" transform="translate(42.03 20.896)">
              <path id="Path_8342" data-name="Path 8342" d="M176.359,300.182a2.024,2.024,0,0,1-.915,1.586c-.507.3-.915.053-.915-.526a2.034,2.034,0,0,1,.915-1.586C175.951,299.366,176.359,299.6,176.359,300.182Z" transform="translate(-174.53 -296.137)" fill="#d4ecff"/>
              <path id="Path_8343" data-name="Path 8343" d="M180.829,297.6a2.024,2.024,0,0,1-.915,1.586c-.507.29-.915.053-.915-.526a2.034,2.034,0,0,1,.915-1.586C180.421,296.786,180.829,297.023,180.829,297.6Z" transform="translate(-176.059 -295.255)" fill="#d4ecff"/>
              <path id="Path_8344" data-name="Path 8344" d="M185.3,295.022a2.024,2.024,0,0,1-.915,1.586c-.507.29-.915.053-.915-.526a2.034,2.034,0,0,1,.915-1.586C184.891,294.206,185.3,294.443,185.3,295.022Z" transform="translate(-177.587 -294.372)" fill="#d4ecff"/>
            </g>
          </g>
          <g id="Group_2922" data-name="Group 2922">
            <path id="Path_8345" data-name="Path 8345" d="M162.838,272.256h0v-7.81H145.322l-6.054-3.507a6.021,6.021,0,0,0-5.422.224l-5.652,3.264H110.658v8.028a1.575,1.575,0,0,0,.928,1.454l22.642,13.074a6.021,6.021,0,0,0,5.422-.224l21.859-12.62a2.141,2.141,0,0,0,1.323-1.869Z" transform="translate(-110.654 -249.374)" fill="#396caa"/>
            <path id="Path_8346" data-name="Path 8346" d="M136.755,260.4a6.292,6.292,0,0,0-2.908.763l-5.652,3.264H110.658v8.028a1.575,1.575,0,0,0,.928,1.454l22.642,13.074a4.895,4.895,0,0,0,2.514.54v-27.11Z" transform="translate(-110.654 -249.375)" fill="#396caa"/>
            <path id="Path_8347" data-name="Path 8347" d="M112.655,266.5h-1.987v8.034a1.575,1.575,0,0,0,.928,1.454l1.053.605V266.5Z" transform="translate(-110.658 -251.462)" fill="#5793ce"/>
            <path id="Path_8348" data-name="Path 8348" d="M147.02,296.273a6.158,6.158,0,0,0,4.336-.053V287.1H147.02v9.173Z" transform="translate(-123.091 -258.507)" fill="#5793ce"/>
            <path id="Path_8349" data-name="Path 8349" d="M134.234,273.239l-22.642-13.074c-1.388-.8-1.217-2.2.388-3.132l21.859-12.62a6.021,6.021,0,0,1,5.422-.224L161.9,257.262c1.388.8,1.217,2.2-.388,3.132l-21.859,12.62A6.021,6.021,0,0,1,134.234,273.239Z" transform="translate(-110.654 -243.645)" fill="#d4ecff"/>
            <path id="Path_8350" data-name="Path 8350" d="M161.525,266.254l-21.859,12.62a6.021,6.021,0,0,1-5.422.224L111.6,266.024a2.056,2.056,0,0,1-.691-.612,1.453,1.453,0,0,0,.691,2.152l22.642,13.074a6.021,6.021,0,0,0,5.422-.224l21.859-12.62c1.244-.717,1.625-1.724,1.086-2.514a3.079,3.079,0,0,1-1.086.98Z" transform="translate(-110.658 -251.044)" fill="#fff"/>
            <g id="Group_2920" data-name="Group 2920" transform="translate(42.03 20.896)">
              <path id="Path_8351" data-name="Path 8351" d="M176.359,281.211a2.024,2.024,0,0,1-.915,1.586c-.507.3-.915.053-.915-.526a2.034,2.034,0,0,1,.915-1.586C175.951,280.388,176.359,280.632,176.359,281.211Z" transform="translate(-174.53 -277.165)" fill="#d4ecff"/>
              <path id="Path_8352" data-name="Path 8352" d="M180.829,278.632a2.024,2.024,0,0,1-.915,1.586c-.507.29-.915.053-.915-.526a2.034,2.034,0,0,1,.915-1.586C180.421,277.816,180.829,278.053,180.829,278.632Z" transform="translate(-176.059 -276.285)" fill="#d4ecff"/>
              <path id="Path_8353" data-name="Path 8353" d="M185.3,276.052a2.024,2.024,0,0,1-.915,1.586c-.507.29-.915.053-.915-.526a2.034,2.034,0,0,1,.915-1.586C184.891,275.236,185.3,275.473,185.3,276.052Z" transform="translate(-177.587 -275.402)" fill="#d4ecff"/>
            </g>
            <g id="Group_2921" data-name="Group 2921" transform="translate(13.89 7.632)">
              <path id="Path_8354" data-name="Path 8354" d="M142.8,269.1,132.2,262.98c-.651-.375-.566-1.033.184-1.467l10.232-5.909a2.824,2.824,0,0,1,2.54-.105l10.594,6.119c.651.375.566,1.033-.184,1.467l-10.232,5.909A2.824,2.824,0,0,1,142.8,269.1Z" transform="translate(-131.764 -255.245)" fill="#5793ce"/>
              <path id="Path_8355" data-name="Path 8355" d="M149.275,267.523l-1.467-.849c-.092-.053-.079-.145.026-.2l1.415-.816a.385.385,0,0,1,.349-.013l1.467.849c.092.053.079.145-.026.2l-1.415.816A.386.386,0,0,1,149.275,267.523Z" transform="translate(-137.23 -258.788)" fill="#d4ecff"/>
              <path id="Path_8356" data-name="Path 8356" d="M132.206,262.98l.033.02a1.507,1.507,0,0,1,.151-.105l10.232-5.909a2.824,2.824,0,0,1,2.54-.105l10.567,6.1c.6-.428.632-1.013.033-1.362L145.168,255.5a2.825,2.825,0,0,0-2.54.105L132.4,261.512c-.75.434-.836,1.092-.184,1.467Z" transform="translate(-131.767 -255.245)" fill="#396caa"/>
            </g>
          </g>
          <g id="Group_2923" data-name="Group 2923" transform="translate(18.981 29.627)">
            <path id="Path_8357" data-name="Path 8357" d="M143.637,291.492c0,.395-.276.553-.619.355a1.356,1.356,0,0,1-.619-1.066c0-.395.276-.553.619-.355A1.356,1.356,0,0,1,143.637,291.492Z" transform="translate(-140.492 -289.242)" fill="#d4ecff"/>
            <path id="Path_8358" data-name="Path 8358" d="M140.737,289.822c0,.395-.276.553-.619.355a1.356,1.356,0,0,1-.619-1.066c0-.395.276-.553.619-.355A1.356,1.356,0,0,1,140.737,289.822Z" transform="translate(-139.5 -288.671)" fill="#d4ecff"/>
            <path id="Path_8359" data-name="Path 8359" d="M143.637,294.992c0,.395-.276.553-.619.355a1.356,1.356,0,0,1-.619-1.066c0-.395.276-.553.619-.355A1.356,1.356,0,0,1,143.637,294.992Z" transform="translate(-140.492 -290.439)" fill="#d4ecff"/>
            <path id="Path_8360" data-name="Path 8360" d="M140.737,293.322c0,.395-.276.553-.619.355a1.356,1.356,0,0,1-.619-1.066c0-.395.276-.553.619-.355A1.356,1.356,0,0,1,140.737,293.322Z" transform="translate(-139.5 -289.868)" fill="#d4ecff"/>
          </g>
          <g id="Group_2924" data-name="Group 2924" transform="translate(18.981 42.05)">
            <path id="Path_8361" data-name="Path 8361" d="M143.637,310.372c0,.395-.276.553-.619.355a1.356,1.356,0,0,1-.619-1.066c0-.395.276-.553.619-.355A1.356,1.356,0,0,1,143.637,310.372Z" transform="translate(-140.492 -308.122)" fill="#d4ecff"/>
            <path id="Path_8362" data-name="Path 8362" d="M140.737,308.7c0,.395-.276.553-.619.355a1.356,1.356,0,0,1-.619-1.066c0-.395.276-.553.619-.355A1.356,1.356,0,0,1,140.737,308.7Z" transform="translate(-139.5 -307.551)" fill="#d4ecff"/>
            <path id="Path_8363" data-name="Path 8363" d="M143.637,313.872c0,.395-.276.553-.619.355a1.356,1.356,0,0,1-.619-1.066c0-.395.276-.553.619-.355A1.356,1.356,0,0,1,143.637,313.872Z" transform="translate(-140.492 -309.319)" fill="#d4ecff"/>
            <path id="Path_8364" data-name="Path 8364" d="M140.737,312.2c0,.395-.276.553-.619.355a1.356,1.356,0,0,1-.619-1.066c0-.395.276-.553.619-.355A1.356,1.356,0,0,1,140.737,312.2Z" transform="translate(-139.5 -308.748)" fill="#d4ecff"/>
          </g>
          <g id="Group_2925" data-name="Group 2925" transform="translate(18.981 54.473)">
            <path id="Path_8365" data-name="Path 8365" d="M143.637,329.242c0,.395-.276.553-.619.355a1.356,1.356,0,0,1-.619-1.066c0-.395.276-.553.619-.355A1.356,1.356,0,0,1,143.637,329.242Z" transform="translate(-140.492 -326.999)" fill="#d4ecff"/>
            <path id="Path_8366" data-name="Path 8366" d="M140.737,327.582c0,.395-.276.553-.619.355a1.356,1.356,0,0,1-.619-1.066c0-.395.276-.553.619-.355A1.356,1.356,0,0,1,140.737,327.582Z" transform="translate(-139.5 -326.431)" fill="#d4ecff"/>
            <path id="Path_8367" data-name="Path 8367" d="M143.637,332.752c0,.395-.276.553-.619.355a1.356,1.356,0,0,1-.619-1.066c0-.395.276-.553.619-.355A1.356,1.356,0,0,1,143.637,332.752Z" transform="translate(-140.492 -328.199)" fill="#d4ecff"/>
            <path id="Path_8368" data-name="Path 8368" d="M140.737,331.082c0,.395-.276.553-.619.355a1.356,1.356,0,0,1-.619-1.066c0-.395.276-.553.619-.355A1.356,1.356,0,0,1,140.737,331.082Z" transform="translate(-139.5 -327.628)" fill="#d4ecff"/>
          </g>
        </g>
        <path id="Path_8369" data-name="Path 8369" d="M143.544,354.336a3.743,3.743,0,0,1-1.875-.5l-11.41-6.619a1.245,1.245,0,0,1,0-2.152l7.5-4.349.553.954-7.5,4.349a.125.125,0,0,0-.066.118.139.139,0,0,0,.066.118l11.41,6.619a2.654,2.654,0,0,0,2.619.013l22.346-12.732a3.744,3.744,0,0,1,3.724.013l18.72,10.811a2.615,2.615,0,0,0,2.632,0l9.028-5.218.553.961-9.028,5.218a3.749,3.749,0,0,1-3.744,0l-18.72-10.811a2.638,2.638,0,0,0-2.619-.013l-22.346,12.732a3.771,3.771,0,0,1-1.849.487Z" transform="translate(-108.367 -173.646)" fill="#b2d3ea"/>
        <g id="Group_2934" data-name="Group 2934" transform="translate(110.192 154.248)">
          <path id="Path_8370" data-name="Path 8370" d="M291.6,413.689l-18.082-10.436c-1.112-.638-.967-1.757.309-2.5l17.457-10.081a4.808,4.808,0,0,1,4.33-.178L313.7,400.93c1.112.638.967,1.757-.309,2.5l-17.457,10.081A4.808,4.808,0,0,1,291.6,413.689Z" transform="translate(-267.51 -345.129)" fill="#b2d3ea"/>
          <g id="Group_2928" data-name="Group 2928" transform="translate(0 24.971)">
            <path id="Path_8371" data-name="Path 8371" d="M316.968,388.336h0v-7.81H299.452l-6.054-3.507a6.021,6.021,0,0,0-5.422.224l-5.652,3.264H264.788v8.028a1.575,1.575,0,0,0,.928,1.454l22.642,13.074a6.021,6.021,0,0,0,5.422-.224l21.859-12.62a2.141,2.141,0,0,0,1.323-1.869Z" transform="translate(-264.778 -365.454)" fill="#396caa"/>
            <path id="Path_8372" data-name="Path 8372" d="M290.875,376.48a6.292,6.292,0,0,0-2.908.763l-5.652,3.264H264.778v8.028a1.575,1.575,0,0,0,.928,1.454l22.642,13.074a4.895,4.895,0,0,0,2.514.54v-27.11Z" transform="translate(-264.775 -365.455)" fill="#396caa"/>
            <path id="Path_8373" data-name="Path 8373" d="M266.775,382.58h-1.987v8.034a1.575,1.575,0,0,0,.928,1.454l1.053.605V382.58Z" transform="translate(-264.778 -367.542)" fill="#5793ce"/>
            <path id="Path_8374" data-name="Path 8374" d="M301.15,412.363a6.158,6.158,0,0,0,4.336-.053v-9.12H301.15v9.173Z" transform="translate(-277.215 -374.59)" fill="#5793ce"/>
            <path id="Path_8375" data-name="Path 8375" d="M288.364,389.319l-22.642-13.074c-1.388-.8-1.217-2.2.388-3.132l21.859-12.62a6.021,6.021,0,0,1,5.422-.224l22.642,13.074c1.388.8,1.217,2.2-.388,3.132l-21.859,12.62A6.021,6.021,0,0,1,288.364,389.319Z" transform="translate(-264.778 -359.725)" fill="#d4ecff"/>
            <path id="Path_8376" data-name="Path 8376" d="M290.971,388.231,272,377.275c-1.165-.671-1.02-1.849.329-2.625l18.319-10.574a5.047,5.047,0,0,1,4.54-.191l18.97,10.956c1.165.671,1.02,1.849-.329,2.625L295.512,388.04A5.047,5.047,0,0,1,290.971,388.231Z" transform="translate(-266.977 -360.993)" fill="#5793ce"/>
            <g id="Group_2927" data-name="Group 2927" transform="translate(42.03 20.896)">
              <path id="Path_8377" data-name="Path 8377" d="M330.479,397.292a2.024,2.024,0,0,1-.915,1.586c-.507.29-.915.053-.915-.526a2.034,2.034,0,0,1,.915-1.586C330.071,396.476,330.479,396.713,330.479,397.292Z" transform="translate(-328.65 -393.247)" fill="#d4ecff"/>
              <path id="Path_8378" data-name="Path 8378" d="M334.949,394.712a2.024,2.024,0,0,1-.915,1.586c-.507.29-.915.053-.915-.526a2.034,2.034,0,0,1,.915-1.586C334.541,393.9,334.949,394.133,334.949,394.712Z" transform="translate(-330.179 -392.365)" fill="#d4ecff"/>
              <path id="Path_8379" data-name="Path 8379" d="M339.419,392.132a2.024,2.024,0,0,1-.915,1.586c-.507.29-.915.053-.915-.526a2.034,2.034,0,0,1,.915-1.586C339.011,391.316,339.419,391.553,339.419,392.132Z" transform="translate(-331.707 -391.482)" fill="#d4ecff"/>
            </g>
          </g>
          <g id="Group_2930" data-name="Group 2930" transform="translate(0 12.489)">
            <path id="Path_8380" data-name="Path 8380" d="M316.968,369.366h0v-7.81H299.452l-6.054-3.507a6.021,6.021,0,0,0-5.422.224l-5.652,3.264H264.788v8.028a1.575,1.575,0,0,0,.928,1.454l22.642,13.074a6.021,6.021,0,0,0,5.422-.224l21.859-12.62a2.141,2.141,0,0,0,1.323-1.869Z" transform="translate(-264.778 -346.484)" fill="#396caa"/>
            <path id="Path_8381" data-name="Path 8381" d="M290.875,357.51a6.292,6.292,0,0,0-2.908.763l-5.652,3.264H264.778v8.028a1.575,1.575,0,0,0,.928,1.454l22.642,13.074a4.894,4.894,0,0,0,2.514.54v-27.11Z" transform="translate(-264.775 -346.485)" fill="#396caa"/>
            <path id="Path_8382" data-name="Path 8382" d="M266.775,363.61h-1.987v8.034a1.575,1.575,0,0,0,.928,1.454l1.053.605V363.61Z" transform="translate(-264.778 -348.572)" fill="#5793ce"/>
            <path id="Path_8383" data-name="Path 8383" d="M301.15,393.383a6.158,6.158,0,0,0,4.336-.053v-9.12H301.15v9.173Z" transform="translate(-277.215 -355.617)" fill="#5793ce"/>
            <path id="Path_8384" data-name="Path 8384" d="M288.364,370.349l-22.642-13.074c-1.388-.8-1.217-2.2.388-3.132l21.859-12.62a6.021,6.021,0,0,1,5.422-.224l22.642,13.074c1.388.8,1.217,2.2-.388,3.132l-21.859,12.62A6.021,6.021,0,0,1,288.364,370.349Z" transform="translate(-264.778 -340.755)" fill="#d4ecff"/>
            <path id="Path_8385" data-name="Path 8385" d="M290.971,369.261,272,358.305c-1.165-.671-1.02-1.849.329-2.625l18.319-10.574a5.047,5.047,0,0,1,4.54-.191l18.97,10.956c1.165.671,1.02,1.849-.329,2.625L295.512,369.07A5.047,5.047,0,0,1,290.971,369.261Z" transform="translate(-266.977 -342.023)" fill="#5793ce"/>
            <g id="Group_2929" data-name="Group 2929" transform="translate(42.03 20.896)">
              <path id="Path_8386" data-name="Path 8386" d="M330.479,378.322a2.024,2.024,0,0,1-.915,1.586c-.507.29-.915.053-.915-.526a2.034,2.034,0,0,1,.915-1.586C330.071,377.506,330.479,377.743,330.479,378.322Z" transform="translate(-328.65 -374.277)" fill="#d4ecff"/>
              <path id="Path_8387" data-name="Path 8387" d="M334.949,375.742a2.024,2.024,0,0,1-.915,1.586c-.507.29-.915.053-.915-.526a2.034,2.034,0,0,1,.915-1.586C334.541,374.926,334.949,375.163,334.949,375.742Z" transform="translate(-330.179 -373.395)" fill="#d4ecff"/>
              <path id="Path_8388" data-name="Path 8388" d="M339.419,373.162a2.024,2.024,0,0,1-.915,1.586c-.507.289-.915.053-.915-.526a2.034,2.034,0,0,1,.915-1.586C339.011,372.346,339.419,372.583,339.419,373.162Z" transform="translate(-331.707 -372.512)" fill="#d4ecff"/>
            </g>
          </g>
          <g id="Group_2933" data-name="Group 2933">
            <path id="Path_8389" data-name="Path 8389" d="M316.968,350.385h0v-7.81H299.452l-6.054-3.507a6.021,6.021,0,0,0-5.422.224l-5.652,3.264H264.788v8.028a1.575,1.575,0,0,0,.928,1.454l22.642,13.074a6.021,6.021,0,0,0,5.422-.224l21.859-12.62a2.141,2.141,0,0,0,1.323-1.869Z" transform="translate(-264.778 -327.504)" fill="#396caa"/>
            <path id="Path_8390" data-name="Path 8390" d="M290.875,338.54a6.292,6.292,0,0,0-2.908.763l-5.652,3.264H264.778v8.028a1.575,1.575,0,0,0,.928,1.454l22.642,13.074a4.895,4.895,0,0,0,2.514.54v-27.11Z" transform="translate(-264.775 -327.509)" fill="#396caa"/>
            <path id="Path_8391" data-name="Path 8391" d="M266.775,344.64h-1.987v8.034a1.575,1.575,0,0,0,.928,1.454l1.053.605V344.64Z" transform="translate(-264.778 -329.595)" fill="#5793ce"/>
            <path id="Path_8392" data-name="Path 8392" d="M301.15,374.413a6.158,6.158,0,0,0,4.336-.053v-9.12H301.15v9.173Z" transform="translate(-277.215 -336.64)" fill="#5793ce"/>
            <path id="Path_8393" data-name="Path 8393" d="M288.364,351.369l-22.642-13.074c-1.388-.8-1.217-2.2.388-3.132l21.859-12.62a6.021,6.021,0,0,1,5.422-.224l22.642,13.074c1.388.8,1.217,2.2-.388,3.132l-21.859,12.62A6.021,6.021,0,0,1,288.364,351.369Z" transform="translate(-264.778 -321.775)" fill="#d4ecff"/>
            <path id="Path_8394" data-name="Path 8394" d="M315.645,344.384,293.786,357a6.021,6.021,0,0,1-5.422.224l-22.642-13.074a2.056,2.056,0,0,1-.691-.612,1.453,1.453,0,0,0,.691,2.152l22.642,13.074a6.021,6.021,0,0,0,5.422-.224l21.859-12.62c1.244-.717,1.625-1.724,1.086-2.514a3.079,3.079,0,0,1-1.086.98Z" transform="translate(-264.778 -329.174)" fill="#fff"/>
            <g id="Group_2931" data-name="Group 2931" transform="translate(42.03 20.896)">
              <path id="Path_8395" data-name="Path 8395" d="M330.479,359.352a2.024,2.024,0,0,1-.915,1.586c-.507.29-.915.053-.915-.526a2.034,2.034,0,0,1,.915-1.586C330.071,358.536,330.479,358.773,330.479,359.352Z" transform="translate(-328.65 -355.3)" fill="#d4ecff"/>
              <path id="Path_8396" data-name="Path 8396" d="M334.949,356.762a2.024,2.024,0,0,1-.915,1.586c-.507.29-.915.053-.915-.526a2.034,2.034,0,0,1,.915-1.586C334.541,355.946,334.949,356.183,334.949,356.762Z" transform="translate(-330.179 -354.415)" fill="#d4ecff"/>
              <path id="Path_8397" data-name="Path 8397" d="M339.419,354.182a2.024,2.024,0,0,1-.915,1.586c-.507.29-.915.053-.915-.526a2.034,2.034,0,0,1,.915-1.586C339.011,353.366,339.419,353.6,339.419,354.182Z" transform="translate(-331.707 -353.532)" fill="#d4ecff"/>
            </g>
            <g id="Group_2932" data-name="Group 2932" transform="translate(13.89 7.639)">
              <path id="Path_8398" data-name="Path 8398" d="M296.916,347.239l-10.594-6.119c-.651-.375-.566-1.033.184-1.467l10.232-5.909a2.825,2.825,0,0,1,2.54-.105l10.594,6.119c.651.375.566,1.033-.184,1.467l-10.232,5.909A2.824,2.824,0,0,1,296.916,347.239Z" transform="translate(-285.884 -333.385)" fill="#5793ce"/>
              <path id="Path_8399" data-name="Path 8399" d="M303.4,345.653l-1.467-.849c-.092-.053-.079-.145.026-.2l1.415-.816a.385.385,0,0,1,.349-.013l1.467.849c.092.053.079.145-.026.2l-1.415.816A.386.386,0,0,1,303.4,345.653Z" transform="translate(-291.35 -336.925)" fill="#d4ecff"/>
              <path id="Path_8400" data-name="Path 8400" d="M286.326,341.12l.033.02a1.512,1.512,0,0,1,.151-.105l10.232-5.909a2.824,2.824,0,0,1,2.54-.105l10.567,6.1c.6-.428.632-1.013.033-1.362l-10.594-6.119a2.825,2.825,0,0,0-2.54.105l-10.232,5.909c-.75.434-.836,1.092-.184,1.467Z" transform="translate(-285.887 -333.385)" fill="#396caa"/>
            </g>
          </g>
        </g>
        <path id="Path_8401" data-name="Path 8401" d="M250.927,153.782c0,.395-.276.553-.619.355a1.356,1.356,0,0,1-.619-1.066c0-.395.276-.553.619-.355A1.356,1.356,0,0,1,250.927,153.782Z" transform="translate(-149.424 -109.68)" fill="#d4ecff"/>
        <path id="Path_8402" data-name="Path 8402" d="M259.157,158.772c0,.395-.276.553-.619.355a1.356,1.356,0,0,1-.619-1.066c0-.395.276-.553.619-.355A1.356,1.356,0,0,1,259.157,158.772Z" transform="translate(-152.239 -111.387)" fill="#d4ecff"/>
        <path id="Path_8403" data-name="Path 8403" d="M267.4,163.772c0,.395-.276.553-.619.355a1.356,1.356,0,0,1-.618-1.066c0-.395.276-.553.618-.355A1.356,1.356,0,0,1,267.4,163.772Z" transform="translate(-155.057 -113.097)" fill="#d4ecff"/>
        <path id="Path_8404" data-name="Path 8404" d="M275.637,168.762c0,.395-.276.553-.618.355a1.356,1.356,0,0,1-.619-1.066c0-.395.276-.553.619-.355A1.356,1.356,0,0,1,275.637,168.762Z" transform="translate(-157.875 -114.803)" fill="#d4ecff"/>
        <path id="Path_8405" data-name="Path 8405" d="M256.735,164.053a.553.553,0,1,1-.553-.553A.556.556,0,0,1,256.735,164.053Z" transform="translate(-151.455 -113.397)" fill="#d4ecff"/>
        <path id="Path_8406" data-name="Path 8406" d="M264.415,168.653a.553.553,0,1,1-.553-.553A.556.556,0,0,1,264.415,168.653Z" transform="translate(-154.082 -114.971)" fill="#d4ecff"/>
        <circle id="Ellipse_277" data-name="Ellipse 277" cx="0.553" cy="0.553" r="0.553" transform="translate(114.281 56.163)" fill="#d4ecff"/>
        <path id="Path_8407" data-name="Path 8407" d="M279.775,177.683a.553.553,0,1,1-.553-.553A.556.556,0,0,1,279.775,177.683Z" transform="translate(-159.335 -118.059)" fill="#d4ecff"/>
      </g>
    </g>
  </g>
</svg>
