<svg xmlns="http://www.w3.org/2000/svg" width="47.537" height="44.661" viewBox="0 0 47.537 44.661">
  <g id="custom_site_engine-01" data-name="custom site engine-01" transform="translate(-23.34 -38.22)">
    <path id="Path_7392" data-name="Path 7392" d="M23.341,80.842V40.282a3.274,3.274,0,0,1,3.428-2.062q20.485.043,40.969.017a2.921,2.921,0,0,1,3.138,3.133q0,19.182,0,38.364a2.93,2.93,0,0,1-3.131,3.146q-20.693,0-41.388,0a3.961,3.961,0,0,1-.6-.034,3.063,3.063,0,0,1-2.415-2ZM39.7,47.952V81.486H67.612c1.318,0,1.87-.547,1.87-1.857V47.952h-10.9a3.64,3.64,0,0,1-.557-.023.68.68,0,0,1-.04-1.336,2.864,2.864,0,0,1,.555-.035q5.184,0,10.37,0h.573c0-1.786,0-3.5,0-5.221a1.533,1.533,0,0,0-1.693-1.7q-20.717,0-41.435,0a1.537,1.537,0,0,0-1.709,1.733q0,2.348,0,4.7v.494H55.15c.732,0,1.051.2,1.064.678.014.5-.311.717-1.068.717H39.7ZM38.234,81.486v-33.5H24.643V79.725a1.562,1.562,0,0,0,1.781,1.76q5.674,0,11.348,0h.46Z" transform="translate(0 0)" fill="#179bd7"/>
    <path id="Path_7393" data-name="Path 7393" d="M218.093,262.44h-24.1v8.077h.553c.976,0,1.953-.006,2.929,0a.677.677,0,0,1,.743.663.7.7,0,0,1-.734.726c-.093.005-.186,0-.279,0-1.023,0-2.046,0-3.069,0a1.455,1.455,0,0,1-1.578-1.555c-.005-.217,0-.434,0-.651q0-3.51,0-7.021a1.465,1.465,0,0,1,1.658-1.655h23.668a1.457,1.457,0,0,1,1.65,1.617q.011,3.812,0,7.625a1.468,1.468,0,0,1-1.633,1.64q-8.741,0-17.482,0a1.607,1.607,0,0,1-.416-.023.656.656,0,0,1-.543-.709.646.646,0,0,1,.6-.654,3.1,3.1,0,0,1,.464-.009H218.1v-8.077Z" transform="translate(-151.4 -199.353)" fill="#179bd7"/>
    <path id="Path_7394" data-name="Path 7394" d="M205.78,382.793h11.812a1.465,1.465,0,0,1,1.675,1.678c0,.434.007.869,0,1.3a1.424,1.424,0,0,1-1.349,1.447,4.545,4.545,0,0,1-.464.015q-11.7,0-23.392,0a1.765,1.765,0,0,1-1.443-.488,3.891,3.891,0,0,1,0-3.486,1.57,1.57,0,0,1,1.258-.474q5.952.013,11.9.005Zm12.075,1.432H193.667v1.584h24.188v-1.584Z" transform="translate(-151.087 -308.294)" fill="#179bd7"/>
    <path id="Path_7395" data-name="Path 7395" d="M198.842,149.768q2.3,0,4.6,0a1.469,1.469,0,0,1,1.649,1.625q.011,3.441,0,6.882a1.464,1.464,0,0,1-1.652,1.62q-4.627,0-9.254,0a1.464,1.464,0,0,1-1.649-1.622q-.009-3.441,0-6.882a1.469,1.469,0,0,1,1.652-1.623c1.55,0,3.1,0,4.65,0Zm4.83,1.451h-9.7v7.258h9.7Z" transform="translate(-151.382 -99.803)" fill="#179bd7"/>
    <path id="Path_7396" data-name="Path 7396" d="M335.772,159.9q-2.325,0-4.65,0a1.456,1.456,0,0,1-1.625-1.6q-.013-3.465,0-6.928a1.461,1.461,0,0,1,1.628-1.6q4.651,0,9.3,0a1.459,1.459,0,0,1,1.625,1.6q.013,3.465,0,6.928a1.456,1.456,0,0,1-1.628,1.6q-2.325,0-4.65,0Zm-.046-1.395c1.487,0,2.973-.012,4.46.008.377.005.477-.127.476-.482q-.017-3.206,0-6.411c0-.334-.1-.462-.451-.46q-4.437.017-8.874,0c-.354,0-.453.126-.451.46q.014,3.206,0,6.411c0,.355.1.487.475.482,1.455-.02,2.911-.008,4.367-.008Z" transform="translate(-273.919 -99.804)" fill="#179bd7"/>
    <path id="Path_7397" data-name="Path 7397" d="M263.387,77.84h8.132c.155,0,.353-.051.455.025.218.159.516.372.54.59s-.2.512-.4.69c-.12.109-.381.087-.579.087q-8.178.006-16.357,0a1.962,1.962,0,0,1-.5-.047.634.634,0,0,1-.5-.692.643.643,0,0,1,.614-.644,4.266,4.266,0,0,1,.464-.011h8.132Z" transform="translate(-206.531 -35.434)" fill="#179bd7"/>
    <path id="Path_7398" data-name="Path 7398" d="M114.8,66.96a2.309,2.309,0,0,1-2.311-2.349A2.333,2.333,0,1,1,114.8,66.96Zm0-1.4a.924.924,0,0,0,.953-.927.951.951,0,0,0-.946-.946.936.936,0,0,0-.924.916.913.913,0,0,0,.917.958Z" transform="translate(-79.764 -21.536)" fill="#179bd7"/>
    <path id="Path_7399" data-name="Path 7399" d="M64.266,64.638A2.334,2.334,0,0,1,59.6,64.6a2.334,2.334,0,1,1,4.668.036Zm-2.32.914a.912.912,0,0,0,.921-.954.934.934,0,0,0-.918-.921.958.958,0,0,0-.954.941.929.929,0,0,0,.95.934Z" transform="translate(-32.442 -21.527)" fill="#179bd7"/>
    <path id="Path_7400" data-name="Path 7400" d="M167.576,66.96a2.336,2.336,0,0,1,.051-4.671,2.364,2.364,0,0,1,2.318,2.366,2.338,2.338,0,0,1-2.368,2.306Zm0-1.4a.941.941,0,0,0,.968-.921.967.967,0,0,0-.945-.954.937.937,0,0,0-.932.908.914.914,0,0,0,.91.966Z" transform="translate(-126.987 -21.535)" fill="#179bd7"/>
    <path id="Path_7401" data-name="Path 7401" d="M55.372,238.726c-1.518,0-3.035.005-4.553,0a.689.689,0,0,1-.729-.682.715.715,0,0,1,.676-.7,3.456,3.456,0,0,1,.418-.008H59.5c.124,0,.248,0,.372,0,.515.02.807.275.81.7s-.283.69-.8.692c-1.5.005-3,0-4.507,0Z" transform="translate(-23.934 -178.148)" fill="#179bd7"/>
    <path id="Path_7402" data-name="Path 7402" d="M55.372,197.257c-1.5,0-3,0-4.506,0a.7.7,0,0,1-.776-.682.725.725,0,0,1,.722-.7c.138-.014.279-.006.418-.006h6.132c.805,0,1.611-.005,2.416,0a1.315,1.315,0,0,1,.54.1.628.628,0,0,1,.341.781.67.67,0,0,1-.735.51q-2.276,0-4.552,0Z" transform="translate(-23.934 -141.045)" fill="#179bd7"/>
    <path id="Path_7403" data-name="Path 7403" d="M55.407,280.217q-2.208,0-4.414,0c-.584,0-.912-.253-.913-.691s.335-.7.91-.7q4.414,0,8.829,0c.667,0,1.049.5.785,1.012a.77.77,0,0,1-.782.384c-1.472-.006-2.943,0-4.414,0Z" transform="translate(-23.925 -215.271)" fill="#179bd7"/>
    <path id="Path_7404" data-name="Path 7404" d="M55.443,155.918H51.262a3.578,3.578,0,0,1-.51-.023.635.635,0,0,1-.583-.67.643.643,0,0,1,.576-.679,2.379,2.379,0,0,1,.416-.022q4.3,0,8.594,0a2.55,2.55,0,0,1,.371.013.643.643,0,0,1,.622.68.635.635,0,0,1-.615.683,3.573,3.573,0,0,1-.463.018q-2.113,0-4.227,0Z" transform="translate(-24.005 -104.059)" fill="#179bd7"/>
  </g>
</svg>
