<svg xmlns="http://www.w3.org/2000/svg" width="56.757" height="44.119" viewBox="0 0 56.757 44.119">
  <g id="Data_Importing-01" data-name="Data Importing-01" transform="translate(-15.58 -67.69)">
    <path id="Path_7357" data-name="Path 7357" d="M15.581,90.968a1.316,1.316,0,0,1,1.175-.446c.548.032,1.1.007,1.713.007V71.271c0-2.337,1.251-3.581,3.6-3.581H68.733a3.262,3.262,0,0,1,3.6,3.6v39.293c0,1.016-.212,1.226-1.234,1.226H19.671c-1,0-1.2-.206-1.2-1.194V97.058c-.58,0-1.145-.025-1.707.008a1.41,1.41,0,0,1-1.181-.443V90.97Zm4.453,19.24H70.748V79.364h-50.7V90.5H30.212c0-.557.01-1.088,0-1.619-.01-.4.045-.814.45-.913a1.306,1.306,0,0,1,.953.178c2.291,1.619,4.561,3.271,6.83,4.921.7.5.7,1.059.023,1.555-2.269,1.651-4.538,3.3-6.83,4.922a1.325,1.325,0,0,1-.953.177c-.406-.092-.484-.5-.475-.9.012-.582,0-1.166,0-1.736H20.034v13.121Zm50.72-32.456c.011-.171.025-.3.025-.421,0-2.088.006-4.175,0-6.261a1.706,1.706,0,0,0-1.846-1.823q-23.524,0-47.048,0a1.649,1.649,0,0,0-1.873,1.872q-.007,3.075,0,6.151c0,.158.023.315.038.484H70.754ZM31.77,97.55l5.091-3.7L31.77,90.164v.543c-.008,1.218-.152,1.36-1.372,1.36H17.181v3.449H28.467c.795,0,1.589-.007,2.382,0,.634.008.907.286.921.913.007.329,0,.657,0,1.117Z" fill="#179bd7"/>
    <path id="Path_7358" data-name="Path 7358" d="M276.078,207.941c0,2.068-.021,4.136.01,6.2a2.806,2.806,0,0,1-.911,2.17,9.773,9.773,0,0,1-3.391,2.043,19.312,19.312,0,0,1-15.779-.585,9.607,9.607,0,0,1-1.4-.882,3.493,3.493,0,0,1-1.6-3.133c.072-3.949.049-7.9.009-11.853a3.52,3.52,0,0,1,1.431-2.961,11.067,11.067,0,0,1,4.8-2.024,23.748,23.748,0,0,1,12.565.59A12.554,12.554,0,0,1,274.684,199a3.183,3.183,0,0,1,1.409,2.9c-.047,2.011-.013,4.025-.013,6.037h0Zm-11.351-10.018a23.1,23.1,0,0,0-5.811.673,9.076,9.076,0,0,0-3.594,1.64c-1,.83-1.04,1.678-.015,2.477a7.8,7.8,0,0,0,2.244,1.271,21.6,21.6,0,0,0,13.752.068,6.254,6.254,0,0,0,2.707-1.555,1.258,1.258,0,0,0-.061-2.062,7.892,7.892,0,0,0-1.869-1.154,19.391,19.391,0,0,0-7.352-1.359Zm9.791,14.7a19.67,19.67,0,0,1-19.877.052,2.769,2.769,0,0,0,1.765,3.565c.133.061.257.144.389.209a17.532,17.532,0,0,0,11.487,1.359,13.963,13.963,0,0,0,5.2-2.09,1.942,1.942,0,0,0,1.044-2.024,6.7,6.7,0,0,1-.008-1.072ZM254.6,208.333c-.221,2.035-.01,2.451,1.784,3.464.129.073.256.148.389.211a17.771,17.771,0,0,0,13.93.66,18.739,18.739,0,0,0,3.2-1.7,1.323,1.323,0,0,0,.571-.83,12.667,12.667,0,0,0,.027-1.833,19.7,19.7,0,0,1-19.9.028Zm.036-4.09a2.345,2.345,0,0,0,1.282,2.966c.3.148.573.337.87.482a17.621,17.621,0,0,0,10.78,1.486,14.109,14.109,0,0,0,5.962-2.212,2.086,2.086,0,0,0,.89-2.709c-4.6,3.2-15.183,3.252-19.785-.01Z" transform="translate(-208.624 -113.052)" fill="#179bd7"/>
    <path id="Path_7359" data-name="Path 7359" d="M163.528,109.641c.314,0,.628-.018.941,0a.773.773,0,0,1,.754.795.724.724,0,0,1-.742.742c-.644.033-1.292.029-1.937,0a.738.738,0,0,1-.752-.787.756.756,0,0,1,.795-.754c.313-.016.627,0,.941,0v0Z" transform="translate(-128.475 -36.856)" fill="#179bd7"/>
    <path id="Path_7360" data-name="Path 7360" d="M77.733,109.63c.313,0,.627-.019.939,0a.725.725,0,0,1,.722.759.693.693,0,0,1-.7.775,18.215,18.215,0,0,1-2.043,0,.683.683,0,0,1-.666-.745.72.72,0,0,1,.694-.782c.347-.034.7-.006,1.049-.007Z" transform="translate(-53.082 -36.844)" fill="#179bd7"/>
    <path id="Path_7361" data-name="Path 7361" d="M120.717,109.64c.313,0,.627-.015.939,0a.759.759,0,0,1,.758.784.711.711,0,0,1-.719.757c-.661.03-1.327.033-1.988,0a.7.7,0,0,1-.7-.77.721.721,0,0,1,.716-.763c.33-.024.662,0,.995,0v0Z" transform="translate(-90.881 -36.857)" fill="#179bd7"/>
  </g>
</svg>
