<svg xmlns="http://www.w3.org/2000/svg" width="51" height="46.73" viewBox="0 0 51 46.73">
  <g id="Developing_Web_Interface_for_Data_Entry-01" data-name="Developing Web Interface for Data Entry-01" transform="translate(-10.62 -42.01)">
    <path id="Path_7380" data-name="Path 7380" d="M10.62,48.361a2.655,2.655,0,0,1,2.032-2.029,3.91,3.91,0,0,1,.791-.061q4.233-.006,8.466,0h.608V43.562c0-1.427.126-1.552,1.572-1.552h24.3c1.121,0,1.332.213,1.332,1.345v2.915h.551q4.282,0,8.565,0a2.565,2.565,0,0,1,2.78,2.795q0,12.5,0,25a2.559,2.559,0,0,1-2.821,2.8q-8.889,0-17.778,0h-.613v5.1H47.65c.962,0,1.219.256,1.22,1.2v3.893h1.666v1.678H21.71V87.09h1.63c.012-.2.029-.36.03-.518,0-1.162,0-2.324,0-3.487,0-.826.281-1.115,1.1-1.116q3.362-.006,6.723,0h.628v-5.1h-.588c-5.794,0-11.587-.032-17.379.021-1.588.015-2.695-.491-3.237-2.026v-26.5ZM47.992,62.583c-.189.211-.3.329-.4.452-1.142,1.361-2.277,2.727-3.43,4.078a1.587,1.587,0,0,1-.621.466q-2.244.808-4.509,1.562a.859.859,0,0,1-1.182-1.023c.227-1.459.435-2.921.711-4.37a2.7,2.7,0,0,1,.56-1.175c2.852-3.436,5.732-6.849,8.589-10.281a1.359,1.359,0,0,0,.3-.792c.022-2.424.014-4.848.012-7.273,0-.158-.021-.317-.032-.472H24.257V72.591H47.992V62.585ZM12.317,70.05H22.474V47.966h-8.9c-1.019,0-1.257.239-1.257,1.262V70.05Zm37.407-.013H59.909c.006-.138.015-.237.015-.335q0-10.336,0-20.672c0-.756-.305-1.061-1.057-1.062q-4.357,0-8.716,0c-.128,0-.256.02-.4.032v2.219a9.745,9.745,0,0,1,1.676-.2,3.188,3.188,0,0,1,2.908,2.008,3.258,3.258,0,0,1-.529,3.587q-1.851,2.249-3.747,4.462a1.342,1.342,0,0,0-.34.941c.012,2.823.006,5.645.006,8.468v.547ZM12.317,71.8v2.071c0,1.085.213,1.295,1.316,1.295h44.96c.165,0,.332.005.5,0a.77.77,0,0,0,.808-.73c.047-.871.014-1.747.014-2.635H49.723v1.254c0,1.051-.232,1.277-1.3,1.277H32.093q-4.233,0-8.464,0c-.819,0-1.1-.291-1.111-1.113-.005-.461,0-.923,0-1.413h-10.2ZM47.148,83.71H25.088v3.341h22.06V83.71ZM48.3,54.257,40.65,63.371l2.6,2.186L50.9,56.442l-2.6-2.185ZM33.6,76.894v5.037h5.037V76.894H33.6ZM51.979,55.122c.665-.683,1.229-1.365.83-2.359a1.607,1.607,0,0,0-1.5-1.061c-.925-.049-1.422.568-1.9,1.272l2.563,2.147ZM40.052,65.094c-.11.713-.2,1.324-.312,2.012l1.915-.666-1.6-1.345Z" fill="#179bd7"/>
    <path id="Path_7381" data-name="Path 7381" d="M173.933,114.01v1.629H154.44V114.01Z" transform="translate(-128.472 -64.316)" fill="#179bd7"/>
    <path id="Path_7382" data-name="Path 7382" d="M202.05,75.836V74.2h14.4v1.636Z" transform="translate(-171.001 -28.755)" fill="#179bd7"/>
    <path id="Path_7383" data-name="Path 7383" d="M154.45,297.24h10.969v1.63H154.45Z" transform="translate(-128.48 -227.992)" fill="#179bd7"/>
    <path id="Path_7384" data-name="Path 7384" d="M217.87,155.686V154.07h9.309v1.616Z" transform="translate(-185.132 -100.101)" fill="#179bd7"/>
    <path id="Path_7385" data-name="Path 7385" d="M163.6,259.224H154.33V257.59H163.6v1.634Z" transform="translate(-128.373 -192.573)" fill="#179bd7"/>
    <path id="Path_7386" data-name="Path 7386" d="M223.905,193.78v1.636h-5.9V193.78Z" transform="translate(-185.257 -135.573)" fill="#179bd7"/>
    <path id="Path_7387" data-name="Path 7387" d="M159.485,193.7v1.636H154.44V193.7Z" transform="translate(-128.472 -135.502)" fill="#179bd7"/>
    <path id="Path_7388" data-name="Path 7388" d="M157.643,74.23v1.639H154.29V74.23Z" transform="translate(-128.338 -28.781)" fill="#179bd7"/>
    <path id="Path_7389" data-name="Path 7389" d="M154.21,155.675V154.06h1.652v1.615Z" transform="translate(-128.266 -100.092)" fill="#179bd7"/>
    <path id="Path_7390" data-name="Path 7390" d="M187.97,155.7h-1.62V154.05h1.62Z" transform="translate(-156.976 -100.083)" fill="#179bd7"/>
    <path id="Path_7391" data-name="Path 7391" d="M441.09,329.14h1.637v1.638H441.09Z" transform="translate(-384.53 -256.488)" fill="#179bd7"/>
  </g>
</svg>
