<svg xmlns="http://www.w3.org/2000/svg" width="56.828" height="56.83" viewBox="0 0 56.828 56.83">
  <g id="Database_Integration-01" data-name="Database Integration-01" transform="translate(-25.159 -24.128)">
    <path id="Path_7350" data-name="Path 7350" d="M67.816,52.773c.607,0,1.139.013,1.67,0a.943.943,0,0,1,1.083.731A2.977,2.977,0,0,0,72.7,55.7a2.661,2.661,0,0,0,2.531-.084c.774-.409,1.006-.333,1.614.275.715.715,1.424,1.438,2.149,2.144a.963.963,0,0,1,.231,1.29,2.9,2.9,0,0,0-.059,3.006A2.721,2.721,0,0,0,81,64.093c.912.276.982.462.982,1.419,0,.974-.015,1.947.006,2.921a.993.993,0,0,1-.763,1.126A2.887,2.887,0,0,0,79.079,71.6a2.753,2.753,0,0,0,.067,2.641c.411.73.318.972-.27,1.564-.714.718-1.438,1.425-2.141,2.151a1,1,0,0,1-1.341.235,3.461,3.461,0,0,0-4.766,1.869c-.214.788-.468.9-1.308.9-1.011,0-2.024-.011-3.035.005a.955.955,0,0,1-1.078-.742,2.884,2.884,0,0,0-2.085-2.175,2.688,2.688,0,0,0-2.534.044c-.839.462-1.027.373-1.7-.3-.69-.687-1.366-1.388-2.069-2.061a1.016,1.016,0,0,1-.238-1.387,2.523,2.523,0,0,0,.018-2.888c-.48-.834-.388-.865-1.323-.839a32.316,32.316,0,0,1-12.239-1.573,11.668,11.668,0,0,1-2.5-1.359,2.833,2.833,0,0,1-1.222-2.512c.025-4.028.01-8.056.01-12.085v-.767c-.565,0-1.091-.02-1.614.005a1,1,0,0,1-1.165-.787,2.814,2.814,0,0,0-2-2.106,2.8,2.8,0,0,0-2.691.067c-.691.393-.957.3-1.518-.261-.731-.726-1.452-1.464-2.191-2.184a.962.962,0,0,1-.228-1.29,2.879,2.879,0,0,0,.055-3.005,2.718,2.718,0,0,0-1.831-1.762c-.908-.266-.98-.459-.98-1.42,0-.992.008-1.985,0-2.979a.928.928,0,0,1,.711-1.039,2.938,2.938,0,0,0,2.213-2.122,2.709,2.709,0,0,0-.066-2.532c-.441-.8-.356-1.01.289-1.656.7-.7,1.414-1.395,2.1-2.11a.987.987,0,0,1,1.338-.233,2.851,2.851,0,0,0,2.951.054,2.736,2.736,0,0,0,1.8-1.87c.255-.868.46-.951,1.383-.951.992,0,1.986.011,2.979,0a.949.949,0,0,1,1.077.742,2.958,2.958,0,0,0,2.138,2.194A2.627,2.627,0,0,0,46.549,27c.835-.438,1.037-.366,1.705.3.7.7,1.4,1.411,2.107,2.1a.962.962,0,0,1,.222,1.291,2.407,2.407,0,0,0-.019,2.931.959.959,0,0,1,.141.372c.083.435.315.541.763.516a34.14,34.14,0,0,1,10.511.878,20.116,20.116,0,0,1,3.877,1.493,3.426,3.426,0,0,1,1.986,3.435c-.084,3.893-.026,7.789-.026,11.683v.769ZM51.509,38.21a1.534,1.534,0,0,0-1.058-1.549,2.366,2.366,0,0,0-.266-.1,1.285,1.285,0,0,1-.914-.991,10.567,10.567,0,0,0-.89-2.218,1.928,1.928,0,0,1-.062-2.077c.451-.883.415-.9-.288-1.6-.921-.921-.931-.942-2.116-.385a1.548,1.548,0,0,1-1.559-.069,8.513,8.513,0,0,0-2.092-.9,1.905,1.905,0,0,1-1.518-1.42c-.3-.943-.344-.931-1.337-.931-1.307,0-1.324-.006-1.769,1.223a1.58,1.58,0,0,1-1.1,1.042,22.133,22.133,0,0,0-2.523,1.05,1.3,1.3,0,0,1-1.3.048c-.216-.12-.473-.17-.676-.306a.734.734,0,0,0-1.151.217,1.693,1.693,0,0,1-.2.2c-.921.921-.941.929-.385,2.116a1.548,1.548,0,0,1-.071,1.559,8.522,8.522,0,0,0-.9,2.093,1.9,1.9,0,0,1-1.42,1.52c-.943.3-.929.342-.929,1.337,0,1.3-.008,1.327,1.225,1.767a1.577,1.577,0,0,1,1.054,1.155,9.09,9.09,0,0,0,.85,2.111,1.915,1.915,0,0,1,.062,2.077c-.45.883-.414.9.289,1.6.921.921.931.942,2.116.383a1.545,1.545,0,0,1,1.559.071,8.518,8.518,0,0,0,2.093.894,1.906,1.906,0,0,1,1.518,1.421c.3.943.344.929,1.338.929,1.3,0,1.327.008,1.767-1.225A1.577,1.577,0,0,1,42.019,48.2a9.068,9.068,0,0,0,2.111-.85,1.915,1.915,0,0,1,2.077-.062c.883.451.9.414,1.6-.288.919-.919.942-.931.383-2.116a1.56,1.56,0,0,1,.069-1.559,10.859,10.859,0,0,0,.929-2.2,1.746,1.746,0,0,1,1.23-1.341c1.1-.367,1.088-.4,1.088-1.575ZM77.347,74.671a11.179,11.179,0,0,0-.47-1.056,1.558,1.558,0,0,1,.057-1.713,7.365,7.365,0,0,0,.85-1.988,1.927,1.927,0,0,1,1.448-1.564c.929-.291.916-.338.916-1.29,0-1.337.005-1.352-1.291-1.837a1.455,1.455,0,0,1-.955-1.033,9.823,9.823,0,0,0-.864-2.168,1.953,1.953,0,0,1-.076-2.13c.454-.863.41-.885-.264-1.559-.948-.948-.96-.972-2.16-.4a1.549,1.549,0,0,1-1.557-.087,8.231,8.231,0,0,0-2.04-.873,1.929,1.929,0,0,1-1.563-1.449c-.29-.928-.335-.913-1.291-.913-1.334,0-1.349-.005-1.836,1.293a1.465,1.465,0,0,1-1.034.953,11.7,11.7,0,0,0-2.27.916,1.826,1.826,0,0,1-1.921.064c-.97-.491-.989-.453-1.747.3-.869.869-.893.88-.347,2.027a1.577,1.577,0,0,1-.064,1.61,7.973,7.973,0,0,0-.874,2.04,1.934,1.934,0,0,1-1.45,1.563c-.927.29-.912.335-.912,1.289,0,1.336-.005,1.349,1.291,1.836a1.455,1.455,0,0,1,.953,1.034A9.762,9.762,0,0,0,58.74,71.7a1.953,1.953,0,0,1,.077,2.13c-.453.863-.41.885.264,1.559.95.95.961.974,2.16.4a1.539,1.539,0,0,1,1.557.087,7.523,7.523,0,0,0,1.986.851A1.9,1.9,0,0,1,66.42,78.32c.141.685.533.853,1.214.821,1.391-.066,1.4-.018,1.9-1.309a1.357,1.357,0,0,1,.808-.889c1-.375,1.96-.827,2.955-1.2a1.649,1.649,0,0,1,.922-.048c.555.135,1.15.6,1.614.479.493-.126.855-.771,1.274-1.188a1.233,1.233,0,0,0,.12-.124c.044-.058.078-.122.121-.19ZM42.014,51.551c-.137.165-.285.47-.528.607a.611.611,0,0,0-.33.644c.008,1.164.048,2.331-.013,3.492a1.534,1.534,0,0,0,.913,1.623,21.272,21.272,0,0,0,3.327,1.333,34.65,34.65,0,0,0,11.192.822,1.052,1.052,0,0,0,.232-.083c-.071-.185-.125-.343-.19-.5-.334-.777-.3-.976.291-1.57.714-.716,1.44-1.421,2.143-2.149a1.054,1.054,0,0,1,1.344-.242,8.662,8.662,0,0,0,1.151.5,1.232,1.232,0,0,0,.726-.024c.662-.237,1.313-.511,1.952-.8a1.093,1.093,0,0,0,.467-.425c.4-.686.354-1.636,1.233-2.037.034-.015.049-.1.049-.155,0-.525,0-1.049,0-1.465-7.96,3.066-15.906,2.94-23.963.43Zm23.961-9.245a18.834,18.834,0,0,1-7.757,2.178c-2.667.226-5.353.232-8.028.334.11.253.264.619.426.98A.982.982,0,0,1,50.4,47q-1.2,1.19-2.39,2.389a.955.955,0,0,1-1.153.211c-.436-.192-.868-.4-1.309-.573a.706.706,0,0,0-.473-.052c-.644.27-1.274.575-1.958.892.256.1.463.2.676.275a24.985,24.985,0,0,0,6.949,1.307,33.272,33.272,0,0,0,11.187-.876,20.047,20.047,0,0,0,3.389-1.463,1.258,1.258,0,0,0,.627-.878c.057-1.942.029-3.888.029-5.926ZM41.159,59.617c0,1.7.072,3.358-.025,5.01a2.04,2.04,0,0,0,1.3,2.163c.206.1.406.211.615.3a20.1,20.1,0,0,0,6.2,1.481c1.492.146,2.993.2,4.517.3V66.32c-.482,0-.934.006-1.387,0-.649-.011-1.043-.341-1.062-.874s.4-.929,1.058-.953a4.97,4.97,0,0,0,1.2-.023c.846-.252,1.663-.6,2.489-.916a.227.227,0,0,0,.106-.129c.166-.482.327-.965.5-1.487-5.312.194-10.534.079-15.514-2.319Zm12.184-23.45c0,1.359-.008,2.522,0,3.685a1,1,0,0,1-.7,1.052,4.03,4.03,0,0,1-.639.243c-.917.164-1.256.793-1.377,1.769,1.4,0,2.795.033,4.183-.008a26.344,26.344,0,0,0,8.1-1.259,12.637,12.637,0,0,0,2.663-1.383c.586-.385.567-.889.014-1.323A5.908,5.908,0,0,0,63.835,37.9,32.242,32.242,0,0,0,59.2,36.7c-1.909-.3-3.855-.364-5.86-.538Z" transform="translate(0 0)" fill="#179bd7"/>
    <path id="Path_7351" data-name="Path 7351" d="M281.447,81.326V65.295H262.989c-.827,0-1.253-.322-1.241-.923s.449-.908,1.275-.909q2.892,0,5.783,0h13.114c1.129,0,1.4.264,1.4,1.375V81.153c.033.018.067.035.1.054.135-.185.262-.377.4-.556a.924.924,0,0,1,1.264-.267.892.892,0,0,1,.232,1.3c-.7,1.068-1.412,2.131-2.154,3.172a.892.892,0,0,1-1.568-.029q-1.086-1.546-2.121-3.125a.9.9,0,0,1,.211-1.313.933.933,0,0,1,1.3.293c.132.173.255.353.462.641Z" transform="translate(-206.753 -34.373)" fill="#179bd7"/>
    <path id="Path_7352" data-name="Path 7352" d="M51.776,266.236a6.687,6.687,0,0,1-.479.638.85.85,0,0,1-1.189.134.8.8,0,0,1-.277-1.155c.745-1.153,1.51-2.3,2.319-3.4a.845.845,0,0,1,1.419.071c.762,1.073,1.5,2.167,2.213,3.269a.878.878,0,0,1-.231,1.221.921.921,0,0,1-1.271-.214c-.154-.188-.289-.392-.5-.687v16.015h18.31a4,4,0,0,1,.628.021.828.828,0,0,1,.742.818.811.811,0,0,1-.566.9,2.531,2.531,0,0,1-.788.093q-9.42.008-18.84,0c-1.09,0-1.365-.271-1.365-1.349V266.25l-.121-.016Z" transform="translate(-21.435 -207.957)" fill="#179bd7"/>
    <path id="Path_7353" data-name="Path 7353" d="M91.391,82.714a7.676,7.676,0,1,1-7.7-7.664,7.685,7.685,0,0,1,7.7,7.664Zm-1.834.032a5.842,5.842,0,1,0-5.893,5.821,5.855,5.855,0,0,0,5.893-5.821Z" transform="translate(-44.464 -44.5)" fill="#179bd7"/>
    <path id="Path_7354" data-name="Path 7354" d="M310.789,317.49a7.675,7.675,0,1,1,7.7-7.664A7.682,7.682,0,0,1,310.789,317.49Zm.059-13.516a5.842,5.842,0,1,0,5.81,5.845A5.851,5.851,0,0,0,310.848,303.973Z" transform="translate(-242.925 -242.952)" fill="#179bd7"/>
    <path id="Path_7355" data-name="Path 7355" d="M234.886,277.615c-.417,0-.836.009-1.254,0a.934.934,0,0,1-1.013-.923.923.923,0,0,1,.976-.9q1.283-.023,2.565,0a.918.918,0,0,1,.956.922.937.937,0,0,1-.977.9c-.038,0-.076,0-.113,0h-1.14Z" transform="translate(-181.298 -219.913)" fill="#179bd7"/>
    <path id="Path_7356" data-name="Path 7356" d="M234.9,207.5c.436,0,.874-.016,1.31,0a.9.9,0,0,1,.048,1.8c-.929.035-1.861.034-2.791,0a.9.9,0,0,1,.066-1.8c.455-.02.912,0,1.367,0Z" transform="translate(-181.298 -160.238)" fill="#179bd7"/>
  </g>
</svg>
