<svg xmlns="http://www.w3.org/2000/svg" width="49.995" height="47.102" viewBox="0 0 49.995 47.102">
  <g id="Database_Design_and_Programming-01" transform="translate(-34.51 -46.869)">
    <path id="Path_7340" data-name="Path 7340" d="M77.716,77.324c0,.909.008,1.733,0,2.557,0,.34.2.335.439.333q1.986-.005,3.972,0a2.133,2.133,0,0,1,2.363,2.358q.005,4.515,0,9.028a2.133,2.133,0,0,1-2.352,2.37q-22.644,0-45.288,0a2.127,2.127,0,0,1-2.328-2.341q-.005-4.541,0-9.08a2.123,2.123,0,0,1,2.334-2.334c1.272,0,2.544,0,3.817,0h.587V77.326H40.69c-1.29,0-2.579.007-3.869,0A2.143,2.143,0,0,1,34.516,75q-.007-4.565,0-9.131a2.149,2.149,0,0,1,2.353-2.33c1.442,0,2.885,0,4.372,0V60.646H39.329c-.894,0-1.788.013-2.682,0a2.077,2.077,0,0,1-2.126-2.121q-.021-4.746,0-9.492a2.09,2.09,0,0,1,2.268-2.137q11.038-.005,22.076,0c7.7,0,15.405.024,23.108-.021A2.339,2.339,0,0,1,84.5,49.41c-.069,2.939-.019,5.881-.021,8.822a2.152,2.152,0,0,1-2.411,2.416l-4.178.012a.621.621,0,0,0-.139.05v2.8c.164.007.345.022.526.022,1.29,0,2.579,0,3.869,0a2.148,2.148,0,0,1,2.333,2.352q.007,4.541,0,9.08a2.16,2.16,0,0,1-2.38,2.358c-1.255,0-2.511,0-3.766,0h-.624ZM59.448,75.89H81.989c.872,0,1.07-.192,1.071-1.049q0-4.41,0-8.822c0-.861-.2-1.052-1.066-1.052H37.015c-.888,0-1.07.186-1.07,1.1v8.719c0,.931.178,1.1,1.117,1.1H59.449Zm.109,5.775v-.022H37.018c-.923,0-1.073.152-1.073,1.087q0,4.384,0,8.77c0,.88.17,1.046,1.066,1.048q2.269,0,4.539,0H81.832c1.129,0,1.228-.1,1.228-1.248V82.891c0-1.156-.09-1.251-1.222-1.248-1.857,0-3.714.02-5.569.021q-8.355,0-16.711,0ZM59.53,48.308H37.146c-1.1,0-1.2.109-1.2,1.222v8.461c0,1.134.089,1.225,1.249,1.222,3.267-.006,6.532-.022,9.8-.021q17.459.007,34.917.021c1.033,0,1.151-.119,1.151-1.166V49.484c0-1.057-.12-1.175-1.2-1.175H59.53Zm16.74,12.4H42.751V63.5H76.269V60.707ZM42.733,80.149H76.251V77.361H42.733Z" transform="translate(0 0)" fill="#179bd7"/>
    <path id="Path_7341" data-name="Path 7341" d="M92.115,245.6H83.036a2.68,2.68,0,0,1-.463-.012.711.711,0,0,1,.024-1.416,2.712,2.712,0,0,1,.412-.009H101.27c.1,0,.207,0,.309,0a.719.719,0,1,1-.024,1.432c-.241.01-.482,0-.722,0H92.115Z" transform="translate(-41.939 -174.455)" fill="#179bd7"/>
    <path id="Path_7342" data-name="Path 7342" d="M371.587,226.7a3.1,3.1,0,1,1-3.075-3.093,3.092,3.092,0,0,1,3.075,3.093Zm-1.433.012a1.663,1.663,0,1,0-1.667,1.658A1.639,1.639,0,0,0,370.153,226.714Z" transform="translate(-292.578 -156.281)" fill="#179bd7"/>
    <path id="Path_7343" data-name="Path 7343" d="M283.19,226.651a3.082,3.082,0,0,1,3.187-3.027,3.1,3.1,0,1,1-3.186,3.028Zm3.073,1.733a1.663,1.663,0,1,0,.036-3.326,1.663,1.663,0,1,0-.036,3.326Z" transform="translate(-219.893 -156.293)" fill="#179bd7"/>
    <path id="Path_7344" data-name="Path 7344" d="M92.359,389.527H83.333c-.206,0-.464.057-.605-.043-.223-.16-.5-.428-.508-.654s.27-.5.488-.668c.137-.1.4-.053.6-.053q9.076,0,18.153,0c.788,0,1.147.233,1.136.728-.012.478-.354.692-1.115.692H92.357Z" transform="translate(-42.187 -301.727)" fill="#179bd7"/>
    <path id="Path_7345" data-name="Path 7345" d="M283.19,370.628a3.093,3.093,0,0,1,3.1-3.119,3.1,3.1,0,1,1-.027,6.207A3.084,3.084,0,0,1,283.19,370.628Zm1.428-.036a1.675,1.675,0,0,0,1.64,1.7,1.678,1.678,0,0,0,.047-3.356,1.676,1.676,0,0,0-1.688,1.654Z" transform="translate(-219.893 -283.523)" fill="#179bd7"/>
    <path id="Path_7346" data-name="Path 7346" d="M371.605,370.618a3.1,3.1,0,1,1-3.063-3.11,3.1,3.1,0,0,1,3.063,3.11Zm-4.759,0a1.663,1.663,0,1,0,1.655-1.685A1.675,1.675,0,0,0,366.846,370.622Z" transform="translate(-292.595 -283.521)" fill="#179bd7"/>
    <path id="Path_7347" data-name="Path 7347" d="M92.142,101.747H83.116a3.649,3.649,0,0,1-.617-.03.694.694,0,0,1,0-1.366,2.566,2.566,0,0,1,.463-.023h18.308c.12,0,.241,0,.361.007a.684.684,0,0,1,.706.677.7.7,0,0,1-.71.726c-.17.016-.344.01-.515.01H92.143Z" transform="translate(-41.931 -47.27)" fill="#179bd7"/>
    <path id="Path_7348" data-name="Path 7348" d="M283.181,82.71a3.088,3.088,0,0,1,3.086-3.08,3.1,3.1,0,1,1-3.087,3.08Zm1.428-.049a1.678,1.678,0,0,0,1.593,1.747,1.678,1.678,0,0,0,.141-3.352A1.676,1.676,0,0,0,284.609,82.662Z" transform="translate(-219.884 -28.968)" fill="#179bd7"/>
    <path id="Path_7349" data-name="Path 7349" d="M371.615,82.722a3.1,3.1,0,1,1-3.077-3.093,3.106,3.106,0,0,1,3.077,3.093Zm-1.433-.009a1.663,1.663,0,1,0-1.644,1.7A1.672,1.672,0,0,0,370.182,82.712Z" transform="translate(-292.604 -28.967)" fill="#179bd7"/>
  </g>
</svg>
