<svg xmlns="http://www.w3.org/2000/svg" width="65.365" height="65.306" viewBox="0 0 65.365 65.306">
  <g id="Definite_Marketing_Strategies-01" data-name="Definite Marketing Strategies-01" transform="translate(-33.03 -35.903)">
    <path id="Path_7306" data-name="Path 7306" d="M77.721,69.614h-2.16V48.974H38.9a3.3,3.3,0,0,0-3.612,3.635v3.926H33.03a42.155,42.155,0,0,1,.325-5.71c.464-2.485,2.751-4.026,5.433-4.028q15.706,0,31.41,0h5.315V44.622c-.648,0-1.3-.009-1.942,0a1.134,1.134,0,0,1-1.2-.7,1.1,1.1,0,0,1,.351-1.283c2.1-2.1,4.194-4.2,6.3-6.293a1.092,1.092,0,0,1,1.774.017q3.16,3.137,6.3,6.3a1.085,1.085,0,0,1,.32,1.289,1.115,1.115,0,0,1-1.15.673c-.651-.008-1.3,0-1.983,0V46.76c.195.014.39.038.585.038,1.156,0,2.311,0,3.467,0a5.444,5.444,0,0,1,5.707,5.737q.007,9.655,0,19.309v2.122H91.864V52.855c0-2.658-1.211-3.88-3.846-3.88H84.277v19.54H82.072V44.046c0-1.266.266-1.548,1.369-1.613l-3.612-3.612-3.585,3.589c.089.008.275.018.458.044a1.076,1.076,0,0,1,1.008,1.017,3.336,3.336,0,0,1,.009.408V69.616Z" fill="#fff"/>
    <path id="Path_7307" data-name="Path 7307" d="M82.932,168.979h2.176V153.153c0-1.242.316-1.552,1.573-1.554,1.927,0,3.852,0,5.779,0,.97,0,1.348.385,1.35,1.368q0,7.615,0,15.231v.771h2.176V145.563c0-1.26.31-1.578,1.549-1.578,1.972,0,3.943-.008,5.915,0a1.09,1.09,0,0,1,1.235,1.206q.009,9.077,0,18.154a.969.969,0,0,1-.042.175h-2.1V146.216h-4.36v24.932H69.93v-2.12h4.3v-.8q0-3.809,0-7.615c0-1.023.369-1.392,1.392-1.393q2.958-.007,5.915,0c1.023,0,1.393.37,1.395,1.392,0,2.764,0,5.528,0,8.37Zm8.657,0V153.833H87.321v15.146ZM76.46,161.42v7.551h4.253V161.42H76.46Z" transform="translate(-31.323 -91.745)" fill="#fff"/>
    <path id="Path_7308" data-name="Path 7308" d="M52.1,229.8v-2.12h2.417c.871-2.9,1.727-5.754,2.615-8.713h-17.7A5.466,5.466,0,0,1,33.57,213.1V187.45h2.14v22.786H66.169v2.182H35.861a3.361,3.361,0,0,0,3.323,4.366q13.6.009,27.195,0h.867v2.176H66.133c-2.063,0-4.124,0-6.187,0-.305,0-.552-.011-.666.382-.793,2.714-1.613,5.421-2.42,8.131a.539.539,0,0,0,.015.163H71.259l-1.179-3.993L72.142,223c.478,1.572.942,3.1,1.421,4.676h2.411V229.8H52.1Z" transform="translate(-0.458 -128.643)" fill="#fff"/>
    <path id="Path_7309" data-name="Path 7309" d="M283.583,290.667a13.094,13.094,0,1,1,4.623-4.628l4.115,4.108c.369.369.748.727,1.1,1.109a3.246,3.246,0,0,1-.054,4.588,3.2,3.2,0,0,1-4.532.02c-1.665-1.6-3.278-3.257-4.915-4.888-.11-.11-.23-.212-.337-.308ZM276.941,268.5a10.879,10.879,0,1,0,10.875,10.848A10.885,10.885,0,0,0,276.941,268.5Zm8.48,20.885c1.629,1.634,3.26,3.287,4.915,4.916a1.076,1.076,0,1,0,1.526-1.516c-1.628-1.658-3.283-3.29-4.921-4.925Z" transform="translate(-195.951 -195.585)" fill="#fff"/>
    <path id="Path_7310" data-name="Path 7310" d="M386.57,38.383v-2.1c3.314-.26,6.544,2.949,6.461,6.426h-2.119a4.456,4.456,0,0,0-4.342-4.331Z" transform="translate(-300.109 -0.313)" fill="#fff"/>
    <path id="Path_7311" data-name="Path 7311" d="M69.67,139.207V137.14h2.116v2.067Z" transform="translate(-31.103 -85.937)" fill="#fff"/>
    <path id="Path_7312" data-name="Path 7312" d="M98.7,136.98h2.087V139.1H98.7Z" transform="translate(-55.745 -85.801)" fill="#fff"/>
    <path id="Path_7313" data-name="Path 7313" d="M129.531,137.01v2.1H127.42v-2.1Z" transform="translate(-80.125 -85.826)" fill="#fff"/>
    <path id="Path_7314" data-name="Path 7314" d="M301.539,295.179a8.7,8.7,0,1,1-8.79,8.6A8.728,8.728,0,0,1,301.539,295.179Zm-6.615,8.719a6.527,6.527,0,1,0,6.511-6.544,6.54,6.54,0,0,0-6.511,6.544Z" transform="translate(-220.467 -220.091)" fill="#fff"/>
    <path id="Path_7315" data-name="Path 7315" d="M326.168,324.2v2.1a2.331,2.331,0,0,0-2.184,2.182h-2.075a4.206,4.206,0,0,1,4.26-4.283Z" transform="translate(-245.205 -244.724)" fill="#fff"/>
  </g>
</svg>
