<svg xmlns="http://www.w3.org/2000/svg" width="51.583" height="51.581" viewBox="0 0 51.583 51.581">
  <g id="Dynamic_Page_Creation-01" transform="translate(-28.72 -28.67)">
    <path id="Path_7362" data-name="Path 7362" d="M35.67,28.675H66.7a.847.847,0,0,0,.16.1,2.483,2.483,0,0,1,1.785,2.514c0,.228,0,.455,0,.71h8.789A2.545,2.545,0,0,1,80.3,34.84v5.943A2.568,2.568,0,0,1,77.4,43.657q-4.055,0-8.109,0h-.621V45.3h.567c2.821,0,5.641-.008,8.462,0A2.5,2.5,0,0,1,80.3,47.916q.01,3.2,0,6.4a2.51,2.51,0,0,1-2.66,2.647c-1.88.006-3.761,0-5.641,0h-.548a.848.848,0,0,0,1.3.754,2.55,2.55,0,0,1,3.278.614c.487.486.983.964,1.457,1.463a2.5,2.5,0,0,1,.472,2.886c-.387.833-.228,1.211.64,1.533a2.493,2.493,0,0,1,1.7,2.376q.016,1.184,0,2.367a2.494,2.494,0,0,1-1.7,2.379c-.869.322-1.023.691-.636,1.528a2.512,2.512,0,0,1-.476,2.888c-.559.58-1.127,1.152-1.711,1.708a2.5,2.5,0,0,1-2.847.457c-.849-.391-1.218-.242-1.537.618a2.509,2.509,0,0,1-2.421,1.714c-.739.008-1.477,0-2.216,0a2.512,2.512,0,0,1-2.523-1.779c-.273-.755-.711-.935-1.443-.592a2.513,2.513,0,0,1-3.008-.5q-.792-.774-1.567-1.567a2.49,2.49,0,0,1-.5-3c.348-.734.17-1.169-.59-1.442a2.542,2.542,0,0,1-1.79-2.523c-.007-.671,0-1.343,0-2.014a2.582,2.582,0,0,1,1.858-2.682,1.452,1.452,0,0,0,.584-.436,2.459,2.459,0,0,0-.375-1.729.265.265,0,0,0-.141-.035c-1.171,0-2.342,0-3.572,0v.641q0,7.481,0,14.96a2.52,2.52,0,0,1-2.707,2.7q-9.771,0-19.543,0a3.6,3.6,0,0,1-.7-.053,2.636,2.636,0,0,1-2.014-1.96V60.6a2.779,2.779,0,0,1,3.139-2c.6.037,1.2.006,1.857.006V31.73c0-.269,0-.538.021-.8a2.391,2.391,0,0,1,1.311-1.96c.2-.111.415-.2.622-.3Zm-.283,29.937h.635q7.453,0,14.906,0a2.618,2.618,0,0,1,2.485,1.408.616.616,0,0,0,.452.263c1.191.022,2.383.018,3.575,0a.678.678,0,0,0,.432-.162c.56-.553,1.093-1.136,1.649-1.694a2.561,2.561,0,0,1,3.427-.676.844.844,0,0,0,1.237-.783c-2.033,0-4.062,0-6.092,0a2.544,2.544,0,0,1-2.761-2.759q-.005-3.048,0-6.094A2.551,2.551,0,0,1,58.14,45.3q4.13,0,8.259,0h.566V43.659h-.612c-2.77,0-5.539.008-8.309,0a2.53,2.53,0,0,1-2.711-2.708c0-.906,0-1.813,0-2.719V37.043H35.387V58.611Zm5.768,19.972h9.666c.961,0,1.182-.223,1.182-1.189V61.486c0-.966-.222-1.191-1.175-1.191H31.6c-.991,0-1.213.22-1.213,1.21V77.363c0,.995.224,1.22,1.206,1.221h9.565ZM78.624,67.792h0V66.684a.911.911,0,0,0-.678-.94,2.505,2.505,0,0,1-1.534-3.7.91.91,0,0,0-.181-1.144c-.513-.509-1.025-1.017-1.531-1.532a.936.936,0,0,0-1.189-.177,2.5,2.5,0,0,1-3.67-1.535.916.916,0,0,0-.977-.689q-1.058.021-2.116,0a.911.911,0,0,0-.971.7,2.5,2.5,0,0,1-3.675,1.524.935.935,0,0,0-1.188.188q-.737.757-1.5,1.5a.932.932,0,0,0-.2,1.184,2.507,2.507,0,0,1-1.554,3.7.9.9,0,0,0-.662.949c.012.722.008,1.444,0,2.166a.9.9,0,0,0,.677.934,2.511,2.511,0,0,1,1.533,3.708.915.915,0,0,0,.183,1.144q.771.76,1.531,1.532a.913.913,0,0,0,1.142.2A2.5,2.5,0,0,1,65.8,77.94a.872.872,0,0,0,.866.638c.772,0,1.545.006,2.317,0a.817.817,0,0,0,.845-.654,2.556,2.556,0,0,1,3.747-1.545.82.82,0,0,0,1.061-.139q.828-.809,1.638-1.637a.873.873,0,0,0,.159-1.063c-.786-1.744-.239-3.044,1.572-3.761a.863.863,0,0,0,.617-.829c.009-.385,0-.772,0-1.158ZM67.829,41.979H77.5c.863,0,1.128-.251,1.13-1.094q.007-3.072,0-6.144c0-.792-.273-1.071-1.054-1.071q-9.772-.005-19.542,0c-.755,0-1.021.283-1.022,1.046q-.005,3.072,0,6.144c0,.879.248,1.119,1.148,1.119h9.67Zm.027,5h-9.72c-.89,0-1.123.241-1.124,1.141q0,3,0,5.994c0,.934.229,1.169,1.148,1.169H77.5c.884,0,1.131-.248,1.133-1.141q.005-3,0-5.994c0-.928-.238-1.168-1.156-1.169Q72.666,46.982,67.856,46.983ZM35.373,35.3H55.31c.008-.159.02-.288.021-.42.023-1.932.987-2.879,2.935-2.879h8.681c.155-1.387-.082-1.656-1.391-1.656H36.765c-.184,0-.37-.007-.553.007a.8.8,0,0,0-.831.827c-.016,1.357-.006,2.715-.006,4.121Z" transform="translate(0 0)" fill="#179bd7"/>
    <path id="Path_7363" data-name="Path 7363" d="M116.9,114.42v11.589H100.32V114.42Zm-1.685,9.927V116.1H101.966v8.242h13.246Z" transform="translate(-63.24 -75.737)" fill="#179bd7"/>
    <path id="Path_7364" data-name="Path 7364" d="M100.39,256.84h16.563v1.609H100.39Z" transform="translate(-63.301 -201.528)" fill="#179bd7"/>
    <path id="Path_7365" data-name="Path 7365" d="M142.078,228.38v1.613H128.83V228.38Z" transform="translate(-88.421 -176.391)" fill="#179bd7"/>
    <path id="Path_7366" data-name="Path 7366" d="M101.969,228.43v1.61H100.38v-1.61Z" transform="translate(-63.293 -176.435)" fill="#179bd7"/>
    <path id="Path_7367" data-name="Path 7367" d="M62.375,327.165H64V317.24h5.015v9.909h1.646V313.91h4.993v14.924H57.4v-8.259a3.668,3.668,0,0,1,.377-.042c1.377,0,2.753.012,4.13-.01.388-.006.479.126.475.493-.016,1.83-.007,3.659-.007,5.49Zm11.6,0v-11.58H72.394v11.58ZM65.748,318.9v8.252h1.568V318.9H65.748Zm-5.075,8.262v-4.916H59.079v4.916Z" transform="translate(-25.331 -251.934)" fill="#179bd7"/>
    <path id="Path_7368" data-name="Path 7368" d="M314.477,306.985a7.479,7.479,0,1,1-7.5-7.475A7.476,7.476,0,0,1,314.477,306.985Zm-4.982,0a2.5,2.5,0,1,0-2.494,2.5A2.519,2.519,0,0,0,309.5,306.985Zm1.023-2.312c.174.443.327.865.51,1.275a.4.4,0,0,0,.283.2c.464.021.928.009,1.578.009-.4-.957-.754-1.8-1.131-2.7Zm1.084,5.858a5.637,5.637,0,0,0,1.136-2.716c-.362,0-.677-.012-.99,0-.225.01-.581-.02-.652.1a9.567,9.567,0,0,0-.573,1.37c-.011.027.043.085.075.123.321.361.643.719,1,1.12Zm-6.817.017-1.246,1.241,2.631,1.079c0-.64.012-1.106-.009-1.571a.4.4,0,0,0-.2-.28c-.41-.183-.833-.336-1.172-.469Zm3.041,2.181a5.589,5.589,0,0,0,2.694-1.124c-.382-.354-.719-.675-1.067-.984-.2-.174-1.61.406-1.621.673C307.813,311.756,307.825,312.221,307.825,312.73Zm-4.348-10.515,1.222,1.255,1.453-.607v-1.749Zm-1.167,1.329a5.579,5.579,0,0,0-1.047,2.6h1.609q.314-.748.594-1.419C303.092,304.342,302.722,303.965,302.311,303.544Zm8.128-1.234a5.535,5.535,0,0,0-2.592-1.063v1.607c.489.216.989.639,1.391.559.429-.084.765-.642,1.14-.994A.766.766,0,0,0,310.439,302.31Zm-9.189,5.53a5.578,5.578,0,0,0,1.136,2.658c.343-.37.653-.677.926-1.013a.507.507,0,0,0,.078-.417c-.146-.406-.336-.8-.523-1.227h-1.618Z" transform="translate(-239.18 -239.215)" fill="#179bd7"/>
    <path id="Path_7369" data-name="Path 7369" d="M285.46,85.89H290.4v4.932H285.46Zm1.666,3.266h1.588V87.567h-1.588Z" transform="translate(-226.762 -50.539)" fill="#179bd7"/>
    <path id="Path_7370" data-name="Path 7370" d="M342.35,116.024v-1.6h11.6v1.6Z" transform="translate(-277.009 -75.737)" fill="#179bd7"/>
    <path id="Path_7371" data-name="Path 7371" d="M378.837,85.98v1.609c-.169.011-.316.028-.464.028-2.449,0-4.9-.008-7.346.01-.406,0-.534-.124-.5-.515.029-.363.006-.731.006-1.133h8.3Z" transform="translate(-301.89 -50.618)" fill="#179bd7"/>
    <path id="Path_7372" data-name="Path 7372" d="M342.39,87.61v-1.6H344v1.6Z" transform="translate(-277.044 -50.645)" fill="#179bd7"/>
    <path id="Path_7373" data-name="Path 7373" d="M285.32,204.859V199.93h4.953v4.929ZM287,203.183h1.586v-1.576H287Z" transform="translate(-226.638 -151.263)" fill="#179bd7"/>
    <path id="Path_7374" data-name="Path 7374" d="M342.35,230.017V228.41h11.6v1.607Z" transform="translate(-277.009 -176.417)" fill="#179bd7"/>
    <path id="Path_7375" data-name="Path 7375" d="M370.99,199.85h8.256v1.629H370.99Z" transform="translate(-302.305 -151.192)" fill="#179bd7"/>
    <path id="Path_7376" data-name="Path 7376" d="M342.48,199.86h1.606v1.627H342.48Z" transform="translate(-277.124 -151.201)" fill="#179bd7"/>
    <path id="Path_7377" data-name="Path 7377" d="M128.88,57.32h1.57v1.62h-1.57Z" transform="translate(-88.465 -25.305)" fill="#179bd7"/>
    <path id="Path_7378" data-name="Path 7378" d="M158.884,57.54v1.584h-1.6V57.54Z" transform="translate(-113.549 -25.499)" fill="#179bd7"/>
    <path id="Path_7379" data-name="Path 7379" d="M101.943,57.43v1.61H100.35V57.43Z" transform="translate(-63.266 -25.402)" fill="#179bd7"/>
  </g>
</svg>
