<svg xmlns="http://www.w3.org/2000/svg" width="68.176" height="69.666" viewBox="0 0 68.176 69.666">
  <g id="Engaging___Intracting-01" data-name="Engaging_&amp;_Intracting-01" transform="translate(-18.272 -15.068)">
    <path id="Path_7258" data-name="Path 7258" d="M157.2,15.141a24.206,24.206,0,0,1,4.464.8c10.026,2.816,16.277,9.361,18.9,19.4a31.886,31.886,0,0,1,.684,8.776,7.874,7.874,0,0,0,.924,4.031c.814,1.511,1.455,3.115,2.239,4.643a4,4,0,0,1-3.383,5.9c-1.355.006-1.984.772-1.99,2.148-.012,2.559.008,5.119-.008,7.68-.017,2.745-1.557,4.918-4.054,5.383a12.38,12.38,0,0,1-3.56-.112c-1.8-.2-3.582-.524-5.377-.759a1.52,1.52,0,0,0-1.918,1.672c-.009.723,0,1.445,0,2.21.428.067.826.111,1.217.194a3.208,3.208,0,0,1,2.61,2.777,7.179,7.179,0,0,1-.125,2.479,3.283,3.283,0,0,1-3.405,2.373q-8.8,0-17.6-.009-4.35,0-8.7-.008a3.467,3.467,0,0,1-3.756-3.772c0-.951-.006-1.9,0-2.854a3.413,3.413,0,0,1,3.615-3.551h.491V72.226c0-.272-.015-.545.009-.816a1.045,1.045,0,0,1,1.042-1.039,1.007,1.007,0,0,1,.983,1.08c.02.86.006,1.721.008,2.582v.734l21.572,1.994c0-.734,0-1.405,0-2.076A3.519,3.519,0,0,1,166.238,71c2.313.287,4.613.67,6.923.98a3.2,3.2,0,0,0,3.828-3.333c.029-1.993.006-3.987.008-5.98,0-.679-.014-1.359,0-2.038a3.909,3.909,0,0,1,3.741-3.984c1.9-.175,2.582-1.375,1.756-3.114-.9-1.9-1.852-3.779-2.692-5.707a7.037,7.037,0,0,1-.545-2.347c-.146-2.483,0-5-.325-7.456a22.865,22.865,0,0,0-11.34-17.4c-7.788-4.637-15.8-4.595-23.8-.366a2.471,2.471,0,0,1-.743.311.908.908,0,0,1-1.062-.649.949.949,0,0,1,.509-1.259c1.551-.734,3.091-1.527,4.692-2.1a18.649,18.649,0,0,1,4.873-1.253,15.517,15.517,0,0,1,1.6-.158,22.323,22.323,0,0,1,3.535,0Zm-5.989,67.541V82.7q6.587,0,13.175,0A1.43,1.43,0,0,0,166,81.177c.074-1.388-.334-2.026-1.408-2.133-1.981-.2-3.964-.372-5.948-.554q-6.286-.576-12.572-1.153c-2.635-.243-5.271-.5-7.908-.737-1.188-.1-1.754.453-1.759,1.669,0,.86,0,1.721,0,2.581,0,1.367.465,1.83,1.839,1.83q6.487,0,12.972,0Z" transform="translate(-98.455)" fill="#fff"/>
    <path id="Path_7259" data-name="Path 7259" d="M73.5,104.662a22.735,22.735,0,0,1-3.308-.229,4.994,4.994,0,0,1-3.9-3.831,1.423,1.423,0,0,0-.55-.741,2.356,2.356,0,0,1-1.209-2.067c-.009-1.631-.053-3.264.026-4.891a3.067,3.067,0,0,1,.627-1.583.892.892,0,0,0,.17-.958,20.768,20.768,0,0,0-3.68-6.68,14.815,14.815,0,0,1-3.515-10.828,15.235,15.235,0,0,1,30.224-1.511,14.358,14.358,0,0,1-3.112,12.033,21.8,21.8,0,0,0-3.925,7,.911.911,0,0,0,.2.951,3.04,3.04,0,0,1,.626,1.519c.077,1.672.041,3.351.021,5.028a2.367,2.367,0,0,1-.934,1.811,1.607,1.607,0,0,0-.519.793,5.171,5.171,0,0,1-4.93,4.11c-.77.024-1.54,0-2.31,0,0,.024,0,.049,0,.071Zm5.681-14.119c.914-3.466,2.872-6.335,5-9.152a12.225,12.225,0,0,0,2.26-9.252,13.2,13.2,0,1,0-23.525,9.811,20.267,20.267,0,0,1,1.867,2.581c1.054,1.935,1.99,3.937,3.024,6.012H79.177Zm-5.8,7.542c2.013,0,4.027-.021,6.039.012.606.011.779-.191.763-.781-.038-1.356-.024-2.714,0-4.071.006-.453-.118-.647-.611-.646q-6.209.023-12.419,0c-.453,0-.586.17-.58.6.018,1.4.032,2.805-.006,4.207-.015.562.2.688.711.684,2.035-.021,4.072-.009,6.108-.009Zm-5.032,2.07a2.97,2.97,0,0,0,2.716,2.377q2.445.068,4.891,0a2.844,2.844,0,0,0,2.67-2.376H68.344Z" transform="translate(-33.79 -36.966)" fill="#fff"/>
    <path id="Path_7260" data-name="Path 7260" d="M60.753,238.55a2.927,2.927,0,0,1-.327.718A20.805,20.805,0,0,1,58.9,240.8a1,1,0,0,1-1.416-1.4,10.019,10.019,0,0,1,1.542-1.514,1.375,1.375,0,0,1,1.11-.094c.269.094.427.5.621.758Z" transform="translate(-33.032 -188.833)" fill="#fff"/>
    <path id="Path_7261" data-name="Path 7261" d="M240.5,58.662c-.1.295-.114.506-.225.624a21.482,21.482,0,0,1-1.77,1.759.854.854,0,0,1-1.22-.175.909.909,0,0,1-.064-1.291,10.731,10.731,0,0,1,1.589-1.563,1.277,1.277,0,0,1,1.056-.084c.276.106.444.5.633.731Z" transform="translate(-185.49 -36.291)" fill="#fff"/>
    <path id="Path_7262" data-name="Path 7262" d="M20.25,153.643c-.339,0-.679.017-1.016,0a.942.942,0,0,1-.958-.949.916.916,0,0,1,.857-1.04,12.877,12.877,0,0,1,2.231-.008.948.948,0,0,1,.9,1.013.979.979,0,0,1-.995.987c-.337.021-.677,0-1.016,0Z" transform="translate(0 -115.79)" fill="#fff"/>
    <path id="Path_7263" data-name="Path 7263" d="M274.446,153.65c-.339,0-.679.015-1.016,0a.945.945,0,0,1-.971-.939.913.913,0,0,1,.845-1.05,12.1,12.1,0,0,1,2.3,0,.912.912,0,0,1,.835,1.056.942.942,0,0,1-.975.933c-.339.017-.677,0-1.016,0Z" transform="translate(-215.575 -115.798)" fill="#fff"/>
    <path id="Path_7264" data-name="Path 7264" d="M153.76,20.277c0,.36.026.723-.008,1.081a.9.9,0,0,1-.928.892.89.89,0,0,1-1.039-.838,13.748,13.748,0,0,1,0-2.292.891.891,0,0,1,1.047-.829.917.917,0,0,1,.917.908c.032.358.006.72,0,1.081Z" transform="translate(-113.195 -2.73)" fill="#fff"/>
    <path id="Path_7265" data-name="Path 7265" d="M58.832,56.63a3.8,3.8,0,0,1,.759.393c.5.457.984.933,1.438,1.434a.979.979,0,0,1-.023,1.4.965.965,0,0,1-1.4.017,9.812,9.812,0,0,1-1.416-1.449,1.379,1.379,0,0,1-.155-1.1c.1-.287.518-.465.8-.694Z" transform="translate(-33.679 -35.249)" fill="#fff"/>
    <path id="Path_7266" data-name="Path 7266" d="M237.529,237.441c.369-.036.509.027,1.053.45a7.4,7.4,0,0,1,1.091,1.069,1.009,1.009,0,1,1-1.435,1.419,11.886,11.886,0,0,1-1.37-1.314.813.813,0,0,1-.238-.825,1.4,1.4,0,0,1,.9-.8Z" transform="translate(-185.156 -188.588)" fill="#fff"/>
    <path id="Path_7267" data-name="Path 7267" d="M100.143,97.951c.219-2.028,1.227-2.935,3.132-2.863,1.759.067,2.518,1.086,2.726,2.805.261-.167.424-.261.576-.371a2.422,2.422,0,0,1,3.175.163c.866.767,1.558,1.621,1.218,2.881a3.422,3.422,0,0,1-.512,1.016c-.275.4-.2.527.272.6a2.339,2.339,0,0,1,2.168,1.932c.22,1.229.193,2.444-.971,3.237a8.487,8.487,0,0,1-1.691.671c1.05,1.34,1.17,2.641-.125,3.957-1.312,1.334-2.634,1.247-4.147.082-.077,1.091-.328,2.013-1.218,2.423a4.937,4.937,0,0,1-2.02.393c-1.431,0-2.058-.691-2.622-2.745-1.76,1.419-3.272.992-4.517-.684-.882-1.189-.541-2.336.428-3.509-2.281-.232-3.079-1.546-2.819-3.568.191-1.487,1.206-2.139,2.795-2.277-1.533-1.9-1-3.425.729-4.649,1.154-.816,2.272-.45,3.422.507Zm8.945,12.076a4.286,4.286,0,0,1-.351-.519,4.4,4.4,0,0,1-.469-1.177,2.2,2.2,0,0,1,2.01-2.5c.472-.065.7-.254.668-.738-.026-.374.084-.86-.488-.873a2.315,2.315,0,0,1-1.627-3.854c.395-.418.024-.68-.24-.961s-.5-.451-.917-.149a2.24,2.24,0,0,1-3.776-1.536c-.084-.523-.377-.592-.808-.583-.409.009-.737.012-.823.559A2.244,2.244,0,0,1,98.5,99.262c-.45-.33-.682-.128-.971.167s-.527.509-.2.969a2.25,2.25,0,0,1-1.537,3.785c-.541.082-.58.38-.585.8s.043.734.565.828c2.043.372,2.775,2.114,1.571,3.762-.331.453-.12.679.169.969s.533.494.98.179a2.256,2.256,0,0,1,3.772,1.572c.077.5.358.568.756.564s.851.033.852-.519a2.314,2.314,0,0,1,3.825-1.621.7.7,0,0,0,.652.068,4.429,4.429,0,0,0,.74-.764Z" transform="translate(-63.504 -67.862)" fill="#fff"/>
    <path id="Path_7268" data-name="Path 7268" d="M135.25,140.694a3.535,3.535,0,0,1,7.071-.056,3.535,3.535,0,1,1-7.071.056Zm2.043-.039a1.5,1.5,0,0,0,1.493,1.513,1.529,1.529,0,0,0,1.493-1.522,1.492,1.492,0,0,0-1.469-1.463,1.471,1.471,0,0,0-1.519,1.47Z" transform="translate(-99.209 -103.53)" fill="#fff"/>
  </g>
</svg>
