<svg xmlns="http://www.w3.org/2000/svg" width="69.667" height="65.306" viewBox="0 0 69.667 65.306">
  <g id="Layer_4" transform="translate(-7.457 -32.662)">
    <path id="Path_7281" data-name="Path 7281" d="M77.1,199.787c-.643,1.944-2.016,2.6-4,2.6q-31.006-.043-62.013-.014c-1.887,0-3.2-.858-3.488-2.473a13.338,13.338,0,0,1-.086-3.116c.029-.6.543-.829,1.144-.829,1.387.014,2.759,0,4.26,0V159.318c0-3.073,1.73-4.818,4.789-4.818H29.735a2.966,2.966,0,0,1,.872.086.9.9,0,0,1,.672,1.044.929.929,0,0,1-.872.886,5.5,5.5,0,0,1-.686.014H17.685c-1.9,0-2.745.843-2.745,2.73V195.9H18.4a8.55,8.55,0,0,1,2.888-7.576,8.326,8.326,0,0,1,7.062-2.059c.329.043.558.086.8-.272a6.352,6.352,0,0,1,7.491-2.8c.071.014.129.014.272.043a5.544,5.544,0,0,1,2.63-3.974,5.425,5.425,0,0,1,3.4-.715c2.316.229,4.1,1.973,4.717,4.675.229-.057.457-.114.686-.157a6.391,6.391,0,0,1,6.976,2.773c.214.329.4.515.843.443a8.634,8.634,0,0,1,9.992,9.306,2.12,2.12,0,0,0-.014.329h3.474V159.189a2.337,2.337,0,0,0-2.645-2.63H54.809a5.217,5.217,0,0,1-.672-.014.905.905,0,0,1-.829-.843.922.922,0,0,1,.629-1.072,2.919,2.919,0,0,1,.872-.1H66.846c3.1,0,4.832,1.744,4.832,4.846v36.6c1.372,0,2.7.029,4.017-.014a1.429,1.429,0,0,1,1.43.7C77.1,197.7,77.1,198.744,77.1,199.787ZM9.536,198.015c-.114,2.073.114,2.316,2.073,2.316H73.222a6.45,6.45,0,0,0,.743-.014,1.173,1.173,0,0,0,1.086-1.115c.029-.372,0-.758,0-1.186H27.391c-.9,0-1.4-.372-1.4-1.029s.486-1.015,1.4-1.015H64c1.029-4.617-3.531-8.792-8.148-7.562-1.258.343-1.372.257-1.93-.886a4.393,4.393,0,0,0-6.8-1.6.994.994,0,0,1-1.258.086,1.007,1.007,0,0,1-.4-1.2,3.293,3.293,0,0,0,.086-.4,3.167,3.167,0,0,0-1.472-3.331,3.274,3.274,0,0,0-3.7.071,3.151,3.151,0,0,0-1.344,3.388c.114.572.214,1.086-.329,1.458s-1.015.1-1.487-.243a4.353,4.353,0,0,0-6.633,1.858c-.415.972-.715,1.1-1.744.815a6.454,6.454,0,0,0-5.9,1.144,6.328,6.328,0,0,0-2.344,6.361c.686,0,1.387-.014,2.087,0a.946.946,0,0,1,.972.929,1,1,0,0,1-.9,1.086,5.329,5.329,0,0,1-.672.014H10.308A3.325,3.325,0,0,1,9.536,198.015Z" transform="translate(0 -104.421)" fill="#fff"/>
    <path id="Path_7282" data-name="Path 7282" d="M171.831,65.4a2.4,2.4,0,0,0-.643,2.6,13.925,13.925,0,0,1,.586,2.3c.214.943-.172,1.458-1.144,1.472-2.759.014-5.532.014-8.291,0-1,0-1.372-.529-1.144-1.53a13.274,13.274,0,0,1,.558-2.159,2.374,2.374,0,0,0-.643-2.687c-1.187.672-2.387,1.344-3.574,2.016-1.129.629-2.244,1.272-3.374,1.9-1.044.572-1.773.143-1.787-1.072-.014-.843.014-1.673,0-2.516a4.752,4.752,0,0,1,1.187-3.3c1.444-1.687,2.83-3.417,4.274-5.1a1.289,1.289,0,0,0,.315-1.1c-1.129-8.849,1.244-16.582,7.448-23.058a1.063,1.063,0,0,1,1.8-.014,26.564,26.564,0,0,1,7.548,15.753,27.594,27.594,0,0,1-.1,7.519,1.212,1.212,0,0,0,.286.843c1.387,1.7,2.788,3.4,4.217,5.061a5.059,5.059,0,0,1,1.287,3.545c-.029.815,0,1.63-.014,2.444-.014,1.158-.772,1.587-1.773,1.015-2.116-1.187-4.217-2.387-6.333-3.574C172.289,65.633,172.06,65.518,171.831,65.4Zm-5.389-.029c.772,0,1.544-.029,2.316.014a.952.952,0,0,0,1.015-.572,25.445,25.445,0,0,0,1.958-20.857c-.143-.457-.386-.558-.829-.558-2.945.014-5.89.029-8.834,0a.756.756,0,0,0-.858.629,25.506,25.506,0,0,0,1.9,20.671,1.1,1.1,0,0,0,1.229.686C165.041,65.332,165.741,65.375,166.442,65.375Zm.043-30.22a23.575,23.575,0,0,0-4.16,6.176h8.32A23.93,23.93,0,0,0,166.485,35.155Zm-7.762,24.3c-.172.186-.329.343-.457.5-.972,1.158-1.9,2.373-2.931,3.474a3.813,3.813,0,0,0-.872,3.359c1.958-1.115,3.874-2.187,5.732-3.245C159.694,62.145,159.223,60.844,158.722,59.457Zm14.038,4.1c1.887,1.058,3.788,2.13,5.732,3.231a3.726,3.726,0,0,0-.843-3.3c-.686-.715-1.287-1.515-1.93-2.287-.486-.586-.972-1.158-1.5-1.773C173.732,60.858,173.261,62.187,172.76,63.56Zm-3.245,6.161c-.172-.729-.3-1.372-.5-1.987-.043-.143-.329-.286-.5-.3-1.358-.029-2.716-.029-4.06,0-.172,0-.443.114-.486.229-.2.658-.343,1.329-.529,2.059Z" transform="translate(-124.198)" fill="#fff"/>
    <path id="Path_7283" data-name="Path 7283" d="M225.3,140.277a4.289,4.289,0,1,1,4.26-4.274A4.237,4.237,0,0,1,225.3,140.277Zm.014-2.03a2.239,2.239,0,0,0,2.23-2.259,2.244,2.244,0,1,0-4.489.043A2.218,2.218,0,0,0,225.317,138.247Z" transform="translate(-183.016 -84.879)" fill="#fff"/>
  </g>
</svg>
