<svg xmlns="http://www.w3.org/2000/svg" width="47.073" height="47.079" viewBox="0 0 47.073 47.079">
  <g id="modify-01" transform="translate(-23.41 -23.41)">
    <path id="Path_7405" data-name="Path 7405" d="M66.995,23.41a4.3,4.3,0,0,1,2.529,1.366,4.183,4.183,0,0,1,.966,2.844q0,15.49,0,30.981c0,2.6.01,5.21,0,7.814a3.752,3.752,0,0,1-2.228,3.657,4.572,4.572,0,0,1-1.772.389c-1.991.047-3.984.014-5.975.022A1.117,1.117,0,0,1,59.531,70c-.691-.937-1.4-1.861-2.095-2.794a.846.846,0,0,1,0-1.277,8.826,8.826,0,0,0,1.579-3.085,1.053,1.053,0,0,1,.923-.827c.753-.13,1.5-.324,2.247-.465a.489.489,0,0,0,.465-.557q-.012-1.494,0-2.988a.488.488,0,0,0-.464-.558c-.782-.147-1.557-.328-2.336-.485a1.013,1.013,0,0,1-.8-.72c-.387-1.012-.808-2.011-1.247-3a1.018,1.018,0,0,1,.068-1.077c.443-.662.858-1.342,1.307-2a.448.448,0,0,0-.042-.675q-1.1-1.077-2.179-2.176a.433.433,0,0,0-.641-.062c-.659.446-1.339.861-2,1.307a1.065,1.065,0,0,1-1.156.062c-.956-.437-1.934-.835-2.917-1.207a1.041,1.041,0,0,1-.758-.822c-.152-.78-.348-1.553-.494-2.334-.058-.311-.179-.452-.508-.447-1.026.012-2.053.01-3.079,0a.424.424,0,0,0-.491.41c-.156.811-.355,1.614-.516,2.424a.982.982,0,0,1-.707.759c-.995.388-1.987.785-2.961,1.222a1.041,1.041,0,0,1-1.117-.048c-.648-.435-1.319-.838-1.961-1.281a.5.5,0,0,0-.752.055q-1.038,1.074-2.11,2.115a.468.468,0,0,0-.059.71c.452.656.865,1.336,1.307,2a1.02,1.02,0,0,1,.054,1.078c-.433.976-.852,1.96-1.228,2.959a1.065,1.065,0,0,1-.873.762c-.751.142-1.494.327-2.247.467a.508.508,0,0,0-.494.58q.02,1.47,0,2.942c-.006.382.161.536.524.6.752.135,1.5.317,2.247.464a.983.983,0,0,1,.834.744A9.276,9.276,0,0,0,36.5,65.976a.776.776,0,0,1-.047,1.181c-.379.3-.818.219-1.194-.237a9.789,9.789,0,0,1-1.7-3.077.553.553,0,0,0-.472-.413c-.631-.123-1.259-.257-1.886-.4a1.635,1.635,0,0,1-1.459-1.6,36.374,36.374,0,0,1,0-3.856,1.646,1.646,0,0,1,1.486-1.622c.6-.131,1.2-.261,1.8-.377a.628.628,0,0,0,.543-.456c.252-.7.579-1.38.844-2.079a.694.694,0,0,0-.036-.527c-.324-.555-.692-1.083-1.035-1.628a1.728,1.728,0,0,1,.191-2.346c.8-.849,1.62-1.673,2.467-2.471a1.739,1.739,0,0,1,2.348-.2c.53.336,1.042.7,1.587,1.013a.821.821,0,0,0,.613.039c.7-.256,1.4-.543,2.075-.854A.754.754,0,0,0,43,45.646c.175-.649.287-1.315.446-1.969a1.7,1.7,0,0,1,1.692-1.413q1.814-.045,3.631,0a1.691,1.691,0,0,1,1.7,1.4c.16.669.283,1.348.454,2.015a.646.646,0,0,0,.321.374q1.088.484,2.2.908a.645.645,0,0,0,.493-.043c.565-.336,1.106-.714,1.664-1.064a1.724,1.724,0,0,1,2.275.184q1.308,1.224,2.535,2.533a1.711,1.711,0,0,1,.168,2.308c-.335.531-.672,1.06-1.028,1.578a.551.551,0,0,0-.05.621c.311.681.6,1.373.86,2.074a.568.568,0,0,0,.476.41c.615.123,1.228.254,1.841.388a1.627,1.627,0,0,1,1.483,1.571,35.9,35.9,0,0,1,0,3.945,1.608,1.608,0,0,1-1.44,1.558c-.628.138-1.26.254-1.885.406a.673.673,0,0,0-.418.274c-.469.957-.91,1.928-1.4,2.974.475.636,1.018,1.375,1.58,2.1a.507.507,0,0,0,.36.126c1.869.007,3.739.024,5.607,0a2.3,2.3,0,0,0,2.357-2.361c.005-.137,0-.276,0-.413V27.752a2.438,2.438,0,0,0-2.757-2.772H27.739a2.439,2.439,0,0,0-2.754,2.776v3.5h.667q20.2,0,40.4,0a3.211,3.211,0,0,1,.728.062.689.689,0,0,1,.552.748.716.716,0,0,1-.637.73,2.478,2.478,0,0,1-.412.027q-20.891,0-41.782.005a1.013,1.013,0,0,1-1.084-.588V26.906A12.216,12.216,0,0,1,24.236,25a3.838,3.838,0,0,1,2.678-1.585H66.995Z" transform="translate(-0.009 0)" fill="#179bd7"/>
    <path id="Path_7406" data-name="Path 7406" d="M23.41,129.995c.068-.079.121-.2.205-.23.258-.1.561-.266.787-.2s.411.36.543.6a1.21,1.21,0,0,1,.03.543q0,15.282.007,30.565a3.885,3.885,0,0,0,.164,1.218,2.16,2.16,0,0,0,1.912,1.494,5.229,5.229,0,0,0,.688.025q14.088,0,28.175,0a3.594,3.594,0,0,1,.551.019.773.773,0,0,1,.662.767.757.757,0,0,1-.629.749,2.378,2.378,0,0,1-.5.029c-9.453,0-18.906-.012-28.359.011a3.984,3.984,0,0,1-4.181-3.339c0-.026-.034-.048-.052-.072V130Z" transform="translate(0 -95.094)" fill="#179bd7"/>
    <path id="Path_7407" data-name="Path 7407" d="M189.937,302.592a7.835,7.835,0,1,1-7.811-7.863,7.859,7.859,0,0,1,7.811,7.863Zm-14.1-.033A6.266,6.266,0,1,0,182.1,296.3,6.289,6.289,0,0,0,175.836,302.558Z" transform="translate(-135.159 -243.083)" fill="#179bd7"/>
    <path id="Path_7408" data-name="Path 7408" d="M72.611,144.027c.918,0,1.837,0,2.755,0a2.524,2.524,0,0,1,.547.041.76.76,0,0,1,.04,1.468,2.33,2.33,0,0,1-.59.059q-2.755.006-5.51,0c-.092,0-.184,0-.276,0-.553-.035-.9-.339-.9-.789s.342-.768.9-.775c1.01-.015,2.02,0,3.03,0v0Z" transform="translate(-40.559 -108.063)" fill="#179bd7"/>
    <path id="Path_7409" data-name="Path 7409" d="M71.756,55.123a1.541,1.541,0,0,1-1.538,1.553,1.576,1.576,0,0,1-1.588-1.563,1.6,1.6,0,0,1,1.553-1.564,1.565,1.565,0,0,1,1.575,1.575Z" transform="translate(-40.514 -27.002)" fill="#179bd7"/>
    <path id="Path_7410" data-name="Path 7410" d="M115.5,56.668a1.558,1.558,0,0,1-1.573-1.57,1.562,1.562,0,1,1,3.123.024,1.552,1.552,0,0,1-1.55,1.545Z" transform="translate(-81.099 -26.994)" fill="#179bd7"/>
    <path id="Path_7411" data-name="Path 7411" d="M160.773,56.686a1.542,1.542,0,0,1-1.543-1.547,1.565,1.565,0,0,1,1.569-1.58,1.59,1.59,0,0,1,1.555,1.559A1.569,1.569,0,0,1,160.773,56.686Z" transform="translate(-121.686 -27.012)" fill="#179bd7"/>
    <path id="Path_7412" data-name="Path 7412" d="M387.768,144.015c.488,0,.977-.014,1.465,0,.547.019.89.34.879.792a.8.8,0,0,1-.863.766q-1.488.03-2.976,0a.768.768,0,0,1-.844-.772c-.005-.471.31-.767.873-.786C386.791,144,387.28,144.015,387.768,144.015Z" transform="translate(-324.345 -108.05)" fill="#179bd7"/>
    <path id="Path_7413" data-name="Path 7413" d="M267.062,144.017c.473,0,.947-.01,1.419,0,.572.017.892.3.9.76.01.482-.319.794-.91.8-.962.016-1.923.017-2.885,0a.805.805,0,0,1-.89-.787c0-.455.339-.747.9-.777.03,0,.061,0,.092,0h1.374Z" transform="translate(-216.18 -108.053)" fill="#179bd7"/>
    <path id="Path_7414" data-name="Path 7414" d="M327.375,144.015c.49,0,.981-.014,1.47,0,.544.019.854.3.868.749a.775.775,0,0,1-.859.81q-1.47.031-2.942,0a.8.8,0,0,1-.875-.8c.011-.456.345-.737.911-.764h1.425v0Z" transform="translate(-270.238 -108.05)" fill="#179bd7"/>
    <path id="Path_7415" data-name="Path 7415" d="M225.758,343.2a3.129,3.129,0,1,1-3.126-3.134A3.153,3.153,0,0,1,225.758,343.2Zm-1.566-.02a1.563,1.563,0,1,0-1.568,1.581,1.557,1.557,0,0,0,1.568-1.581Z" transform="translate(-175.684 -283.706)" fill="#179bd7"/>
  </g>
</svg>
