<svg id="Responsive_Fast-01" data-name="Responsive &amp; Fast-01" xmlns="http://www.w3.org/2000/svg" width="37.658" height="37.646" viewBox="0 0 37.658 37.646">
  <path id="Path_7324" data-name="Path 7324" d="M28.71,66.025V63.23c.3-.655.929-.488,1.471-.524V39.43a2.231,2.231,0,0,1,2.466-2.45H62.424a2.235,2.235,0,0,1,2.469,2.484V62.715c.243,0,.448,0,.653,0a.744.744,0,0,1,.816.825c.006.711.01,1.421,0,2.132a2.2,2.2,0,0,1-2.211,2.188c-.637.009-1.274,0-1.911,0-.092,0-.185.018-.287.028,0,1.524.009,3.018,0,4.512a2.129,2.129,0,0,1-1.159,1.951,5.57,5.57,0,0,1-.676.273H50.551c-.017-.016-.032-.041-.052-.049a2.206,2.206,0,0,1-1.732-2.4q0-1.948,0-3.9v-.422H31.082a2.2,2.2,0,0,1-2.31-1.705,1.084,1.084,0,0,0-.061-.132ZM63.4,59.756V41.422H31.673V59.775c.239,0,.458-.006.676,0a.735.735,0,1,1-.014,1.467c-.217.007-.435,0-.66,0v1.471h11.2c.647,0,.808.113,1.022.713h4.845V61.244H39.3a2.657,2.657,0,0,1-.4-.013.731.731,0,0,1,.021-1.448,2.776,2.776,0,0,1,.367-.009h9.485v-.428c0-1.458-.006-2.916.005-4.374a3.548,3.548,0,0,1,.118-.9.387.387,0,0,0-.11-.447c-.915-.905-1.822-1.818-2.734-2.726a1.972,1.972,0,0,0-.222-.16c0,.362.005.667,0,.973-.012.527-.312.866-.753.858s-.712-.328-.714-.848q-.008-1.36,0-2.72c0-.582.274-.839.869-.84q1.323,0,2.648,0c.537,0,.876.28.885.72s-.339.746-.894.749c-.307,0-.614,0-1.011,0,.988.987,1.908,1.886,2.8,2.81a.621.621,0,0,0,.781.211,1.757,1.757,0,0,1,.651-.078q4.266-.006,8.53,0a2.206,2.206,0,0,1,2.332,2.326c0,1.483,0,2.966,0,4.448v.412H63.4Zm-13.14-4.592c-.007.124-.017.218-.017.314q0,8.38,0,16.761c0,.675.252.917.943.917h8.345c.706,0,.954-.245.954-.948v-17.2c0-.726-.242-.966-.972-.966H51.472l3.179,3.183c0-.247,0-.563,0-.879.009-.514.293-.833.731-.831a.755.755,0,0,1,.735.837q.014,1.36,0,2.72a.76.76,0,0,1-.87.851q-1.342.005-2.683,0c-.54,0-.856-.285-.85-.746.006-.446.317-.718.837-.723.323,0,.645,0,.985,0l-3.281-3.286ZM63.4,39.908c.09-1.067.014-1.472-1.3-1.469q-14.689.033-29.377.012a3.544,3.544,0,0,0-.4.008.716.716,0,0,0-.652.643c-.023.263,0,.53,0,.806ZM48.735,66.392V64.921H48.3c-1.445,0-2.891,0-4.337,0a1.432,1.432,0,0,1-1.2-.516.581.581,0,0,0-.531-.225q-5.825.006-11.651,0h-.4v1.158c0,.833.212,1.047,1.038,1.047H48.735Zm13.246-2.2v2.2c.752,0,1.5.014,2.237-.007a.621.621,0,0,0,.638-.556c.049-.539.013-1.084.013-1.632H61.981Zm1.411-1.49V61.264h-1.42V62.7Z" transform="translate(-28.71 -36.98)" fill="#179bd7"/>
  <path id="Path_7328" data-name="Path 7328" d="M356.838,107.472c-.636,0-1.271,0-1.907,0a.75.75,0,0,1-.843-.721c-.009-.446.327-.746.853-.747q1.907-.005,3.814,0a.752.752,0,0,1,.844.72c.008.444-.33.745-.853.747-.636,0-1.271,0-1.907,0Z" transform="translate(-326.36 -100.118)" fill="#179bd7"/>
  <path id="Path_7329" data-name="Path 7329" d="M315.967,106.048a.733.733,0,1,1-.717.73A.742.742,0,0,1,315.967,106.048Z" transform="translate(-290.832 -100.162)" fill="#179bd7"/>
  <path id="Path_7330" data-name="Path 7330" d="M102.814,305.956a.733.733,0,1,1,.738-.71A.742.742,0,0,1,102.814,305.956Z" transform="translate(-95.833 -281.693)" fill="#179bd7"/>
  <path id="Path_7331" data-name="Path 7331" d="M334.22,436.383a.723.723,0,0,1-.71.73.734.734,0,1,1,.007-1.467.72.72,0,0,1,.7.735Z" transform="translate(-306.85 -401.673)" fill="#179bd7"/>
</svg>
