<svg xmlns="http://www.w3.org/2000/svg" width="34.105" height="34.127" viewBox="0 0 34.105 34.127">
  <g id="Layer_9" transform="translate(-33.134 -30.8)">
    <path id="Path_7332" data-name="Path 7332" d="M50.172,30.8h11.02a5.893,5.893,0,0,1,5.974,5.038,6.46,6.46,0,0,1,.07,1.1q0,10.926,0,21.844a5.9,5.9,0,0,1-4.648,5.982,7.229,7.229,0,0,1-1.536.148c-7.245.008-14.49-.016-21.735.016a5.957,5.957,0,0,1-5.958-4.383,6.907,6.907,0,0,1-.211-1.7q-.023-11-.008-21.985a5.891,5.891,0,0,1,5.022-5.989,6.062,6.062,0,0,1,1.061-.07ZM34.855,47.825V58.751a5.669,5.669,0,0,0,.078,1.029,4.032,4.032,0,0,0,3.892,3.385c7.58.047,15.161.016,22.733.016a3.553,3.553,0,0,0,1.887-.577A4.194,4.194,0,0,0,65.512,58.8q-.012-10.938,0-21.883c0-.1,0-.211-.008-.312a4.168,4.168,0,0,0-4.25-4.071q-11.078,0-22.149.008a4.464,4.464,0,0,0-1.154.148,4.165,4.165,0,0,0-3.088,4.149C34.847,40.494,34.855,44.159,34.855,47.825Z" transform="translate(0 0)" fill="#179bd7"/>
    <path id="Path_7333" data-name="Path 7333" d="M156.614,163.447h3.474a.762.762,0,0,1,.823.879.78.78,0,0,1-.865.656h-4.5c-.286,0-.572.007-.865,0a.778.778,0,0,1-.851-.837q-.01-2.71,0-5.428a.768.768,0,0,1,.76-.83.76.76,0,0,1,.774.844c.007,1.081,0,2.156,0,3.237v.265q4.688-4.688,9.384-9.391h-3.461a.772.772,0,0,1-.879-.774c0-.467.342-.767.886-.767h5.33a.784.784,0,0,1,.872.851c.007,1.8.007,3.593,0,5.393a.79.79,0,0,1-.621.837.762.762,0,0,1-.914-.781c-.007-1.081,0-2.156,0-3.237v-.272C162.851,157.2,159.726,160.335,156.614,163.447Z" transform="translate(-110.472 -110.298)" fill="#179bd7"/>
  </g>
</svg>
