<svg xmlns="http://www.w3.org/2000/svg" width="29.628" height="34.742" viewBox="0 0 29.628 34.742">
  <g id="secure-01" transform="translate(-48.729 -13.41)">
    <path id="Path_7334" data-name="Path 7334" d="M63.74,13.41a58.044,58.044,0,0,0,13.743,5.9c.763.216.865.354.864,1.14,0,2.612.04,5.226-.025,7.836a21.034,21.034,0,0,1-5.779,14.237,21.536,21.536,0,0,1-6.487,4.832,13.212,13.212,0,0,1-1.867.7,3.336,3.336,0,0,1-2.208-.283,19.327,19.327,0,0,1-5.516-3.4,21.56,21.56,0,0,1-5.974-7.994,18.975,18.975,0,0,1-1.661-6.845c-.109-3.117-.077-6.239-.1-9.359,0-.457.18-.668.668-.807a60.7,60.7,0,0,0,6.4-2.195,57.7,57.7,0,0,0,6.981-3.447l.552-.321h.407ZM76.946,25.091H76.9c0-1.357-.007-2.713.006-4.071,0-.252-.056-.371-.318-.448a58.648,58.648,0,0,1-12.777-5.437.461.461,0,0,0-.526-.01,57.02,57.02,0,0,1-12.8,5.453.358.358,0,0,0-.306.421c.009,2.159,0,4.319.007,6.479a21.253,21.253,0,0,0,1.247,7.311A20.62,20.62,0,0,0,62.369,46.372a2.518,2.518,0,0,0,2.158.07c.316-.148.648-.266.96-.423a20.632,20.632,0,0,0,8.9-8.475A18.753,18.753,0,0,0,76.768,29.7c.114-1.531.122-3.071.178-4.606Z" transform="translate(0 0)" fill="#179bd7"/>
    <path id="Path_7335" data-name="Path 7335" d="M134.018,164.221a.7.7,0,0,0,.466-.229c2.339-2.266,4.451-4.486,6.755-6.787a2.374,2.374,0,0,1,3.695,2.978,4.25,4.25,0,0,1-.311.358q-4.387,4.393-8.777,8.782a2.328,2.328,0,0,1-2.6.651,2.7,2.7,0,0,1-.93-.593q-2.123-2.075-4.2-4.193a2.358,2.358,0,0,1,.584-3.872,2.137,2.137,0,0,1,2.477.277c.881.775,2.592,2.594,2.84,2.628Zm.067,4.547c.326-.017.555-.322.768-.533q4.352-4.329,8.686-8.676a2.637,2.637,0,0,0,.231-.248.9.9,0,0,0-.476-1.438.986.986,0,0,0-1.023.364q-3.751,3.755-7.505,7.505c-.551.55-.884.553-1.428.01-.976-.975-1.946-1.954-2.929-2.922a.912.912,0,1,0-1.294,1.284q2.125,2.144,4.273,4.264a.961.961,0,0,0,.7.388Z" transform="translate(-72.855 -132.471)" fill="#179bd7"/>
    <path id="Path_7336" data-name="Path 7336" d="M87.789,108.66c0-.407,0-.813,0-1.22a.8.8,0,0,1,.647-.9c1.243-.44,2.491-.867,3.726-1.327a.75.75,0,0,1,1.106.761.838.838,0,0,1-.635.633c-1.018.366-2.034.739-3.058,1.088a.389.389,0,0,0-.321.45c.021.62.011,1.242,0,1.863a.752.752,0,0,1-.435.743.6.6,0,0,1-.75-.113,1.354,1.354,0,0,1-.274-.691c-.043-.425-.012-.857-.012-1.286Z" transform="translate(-36.183 -84.993)" fill="#179bd7"/>
    <path id="Path_7337" data-name="Path 7337" d="M299.394,333.169a.71.71,0,0,1,.569,1.147c-.339.519-.71,1.019-1.1,1.5a20.124,20.124,0,0,1-3.287,3.215.735.735,0,1,1-.934-1.116,19.538,19.538,0,0,0,3.027-2.951c.358-.45.689-.922,1.029-1.386a.793.793,0,0,1,.691-.414Z" transform="translate(-227.542 -296.29)" fill="#179bd7"/>
    <path id="Path_7338" data-name="Path 7338" d="M270.466,412.948a.737.737,0,0,1,.735.7.8.8,0,0,1-.74.784.72.72,0,0,1-.741-.717.761.761,0,0,1,.746-.761Z" transform="translate(-204.77 -370.214)" fill="#179bd7"/>
    <path id="Path_7339" data-name="Path 7339" d="M172.675,93.9a.764.764,0,0,1-.73.743.74.74,0,0,1-.735-.731.763.763,0,0,1,.711-.727.753.753,0,0,1,.755.714Z" transform="translate(-113.491 -73.924)" fill="#179bd7"/>
  </g>
</svg>
