<svg xmlns="http://www.w3.org/2000/svg" width="63.133" height="63.183" viewBox="0 0 63.133 63.183">
  <g id="Layer_3" transform="translate(-8.4 -7.8)">
    <path id="Path_7275" data-name="Path 7275" d="M8.426,69.8a1.337,1.337,0,0,1,1.3-.629q10.043.02,20.1.013h.8c-.144-1.35-.275-2.647-.406-3.944-.367-3.446-.747-6.905-1.088-10.351A2.725,2.725,0,0,1,32,51.743c.852-.013,1.716,0,2.621,0v-5.5a2.833,2.833,0,0,0-.472.157c-1.861.812-3.734,1.6-5.582,2.437a7.122,7.122,0,0,0-4.442,6.8c-.052,3.433-.013,6.866-.013,10.3a4.78,4.78,0,0,1-.013.616.872.872,0,0,1-.825.786.85.85,0,0,1-.943-.629,2.273,2.273,0,0,1-.066-.668c0-3.407-.026-6.827,0-10.233a9.038,9.038,0,0,1,5.8-8.779c1.481-.655,2.961-1.284,4.547-1.979-.236-.118-.367-.183-.5-.236a7.434,7.434,0,0,1-3.145-11.518,10.9,10.9,0,0,0,2.542-7.574c-.066-1.061-.013-2.136-.013-3.21a13.749,13.749,0,0,1,.839-4.887,14.355,14.355,0,0,1,11.924-9.6c.131-.026.275-.079.406-.118h2.712c.445.079.878.17,1.323.249A14.414,14.414,0,0,1,60.3,19.863a39.282,39.282,0,0,1,.249,6.211A10.911,10.911,0,0,0,63,33.307a7.332,7.332,0,0,1,.21,8.845,7.667,7.667,0,0,1-3.8,2.843c1.585.681,3.053,1.284,4.521,1.939A9.038,9.038,0,0,1,69.7,55.739c.026,4.258,0,8.5,0,12.762v.708c.38,0,.681-.026.983,0a.876.876,0,0,1,.852.891.9.9,0,0,1-.865.943c-.144.013-.288.013-.432.013q-30.268,0-60.536.013a1.337,1.337,0,0,1-1.3-.629A5.593,5.593,0,0,0,8.426,69.8Zm24.057-.655H60.393a.854.854,0,0,0,.066-.2q.747-6.958,1.481-13.9c.118-1.153-.157-1.454-1.31-1.454H32.274c-1.114,0-1.376.275-1.271,1.363.079.839.17,1.677.262,2.516C31.645,61.334,32.064,65.213,32.483,69.143ZM54.5,12.958c-.092.118-.144.183-.2.249a24.84,24.84,0,0,1-5.018,5.647A24.493,24.493,0,0,1,37.79,24.187c-.367.066-.577.157-.563.6.026,2.28-.026,4.56.026,6.84A6.979,6.979,0,0,0,42.8,38.443a20.409,20.409,0,0,0,4.9.223,7.015,7.015,0,0,0,6.512-4.573,10.26,10.26,0,0,0,.354-1.127,9.525,9.525,0,0,0-1.35.852c-.445.3-.917.55-1.35.865a2.5,2.5,0,0,0-.681.708,2.544,2.544,0,0,1-2.057,1.494,14.98,14.98,0,0,1-3.066-.026,2.614,2.614,0,0,1-2.214-2.765,2.682,2.682,0,0,1,2.529-2.555c.511-.026,1.035.013,1.546-.026a3.084,3.084,0,0,1,3.236,1.468,6.929,6.929,0,0,0,3.381-3.341,2.01,2.01,0,0,0,.2-.825c.026-1.35,0-2.712.013-4.075,0-.393-.131-.524-.511-.668-1.166-.446-2.293-.983-3.433-1.494a2.158,2.158,0,0,1-.5-.354.928.928,0,0,1-.3-1.337.982.982,0,0,1,1.363-.183,24.679,24.679,0,0,0,3.145,1.507,8.184,8.184,0,0,0,4.219.3A12.763,12.763,0,0,0,54.5,12.958ZM52.937,11.8a12.7,12.7,0,0,0-19.6,10.679C39.69,23.191,48.587,19.247,52.937,11.8ZM57.366,51.73h3.381a2.763,2.763,0,0,1,3.04,3.289c-.314,3.276-.694,6.538-1.035,9.8-.157,1.428-.3,2.856-.459,4.3h5.569c0-4.573.039-9.093-.013-13.614a7.079,7.079,0,0,0-4.481-6.827c-1.782-.8-3.577-1.546-5.372-2.319-.2-.079-.393-.144-.629-.236ZM41.983,40.238a.39.39,0,0,0-.092.144,6.245,6.245,0,0,1-3.931,4.35c-1.494.616-1.468.642-1.481,2.28a.6.6,0,0,0,.55.708,34.468,34.468,0,0,0,17.244,0c1.205-.3,1.166-.314,1.219-1.559a1.036,1.036,0,0,0-.8-1.205,6.439,6.439,0,0,1-4.652-4.717A24.111,24.111,0,0,1,41.983,40.238ZM33.361,24.423c0,.485-.013.9,0,1.337a12.336,12.336,0,0,1-2.9,8.6,5.568,5.568,0,0,0,.472,7.508,5.913,5.913,0,0,0,7.718.354A4.2,4.2,0,0,0,40.1,39.976a.569.569,0,0,0-.288-.76,8.925,8.925,0,0,1-4.416-7.967c-.013-2.057,0-4.114,0-6.158v-.668Zm23.232.079v.747c0,1.992.013,3.983,0,5.975a8.906,8.906,0,0,1-4.206,7.836c-.577.38-.563.694-.393,1.245.485,1.677,3.04,3.315,5.241,3.158A5.485,5.485,0,0,0,62.2,40.173a5.3,5.3,0,0,0-.734-5.9,11.821,11.821,0,0,1-2.739-8.032c.013-.59,0-1.179,0-1.756C58.008,24.5,57.353,24.5,56.593,24.5ZM36.519,51.69H55.44V49.306a37.086,37.086,0,0,1-9.473,1.35,37.317,37.317,0,0,1-9.447-1.166C36.519,50.275,36.519,50.943,36.519,51.69ZM47.644,33.4h0c-.367,0-.734-.013-1.1,0a.788.788,0,0,0-.812.825.761.761,0,0,0,.721.852,16.994,16.994,0,0,0,2.45-.013A.753.753,0,0,0,49.6,34.2a.791.791,0,0,0-.786-.8C48.417,33.372,48.037,33.4,47.644,33.4Z" transform="translate(0 -0.087)" fill="#fff"/>
    <path id="Path_7276" data-name="Path 7276" d="M20.432,7.8c.616.144,1.245.249,1.848.432a10.723,10.723,0,0,1,4.979,17.493c-.1.118-.21.249-.367.419.38.236.747.446,1.114.681a1.269,1.269,0,0,1,.694,1.494,1.245,1.245,0,0,1-1.337.943c-2.791,0-5.582.052-8.373-.013A10.851,10.851,0,0,1,8.718,20.117c-.026-.157-.079-.314-.118-.472V17.431c.039-.157.092-.314.118-.472a10.568,10.568,0,0,1,7.429-8.648,15.918,15.918,0,0,1,2.07-.511Zm4.7,19.707c-.642-1.153-.59-1.69.249-2.5.1-.1.21-.2.3-.3a8.527,8.527,0,0,0,1.913-9.29,8.466,8.466,0,0,0-7.626-5.739,8.834,8.834,0,0,0-9.46,7.809,8.669,8.669,0,0,0,6.905,9.644A60.3,60.3,0,0,0,25.136,27.507Z" transform="translate(-0.174)" fill="#fff"/>
    <path id="Path_7277" data-name="Path 7277" d="M275.585,396.123a3.512,3.512,0,0,1,0-7.023,3.554,3.554,0,0,1,3.538,3.525A3.506,3.506,0,0,1,275.585,396.123Zm.013-1.848a1.658,1.658,0,1,0-.013-3.315,1.661,1.661,0,0,0-1.625,1.677A1.614,1.614,0,0,0,275.6,394.275Z" transform="translate(-229.147 -331.338)" fill="#fff"/>
    <path id="Path_7278" data-name="Path 7278" d="M56.1,84.521a.9.9,0,0,1-.9-.943.912.912,0,0,1,.917-.878.9.9,0,0,1,.9.943A.887.887,0,0,1,56.1,84.521Z" transform="translate(-40.666 -65.086)" fill="#fff"/>
    <path id="Path_7279" data-name="Path 7279" d="M85.321,83.609a.876.876,0,0,1-.891.891.9.9,0,1,1,.891-.891Z" transform="translate(-65.26 -65.078)" fill="#fff"/>
    <path id="Path_7280" data-name="Path 7280" d="M113.519,83.622a.911.911,0,1,1-.865-.93A.895.895,0,0,1,113.519,83.622Z" transform="translate(-89.763 -65.078)" fill="#fff"/>
  </g>
</svg>
