<svg xmlns="http://www.w3.org/2000/svg" width="63.164" height="63.183" viewBox="0 0 63.164 63.183">
  <g id="Layer_2" transform="translate(-11.787 -12.6)">
    <path id="Path_7269" data-name="Path 7269" d="M73.252,75.612c-18.141.227-39.448.227-59.78,0-.908-.013-1.376-.681-1.55-1.51-.08-.387-.147-2.752-.134-3.179A7.015,7.015,0,0,1,13.713,66.3a25.1,25.1,0,0,0,1.576-2.244c-.508,0-.9.013-1.269,0A2.078,2.078,0,0,1,11.9,61.907c-.013-1.309-.013-2.618.013-3.941a1.85,1.85,0,0,1,.267-.922q4.348-6.332,8.737-12.637a3.074,3.074,0,0,1,2.5-1.349c.334-.013.681,0,1.069,0V21.19c0-1.429-.027-2.872,0-4.3A4.183,4.183,0,0,1,28.821,12.6H57.956a4.439,4.439,0,0,1,1.389.214,4.2,4.2,0,0,1,2.926,4.342V42.977a1.38,1.38,0,0,0,.361.04,3.862,3.862,0,0,1,3.714,2.017c2.792,4.141,5.677,8.216,8.523,12.33v5.05c-.561,1.576-1.87,1.737-3.42,1.576,1.2,1.737,3.38,3.66,3.42,4.943a39.8,39.8,0,0,1,0,5.05A1.761,1.761,0,0,1,73.252,75.612ZM60.134,23.153H26.6c-.013.254-.027.468-.027.681v23c0,1.763.788,2.538,2.565,2.538h28.48c1.777,0,2.565-.775,2.565-2.538v-23C60.16,23.621,60.147,23.394,60.134,23.153Zm2.137,22.1c0,.588.013,1.149,0,1.7a7.054,7.054,0,0,1-.16,1.4A4.186,4.186,0,0,1,57.8,51.487H36.649c-2.6,0-5.21.013-7.815,0a4.049,4.049,0,0,1-3.967-2.5A6.777,6.777,0,0,1,24.48,46.9a13.549,13.549,0,0,1-.013-1.643A1.923,1.923,0,0,0,22.2,46.2c-2.244,3.326-4.555,6.612-6.84,9.912-.107.16-.214.334-.361.561H71.729c-.16-.24-.267-.427-.387-.6-2.3-3.313-4.622-6.626-6.88-9.966A1.827,1.827,0,0,0,62.271,45.248Zm9.5,22.977c-.855-1.242-1.683-2.4-2.471-3.607a1.144,1.144,0,0,0-1.1-.574q-24.326.02-48.639-.027a2.653,2.653,0,0,0-2.739,1.456,30.017,30.017,0,0,1-1.857,2.739C33.937,68.225,52.8,68.225,71.769,68.225Zm.962,2.177H14.02v3.072H72.731Zm.013-11.528H14.006V61.92H72.744Zm-46.1-37.9h33.53V17.262c0-1.763-.775-2.525-2.565-2.525H29.155a4.72,4.72,0,0,0-.614.013,1.917,1.917,0,0,0-1.87,1.59C26.577,17.863,26.644,19.413,26.644,20.976Z" transform="translate(0)" fill="#fff"/>
    <path id="Path_7270" data-name="Path 7270" d="M169.5,135.708c.027-1.256,0-2.511.013-3.767,0-.788.4-1.242,1.042-1.242s1.042.481,1.055,1.256c.013,2.418-.013,4.836.013,7.254a3.126,3.126,0,0,0,5.918,1.3,3.827,3.827,0,0,0,.347-1.59c.04-2.271.013-4.555.013-6.826,0-.9.361-1.376,1.029-1.389s1.069.494,1.069,1.363c0,2.351.013,4.716,0,7.067a5.238,5.238,0,0,1-4.836,5.2,5.149,5.149,0,0,1-5.53-4.288A34.242,34.242,0,0,1,169.5,135.708Z" transform="translate(-136.636 -102.322)" fill="#fff"/>
    <path id="Path_7271" data-name="Path 7271" d="M276.033,132.927V142.4c.347,0,.681-.013,1.029,0a1.053,1.053,0,0,1,1.029,1.015,1.035,1.035,0,0,1-.989,1.055c-1.429.027-2.872.027-4.3,0a1.036,1.036,0,0,1,.053-2.071c.321-.013.641,0,1,0v-9.458c-.347,0-.695.013-1.029,0a1.015,1.015,0,0,1-1.029-1,.989.989,0,0,1,1.015-1.069c1.416-.027,2.819-.027,4.235,0a1.044,1.044,0,0,1,1.029,1.015,1.057,1.057,0,0,1-1.055,1.055C276.714,132.941,276.393,132.927,276.033,132.927Z" transform="translate(-225.277 -102.453)" fill="#fff"/>
    <path id="Path_7272" data-name="Path 7272" d="M299.453,46.319h-2.939A1.074,1.074,0,0,1,295.3,45.3a1.087,1.087,0,0,1,1.229-1.069c1.99-.013,3.967-.013,5.958,0a1.057,1.057,0,0,1,1.2,1.029c.013.655-.441,1.055-1.216,1.069C301.47,46.319,300.468,46.319,299.453,46.319Z" transform="translate(-245.638 -27.4)" fill="#fff"/>
    <path id="Path_7273" data-name="Path 7273" d="M179.017,46.362c-1.015,0-1.51-.321-1.523-1-.027-.708.508-1.082,1.523-1.082a4.719,4.719,0,0,1,.615.013,1.073,1.073,0,0,1,1.015,1.042,1.058,1.058,0,0,1-1.069,1.042C179.391,46.362,179.2,46.362,179.017,46.362Z" transform="translate(-143.57 -27.444)" fill="#fff"/>
    <path id="Path_7274" data-name="Path 7274" d="M139.861,46.327c-.187,0-.374.013-.548,0a1.036,1.036,0,0,1-.04-2.071,9.04,9.04,0,0,1,1.042-.013,1.057,1.057,0,0,1,1.109,1.069A1.023,1.023,0,0,1,140.3,46.34c-.147-.013-.294-.013-.441-.013Z" transform="translate(-109.61 -27.408)" fill="#fff"/>
  </g>
</svg>
