<svg xmlns="http://www.w3.org/2000/svg" width="77.234" height="59.8" viewBox="0 0 77.234 59.8">
  <g id="Layer_5" transform="translate(-4.918 -81)">
    <path id="Path_7284" data-name="Path 7284" d="M43.529,140.8H7.762c-2.108,0-2.705-.692-2.831-2.815a6.523,6.523,0,0,1,1.243-4.278c2.359-3.507,4.608-7.078,6.842-10.648a3.7,3.7,0,0,0,.551-1.856q.047-18.544.016-37.1a2.724,2.724,0,0,1,.991-2.532,3.346,3.346,0,0,1,1.7-.55Q43.238,80.992,70.189,81a2.564,2.564,0,0,1,2.737,2.878q0,18.686-.016,37.355a2.975,2.975,0,0,0,.551,1.777q4.2,6.063,8.368,12.174a2.034,2.034,0,0,1,.3,1.007c.047.692.016,1.4,0,2.092-.016,1.73-.786,2.5-2.517,2.517Zm35.971-5.82c-.189-.315-.315-.519-.44-.724q-3.515-5.12-7.015-10.239a1.376,1.376,0,0,0-1.29-.676q-27.486.024-54.987,0a1.244,1.244,0,0,0-1.227.645c-2.186,3.445-4.4,6.873-6.606,10.318-.126.189-.22.409-.377.692C31.575,134.981,55.467,134.981,79.5,134.981Zm-8.4-13.417c.016-.33.031-.566.031-.818V84.067c0-1.148-.157-1.305-1.305-1.305H16.7c-1.18,0-1.353.189-1.353,1.368v36.6c0,.267.031.535.047.849C33.966,121.564,52.479,121.564,71.1,121.564ZM6.787,136.805c-.016.252-.047.409-.047.582.016,1.9-.252,1.667,1.62,1.667H78.966a2.446,2.446,0,0,0,.834-.031c.2-.063.488-.3.5-.472a16.025,16.025,0,0,0,.031-1.746Z" transform="translate(0)" fill="#fff"/>
    <path id="Path_7285" data-name="Path 7285" d="M206.11,395.077h-6.7c-.645,0-1.227-.11-1.211-.912.016-.755.582-.865,1.18-.865h13.5c.645,0,1.243.157,1.227.928-.031.771-.629.865-1.274.865C210.577,395.062,208.343,395.077,206.11,395.077Z" transform="translate(-162.88 -263.18)" fill="#fff"/>
    <path id="Path_7286" data-name="Path 7286" d="M383.907,364.022h-.582a.86.86,0,0,1-.928-.865.834.834,0,0,1,.9-.9,9.576,9.576,0,0,1,1.164-.016c.582.031.991.3.975.912-.016.6-.425.865-1.022.865Z" transform="translate(-318.107 -237)" fill="#fff"/>
    <path id="Path_7287" data-name="Path 7287" d="M97.215,364.022c-.189,0-.393.016-.582,0-.535-.031-.912-.267-.944-.849s.33-.865.865-.912a9.526,9.526,0,0,1,1.164-.016c.566.031.991.267.991.9-.016.613-.409.865-.991.881Z" transform="translate(-76.493 -237)" fill="#fff"/>
    <path id="Path_7288" data-name="Path 7288" d="M220.116,364h-.582a.869.869,0,0,1-.944-.849c-.031-.582.33-.865.865-.912a6.559,6.559,0,0,1,1.243,0c.535.047.912.3.9.881-.016.613-.409.865-.991.881Z" transform="translate(-180.063 -236.98)" fill="#fff"/>
    <path id="Path_7289" data-name="Path 7289" d="M261.015,364.022h-.582a.853.853,0,0,1-.944-.849c-.031-.566.33-.865.881-.912a9.57,9.57,0,0,1,1.164-.016c.566.016.991.283.991.9-.016.613-.409.865-.991.881Z" transform="translate(-214.53 -237)" fill="#fff"/>
    <path id="Path_7290" data-name="Path 7290" d="M302.015,364.022h-.582a.853.853,0,0,1-.944-.849c-.031-.566.33-.865.881-.912a9.57,9.57,0,0,1,1.164-.016c.566.016.991.283.991.9-.016.613-.409.865-.991.881Z" transform="translate(-249.081 -237)" fill="#fff"/>
    <path id="Path_7291" data-name="Path 7291" d="M345.515,364.022h-.582a.853.853,0,0,1-.944-.849c-.031-.566.33-.865.881-.912a9.57,9.57,0,0,1,1.164-.016c.566.016.991.283.991.9-.016.613-.409.865-.991.881Z" transform="translate(-285.739 -237)" fill="#fff"/>
    <path id="Path_7292" data-name="Path 7292" d="M138.107,364.035h-.582a.86.86,0,0,1-.928-.865c-.016-.566.362-.849.9-.9a7.2,7.2,0,0,1,1.164,0c.566.031.975.283.959.912-.016.613-.44.849-1.007.849Z" transform="translate(-110.968 -237.013)" fill="#fff"/>
    <path id="Path_7293" data-name="Path 7293" d="M177.107,364.035h-.582a.86.86,0,0,1-.928-.865c-.016-.566.362-.849.9-.9a7.2,7.2,0,0,1,1.164,0c.566.031.975.283.959.912-.016.613-.44.849-1.007.849Z" transform="translate(-143.834 -237.013)" fill="#fff"/>
    <path id="Path_7294" data-name="Path 7294" d="M71.707,395.035h-.582a.86.86,0,0,1-.928-.865c-.016-.566.362-.849.9-.9a7.2,7.2,0,0,1,1.164,0c.566.031.975.283.959.912s-.44.849-1.007.849Z" transform="translate(-55.011 -263.137)" fill="#fff"/>
    <path id="Path_7295" data-name="Path 7295" d="M119.207,395.135h-.582a.86.86,0,0,1-.928-.865c-.016-.566.362-.849.9-.9a7.2,7.2,0,0,1,1.164,0c.566.031.975.283.959.912s-.44.849-1.007.849Z" transform="translate(-95.04 -263.222)" fill="#fff"/>
    <path id="Path_7296" data-name="Path 7296" d="M161.607,395.135h-.582a.86.86,0,0,1-.928-.865c-.016-.566.362-.849.9-.9a7.2,7.2,0,0,1,1.164,0c.566.031.975.283.959.912s-.44.849-1.007.849Z" transform="translate(-130.771 -263.222)" fill="#fff"/>
    <path id="Path_7297" data-name="Path 7297" d="M321.207,395.135h-.582a.86.86,0,0,1-.928-.865c-.016-.566.362-.849.9-.9a7.2,7.2,0,0,1,1.164,0c.566.031.975.283.959.912s-.44.849-1.007.849Z" transform="translate(-265.269 -263.222)" fill="#fff"/>
    <path id="Path_7298" data-name="Path 7298" d="M368.707,395.135h-.582a.86.86,0,0,1-.928-.865c-.016-.566.362-.849.9-.9a7.2,7.2,0,0,1,1.164,0c.566.031.975.283.959.912s-.44.849-1.007.849Z" transform="translate(-305.297 -263.222)" fill="#fff"/>
    <path id="Path_7299" data-name="Path 7299" d="M411.107,395.135h-.582a.86.86,0,0,1-.928-.865c-.016-.566.362-.849.9-.9a7.2,7.2,0,0,1,1.164,0c.566.031.975.283.959.912s-.44.849-1.007.849Z" transform="translate(-341.029 -263.222)" fill="#fff"/>
    <path id="Path_7300" data-name="Path 7300" d="M110.779,105.8h24.175c1.321,0,1.526.2,1.526,1.494v31.567c0,1.258-.22,1.478-1.447,1.478h-48.6c-1.2,0-1.431-.22-1.431-1.4V107.2c0-1.18.22-1.4,1.431-1.4Zm-23.97,1.825v30.86h47.846v-30.86Z" transform="translate(-67.486 -20.899)" fill="#fff"/>
    <path id="Path_7301" data-name="Path 7301" d="M191.493,162.643c.362-.724.8-1.368-.063-2.06a1.23,1.23,0,0,1,.047-1.164,18.7,18.7,0,0,1,1.982-2.045.871.871,0,0,1,1.337.031,7.2,7.2,0,0,1,.456.566c.865-.236,1.573-.409,1.479-1.51-.016-.252.519-.755.849-.8a21.5,21.5,0,0,1,2.847-.031.868.868,0,0,1,.928.959v.786c.755.409,1.384.818,2.076-.079.315-.425.881-.236,1.258.142.613.613,1.211,1.243,1.825,1.856a.91.91,0,0,1-.031,1.51c-.535.425-.33.8-.173,1.305.173.535.488.582.944.566.739-.031,1.085.362,1.085,1.07.016.834,0,1.683,0,2.517,0,.739-.33,1.18-1.117,1.117a.771.771,0,0,0-.928.6c-.157.472-.346.834.157,1.243.629.5.566,1.085,0,1.636s-1.1,1.117-1.652,1.667c-.613.613-1.022.613-1.636.016-.3-.3-.535-.488-.991-.252s-.9.362-.8,1.038c.094.771-.33,1.117-1.1,1.1-.834-.016-1.683-.016-2.517,0-.566,0-1.038-.267-.991-.786.11-1.07-.535-1.321-1.51-1.573a3.8,3.8,0,0,1-.44.6.871.871,0,0,1-1.337-.016c-.661-.645-1.305-1.305-1.95-1.966a.883.883,0,0,1,.11-1.447c.55-.425.315-.818.157-1.305-.157-.535-.488-.582-.944-.566a.926.926,0,0,1-1.085-1.054v-1.84C189.731,162.737,189.731,162.737,191.493,162.643ZM206.5,164.42c-1.132.2-1.573-.377-1.746-1.353a1.951,1.951,0,0,0-.315-.771c-.566-.818-.708-1.589.283-2.218-.283-.346-.519-.613-.8-.944a1.307,1.307,0,0,1-2.155.409,1.658,1.658,0,0,0-.613-.267c-.991-.236-1.872-.551-1.589-1.856h-1.18c.3,1.18-.362,1.573-1.305,1.762a1.93,1.93,0,0,0-.692.3c-.834.566-1.62.786-2.281-.236-.2.189-.33.3-.44.409-.126.142-.22.283-.33.425.849.975.849.975.3,2.076a3.371,3.371,0,0,0-.362.849c-.173.959-.55,1.667-1.746,1.431v1.227c1.148-.22,1.573.425,1.73,1.368a1.9,1.9,0,0,0,.283.692c.55.834.755,1.636-.3,2.312.33.315.582.566.834.786,1.007-.881,1.007-.881,2.108-.3.2.11.409.189.613.283,1.4.566,1.4.566,1.793,1.935.3-.016.629-.031,1.054-.063-.315-1.18.33-1.557,1.227-1.762a2.05,2.05,0,0,0,.849-.362c.818-.6,1.541-.629,2.171.33.315-.3.582-.535.912-.849a1.36,1.36,0,0,1-.393-2.218,1.951,1.951,0,0,0,.315-.771c.189-.959.582-1.651,1.762-1.4C206.5,165.238,206.5,164.908,206.5,164.42Z" transform="translate(-155.765 -62.863)" fill="#fff"/>
    <path id="Path_7302" data-name="Path 7302" d="M209.687,213.917c-.236.173-.409.425-.582.425a1.741,1.741,0,0,1-1.1-.236,1.072,1.072,0,0,1,0-1.022,18.756,18.756,0,0,1,2.391-2.218,1.27,1.27,0,0,1,1.164.173,22.555,22.555,0,0,1,1.856,1.825c.425.425.613.912.157,1.4-.472.488-.959.315-1.384-.126-.157-.157-.315-.283-.566-.5a14.3,14.3,0,0,1-3.334,7.078,13.806,13.806,0,0,1-19.126,1.416c-.456-.377-.849-.771-.472-1.416.315-.535.881-.55,1.51-.031a12.017,12.017,0,0,0,19.472-6.291C209.687,214.248,209.671,214.106,209.687,213.917Z" transform="translate(-154.739 -109.372)" fill="#fff"/>
    <path id="Path_7303" data-name="Path 7303" d="M151.98,139.414c.346-.236.551-.488.755-.5.33-.016.818.016.959.22a1.083,1.083,0,0,1,.063,1.022,21.054,21.054,0,0,1-2.438,2.3,1.321,1.321,0,0,1-1.18-.189,23.683,23.683,0,0,1-1.777-1.777c-.44-.44-.708-.928-.189-1.447s1.022-.236,1.447.2c.11.126.236.22.44.425.126-.5.236-.928.346-1.337a13.769,13.769,0,0,1,21.894-7.377c.9.724,1.1,1.2.708,1.7-.393.519-.865.44-1.793-.3a12.029,12.029,0,0,0-19.047,6.134C152.106,138.754,152.075,139.006,151.98,139.414Z" transform="translate(-120.484 -39.572)" fill="#fff"/>
    <path id="Path_7305" data-name="Path 7305" d="M230.23,192.845A4.215,4.215,0,1,1,226,188.6,4.186,4.186,0,0,1,230.23,192.845Zm-6.637.016a2.468,2.468,0,0,0,2.406,2.5,2.517,2.517,0,0,0,.047-5.033A2.475,2.475,0,0,0,223.593,192.86Z" transform="translate(-182.769 -90.674)" fill="#fff"/>
  </g>
</svg>
