<svg xmlns="http://www.w3.org/2000/svg" width="659" height="692" viewBox="0 0 659 692">
  <g id="Group_3026" data-name="Group 3026" transform="translate(-631 -1112)">
    <g id="Group_3025" data-name="Group 3025">
      <rect id="Rectangle_7545" data-name="Rectangle 7545" width="255" height="3" transform="translate(1290 1179) rotate(90)" fill="#49afdb"/>
      <g id="Group_3022" data-name="Group 3022" transform="translate(19)">
        <text id="UI_Design_Development" data-name="UI Design &amp;
 Development" transform="translate(935 1287)" fill="#2d2d2d" font-size="18" font-family="HKGrotesk-SemiBold, HK Grotesk" font-weight="600" letter-spacing="0.008em"><tspan x="-46.625" y="0">UI Design &amp;</tspan><tspan x="-56.203" y="21" xml:space="preserve"> Development</tspan></text>
        <g id="Group_3012" data-name="Group 3012" transform="translate(102 7)">
          <ellipse id="Ellipse_268" data-name="Ellipse 268" cx="66.5" cy="67" rx="66.5" ry="67" transform="translate(772 1105)" fill="#4e8fd1"/>
          <g id="Layer_2" transform="translate(797.092 1131)">
            <path id="Path_7269" data-name="Path 7269" d="M92.12,94.956c-23.71.3-51.557.3-78.13,0-1.187-.017-1.8-.89-2.025-1.973-.1-.506-.192-3.6-.175-4.155A9.168,9.168,0,0,1,14.3,82.786a32.806,32.806,0,0,0,2.06-2.933c-.663,0-1.17.017-1.659,0a2.716,2.716,0,0,1-2.776-2.811c-.017-1.711-.017-3.422.017-5.15a2.418,2.418,0,0,1,.349-1.2q5.683-8.276,11.418-16.516a4.017,4.017,0,0,1,3.265-1.763c.436-.017.89,0,1.4,0V23.826c0-1.868-.035-3.754,0-5.622a5.467,5.467,0,0,1,5.674-5.6H72.129a5.8,5.8,0,0,1,1.816.279c2.427.751,3.824,2.828,3.824,5.674V52.3a1.8,1.8,0,0,0,.471.052c2.2-.175,3.649.856,4.854,2.636,3.649,5.412,7.42,10.737,11.139,16.115v6.6c-.733,2.06-2.444,2.27-4.47,2.06,1.571,2.27,4.417,4.784,4.47,6.46a52.019,52.019,0,0,1,0,6.6A2.3,2.3,0,0,1,92.12,94.956ZM74.975,26.393H31.152c-.017.332-.035.611-.035.89V57.348c0,2.3,1.03,3.317,3.352,3.317H71.692c2.322,0,3.352-1.013,3.352-3.317V27.283C75.01,27,74.992,26.707,74.975,26.393Zm2.793,28.878c0,.768.017,1.5,0,2.217a9.219,9.219,0,0,1-.21,1.833,5.471,5.471,0,0,1-5.639,4.1H44.281c-3.4,0-6.809.017-10.214,0a5.292,5.292,0,0,1-5.185-3.265,8.857,8.857,0,0,1-.506-2.724,17.709,17.709,0,0,1-.017-2.147A2.513,2.513,0,0,0,25.39,56.51c-2.933,4.347-5.954,8.642-8.939,12.955-.14.21-.279.436-.471.733h74.15c-.21-.314-.349-.559-.506-.786-3-4.33-6.041-8.66-8.992-13.025A2.387,2.387,0,0,0,77.768,55.271ZM90.182,85.3c-1.117-1.624-2.2-3.143-3.23-4.714a1.5,1.5,0,0,0-1.432-.751q-31.793.026-63.569-.035c-1.694,0-2.776.4-3.579,1.9a39.232,39.232,0,0,1-2.427,3.579C40.737,85.3,65.389,85.3,90.182,85.3Zm1.257,2.846H14.705v4.016H91.439Zm.017-15.067H14.688V77.06H91.456ZM31.2,23.547H75.027V18.693c0-2.3-1.013-3.3-3.352-3.3H34.487a6.168,6.168,0,0,0-.8.017,2.505,2.505,0,0,0-2.444,2.078C31.117,19.479,31.2,21.5,31.2,23.547Z" transform="translate(-11.787 -12.6)" fill="#fff"/>
            <path id="Path_7270" data-name="Path 7270" d="M169.509,137.246c.035-1.641,0-3.282.017-4.924,0-1.03.524-1.624,1.362-1.624.821,0,1.362.629,1.379,1.641.017,3.16-.017,6.32.017,9.48a4.086,4.086,0,0,0,7.734,1.694,5,5,0,0,0,.454-2.078c.052-2.968.017-5.954.017-8.922,0-1.17.471-1.8,1.344-1.816s1.4.646,1.4,1.781c0,3.073.018,6.163,0,9.236a6.846,6.846,0,0,1-6.32,6.792,6.729,6.729,0,0,1-7.228-5.6A44.756,44.756,0,0,1,169.509,137.246Z" transform="translate(-141.956 -110.079)" fill="#fff"/>
            <path id="Path_7271" data-name="Path 7271" d="M277.333,133.565v12.379c.454,0,.89-.017,1.344,0a1.377,1.377,0,0,1,1.344,1.327,1.353,1.353,0,0,1-1.292,1.379c-1.868.035-3.754.035-5.622,0a1.354,1.354,0,0,1,.07-2.706c.419-.017.838,0,1.309,0V133.582c-.454,0-.908.017-1.344,0a1.327,1.327,0,0,1-1.344-1.309,1.292,1.292,0,0,1,1.327-1.4c1.851-.035,3.684-.035,5.535,0A1.365,1.365,0,0,1,280,132.2a1.381,1.381,0,0,1-1.379,1.379C278.223,133.582,277.8,133.565,277.333,133.565Z" transform="translate(-226.402 -110.204)" fill="#fff"/>
            <path id="Path_7272" data-name="Path 7272" d="M300.728,46.962h-3.841a1.4,1.4,0,0,1-1.589-1.327,1.421,1.421,0,0,1,1.606-1.4c2.6-.017,5.185-.017,7.787,0a1.381,1.381,0,0,1,1.571,1.344c.018.856-.576,1.379-1.589,1.4C303.365,46.962,302.055,46.962,300.728,46.962Z" transform="translate(-245.799 -38.704)" fill="#fff"/>
            <path id="Path_7273" data-name="Path 7273" d="M179.484,47c-1.327,0-1.973-.419-1.99-1.309-.035-.925.663-1.414,1.99-1.414a6.167,6.167,0,0,1,.8.017,1.4,1.4,0,0,1,1.327,1.362,1.382,1.382,0,0,1-1.4,1.362C179.973,47,179.729,47,179.484,47Z" transform="translate(-148.562 -38.745)" fill="#fff"/>
            <path id="Path_7274" data-name="Path 7274" d="M140.341,46.969c-.244,0-.489.017-.716,0a1.354,1.354,0,0,1-.052-2.706,11.815,11.815,0,0,1,1.362-.017,1.381,1.381,0,0,1,1.449,1.4,1.337,1.337,0,0,1-1.467,1.344c-.192-.017-.384-.017-.576-.017Z" transform="translate(-116.21 -38.711)" fill="#fff"/>
          </g>
        </g>
      </g>
      <g id="Group_3021" data-name="Group 3021" transform="translate(18)">
        <text id="Engaging_Interacting" data-name="Engaging &amp;
 Interacting" transform="translate(791 1287)" fill="#2d2d2d" font-size="18" font-family="HKGrotesk-SemiBold, HK Grotesk" font-weight="600" letter-spacing="0.008em"><tspan x="-89.74" y="0">Engaging &amp;</tspan><tspan x="-93.061" y="21" xml:space="preserve"> Interacting</tspan></text>
        <g id="Group_3011" data-name="Group 3011" transform="translate(103 7)">
          <g id="Ellipse_268-2" data-name="Ellipse 268" transform="translate(576 1105)" fill="#6f75d6" stroke="#e4e4e4" stroke-width="1">
            <ellipse cx="66.5" cy="67" rx="66.5" ry="67" stroke="none"/>
            <ellipse cx="66.5" cy="67" rx="66" ry="66.5" fill="none"/>
          </g>
          <g id="Engaging___Intracting-01" data-name="Engaging_&amp;_Intracting-01" transform="translate(597.885 1126)">
            <path id="Path_7258" data-name="Path 7258" d="M164.215,15.164a31.636,31.636,0,0,1,5.835,1.04c13.1,3.681,21.273,12.235,24.7,25.353a41.674,41.674,0,0,1,.893,11.471,10.292,10.292,0,0,0,1.207,5.269c1.064,1.975,1.9,4.072,2.926,6.069a5.221,5.221,0,0,1-4.421,7.716c-1.771.008-2.593,1.008-2.6,2.807-.016,3.345.01,6.69-.01,10.037-.022,3.587-2.035,6.428-5.3,7.036a16.179,16.179,0,0,1-4.653-.147c-2.35-.26-4.681-.685-7.028-.993a1.987,1.987,0,0,0-2.507,2.186c-.012.945,0,1.888,0,2.888.56.087,1.08.145,1.59.254a4.192,4.192,0,0,1,3.411,3.629,9.384,9.384,0,0,1-.163,3.24,4.291,4.291,0,0,1-4.451,3.1q-11.5,0-23-.012-5.685,0-11.369-.01c-3.069-.006-4.9-1.85-4.909-4.929,0-1.243-.008-2.487,0-3.73a4.46,4.46,0,0,1,4.725-4.641h.641V89.772c0-.355-.02-.713.012-1.066a1.366,1.366,0,0,1,1.362-1.358,1.316,1.316,0,0,1,1.284,1.411c.026,1.124.008,2.249.01,3.375v.959L170.592,95.7c0-.959-.006-1.836,0-2.714a4.6,4.6,0,0,1,5.432-4.818c3.023.375,6.029.875,9.049,1.28a4.181,4.181,0,0,0,5-4.356c.038-2.6.008-5.211.01-7.816,0-.887-.018-1.777.006-2.664a5.109,5.109,0,0,1,4.89-5.207c2.489-.228,3.375-1.8,2.295-4.07-1.179-2.483-2.42-4.939-3.518-7.458a9.2,9.2,0,0,1-.713-3.067c-.191-3.246,0-6.535-.425-9.745-1.308-9.9-6.259-17.647-14.822-22.747-10.178-6.061-20.648-6.005-31.1-.478a3.229,3.229,0,0,1-.971.407,1.186,1.186,0,0,1-1.388-.848A1.24,1.24,0,0,1,145,19.754c2.027-.959,4.04-2,6.132-2.75a24.374,24.374,0,0,1,6.369-1.638,20.28,20.28,0,0,1,2.092-.206,29.175,29.175,0,0,1,4.62,0Zm-7.828,88.274v.022q8.609,0,17.22,0a1.869,1.869,0,0,0,2.1-1.985c.1-1.814-.437-2.648-1.84-2.787-2.589-.256-5.181-.486-7.774-.725q-8.216-.753-16.432-1.507c-3.444-.318-6.889-.659-10.335-.963-1.552-.137-2.293.592-2.3,2.182-.006,1.124,0,2.249,0,3.373,0,1.787.607,2.392,2.4,2.392q8.478,0,16.954,0Z" transform="translate(-111.314 -15.068)" fill="#fff"/>
            <path id="Path_7259" data-name="Path 7259" d="M78.22,118.785a29.712,29.712,0,0,1-4.324-.3,6.527,6.527,0,0,1-5.1-5.007,1.86,1.86,0,0,0-.719-.969,3.079,3.079,0,0,1-1.58-2.7c-.012-2.132-.069-4.266.034-6.392a4.009,4.009,0,0,1,.82-2.069,1.166,1.166,0,0,0,.222-1.253,27.143,27.143,0,0,0-4.81-8.731,19.363,19.363,0,0,1-4.594-14.153,19.911,19.911,0,0,1,39.5-1.975,18.765,18.765,0,0,1-4.068,15.727,28.488,28.488,0,0,0-5.13,9.152,1.191,1.191,0,0,0,.26,1.243,3.973,3.973,0,0,1,.818,1.985c.1,2.186.054,4.379.028,6.571a3.093,3.093,0,0,1-1.221,2.366,2.1,2.1,0,0,0-.679,1.036,6.759,6.759,0,0,1-6.444,5.372c-1.007.032-2.013,0-3.02,0,0,.032,0,.064,0,.093Zm7.425-18.453c1.2-4.53,3.754-8.28,6.539-11.961A15.978,15.978,0,0,0,95.138,76.28,17.258,17.258,0,1,0,64.391,89.1a26.488,26.488,0,0,1,2.44,3.373c1.378,2.529,2.6,5.146,3.953,7.857H85.643Zm-7.584,9.857c2.63,0,5.263-.028,7.893.016.792.014,1.018-.25,1-1.02-.05-1.773-.032-3.548-.006-5.32.008-.592-.155-.846-.8-.844q-8.115.03-16.231,0c-.592,0-.766.222-.758.784.024,1.832.042,3.667-.008,5.5-.02.735.262.9.929.893,2.66-.028,5.322-.012,7.983-.012ZM71.484,112.9A3.881,3.881,0,0,0,75.034,116q3.2.089,6.392,0a3.717,3.717,0,0,0,3.49-3.1H71.484Z" transform="translate(-50.205 -50.002)" fill="#fff"/>
            <path id="Path_7260" data-name="Path 7260" d="M61.838,238.8a3.826,3.826,0,0,1-.427.939,27.2,27.2,0,0,1-2,2,1.306,1.306,0,0,1-1.85-1.826,13.094,13.094,0,0,1,2.015-1.979,1.8,1.8,0,0,1,1.451-.123c.351.123.558.659.812.991Z" transform="translate(-49.488 -193.52)" fill="#fff"/>
            <path id="Path_7261" data-name="Path 7261" d="M241.58,58.909c-.133.385-.149.661-.294.816a28.075,28.075,0,0,1-2.313,2.3,1.117,1.117,0,0,1-1.594-.228,1.188,1.188,0,0,1-.083-1.687,14.025,14.025,0,0,1,2.077-2.043,1.669,1.669,0,0,1,1.38-.109c.361.139.58.649.828.955Z" transform="translate(-193.564 -49.364)" fill="#fff"/>
            <path id="Path_7262" data-name="Path 7262" d="M20.857,154.271c-.443,0-.887.022-1.328-.006a1.231,1.231,0,0,1-1.253-1.241,1.2,1.2,0,0,1,1.12-1.36,16.829,16.829,0,0,1,2.916-.01,1.239,1.239,0,0,1,1.175,1.324,1.279,1.279,0,0,1-1.3,1.29c-.441.028-.885.006-1.328,0Z" transform="translate(-18.272 -124.493)" fill="#fff"/>
            <path id="Path_7263" data-name="Path 7263" d="M275.057,154.278c-.443,0-.887.02-1.328,0a1.235,1.235,0,0,1-1.268-1.227,1.193,1.193,0,0,1,1.1-1.372,15.815,15.815,0,0,1,3,0,1.192,1.192,0,0,1,1.092,1.38,1.231,1.231,0,0,1-1.274,1.219c-.443.022-.885,0-1.328,0Z" transform="translate(-221.995 -124.5)" fill="#fff"/>
            <path id="Path_7264" data-name="Path 7264" d="M154.38,20.888c0,.47.034.945-.01,1.413a1.183,1.183,0,0,1-1.213,1.165,1.164,1.164,0,0,1-1.358-1.1,17.969,17.969,0,0,1,.006-3,1.165,1.165,0,0,1,1.368-1.084,1.2,1.2,0,0,1,1.2,1.187c.042.469.008.941.006,1.413Z" transform="translate(-125.244 -17.648)" fill="#fff"/>
            <path id="Path_7265" data-name="Path 7265" d="M59.092,56.63a4.96,4.96,0,0,1,.993.514c.651.6,1.286,1.219,1.88,1.874a1.28,1.28,0,0,1-.03,1.83,1.261,1.261,0,0,1-1.83.022,12.824,12.824,0,0,1-1.85-1.894,1.8,1.8,0,0,1-.2-1.439c.127-.375.677-.607,1.042-.907Z" transform="translate(-50.1 -48.379)" fill="#fff"/>
            <path id="Path_7266" data-name="Path 7266" d="M237.818,237.444c.482-.048.665.036,1.376.588a9.677,9.677,0,0,1,1.425,1.4,1.319,1.319,0,1,1-1.876,1.854,15.532,15.532,0,0,1-1.791-1.717,1.062,1.062,0,0,1-.312-1.078,1.834,1.834,0,0,1,1.179-1.042Z" transform="translate(-193.249 -193.288)" fill="#fff"/>
            <path id="Path_7267" data-name="Path 7267" d="M102.29,98.832c.286-2.65,1.6-3.835,4.093-3.742,2.3.087,3.291,1.419,3.563,3.667.341-.218.554-.341.752-.484a3.166,3.166,0,0,1,4.149.212c1.132,1,2.037,2.118,1.592,3.766a4.472,4.472,0,0,1-.669,1.328c-.359.522-.258.689.355.782a3.056,3.056,0,0,1,2.833,2.525c.288,1.606.252,3.194-1.269,4.23a11.092,11.092,0,0,1-2.21.877c1.372,1.751,1.529,3.452-.163,5.171-1.715,1.743-3.442,1.63-5.42.107-.1,1.425-.429,2.63-1.592,3.166a6.452,6.452,0,0,1-2.64.514c-1.87,0-2.69-.9-3.426-3.587-2.3,1.854-4.276,1.3-5.9-.893-1.153-1.554-.707-3.053.56-4.586-2.982-.3-4.024-2.021-3.685-4.663.25-1.944,1.576-2.8,3.653-2.976-2-2.484-1.312-4.477.953-6.077,1.509-1.066,2.97-.588,4.473.663Zm11.691,15.782a5.6,5.6,0,0,1-.459-.679,5.756,5.756,0,0,1-.613-1.539,2.873,2.873,0,0,1,2.626-3.274c.617-.085.915-.332.873-.965-.034-.488.109-1.124-.637-1.141a3.026,3.026,0,0,1-2.126-5.036c.516-.546.032-.889-.314-1.257s-.653-.59-1.2-.195c-2.184,1.58-4.51.629-4.935-2.007-.109-.683-.492-.774-1.056-.762-.534.012-.963.016-1.076.731-.421,2.646-2.773,3.633-4.921,2.055-.588-.431-.891-.167-1.269.218s-.689.665-.256,1.267c1.57,2.184.609,4.548-2.009,4.947-.707.107-.758.5-.764,1.046s.056.959.739,1.082c2.67.486,3.627,2.763,2.053,4.917-.433.592-.157.887.22,1.267s.7.645,1.28.234c2.188-1.542,4.516-.568,4.929,2.055.1.647.469.742.989.737s1.112.044,1.114-.679a3.025,3.025,0,0,1,5-2.118.915.915,0,0,0,.852.089,5.79,5.79,0,0,0,.967-1Z" transform="translate(-78.285 -79.199)" fill="#fff"/>
            <path id="Path_7268" data-name="Path 7268" d="M135.25,141.785a4.621,4.621,0,0,1,9.241-.073,4.621,4.621,0,1,1-9.241.073Zm2.67-.052a1.964,1.964,0,0,0,1.951,1.977,2,2,0,0,0,1.951-1.989,1.95,1.95,0,0,0-1.92-1.912,1.923,1.923,0,0,0-1.985,1.922Z" transform="translate(-112.027 -112.906)" fill="#fff"/>
          </g>
        </g>
      </g>
      <g id="Group_3023" data-name="Group 3023" transform="translate(17)">
        <text id="Support" transform="translate(1174 1298)" fill="#2d2d2d" font-size="18" font-family="HKGrotesk-SemiBold, HK Grotesk" font-weight="600" letter-spacing="0.008em"><tspan x="-65.49" y="0">Support</tspan></text>
        <g id="Group_3013" data-name="Group 3013" transform="translate(105 7)">
          <circle id="Ellipse_268-3" data-name="Ellipse 268" cx="67" cy="67" r="67" transform="translate(966 1105)" fill="#49afdb"/>
          <g id="Layer_3" transform="translate(991.851 1131)">
            <path id="Path_7275" data-name="Path 7275" d="M8.434,88.8a1.748,1.748,0,0,1,1.7-.822q13.127.026,26.27.017h1.045c-.188-1.764-.36-3.459-.531-5.155-.48-4.5-.976-9.025-1.421-13.529a3.562,3.562,0,0,1,3.75-4.11c1.113-.017,2.243,0,3.425,0V58.009a3.7,3.7,0,0,0-.617.206c-2.432,1.062-4.881,2.089-7.3,3.185a9.308,9.308,0,0,0-5.805,8.888c-.068,4.487-.017,8.974-.017,13.46a6.248,6.248,0,0,1-.017.8,1.14,1.14,0,0,1-1.079,1.028,1.111,1.111,0,0,1-1.233-.822,2.971,2.971,0,0,1-.086-.873c0-4.453-.034-8.922,0-13.375.051-5.429,2.6-9.265,7.587-11.474,1.935-.856,3.87-1.678,5.942-2.586-.308-.154-.48-.24-.651-.308a9.716,9.716,0,0,1-4.11-15.053,14.246,14.246,0,0,0,3.322-9.9c-.086-1.387-.017-2.791-.017-4.2a17.97,17.97,0,0,1,1.1-6.388Q43.849,9.844,55.272,8.054c.171-.034.36-.1.531-.154h3.545c.582.1,1.147.223,1.73.325,7.535,1.267,14.077,7.741,15.156,15.31a51.34,51.34,0,0,1,.325,8.117,14.261,14.261,0,0,0,3.2,9.453,9.582,9.582,0,0,1,.274,11.56,10.021,10.021,0,0,1-4.966,3.716c2.072.891,3.99,1.678,5.908,2.535,4.966,2.226,7.5,6.062,7.535,11.508.034,5.566,0,11.114,0,16.68v.925c.5,0,.891-.034,1.284,0a1.144,1.144,0,0,1,1.113,1.165,1.181,1.181,0,0,1-1.13,1.233c-.188.017-.377.017-.565.017q-39.559,0-79.119.017a1.748,1.748,0,0,1-1.7-.822A7.309,7.309,0,0,0,8.434,88.8Zm31.442-.856H76.353a1.117,1.117,0,0,0,.086-.257q.976-9.094,1.935-18.17c.154-1.507-.206-1.9-1.713-1.9H39.6c-1.456,0-1.8.36-1.661,1.781.1,1.1.223,2.192.342,3.288C38.78,77.737,39.328,82.806,39.876,87.944ZM68.647,14.51c-.12.154-.188.24-.257.325a32.466,32.466,0,0,1-6.559,7.381,32.012,32.012,0,0,1-15.019,6.97c-.48.086-.754.206-.736.788.034,2.98-.034,5.96.034,8.939a9.121,9.121,0,0,0,7.244,8.905,26.674,26.674,0,0,0,6.4.291,9.169,9.169,0,0,0,8.511-5.977,13.409,13.409,0,0,0,.462-1.473,12.449,12.449,0,0,0-1.764,1.113c-.582.394-1.2.719-1.764,1.13a3.264,3.264,0,0,0-.891.925,3.325,3.325,0,0,1-2.689,1.952,19.579,19.579,0,0,1-4.007-.034,3.417,3.417,0,0,1-2.894-3.613,3.506,3.506,0,0,1,3.305-3.339c.668-.034,1.353.017,2.021-.034,1.747-.1,3.271.223,4.23,1.918A9.056,9.056,0,0,0,68.7,36.311a2.627,2.627,0,0,0,.257-1.079c.034-1.764,0-3.545.017-5.326,0-.514-.171-.685-.668-.873-1.524-.582-3-1.284-4.487-1.952a2.821,2.821,0,0,1-.651-.462,1.213,1.213,0,0,1-.394-1.747,1.283,1.283,0,0,1,1.781-.24,32.254,32.254,0,0,0,4.11,1.969,10.7,10.7,0,0,0,5.514.394A16.68,16.68,0,0,0,68.647,14.51ZM66.609,13a16.361,16.361,0,0,0-17.845-.12c-5.086,3.288-7.569,8.049-7.775,14.077C49.3,27.885,60.923,22.731,66.609,13ZM72.4,65.184h4.418c2.689,0,4.23,1.61,3.973,4.3-.411,4.281-.908,8.546-1.353,12.81-.206,1.867-.394,3.733-.6,5.617h7.278c0-5.977.051-11.885-.017-17.793a9.253,9.253,0,0,0-5.857-8.922c-2.329-1.045-4.675-2.021-7.021-3.031-.257-.1-.514-.188-.822-.308ZM52.292,50.165a.51.51,0,0,0-.12.188,8.162,8.162,0,0,1-5.138,5.686c-1.952.8-1.918.839-1.935,2.98a.788.788,0,0,0,.719.925,45.048,45.048,0,0,0,22.537,0c1.576-.394,1.524-.411,1.593-2.038A1.353,1.353,0,0,0,68.9,56.33c-3.048-1.045-5.309-2.877-6.079-6.165A31.512,31.512,0,0,1,52.292,50.165ZM41.024,29.495c0,.634-.017,1.182,0,1.747a16.122,16.122,0,0,1-3.785,11.234,7.277,7.277,0,0,0,.617,9.813,7.728,7.728,0,0,0,10.087.462,5.493,5.493,0,0,0,1.884-2.928.744.744,0,0,0-.377-.993,11.665,11.665,0,0,1-5.771-10.412c-.017-2.689,0-5.377,0-8.049v-.873Zm30.363.1v.976c0,2.6.017,5.206,0,7.809a11.64,11.64,0,0,1-5.5,10.241c-.754.5-.736.908-.514,1.627.634,2.192,3.973,4.333,6.85,4.127a7.169,7.169,0,0,0,6.49-4.3,6.93,6.93,0,0,0-.959-7.706,15.449,15.449,0,0,1-3.579-10.5c.017-.771,0-1.541,0-2.295C73.236,29.6,72.38,29.6,71.387,29.6ZM45.151,65.133H69.88V62.016A48.47,48.47,0,0,1,57.5,63.78a48.773,48.773,0,0,1-12.347-1.524C45.151,63.283,45.151,64.157,45.151,65.133ZM59.69,41.226h0c-.48,0-.959-.017-1.439,0A1.029,1.029,0,0,0,57.19,42.3a.994.994,0,0,0,.942,1.113,22.211,22.211,0,0,0,3.2-.017.985.985,0,0,0,.908-1.13,1.034,1.034,0,0,0-1.028-1.045C60.7,41.192,60.2,41.226,59.69,41.226Z" transform="translate(-8.4 -7.883)" fill="#fff"/>
            <path id="Path_7276" data-name="Path 7276" d="M24.064,7.8c.8.188,1.627.325,2.415.565a14.014,14.014,0,0,1,6.508,22.862c-.137.154-.274.325-.48.548.5.308.976.582,1.456.891a1.659,1.659,0,0,1,.908,1.952,1.628,1.628,0,0,1-1.747,1.233c-3.648,0-7.3.069-10.943-.017A14.182,14.182,0,0,1,8.754,23.9c-.034-.206-.1-.411-.154-.617V20.387c.051-.206.12-.411.154-.617a13.813,13.813,0,0,1,9.71-11.3A20.8,20.8,0,0,1,21.17,7.8Zm6.148,25.756c-.839-1.507-.771-2.209.325-3.271.137-.137.274-.257.394-.394,3.22-3.562,4.213-7.638,2.5-12.142a11.065,11.065,0,0,0-9.967-7.5c-6.182-.531-11.44,3.887-12.364,10.207a11.331,11.331,0,0,0,9.025,12.6C23.413,33.625,26.838,33.419,30.212,33.556Z" transform="translate(-8.566 -7.8)" fill="#fff"/>
            <path id="Path_7277" data-name="Path 7277" d="M276.655,398.279a4.59,4.59,0,0,1,0-9.179,4.645,4.645,0,0,1,4.624,4.607A4.583,4.583,0,0,1,276.655,398.279Zm.017-2.415a2.167,2.167,0,1,0-.017-4.333,2.171,2.171,0,0,0-2.124,2.192A2.109,2.109,0,0,0,276.672,395.864Z" transform="translate(-226.94 -323.801)" fill="#fff"/>
            <path id="Path_7278" data-name="Path 7278" d="M56.38,85.08A1.175,1.175,0,0,1,55.2,83.847,1.192,1.192,0,0,1,56.4,82.7a1.175,1.175,0,0,1,1.182,1.233A1.159,1.159,0,0,1,56.38,85.08Z" transform="translate(-47.183 -69.873)" fill="#fff"/>
            <path id="Path_7279" data-name="Path 7279" d="M85.88,83.891a1.144,1.144,0,0,1-1.165,1.165,1.182,1.182,0,1,1,1.165-1.165Z" transform="translate(-70.639 -69.865)" fill="#fff"/>
            <path id="Path_7280" data-name="Path 7280" d="M114.078,83.908a1.19,1.19,0,1,1-1.13-1.216A1.169,1.169,0,0,1,114.078,83.908Z" transform="translate(-94.008 -69.865)" fill="#fff"/>
          </g>
        </g>
      </g>
      <rect id="Rectangle_7541" data-name="Rectangle 7541" width="67" height="3" transform="translate(826 1179)" fill="#6f75d6"/>
      <rect id="Rectangle_7542" data-name="Rectangle 7542" width="65" height="3" transform="translate(1024 1179)" fill="#4e8fd1"/>
      <rect id="Rectangle_7543" data-name="Rectangle 7543" width="65" height="3" transform="translate(1222 1179)" fill="#49afdb"/>
      <rect id="Rectangle_7552" data-name="Rectangle 7552" width="69" height="3" transform="translate(631 1663)" fill="#52c9bf"/>
      <g id="Group_3024" data-name="Group 3024" transform="translate(17 -34)">
        <text id="Standard_Testing" data-name="Standard 
Testing" transform="translate(747 1812)" fill="#2d2d2d" font-size="18" font-family="HKGrotesk-SemiBold, HK Grotesk" font-weight="600" letter-spacing="0.008em"><tspan x="-39.213" y="0">Standard </tspan><tspan x="-28.799" y="21">Testing</tspan></text>
        <g id="Group_3017" data-name="Group 3017" transform="translate(-410 298)">
          <ellipse id="Ellipse_268-4" data-name="Ellipse 268" cx="66.5" cy="67" rx="66.5" ry="67" transform="translate(1090 1335)" fill="#ecd856"/>
          <g id="Layer_7" transform="translate(1113.378 1358.251)">
            <path id="Path_7316" data-name="Path 7316" d="M33.259,181.551H94.616V142.538H97.4c.019.265.038.549.038.832v39.013c0,1.551-.416,1.987-1.949,1.987h-63.1c-1.589,0-1.987-.416-1.987-2.024V143.068c0-1.589.4-1.987,2.024-1.987h3.519v-1.324H29.059v45.975h69.72V141.138h2.8V185.77h3.689c1.495,0,1.93.435,1.949,1.892,0,1.665.019,3.311,0,4.976a4.17,4.17,0,0,1-4.314,4.295H24.972a4.167,4.167,0,0,1-4.333-4.352c-.019-1.722-.019-3.424,0-5.146,0-1.154.511-1.646,1.646-1.665,1.268-.019,2.554,0,3.935,0V139.038c0-1.835.341-2.157,2.195-2.157h7.568v-3.8c0-1.305.473-1.778,1.8-1.778H56.549c1.305,0,1.778.473,1.778,1.8v3.765H70.834v2.8H58.384v1.4H70.834v2.781H58.309v8.173c0,1.1-.511,1.627-1.589,1.627H37.61c-1.116,0-1.627-.53-1.627-1.684v-8.041H33.259Zm-9.838,7.057v3.368c0,1.835.341,2.176,2.176,2.176H102.2a8.206,8.206,0,0,0,.965-.019,1.267,1.267,0,0,0,1.211-1.173c.057-1.438.019-2.895.019-4.352ZM55.49,150.825v-16.65H38.84v16.65Z" transform="translate(-20.625 -110.341)" fill="#fff"/>
            <path id="Path_7317" data-name="Path 7317" d="M299.083,50.679c-.132-.057-.208-.095-.284-.132-1.287-.776-2.4-.908-3.425.53a1.251,1.251,0,0,1-1.987.019c-1.305-1.268-2.611-2.573-3.879-3.9a1.27,1.27,0,0,1,.019-2.006c1.381-.984,1.362-2.062.568-3.349-.057-.095-.095-.208-.17-.359-.624,0-1.268.019-1.911,0a1.371,1.371,0,0,1-1.476-1.476c-.019-1.8-.019-3.614,0-5.411a1.4,1.4,0,0,1,1.476-1.495c.322-.019.643,0,.965,0h.908c.076-.076.095-.076.113-.114.738-1.343,1.135-2.573-.492-3.652a1.226,1.226,0,0,1,.019-1.93c1.268-1.324,2.573-2.611,3.879-3.9a1.259,1.259,0,0,1,2.006,0c1.041,1.476,2.195,1.305,3.5.53a1.209,1.209,0,0,1,.227-.114c0-.605-.019-1.249,0-1.873a1.4,1.4,0,0,1,1.533-1.514c1.778-.019,3.557-.019,5.317,0a1.4,1.4,0,0,1,1.514,1.533v.095c.057,1.93.057,1.949,1.93,2.573a1.192,1.192,0,0,0,.605-.095c.095-.038.17-.151.246-.246,1.873-1.835,2.005-1.835,3.822,0l2.838,2.838c.776.795.87,1.646.038,2.251-1.305.946-1.249,1.949-.511,3.122a1.117,1.117,0,0,0,.662.473,12.8,12.8,0,0,0,1.476.019,1.356,1.356,0,0,1,1.438,1.419q.028,2.753,0,5.506a1.372,1.372,0,0,1-1.514,1.438c-.605.019-1.211,0-1.873,0-.284.643-.568,1.268-.795,1.911a1.051,1.051,0,0,0,.132.662,3.109,3.109,0,0,0,.549.568c1.324,1.324,1.324,1.8-.038,3.16-1.078,1.078-2.138,2.157-3.216,3.2-.738.719-1.57.795-2.195,0-.908-1.173-1.835-1.381-3.046-.568a3.418,3.418,0,0,1-.587.246c0,.624.019,1.249,0,1.854a1.4,1.4,0,0,1-1.495,1.551c-1.8.019-3.614.019-5.411,0a1.362,1.362,0,0,1-1.457-1.495C299.064,51.927,299.083,51.284,299.083,50.679Zm12.96-24.293c-.36.416-.662.795-1,1.154a1.472,1.472,0,0,1-1.892.284c-1.1-.511-2.233-.946-3.368-1.4a1.5,1.5,0,0,1-1.116-1.495V23.377h-2.8v1.268c0,1.135-.3,1.457-1.343,1.835A32.158,32.158,0,0,0,297.4,27.8a1.468,1.468,0,0,1-1.892-.265c-.36-.378-.681-.776-.965-1.1-.795.738-1.438,1.343-2.195,2.043.416.359.795.681,1.154,1.022a1.494,1.494,0,0,1,.284,1.892c-.511,1.1-.946,2.233-1.4,3.368a1.485,1.485,0,0,1-1.495,1.1h-1.551v2.8h1.532a1.485,1.485,0,0,1,1.495,1.1c.454,1.154.927,2.308,1.438,3.443a1.427,1.427,0,0,1-.246,1.76c-.378.378-.814.719-1.078.965.7.814,1.287,1.495,1.968,2.251.4-.454.738-.851,1.1-1.23a1.428,1.428,0,0,1,1.76-.246c1.135.511,2.289.984,3.443,1.438a1.485,1.485,0,0,1,1.1,1.495V51.17h2.8V49.638a1.485,1.485,0,0,1,1.1-1.495c1.154-.454,2.308-.927,3.443-1.438a1.427,1.427,0,0,1,1.76.246c.378.378.719.814.984,1.1.814-.719,1.476-1.305,2.251-1.968-.378-.341-.738-.605-1.041-.908-.776-.776-.776-1.192-.322-2.176a25.116,25.116,0,0,0,1.249-3.046,1.578,1.578,0,0,1,1.722-1.268c.454.019.908,0,1.381,0v-2.8h-1.533a1.485,1.485,0,0,1-1.495-1.1c-.454-1.154-.927-2.308-1.419-3.443a1.437,1.437,0,0,1,.3-1.816c.378-.359.757-.681,1.154-1.041C313.424,27.767,312.8,27.161,312.043,26.385Z" transform="translate(-236.217 -20.525)" fill="#fff"/>
            <path id="Path_7318" data-name="Path 7318" d="M113.157,264.2h9.252c1.362,0,1.835.454,1.835,1.835v18.674c0,1.362-.473,1.835-1.835,1.835H103.735c-1.362,0-1.835-.473-1.835-1.835V266.035c0-1.362.454-1.835,1.835-1.835Zm8.23,19.525V267.076H104.738v16.649Z" transform="translate(-86.523 -218.097)" fill="#fff"/>
            <path id="Path_7319" data-name="Path 7319" d="M296.406,206.649c.019-.284.038-.738.057-1.249h2.743v1.23c1.608.662,3.065,1.287,4.616,1.911.227-.208.568-.53.908-.87.643.662,1.268,1.287,2.024,2.062-.378.246-.757.511-1,.681.7,1.646,1.305,3.1,1.968,4.692h1.23v2.781c-.454.019-.908.038-1.249.057-.624,1.533-1.23,2.989-1.873,4.56.189.189.492.53.87.908-.681.587-1.343,1.173-2.081,1.816-.208-.189-.568-.511-.795-.738-1.514.643-2.951,1.23-4.56,1.911v1.249h-2.8v-1.23c-1.608-.662-3.065-1.287-4.616-1.911-.227.208-.568.53-.908.851-.643-.662-1.249-1.305-1.911-2.005.265-.284.587-.624.814-.87-.643-1.514-1.249-2.97-1.911-4.541H286.7v-2.781c.454-.019.908-.038,1.249-.057.624-1.533,1.23-2.989,1.892-4.56-.189-.189-.492-.53-.851-.908.681-.587,1.343-1.173,2.081-1.816.189.189.549.511.795.719C293.36,207.916,294.8,207.311,296.406,206.649Zm-5.562,9.857a6.982,6.982,0,1,0,7.038-6.944A6.993,6.993,0,0,0,290.843,216.506Z" transform="translate(-236.359 -170.422)" fill="#fff"/>
            <path id="Path_7320" data-name="Path 7320" d="M130.7,166.341c1.06-1.684,2.024-3.235,2.989-4.787.946-1.533,1.911-3.046,2.914-4.654.795.492,1.533.965,2.327,1.457a2.825,2.825,0,0,1-.208.416q-3.264,5.25-6.546,10.482c-.795,1.249-1.8,1.287-2.706.114l-3.973-5.3c.738-.568,1.438-1.1,2.214-1.684C128.716,163.73,129.681,164.979,130.7,166.341Z" transform="translate(-105.658 -131.098)" fill="#fff"/>
            <path id="Path_7321" data-name="Path 7321" d="M342.844,67.244a9.772,9.772,0,1,1-9.8-9.744A9.79,9.79,0,0,1,342.844,67.244Zm-16.744,0a6.982,6.982,0,1,0,7.038-6.944A6.993,6.993,0,0,0,326.1,67.244Z" transform="translate(-266.034 -50.504)" fill="#fff"/>
            <path id="Path_7322" data-name="Path 7322" d="M132.46,293.192c.851-.889,1.57-1.627,2.289-2.384s1.438-1.514,2.214-2.308c.681.757,1.268,1.419,1.892,2.119-1.4,1.381-2.895,2.876-4.446,4.408,1.608,1.551,3.122,3.027,4.673,4.541-.795.719-1.457,1.324-2.157,1.949-1.381-1.4-2.876-2.895-4.408-4.446l-4.541,4.654c-.719-.776-1.324-1.438-1.968-2.119,1.419-1.4,2.914-2.895,4.465-4.446-1.589-1.551-3.1-3.008-4.673-4.522.795-.719,1.457-1.324,2.138-1.949C129.357,290.07,130.852,291.565,132.46,293.192Z" transform="translate(-105.901 -237.799)" fill="#fff"/>
            <path id="Path_7323" data-name="Path 7323" d="M327.162,240.262a5.581,5.581,0,1,1-5.619-5.562A5.584,5.584,0,0,1,327.162,240.262ZM321.6,237.5a2.791,2.791,0,1,0,2.762,2.781A2.823,2.823,0,0,0,321.6,237.5Z" transform="translate(-260.115 -194.178)" fill="#fff"/>
          </g>
        </g>
      </g>
      <rect id="Rectangle_7550" data-name="Rectangle 7550" width="65" height="3" transform="translate(632 1432)" fill="#52c9bf"/>
      <rect id="Rectangle_7544" data-name="Rectangle 7544" width="70" height="3" transform="translate(1220 1432)" fill="#49afdb"/>
      <g id="Group_3020" data-name="Group 3020" transform="translate(17 -10)">
        <text id="Definite_Marketing_Strategies" data-name="Definite
 Marketing 
Strategies" transform="translate(1138 1549)" fill="#2d2d2d" font-size="18" font-family="HKGrotesk-SemiBold, HK Grotesk" font-weight="600" letter-spacing="0.008em"><tspan x="-31.536" y="0">Definite</tspan><tspan x="-45.812" y="21" xml:space="preserve"> Marketing </tspan><tspan x="-40.647" y="42">Strategies</tspan></text>
        <g id="Group_3016" data-name="Group 3016" transform="translate(180 35)">
          <circle id="Ellipse_268-5" data-name="Ellipse 268" cx="67" cy="67" r="67" transform="translate(891 1335)" fill="#e9b141"/>
          <g id="Definite_Marketing_Strategies-01" data-name="Definite Marketing Strategies-01" transform="translate(919.224 1358.87)">
            <path id="Path_7306" data-name="Path 7306" d="M91.44,79.963H88.617V52.987H40.7c-3,0-4.719,1.728-4.721,4.75v5.132H33.03a55.1,55.1,0,0,1,.425-7.462c.606-3.247,3.595-5.262,7.1-5.264q20.527-.006,41.052,0h6.947V47.3c-.847,0-1.693-.012-2.538,0a1.482,1.482,0,0,1-1.572-.913,1.441,1.441,0,0,1,.458-1.677c2.746-2.742,5.481-5.493,8.237-8.225a1.428,1.428,0,0,1,2.319.022q4.13,4.1,8.233,8.229a1.419,1.419,0,0,1,.419,1.685,1.457,1.457,0,0,1-1.5.879c-.851-.01-1.7,0-2.592,0v2.793c.255.018.51.049.764.049,1.511,0,3.02,0,4.531,0a7.115,7.115,0,0,1,7.459,7.5q.009,12.619,0,25.236v2.773h-2.844V58.059c0-3.474-1.582-5.07-5.027-5.07h-4.889V78.527H97.127V46.545c0-1.655.348-2.023,1.79-2.108L94.2,39.717,89.51,44.408c.117.01.36.024.6.057a1.406,1.406,0,0,1,1.317,1.329,4.359,4.359,0,0,1,.012.533V79.965Z" transform="translate(-33.03 -35.903)" fill="#fff"/>
            <path id="Path_7307" data-name="Path 7307" d="M86.923,176.653h2.844V155.968c0-1.624.413-2.029,2.056-2.031,2.518,0,5.035-.006,7.553,0,1.268,0,1.762.5,1.764,1.788q.006,9.952,0,19.907v1.007h2.844V146.048c0-1.647.4-2.062,2.025-2.062,2.578,0,5.153-.01,7.731,0a1.424,1.424,0,0,1,1.614,1.576q.012,11.863,0,23.727a1.266,1.266,0,0,1-.055.229h-2.746V146.9h-5.7v32.586H69.93v-2.771h5.618v-1.045q0-4.978,0-9.953c0-1.337.482-1.819,1.819-1.821q3.867-.009,7.731,0c1.337,0,1.821.484,1.823,1.819.006,3.613,0,7.225,0,10.939Zm11.314,0v-19.8H92.659v19.8Zm-19.772-9.88v9.868h5.558v-9.868H78.465Z" transform="translate(-62.641 -122.634)" fill="#fff"/>
            <path id="Path_7308" data-name="Path 7308" d="M57.789,242.794v-2.771h3.158c1.138-3.788,2.258-7.52,3.417-11.387H41.228c-4.683,0-7.656-2.973-7.658-7.656V187.45h2.8v29.781H76.176v2.852H36.564a4.393,4.393,0,0,0,4.344,5.706q17.771.012,35.543,0h1.134v2.844H76.129c-2.7,0-5.39,0-8.087,0-.4,0-.721-.014-.871.5-1.037,3.548-2.108,7.085-3.162,10.627a.7.7,0,0,0,.02.213h18.8l-1.541-5.219c.9-.28,1.756-.547,2.694-.837.624,2.054,1.231,4.055,1.857,6.111H88.99V242.8h-31.2Z" transform="translate(-33.463 -157.516)" fill="#fff"/>
            <path id="Path_7309" data-name="Path 7309" d="M289.635,298.143a17.113,17.113,0,1,1,6.042-6.048l5.379,5.369c.482.482.978.95,1.44,1.45a4.243,4.243,0,0,1-.071,6,4.184,4.184,0,0,1-5.924.026c-2.177-2.092-4.284-4.257-6.424-6.388-.144-.144-.3-.277-.44-.4Zm-8.681-28.973a14.219,14.219,0,1,0,14.214,14.178,14.226,14.226,0,0,0-14.214-14.178Zm11.083,27.3c2.129,2.135,4.261,4.3,6.424,6.425a1.406,1.406,0,1,0,1.995-1.981c-2.127-2.167-4.29-4.3-6.431-6.437Z" transform="translate(-218.272 -220.799)" fill="#fff"/>
            <path id="Path_7310" data-name="Path 7310" d="M386.57,39.031v-2.74c4.332-.34,8.553,3.854,8.444,8.4h-2.769a5.824,5.824,0,0,0-5.675-5.661Z" transform="translate(-316.737 -36.199)" fill="#fff"/>
            <path id="Path_7311" data-name="Path 7311" d="M69.67,139.842v-2.7h2.765v2.7Z" transform="translate(-62.433 -117.143)" fill="#fff"/>
            <path id="Path_7312" data-name="Path 7312" d="M98.7,136.98h2.728v2.765H98.7Z" transform="translate(-85.729 -117.015)" fill="#fff"/>
            <path id="Path_7313" data-name="Path 7313" d="M130.179,137.01v2.744H127.42V137.01Z" transform="translate(-108.776 -117.039)" fill="#fff"/>
            <path id="Path_7314" data-name="Path 7314" d="M304.237,295.179a11.373,11.373,0,1,1-11.488,11.237A11.408,11.408,0,0,1,304.237,295.179Zm-8.646,11.4a8.531,8.531,0,1,0,8.509-8.553,8.547,8.547,0,0,0-8.509,8.553Z" transform="translate(-241.448 -243.966)" fill="#fff"/>
            <path id="Path_7315" data-name="Path 7315" d="M327.481,324.2v2.746a3.047,3.047,0,0,0-2.854,2.852h-2.712c-.294-2.528,2.214-5.7,5.568-5.6Z" transform="translate(-264.834 -267.253)" fill="#fff"/>
          </g>
        </g>
      </g>
      <rect id="Rectangle_7547" data-name="Rectangle 7547" width="64" height="3" transform="translate(1025 1432)" fill="#e9b141"/>
      <rect id="Rectangle_7549" data-name="Rectangle 7549" width="63" height="3" transform="translate(830 1432)" fill="#62c87a"/>
      <rect id="Rectangle_7551" data-name="Rectangle 7551" width="234" height="3" transform="translate(634 1432) rotate(90)" fill="#52c9bf"/>
      <g id="Group_3019" data-name="Group 3019" transform="translate(16 -25)">
        <text id="Upgradation_Maintenance" data-name="Upgradation &amp;
 Maintenance" transform="translate(943 1564)" fill="#2d2d2d" font-size="18" font-family="HKGrotesk-SemiBold, HK Grotesk" font-weight="600" letter-spacing="0.008em"><tspan x="-58.362" y="0">Upgradation &amp;</tspan><tspan x="-54.647" y="21" xml:space="preserve"> Maintenance</tspan></text>
        <g id="Group_3015" data-name="Group 3015" transform="translate(177 50)">
          <circle id="Ellipse_268-6" data-name="Ellipse 268" cx="67" cy="67" r="67" transform="translate(699 1335)" fill="#62c87a"/>
          <g id="Layer_5" transform="translate(715.421 1362.468)">
            <path id="Path_7284" data-name="Path 7284" d="M55.381,159.157H8.635c-2.755,0-3.536-.9-3.7-3.68a8.525,8.525,0,0,1,1.624-5.591c3.084-4.584,6.023-9.251,8.942-13.917a4.837,4.837,0,0,0,.719-2.426q.062-24.237.021-48.494c0-1.3.144-2.549,1.3-3.31a4.373,4.373,0,0,1,2.22-.719Q55,80.99,90.225,81c2.282,0,3.577,1.4,3.577,3.762q0,24.422-.021,48.823a3.889,3.889,0,0,0,.719,2.323q5.489,7.925,10.936,15.911a2.659,2.659,0,0,1,.391,1.316c.062.9.021,1.83,0,2.734-.021,2.261-1.028,3.269-3.289,3.289Zm47.014-7.606c-.247-.411-.411-.678-.576-.946q-4.594-6.691-9.168-13.383a1.8,1.8,0,0,0-1.686-.884q-35.923.031-71.867,0a1.625,1.625,0,0,0-1.6.843c-2.857,4.5-5.756,8.983-8.634,13.485-.164.247-.288.534-.493.9C39.758,151.551,70.984,151.551,102.4,151.551ZM91.418,134.016c.021-.432.041-.74.041-1.069V85.009c0-1.5-.206-1.706-1.706-1.706H20.311c-1.542,0-1.768.247-1.768,1.788v47.836c0,.349.041.7.062,1.11C42.883,134.016,67.078,134.016,91.418,134.016ZM7.361,153.936c-.021.329-.062.535-.062.761.021,2.487-.329,2.179,2.117,2.179H101.7a3.2,3.2,0,0,0,1.09-.041c.267-.082.637-.391.658-.617a20.944,20.944,0,0,0,.041-2.282Z" transform="translate(-4.918 -81)" fill="#fff"/>
            <path id="Path_7285" data-name="Path 7285" d="M208.539,395.623h-8.757c-.843,0-1.6-.144-1.583-1.192.021-.987.761-1.131,1.542-1.131h17.638c.843,0,1.624.206,1.6,1.213-.041,1.007-.822,1.131-1.665,1.131C214.377,395.6,211.458,395.623,208.539,395.623Z" transform="translate(-158.466 -329.101)" fill="#fff"/>
            <path id="Path_7286" data-name="Path 7286" d="M384.371,364.571h-.761a1.124,1.124,0,0,1-1.213-1.131,1.09,1.09,0,0,1,1.172-1.172,12.515,12.515,0,0,1,1.521-.021c.761.041,1.3.391,1.275,1.192-.021.781-.555,1.131-1.336,1.131Z" transform="translate(-304.799 -304.421)" fill="#fff"/>
            <path id="Path_7287" data-name="Path 7287" d="M97.684,364.571c-.247,0-.514.021-.761,0-.7-.041-1.192-.349-1.233-1.11s.432-1.131,1.131-1.192a12.446,12.446,0,0,1,1.521-.021c.74.041,1.3.349,1.3,1.172-.021.8-.534,1.131-1.3,1.151Z" transform="translate(-77.028 -304.421)" fill="#fff"/>
            <path id="Path_7288" data-name="Path 7288" d="M220.584,364.552h-.761a1.136,1.136,0,0,1-1.233-1.11c-.041-.761.432-1.131,1.131-1.192a8.575,8.575,0,0,1,1.624,0c.7.062,1.192.391,1.172,1.151-.021.8-.534,1.131-1.3,1.151Z" transform="translate(-174.664 -304.403)" fill="#fff"/>
            <path id="Path_7289" data-name="Path 7289" d="M261.484,364.571h-.761a1.115,1.115,0,0,1-1.233-1.11c-.041-.74.432-1.131,1.151-1.192a12.5,12.5,0,0,1,1.521-.021c.74.021,1.3.37,1.3,1.172-.021.8-.534,1.131-1.3,1.151Z" transform="translate(-207.156 -304.421)" fill="#fff"/>
            <path id="Path_7290" data-name="Path 7290" d="M302.484,364.571h-.761a1.115,1.115,0,0,1-1.233-1.11c-.041-.74.432-1.131,1.151-1.192a12.5,12.5,0,0,1,1.521-.021c.74.021,1.3.37,1.3,1.172-.021.8-.534,1.131-1.3,1.151Z" transform="translate(-239.728 -304.421)" fill="#fff"/>
            <path id="Path_7291" data-name="Path 7291" d="M345.984,364.571h-.761a1.115,1.115,0,0,1-1.233-1.11c-.041-.74.432-1.131,1.151-1.192a12.5,12.5,0,0,1,1.521-.021c.74.021,1.3.37,1.3,1.172-.021.8-.534,1.131-1.3,1.151Z" transform="translate(-274.286 -304.421)" fill="#fff"/>
            <path id="Path_7292" data-name="Path 7292" d="M138.571,364.583h-.761a1.124,1.124,0,0,1-1.213-1.131c-.021-.74.473-1.11,1.172-1.172a9.4,9.4,0,0,1,1.521,0c.74.041,1.275.37,1.254,1.192-.021.8-.576,1.11-1.316,1.11Z" transform="translate(-109.528 -304.434)" fill="#fff"/>
            <path id="Path_7293" data-name="Path 7293" d="M177.571,364.583h-.761a1.124,1.124,0,0,1-1.213-1.131c-.021-.74.473-1.11,1.172-1.172a9.4,9.4,0,0,1,1.521,0c.74.041,1.275.37,1.254,1.192-.021.8-.576,1.11-1.316,1.11Z" transform="translate(-140.511 -304.434)" fill="#fff"/>
            <path id="Path_7294" data-name="Path 7294" d="M72.171,395.583H71.41a1.124,1.124,0,0,1-1.213-1.131c-.021-.74.473-1.11,1.172-1.172a9.391,9.391,0,0,1,1.521,0c.74.041,1.275.37,1.254,1.192s-.576,1.11-1.316,1.11Z" transform="translate(-56.778 -329.061)" fill="#fff"/>
            <path id="Path_7295" data-name="Path 7295" d="M119.671,395.683h-.761a1.124,1.124,0,0,1-1.213-1.131c-.021-.74.473-1.11,1.172-1.172a9.4,9.4,0,0,1,1.521,0c.74.041,1.275.37,1.254,1.192s-.576,1.11-1.316,1.11Z" transform="translate(-94.513 -329.141)" fill="#fff"/>
            <path id="Path_7296" data-name="Path 7296" d="M162.071,395.683h-.761a1.124,1.124,0,0,1-1.213-1.131c-.021-.74.473-1.11,1.172-1.172a9.4,9.4,0,0,1,1.521,0c.74.041,1.275.37,1.254,1.192s-.576,1.11-1.316,1.11Z" transform="translate(-128.197 -329.141)" fill="#fff"/>
            <path id="Path_7297" data-name="Path 7297" d="M321.671,395.683h-.761a1.124,1.124,0,0,1-1.213-1.131c-.021-.74.473-1.11,1.172-1.172a9.4,9.4,0,0,1,1.521,0c.74.041,1.275.37,1.254,1.192s-.576,1.11-1.316,1.11Z" transform="translate(-254.988 -329.141)" fill="#fff"/>
            <path id="Path_7298" data-name="Path 7298" d="M369.171,395.683h-.761a1.124,1.124,0,0,1-1.213-1.131c-.021-.74.473-1.11,1.172-1.172a9.4,9.4,0,0,1,1.521,0c.74.041,1.275.37,1.254,1.192s-.576,1.11-1.316,1.11Z" transform="translate(-292.724 -329.141)" fill="#fff"/>
            <path id="Path_7299" data-name="Path 7299" d="M411.571,395.683h-.761a1.124,1.124,0,0,1-1.213-1.131c-.021-.74.473-1.11,1.172-1.172a9.4,9.4,0,0,1,1.521,0c.74.041,1.275.37,1.254,1.192s-.576,1.11-1.316,1.11Z" transform="translate(-326.408 -329.141)" fill="#fff"/>
            <path id="Path_7300" data-name="Path 7300" d="M118.693,105.8h31.6c1.727,0,1.994.267,1.994,1.953v41.258c0,1.645-.288,1.932-1.891,1.932H86.871c-1.562,0-1.871-.288-1.871-1.83V107.63c0-1.542.288-1.83,1.871-1.83Zm-31.329,2.385v40.333H149.9V108.185Z" transform="translate(-68.538 -100.702)" fill="#fff"/>
            <path id="Path_7301" data-name="Path 7301" d="M192.026,164.806c.473-.946,1.048-1.788-.082-2.693a1.608,1.608,0,0,1,.062-1.521,24.445,24.445,0,0,1,2.59-2.672,1.139,1.139,0,0,1,1.747.041,9.411,9.411,0,0,1,.6.74c1.131-.308,2.056-.534,1.932-1.973-.021-.329.678-.987,1.11-1.048a28.094,28.094,0,0,1,3.721-.041,1.135,1.135,0,0,1,1.213,1.254v1.028c.987.534,1.809,1.069,2.714-.1.411-.555,1.151-.308,1.645.185.8.8,1.583,1.624,2.385,2.426a1.19,1.19,0,0,1-.041,1.973c-.7.555-.432,1.048-.226,1.706.226.7.637.761,1.233.74.966-.041,1.418.473,1.418,1.4.021,1.09,0,2.2,0,3.289,0,.966-.432,1.542-1.46,1.46a1.008,1.008,0,0,0-1.213.781c-.206.617-.452,1.089.206,1.624.822.658.74,1.418,0,2.138s-1.439,1.46-2.158,2.179c-.8.8-1.336.8-2.138.021-.391-.391-.7-.637-1.3-.329s-1.172.473-1.048,1.357c.123,1.007-.432,1.46-1.439,1.439-1.09-.021-2.2-.021-3.289,0-.74,0-1.357-.349-1.3-1.028.144-1.4-.7-1.727-1.973-2.056a4.969,4.969,0,0,1-.576.781,1.138,1.138,0,0,1-1.747-.021c-.863-.843-1.706-1.706-2.549-2.57a1.154,1.154,0,0,1,.144-1.891c.719-.555.411-1.069.206-1.706-.206-.7-.637-.761-1.233-.74a1.21,1.21,0,0,1-1.418-1.377v-2.405C189.724,164.929,189.724,164.929,192.026,164.806Zm19.611,2.323c-1.48.267-2.056-.493-2.282-1.768a2.549,2.549,0,0,0-.411-1.007c-.74-1.069-.925-2.076.37-2.9-.37-.452-.678-.8-1.048-1.233-.863,1.316-1.788,1.3-2.816.535a2.167,2.167,0,0,0-.8-.349c-1.3-.308-2.446-.719-2.076-2.426H201.03c.391,1.542-.473,2.056-1.706,2.3a2.522,2.522,0,0,0-.9.391c-1.09.74-2.117,1.028-2.981-.308-.267.247-.432.391-.576.534-.164.185-.288.37-.432.555,1.11,1.275,1.11,1.275.391,2.714a4.406,4.406,0,0,0-.473,1.11c-.226,1.254-.719,2.179-2.282,1.871v1.6c1.5-.288,2.056.555,2.261,1.788a2.478,2.478,0,0,0,.37.9c.719,1.089.987,2.138-.391,3.022.432.411.761.74,1.089,1.028,1.316-1.151,1.316-1.151,2.755-.391.267.144.535.247.8.37,1.83.74,1.83.74,2.344,2.529.391-.021.822-.041,1.377-.082-.411-1.542.432-2.035,1.6-2.3a2.679,2.679,0,0,0,1.11-.473c1.069-.781,2.015-.822,2.837.432.411-.391.761-.7,1.192-1.11a1.777,1.777,0,0,1-.514-2.9,2.55,2.55,0,0,0,.411-1.007c.247-1.254.761-2.158,2.3-1.83C211.637,168.2,211.637,167.766,211.637,167.129Z" transform="translate(-151.759 -140.261)" fill="#fff"/>
            <path id="Path_7302" data-name="Path 7302" d="M216.179,214.879c-.308.226-.534.555-.761.555a2.275,2.275,0,0,1-1.439-.308,1.4,1.4,0,0,1,0-1.336,24.511,24.511,0,0,1,3.125-2.9,1.659,1.659,0,0,1,1.521.226,29.476,29.476,0,0,1,2.426,2.385c.555.555.8,1.192.206,1.83-.617.637-1.254.411-1.809-.164-.206-.206-.411-.37-.74-.658a18.694,18.694,0,0,1-4.358,9.251,18.044,18.044,0,0,1-25,1.85c-.6-.493-1.11-1.007-.617-1.85.411-.7,1.151-.719,1.973-.041a15.707,15.707,0,0,0,25.449-8.223C216.179,215.311,216.158,215.126,216.179,214.879Z" transform="translate(-150.791 -184.105)" fill="#fff"/>
            <path id="Path_7303" data-name="Path 7303" d="M153.236,142.932c.452-.308.72-.637.987-.658.432-.021,1.069.021,1.254.288a1.416,1.416,0,0,1,.082,1.336,27.516,27.516,0,0,1-3.186,3,1.727,1.727,0,0,1-1.542-.247,30.954,30.954,0,0,1-2.323-2.323c-.576-.576-.925-1.213-.247-1.891s1.336-.308,1.891.267c.144.164.308.288.576.555.164-.658.308-1.213.452-1.747a18,18,0,0,1,28.615-9.641c1.172.946,1.439,1.562.925,2.22-.514.678-1.131.576-2.343-.391a15.721,15.721,0,0,0-24.894,8.017C153.4,142.068,153.359,142.4,153.236,142.932Z" transform="translate(-118.499 -118.304)" fill="#fff"/>
            <path id="Path_7305" data-name="Path 7305" d="M232.818,194.148a5.509,5.509,0,1,1-5.53-5.55A5.472,5.472,0,0,1,232.818,194.148Zm-8.675.021a3.226,3.226,0,0,0,3.145,3.269,3.29,3.29,0,0,0,.062-6.578A3.235,3.235,0,0,0,224.143,194.169Z" transform="translate(-177.215 -166.479)" fill="#fff"/>
          </g>
        </g>
      </g>
      <g id="Group_3018" data-name="Group 3018" transform="translate(17 -42)">
        <text id="Launch" transform="translate(776 1588)" fill="#2d2d2d" font-size="18" font-family="HKGrotesk-SemiBold, HK Grotesk" font-weight="600" letter-spacing="0.008em"><tspan x="-58.605" y="0">Launch</tspan></text>
        <g id="Group_3014" data-name="Group 3014" transform="translate(-483 297)">
          <circle id="Ellipse_268-7" data-name="Ellipse 268" cx="67" cy="67" r="67" transform="translate(1162 1105)" fill="#52c9bf"/>
          <g id="Layer_4" transform="translate(1183.41 1129)">
            <path id="Path_7281" data-name="Path 7281" d="M98.473,213.689c-.841,2.541-2.634,3.4-5.231,3.4q-40.525-.056-81.049-.019c-2.466,0-4.185-1.121-4.559-3.232a17.432,17.432,0,0,1-.112-4.073c.037-.785.71-1.084,1.495-1.084,1.812.019,3.606,0,5.568,0V160.8c0-4.017,2.261-6.3,6.259-6.3H36.574a3.877,3.877,0,0,1,1.14.112,1.181,1.181,0,0,1,.878,1.364,1.214,1.214,0,0,1-1.14,1.158,7.189,7.189,0,0,1-.9.019H20.824c-2.485,0-3.587,1.1-3.587,3.569v47.886h4.521a11.175,11.175,0,0,1,3.774-9.9,10.881,10.881,0,0,1,9.23-2.69c.43.056.729.112,1.046-.355,2.354-3.531,5.68-4.746,9.79-3.662.093.019.168.019.355.056a7.246,7.246,0,0,1,3.438-5.194,7.09,7.09,0,0,1,4.447-.934c3.027.3,5.362,2.578,6.166,6.109.3-.075.6-.149.9-.206a8.352,8.352,0,0,1,9.118,3.625c.28.43.523.673,1.1.579A11.284,11.284,0,0,1,84.18,208.2a2.772,2.772,0,0,0-.019.43H88.7v-48c0-2.279-1.158-3.438-3.456-3.438h-15.9a6.819,6.819,0,0,1-.878-.019,1.183,1.183,0,0,1-1.084-1.1,1.206,1.206,0,0,1,.822-1.4,3.815,3.815,0,0,1,1.14-.131H85.077c4.054,0,6.315,2.279,6.315,6.334V208.7c1.794,0,3.531.037,5.25-.019a1.868,1.868,0,0,1,1.868.915C98.473,210.962,98.473,212.325,98.473,213.689Zm-88.3-2.317c-.149,2.709.149,3.027,2.709,3.027H93.409a8.428,8.428,0,0,0,.972-.019,1.533,1.533,0,0,0,1.42-1.457c.037-.486,0-.99,0-1.551H33.51c-1.177,0-1.831-.486-1.831-1.345s.635-1.327,1.831-1.327H81.359c1.345-6.035-4.615-11.49-10.65-9.884-1.644.448-1.794.336-2.522-1.158a5.742,5.742,0,0,0-8.893-2.093,1.3,1.3,0,0,1-1.644.112,1.316,1.316,0,0,1-.523-1.569,4.3,4.3,0,0,0,.112-.523,4.139,4.139,0,0,0-1.924-4.353,4.279,4.279,0,0,0-4.839.093,4.119,4.119,0,0,0-1.756,4.428c.149.747.28,1.42-.43,1.906-.729.486-1.327.131-1.943-.318a5.69,5.69,0,0,0-8.669,2.429c-.542,1.27-.934,1.439-2.279,1.065a8.435,8.435,0,0,0-7.716,1.495c-2.541,1.943-3.886,5.586-3.064,8.314.9,0,1.812-.019,2.728,0a1.236,1.236,0,0,1,1.27,1.214,1.307,1.307,0,0,1-1.177,1.42,6.965,6.965,0,0,1-.878.019H11.183A4.345,4.345,0,0,1,10.174,211.373Z" transform="translate(-7.457 -131.737)" fill="#fff"/>
            <path id="Path_7282" data-name="Path 7282" d="M177.8,75.455c-.8,1.046-1.42,2.018-.841,3.4a18.2,18.2,0,0,1,.766,3.008c.28,1.233-.224,1.906-1.495,1.924-3.606.019-7.231.019-10.836,0-1.308,0-1.794-.691-1.495-2a17.348,17.348,0,0,1,.729-2.821,3.1,3.1,0,0,0-.841-3.512c-1.551.878-3.12,1.756-4.671,2.634-1.476.822-2.933,1.663-4.409,2.485-1.364.747-2.317.187-2.335-1.4-.019-1.1.019-2.186,0-3.288a6.211,6.211,0,0,1,1.551-4.316c1.887-2.2,3.7-4.465,5.586-6.67a1.685,1.685,0,0,0,.411-1.439c-1.476-11.565,1.625-21.673,9.734-30.136a1.389,1.389,0,0,1,2.354-.019,34.719,34.719,0,0,1,9.865,20.589,36.065,36.065,0,0,1-.131,9.828,1.583,1.583,0,0,0,.374,1.1c1.812,2.223,3.643,4.447,5.512,6.614a6.612,6.612,0,0,1,1.682,4.634c-.037,1.065,0,2.13-.019,3.195-.019,1.513-1.009,2.074-2.317,1.327-2.765-1.551-5.512-3.12-8.277-4.671C178.4,75.754,178.1,75.6,177.8,75.455Zm-7.044-.037c1.009,0,2.018-.037,3.027.019a1.245,1.245,0,0,0,1.327-.747,33.256,33.256,0,0,0,2.56-27.259c-.187-.6-.5-.729-1.084-.729-3.849.019-7.7.037-11.546,0a.988.988,0,0,0-1.121.822,33.335,33.335,0,0,0,2.485,27.016,1.44,1.44,0,0,0,1.607.9C168.93,75.361,169.846,75.417,170.761,75.417Zm.056-39.5a30.811,30.811,0,0,0-5.437,8.071h10.874A31.276,31.276,0,0,0,170.817,35.92ZM160.672,67.682c-.224.243-.43.448-.6.654-1.27,1.513-2.485,3.1-3.83,4.54a4.984,4.984,0,0,0-1.14,4.391c2.56-1.457,5.063-2.859,7.492-4.241C161.942,71.195,161.326,69.495,160.672,67.682Zm18.347,5.362c2.466,1.383,4.951,2.784,7.492,4.222a4.87,4.87,0,0,0-1.1-4.316c-.9-.934-1.681-1.98-2.522-2.989-.635-.766-1.27-1.513-1.962-2.317C180.29,69.513,179.673,71.251,179.019,73.044ZM174.778,81.1c-.224-.953-.392-1.794-.654-2.6-.056-.187-.43-.374-.654-.392-1.775-.037-3.55-.037-5.306,0-.224,0-.579.149-.635.3-.262.859-.448,1.738-.691,2.69Z" transform="translate(-125.296 -32.662)" fill="#fff"/>
            <path id="Path_7283" data-name="Path 7283" d="M226.623,142.91a5.605,5.605,0,1,1,5.568-5.586A5.538,5.538,0,0,1,226.623,142.91Zm.019-2.653a2.926,2.926,0,0,0,2.915-2.952,2.933,2.933,0,1,0-5.867.056A2.9,2.9,0,0,0,226.642,140.257Z" transform="translate(-181.102 -113.196)" fill="#fff"/>
          </g>
        </g>
      </g>
    </g>
  </g>
</svg>
