<?xml version="1.0" encoding="UTF-8"?>
<svg xmlns="http://www.w3.org/2000/svg" viewBox="0 0 214 161">
  <defs>
    <style>
      .cls-1 {
        fill: #fff;
      }

      .cls-2 {
        stroke-width: 1.56px;
      }

      .cls-2, .cls-3, .cls-4, .cls-5 {
        fill: none;
      }

      .cls-2, .cls-3, .cls-5 {
        stroke: #272754;
        stroke-linecap: round;
        stroke-linejoin: round;
      }

      .cls-6 {
        fill: #179bd7;
      }

      .cls-3 {
        stroke-width: 2.22px;
      }

      .cls-7 {
        fill: #18183d;
      }

      .cls-8 {
        fill: #ffb980;
      }

      .cls-9 {
        fill: #d2d2f7;
      }

      .cls-10 {
        fill: #272754;
      }

      .cls-11 {
        fill: #ffa25c;
      }

      .cls-12 {
        fill: #9ae6f7;
      }

      .cls-5 {
        stroke-width: 1.63px;
      }

      .cls-13 {
        opacity: .86;
      }
    </style>
  </defs>
  <g id="Layer_2" data-name="Layer 2">
    <rect class="cls-4" y="-.5" width="214" height="162"/>
  </g>
  <g id="Layer_3" data-name="Layer 3">
    <g id="client2-01" class="cls-13">
      <g id="OBJECTS">
        <path id="Path_553" data-name="Path 553" class="cls-12" d="M.19,119.93c1.64-.29,3.33-.28,4.97,.03,1.45,.22,2.91,.51,4.39,.61,4.26,.31,8.4-1.5,11.06-4.85,2.15-.28,4.33-.25,6.48,.09-3.25,.91-6.01,3.05-7.72,5.96-1.1,1.89-1.72,4.02-1.79,6.21,0,.08,.06,.15,.14,.15,.01,0,.02,0,.04,0,1.12-.36,2.18-.88,3.14-1.56,1.71-1.24,3.17-2.79,4.3-4.58,1.19-1.89,2.23-3.88,3.11-5.93,0,0,0-.01,0-.02,2.9,.62,5.65,1.79,8.11,3.45l.75,.66c1.25,1.07,2.56,2.07,3.92,2.99-1.11-.28-2.25-.46-3.39-.53-2.7-.17-5.41,.24-7.94,1.21-2.52,.97-4.8,2.47-6.7,4.38-.06,.06-.05,.15,0,.21,.03,.02,.06,.04,.09,.04,1.65-.03,3.31-.07,4.97-.1,1.45-.03,2.93-.04,4.39-.11,1.42-.04,2.84-.25,4.21-.62,2.17-.55,4-2.01,5.02-4l.11,.03c2.8,1.81,5.79,3.28,8.93,4.4,.36,.13,.51-.43,.16-.56-2.76-.98-5.41-2.25-7.9-3.78-.25-.16-.51-.32-.75-.48,.2-1.57,.36-3.13,.46-4.71,.08-1.48,.02-2.97-.18-4.44-.24-1.46-.64-2.9-1.2-4.27-1.09-2.76-2.51-5.43-2.91-8.4-.02-.16-.24-.13-.28,0-.56,1.64-.94,3.33-1.12,5.05-.31,3.08-.03,6.19,.83,9.16,.71,2.45,1.81,4.77,3.27,6.87-1.5-1.03-2.94-2.16-4.3-3.38-.02-.02-.03-.04-.05-.05l-.03-.02c-2-1.81-3.83-3.8-5.45-5.96-.59-.79-1.15-1.6-1.69-2.42,.72-1.22,1.33-2.51,1.8-3.84,.93-2.66,1.37-5.46,1.31-8.27-.06-2.81-.65-5.58-1.73-8.17-.04-.07-.13-.09-.2-.05-.02,.01-.04,.03-.05,.05-.63,1.42-1.15,2.89-1.56,4.39-.72,2.66-1.08,5.39-1.09,8.14,0,2.11,.22,4.21,.65,6.28-.91-1.53-1.72-3.12-2.42-4.75-.32-1.36-.56-2.74-.78-4.12-.35-3.07-1.14-6.07-2.35-8.91-1.06-2.36-2.91-4.28-5.23-5.42-.07-.04-.16-.02-.2,.05-.02,.03-.03,.07-.02,.11,.31,1.61,.63,3.22,1,4.81,.58,2.7,1.46,5.32,2.63,7.83,1.09,2.31,2.62,4.39,4.5,6.11,.31,.73,.64,1.42,1,2.12,.44,.88,.91,1.74,1.42,2.58-.68-.53-1.39-1.02-2.13-1.47-2.18-1.33-4.57-2.27-7.07-2.8-2.49-.52-5.05-.61-7.57-.26-.14,.02-.13,.2-.04,.26l4.21,3.15c1.03,.83,2.14,1.58,3.3,2.21,1.06,.52,2.19,.9,3.36,1.12,2.33,.45,4.74,.24,6.96-.6,1.52,2.32,3.27,4.49,5.21,6.47-.64-.34-1.29-.65-1.95-.93-1.47-.62-3.01-1.08-4.58-1.38-2.49-.47-5.03-.54-7.54-.2-7.04-3.25-15.39-1.41-20.42,4.49-.06,.06-.06,.15,0,.21,.04,.04,.09,.05,.15,.04h0Z"/>
        <path id="Path_554" data-name="Path 554" class="cls-12" d="M213.84,136.67c-1.64-.29-3.33-.28-4.97,.03-1.45,.22-2.91,.51-4.39,.61-1.43,.11-2.87-.03-4.25-.39-2.68-.72-5.07-2.28-6.8-4.46-2.15-.28-4.33-.25-6.48,.09,3.24,.92,6.01,3.05,7.72,5.96,1.1,1.89,1.71,4.02,1.79,6.21,0,.08-.07,.15-.15,.15-.01,0-.02,0-.03,0-1.12-.36-2.17-.88-3.13-1.56-1.71-1.24-3.17-2.79-4.3-4.58-1.19-1.89-2.23-3.88-3.11-5.93h0c-2.9,.62-5.65,1.79-8.11,3.45l-.75,.66c-1.25,1.07-2.55,2.06-3.91,2.98,1.11-.28,2.24-.46,3.39-.53,2.7-.17,5.41,.24,7.94,1.21,2.51,.97,4.79,2.46,6.69,4.37,.06,.06,.05,.15,0,.21-.03,.02-.06,.04-.09,.04l-4.97-.1c-1.45-.03-2.93-.04-4.39-.11-1.42-.04-2.84-.25-4.21-.62-2.17-.55-4-2.01-5.02-4l-.1,.02c-2.8,1.81-5.79,3.29-8.93,4.4-.36,.13-.52-.43-.16-.56,2.76-.99,5.41-2.25,7.9-3.78,.25-.16,.51-.31,.75-.48-.2-1.56-.38-3.13-.46-4.7-.09-1.48-.03-2.97,.17-4.44,.24-1.46,.64-2.9,1.2-4.27,1.09-2.76,2.52-5.43,2.91-8.41,0-.15,.24-.13,.28,0,.56,1.64,.93,3.33,1.11,5.05,.32,3.08,.03,6.19-.83,9.17-.71,2.45-1.81,4.77-3.27,6.87,1.51-1.03,2.94-2.16,4.3-3.38,.02-.02,.03-.04,.05-.05l.03-.02c2-1.81,3.83-3.8,5.45-5.96,.59-.79,1.15-1.6,1.69-2.42-.72-1.22-1.33-2.51-1.8-3.84-.93-2.66-1.38-5.46-1.31-8.27,.06-2.81,.65-5.58,1.73-8.17,.04-.07,.13-.09,.2-.05,.02,.01,.04,.03,.05,.05,2.6,5.92,3.3,12.5,2.01,18.83,.91-1.53,1.71-3.12,2.42-4.75,.32-1.36,.56-2.74,.79-4.12,.35-3.06,1.14-6.06,2.34-8.9,1.06-2.36,2.91-4.27,5.23-5.42,.07-.04,.16-.02,.2,.05,.02,.03,.02,.07,.02,.1-.31,1.61-.63,3.22-1,4.81-.58,2.7-1.47,5.33-2.64,7.83-1.09,2.31-2.62,4.39-4.51,6.12-.31,.73-.65,1.43-1,2.12-.44,.88-.92,1.74-1.42,2.58,.68-.53,1.39-1.03,2.12-1.48,2.18-1.32,4.58-2.26,7.07-2.78,2.49-.52,5.06-.61,7.58-.26,.14,.02,.13,.2,.04,.27l-4.21,3.15c-1.03,.84-2.13,1.58-3.3,2.21-3.22,1.59-6.95,1.78-10.32,.52-1.52,2.31-3.26,4.47-5.2,6.45,.64-.34,1.28-.65,1.95-.93,1.47-.62,3.01-1.08,4.58-1.37,2.49-.47,5.03-.54,7.54-.2,7.04-3.24,15.38-1.4,20.4,4.51,.05,.07,.03,.16-.03,.21-.03,.02-.07,.03-.1,.03h0Z"/>
        <path id="Path_555" data-name="Path 555" class="cls-12" d="M102.13,150.7c1.64-.29,3.33-.28,4.97,.03,1.45,.22,2.91,.51,4.39,.61,1.43,.11,2.87-.03,4.25-.39,2.68-.72,5.07-2.28,6.8-4.46,2.15-.28,4.33-.25,6.48,.09-1,.28-1.97,.68-2.87,1.2-2.01,1.13-3.68,2.77-4.85,4.76-1.1,1.89-1.72,4.03-1.79,6.23,0,.08,.07,.15,.15,.15,.01,0,.02,0,.03,0,1.12-.36,2.17-.88,3.13-1.56,1.71-1.24,3.17-2.8,4.3-4.58,1.19-1.89,2.23-3.87,3.11-5.93,0,0,0-.01,0-.02,2.9,.62,5.65,1.79,8.1,3.45,.25,.22,.5,.44,.75,.66,1.25,1.07,2.55,2.07,3.91,2.99-1.11-.28-2.24-.46-3.39-.53-2.7-.17-5.41,.24-7.94,1.21-2.52,.97-4.8,2.47-6.7,4.39-.06,.06-.05,.15,0,.21,.03,.02,.06,.04,.09,.04l4.97-.1c1.45-.03,2.93-.04,4.39-.11,1.43-.04,2.84-.25,4.22-.63,2.17-.55,4-2.01,5.02-4l.1,.03c2.8,1.81,5.8,3.28,8.94,4.39,.36,.13,.51-.43,.16-.56-2.76-.98-5.41-2.25-7.9-3.78-.25-.16-.51-.31-.75-.48,.2-1.56,.38-3.13,.46-4.7,.09-1.48,.03-2.97-.17-4.44-.24-1.46-.64-2.9-1.2-4.27-1.09-2.76-2.52-5.43-2.91-8.41-.02-.15-.24-.13-.28,0-.56,1.63-.94,3.33-1.11,5.05-.32,3.08-.03,6.19,.83,9.15,.71,2.45,1.81,4.77,3.27,6.87-1.51-1.03-2.94-2.16-4.3-3.38-.02-.02-.03-.04-.05-.05l-.03-.02c-2-1.81-3.83-3.8-5.45-5.96-.59-.79-1.15-1.6-1.69-2.42,.72-1.22,1.33-2.51,1.8-3.84,.93-2.66,1.38-5.46,1.31-8.27-.06-2.81-.65-5.58-1.73-8.17-.04-.07-.13-.09-.2-.05-.02,.01-.04,.03-.05,.05-2.6,5.92-3.3,12.49-2.01,18.83-.91-1.53-1.71-3.12-2.42-4.75-.32-1.36-.56-2.74-.79-4.12-.35-3.07-1.14-6.07-2.35-8.91-1.06-2.36-2.91-4.28-5.23-5.42-.07-.04-.16-.02-.2,.05-.02,.03-.02,.07-.02,.11,.31,1.61,.63,3.22,1,4.81,.58,2.7,1.47,5.33,2.64,7.83,1.09,2.31,2.62,4.39,4.5,6.11,.31,.73,.65,1.43,1,2.12,.44,.87,.91,1.73,1.42,2.58-.68-.53-1.39-1.03-2.13-1.48-2.18-1.32-4.57-2.26-7.07-2.78-2.49-.52-5.06-.61-7.58-.26-.13,.02-.13,.2-.04,.27l4.21,3.15c1.03,.84,2.13,1.58,3.3,2.21,3.22,1.58,6.94,1.76,10.3,.51,1.52,2.31,3.26,4.47,5.2,6.45-.64-.34-1.28-.65-1.95-.93-1.47-.62-3.01-1.08-4.58-1.37-2.49-.47-5.03-.54-7.54-.2-7.05-3.24-15.39-1.4-20.42,4.51-.06,.06-.07,.15-.01,.21,.04,.05,.11,.06,.17,.04h0Z"/>
        <path id="Path_556" data-name="Path 556" class="cls-12" d="M71.98,41.55l14.93-6.64c3.56,1.92,7.55,2.91,11.59,2.89,12.04,0,21.81-8.46,21.81-18.9S110.54,0,98.5,0s-21.81,8.45-21.81,18.9c.04,4.48,1.81,8.77,4.94,11.97l-9.65,10.68Z"/>
        <path id="Path_557" data-name="Path 557" class="cls-10" d="M80.39,136.26l-20.29,5.48-7.4,19.92H22.94l6.83-39.85s10.42,11.66,50.24,5.58l.39,8.86Z"/>
        <path id="Path_558" data-name="Path 558" class="cls-7" d="M81.54,161.67h-28.83l7.4-19.92,20.29-5.48,1.14,25.41Z"/>
        <path id="Path_559" data-name="Path 559" class="cls-6" d="M78.91,103.57l1.09,23.82c-39.81,6.08-50.24-5.58-50.24-5.58l1.45-8.48,2.91-16.94s-11-30.53-8.02-39.65c.01-.04,.02-.07,.04-.11l.03-.1c3.24-8.83,17.18-13.73,17.18-13.73,0,0,5.93,10.72,13,10.4,5.09-.23,4.5-4.43,4.5-4.43l-.16-3.17s10.8,.88,15.54,8.36,13.67,49.61,13.67,49.61h-10.99Z"/>
        <line id="Line_104" data-name="Line 104" class="cls-3" x1="71.09" y1="65.95" x2="73.76" y2="77.95"/>
        <path id="Path_560" data-name="Path 560" class="cls-9" d="M115.64,95.12c-.32-.48-.75-.87-1.25-1.16,1.8-1.01,2.44-3.29,1.42-5.09-.54-.96-1.47-1.63-2.55-1.84l-7.97-1.54,2.96-9.8c.24-.76,.39-1.55,.45-2.35,.22-1.78-.41-3.55-1.69-4.8-1.12-1.01-2.85-.93-3.87,.19-.34,.38-.57,.84-.66,1.34l-.53,2.73c-.47,2.43-1.82,4.61-3.8,6.1l-.87,.65c-1.55,1.17-3.4,1.86-5.34,1.99l-3.85,.63-2.45,.4-8.29,1.34-3.55,18.4,4.03,1.7,9.2,3.88c3.55,1.5,7.24,2.62,11.03,3.36l7.77,1.5c1.81,.38,3.64-.59,4.34-2.3,.44-1.14,.29-2.43-.4-3.44l-.02-.02c2.05,.2,3.88-1.3,4.08-3.35,.08-.87-.14-1.74-.63-2.46-.06-.09-.12-.17-.18-.25,2.04-.28,3.48-2.16,3.2-4.2-.08-.57-.29-1.12-.61-1.59h0Z"/>
        <path id="Path_561" data-name="Path 561" class="cls-10" d="M74.44,106.25l-11.79-3.26,7.21-26.12,9.07,2.5-4.49,26.88Z"/>
        <path id="Path_562" data-name="Path 562" class="cls-8" d="M72.01,12.65V30.83c-.02,6.38-5.1,11.6-11.48,11.79l.15,3,.16,3.17s.59,4.2-4.5,4.43c-7.07,.33-13-10.4-13-10.4l4.32-12.36c-1.15-.13-2.2-.75-2.88-1.69-.67-.94-1.08-2.03-1.21-3.17-.17-1.02-.08-2.06,.25-3.04,.05-.14,.11-.28,.18-.41,.51-1.09,1.57-1.81,2.76-1.9,1.01,0,1.92,.61,2.28,1.56l3.29-8.92c4.68,.8,9.45,1.56,14.18,1.07,1.88-.2,3.72-.63,5.49-1.29Z"/>
        <path id="Path_563" data-name="Path 563" class="cls-11" d="M66.29,22.84l-3.1,9.51,4.51-.06-1.41-9.45Z"/>
        <path id="Path_564" data-name="Path 564" class="cls-10" d="M80.31,5.34c-.21,.81-.6,1.57-1.14,2.22-1.86,2.34-4.35,4.1-7.17,5.09-1.78,.66-3.63,1.08-5.51,1.27-4.73,.49-9.48-.27-14.18-1.07l-3.29,8.92c-.36-.95-1.27-1.57-2.28-1.56-1.2,.09-2.25,.81-2.76,1.9-.07,.13-.13,.27-.18,.41l-1.33-5.35c-.37-1.33-.58-2.69-.64-4.07-.07-1.39,.35-2.76,1.19-3.87,1.07-1.26,2.74-1.85,4.36-1.54-.18-1.75,.79-3.42,2.4-4.13,1.6-.66,3.32-.97,5.05-.9l9.62-.29,11.85-.36c1.26-.04,2.71,0,3.54,.96,.51,.67,.69,1.54,.48,2.36h0Z"/>
        <path id="Path_565" data-name="Path 565" class="cls-10" d="M60.54,42.6l.15,2.99h0c-6.14,.02-9.25-6.95-9.25-6.95,1.09,1.22,2.42,2.2,3.9,2.89,1.53,.7,3.2,1.07,4.89,1.07h.31"/>
        <path id="Path_566" data-name="Path 566" class="cls-5" d="M66.29,22.84l1.41,9.45-4.51,.06"/>
        <path id="Path_567" data-name="Path 567" class="cls-2" d="M44.59,24.34c.03-.52,.23-1.01,.59-1.39,.36-.38,.89-.55,1.4-.45,.63,.22,1.11,.73,1.29,1.37,.35,.98,.35,2.05,0,3.02-.11,.43-.4,.79-.8,.98-.45,.13-.94-.04-1.22-.42-.27-.38-.41-.83-.4-1.29-.05-.31,.06-.63,.29-.85,.29-.16,.65-.1,.87,.15,.2,.25,.31,.56,.32,.89"/>
        <ellipse id="Ellipse_132" data-name="Ellipse 132" class="cls-10" cx="59.54" cy="22.61" rx="2.01" ry="1.69" transform="translate(26.05 76.78) rotate(-79.06)"/>
        <ellipse id="Ellipse_133" data-name="Ellipse 133" class="cls-10" cx="69" cy="23.2" rx="2.01" ry="1.69" transform="translate(33.12 86.55) rotate(-79.06)"/>
        <path id="Path_568" data-name="Path 568" class="cls-10" d="M60.87,18.13c-.9-.07-1.8-.02-2.69,.15-1.25,.25-.97,2.21,.29,1.96,.71-.15,1.44-.2,2.16-.14,1.27,.09,1.52-1.88,.24-1.97Z"/>
        <path id="Path_569" data-name="Path 569" class="cls-10" d="M68.76,18.57c.9,.04,1.79,.2,2.65,.48,1.21,.4,.69,2.32-.53,1.91-.69-.23-1.4-.37-2.12-.41-1.27-.06-1.28-2.04,0-1.99Z"/>
        <ellipse id="Ellipse_134" data-name="Ellipse 134" class="cls-1" cx="58.79" cy="33.33" rx="2.54" ry="1.81" transform="translate(-4.42 57.25) rotate(-50.28)"/>
        <circle id="Ellipse_135" data-name="Ellipse 135" class="cls-11" cx="53.92" cy="29.52" r="3.25"/>
        <path id="Path_570" data-name="Path 570" class="cls-6" d="M71.09,105.72l-1.61,13.18s-28.94,1.45-37.62-4.98c-7.45-5.52-8.69-41.2-6.18-55.57,.87-5.2,5.8-8.71,11-7.83,1.15,.19,2.26,.6,3.27,1.19l.1,.06c4.61,2.89,7.3,8.04,7.03,13.47l-1.4,34.04,25.41,6.43Z"/>
        <path id="Path_571" data-name="Path 571" class="cls-8" d="M70.97,106.7l-1.38,11.36s12.81,.82,17.53-.49,6.75-4.05,6.32-4.82c0,0,3.16-2.68,2.47-4.18,0,0,.56-1.32-.43-1.86,0,0,1.91-2.09,.43-2.42s-11.57,2.91-14.39,2.54c0,0,7.18-5.47,6.59-6.74s-9.18,3.5-9.18,3.5l-7.95,3.12Z"/>
        <path id="Path_572" data-name="Path 572" class="cls-3" d="M47.08,65.25l-1.4,34.04,25.41,6.43-1.61,13.18s-28.94,1.45-37.62-4.98c-1.09-.92-1.95-2.07-2.51-3.38"/>
        <path id="Path_573" data-name="Path 573" class="cls-3" d="M95.5,106.61c-3.19,1.59-6.53,2.87-9.96,3.85"/>
        <path id="Path_574" data-name="Path 574" class="cls-3" d="M95.86,108.65c-3.02,2.24-6.49,3.79-10.18,4.55"/>
        <path id="Path_575" data-name="Path 575" class="cls-3" d="M93.41,112.92c-2.54,1.27-5.25,2.16-8.05,2.64"/>
      </g>
    </g>
  </g>
</svg>