<?xml version="1.0" encoding="UTF-8"?>
<svg xmlns="http://www.w3.org/2000/svg" viewBox="0 0 214 161">
  <defs>
    <style>
      .cls-1, .cls-2 {
        fill: #fff;
      }

      .cls-3 {
        fill: #179bd7;
      }

      .cls-4 {
        opacity: .87;
      }

      .cls-5, .cls-6, .cls-7, .cls-8 {
        fill: none;
      }

      .cls-5, .cls-6, .cls-7, .cls-2 {
        stroke: #272754;
        stroke-linecap: round;
        stroke-linejoin: round;
      }

      .cls-5, .cls-2 {
        stroke-width: 1.97px;
      }

      .cls-6 {
        stroke-width: 2.22px;
      }

      .cls-9 {
        fill: #18183d;
      }

      .cls-10 {
        fill: #ffb980;
      }

      .cls-11 {
        fill: #272754;
      }

      .cls-12 {
        fill: #ffa25c;
      }

      .cls-7 {
        stroke-width: 1.61px;
      }

      .cls-13 {
        fill: #9ae6f7;
      }
    </style>
  </defs>
  <g id="Layer_2" data-name="Layer 2">
    <rect class="cls-8" y="-.5" width="214" height="162"/>
  </g>
  <g id="Layer_1" data-name="Layer 1">
    <g id="client1-01" class="cls-4">
      <path id="Path_526" data-name="Path 526" class="cls-13" d="M.22,131.99c1.71-.3,3.47-.29,5.17,.03,1.51,.23,3.03,.53,4.57,.64,4.44,.33,8.75-1.57,11.51-5.05,2.24-.29,4.51-.26,6.75,.1-3.38,.95-6.26,3.18-8.04,6.21-1.15,1.97-1.79,4.19-1.86,6.47,0,.08,.06,.15,.15,.16,.01,0,.03,0,.04,0,1.17-.37,2.27-.92,3.27-1.62,1.78-1.29,3.3-2.91,4.48-4.77,1.24-1.97,2.32-4.04,3.23-6.18,0,0,0-.01,0-.02,3.02,.65,5.88,1.87,8.44,3.6l.78,.69c1.3,1.12,2.66,2.16,4.08,3.11-1.16-.29-2.34-.48-3.53-.56-2.81-.18-5.63,.25-8.27,1.26-2.62,1.01-5,2.57-6.98,4.57-.06,.06-.06,.16,0,.22,.03,.03,.06,.04,.1,.04,1.72-.03,3.45-.07,5.18-.1,1.51-.03,3.05-.04,4.57-.11,1.48-.04,2.96-.26,4.39-.65,2.26-.57,4.16-2.09,5.22-4.16l.11,.03c2.91,1.88,6.03,3.42,9.3,4.58,.38,.13,.53-.45,.17-.58-2.87-1.03-5.63-2.35-8.23-3.94-.27-.16-.53-.33-.78-.5,.2-1.63,.38-3.26,.48-4.9,.09-1.54,.02-3.09-.19-4.62-.25-1.53-.66-3.02-1.25-4.45-1.14-2.87-2.62-5.66-3.03-8.75-.02-.16-.25-.14-.29,0-.59,1.7-.98,3.47-1.16,5.26-.33,3.21-.03,6.45,.86,9.54,.74,2.55,1.89,4.97,3.41,7.15-1.57-1.08-3.06-2.25-4.48-3.52-.02-.02-.03-.04-.05-.06l-.03-.02c-2.09-1.88-3.99-3.96-5.68-6.21-.62-.82-1.2-1.67-1.76-2.52,.75-1.27,1.38-2.61,1.87-4,.97-2.76,1.43-5.68,1.36-8.61-.07-2.92-.68-5.81-1.81-8.5-.04-.07-.13-.1-.21-.05-.02,.01-.04,.03-.05,.05-.65,1.48-1.19,3.01-1.62,4.57-.75,2.77-1.13,5.62-1.14,8.48,0,2.2,.23,4.39,.68,6.54-.94-1.59-1.79-3.25-2.52-4.95-.34-1.42-.58-2.85-.82-4.29-.36-3.19-1.19-6.32-2.45-9.28-1.1-2.46-3.03-4.45-5.45-5.64-.07-.04-.16-.02-.21,.05-.02,.03-.03,.08-.02,.11,.33,1.68,.65,3.35,1.05,5.01,.6,2.81,1.52,5.55,2.74,8.15,1.13,2.41,2.73,4.57,4.69,6.37,.33,.76,.67,1.48,1.04,2.21,.46,.91,.95,1.81,1.48,2.68-.7-.55-1.44-1.06-2.21-1.53-2.27-1.38-4.76-2.36-7.37-2.91-2.59-.55-5.26-.64-7.89-.27-.14,.02-.13,.21-.04,.27l4.39,3.29c1.07,.87,2.22,1.64,3.44,2.31,1.11,.55,2.28,.94,3.5,1.16,2.43,.46,4.93,.25,7.24-.63,1.58,2.42,3.4,4.68,5.42,6.74-.67-.35-1.34-.68-2.03-.97-1.53-.64-3.13-1.12-4.77-1.43-2.59-.49-5.24-.56-7.85-.21-7.34-3.38-16.03-1.47-21.26,4.68-.06,.06-.06,.16,0,.22,.04,.04,.1,.06,.15,.04h0Z"/>
      <path id="Path_527" data-name="Path 527" class="cls-13" d="M213.16,135.27c-1.71-.3-3.47-.29-5.17,.03-1.51,.23-3.03,.53-4.58,.64-1.49,.11-2.99-.03-4.43-.41-2.8-.75-5.28-2.38-7.08-4.64-2.24-.29-4.51-.26-6.75,.1,3.38,.96,6.26,3.18,8.04,6.2,1.14,1.97,1.78,4.19,1.86,6.47,0,.09-.07,.16-.15,.16-.01,0-.02,0-.04,0-1.16-.37-2.26-.92-3.26-1.62-1.78-1.29-3.3-2.91-4.48-4.77-1.24-1.97-2.32-4.04-3.24-6.18h0c-3.02,.65-5.88,1.87-8.44,3.6l-.78,.69c-1.3,1.11-2.66,2.15-4.07,3.11,1.16-.29,2.34-.48,3.53-.56,2.82-.18,5.64,.25,8.27,1.26,2.62,1.01,4.99,2.56,6.97,4.55,.06,.06,.06,.16,0,.22-.03,.02-.06,.04-.1,.04l-5.18-.1c-1.51-.03-3.05-.04-4.58-.11-1.48-.04-2.96-.26-4.39-.65-2.26-.57-4.16-2.09-5.22-4.16l-.11,.03c-2.91,1.88-6.03,3.42-9.3,4.59-.38,.13-.54-.45-.17-.58,2.87-1.03,5.63-2.35,8.23-3.94,.27-.16,.53-.33,.78-.5-.2-1.63-.4-3.26-.48-4.9-.09-1.54-.03-3.09,.18-4.62,.25-1.52,.67-3.02,1.25-4.45,1.14-2.87,2.62-5.66,3.03-8.75,0-.16,.25-.13,.29,0,.58,1.7,.97,3.47,1.16,5.26,.33,3.21,.04,6.45-.86,9.55-.74,2.55-1.89,4.97-3.41,7.15,1.57-1.08,3.06-2.25,4.48-3.52,.02-.02,.03-.04,.05-.05l.03-.02c2.09-1.88,3.99-3.96,5.68-6.2,.62-.82,1.2-1.66,1.76-2.52-.75-1.27-1.38-2.61-1.87-4-.97-2.77-1.43-5.68-1.36-8.62,.06-2.92,.67-5.81,1.8-8.5,.04-.07,.14-.1,.21-.05,.02,.01,.04,.03,.05,.05,2.71,6.16,3.44,13.01,2.09,19.61,.94-1.6,1.79-3.25,2.52-4.95,.34-1.42,.58-2.85,.82-4.29,.36-3.19,1.19-6.32,2.44-9.28,1.11-2.46,3.03-4.45,5.45-5.64,.07-.04,.16-.02,.21,.06,.02,.03,.02,.07,.02,.11-.33,1.68-.65,3.35-1.04,5.01-.61,2.81-1.53,5.55-2.75,8.15-1.14,2.41-2.73,4.57-4.69,6.37-.33,.76-.67,1.49-1.04,2.21-.46,.91-.95,1.81-1.48,2.68,.7-.56,1.44-1.07,2.21-1.54,2.27-1.37,4.76-2.35,7.37-2.9,2.6-.55,5.27-.64,7.89-.27,.14,.02,.13,.21,.04,.28l-4.39,3.29c-1.07,.87-2.22,1.64-3.44,2.3-3.35,1.66-7.24,1.85-10.74,.54-1.59,2.41-3.4,4.66-5.42,6.71,.67-.35,1.33-.68,2.03-.97,1.54-.64,3.13-1.12,4.77-1.43,2.59-.49,5.24-.56,7.85-.21,7.33-3.38,16.02-1.46,21.25,4.69,.05,.07,.04,.17-.03,.22-.03,.02-.07,.03-.11,.03h0Z"/>
      <path id="Path_528" data-name="Path 528" class="cls-13" d="M64.58,147.08c1.71-.3,3.47-.29,5.17,.03,1.51,.23,3.03,.53,4.58,.64,1.49,.11,2.99-.03,4.43-.41,2.79-.75,5.28-2.38,7.08-4.64,2.24-.29,4.51-.26,6.75,.1-1.04,.29-2.05,.71-2.99,1.24-2.09,1.18-3.83,2.89-5.04,4.96-1.15,1.97-1.79,4.2-1.86,6.48,0,.09,.07,.16,.15,.16,.01,0,.02,0,.04,0,1.16-.37,2.26-.92,3.26-1.62,1.78-1.29,3.3-2.91,4.48-4.77,1.24-1.97,2.32-4.03,3.24-6.17,0,0,0-.01,0-.02,3.02,.65,5.88,1.87,8.44,3.6,.26,.23,.52,.46,.78,.68,1.3,1.11,2.66,2.15,4.07,3.11-1.16-.29-2.34-.48-3.53-.56-2.82-.18-5.64,.25-8.27,1.26-2.62,1.01-5,2.57-6.97,4.57-.06,.06-.06,.16,0,.22,.03,.02,.06,.04,.1,.04l5.18-.11c1.51-.03,3.05-.04,4.57-.11,1.48-.04,2.96-.26,4.39-.66,2.26-.57,4.17-2.09,5.23-4.16l.11,.03c2.91,1.88,6.03,3.42,9.3,4.59,.38,.13,.53-.45,.17-.58-2.87-1.02-5.63-2.34-8.23-3.94-.27-.16-.53-.33-.78-.5,.2-1.63,.4-3.26,.48-4.9,.09-1.54,.03-3.09-.18-4.62-.25-1.52-.67-3.02-1.25-4.45-1.14-2.87-2.62-5.66-3.03-8.75-.02-.16-.25-.13-.29,0-.59,1.7-.97,3.47-1.16,5.26-.33,3.2-.04,6.44,.86,9.53,.74,2.55,1.89,4.97,3.41,7.15-1.57-1.08-3.06-2.25-4.48-3.52-.02-.02-.03-.04-.05-.05l-.03-.02c-2.09-1.88-3.99-3.96-5.68-6.2-.62-.82-1.2-1.66-1.76-2.52,.75-1.27,1.38-2.61,1.87-4,.97-2.77,1.43-5.68,1.36-8.62-.07-2.92-.68-5.81-1.8-8.5-.04-.07-.14-.1-.21-.05-.02,.01-.04,.03-.05,.05-2.71,6.16-3.44,13.01-2.09,19.61-.94-1.6-1.79-3.25-2.52-4.95-.34-1.42-.58-2.85-.82-4.29-.52-3.15-1.03-6.37-2.45-9.28-1.1-2.46-3.03-4.45-5.45-5.64-.07-.04-.16-.02-.21,.05-.02,.03-.03,.07-.02,.11,.33,1.68,.65,3.35,1.04,5.01,.61,2.81,1.53,5.55,2.75,8.15,1.14,2.41,2.73,4.57,4.69,6.37,.33,.76,.67,1.49,1.04,2.21,.46,.91,.95,1.81,1.48,2.68-.71-.56-1.45-1.07-2.21-1.54-2.27-1.37-4.76-2.35-7.36-2.9-2.6-.54-5.27-.63-7.89-.27-.14,.02-.13,.21-.04,.28l4.39,3.29c1.07,.87,2.23,1.64,3.44,2.3,3.35,1.65,7.23,1.84,10.73,.53,1.59,2.41,3.4,4.66,5.42,6.71-.67-.35-1.33-.68-2.03-.97-1.53-.64-3.13-1.12-4.77-1.43-2.59-.49-5.24-.57-7.85-.21-7.34-3.37-16.03-1.46-21.26,4.69-.06,.06-.07,.15-.01,.22,.05,.05,.12,.07,.18,.04h0Z"/>
      <path id="Path_529" data-name="Path 529" class="cls-13" d="M147.1,42.97l-15.56-6.91c-3.71,1.99-7.86,3.02-12.07,3.01-12.54,0-22.71-8.81-22.71-19.68S106.94-.3,119.47-.3s22.71,8.8,22.71,19.68c-.04,4.66-1.88,9.13-5.14,12.46l10.05,11.12Z"/>
      <path id="Path_530" data-name="Path 530" class="cls-3" d="M180.74,115.58c1.74,2.75,3.3,5.61,4.65,8.56-24.05,6.06-39.19,2.14-44.24,.34,1.74-13.23,3.49-23.97,3.49-23.97l-14.35-1.05s9.58-34.02,12.59-37.59c2.69-3.18,14.74-6.47,16.58-6.79l-.2,2.51s-1.19,8.46,4.92,8.41,12.53-11.85,12.53-11.85c3.91,1.71,7.68,3.71,11.29,5.99l-7.25,55.41Z"/>
      <path id="Path_531" data-name="Path 531" class="cls-11" d="M194.19,161.3h-28.94l-5.8-19.78-19.47-7.66c.38-3.18,.76-6.34,1.17-9.36,5.05,1.79,20.19,5.73,44.24-.34,8.34,18.12,8.8,37.15,8.8,37.15Z"/>
      <path id="Path_532" data-name="Path 532" class="cls-9" d="M165.25,161.3h-27.5c.12-7.53,1.07-17.63,2.21-27.44l19.47,7.66,5.82,19.78Z"/>
      <line id="Line_99" data-name="Line 99" class="cls-6" x1="151.02" y1="68.85" x2="146.69" y2="79.96"/>
      <path id="Path_533" data-name="Path 533" class="cls-2" d="M146.18,85.97l-2.67,21.85-5.12,.45-11.68,1.02c-4.51,.39-9.04,.31-13.54-.23l-9.23-1.14c-2.16-.23-3.85-1.97-4.02-4.13-.08-1.44,.55-2.82,1.68-3.71l.03-.02c-2.37-.52-3.87-2.86-3.35-5.23,.22-1,.78-1.89,1.59-2.52,.09-.08,.19-.15,.29-.21-2.18-1.05-3.1-3.67-2.06-5.85,.29-.61,.72-1.14,1.25-1.56,.53-.42,1.15-.7,1.81-.84-1.65-1.78-1.55-4.56,.23-6.2,.95-.88,2.24-1.3,3.53-1.14l9.46,1.14,.22-12.02c0-.93,.13-1.86,.35-2.77,.4-2.06,1.74-3.82,3.61-4.76,.77-.36,1.66-.39,2.45-.08,1.38,.54,2.22,1.94,2.05,3.41l-.38,3.24c-.35,2.89,.38,5.8,2.04,8.18l.73,1.04c1.31,1.87,3.13,3.32,5.25,4.16l4.08,2.09,2.59,1.32,8.77,4.51Z"/>
      <path id="Path_534" data-name="Path 534" class="cls-11" d="M140.39,78.96l14.27,1.74-3.86,31.59-10.96-1.34,.55-31.99Z"/>
      <line id="Line_100" data-name="Line 100" class="cls-5" x1="114.4" y1="77.65" x2="119.41" y2="78.26"/>
      <line id="Line_101" data-name="Line 101" class="cls-5" x1="101.18" y1="83.84" x2="106.12" y2="84.41"/>
      <line id="Line_102" data-name="Line 102" class="cls-5" x1="100.17" y1="92.09" x2="105.23" y2="92.52"/>
      <line id="Line_103" data-name="Line 103" class="cls-5" x1="101.61" y1="100.08" x2="105.28" y2="100.25"/>
      <path id="Path_535" data-name="Path 535" class="cls-3" d="M141.66,104.76l.61,11.56s33.02,1.98,38.48-.73,20.47-47.4,7.26-55.42c-13.78-8.38-18.04,42.29-18.04,42.29l-28.3,2.3Z"/>
      <path id="Path_536" data-name="Path 536" class="cls-10" d="M141.8,107.58l-6.92-2.71s-6.35-4.02-8.52-3.15,4.99,5.68,4.99,5.68c0,0-11.22,.11-14.44-.56s0,2.94,0,2.94c0,0-2.02,.69-1.09,2.05s1.87,1.26,1.87,1.26c0,0-1.95,.3-1.87,1.23s2.91,1.69,5.63,2.12c0,0-2.6,.15-2.49,1s4.75,3.09,23.33-1.49l-.49-8.38Z"/>
      <path id="Path_537" data-name="Path 537" class="cls-6" d="M117.16,109.89c3.25,.72,6.57,1.04,9.89,.95"/>
      <path id="Path_538" data-name="Path 538" class="cls-6" d="M117.64,113.19c2.93,.5,5.91,.69,8.88,.56"/>
      <path id="Path_539" data-name="Path 539" class="cls-6" d="M121.14,116.55c2.06,.23,4.13,.26,6.19,.08"/>
      <path id="Path_540" data-name="Path 540" class="cls-6" d="M173.93,76.61l-3.97,25.84-28.3,2.31,.61,11.56s33.02,1.98,38.48-.73c.82-.55,1.5-1.28,1.99-2.14"/>
      <path id="Path_541" data-name="Path 541" class="cls-10" d="M176.71,54.18s-6.4,11.79-12.53,11.85-4.92-8.41-4.92-8.41l.2-2.51,.3-3.83c-5.36-.56-9.57-4.82-10.06-10.19l-1.14-12.87,.02-.25c.29,.14,.58,.26,.89,.36,2.35,.65,4.84,.59,7.16-.16,4.12-1.13,7.88-3.29,10.94-6.28,.91,3.3,1.82,6.6,2.73,9.9,.5-.75,1.33-1.22,2.23-1.26,1.3,.03,2.48,.75,3.1,1.89,.16,.29,.3,.6,.4,.92,.26,.9,.3,1.84,.14,2.76-.38,2.16-1.64,4.07-3.49,5.25,.57,1.8,1.14,3.6,1.71,5.4,.76,2.47,1.54,4.94,2.32,7.41Z"/>
      <path id="Path_542" data-name="Path 542" class="cls-11" d="M176.01,33.33c-.1-.32-.23-.63-.4-.92-.62-1.14-1.8-1.86-3.1-1.89-.9,.04-1.73,.5-2.23,1.26-.91-3.3-1.82-6.6-2.73-9.9-3.06,2.99-6.82,5.15-10.94,6.28-2.32,.75-4.81,.81-7.16,.16-.3-.1-.6-.22-.89-.36-2.99-1.49-4.82-4.61-4.67-7.95-.02-1.3,.64-2.52,1.75-3.2,.83-.28,1.72-.37,2.59-.27,5.76,0,10.78-4.65,16.53-4.54,2.34,.09,4.59,.91,6.43,2.36,1.85,1.41,3.32,3.26,4.26,5.39,1.88,4.25,1.74,9.14,.55,13.6Z"/>
      <path id="Path_543" data-name="Path 543" class="cls-11" d="M186.66,36.13c3,3.33,2.74,8.47-.6,11.48-3.33,3-8.47,2.74-11.48-.6-.08-.08-.15-.17-.22-.26-.57-1.8-1.14-3.6-1.71-5.4,1.85-1.19,3.11-3.09,3.49-5.25,.17-.92,.12-1.86-.14-2.76,1.19-4.46,1.33-9.35-.53-13.58-.94-2.13-2.41-3.98-4.26-5.39,1.53-3,5.2-4.19,8.2-2.66,1,.51,1.84,1.29,2.43,2.25,1.38,2.27,1.17,5.12,2.06,7.61,.74,1.71,1.69,3.32,2.83,4.8,1.14,1.48,1.9,3.21,2.21,5.06,.28,1.89-.63,3.76-2.29,4.71Z"/>
      <path id="Path_544" data-name="Path 544" class="cls-11" d="M159.75,51.27c.38,.04,.76,.06,1.14,.06,.33,0,.67,0,1-.05,3.22-.29,6.16-1.95,8.07-4.57,0,0-2.54,7.24-10.45,7.7l.25-3.15"/>
      <path id="Path_545" data-name="Path 545" class="cls-11" d="M161.51,29.85c.97-.03,1.94,.07,2.88,.3,1.32,.33,.92,2.42-.41,2.09-.75-.2-1.53-.29-2.31-.27-1.36,.04-1.53-2.09-.16-2.12Z"/>
      <path id="Path_546" data-name="Path 546" class="cls-11" d="M152.41,29.95c-.97,0-1.94,.12-2.87,.38-1.31,.38-.86,2.45,.46,2.08,.75-.21,1.52-.32,2.3-.33,1.36-.02,1.48-2.13,.11-2.13Z"/>
      <circle id="Ellipse_131" data-name="Ellipse 131" class="cls-12" cx="166.66" cy="40.17" r="3.18"/>
      <path id="Path_547" data-name="Path 547" class="cls-1" d="M157.81,45.62c.98,1.6,3.06,2.1,4.66,1.13,1.36-.83,1.95-2.49,1.44-3.99-.71-1.51-1.85-.03-3.54,.76s-3.28,.59-2.56,2.1Z"/>
      <path id="Path_548" data-name="Path 548" class="cls-12" d="M158.45,42.31l-3.8-.1,1.62-9.79,2.18,9.88Z"/>
      <path id="Path_549" data-name="Path 549" class="cls-7" d="M156.21,32.97l-1.55,9.24,3.23,.1"/>
      <path id="Path_550" data-name="Path 550" class="cls-7" d="M175.32,34.43c-.03-.55-.25-1.08-.63-1.49-.39-.41-.96-.6-1.51-.48-.67,.24-1.19,.79-1.38,1.48-.38,1.05-.38,2.2,0,3.25,.12,.46,.43,.84,.86,1.05,.49,.14,1.01-.04,1.31-.45,.29-.41,.44-.9,.44-1.4,.05-.34-.06-.68-.31-.92-.31-.17-.7-.1-.93,.16-.22,.27-.34,.6-.34,.95"/>
      <path id="Path_551" data-name="Path 551" class="cls-7" d="M149.67,34.35c1.1,.97,2.77,.86,3.74-.24,.07-.08,.13-.16,.19-.25"/>
      <path id="Path_552" data-name="Path 552" class="cls-7" d="M160.77,33.99c1.1,.97,2.77,.86,3.74-.24,.07-.08,.13-.16,.19-.25"/>
    </g>
  </g>
</svg>