<svg xmlns="http://www.w3.org/2000/svg" width="99.498" height="75.868" viewBox="0 0 99.498 75.868">
  <g id="automotive_copy-01" data-name="automotive copy-01" transform="translate(-16.97 -73.024)">
    <path id="Path_837" data-name="Path 837" d="M16.985,130.024c1.123-.165,2.249-.327,3.515-.511.011-.205.039-.546.041-.888,0-2.431-.024-4.859.026-7.29a2.262,2.262,0,0,1,.49-1.38,31.089,31.089,0,0,1,10.159-7.662,25.705,25.705,0,0,1,9.151-2.589c4.1-.214,8.207-.274,12.3-.173,1.5.036,1.932-.954,2.63-1.752,2.7-3.092,5.161-6.425,8.085-9.288a38.51,38.51,0,0,1,13.683-8.483A40.08,40.08,0,0,1,87.634,87.5a26.347,26.347,0,0,1,2.687-.173c.779.013,1.008-.289,1-1.033-.03-2.786.015-5.571-.028-8.357a1.527,1.527,0,0,1,.939-1.6c2.045-.995,4.067-2.037,6.113-3.032,1.17-.569,1.782-.18,1.787,1.106.011,2.17.026,4.341-.011,6.511-.011.663.131,1.125.809,1.337a5.758,5.758,0,0,1,.687.349c.807.381,1.716,1.2,2.4,1.036a13.8,13.8,0,0,0,3.575-1.812c.184-.107.229-.558.231-.849.019-2.236.006-4.47.013-6.705,0-1.085.638-1.545,1.62-1.061,2.242,1.1,4.452,2.262,6.658,3.432a.923.923,0,0,1,.336.7c.019,4.082.032,8.165-.017,12.245a1.426,1.426,0,0,1-.719.967c-1.752.933-3.537,1.812-5.328,2.672a1.152,1.152,0,0,0-.738,1.2q.026,16.522,0,33.044a1.211,1.211,0,0,0,.8,1.252c1.81.89,3.605,1.81,5.37,2.786a1.381,1.381,0,0,1,.623,1q.064,5.976,0,11.954a1.285,1.285,0,0,1-.565.937c-2,1.087-4.02,2.122-6.049,3.149-1.38.7-1.994.317-1.994-1.2,0-2.137-.019-4.277.013-6.414a1.029,1.029,0,0,0-.68-1.1c-.954-.454-1.853-1.021-2.8-1.474a1.529,1.529,0,0,0-.959,0,4.074,4.074,0,0,0-.734.445c-.879.462-2.148.7-2.553,1.421-.46.822-.163,2.073-.173,3.139-.013,1.393,0,2.786,0,4.179,0,1.267-.608,1.662-1.787,1.08-1.577-.779-3.117-1.628-4.743-2.482.308-.556.612-1.1.959-1.733l3.742,1.819c0-2.234.034-4.324-.019-6.412a1.321,1.321,0,0,1,.894-1.461c1.337-.61,2.619-1.346,3.911-2.05a1.9,1.9,0,0,1,1.966,0c1.32.721,2.632,1.468,4,2.1a1.661,1.661,0,0,1,.993,1.765c0,1.909,0,3.815,0,5.965a17.909,17.909,0,0,1,2.493-1.194c1.9-.567,2.508-1.712,2.339-3.687a67.092,67.092,0,0,1-.028-7.187,1.242,1.242,0,0,0-.832-1.3c-1.748-.869-3.466-1.8-5.212-2.674a1.239,1.239,0,0,1-.8-1.265q.029-17.834,0-35.669a1.312,1.312,0,0,1,.849-1.333c1.8-.905,3.6-1.823,5.368-2.792a1.281,1.281,0,0,0,.576-.924c.043-3.109.034-6.22.009-9.331a.994.994,0,0,0-.372-.757c-1.371-.742-2.775-1.425-4.393-2.24v2.557c0,1.166,0,2.332,0,3.5a1.819,1.819,0,0,1-1.168,1.889c-1.406.62-2.739,1.4-4.142,2.033a1.776,1.776,0,0,1-1.318,0c-1.506-.706-2.953-1.534-4.45-2.262a1.12,1.12,0,0,1-.676-1.217c.032-2.135.013-4.271.013-6.588-1.658.83-3.2,1.59-4.72,2.383a.727.727,0,0,0-.246.554c-.015,3.207-.026,6.414.015,9.622a1.212,1.212,0,0,0,.612.8q2.619,1.419,5.287,2.741a1.441,1.441,0,0,1,.894,1.506q-.042,17.639,0,35.28a1.73,1.73,0,0,1-1.136,1.778c-1.59.76-3.141,1.6-4.748,2.328a1.358,1.358,0,0,0-.952,1.62,3.818,3.818,0,0,1-.011,1.258c-.053.276-.25.678-.469.745-1.177.355-.944,1.519-1.327,2.3-.1.208.421.747.693,1.1.195.255.466.449.676.7a1.157,1.157,0,0,1-.028,1.84q-1.942,1.836-3.778,3.778a1.146,1.146,0,0,1-1.769.077.261.261,0,0,1-.071-.066c-1.093-1.688-2.446-1.63-4.016-.428,0,.653-.009,1.459,0,2.266.009.642-.282.95-.931.948-1.977-.006-3.954-.032-5.929.011-.948.021-.911-.676-.976-1.232a18.873,18.873,0,0,1-.019-2.116c-.139-.071-.225-.1-.3-.154a2.245,2.245,0,0,0-3.473.605c-.633.856-1.215.742-2-.047-1.26-1.258-2.5-2.54-3.8-3.761a1.889,1.889,0,0,0-1.172-.475c-3.5-.036-7-.009-10.5-.034a1.24,1.24,0,0,0-1.215.71,12.842,12.842,0,0,1-11.235,6.521,13.323,13.323,0,0,1-9.575-3.759,10.691,10.691,0,0,1-2-2.681,1.4,1.4,0,0,0-1.459-.792q-5,.042-10.011,0a7.052,7.052,0,0,1-1.451-.317V130.024Zm66.28-10.48c1.386,1.025,2.7,1.162,3.819-.466.52-.753,1.3-.642,2.009.047q1.778,1.727,3.5,3.5a1.341,1.341,0,0,1-.019,2.178c-.355.377-.764.708-1.08,1.115a.912.912,0,0,0-.131.727c.205.629.492,1.23.723,1.787,1.241.415,2.788-.614,3.648,1.046a7.562,7.562,0,0,1,1.051-.494c1.113-.332,1.352-1.059,1.348-2.174-.045-10.5-.026-20.994-.026-31.49V94.148c-.186-.075-.244-.122-.3-.12-4.059.116-8.12.158-12.172.381a21.25,21.25,0,0,0-8.926,2.61,53.373,53.373,0,0,0-6.378,4.217,32.515,32.515,0,0,0-3.235,3.186c1.337,0,2.339-.009,3.342,0a3.009,3.009,0,0,1,2.5,1.367c.826,1.123.55,2.36.432,3.708H95.015v1.8H61.632c-.195,0-.389-.011-.582,0-.738.047-1.063-.291-1.044-1.033.026-.971-.015-1.945.011-2.916A2.936,2.936,0,0,1,63,104.465c1.374.139,2.026-.655,2.764-1.476.257-.285.466-.612.727-.892a30.435,30.435,0,0,1,10.856-7.623,28.683,28.683,0,0,1,10.212-2.3c2.17-.051,4.341-.006,6.511-.013.267,0,.535-.041.8-.062-.7-.537-1.466-.852-2.152-1.288a19.635,19.635,0,0,1-1.776-1.421,2.561,2.561,0,0,0-1.181-.062,44.05,44.05,0,0,0-4.393.434,43.369,43.369,0,0,0-9.207,2.786,36.24,36.24,0,0,0-11.823,7.889c-2.97,3.094-5.6,6.513-8.364,9.8a2.5,2.5,0,0,1-2.09,1.089c-3.714-.013-7.429.116-11.143.158a26.407,26.407,0,0,0-9.906,2.3c-1.031.43-2.009.993-3.01,1.5a14.158,14.158,0,0,0,3.182.214c.749-.017.967.329,1.044,1.048.293,2.747-2.737,5.646-5.3,5.477-2.086-.137-4.187-.028-6.3-.028v7.7c2.212,0,4.348.015,6.481-.019a1.213,1.213,0,0,0,.753-.443,39,39,0,0,1,3.06-3.642,12.4,12.4,0,0,1,10.67-3.006,12.822,12.822,0,0,1,9.44,6.558,1.143,1.143,0,0,0,.787.531c3.042.036,6.085.024,9.087.024.725-1.928,2.416-.785,3.408-1.2,1.273-1.5,1.14-2.76-.432-3.8a.577.577,0,0,1-.255-.392c.019-.432-.058-1.008.182-1.269,1.3-1.4,2.672-2.732,4.029-4.078a1.006,1.006,0,0,1,1.6.024c.434.434.852.892,1.318,1.292a.814.814,0,0,0,.653.16c2.137-.638,2.135-.646,2.137-2.878a1.479,1.479,0,0,0,0-.195c-.133-.946.355-1.277,1.224-1.271,1.75.011,3.5-.009,5.248.006.974.009,1.365.43,1.38,1.438.011.708-.267,1.782.049,2.015Zm4.517,1.483c-.411.49-.779.9-1.11,1.337-.528.7-1.093.7-1.849.308a24.547,24.547,0,0,0-2.741-1.1A1.442,1.442,0,0,1,81,120.084c.013-.633,0-1.269,0-1.889H77.191a21.717,21.717,0,0,1-.026,2.317,1.251,1.251,0,0,1-.569.86c-1.089.524-2.238.922-3.338,1.431a1.037,1.037,0,0,1-1.369-.265c-.451-.486-.95-.929-1.252-1.22l-2.794,2.764c.362.312.787.712,1.245,1.068.635.494.6,1.027.263,1.695a21.886,21.886,0,0,0-1.252,2.895.972.972,0,0,1-1.1.811c-.727-.028-1.459-.006-2.189-.006v3.813a8.328,8.328,0,0,1,1.971.036,2.219,2.219,0,0,1,1.314.9,19.075,19.075,0,0,1,1.339,3.259,1.557,1.557,0,0,1-.259,1.245,9.4,9.4,0,0,1-1.414,1.237l2.728,2.871c.325-.37.646-.736.967-1.1a1.535,1.535,0,0,1,2.137-.366,25.938,25.938,0,0,0,2.739,1.1c.541.216.929.516.873,1.211-.06.723-.013,1.455-.013,2.176H81.2a15.942,15.942,0,0,1,.032-2.272,1.473,1.473,0,0,1,.691-.95c.988-.509,2.05-.879,3.055-1.361a1.157,1.157,0,0,1,1.613.3c.377.477.794.92,1.13,1.3,1.048-.988,1.928-1.821,3-2.826a19.841,19.841,0,0,1-1.549-1.359,1.167,1.167,0,0,1-.344-.911,14.751,14.751,0,0,1,1.66-3.834,3.106,3.106,0,0,0,.623-2.159,1.365,1.365,0,0,1,.916-1.419c.46-.2.9-.454,1.346-.683a4.16,4.16,0,0,0-1.829-.2,1.2,1.2,0,0,1-1.378-.922c-.4-1.008-.768-2.026-1.213-3.01a1.041,1.041,0,0,1,.25-1.374c.488-.451.931-.952,1.363-1.4l-2.775-2.826ZM52.425,135.7a11.122,11.122,0,0,0-11.1-11.3,11.259,11.259,0,0,0-.086,22.517,11.143,11.143,0,0,0,11.181-11.216Zm13.837.676c-.715,0-1.457-.03-2.2.009-.824.043-1.181-.282-1.153-1.128.039-1.217.011-2.435.011-3.659H54.509v8.075c.118.051.173.1.231.1,3.723.011,7.446.034,11.166.015a1.2,1.2,0,0,0,1.078-1.665c-.214-.565-.46-1.115-.721-1.744Zm-47.332-4.81v8.162h9.117v-8.162H18.932Zm43.016-22.1c2.61,0,5.169.088,7.717-.039,1.187-.06,1.829-.4,1.808-1.639-.017-.967-.732-1.523-2.037-1.541-1.62-.024-3.239.032-4.857-.015-2.165-.064-3,.956-2.634,3.233Zm-30.2,7.784c-1.434.293-2.769.533-4.089.843a6.517,6.517,0,0,0-3.415,2.024,44.561,44.561,0,0,0,5.116-.178A3.168,3.168,0,0,0,31.744,117.255Z" transform="translate(0 0)" fill="#fff"/>
    <path id="Path_838" data-name="Path 838" d="M279.232,315.074c3.838-.377,7.94,3.451,7.728,8.1a7.8,7.8,0,1,1-15.576-.918C271.574,318.769,274.955,314.682,279.232,315.074Zm-5.655,6.718a5.43,5.43,0,0,0,3.015,6.145,5.661,5.661,0,0,0,6.355-.8,5.132,5.132,0,0,0,1.737-5.347Zm10.52-1.908a5.521,5.521,0,0,0-5.678-2.773,5.147,5.147,0,0,0-4.151,2.773Z" transform="translate(-199.97 -190.241)" fill="#fff"/>
    <path id="Path_839" data-name="Path 839" d="M104.131,346.458c-3.648.323-7.386-3.115-7.165-7.531a7.2,7.2,0,1,1,14.378.937c-.2,3.271-3.184,6.889-7.21,6.594Zm-.013-12.247c-2.734-.285-5.2,2.5-5.1,4.936.122,3.124,2.033,5.287,4.94,5.289a5.011,5.011,0,0,0,5.353-4.981c.173-2.9-2.557-5.58-5.193-5.244Z" transform="translate(-62.873 -203.663)" fill="#fff"/>
  </g>
</svg>
