<svg xmlns="http://www.w3.org/2000/svg" width="64.482" height="61.078" viewBox="0 0 64.482 61.078">
  <g id="CLOUD_SERVER" data-name="CLOUD SERVER" transform="translate(-2.999 -4.445)">
    <path id="Path_1" data-name="Path 1" d="M32.044,15a9.044,9.044,0,1,0,9.044,9.044A9.044,9.044,0,0,0,32.044,15Zm0,15.828a6.783,6.783,0,1,1,6.783-6.783,6.783,6.783,0,0,1-6.783,6.783Z" transform="translate(2.611 1.378)" fill="#fff"/>
    <path id="Path_2" data-name="Path 2" d="M36.751,20.419a1.131,1.131,0,0,0-1.605,0l-4.409,4.42L27.9,23.132a1.128,1.128,0,1,0-1.164,1.933l3.6,2.159h.2a1.13,1.13,0,0,0,.373.079h0a1.47,1.47,0,0,0,.373-.079h.079a1.131,1.131,0,0,0,.328-.215h0l5.042-5.031A1.131,1.131,0,0,0,36.751,20.419Z" transform="translate(3.026 2.042)" fill="#fff"/>
    <path id="Path_3" data-name="Path 3" d="M32,44.072a.633.633,0,0,0,.192.1.678.678,0,0,0,.215.068,1.131,1.131,0,1,0,0-2.261.678.678,0,0,0-.215.068.633.633,0,0,0-.192.1l-.181.136a1.131,1.131,0,0,0,0,1.605Z" transform="translate(3.719 4.9)" fill="#fff"/>
    <path id="Path_4" data-name="Path 4" d="M63,40.673a3.912,3.912,0,0,0-3.742,2.838H56.351V38.989h7.62a1.131,1.131,0,0,0,.475-.113c6.953-7.7,1.131-20.712-9.044-21.254a16.223,16.223,0,0,0-18.258-4.986C31.852-.343,13.265,2.879,12.406,16.83A13.193,13.193,0,0,0,6.674,38.6a1.131,1.131,0,0,0,.848.384h7.733v4.522H12.316a3.923,3.923,0,1,0,0,2.261h4a1.121,1.121,0,0,0,1.153-1.142V38.989H24.1v14.7H17.878a3.923,3.923,0,1,0,0,2.261h7.36a1.131,1.131,0,0,0,1.131-1.131V38.989h8.841v5.653a1.131,1.131,0,0,0,2.261,0V38.989H45.2V54.817a1.131,1.131,0,0,0,1.131,1.131h7.315a3.923,3.923,0,1,0,0-2.261H47.465v-14.7H54.09v5.653a1.121,1.121,0,0,0,1.153,1.142h4A3.923,3.923,0,1,0,63,40.719ZM8.574,46.326a1.7,1.7,0,1,0,0-.011ZM14.125,56.5a1.7,1.7,0,1,0,0-.023Zm43.266-3.392a1.7,1.7,0,1,0,0,.023ZM5.261,29.447a10.808,10.808,0,0,1,8.49-10.616,1.131,1.131,0,0,0,.893-1.323,10.582,10.582,0,0,1,20.779-3.064A1.145,1.145,0,0,0,37,15.157a13.567,13.567,0,0,1,5.868-1.311,13.917,13.917,0,0,1,11.113,5.54,1.131,1.131,0,0,0,.87.441c8.242.1,13.25,10.062,8.536,16.879H7.986a10.819,10.819,0,0,1-2.725-7.258ZM63,46.281a1.7,1.7,0,1,1,1.7-1.7A1.7,1.7,0,0,1,63,46.281Z" transform="translate(0 0)" fill="#fff"/>
    <path id="Path_5" data-name="Path 5" d="M45.676,52.371a3.923,3.923,0,0,0-3.753,2.8H35.355V46.131a1.131,1.131,0,1,0-2.261,0v9.044H26.887a3.923,3.923,0,1,0,0,2.261H41.934a3.923,3.923,0,1,0,3.742-5.065Zm-22.554,5.6a1.673,1.673,0,0,1,0-3.335,1.673,1.673,0,0,1,0,3.335Zm22.554,0A1.673,1.673,0,1,1,47.212,56.3a1.673,1.673,0,0,1-1.536,1.668Z" transform="translate(2.116 5.294)" fill="#fff"/>
  </g>
</svg>
