<svg xmlns="http://www.w3.org/2000/svg" width="92.067" height="86.908" viewBox="0 0 92.067 86.908">
  <g id="cloud_solution-01" data-name="cloud solution-01" transform="translate(-63.74 -51.55)">
    <path id="Path_812" data-name="Path 812" d="M63.745,161.952c.372-1.059.709-2.133,1.124-3.175a13.311,13.311,0,0,1,6.072-6.831,14.367,14.367,0,0,1,7.593-1.811c.444.014.889,0,1.319,0-.079-1.58-.274-3.082-.209-4.571a16.434,16.434,0,0,1,4.208-10.391,18,18,0,0,1,6.615-4.66.882.882,0,0,0,.363-.781,19.027,19.027,0,0,1-.749-7.67,19.275,19.275,0,0,1,4.328-10.583,19.517,19.517,0,0,1,6.461-5.21,20.11,20.11,0,0,1,7.374-2.025,18.11,18.11,0,0,1,8.34,1.148,33.976,33.976,0,0,1,4.689,2.464,1.434,1.434,0,0,1,.49,2,1.508,1.508,0,0,1-2.205.214,17.132,17.132,0,0,0-8.193-3.043,16.965,16.965,0,0,0-15.846,26.1,50.27,50.27,0,0,0,3.584,4.3,22.658,22.658,0,0,1,3.757,6.1c.2.492.416.7.954.685,1.489-.034,2.978-.012,4.518-.012v-8.3a11.88,11.88,0,0,1-8.532-5.188,11.292,11.292,0,0,1-1.972-8.39,12.041,12.041,0,0,1,23.926.507,12.009,12.009,0,0,1-10.528,13.057v8.258h5.138a29.848,29.848,0,0,1,6.089-8.952,15.479,15.479,0,0,0,4.093-8.577,16.972,16.972,0,0,0-1.811-10.744c-.25-.468-.584-.891-.853-1.35a1.547,1.547,0,0,1,.341-2.068,1.341,1.341,0,0,1,1.984.5,17.54,17.54,0,0,1,3.094,8.114c.149,1.6.106,3.216.219,4.818a1.387,1.387,0,0,0,.56.956A20.408,20.408,0,0,1,139.9,146c-.094,1.34-.437,2.664-.694,4.136.73,0,1.408.007,2.082,0a14.193,14.193,0,0,1,8.592,2.628,13.353,13.353,0,0,1,5.673,8.882,14.028,14.028,0,0,1-11.82,16.6,18.991,18.991,0,0,1-2.664.178q-22.879.014-45.758,0a2,2,0,0,1-1.316-.329,1.694,1.694,0,0,1-.442-1.4c.144-.425.735-.733,1.184-1,.2-.12.528-.022.8-.022,15.433,0,30.865.036,46.3-.024a10.67,10.67,0,0,0,9.634-5.649A10.819,10.819,0,0,0,151,157.859a10.308,10.308,0,0,0-7.559-4.749c-1.974-.235-3.987-.166-5.986-.2-1.482-.029-2.051-.737-1.537-2.1a17.615,17.615,0,0,0,1.223-7.3,16.573,16.573,0,0,0-3.939-10.216,43.955,43.955,0,0,0-3.769-3.48c-.435-.4-.665-.334-.865.262a20.666,20.666,0,0,1-5.018,8.063,21.468,21.468,0,0,0-4.155,6.046c-.243.521-.377.891.245,1.331a3,3,0,0,1,1.054,1.5c.257.855.807.843,1.448.769a11.134,11.134,0,0,1,8.7,2.7,10.85,10.85,0,0,1,3.521,5.095,1.4,1.4,0,0,1-.8,1.955,1.46,1.46,0,0,1-1.806-1.033,9.172,9.172,0,1,0-10.1,12.185,9.155,9.155,0,0,0,10.12-6.055c.062-.2.13-.392.209-.581a1.34,1.34,0,0,1,1.633-.918,1.229,1.229,0,0,1,1.052,1.518,10.665,10.665,0,0,1-1.014,2.721,11.584,11.584,0,0,1-8.7,6.06,11.793,11.793,0,0,1-10.573-3.6,1.762,1.762,0,0,1-.408-.473c-.257-.591-.581-.56-1.112-.3a6.816,6.816,0,0,1-9.879-5.188,7.824,7.824,0,0,0-.216-1.218c-.07-.214-.3-.514-.485-.533-3.31-.327-5.3-4.681-2.774-7.746.019-.022.024-.053-.026.067a24.3,24.3,0,0,1-.985-2.726,4.006,4.006,0,0,1,1.364-4.122,1.017,1.017,0,0,0,.271-1.436,28.376,28.376,0,0,0-4.264-6.192c-1.374-1.578-2.64-3.252-4.026-4.97a14.139,14.139,0,0,0-7.17,5.7,13.731,13.731,0,0,0-1.737,11.626c.077.283.166.564.238.85a1.287,1.287,0,0,1-1.314,1.722c-1.259.022-2.517.019-3.776,0a11.388,11.388,0,0,0-2.467,22.547,14.881,14.881,0,0,0,3.195.207c3.147.024,6.293.007,9.44.01,1.1,0,1.684.492,1.679,1.393s-.584,1.372-1.7,1.374c-3.536,0-7.071.012-10.607,0a13.765,13.765,0,0,1-8.467-2.978,13.487,13.487,0,0,1-5.21-8.6c-.014-.086-.139-.154-.211-.228V161.94Zm44.614-32.146a5.935,5.935,0,0,1-4.612-6.219,5.787,5.787,0,0,1,5.234-5.613,5.875,5.875,0,0,1,6.632,4.424,6.073,6.073,0,0,1-4.41,7.444v3.108c2.69.046,5.959-2.438,7.182-5.589a9.045,9.045,0,0,0-2.983-10.749,8.879,8.879,0,0,0-11.508.195,9.154,9.154,0,0,0-2.38,11.325c1.489,2.834,4.641,4.946,6.846,4.77v-3.1Zm1.458,17.167c-2.095,0-4.189-.014-6.284,0-1.275.012-2.467,1-2.436,1.97.041,1.165.987,1.907,2.44,1.91,3.62,0,7.24,0,10.859-.01a1.791,1.791,0,0,0,.913-.221c.872-.55,1.691-1.182,2.563-1.732.492-.31.488-.579.147-1a2.531,2.531,0,0,0-2.1-.927c-2.034.007-4.069,0-6.1,0Zm2.82,6.653c-3.271,0-6.468-.019-9.666.012a2.089,2.089,0,0,0-1.866,1.833,1.892,1.892,0,0,0,1.6,1.835c2.88.079,5.762.031,8.613.031.411-1.151.841-2.364,1.321-3.711Zm-2.83-26.5a3.2,3.2,0,0,0,3.247-3.245,3.282,3.282,0,0,0-6.562.067A3.194,3.194,0,0,0,109.807,127.124Zm-4.273,33.2c.156.742.259,1.374.428,1.989a4.1,4.1,0,0,0,5.625,2.292.839.839,0,0,0,.36-.677c-.25-1.2-.569-2.376-.877-3.6Z" transform="translate(0 -39.974)" fill="#5f6060"/>
    <path id="Path_813" data-name="Path 813" d="M133.011,338.232h6.733c1.09,0,1.679.5,1.667,1.4s-.588,1.364-1.7,1.364H126.332c-1.117,0-1.7-.464-1.713-1.357-.017-.93.576-1.41,1.749-1.41h6.644Z" transform="translate(-46.256 -217.82)" fill="#5f6060"/>
    <path id="Path_814" data-name="Path 814" d="M133.029,357.7q3.365,0,6.733,0c1.086,0,1.672.512,1.65,1.417-.019.865-.6,1.348-1.629,1.348q-6.777,0-13.557,0c-1.023,0-1.6-.5-1.607-1.371s.574-1.391,1.585-1.393c2.275,0,4.549,0,6.822,0Z" transform="translate(-46.257 -232.615)" fill="#5f6060"/>
    <path id="Path_815" data-name="Path 815" d="M290.823,324.258c1.352-1.355,2.613-2.676,3.949-3.915a3.135,3.135,0,0,1,1.593-.817,1.517,1.517,0,0,1,1.175.687,1.876,1.876,0,0,1-.043,1.3,2.3,2.3,0,0,1-.639.841q-2.212,2.234-4.444,4.451c-1.167,1.163-1.782,1.167-2.918.034-1.165-1.165-2.335-2.325-3.492-3.495-.74-.749-.824-1.554-.247-2.111.7-.677,1.468-.629,2.26.163C288.945,322.329,289.86,323.275,290.823,324.258Z" transform="translate(-168.401 -203.605)" fill="#5f6060"/>
    <path id="Path_816" data-name="Path 816" d="M159.36,89.712a2.609,2.609,0,0,1,.663.4c1.578,1.549,3.127,3.13,4.7,4.681a1.282,1.282,0,0,1,.118,1.773,1.12,1.12,0,0,1-1.624.411,4.324,4.324,0,0,1-.872-.6q-1.985-1.946-3.932-3.932a3.22,3.22,0,0,1-.56-.793c-.492-.987.118-1.924,1.5-1.943Z" transform="translate(-71.381 -28.994)" fill="#5f6060"/>
    <path id="Path_817" data-name="Path 817" d="M322.249,95.266a2.566,2.566,0,0,1,.377-.593c1.552-1.576,3.13-3.127,4.681-4.7a1.3,1.3,0,0,1,1.842-.094,1.148,1.148,0,0,1,.336,1.65,4.147,4.147,0,0,1-.562.793q-1.949,1.982-3.93,3.932a3.1,3.1,0,0,1-.711.521C323.2,97.339,322.225,96.729,322.249,95.266Z" transform="translate(-196.415 -28.862)" fill="#5f6060"/>
    <path id="Path_818" data-name="Path 818" d="M252.373,56.3c0,1.078.01,2.155,0,3.233a1.439,1.439,0,0,1-1.386,1.436,1.423,1.423,0,0,1-1.376-1.446q-.018-3.279,0-6.557a1.379,1.379,0,1,1,2.757.01c.017,1.107,0,2.215,0,3.322Z" transform="translate(-141.216)" fill="#5f6060"/>
    <path id="Path_819" data-name="Path 819" d="M124.2,184.529c-.987,0-1.977.038-2.962-.01-1.244-.06-1.9-.982-1.487-2a1.11,1.11,0,0,1,1.155-.769q3.365.04,6.73,0a1.223,1.223,0,0,1,1.328,1.042c.149.737-.084,1.432-.944,1.537-1.263.154-2.544.195-3.814.283,0-.029,0-.058,0-.089Z" transform="translate(-42.464 -98.926)" fill="#5f6060"/>
    <path id="Path_820" data-name="Path 820" d="M356.855,181.712c1.076,0,2.155.046,3.228-.014a1.179,1.179,0,0,1,1.316,1.143c.111.646-.2,1.4-.874,1.42-2.57.072-5.15.06-7.718-.058-.74-.034-.934-.9-.7-1.487a1.743,1.743,0,0,1,1.167-.958,32.388,32.388,0,0,1,3.584-.046Z" transform="translate(-219.031 -98.876)" fill="#5f6060"/>
  </g>
</svg>
