<svg xmlns="http://www.w3.org/2000/svg" width="56.006" height="56.006" viewBox="0 0 56.006 56.006">
  <g id="data_integration-01" data-name="data integration-01" transform="translate(-52.97 -68.22)">
    <path id="Path_1552" data-name="Path 1552" d="M128.063,160.725c0,4.241-.027,8.481.017,12.722.013,1.186-.172,1.918-1.629,1.738a1.634,1.634,0,0,0-1.213.749c-1.86,3.058-1.841,3.07-5.194,1.721-2.944-1.184-2.913-1.176-2.07-4.263a1.579,1.579,0,0,0-.158-1.751c-.669-.993-1.315-2.314-3.249-1.707-3.587,1.127-2.758,1.4-4.291-2.053-.256-.576-.5-1.163-.724-1.746-.542-1.379-1.014-1.568.9-2.46.162-.076.537-.272.7-.358,1.139-.613,1.859-.668,1.956-1.549a8.411,8.411,0,0,0-.266-2.535c-.08-.342-.537-.658-.892-.863a3.576,3.576,0,0,1-1.684-4.976,3.3,3.3,0,0,1,4.451-2.131,1.541,1.541,0,0,0,1.789-.29c.946-.8,2.175-1.269,1.589-3.039-1.048-3.163-.935-3.2,2.237-4.428a3.525,3.525,0,0,1,4.848,1.768c.324.586.63,1.056,1.444.884,1.161-.244,1.472.351,1.461,1.442-.044,4.376-.018,8.752-.018,13.128h.007Zm-1.345-9.363a9.157,9.157,0,0,0-8.677,9.95c.356,4.614,4.735,8.857,8.677,8.352Z" transform="translate(-48.201 -64.374)" fill="#0092c9"/>
    <path id="Path_1553" data-name="Path 1553" d="M251.944,310.68c-.269-.8-.194-1.22.7-1.214,3.076.02,6.153-.028,9.229.02a2.043,2.043,0,0,1,1.241.639c.662.675,1.159,1.513,1.846,2.155a3.13,3.13,0,0,0,1.631.807,2.261,2.261,0,0,1,2.155,2.451,2.327,2.327,0,0,1-2.462,2.184,2.3,2.3,0,0,1-2.013-2.6,4.065,4.065,0,0,0-4.094-4.446c-2.752.011-5.5,0-8.235,0Z" transform="translate(-170.833 -207.267)" fill="#0092c9"/>
    <path id="Path_1554" data-name="Path 1554" d="M251.751,172.962c2.411-.049,5.136-.12,7.976-.03a2.614,2.614,0,0,0,2.5-1.2c.772-1.093,1.889-1.887,1.362-3.605-.341-1.114.942-2.22,2.155-2.273a2.273,2.273,0,0,1,2.27,2.072c.124,1.213-.765,2.584-1.925,2.49a2.3,2.3,0,0,0-2.355,1.384,4.627,4.627,0,0,1-4.959,2.339c-2.239-.218-4.517-.069-6.777-.083-.973-.006-1.093-.213-1.093-.6,0-.423.637-.5.848-.5Z" transform="translate(-170.054 -83.886)" fill="#0092c9"/>
    <path id="Path_1555" data-name="Path 1555" d="M259.579,339.7c-2.306,0-4.508-.021-6.71.011-.784.011-1.113-.227-.794-1.218,2.624,0,5.312-.035,8,.051.283.008.756.718.776,1.12.062,1.272-.114,2.451,1.184,3.424.941.706.6,2.311-.339,3.11a2.2,2.2,0,0,1-3.052-.186,2.121,2.121,0,0,1,0-3.137c1.19-.822,1.024-1.844.937-3.174Z" transform="translate(-170.959 -232.205)" fill="#0092c9"/>
    <path id="Path_1556" data-name="Path 1556" d="M251.96,145.269c-.353-.946-.094-1.259.8-1.242,2.2.041,4.407.013,6.688.013.032-1.218.415-2.253-.868-3.073a2.089,2.089,0,0,1-.121-3.128,2.261,2.261,0,0,1,3.166-.158c.92.839,1.168,2.432.192,3.121-1.211.853-1.111,1.927-1.059,3.053.048,1.041-.311,1.456-1.4,1.431-2.477-.058-4.958-.018-7.4-.018Z" transform="translate(-170.833 -59.186)" fill="#0092c9"/>
    <path id="Path_1557" data-name="Path 1557" d="M258.694,271.266c1.538,0,3.075-.015,4.612.007a3.247,3.247,0,0,0,2.9-.939,2.08,2.08,0,0,1,3.09.435,2.32,2.32,0,0,1-.414,3.159,2.065,2.065,0,0,1-3.1-.39,2.165,2.165,0,0,0-2.314-1.09q-5.29.042-10.58-.016c-.372,0-1.108.073-1.108-.552,0-.689.715-.577,1.082-.589,1.942-.059,3.887-.028,5.832-.027Z" transform="translate(-170.81 -173.202)" fill="#0092c9"/>
    <path id="Path_1558" data-name="Path 1558" d="M258.694,232.416c1.538,0,3.075-.016,4.612.007a3.247,3.247,0,0,0,2.9-.939,2.08,2.08,0,0,1,3.09.435,2.32,2.32,0,0,1-.414,3.159,2.066,2.066,0,0,1-3.1-.39,2.165,2.165,0,0,0-2.314-1.09q-5.29.042-10.58-.016c-.372,0-1.108.073-1.108-.552,0-.689.715-.577,1.082-.589,1.942-.059,3.887-.028,5.832-.027Z" transform="translate(-170.81 -139.823)" fill="#0092c9"/>
    <path id="Path_1559" data-name="Path 1559" d="M80.973,124.226a28,28,0,1,1,28-28A28.035,28.035,0,0,1,80.973,124.226Zm0-53.781c-14.819,0-25.778,10.959-25.778,25.778S66.154,122,80.973,122s25.778-10.959,25.778-25.778S95.792,70.445,80.973,70.445Z" transform="translate(0)" fill="#0092c9"/>
  </g>
</svg>
