<svg xmlns="http://www.w3.org/2000/svg" width="62.166" height="62.091" viewBox="0 0 62.166 62.091">
  <g id="data-science" transform="translate(-63.747 -61.812)">
    <path id="Path_1048" data-name="Path 1048" d="M68.251,92.961c-.741-1.416-1.548-2.8-2.19-4.264a11.914,11.914,0,0,1-.955-7.574,10.238,10.238,0,0,1,7.113-7.59,25.18,25.18,0,0,1,9.764-1.367.8.8,0,0,0,.642-.263c.626-1.087,1.2-2.19,1.828-3.326A4.126,4.126,0,0,1,90.033,62.6a.8.8,0,0,0,.922.115,9.469,9.469,0,0,1,10.126,1.334,19.787,19.787,0,0,1,5.763,7.343,1.222,1.222,0,0,0,1.383.807,23.21,23.21,0,0,1,10.867,1.992,4.114,4.114,0,0,1,5.779,5.828.982.982,0,0,0-.231,1.037,12.507,12.507,0,0,1-1.021,7.689,26.829,26.829,0,0,1-1.861,3.458.968.968,0,0,0,.033,1.235,18.885,18.885,0,0,1,2.914,7,10.241,10.241,0,0,1-6.882,11.657,24.826,24.826,0,0,1-9.928,1.416.82.82,0,0,0-.922.56,20.748,20.748,0,0,1-5.68,7.426,9.806,9.806,0,0,1-13.04-.148,20.924,20.924,0,0,1-5.45-7.212.922.922,0,0,0-1.054-.626,22.067,22.067,0,0,1-10.636-1.828.7.7,0,0,0-.823.1,4.071,4.071,0,0,1-5.549-.609,4.136,4.136,0,0,1,.2-5.6c.132-.132.28-.4.231-.543a13.229,13.229,0,0,1,1.416-9.056C67.1,94.92,67.707,93.932,68.251,92.961Zm11.97-.082c.28,2.881.543,5.73.823,8.595a1.121,1.121,0,0,0,.51.971,60.815,60.815,0,0,0,12.892,6.322,1.192,1.192,0,0,0,.757,0,56.968,56.968,0,0,0,12.941-6.372,1.247,1.247,0,0,0,.477-.708,53.813,53.813,0,0,0,0-17.65,1.173,1.173,0,0,0-.477-.708A58.127,58.127,0,0,0,95.269,76.99a1.348,1.348,0,0,0-.807,0,58.839,58.839,0,0,0-12.727,6.224,1.333,1.333,0,0,0-.675,1.07ZM81.554,74.29a2.458,2.458,0,0,0-.28-.033A21.445,21.445,0,0,0,72.4,75.673a8.29,8.29,0,0,0-5.038,5.005,9.391,9.391,0,0,0,.428,6.849c.494,1.235,1.153,2.4,1.745,3.606.066,0,.148-.016.214-.016a1.5,1.5,0,0,1,.132-.214,44.6,44.6,0,0,1,9.056-8.282,1.476,1.476,0,0,0,.445-.741c.692-2.354,1.35-4.725,2.025-7.1C81.455,74.6,81.5,74.454,81.554,74.29ZM120.1,94.64c-.082.066-.132.082-.148.115a45.036,45.036,0,0,1-9.237,8.446,1.185,1.185,0,0,0-.346.593c-.51,1.861-.971,3.721-1.482,5.581-.2.708-.477,1.383-.741,2.107a20.844,20.844,0,0,0,9.8-1.679,7.765,7.765,0,0,0,4.742-5.894C123.259,100.436,121.86,97.488,120.1,94.64Zm-15.065,18.737a3.917,3.917,0,0,0-.477-.115,50.2,50.2,0,0,1-9.352-2.075,1.418,1.418,0,0,0-.823.049,49.919,49.919,0,0,1-8.216,1.877c-.477.066-.938.148-1.465.23a19.789,19.789,0,0,0,4.61,6.224c2.8,2.437,6.075,2.964,9.056,1.383C101.526,119.288,103.4,116.472,105.033,113.377Zm3.128-39.1c.066.2.115.329.148.461.675,2.354,1.35,4.725,2.058,7.08a1.451,1.451,0,0,0,.543.807,45.157,45.157,0,0,1,6.438,5.433c.922.955,1.811,1.943,2.75,2.964,1.795-2.964,3.161-5.993,2.486-9.615a4.21,4.21,0,0,1-4.758-5.483A20.943,20.943,0,0,0,108.161,74.273Zm-26.59,37.194c-.082-.263-.148-.445-.214-.642-.642-2.223-1.3-4.445-1.893-6.668a1.778,1.778,0,0,0-.757-1.169,42.461,42.461,0,0,1-7.458-6.5c-.527-.576-1.037-1.153-1.6-1.778-1.811,3-3.161,6.026-2.5,9.582.115.016.165.033.2.033a4.135,4.135,0,0,1,4.627,5.137.625.625,0,0,0,.313.51A21.065,21.065,0,0,0,81.571,111.467Zm23.462-39.1a18.266,18.266,0,0,0-5.516-6.9,7.557,7.557,0,0,0-7.458-1.021.532.532,0,0,0-.4.724,3.988,3.988,0,0,1-3.046,4.758,13.236,13.236,0,0,1-2.568.033c-.412.724-.889,1.531-1.383,2.387.231.049.362.082.494.1a51.034,51.034,0,0,1,9.4,2.091,1.313,1.313,0,0,0,.708-.049c1.828-.461,3.639-.988,5.483-1.4C102.151,72.808,103.551,72.627,105.033,72.363ZM78.8,100.485a59.556,59.556,0,0,1,0-15.213,39.056,39.056,0,0,0-7.887,7.64A41,41,0,0,0,78.8,100.485Zm39.993-7.64c-1.6-2.272-6.224-6.7-7.854-7.491a61.629,61.629,0,0,1,0,15.082A39.534,39.534,0,0,0,118.8,92.845ZM98.4,109.969c-.016.049-.049.1-.066.148,2.4.412,4.791.807,7.2,1.235.329.066.477-.082.576-.379.461-1.35.955-2.7,1.4-4.067.2-.576.313-1.169.445-1.7Q103.156,107.581,98.4,109.969ZM81.636,80.612c3.326-1.663,6.5-3.26,9.681-4.841a42.594,42.594,0,0,0-7.244-1.35.5.5,0,0,0-.4.247C83,76.628,82.328,78.6,81.636,80.612Zm9.764,29.5a1.709,1.709,0,0,1-.066-.165c-3.178-1.581-6.355-3.178-9.681-4.824.692,2.025,1.35,3.968,2.025,5.911a.521.521,0,0,0,.4.247C86.51,110.907,88.947,110.512,91.4,110.117Zm6.849-34.411c3.342,1.663,6.5,3.244,9.665,4.824a.245.245,0,0,0,0-.115c-.609-1.893-1.2-3.787-1.844-5.664a.658.658,0,0,0-.494-.28,9.674,9.674,0,0,0-1.531.165C102.151,74.965,100.242,75.327,98.249,75.706ZM119.7,77.319a2.059,2.059,0,1,0,2.107-2.025A2.056,2.056,0,0,0,119.7,77.319ZM68,110.463A2.075,2.075,0,1,0,65.9,108.4,2.08,2.08,0,0,0,68,110.463Zm17.568-44.52a2.042,2.042,0,0,0,2.058,2.075,2.066,2.066,0,1,0-2.058-2.075Z" fill="#fff"/>
    <path id="Path_1049" data-name="Path 1049" d="M184.4,203.2a3.507,3.507,0,0,1-.807-2.42c.033-1.251,0-2.5.016-3.754a3.052,3.052,0,0,1,2.914-3.128c.527-.033,1.07-.016,1.6-.016h14.785a2.964,2.964,0,0,1,2.783,1.268,4.494,4.494,0,0,1,.626,2.009,24.654,24.654,0,0,1,0,3.82,15.428,15.428,0,0,1-.593,2.453,3.733,3.733,0,0,1,.626,2.568c-.016,1.07,0,2.14,0,3.211a3.117,3.117,0,0,1-3.359,3.342c-5.335.016-10.686.016-16.02,0a3.107,3.107,0,0,1-3.375-3.375c0-1.087.016-2.173,0-3.26A3.714,3.714,0,0,1,184.4,203.2Zm10.6-7.261h-8c-.955,0-1.317.346-1.317,1.284v3.639c0,.955.346,1.3,1.3,1.3h16c.938,0,1.3-.379,1.3-1.317v-3.507c0-1.037-.362-1.383-1.416-1.4Zm-.049,8.282h-7.936c-.988,0-1.317.346-1.334,1.334v3.573c0,.955.346,1.3,1.3,1.3h16c.938,0,1.3-.379,1.317-1.317v-3.441c0-1.136-.329-1.465-1.465-1.465C200.206,204.219,197.572,204.219,194.954,204.219Z" transform="translate(-100.113 -110.32)" fill="#fff"/>
    <path id="Path_1050" data-name="Path 1050" d="M262.279,221.012c-.659,0-1.317.016-1.959,0a1.04,1.04,0,1,1,0-2.075c1.317-.016,2.618-.016,3.935,0a1.05,1.05,0,0,1,1.136,1.037,1.079,1.079,0,0,1-1.136,1.037h-1.976Z" transform="translate(-163.272 -131.245)" fill="#fff"/>
    <path id="Path_1051" data-name="Path 1051" d="M210.329,219c1.054,0,1.564.346,1.564,1.054s-.51,1.037-1.564,1.037h-.313c-.741-.016-1.2-.4-1.218-1.021-.016-.642.461-1.054,1.235-1.054A1.788,1.788,0,0,1,210.329,219Z" transform="translate(-121.168 -131.308)" fill="#fff"/>
    <path id="Path_1052" data-name="Path 1052" d="M262.244,271.4c-.659,0-1.317.016-1.959,0a1.01,1.01,0,0,1-1.087-1,1,1,0,0,1,1.087-1.054c1.334-.016,2.667-.016,3.984,0a1.054,1.054,0,0,1,1.1,1,1.043,1.043,0,0,1-1.1,1.054C263.594,271.412,262.919,271.4,262.244,271.4Z" transform="translate(-163.27 -173.347)" fill="#fff"/>
    <path id="Path_1053" data-name="Path 1053" d="M210.329,271.291c-1.054,0-1.548-.346-1.531-1.07.016-.692.494-1.021,1.515-1.021,1.054,0,1.564.329,1.564,1.037C211.893,270.945,211.383,271.291,210.329,271.291Z" transform="translate(-121.168 -173.243)" fill="#fff"/>
  </g>
</svg>
