<svg xmlns="http://www.w3.org/2000/svg" width="54.767" height="54.767" viewBox="0 0 54.767 54.767">
  <g id="dATA_MIGARATION-01" data-name="dATA MIGARATION-01" transform="translate(-18.85 -22.1)">
    <path id="Path_1567" data-name="Path 1567" d="M120.517,125.073c-1.637-6.2-.086-12.825,8.615-13.709l-.883-2.494,6.946,4.407-6.558,4.552c.282-1.018.5-1.807.723-2.613-4.361-.275-8.819,2.291-8.842,9.858Z" transform="translate(-89.208 -76.57)" fill="#0092c9"/>
    <ellipse id="Ellipse_192" data-name="Ellipse 192" cx="12.165" cy="2.164" rx="12.165" ry="2.164" transform="translate(40.47 42.101)" fill="#0092c9"/>
    <path id="Path_1568" data-name="Path 1568" d="M201.37,218.061v4.368s1.628,2.343,12.41,2.364c9.962.02,11.9-2.541,11.9-2.541l.027-4.192s-1.429,2.014-11.757,1.933-12.574-1.933-12.574-1.933Z" transform="translate(-161.065 -172.925)" fill="#0092c9"/>
    <path id="Path_1569" data-name="Path 1569" d="M201.37,260.39v4.564s1.628,2.343,12.41,2.364c9.962.02,11.9-2.542,11.9-2.542l.027-4.387s-1.429,2.406-11.757,2.324S201.37,260.39,201.37,260.39Z" transform="translate(-161.065 -210.279)" fill="#0092c9"/>
    <path id="Path_1570" data-name="Path 1570" d="M201.37,304.158v4.565s1.628,2.343,12.41,2.364c9.962.02,11.9-2.541,11.9-2.541l.027-4.525s-1.456,2.393-11.757,2.462C203.615,306.55,201.37,304.158,201.37,304.158Z" transform="translate(-161.065 -248.78)" fill="#0092c9"/>
    <ellipse id="Ellipse_193" data-name="Ellipse 193" cx="6.977" cy="1.241" rx="6.977" ry="1.241" transform="translate(25.669 50.571)" fill="#0092c9"/>
    <path id="Path_1571" data-name="Path 1571" d="M76.06,279.1v7.59s.933,1.344,7.117,1.355c5.713.012,6.821-1.458,6.821-1.458l.015-7.489s-.819,1.155-6.743,1.108S76.06,279.1,76.06,279.1Z" transform="translate(-50.485 -226.789)" fill="#0092c9"/>
    <path id="Path_1572" data-name="Path 1572" d="M46.234,76.867A27.384,27.384,0,1,1,73.617,49.484,27.414,27.414,0,0,1,46.234,76.867Zm0-53.4A26.013,26.013,0,1,0,72.246,49.484,26.042,26.042,0,0,0,46.234,23.471Z" transform="translate(0 0)" fill="#0092c9"/>
  </g>
</svg>
