<svg xmlns="http://www.w3.org/2000/svg" width="55.24" height="55.24" viewBox="0 0 55.24 55.24">
  <g id="data_governance3-01-01" data-name="data governance3-01-01" transform="translate(-8.99 -9.15)">
    <path id="Path_1607" data-name="Path 1607" d="M103.783,231.616h8.845c1.222,0,2.446-.022,3.666.02.23.008.451.265.676.407-.226.114-.452.325-.678.326q-15.066.024-30.13,0c-.223,0-.444-.223-.666-.341.217-.127.433-.362.652-.365,1.773-.03,3.547-.025,5.322-.01.4,0,.638-.071.791-.51a4.365,4.365,0,0,1,.929-1.9c.451-.381,1.279-.315,1.993-.456V227.57H94.116c-2.661,0-5.322.007-7.982,0A1.914,1.914,0,0,1,83.97,225.4q0-6.112,0-12.225A1.732,1.732,0,0,1,84,212.6a.47.47,0,0,1,.34-.274.482.482,0,0,1,.331.289,1.8,1.8,0,0,1,.026.569q0,4.494,0,8.989v.813h26.419a11.3,11.3,0,0,1,.017-1.341c.022-.183.228-.343.351-.513.122.177.346.351.349.531.026,1.366.056,2.734-.008,4.1a1.874,1.874,0,0,1-2.127,1.77c-2.756.009-5.513,0-8.269,0h-.82v1.35c.422,0,.823.018,1.22,0a1.021,1.021,0,0,1,1.1.73c.266.661.558,1.313.853,2Zm-19.087-7.8v1.1c0,1.628.247,1.879,1.868,1.88h18.054c1.726,0,3.453.006,5.178-.008.8-.007,1.274-.356,1.329-1.023.053-.636.011-1.279.011-1.951ZM103.03,231.6a15.881,15.881,0,0,0-.694-1.594.879.879,0,0,0-.63-.394c-2.515-.026-5.03-.017-7.546-.007-.172,0-.445.044-.5.154-.293.579-.531,1.185-.814,1.841ZM99.793,227.6H96.014v1.24h3.779ZM84.011,232.4H82.169a.269.269,0,0,1-.269-.269v-.139a.269.269,0,0,1,.269-.269h1.842a.269.269,0,0,1,.269.269v.139A.269.269,0,0,1,84.011,232.4Zm36.121-.061H118.29a.269.269,0,0,1-.269-.269v-.139a.269.269,0,0,1,.269-.269h1.842a.269.269,0,0,1,.269.269v.139A.269.269,0,0,1,120.132,232.335Zm-3.478.061H85.888a.317.317,0,0,1-.317-.317v-.164a.317.317,0,0,1,.317-.317h30.766a.317.317,0,0,1,.317.317v.164A.317.317,0,0,1,116.654,232.4Z" transform="translate(-64.541 -179.857)" fill="#0092c9"/>
    <path id="Path_1608" data-name="Path 1608" d="M120.958,84.381h-13.2c-2.013,0-4.027,0-6.039,0-1,0-1.4.4-1.407,1.384-.006.527.036,1.058-.015,1.581a2.15,2.15,0,0,1-.337.677,2.227,2.227,0,0,1-.362-.713,14.153,14.153,0,0,1-.013-1.652,1.854,1.854,0,0,1,2.019-2.013c2.276-.021,4.554-.007,6.83-.007q6.255,0,12.509,0c.165,0,.331-.017.575-.031-.321-.739-.306-1.651-1.442-1.67-.161,0-.4-.356-.452-.582-.081-.342,0-.719-.046-1.072-.1-.782.071-1.305.988-1.342a.633.633,0,0,0,.443-.365c.241-.712.916-1.434.016-2.18-.08-.067.006-.445.118-.606a6.672,6.672,0,0,1,.736-.785c.755-.77.751-.76,1.687-.241a.872.872,0,0,0,.572.028c.228-.056.428-.241.657-.28a.923.923,0,0,0,.825-.986.6.6,0,0,1,.742-.65c.309.024.622,0,.934-.01a1.253,1.253,0,0,1,1.358,1c.03.11.063.269.142.306.387.186.814.3,1.182.513.508.3.716-.219,1.071-.312a1.239,1.239,0,0,1,.8.079,2.822,2.822,0,0,1,.627.583c.838.817.83.813.317,1.843a.757.757,0,0,0,0,.513,2.884,2.884,0,0,0,.38.847,1.3,1.3,0,0,0,.685.552c.672.091.913.409.828,1.054a2.634,2.634,0,0,0,0,.717c.109.785-.081,1.311-1,1.342a.566.566,0,0,0-.421.3c-.238.736-.944,1.475-.033,2.253.087.075.018.451-.092.61-.2.292-.511.507-.731.789-.495.632-1,.931-1.7.257-.1-.1-.391-.06-.569,0a3.827,3.827,0,0,0-.918.4c-.191.121-.43.337-.445.528-.06.752-.387,1.107-1.272.913v.812q0,3.6-.006,7.19a.941.941,0,0,1-.008.356,5.977,5.977,0,0,1-.355.607c-.124-.2-.35-.389-.355-.588-.03-1.509-.015-3.019-.015-4.529V88.019c-.862.163-1.059-.316-1.132-.958-.018-.163-.138-.411-.263-.449-.733-.223-1.464-.948-2.25-.06-.078.088-.469.028-.611-.09a10.679,10.679,0,0,1-1.284-1.252,2.527,2.527,0,0,1-.267-.833Zm1.924-9.2-1.159,1.048c.87.661.494,1.321.208,2.1-.3.831-.558,1.519-1.588,1.427v1.509c1.028-.1,1.283.588,1.594,1.373.3.759.751,1.42-.016,2.01l1.024,1.167c.623-.884,1.327-.651,2.056-.207a1.6,1.6,0,0,0,.608.21.743.743,0,0,1,.744.8c.01.457.238.634.689.585.28-.03.565-.006.969-.006-.241-1.173.622-1.274,1.34-1.621.767-.37,1.435-.681,2.039.116l1.175-1.03a1.318,1.318,0,0,1-.224-2.043.927.927,0,0,0,.146-.4,1.029,1.029,0,0,1,1.054-1.037c.149-.01.39-.385.382-.584-.013-.35.3-.962-.3-1.011-.8-.065-.992-.545-1.216-1.164-.292-.8-.972-1.559-.152-2.175l-.933-1.266c-.676,1.058-1.349.506-2.1.263-.829-.267-1.446-.575-1.379-1.568h-1.5c.075,1-.575,1.273-1.371,1.59s-1.46.742-2.086-.086Z" transform="translate(-80.184 -56.403)" fill="#0092c9"/>
    <path id="Path_1609" data-name="Path 1609" d="M272.522,221.858c0,1.27-.013,2.539.007,3.809.007.484-.156.712-.665.685s-1.006-.021-1.508,0c-.436.014-.6-.192-.6-.607q.009-3.915,0-7.832c0-.388.166-.542.554-.579,2.2-.209,2.205-.215,2.211,1.942,0,.862,0,1.724,0,2.587h0Zm-1.969-3.743v7.451h1.191v-7.451h-1.191Z" transform="translate(-230.837 -184.205)" fill="#0092c9"/>
    <path id="Path_1610" data-name="Path 1610" d="M241.568,236.792c0,.981-.011,1.962,0,2.943.008.455-.169.655-.631.646-2.585-.057-2.085.371-2.128-2.016-.028-1.507.017-3.015-.011-4.521-.01-.562.185-.787.746-.752.476.03.957.013,1.435,0,.428-.009.6.191.59.613-.014,1.028,0,2.058,0,3.087Zm-.771-2.919h-1.205v5.732H240.8Z" transform="translate(-203.431 -198.233)" fill="#0092c9"/>
    <path id="Path_1611" data-name="Path 1611" d="M176.99,246.009c0-.791.018-1.582-.007-2.371-.016-.5.193-.693.681-.67.455.021.911.018,1.366,0,.508-.025.742.155.732.7q-.036,2.371,0,4.744c.007.531-.2.7-.723.713-2.044.038-2.044.052-2.043-1.962v-1.15Zm.787-2.258v4.58h1.193v-4.58Z" transform="translate(-148.709 -206.972)" fill="#0092c9"/>
    <path id="Path_1612" data-name="Path 1612" d="M210.443,259.648c0,.55-.009,1.1,0,1.651.008.411-.145.627-.585.614-.526-.015-1.053-.009-1.578,0-.426.009-.6-.192-.6-.609q.012-1.65,0-3.3c0-.43.215-.59.628-.582,2.556.054,2.081-.4,2.132,2.01,0,.071,0,.143,0,.216Zm-1.966-1.472v2.955h1.174v-2.955Z" transform="translate(-175.883 -219.771)" fill="#0092c9"/>
    <path id="Path_1613" data-name="Path 1613" d="M148.64,269.661c-.008,1.793.2,1.574-1.616,1.584-1.138.006-1.139,0-1.139-1.117,0-.5.016-1,0-1.5-.018-.469.205-.65.647-.629.142.007.286,0,.429,0C148.894,268.02,148.623,267.779,148.64,269.661Zm-1.989.794h1.2v-1.661h-1.2Z" transform="translate(-121.178 -229.134)" fill="#0092c9"/>
    <path id="Path_1614" data-name="Path 1614" d="M204.887,321.86a15.563,15.563,0,0,1,1.57.017c.2.021.378.241.566.37-.179.118-.355.333-.537.339-1.047.033-2.1.037-3.143,0-.192-.007-.376-.248-.564-.382.2-.116.4-.31.61-.332.5-.049,1-.016,1.5-.016v0Z" transform="translate(-171.545 -276.801)" fill="#0092c9"/>
    <path id="Path_1615" data-name="Path 1615" d="M306.471,101.075a4.913,4.913,0,1,1-4.831-5.036,4.926,4.926,0,0,1,4.831,5.036Zm-4.9,4.053a4.192,4.192,0,1,0-4.143-4.173,4.149,4.149,0,0,0,4.143,4.173Z" transform="translate(-254.638 -76.915)" fill="#0092c9"/>
    <path id="Path_1616" data-name="Path 1616" d="M326.073,120.037c-.406,0-.812,0-1.218,0-.428-.006-.614-.207-.508-.643.09-.371.163-.746.253-1.117a1.933,1.933,0,0,0-.087-1.568,1.565,1.565,0,0,1,.526-1.922,1.69,1.69,0,0,1,2-.039,1.53,1.53,0,0,1,.62,1.886,2.3,2.3,0,0,0-.047,1.838c.06.28.118.561.2.835.177.562-.073.748-.6.732-.382-.011-.764,0-1.146,0Zm.98-.761c-.088-.41-.15-.733-.23-1.054a1.855,1.855,0,0,1,.1-1.76c.141-.2-.093-.823-.334-1.094a.772.772,0,0,0-1.155.078.8.8,0,0,0-.129,1.16,1.065,1.065,0,0,1,.18,1.121c-.134.495-.22,1-.335,1.546h1.905Z" transform="translate(-279.132 -93.203)" fill="#0092c9"/>
    <circle id="Ellipse_196" data-name="Ellipse 196" cx="0.915" cy="0.915" r="0.915" transform="translate(24.796 34.797)" fill="#0092c9"/>
    <circle id="Ellipse_197" data-name="Ellipse 197" cx="0.915" cy="0.915" r="0.915" transform="translate(28.5 32.197)" fill="#0092c9"/>
    <circle id="Ellipse_198" data-name="Ellipse 198" cx="0.915" cy="0.915" r="0.915" transform="translate(32.019 34.578)" fill="#0092c9"/>
    <circle id="Ellipse_199" data-name="Ellipse 199" cx="0.915" cy="0.915" r="0.915" transform="translate(35.593 32.074)" fill="#0092c9"/>
    <rect id="Rectangle_378" data-name="Rectangle 378" width="3.353" height="0.459" transform="matrix(0.853, -0.522, 0.522, 0.853, 25.84, 35.229)" fill="#0092c9"/>
    <rect id="Rectangle_379" data-name="Rectangle 379" width="0.459" height="2.976" transform="matrix(0.568, -0.823, 0.823, 0.568, 29.756, 33.637)" fill="#0092c9"/>
    <rect id="Rectangle_380" data-name="Rectangle 380" width="3.02" height="0.459" transform="translate(33.474 34.984) rotate(-37.72)" fill="#0092c9"/>
    <rect id="Rectangle_381" data-name="Rectangle 381" width="2.341" height="0.459" transform="matrix(0.796, -0.605, 0.605, 0.796, 36.596, 32.482)" fill="#0092c9"/>
    <path id="Path_1617" data-name="Path 1617" d="M258.844,197.448a.23.23,0,0,1-.23-.23v-.863l-.875-.234a.229.229,0,0,1,.119-.443l1.214.326v1.214A.23.23,0,0,1,258.844,197.448Z" transform="translate(-220.046 -165.109)" fill="#0092c9"/>
    <path id="Path_1618" data-name="Path 1618" d="M36.61,64.389A27.619,27.619,0,1,1,64.23,36.77,27.651,27.651,0,0,1,36.61,64.389Zm0-53.857A26.237,26.237,0,1,0,62.848,36.769,26.267,26.267,0,0,0,36.61,10.532Z" fill="#0092c9"/>
    <path id="Path_1619" data-name="Path 1619" d="M291.1,82.652a.342.342,0,0,0-.224-.233,7.894,7.894,0,0,0-1.076-.135c-.2-.011-.277-.083-.35-.277-.2-.529-.448-1.035-.647-1.558a.511.511,0,0,1,.055-.412c.251-.344.536-.666.779-.96-.495-.492-.964-.955-1.453-1.435-.3.244-.623.529-.971.779,0,0-.009.006-.011.009a.173.173,0,0,1-.053.025.485.485,0,0,1-.2.024.411.411,0,0,1-.123-.021c-.527-.2-1.037-.452-1.562-.649a.351.351,0,0,1-.282-.354c-.009-.132-.018-.264-.031-.395-.021-.228-.052-.452-.092-.68a.346.346,0,0,0-.248-.218c-.523-.023-1.045,0-1.567-.016-.2,0-.243.087-.258.267a10.4,10.4,0,0,1-.135,1.109.382.382,0,0,1-.138.205.719.719,0,0,1-.086.055c-.51.23-1.041.433-1.551.673a.359.359,0,0,1-.456-.044c-.121-.1-.236-.2-.354-.3-.209-.176-.414-.339-.608-.5-.212.212-.424.418-.629.627-.277.271-.546.543-.826.818.262.317.55.637.8.984a.5.5,0,0,1,.039.412c-.2.534-.433,1.065-.672,1.584a.424.424,0,0,1-.273.218c-.375.064-.762.087-1.141.155a.314.314,0,0,0-.205.218c0,.055,0,.121-.006.191v.135c0,.191,0,.407,0,.607,0,.063,0,.123,0,.181,0,.034,0,.068,0,.1,0,.2,0,.35.006.379a.334.334,0,0,0,.232.23c.365.068.739.083,1.105.15a.47.47,0,0,1,.286.24c.011.024.024.048.033.073.218.482.394.979.627,1.447a.382.382,0,0,1-.057.506c-.277.31-.531.638-.791.953.495.491.955.957,1.45,1.45.335-.281.665-.538.979-.812a.354.354,0,0,1,.456-.055c.506.236,1.025.464,1.553.661.036.014.067.028.093.039l.021.011a.275.275,0,0,1,.121.189c0,.018.006.038.009.06.015.22.048.442.077.662.018.138.033.277.042.412.015.2.077.279.282.277.511-.011,1.02.006,1.53-.011a.357.357,0,0,0,.258-.209,8.438,8.438,0,0,0,.123-1.045.1.1,0,0,0,0-.033.348.348,0,0,1,.273-.36c.527-.2,1.038-.444,1.562-.645a.472.472,0,0,1,.194-.021.421.421,0,0,1,.215.068c.347.244.67.53.977.783.491-.491.958-.968,1.447-1.459-.245-.3-.5-.621-.779-.936a.358.358,0,0,1-.059-.452c.24-.51.436-1.038.673-1.551a.473.473,0,0,1,.292-.243c.362-.068.738-.083,1.105-.154a.328.328,0,0,0,.215-.242c.018-.523.018-1.041,0-1.565ZM287.183,86a2.926,2.926,0,0,1-.24.279,4.223,4.223,0,0,1-2.812,1.376,4.243,4.243,0,0,1-4.3-2.88,3.8,3.8,0,0,1-.205-.94,1.89,1.89,0,0,1-.016-.227.048.048,0,0,1,0-.023,3.866,3.866,0,0,1,.011-.433c0-.039,0-.077.008-.116a4.269,4.269,0,0,1,.107-.6,4.321,4.321,0,0,1,3.9-3.219,4.217,4.217,0,0,1,2.8.906,2.451,2.451,0,0,1,.244.209,4.185,4.185,0,0,1,.582.642A4.2,4.2,0,0,1,287.184,86Z" transform="translate(-236.839 -59.309)" fill="#0092c9"/>
    <rect id="Rectangle_382" data-name="Rectangle 382" width="2.29" height="5.456" rx="1.145" transform="translate(28.519 36.425)" fill="#0092c9"/>
    <rect id="Rectangle_383" data-name="Rectangle 383" width="1.516" height="6.536" rx="0.758" transform="translate(35.925 35.344)" fill="#0092c9"/>
    <rect id="Rectangle_384" data-name="Rectangle 384" width="1.516" height="3.727" rx="0.758" transform="translate(32.495 38.153)" fill="#0092c9"/>
    <rect id="Rectangle_385" data-name="Rectangle 385" width="2.082" height="8.407" rx="1.041" transform="translate(39.275 33.709)" fill="#0092c9"/>
    <rect id="Rectangle_386" data-name="Rectangle 386" width="1.831" height="2.485" rx="0.915" transform="translate(25.274 39.396)" fill="#0092c9"/>
  </g>
</svg>
