<svg xmlns="http://www.w3.org/2000/svg" width="88" height="87.984" viewBox="0 0 88 87.984">
  <g id="digital_marketing-01-01" data-name="digital marketing-01-01" transform="translate(-10.059 -9.28)">
    <path id="Path_821" data-name="Path 821" d="M98.059,83.3c-.361,1.042-.679,2.1-1.089,3.123A17.252,17.252,0,0,1,78.925,97.159a16.277,16.277,0,0,1-8.6-3.526,17.5,17.5,0,0,1-5.388-7.03c-.194-.454-.412-.483-.767-.37a34.391,34.391,0,0,1-19.843.077c-.6-.181-.835-.117-1.086.472a17.134,17.134,0,0,1-7.569,8.365,16.889,16.889,0,0,1-10.293,2.01,15.942,15.942,0,0,1-9.7-4.449,1.354,1.354,0,0,1-.2-1.781,1.291,1.291,0,0,1,1.875-.2c1.3.848,2.55,1.785,3.909,2.521a12.3,12.3,0,0,0,5.3,1.318,13.963,13.963,0,0,0,9.163-2.613,14.637,14.637,0,0,0-6.24-26.458,14.662,14.662,0,0,0-14.678,6.99,14.378,14.378,0,0,0-.824,13.429c.421,1.011.212,1.846-.6,2.157-.857.328-1.428-.086-1.9-1.126a17.648,17.648,0,0,1-1.329-9.01,16.162,16.162,0,0,1,3.435-8.462,16.194,16.194,0,0,1,7.082-5.427c.408-.157.492-.363.35-.85A35.334,35.334,0,0,1,19.6,51.507,33.641,33.641,0,0,1,21,43.255c.176-.579.073-.758-.469-.992a17.246,17.246,0,0,1-9.213-9.334,16.906,16.906,0,0,1-1.152-8.53,16.282,16.282,0,0,1,4.145-9.389,17.014,17.014,0,0,1,9.4-5.542c.055-.011.09-.123.134-.187h7.06c.071.07.132.185.216.205a17.123,17.123,0,0,1,12.2,10.269.741.741,0,0,0,.617.35A35.671,35.671,0,0,1,51,18.771a33.508,33.508,0,0,1,9.92.511c1.287.262,2.56.591,3.812.882A17.222,17.222,0,0,1,75.395,10c.672-.225,1.335-.48,2-.721h7.06c.071.07.13.174.216.207a43.752,43.752,0,0,1,4.766,1.88,16.124,16.124,0,0,1,7.532,8.567c.4,1.022.727,2.078,1.088,3.118v6.714c-.364,1.069-.663,2.166-1.1,3.2a17.071,17.071,0,0,1-9.059,9.259c-.725.32-.784.571-.579,1.239a32.37,32.37,0,0,1,1.384,8.42,34.054,34.054,0,0,1-1.468,11.326.912.912,0,0,0,.359.782c.725.432,1.538.72,2.257,1.157a17.038,17.038,0,0,1,7.279,8.711c.341.9.622,1.818.93,2.728V83.3Zm-34.105.1A17.336,17.336,0,0,1,84.481,63.026a31.321,31.321,0,0,0,.02-19.672c-6.15,1-11.468-.41-15.822-4.768-4.376-4.381-5.692-9.762-4.742-15.8a29.827,29.827,0,0,0-7.847-1.479,32.023,32.023,0,0,0-5.3.179c-2,.253-3.977.763-5.963,1.159-.41.081-.555.225-.434.707a10.51,10.51,0,0,1,.234,2.023,17.377,17.377,0,0,1-.685,5.978,16.318,16.318,0,0,1-3.114,5.881,1.358,1.358,0,0,1-2.014.262,1.413,1.413,0,0,1,.009-2.051,14.239,14.239,0,0,0,2.92-11.824,14.222,14.222,0,0,0-5.677-8.984,14.558,14.558,0,0,0-19.5,1.911,14.142,14.142,0,0,0-3.735,11.778,13.967,13.967,0,0,0,5.753,9.757,14.528,14.528,0,0,0,15.452,1.313c.386-.2.926-.478,1.239-.348a2.172,2.172,0,0,1,1.2,1.131c.174.6-.254,1.15-.888,1.474a17.7,17.7,0,0,1-11.223,1.772c-.718-.119-.749.264-.822.622A56.421,56.421,0,0,0,22.3,50.857a29.6,29.6,0,0,0,1.249,11.36c.179.557.223.978.983.679a4.635,4.635,0,0,1,1.424-.192,17.817,17.817,0,0,1,10.2,2.369,17.246,17.246,0,0,1,8.169,18.318c3.837,2.168,15.754,2.175,19.63.015Zm2.373-57.06A14.629,14.629,0,1,0,80.88,11.7,14.656,14.656,0,0,0,66.327,26.342Zm29.2,53.653A14.625,14.625,0,1,0,80.966,94.634,14.629,14.629,0,0,0,95.529,79.995Z" fill="#5f6060"/>
    <path id="Path_822" data-name="Path 822" d="M77.7,363.617c.084-1.814.125-3.61.267-5.4a1.56,1.56,0,0,1,2.212-1.32c1.527.727,2.993,1.584,4.469,2.415,1.426.806,2.785,1.747,4.259,2.448,1.516.721,2,2.686.159,3.7-2.5,1.377-4.962,2.816-7.441,4.229-.417.238-.822.505-1.26.7a1.668,1.668,0,0,1-2.4-1.331c-.145-1.816-.185-3.642-.269-5.447Zm2.8-3.577v7.224l6.249-3.616C84.562,362.381,82.57,361.231,80.5,360.039Z" transform="translate(-55.257 -283.853)" fill="#5f6060"/>
    <path id="Path_823" data-name="Path 823" d="M205.214,194.581V181.024c-.842.373-1.587.754-2.369,1.04-2.276.831-4.572,1.615-6.847,2.448-.256.093-.622.384-.628.591-.048,1.917-.029,3.836-.029,5.731,1.142.346,2.223.654,3.29,1a1.3,1.3,0,0,1,.969,1.564,1.433,1.433,0,0,1-1.8.93,18.105,18.105,0,0,0-2.025-.588,8.237,8.237,0,0,0-1.516.013c-.8.006-1.6,0-2.549,0,.073.582.163,1.036.179,1.494.071,1.825.124,3.651.178,5.478a15.16,15.16,0,0,1,.011,2c-.081.756-.69.969-1.329.871a1.189,1.189,0,0,1-1.168-1.219c-.086-2.362-.212-4.722-.344-7.082a14.071,14.071,0,0,0-.24-1.45c-.262-.011-.562-.033-.866-.037a2.66,2.66,0,0,1-2.834-2.746q-.058-3.312,0-6.626a2.721,2.721,0,0,1,2.977-2.726c2.188.06,4.383-.262,6.578.251a4.243,4.243,0,0,0,2.272-.533c2.479-1.022,4.934-2.1,7.391-3.18a1.068,1.068,0,0,0,.774-1.067c0-.784.63-1.212,1.457-1.17s1.163.408,1.163,1.338c0,6.943-.005,13.885.009,20.828a1.306,1.306,0,0,1-1.3,1.468,1.383,1.383,0,0,1-1.331-1.294,1,1,0,0,0-.7-1c-.688-.331-1.346-.729-2.014-1.1a1.308,1.308,0,0,1-.615-1.915,1.276,1.276,0,0,1,1.772-.439c.463.2.917.428,1.492.7ZM187.98,191.1h4.647V184.4H187.98Z" transform="translate(-143.13 -136.2)" fill="#5f6060"/>
    <path id="Path_824" data-name="Path 824" d="M50.663,71.719a34.844,34.844,0,0,1-2.234-3.934,8.926,8.926,0,0,1,.275-6.706,1.289,1.289,0,0,1,2.208-.43,8.763,8.763,0,0,0,3.781,2.763c.7.225,1.034.2,1.282-.643A4.728,4.728,0,0,1,63.04,60.1a.839.839,0,0,0,1.117-.022c.222-.172.511-.253.736-.421a1.093,1.093,0,0,1,1.542.051,2.367,2.367,0,0,1,.421,1.538,2.613,2.613,0,0,1-.575,1.479c-.915,1.045-.9,2.322-1.071,3.559a10.647,10.647,0,0,1-6.765,8.973A11.972,11.972,0,0,1,47.889,74.5a1.3,1.3,0,0,1-.8-1.527,1.326,1.326,0,0,1,1.448-1.055c.754-.013,1.5-.141,2.126-.205Zm-.081-7.182a5.7,5.7,0,0,0,1,3.717A7.764,7.764,0,0,0,54.413,70.5a1.306,1.306,0,0,1,.123,2.378c-.214.15-.414.324-.683.536a8.669,8.669,0,0,0,4.63-1.126c2.986-1.88,4.211-4.652,4.268-8.094a1.993,1.993,0,0,0-1.218-1.855,1.837,1.837,0,0,0-2.063.024A2.5,2.5,0,0,0,58.32,64.9c.038.7-.2,1.3-.923,1.388a5.853,5.853,0,0,1-2.289-.1c-1.521-.454-2.99-1.08-4.528-1.655Z" transform="translate(-30.218 -40.915)" fill="#5f6060"/>
    <path id="Path_825" data-name="Path 825" d="M372.5,56.826c.751,0,1.379.022,2-.005.807-.035,1.137.494,1.245,1.137a1.045,1.045,0,0,1-.842,1.357c-.751.126-1.514.165-2.406.254v.881c0,2.151,0,4.3,0,6.452,0,.972-.494,1.529-1.327,1.527s-1.318-.555-1.32-1.532c-.005-2.431,0-4.863,0-7.419-.6,0-1.141.024-1.672-.007a1.336,1.336,0,0,1-1.382-.925,1.211,1.211,0,0,1,.5-1.494,2.2,2.2,0,0,1,.954-.214c.482-.035.969-.009,1.595-.009,0-1.241-.024-2.433.005-3.623a4.394,4.394,0,0,1,2.982-4.427,12.545,12.545,0,0,1,4.039-.306c.265,0,.659.641.758,1.044a1.016,1.016,0,0,1-.736,1.342,9.8,9.8,0,0,1-1.939.181,2.259,2.259,0,0,0-2.457,2.488v3.3Z" transform="translate(-291.37 -32.001)" fill="#5f6060"/>
    <path id="Path_826" data-name="Path 826" d="M356.222,363.515c-1.922,0-3.845,0-5.767,0a3.314,3.314,0,0,1-3.383-3.323q-.041-5.852,0-11.7a3.572,3.572,0,0,1,3.341-3.279q5.811-.027,11.622,0a3.568,3.568,0,0,1,3.341,3.369q.025,5.852,0,11.7a3.333,3.333,0,0,1-3.217,3.231c-1.979.016-3.96,0-5.939,0Zm-.06-2.651c1.805,0,3.612-.009,5.417,0,.774.006,1.157-.328,1.155-1.119q-.011-5.374,0-10.747a1.019,1.019,0,0,0-1.157-1.152q-5.333,0-10.665,0a1.05,1.05,0,0,0-1.192,1.2q-.008,5.287,0,10.575c0,.994.254,1.234,1.285,1.238C352.721,360.87,354.442,360.864,356.161,360.864Z" transform="translate(-275.294 -274.414)" fill="#5f6060"/>
    <path id="Path_827" data-name="Path 827" d="M379.663,374.3c2.085-.205,3.812,1.855,3.828,3.94a3.93,3.93,0,0,1-3.953,3.856,3.784,3.784,0,0,1-3.975-3.891A3.745,3.745,0,0,1,379.663,374.3Zm-.161,2.651a1.329,1.329,0,0,0-1.309,1.274,1.328,1.328,0,0,0,2.653-.119,1.388,1.388,0,0,0-1.346-1.157Z" transform="translate(-298.585 -298.177)" fill="#5f6060"/>
  </g>
</svg>
