<svg xmlns="http://www.w3.org/2000/svg" width="87.047" height="81.067" viewBox="0 0 87.047 81.067">
  <path id="ecommerce_copy-01" data-name="ecommerce copy-01" d="M95.474,135.668c.669,2.508,1.311,4.918,1.982,7.436h52.5a8.3,8.3,0,0,1,.971.019,1.7,1.7,0,0,1,.017,3.393c-1,.08-2,.033-3.005.047-.2,0-.406.024-.69.043,2.346,4.88,1.581,9-3.1,11.928a7.922,7.922,0,0,1-9.441-1.057c-3.043-2.7-3.549-6.131-1.566-10.85h-19.5a8.351,8.351,0,0,1-2.266,11.488,8.215,8.215,0,0,1-10.008-.487c-2.618-2.213-4.269-6.414-1.649-11.067H96.977c-1.975,0-2.306-.253-2.828-2.161Q85.775,113.712,77.4,83.025c-.069-.255-.149-.508-.246-.835H71.6c-1.325,0-2.653.009-3.979,0-1.3-.012-2.041-.676-2.039-1.806s.714-1.79,2.044-1.8q5.217-.025,10.436,0c1.481,0,1.911.371,2.322,1.882,1.94,7.133,3.889,14.266,5.8,21.406.168.622.387.856,1.054.839,1.937-.047,3.877-.017,5.857-.017a27.125,27.125,0,0,1,1.833-7.878,24.762,24.762,0,0,1,25.833-15.16,25.013,25.013,0,0,1,21.892,22.3c.066.645.326.752.886.747,2.33-.024,4.657-.017,6.986-.007,1.817.007,2.526,1.026,1.855,2.717q-5.745,14.452-11.5,28.9a2.133,2.133,0,0,1-2.3,1.371q-20.959-.025-41.92-.009H95.477Zm-1.087-3.6h.841q20.821,0,41.639.017a1.038,1.038,0,0,0,1.127-.809q4.809-12.154,9.654-24.3c.1-.262.189-.534.307-.877h-3.369a2.014,2.014,0,0,0-2.245,1.887,24.558,24.558,0,0,1-27.409,21.07c-9.439-1.227-16.111-6.469-20-15.179a24.018,24.018,0,0,1-1.838-7.731H87.328c2.363,8.672,4.706,17.271,7.06,25.913Zm45.436,14.687a4.7,4.7,0,1,0,4.739,4.721,4.764,4.764,0,0,0-4.739-4.721Zm-28.616,4.726a4.7,4.7,0,0,0-9.4-.069,4.7,4.7,0,1,0,9.4.069Zm8.579-36.256v9.762c2.53-.582,6.178-6.062,6.523-9.762Zm-.054-31.842c0,3.364.007,6.428-.007,9.495,0,.5.253.577.664.575,1.415-.012,2.828,0,4.243,0h1.848c-1.325-4.024-2.731-7.755-6.748-10.065ZM109.4,115.226c1.316,4,2.715,7.75,6.663,9.956v-9.956Zm6.691-31.653c-2.755.946-6.4,6.5-6.518,9.816h6.518Zm11.716,18.888c-.194-1.731-.361-3.39-.6-5.041-.021-.154-.482-.345-.744-.35-1.737-.031-3.475-.017-5.214-.017h-1.635v5.4H127.8Zm-19.926,3.7c.187,1.851.366,3.613.541,5.353h7.65v-5.353Zm12.09,5.355h7.43c.18-1.8.352-3.558.529-5.339h-7.962v5.339ZM115.916,97.1h-7.445c-.189,1.8-.373,3.561-.56,5.35h8Zm-19.135,5.372h7.539c.161-1.792.321-3.563.487-5.412-2.2,0-4.338-.007-6.478.014a.606.606,0,0,0-.439.319,15.944,15.944,0,0,0-1.11,5.078Zm41.067,9.06c.395-1.75.794-3.525,1.2-5.348h-7.624c-.189,1.823-.369,3.565-.553,5.348h6.972Zm1.162-9.062c-.269-1.331-.475-2.6-.789-3.847-.4-1.577-.439-1.568-2.029-1.568h-5.311c.194,1.88.376,3.65.558,5.414h7.572Zm-42.315,3.7c.248,1.168.442,2.26.716,3.334.529,2.073.548,2.069,2.665,2.069h4.706c-.182-1.868-.352-3.617-.524-5.4Zm30.1-21.1c.881,2.088,1.826,4.14,2.613,6.251s.714,2.135,3.015,2.135h3.636A20.115,20.115,0,0,0,126.8,85.065Zm-17.814,38.429a31.971,31.971,0,0,1-3.2-7.745c-.13-.48-.38-.582-.817-.567-.735.024-1.472.007-2.207.007H99.628a21.362,21.362,0,0,0,9.356,8.308Zm27.054-8.308h-4.555c-1.385,0-1.377,0-1.739,1.291a11.822,11.822,0,0,1-.48,1.511c-.808,1.863-1.647,3.712-2.469,5.558a20.808,20.808,0,0,0,9.243-8.362ZM108.97,84.956a21.256,21.256,0,0,0-9.335,8.3c1.985,0,3.745.019,5.5-.026a.875.875,0,0,0,.591-.553A28.39,28.39,0,0,1,108.97,84.956Z" transform="translate(-65.58 -78.574)" fill="#fff"/>
</svg>
