<svg xmlns="http://www.w3.org/2000/svg" width="54.991" height="54.957" viewBox="0 0 54.991 54.957">
  <g id="elt-01" transform="translate(-17.519 -18.003)">
    <path id="Path_1543" data-name="Path 1543" d="M17.519,45.5A27.5,27.5,0,1,1,45.23,72.96,27.5,27.5,0,0,1,17.519,45.5Zm27.5,3.435v0q12.608,0,25.216,0c.37,0,.612-.026.66-.494a26.543,26.543,0,0,0-.691-9.551A26.026,26.026,0,0,0,41.03,19.81,25.378,25.378,0,0,0,23.313,31.222a25.212,25.212,0,0,0-4.172,16.787c.1,1.151.091.927,1.031.928q12.425.011,24.852,0ZM40.53,54.875h2.017V54.18H40.491c0-.438.009-.817,0-1.195-.009-.292.111-.4.4-.388a13.712,13.712,0,0,0,1.51-.014.461.461,0,0,0,.307-.336.451.451,0,0,0-.308-.327c-.781-.029-1.561-.009-2.343-.02-.272,0-.366.111-.364.373q.007,2.37,0,4.74c0,.291.11.4.4.394.764-.012,1.527,0,2.291,0,.224,0,.459.039.469-.317s-.191-.387-.465-.383c-.6.008-1.209,0-1.854,0V54.878Zm5.064,2.487V53.783A1.054,1.054,0,0,1,46.763,52.6c.052,0,.124.02.153-.006.118-.1.307-.223.309-.34a.453.453,0,0,0-.3-.334q-1.718-.037-3.437,0c-.12,0-.236.2-.353.31.121.123.232.336.366.353A11.574,11.574,0,0,0,44.8,52.6v4.766h.8Zm2.119.038c.949,0,1.83,0,2.711,0,.262,0,.432-.053.426-.37-.006-.344-.228-.329-.462-.328-.6,0-1.2,0-1.839,0-.013-.27-.029-.475-.031-.68,0-1.25-.011-2.5,0-3.751,0-.311-.143-.379-.415-.374-.246,0-.393.058-.393.344.006,1.683,0,3.367,0,5.157Z" transform="translate(0 0)" fill="#0092c9"/>
    <path id="Path_1544" data-name="Path 1544" d="M206.351,308.377V310.2c.645,0,1.249.006,1.854,0,.274,0,.474.026.465.383s-.245.317-.469.317c-.764,0-1.528-.008-2.291,0-.29,0-.4-.1-.4-.394q.012-2.371,0-4.74c0-.262.092-.376.364-.373.781.011,1.563-.009,2.343.02a.455.455,0,0,1,.308.327.463.463,0,0,1-.307.336,13.717,13.717,0,0,1-1.51.014c-.291-.009-.412.1-.4.388.013.377,0,.757,0,1.195h2.056v.695h-2.017Z" transform="translate(-165.82 -253.503)" fill="#fff"/>
    <path id="Path_1545" data-name="Path 1545" d="M237.207,310.9h-.8v-4.766a11.845,11.845,0,0,1-1.291-.017c-.133-.015-.244-.229-.366-.353.118-.109.234-.308.353-.31q1.718-.035,3.437,0a.45.45,0,0,1,.3.334c0,.117-.191.235-.309.34-.03.026-.1,0-.153.006a1.055,1.055,0,0,0-1.169,1.183V310.9Z" transform="translate(-191.612 -253.535)" fill="#fff"/>
    <path id="Path_1546" data-name="Path 1546" d="M273.532,310.91c0-1.79,0-3.474,0-5.157,0-.286.146-.341.393-.344.272,0,.417.063.415.374-.009,1.25,0,2.5,0,3.751,0,.205.018.409.031.68.636,0,1.237,0,1.839,0,.235,0,.456-.016.462.328.006.317-.164.371-.426.37C275.363,310.906,274.482,310.91,273.532,310.91Z" transform="translate(-225.819 -253.51)" fill="#fff"/>
    <path id="Path_1547" data-name="Path 1547" d="M196.3,53.361c.118.524-.571.9-.067,1.436.563.6,1.094,1.077,1.923.4.134.192.238.327.328.469.475.763.481.772-.195,1.366a.455.455,0,0,0-.158.626.769.769,0,0,1,.09.3.887.887,0,0,0,1,.96c.261,0,.4.142.388.433-.018.344,0,.691,0,1-.075.048-.1.084-.133.084-.939-.019-1.284.554-1.347,1.379a.745.745,0,0,0,.138.525c.679.69.69.68.172,1.5-.064.1-.142.195-.238.328-.563-.121-1.048-.492-1.693.14s-.3,1.119-.142,1.721c-.188.119-.359.234-.534.34-.682.412-.7.423-1.205-.206a.537.537,0,0,0-.754-.2,1,1,0,0,1-.4.114c-.554.012-.734.348-.758.834-.019.38-.2.563-.6.514a1.755,1.755,0,0,0-.416,0c-.4.047-.6-.1-.636-.528-.02-.239-.106-.6-.27-.673a3.374,3.374,0,0,0-1.3-.322c-.176-.006-.389.316-.538.524a.43.43,0,0,1-.695.127,1.749,1.749,0,0,0-.314-.184c-.441-.193-.6-.467-.334-.928a.605.605,0,0,0-.208-.928.784.784,0,0,1-.257-.256.691.691,0,0,0-1.057-.248c-.6.35-.716-.169-.948-.5-.25-.36-.335-.671.13-.936.42-.239.452-.559.335-1.041-.153-.632-.361-1.04-1.083-1.045-.118,0-.27-.248-.34-.408-.058-.132,0-.309-.021-.463-.05-.463.116-.722.616-.73a.644.644,0,0,0,.725-.688,1.054,1.054,0,0,1,.124-.449c.189-.349.06-.57-.224-.794-.191-.151-.493-.428-.453-.554a3.668,3.668,0,0,1,.618-1.067c.051-.066.355.017.514.092.429.2.789.208,1.058-.246a.564.564,0,0,1,.18-.185.7.7,0,0,0,.256-1.091c-.305-.492.053-.665.4-.859.36-.2.7-.5,1.046.041.123.192.36.471.515.453a3.832,3.832,0,0,0,1.33-.389c.154-.08.184-.463.212-.715.038-.329.188-.461.509-.429a1.26,1.26,0,0,0,.313,0c.524-.079.828.086.827.67a.586.586,0,0,0,.632.653,1.068,1.068,0,0,1,.4.107.616.616,0,0,0,.915-.248c.275-.476.631-.511,1.058-.183.19.146.4.263.557.361ZM190.311,59.7a1.589,1.589,0,0,0,1.568,1.606,1.6,1.6,0,1,0,.021-3.194A1.6,1.6,0,0,0,190.311,59.7Z" transform="translate(-146.996 -29.973)" fill="#0092c9"/>
    <path id="Path_1548" data-name="Path 1548" d="M129.377,158.233c-.5.15-.5-.3-.624-.6s-.2-.559.178-.789c.167-.1.243-.4.3-.623a1.278,1.278,0,0,0,0-.567c-.037-.179-.1-.436-.225-.5-.493-.243-.358-.567-.229-.951s.283-.6.739-.512a.59.59,0,0,0,.5-.229c.193-.343.722-.482.613-1.009-.04-.193-.119-.5-.028-.576a3.772,3.772,0,0,1,.9-.509c.054-.025.206.06.251.133.274.438.642.322,1.045.246.383-.071.739-.073.877-.55.12-.415.494-.239.757-.2.244.034.552.006.61.419a1.265,1.265,0,0,0,1.677.971c.445-.2.544.184.732.384.171.183.421.36.177.705a1.22,1.22,0,0,0,.62,1.775c.394.107.346.393.329.653-.018.278.151.627-.308.771a1.27,1.27,0,0,0-.645,1.831.524.524,0,0,1,0,.445c-.377.632-.538.677-1.2.472a.575.575,0,0,0-.379.046,4.625,4.625,0,0,0-.716.42.667.667,0,0,0-.243.354.953.953,0,0,1-1.14.761.53.53,0,0,1-.274-.264,1.242,1.242,0,0,0-1.882-.305c-.349.347-.568.017-.815-.1s-.542-.219-.413-.646a1.308,1.308,0,0,0-1.181-1.455Zm3.106-2.24a1.049,1.049,0,0,0,1.063,1.039,1.085,1.085,0,0,0,1.063-1.054,1.107,1.107,0,0,0-1.1-1.074A1.075,1.075,0,0,0,132.483,155.994Z" transform="translate(-98.026 -117.251)" fill="#0092c9"/>
    <path id="Path_1549" data-name="Path 1549" d="M283.425,163.478c-.137-.23-.251-.442-.384-.643-.2-.3-.23-.534.1-.79a.7.7,0,0,0,.2-.565c-.074-.5.031-1.091-.677-1.315-.1-.031-.053-.616,0-.933a.522.522,0,0,1,.369-.314,1.3,1.3,0,0,0,1-1.675c-.167-.416.162-.525.373-.688s.384-.463.75-.19a1.238,1.238,0,0,0,1.806-.579c.132-.44.449-.313.711-.305s.584-.123.7.326a1.278,1.278,0,0,0,1.813.7.511.511,0,0,1,.441.009c.622.393.65.525.441,1.209a.581.581,0,0,0,.071.425c.285.448.358,1.137,1.169,1.053a2.4,2.4,0,0,1,.257.867.539.539,0,0,1-.226.429,1.3,1.3,0,0,0-.387,1.921.554.554,0,0,1,.049.476,6.931,6.931,0,0,1-.513.828c-.827-.624-1.185.2-1.709.5a.371.371,0,0,0-.093.323.552.552,0,0,1-.451.761c-.428.123-.8.252-1.02-.3a.355.355,0,0,0-.278-.183c-.534.072-1.191-.3-1.567.441-.042.084-.471.035-.68-.05s-.547-.342-.52-.435c.162-.568-.254-.768-.531-1.113-.377-.471-.768-.329-1.212-.185Zm5.169-2.964a1.064,1.064,0,0,0-1.046-1.061,1.1,1.1,0,0,0-1.078,1.047,1.122,1.122,0,0,0,1.037,1.092A1.076,1.076,0,0,0,288.594,160.514Z" transform="translate(-233.826 -121.246)" fill="#0092c9"/>
    <path id="Path_1550" data-name="Path 1550" d="M300.331,146.613a2.5,2.5,0,0,1,2.053-.59,6.211,6.211,0,0,0,4.117-11.476c-.042-.027-.079-.06-.167-.129l1.222-.728c-.26-.472-.5-.9-.8-1.461a8.289,8.289,0,0,1,3.371,2.731,8.418,8.418,0,0,1-8.341,13.2,1.163,1.163,0,0,1-.993-.71,8.824,8.824,0,0,0-.458-.844Z" transform="translate(-249.458 -100.756)" fill="#0092c9"/>
    <path id="Path_1551" data-name="Path 1551" d="M106.717,158.007c0,.408.013.718,0,1.028s.107.445.423.432a6.61,6.61,0,0,1,1.129.047,7.3,7.3,0,0,1-3.491,1.478,8.334,8.334,0,0,1-9.65-7.131,8.092,8.092,0,0,1,2.039-6.758,2.551,2.551,0,0,1,1.808-.288c.04.026.093.079.09.116-.045.546.193,1.1-.251,1.625a5.923,5.923,0,0,0-1.061,6.6,6.031,6.031,0,0,0,5.54,3.768,6.187,6.187,0,0,0,3.428-.915Z" transform="translate(-68.367 -113.558)" fill="#0092c9"/>
  </g>
</svg>
