<svg xmlns="http://www.w3.org/2000/svg" width="40" height="40" viewBox="0 0 40 40">
  <g id="FACEBOOK-01" transform="translate(-68.16 -70.18)">
    <path id="Path_933" data-name="Path 933" d="M108.16,90.171a20,20,0,1,0-23.125,19.748V95.95H79.957V90.171h5.078v-4.4c0-5.01,2.986-7.778,7.554-7.778a30.759,30.759,0,0,1,4.477.391V83.3H94.544c-2.485,0-3.259,1.541-3.259,3.122v3.75h5.547l-.887,5.778h-4.66v13.969A20,20,0,0,0,108.16,90.171Z" fill="#4676ed"/>
    <path id="Path_934" data-name="Path 934" d="M399.047,297.246l.953-6.215h-5.963V287c0-1.7.833-3.358,3.5-3.358h2.711V278.35a33.053,33.053,0,0,0-4.813-.42c-4.911,0-8.121,2.977-8.121,8.365v4.737H381.86v6.215h5.459V312.27a21.739,21.739,0,0,0,6.719,0V297.246Z" transform="translate(-302.565 -202.351)" fill="#fff"/>
  </g>
</svg>
