<?xml version="1.0" encoding="UTF-8"?>
<svg id="Layer_2" data-name="Layer 2" xmlns="http://www.w3.org/2000/svg" viewBox="0 0 500 500">
  <defs>
    <style>
      .cls-1 {
        fill: #fff;
      }

      .cls-2 {
        fill: #fafafa;
      }

      .cls-3 {
        fill: #455a64;
      }

      .cls-4 {
        fill: #e0e0e0;
      }

      .cls-5 {
        fill: #ff725e;
      }

      .cls-6 {
        opacity: .3;
      }

      .cls-7 {
        fill: #eb996e;
      }

      .cls-8 {
        fill: #ffbe9d;
      }

      .cls-9 {
        fill: #ebebeb;
      }

      .cls-10 {
        fill: #263238;
      }
    </style>
  </defs>
  <g id="Group_147" data-name="Group 147">
    <g id="Plant">
      <g id="Group_93" data-name="Group 93">
        <path id="Path_450" data-name="Path 450" class="cls-3" d="M128.31,374.9c2.27,.55,4.22,1.99,5.39,4,1.15,2,1.84,4.25,1.99,6.55,.17,4.63-.88,9.23-3.03,13.34-4.33-2.41-6.34-7.79-7.19-10.59-1.34-4.41-1.09-13.19,2.83-13.32"/>
        <path id="Path_451" data-name="Path 451" class="cls-3" d="M138.41,405.04c-1.04-2.41-.7-5.2,.88-7.29,1.61-2.05,3.97-3.38,6.56-3.67,1.18-.27,2.42,0,3.38,.73,.78,.83,1.04,2.01,.7,3.09-.35,1.06-.98,2.01-1.82,2.75-2.42,2.82-5.97,4.43-9.69,4.4"/>
        <path id="Path_452" data-name="Path 452" class="cls-10" d="M136.55,419.3s-.04-.33-.06-.91c-.02-.65-.04-1.49-.07-2.5-.16-2.76,.13-5.53,.86-8.2,.78-2.68,2.25-5.1,4.28-7.02,.62-.57,1.3-1.06,2.04-1.46,.2-.11,.41-.21,.62-.3,.07-.04,.15-.07,.22-.08-.97,.58-1.88,1.25-2.72,2.02-1.94,1.93-3.36,4.32-4.13,6.95-.71,2.64-1.03,5.38-.94,8.11,0,1.06-.02,1.91-.03,2.5,0,.31-.02,.61-.07,.91h-.01Z"/>
        <path id="Path_453" data-name="Path 453" class="cls-10" d="M128.71,381.61s.05,.13,.13,.38,.17,.65,.3,1.1c.25,.96,.61,2.35,1.04,4.07,.85,3.45,1.95,8.22,3.05,13.52s1.98,10.12,2.58,13.61c.3,1.75,.53,3.16,.67,4.15,.07,.47,.12,.84,.16,1.13,.02,.13,.04,.27,.03,.4-.04-.13-.08-.25-.1-.38-.06-.29-.13-.66-.22-1.12-.19-1.01-.45-2.41-.76-4.13-.65-3.49-1.57-8.29-2.67-13.6s-2.17-10.08-2.95-13.53c-.38-1.7-.7-3.09-.93-4.1-.1-.46-.18-.82-.25-1.12-.03-.12-.05-.25-.07-.38Z"/>
        <path id="Path_454" data-name="Path 454" class="cls-3" d="M132.66,409.01c-2.02-5.13-6.4-8.98-11.75-10.33-1.31-.52-2.81-.22-3.83,.76-.62,1.27-.42,2.79,.5,3.86,3.32,4.88,9.26,7.29,15.05,6.1"/>
        <path id="Path_455" data-name="Path 455" class="cls-10" d="M122.37,402.66s.31,.04,.84,.17c.33,.07,.66,.17,.98,.28,.43,.13,.85,.29,1.26,.47,.5,.2,1,.43,1.48,.69,.55,.29,1.09,.6,1.62,.94,1.2,.8,2.3,1.73,3.28,2.77,.97,1.06,1.81,2.22,2.51,3.47,.3,.55,.57,1.11,.81,1.69,.21,.5,.4,1.01,.55,1.53,.17,.47,.25,.91,.34,1.3,.08,.33,.14,.67,.18,1.01,.06,.28,.09,.57,.08,.86-.08,0-.2-1.21-.82-3.08-.17-.51-.36-1.01-.58-1.5-.24-.56-.52-1.11-.82-1.65-.7-1.22-1.54-2.36-2.48-3.4-.97-1.02-2.05-1.94-3.21-2.74-.51-.35-1.03-.67-1.58-.96-.5-.29-.99-.5-1.44-.72-1.81-.79-3.01-1.06-2.99-1.12v-.02Z"/>
      </g>
    </g>
    <g id="Speech_Bubble" data-name="Speech Bubble">
      <g id="Group_96" data-name="Group 96">
        <g id="Group_94" data-name="Group 94">
          <path id="Path_456" data-name="Path 456" class="cls-2" d="M148.87,285.32l-3.08-9.61c9.71-15.72,4.81-36.32-10.93-46.01-15.75-9.69-36.38-4.8-46.08,10.92-9.71,15.72-4.81,36.32,10.93,46.01,11.87,7.31,27.04,6.5,38.07-2.02v.02l11.11,.69h0Z"/>
          <path id="Path_457" data-name="Path 457" class="cls-10" d="M148.87,285.32s-.22,0-.7-.03-1.19-.06-2.11-.11c-1.9-.11-4.69-.25-8.32-.46-.05,0-.09-.05-.09-.1,0-.02,0-.04,.02-.05v-.02l.14,.13c-5.8,4.51-12.92,7-20.27,7.06-1.86,0-3.72-.16-5.55-.44-8.53-1.33-16.2-5.9-21.42-12.76-2.94-3.84-5.02-8.27-6.09-12.99-1.14-5.01-1.09-10.22,.13-15.21,.17-.63,.33-1.27,.49-1.92s.44-1.24,.67-1.87c.21-.63,.46-1.25,.73-1.86,.29-.6,.58-1.21,.88-1.81,.29-.61,.62-1.2,.98-1.76l1.06-1.73,1.22-1.63,.61-.82c.21-.27,.45-.5,.68-.76,3.59-4.14,8.16-7.34,13.29-9.3,4.89-1.87,10.14-2.58,15.35-2.1,4.9,.48,9.63,2.04,13.85,4.56,3.9,2.32,7.3,5.4,9.98,9.06,2.42,3.31,4.22,7.04,5.29,11,.48,1.81,.83,3.65,1.04,5.5,.13,1.73,.17,3.47,.1,5.21-.32,5.54-2.03,10.91-4.95,15.63v-.08c.99,3.14,1.74,5.54,2.27,7.19,.25,.8,.43,1.41,.57,1.83s.18,.61,.18,.61c0,0-.08-.22-.22-.63s-.35-1.04-.62-1.85c-.53-1.62-1.32-4-2.34-7.1,0-.02,0-.05,0-.08,2.87-4.7,4.53-10.03,4.83-15.53,.06-1.72,.03-3.44-.12-5.16-.21-1.84-.56-3.66-1.04-5.45-3.66-13.27-15.12-22.93-28.85-24.3-5.15-.47-10.33,.24-15.16,2.08-5.07,1.93-9.58,5.09-13.13,9.18-.22,.25-.47,.49-.67,.76l-.6,.81-1.21,1.61-1.04,1.71c-.37,.55-.69,1.13-.97,1.73-.29,.6-.58,1.19-.86,1.78-.27,.6-.52,1.21-.72,1.83-.22,.61-.47,1.22-.66,1.85s-.33,1.26-.48,1.89c-1.22,4.93-1.27,10.07-.14,15.02,2.97,13.26,13.73,23.37,27.17,25.52,1.82,.29,3.65,.44,5.5,.46,1.72,0,3.43-.14,5.13-.42,5.47-.89,10.63-3.12,15.03-6.48,.04-.03,.1-.03,.13,.01,0,0,0,0,0,0,.02,.03,.02,.08,0,.12v.02l-.08-.15c3.59,.25,6.36,.44,8.24,.57l2.14,.15c.48,.03,.73,.06,.73,.06v.02Z"/>
        </g>
        <g id="Group_95" data-name="Group 95">
          <path id="Path_458" data-name="Path 458" class="cls-10" d="M107.87,258.21c0,1.87-1.52,3.39-3.4,3.39s-3.4-1.52-3.4-3.39c0-1.87,1.52-3.39,3.4-3.39,1.87,0,3.39,1.51,3.4,3.38h0Z"/>
          <path id="Path_459" data-name="Path 459" class="cls-10" d="M121.47,258.21c0,1.87-1.52,3.39-3.4,3.39s-3.4-1.52-3.4-3.39,1.52-3.39,3.4-3.39c1.87,0,3.39,1.51,3.4,3.38h0Z"/>
          <path id="Path_460" data-name="Path 460" class="cls-10" d="M135.03,256.52c.94,1.62,.38,3.69-1.24,4.63s-3.7,.38-4.64-1.24c-.94-1.62-.38-3.69,1.24-4.63,0,0,0,0,0,0,1.62-.94,3.7-.38,4.64,1.24,0,0,0,0,0,0Z"/>
        </g>
      </g>
    </g>
    <g id="Device">
      <g id="Group_92" data-name="Group 92">
        <g id="Group_70" data-name="Group 70">
          <g id="Group_69" data-name="Group 69">
            <path id="Path_342" data-name="Path 342" class="cls-3" d="M411.5,426.87l-118.44-.07c-14.04,.2-25.58-11-25.79-25.02l.06-287.88c.21-14.02,11.76-25.22,25.81-25.01,0,0,0,0,0,0l118.44,.07c14.04-.2,25.59,11,25.79,25.02l-.06,287.88c-.21,14.02-11.77,25.22-25.81,25.01,0,0,0,0,0,0Z"/>
            <path id="Path_343" data-name="Path 343" class="cls-1" d="M411.46,99.46l-22.96-.02c-3.1,.02-5.6,2.55-5.58,5.64v4.03c.02,3.1-2.48,5.62-5.58,5.64l-44.76-.03c-3.1-.02-5.59-2.54-5.57-5.63,0,0,0,0,0-.01v-4.03c.02-3.09-2.47-5.62-5.57-5.64,0,0,0,0,0,0h-8.08l-20.1-.02c-9.83-.16-17.92,7.67-18.08,17.48l-.06,280.41c.15,9.8,8.23,17.63,18.05,17.49l118.2,.07c9.82,.15,17.92-7.67,18.08-17.48l.07-280.42c-.16-9.8-8.23-17.63-18.05-17.49h-.01Z"/>
          </g>
          <path id="Path_344" data-name="Path 344" class="cls-9" d="M429.51,160.27v-43.1c-.17-9.83-8.2-17.71-18.05-17.71l-22.96-.02c-3.15,.07-5.65,2.68-5.58,5.82v4.15c.07,3.14-2.43,5.75-5.58,5.82l-44.76-.03c-3.15-.07-5.64-2.67-5.57-5.81,0,0,0,0,0,0v-4.15c.07-3.14-2.42-5.75-5.57-5.82h-8.08l-20.1-.02c-9.98,0-18.07,8.07-18.08,18.03h0v42.98h154.32v-.14Z"/>
        </g>
        <g id="Group_78" data-name="Group 78">
          <ellipse id="Ellipse_100" data-name="Ellipse 100" class="cls-4" cx="306.66" cy="197.11" rx="18.71" ry="18.63"/>
          <g id="Group_72" data-name="Group 72">
            <g id="Group_71" data-name="Group 71">
              <path id="Path_345" data-name="Path 345" class="cls-3" d="M297.91,201.77l4.89-.42,11.96,2.02,1.41,8.98-.2,1.05c-5.47,3.08-12.12,3.24-17.73,.41l-.34-12.03"/>
              <path id="Path_346" data-name="Path 346" class="cls-3" d="M312.22,203.23c2.42-.35,4.83,.71,6.21,2.72,.81,1.13,1.56,2.31,2.23,3.53-1.62,2.09-3.78,3.69-6.24,4.66l-2.19-10.91Z"/>
            </g>
            <path id="Path_347" data-name="Path 347" class="cls-3" d="M297.92,201.77c-1.92,.27-3.59,1.45-4.5,3.16-1.26,2.75-1.54,3.62-1.54,3.62,1.64,2.29,3.85,4.11,6.41,5.28,0,0,.59-6.94,.68-8.9,.08-2.15,.17-3.21-1.05-3.15h0Z"/>
          </g>
          <g id="Group_77" data-name="Group 77">
            <g id="Group_76" data-name="Group 76">
              <path id="Path_348" data-name="Path 348" class="cls-10" d="M300.88,184.12c1.65-2.11,4.17-3.36,6.85-3.4,1.13,0,2.26,.2,3.32,.6,1.12,.27,2.11,.92,2.8,1.85,.84,1.09,1.4,2.38,1.61,3.75,.2,1.4,.27,2.81,.2,4.22-.07,1.42-.53,2.79-1.33,3.97l-3.59,.63c-1.98,.15-3.98,.05-5.94-.32-1.97-.38-3.72-1.52-4.85-3.18-1.31-2.65-.96-5.82,.91-8.11h.02Z"/>
              <path id="Path_349" data-name="Path 349" class="cls-10" d="M297.4,194.53c.07-.82,.52-1.57,1.22-2.02,.72-.44,1.64-.36,2.27,.2l.57,.68c.9,.41,1.43,1.35,1.34,2.33-.14,.97-.83,1.78-1.77,2.07-.94,.27-1.96,.02-2.68-.64-.7-.68-1.05-1.64-.94-2.61h0Z"/>
              <path id="Path_350" data-name="Path 350" class="cls-3" d="M298.11,196.93c-.16-.2-.22-.46-.19-.72,.12-.6,.4-1.16,.83-1.61,.4-.47,.89-.86,1.44-1.15,.42-.22,.71-.31,.7-.33-.26,.03-.52,.1-.76,.22-.91,.42-1.65,1.14-2.1,2.03-.14,.26-.22,.55-.23,.84,0,.2,.05,.4,.16,.57,.08,.12,.15,.16,.16,.15h0Z"/>
              <g id="Group_75" data-name="Group 75">
                <path id="Path_351" data-name="Path 351" class="cls-8" d="M310.72,202.59s-.02-3.33-.02-3.32c1.99-.41,3.5-2.05,3.74-4.06,.38-2.47,.54-4.97,.46-7.47-.02-2.73-2.06-5.03-4.78-5.38l-1.26-.14-4.8,1.9c-.69,.04-1.24,.59-1.26,1.28l-.14,15.99,2.19,3.07c1.04,1.45,3.05,1.79,4.51,.75,.85-.6,1.35-1.57,1.35-2.61h0v-.02Z"/>
                <path id="Path_352" data-name="Path 352" class="cls-7" d="M308.82,194.32c.03-.19,.12-.37,.28-.49,.28-.24,.69-.27,.99-.06,.31,.24,.47,.63,.42,1.02h0c-.17,.23-.42,.38-.71,.41h-.13c-.23,0-.44-.09-.6-.25-.18-.17-.26-.41-.23-.66v.03Z"/>
                <g id="Group_73" data-name="Group 73">
                  <path id="Path_353" data-name="Path 353" class="cls-10" d="M313.18,190.33c0,.26-.23,.47-.49,.47-.26,0-.47-.19-.47-.45,0,0,0-.01,0-.02,0-.26,.23-.47,.49-.47,.26,0,.47,.19,.47,.45,0,0,0,.01,0,.02Z"/>
                  <path id="Path_354" data-name="Path 354" class="cls-10" d="M313.98,189.12c-.07,.06-.42-.23-.94-.25s-.92,.22-.97,.14c-.03-.03,.04-.14,.22-.25,.24-.14,.51-.21,.79-.19,.27,.01,.53,.11,.74,.28,.15,.13,.2,.25,.17,.27Z"/>
                  <path id="Path_355" data-name="Path 355" class="cls-10" d="M310.68,193.07c.28-.05,.57-.09,.86-.11,.13,0,.25-.03,.29-.12,.02-.14,0-.28-.07-.4-.11-.33-.22-.68-.34-1.03-.32-.88-.57-1.78-.74-2.7,.39,.85,.71,1.73,.96,2.63,.11,.37,.22,.71,.33,1.04,.07,.16,.09,.35,.04,.52-.04,.1-.13,.16-.23,.18-.07,.02-.15,.02-.22,.02-.29,.02-.58,0-.86-.05h-.01Z"/>
                  <path id="Path_356" data-name="Path 356" class="cls-7" d="M310.71,199.26c-1.79-.07-3.52-.63-5-1.62,1.01,1.78,2.99,2.79,5.02,2.55l-.02-.91h0Z"/>
                  <path id="Path_357" data-name="Path 357" class="cls-10" d="M309.12,193.35c.08,0,.06,.57,.5,.99s1.08,.4,1.08,.47c0,.03-.14,.1-.4,.09-.33-.01-.65-.14-.89-.37-.24-.22-.38-.51-.4-.83,0-.25,.06-.38,.1-.37h.01Z"/>
                  <path id="Path_358" data-name="Path 358" class="cls-10" d="M313.87,187.16c-.09,.13-.49,.02-.96,.03s-.87,.12-.96,0c-.04-.06,.02-.18,.18-.3,.47-.29,1.07-.3,1.55-.02,.17,.12,.23,.23,.19,.29h0Z"/>
                  <path id="Path_359" data-name="Path 359" class="cls-10" d="M307.44,190.3c-.01,.26,.19,.49,.46,.5,.26,.02,.48-.17,.5-.42,.01-.26-.19-.49-.46-.5-.26-.02-.48,.16-.5,.42,0,0,0,0,0,0Z"/>
                  <path id="Path_360" data-name="Path 360" class="cls-10" d="M306.81,188.94c.06,.07,.43-.2,.96-.19s.9,.27,.96,.22-.03-.14-.2-.27c-.22-.16-.48-.25-.76-.25-.27,0-.54,.08-.76,.23-.17,.12-.22,.23-.19,.27h-.01Z"/>
                  <path id="Path_361" data-name="Path 361" class="cls-10" d="M306.51,187.81c.1,.12,.5,0,.99,0s.89,.09,.99-.03c.04-.06-.02-.18-.2-.29-.24-.14-.52-.21-.8-.21-.28,0-.56,.07-.79,.22-.18,.13-.23,.24-.19,.3Z"/>
                </g>
                <g id="Group_74" data-name="Group 74">
                  <path id="Path_362" data-name="Path 362" class="cls-8" d="M303.46,191.73c.02-.28-.28-.97-.55-1.02-.86-.31-1.8,.13-2.11,.99-.08,.23-.12,.48-.09,.73-.14,1.07,.6,2.05,1.67,2.19,.27,.04,.54,.02,.8-.06,0-.06,.22-1.85,.28-2.83Z"/>
                  <path id="Path_363" data-name="Path 363" class="cls-7" d="M302.54,193.56l-.13,.06c-.11,.04-.23,.03-.33-.02-.32-.24-.5-.63-.45-1.02,0-.22,.06-.44,.17-.63,.06-.16,.19-.28,.36-.33,.11-.02,.21,.04,.25,.14,.03,.08,0,.13,.03,.13,.04-.04,.06-.1,.04-.15,0-.07-.04-.12-.09-.17-.07-.06-.16-.09-.25-.08-.22,.03-.4,.17-.49,.37-.12,.22-.19,.46-.2,.71-.06,.47,.18,.92,.59,1.15,.14,.05,.29,.03,.42-.04,.08-.06,.1-.12,.09-.12h0Z"/>
                </g>
              </g>
              <path id="Path_364" data-name="Path 364" class="cls-10" d="M302.81,190.71l.66,.68c2.83-2.71,8.37-9.47,8.07-9.07-1.29-.48-2.69-.63-4.05-.44-2.11,.36-6.1,1.41-6.06,3.89,.12,1.73,.59,3.41,1.39,4.95Z"/>
            </g>
            <path id="Path_365" data-name="Path 365" class="cls-3" d="M299.06,190.15c.01-.05,.03-.1,.04-.15,.05-.14,.1-.28,.17-.41,.27-.48,.63-.89,1.08-1.21,.66-.47,1.4-.82,2.18-1.04,.87-.28,1.84-.5,2.79-.91,.9-.37,1.76-.85,2.55-1.42,.65-.47,1.25-.99,1.8-1.57,.37-.39,.72-.8,1.04-1.23,.11-.14,.19-.27,.25-.36s.09-.13,.1-.12-.03,.05-.08,.13-.13,.22-.25,.37c-.31,.44-.64,.86-1.01,1.26-.55,.59-1.15,1.13-1.8,1.61-.8,.58-1.66,1.07-2.58,1.45-.92,.35-1.86,.65-2.81,.9-.77,.21-1.49,.56-2.15,1.01-.44,.31-.81,.7-1.09,1.16-.1,.17-.18,.35-.25,.53h.01Z"/>
            <path id="Path_366" data-name="Path 366" class="cls-3" d="M299.81,190.55c0-.19,.03-.39,.1-.57,.19-.49,.53-.92,.97-1.21,.66-.42,1.39-.71,2.16-.84,.92-.18,1.82-.47,2.68-.85,.85-.39,1.65-.88,2.39-1.46,.6-.48,1.15-1.02,1.64-1.61,.33-.4,.63-.82,.91-1.26,.09-.15,.16-.27,.22-.36,.03-.04,.05-.09,.08-.13-.02,.05-.04,.09-.06,.13-.05,.1-.12,.22-.2,.38-.26,.45-.56,.88-.88,1.28-.49,.6-1.04,1.15-1.64,1.64-.73,.6-1.55,1.1-2.41,1.49-.87,.38-1.78,.67-2.71,.85-.75,.12-1.48,.39-2.13,.8-.43,.28-.77,.68-.98,1.16-.07,.18-.12,.36-.15,.54l.02,.02Z"/>
          </g>
          <path id="Path_367" data-name="Path 367" class="cls-10" d="M298.3,213.81c-.09-.82-.11-1.64-.08-2.46-.03-.82,0-1.65,.08-2.46,.11,1.64,.11,3.29,0,4.93Z"/>
          <path id="Path_368" data-name="Path 368" class="cls-10" d="M316,213.46s0-.33,.03-.87c.05-.7,.02-1.4-.08-2.09-.13-.69-.33-1.37-.6-2.02-.13-.26-.23-.54-.3-.82,.16,.24,.3,.5,.42,.77,.31,.64,.53,1.32,.66,2.02,.1,.7,.11,1.42,.03,2.12-.02,.29-.07,.58-.15,.87v.03Z"/>
        </g>
        <path id="Path_369" data-name="Path 369" class="cls-9" d="M406.01,220.64h-63.75c-3.16,0-5.73-2.56-5.73-5.72h0v-26.72l-7.03-6.23h76.51c3.16,0,5.73,2.56,5.73,5.72h0v27.24c0,3.15-2.57,5.71-5.73,5.71Z"/>
        <path id="Path_370" data-name="Path 370" class="cls-4" d="M401.64,224.09c-4.53,.29-9.07,.29-13.6,0,4.53-.29,9.07-.29,13.6,0Z"/>
        <g id="Group_79" data-name="Group 79">
          <path id="Path_371" data-name="Path 371" class="cls-5" d="M404.45,224.65c-.06,0-.11-.02-.15-.07l-1.32-1.37c-.08-.08-.08-.21,0-.29,.08-.08,.21-.08,.29,0l1.17,1.22,2.56-2.6c.08-.08,.21-.08,.29,0s.08,.21,0,.29l-2.71,2.75s-.1,.05-.15,.06h.01Z"/>
          <path id="Path_372" data-name="Path 372" class="cls-5" d="M406.34,224.61h-.25c-.11,0-.2-.1-.2-.22,0-.11,.1-.2,.22-.2h.15l2.64-2.68c.08-.08,.21-.08,.29,0s.08,.21,0,.29l-2.71,2.75s-.1,.05-.15,.06h.01Z"/>
        </g>
        <path id="Path_373" data-name="Path 373" class="cls-4" d="M401.64,325.69c-4.53,.29-9.07,.29-13.6,0,4.53-.29,9.07-.29,13.6,0Z"/>
        <g id="Group_80" data-name="Group 80">
          <path id="Path_374" data-name="Path 374" class="cls-5" d="M404.45,326.23h0c-.06,0-.11-.02-.15-.07l-1.32-1.37c-.08-.08-.08-.21,0-.29,.08-.08,.21-.08,.29,0l1.17,1.21,2.56-2.6c.08-.08,.21-.08,.29,0s.08,.21,0,.29l-2.71,2.75s-.09,.06-.15,.07h.01Z"/>
          <path id="Path_375" data-name="Path 375" class="cls-5" d="M406.34,326.19h-.25c-.11,0-.2-.1-.2-.22,0-.1,.07-.19,.18-.2,.01,0,.03,0,.04,0h.15l2.64-2.68c.08-.08,.21-.08,.29,0s.08,.21,0,.29l-2.71,2.75s-.1,.06-.15,.07h.01Z"/>
        </g>
        <path id="Path_376" data-name="Path 376" class="cls-1" d="M405.2,189.75c0,.12-13.92,.22-31.08,.22s-31.09-.1-31.09-.22,13.92-.22,31.09-.22,31.08,.1,31.08,.22Z"/>
        <path id="Path_377" data-name="Path 377" class="cls-1" d="M405.2,194.17c0,.12-13.92,.22-31.08,.22s-31.09-.1-31.09-.22,13.92-.22,31.09-.22,31.08,.1,31.08,.22Z"/>
        <path id="Path_378" data-name="Path 378" class="cls-1" d="M405.2,198.6c0,.12-13.92,.22-31.08,.22s-31.09-.1-31.09-.22,13.92-.22,31.09-.22,31.08,.1,31.08,.22Z"/>
        <g id="Group_88" data-name="Group 88">
          <ellipse id="Ellipse_101" data-name="Ellipse 101" class="cls-4" cx="306.66" cy="309.56" rx="18.71" ry="18.63"/>
          <g id="Group_82" data-name="Group 82">
            <g id="Group_81" data-name="Group 81">
              <path id="Path_379" data-name="Path 379" class="cls-3" d="M297.91,314.22l4.89-.42,11.96,2.02,1.41,8.99-.2,1.05c-5.47,3.08-12.12,3.24-17.73,.41l-.34-12.03"/>
              <path id="Path_380" data-name="Path 380" class="cls-3" d="M312.22,315.67c2.42-.35,4.83,.71,6.21,2.72,.81,1.13,1.56,2.31,2.23,3.53-1.62,2.09-3.78,3.69-6.24,4.66l-2.19-10.91Z"/>
            </g>
            <path id="Path_381" data-name="Path 381" class="cls-3" d="M297.92,314.22c-1.92,.27-3.59,1.44-4.5,3.15-1.26,2.75-1.54,3.62-1.54,3.62,1.64,2.29,3.85,4.11,6.41,5.28,0,0,.59-6.94,.68-8.9,.08-2.15,.17-3.21-1.05-3.15h0Z"/>
          </g>
          <g id="Group_87" data-name="Group 87">
            <g id="Group_86" data-name="Group 86">
              <path id="Path_382" data-name="Path 382" class="cls-10" d="M300.88,296.57c1.65-2.11,4.17-3.36,6.85-3.4,1.13,0,2.26,.2,3.32,.6,1.12,.27,2.12,.92,2.8,1.85,.84,1.09,1.4,2.38,1.61,3.75,.2,1.4,.27,2.81,.2,4.22-.07,1.42-.53,2.79-1.33,3.97l-3.59,.63c-1.98,.15-3.98,.05-5.94-.32-1.97-.38-3.72-1.52-4.85-3.18-1.31-2.65-.96-5.82,.91-8.11h.02Z"/>
              <path id="Path_383" data-name="Path 383" class="cls-10" d="M297.4,306.97c.07-.82,.52-1.57,1.22-2.02,.72-.44,1.64-.36,2.27,.2l.57,.68c.9,.41,1.43,1.35,1.34,2.33-.14,.97-.83,1.78-1.77,2.07-.94,.27-1.96,.02-2.68-.64-.7-.68-1.05-1.64-.94-2.61h0Z"/>
              <path id="Path_384" data-name="Path 384" class="cls-3" d="M298.11,309.38c-.16-.2-.22-.46-.19-.72,.12-.6,.4-1.16,.83-1.61,.4-.47,.89-.86,1.44-1.15,.42-.22,.71-.31,.7-.33-.26,.03-.52,.1-.76,.22-.58,.27-1.1,.66-1.51,1.15-.23,.27-.43,.57-.58,.88-.14,.26-.22,.55-.23,.84,0,.2,.05,.4,.16,.57,.08,.12,.15,.16,.16,.15h0Z"/>
              <g id="Group_85" data-name="Group 85">
                <path id="Path_385" data-name="Path 385" class="cls-8" d="M310.74,315.34s-.02-3.33-.02-3.32c1.99-.41,3.5-2.05,3.74-4.06,.38-2.47,.54-4.97,.46-7.47-.02-2.73-2.06-5.03-4.78-5.38l-1.26-.14-4.8,1.9c-.69,.04-1.24,.59-1.26,1.28l-.14,15.99,2.19,3.07c1.04,1.45,3.05,1.79,4.51,.75,.85-.6,1.35-1.57,1.35-2.61h0v-.02Z"/>
                <path id="Path_386" data-name="Path 386" class="cls-7" d="M308.82,306.77c.02-.19,.12-.37,.28-.49,.28-.24,.69-.27,.99-.06,.31,.24,.47,.63,.42,1.02h0c-.17,.23-.42,.38-.71,.41h-.13c-.23,0-.44-.09-.6-.25-.18-.17-.26-.41-.23-.66v.03Z"/>
                <g id="Group_83" data-name="Group 83">
                  <path id="Path_387" data-name="Path 387" class="cls-10" d="M313.18,303.1c0,.26-.23,.47-.49,.47-.26,0-.47-.2-.47-.45,0,0,0,0,0-.01,0-.26,.23-.47,.49-.47,.26,0,.47,.19,.47,.45,0,0,0,.01,0,.02Z"/>
                  <path id="Path_388" data-name="Path 388" class="cls-10" d="M313.98,301.89c-.07,.06-.42-.23-.94-.25s-.92,.22-.97,.14c-.03-.03,.04-.14,.22-.25,.24-.14,.51-.21,.79-.19,.27,.01,.53,.11,.74,.28,.15,.13,.2,.25,.17,.27Z"/>
                  <path id="Path_389" data-name="Path 389" class="cls-10" d="M310.68,305.84c.28-.05,.57-.09,.86-.11,.13,0,.25-.03,.29-.12,.02-.14,0-.28-.07-.4-.11-.33-.22-.68-.34-1.03-.32-.88-.57-1.78-.74-2.7,.39,.85,.71,1.73,.96,2.63,.11,.37,.22,.71,.33,1.04,.07,.16,.09,.35,.04,.52-.04,.1-.13,.16-.23,.18-.07,.02-.15,.02-.22,.02-.29,.02-.58,0-.86-.05h-.01Z"/>
                  <path id="Path_390" data-name="Path 390" class="cls-7" d="M310.71,312.02c-1.79-.07-3.52-.63-5-1.62,1.01,1.78,2.99,2.79,5.02,2.55l-.02-.91h0Z"/>
                  <path id="Path_391" data-name="Path 391" class="cls-10" d="M309.12,306.11c.08,0,.06,.57,.5,.99s1.08,.4,1.08,.47c0,.03-.14,.1-.4,.09-.33-.01-.65-.14-.89-.37-.24-.22-.38-.51-.4-.83,0-.25,.06-.38,.1-.37h.01Z"/>
                  <path id="Path_392" data-name="Path 392" class="cls-10" d="M313.87,299.92c-.09,.13-.49,.02-.96,.03s-.87,.12-.96,0c-.04-.06,.02-.18,.18-.3,.47-.29,1.07-.3,1.55-.02,.17,.12,.23,.23,.19,.29h0Z"/>
                  <path id="Path_393" data-name="Path 393" class="cls-10" d="M307.44,303.06c-.01,.26,.19,.49,.46,.5,.26,.02,.48-.17,.5-.42,.01-.26-.19-.49-.46-.5-.26-.02-.48,.16-.5,.42,0,0,0,0,0,0Z"/>
                  <path id="Path_394" data-name="Path 394" class="cls-10" d="M306.81,301.7c.06,.07,.43-.2,.96-.19s.9,.27,.96,.22-.03-.14-.2-.27c-.22-.16-.48-.25-.76-.25-.27,0-.54,.08-.76,.23-.17,.12-.22,.23-.19,.27h-.01Z"/>
                  <path id="Path_395" data-name="Path 395" class="cls-10" d="M306.51,300.58c.1,.12,.5,0,.99,0s.89,.09,.99-.03c.04-.06-.02-.18-.2-.29-.24-.14-.52-.21-.8-.21-.28,0-.56,.07-.79,.22-.18,.12-.23,.26-.19,.3Z"/>
                </g>
                <g id="Group_84" data-name="Group 84">
                  <path id="Path_396" data-name="Path 396" class="cls-8" d="M303.46,304.17c.02-.28-.28-.97-.55-1.02-.85-.31-1.8,.13-2.11,.98-.09,.23-.12,.49-.09,.73-.14,1.07,.6,2.05,1.67,2.19,.27,.04,.54,.02,.8-.06,0-.06,.22-1.85,.28-2.82Z"/>
                  <path id="Path_397" data-name="Path 397" class="cls-7" d="M302.54,306.01l-.13,.06c-.11,.04-.23,.03-.33-.02-.32-.24-.5-.63-.45-1.02,0-.22,.06-.44,.17-.63,.06-.16,.19-.28,.36-.33,.11-.02,.21,.04,.25,.14,.03,.08,0,.13,.03,.13,.04-.04,.06-.1,.04-.15,0-.07-.04-.12-.09-.17-.07-.06-.16-.09-.25-.08-.22,.03-.4,.17-.49,.37-.12,.22-.19,.46-.2,.71-.06,.47,.18,.92,.59,1.15,.14,.05,.29,.03,.42-.04,.08-.06,.1-.12,.09-.12h0Z"/>
                </g>
              </g>
              <path id="Path_398" data-name="Path 398" class="cls-10" d="M302.81,303.15l.66,.68c2.83-2.71,8.37-9.47,8.07-9.07-1.29-.48-2.69-.63-4.05-.44-2.11,.36-6.1,1.41-6.06,3.89,.12,1.73,.59,3.41,1.39,4.95Z"/>
            </g>
            <path id="Path_399" data-name="Path 399" class="cls-3" d="M299.06,302.59c.01-.05,.03-.1,.04-.15,.05-.14,.1-.28,.17-.41,.27-.48,.63-.89,1.08-1.21,.66-.47,1.4-.82,2.18-1.04,.87-.28,1.84-.5,2.79-.91,.9-.37,1.76-.85,2.55-1.42,.65-.47,1.25-.99,1.8-1.57,.37-.39,.72-.8,1.04-1.23,.11-.14,.19-.27,.25-.36s.09-.13,.1-.12-.03,.05-.08,.13-.13,.22-.25,.37c-.31,.44-.64,.86-1.01,1.26-.55,.59-1.15,1.13-1.8,1.61-.8,.58-1.66,1.07-2.58,1.45-.92,.35-1.86,.65-2.81,.9-.77,.21-1.5,.56-2.15,1.01-.44,.31-.81,.7-1.09,1.16-.1,.17-.18,.35-.25,.53h.01Z"/>
            <path id="Path_400" data-name="Path 400" class="cls-3" d="M299.81,303c0-.19,.03-.39,.1-.57,.19-.49,.53-.92,.97-1.21,.66-.42,1.39-.71,2.16-.84,.92-.18,1.82-.47,2.68-.85,.85-.39,1.65-.88,2.39-1.46,.6-.48,1.15-1.02,1.64-1.61,.33-.4,.63-.82,.91-1.26,.09-.15,.16-.27,.22-.36,.03-.04,.05-.08,.08-.12-.02,.05-.04,.09-.06,.13-.05,.1-.12,.22-.2,.38-.26,.45-.56,.88-.88,1.28-.49,.6-1.04,1.15-1.64,1.64-.73,.6-1.55,1.1-2.41,1.49-.87,.38-1.78,.67-2.71,.85-.75,.12-1.48,.39-2.13,.8-.43,.28-.77,.68-.98,1.16-.07,.18-.12,.36-.15,.54l.02,.02Z"/>
          </g>
          <path id="Path_401" data-name="Path 401" class="cls-10" d="M298.3,326.25c-.09-.82-.11-1.64-.08-2.46-.03-.82,0-1.65,.08-2.46,.11,1.64,.11,3.29,0,4.93Z"/>
          <path id="Path_402" data-name="Path 402" class="cls-10" d="M316,325.91s0-.33,.03-.87c.05-.7,.02-1.4-.08-2.09-.13-.69-.33-1.37-.6-2.02-.12-.26-.22-.54-.29-.82,.16,.24,.3,.5,.42,.77,.31,.64,.53,1.32,.66,2.02,.1,.7,.11,1.42,.03,2.12-.02,.29-.07,.58-.15,.87v.02Z"/>
        </g>
        <path id="Path_403" data-name="Path 403" class="cls-9" d="M406.01,320.64h-63.75c-3.16,0-5.73-2.56-5.73-5.72h0v-14.03l-7.03-6.23h76.51c3.16,0,5.73,2.56,5.73,5.72h0v14.53c0,3.16-2.56,5.72-5.73,5.72Z"/>
        <path id="Path_404" data-name="Path 404" class="cls-1" d="M405.2,302.6c0,.12-13.92,.22-31.08,.22s-31.09-.1-31.09-.22,13.92-.22,31.09-.22,31.08,.09,31.08,.22Z"/>
        <path id="Path_405" data-name="Path 405" class="cls-1" d="M405.2,307.02c0,.12-13.92,.22-31.08,.22s-31.09-.1-31.09-.22,13.92-.22,31.09-.22,31.08,.1,31.08,.22Z"/>
        <path id="Path_406" data-name="Path 406" class="cls-1" d="M405.2,311.45c0,.12-13.92,.22-31.08,.22s-31.09-.1-31.09-.22,13.92-.22,31.09-.22,31.08,.1,31.08,.22Z"/>
        <path id="Path_407" data-name="Path 407" class="cls-1" d="M405.2,203.03c0,.12-13.92,.22-31.08,.22s-31.09-.1-31.09-.22,13.92-.22,31.09-.22,31.08,.1,31.08,.22Z"/>
        <path id="Path_408" data-name="Path 408" class="cls-1" d="M405.2,207.45c0,.12-13.92,.22-31.08,.22s-31.09-.1-31.09-.22,13.92-.22,31.09-.22,31.08,.1,31.08,.22Z"/>
        <path id="Path_409" data-name="Path 409" class="cls-1" d="M405.2,212.77c0,.12-13.92,.22-31.08,.22s-31.09-.1-31.09-.22,13.92-.22,31.09-.22,31.08,.1,31.08,.22Z"/>
        <g id="Group_89" data-name="Group 89">
          <path id="Path_410" data-name="Path 410" class="cls-10" d="M343.36,137.22c.11-1.83,1.69-3.23,3.52-3.12,.86,.05,1.66,.43,2.24,1.06l-.9,.82c-.37-.45-.93-.71-1.51-.71-1.07,0-1.94,.86-1.94,1.93s.87,1.93,1.94,1.93c.59,0,1.15-.26,1.51-.72l.9,.82c-1.24,1.35-3.34,1.44-4.69,.2-.64-.58-1.02-1.39-1.07-2.25v.02Z"/>
          <path id="Path_411" data-name="Path 411" class="cls-10" d="M354.71,137.58v2.66h-1.34v-2.45c0-.76-.34-1.09-.94-1.09-.65,0-1.11,.4-1.11,1.26v2.29h-1.34v-6.4h1.34v2.24c.4-.37,.93-.57,1.48-.55,1.01-.06,1.87,.7,1.94,1.7,0,.12,0,.23-.01,.35h-.01Z"/>
          <path id="Path_412" data-name="Path 412" class="cls-10" d="M360.03,137.6v2.65h-1.26v-.57c-.32,.46-.86,.71-1.42,.65-1.08,0-1.73-.6-1.73-1.41s.58-1.39,1.99-1.39h1.07c0-.57-.34-.91-1.07-.91-.48,0-.95,.15-1.34,.43l-.48-.94c.6-.38,1.29-.57,2-.56,1.42,0,2.24,.65,2.24,2.05Zm-1.34,1.18v-.47h-.93c-.63,0-.83,.23-.83,.54s.28,.56,.76,.56c.43,.03,.84-.23,.99-.63h0Z"/>
          <path id="Path_413" data-name="Path 413" class="cls-10" d="M364.24,140.01c-.33,.21-.71,.31-1.09,.29-.84,.12-1.61-.47-1.73-1.31-.02-.12-.02-.24,0-.36v-1.91h-.72v-1.03h.72v-1.12h1.34v1.12h1.16v1.03h-1.16v1.89c-.04,.29,.17,.56,.46,.6,.04,0,.08,0,.12,0,.2,0,.39-.06,.54-.17l.36,.95h0Z"/>
        </g>
        <path id="Path_414" data-name="Path 414" class="cls-10" d="M388.04,146.52c0,.12-14.21,.22-31.74,.22s-31.75-.1-31.75-.22,14.21-.22,31.75-.22,31.74,.1,31.74,.22Z"/>
        <circle id="Ellipse_102" data-name="Ellipse 102" class="cls-10" cx="416.17" cy="135.75" r="1.48"/>
        <path id="Path_415" data-name="Path 415" class="cls-10" d="M417.65,140.05c0,.81-.66,1.47-1.48,1.47s-1.48-.66-1.48-1.47,.66-1.47,1.48-1.47h0c.81,0,1.48,.66,1.48,1.47h0Z"/>
        <path id="Path_416" data-name="Path 416" class="cls-10" d="M417.65,144.34c0,.81-.66,1.47-1.48,1.47s-1.48-.66-1.48-1.47,.66-1.47,1.48-1.47h0c.81,0,1.48,.66,1.48,1.47h0Z"/>
        <path id="Path_417" data-name="Path 417" class="cls-10" d="M296.13,140.75c-.09,0-.18-.03-.25-.08l-3.91-2.86c-.11-.08-.17-.21-.17-.34,0-.13,.07-.26,.17-.33l3.91-2.82c.19-.12,.45-.07,.58,.13,.11,.18,.08,.41-.09,.55l-3.44,2.48,3.45,2.52c.19,.13,.24,.38,.11,.57-.08,.12-.22,.19-.37,.18h0Z"/>
        <ellipse id="Ellipse_103" data-name="Ellipse 103" class="cls-4" cx="398.2" cy="257.11" rx="18.71" ry="18.63"/>
        <g id="Group_90" data-name="Group 90">
          <path id="Path_418" data-name="Path 418" class="cls-10" d="M403.32,268.04h-9.83c-.7,0-1.26-.56-1.26-1.26h0c0-.7,.57-1.26,1.26-1.26h9.83c.7,0,1.26,.56,1.26,1.26h0c0,.7-.57,1.26-1.26,1.26Z"/>
          <rect id="Rectangle_157" data-name="Rectangle 157" class="cls-10" x="398.09" y="244.91" width=".87" height="4.36"/>
          <ellipse id="Ellipse_104" data-name="Ellipse 104" class="cls-5" cx="385.77" cy="259.83" rx="2.53" ry="2.53"/>
          <ellipse id="Ellipse_105" data-name="Ellipse 105" class="cls-5" cx="411.41" cy="259.66" rx="2.53" ry="2.53"/>
          <path id="Path_419" data-name="Path 419" class="cls-5" d="M398.9,248.35s10.32-.13,11.96,8.8-7.1,9.09-9.61,9.27c-1.14,.08-3.58,.08-5.72,.05-4.76-.08-8.12-1.01-9.26-5.41-.13-.52-.22-1.05-.25-1.58-.3-4.83,2.98-11.36,12.9-11.12h-.02Z"/>
          <path id="Path_420" data-name="Path 420" class="cls-10" d="M391.41,261.96l15,.23c1.57,.03,2.87-1.22,2.89-2.79,0,0,0,0,0,0h0c.02-1.57-1.23-2.86-2.8-2.89l-15-.23c-1.57-.03-2.87,1.22-2.89,2.79,0,0,0,0,0,0h0c-.03,1.57,1.23,2.86,2.8,2.89,0,0,0,0,0,0Z"/>
          <path id="Path_421" data-name="Path 421" class="cls-1" d="M403.3,259.09c.1,.49,.58,.81,1.08,.72,.49-.1,.82-.58,.72-1.07-.1-.49-.58-.81-1.08-.72-.49,.1-.82,.58-.72,1.07h0Z"/>
          <path id="Path_422" data-name="Path 422" class="cls-1" d="M392.82,258.92c.1,.49,.58,.81,1.08,.72,.49-.1,.82-.58,.72-1.07-.1-.49-.58-.81-1.08-.72-.49,.1-.82,.58-.72,1.07h0Z"/>
          <path id="Path_423" data-name="Path 423" class="cls-5" d="M399.95,244.82c0,.79-.64,1.42-1.43,1.42s-1.43-.64-1.43-1.42,.64-1.42,1.43-1.42,1.43,.64,1.43,1.42h0Z"/>
          <path id="Path_424" data-name="Path 424" class="cls-1" d="M400.68,258.67c.05,.06,.08,.14,.09,.22,.03,.21,.01,.43-.06,.63-.1,.31-.27,.58-.5,.81-.29,.29-.67,.47-1.08,.5-.41,.03-.81-.08-1.15-.31-.27-.18-.49-.42-.64-.71-.1-.19-.16-.4-.17-.61,0-.15,.03-.23,.05-.23,.07,0,.08,.32,.36,.7,.16,.22,.36,.41,.59,.54,.28,.16,.6,.24,.92,.22,.32-.04,.62-.17,.87-.38,.2-.18,.37-.4,.48-.64,.2-.42,.16-.76,.22-.76v.02Z"/>
          <path id="Path_425" data-name="Path 425" class="cls-10" d="M410.84,256.88s.03,.08,.08,.22c.03,.08,.05,.16,.08,.27s.06,.22,.08,.36c.06,.31,.11,.62,.13,.94,.03,.39,.03,.78,0,1.16-.04,.39-.1,.77-.19,1.15-.08,.31-.18,.61-.29,.91-.05,.13-.1,.23-.15,.33-.03,.09-.08,.17-.12,.25-.03,.07-.07,.14-.12,.2,.02-.07,.06-.15,.09-.22,.04-.08,.08-.17,.11-.25,.04-.1,.09-.21,.13-.33,.11-.29,.2-.59,.28-.9,.09-.38,.15-.76,.18-1.14,.03-.38,.04-.77,.02-1.16-.02-.31-.06-.62-.12-.93-.02-.12-.04-.24-.08-.36-.03-.11-.04-.19-.07-.27-.03-.08-.05-.15-.05-.23h0Z"/>
          <path id="Path_426" data-name="Path 426" class="cls-10" d="M386.38,256.93s-.03,.08-.08,.22c-.03,.08-.05,.16-.08,.27s-.06,.22-.08,.36c-.06,.31-.11,.62-.13,.94-.03,.39-.03,.78,0,1.16,.04,.39,.1,.77,.19,1.15,.08,.31,.18,.61,.29,.91,.05,.13,.1,.23,.15,.33,.04,.09,.08,.17,.13,.25,.03,.07,.07,.14,.12,.2-.02-.07-.06-.15-.09-.22-.04-.08-.08-.17-.11-.25-.04-.1-.09-.21-.13-.33-.11-.29-.2-.59-.28-.9-.09-.38-.15-.76-.19-1.14-.03-.38-.04-.77-.02-1.16,.02-.31,.06-.62,.12-.93,.02-.12,.04-.24,.08-.36,.03-.11,.04-.19,.07-.27,.03-.07,.04-.15,.05-.22h.01Z"/>
          <path id="Path_427" data-name="Path 427" class="cls-5" d="M388.61,273.03c2.69-2.12,6.06-3.19,9.48-2.99,3.48-.16,6.91,.89,9.7,2.99-5.9,3.55-13.28,3.55-19.18,0Z"/>
        </g>
        <path id="Path_428" data-name="Path 428" class="cls-9" d="M295.84,275.99h63.75c3.16,0,5.73-2.56,5.73-5.72h0v-18.47l7.03-6.23h-76.51c-3.16,0-5.73,2.56-5.73,5.72h0v18.98c0,3.16,2.56,5.72,5.73,5.72h0Z"/>
        <path id="Path_429" data-name="Path 429" class="cls-1" d="M356.76,254.79c0,.12-13.13,.22-29.32,.22s-29.32-.1-29.32-.22,13.13-.22,29.32-.22,29.32,.1,29.32,.22Z"/>
        <path id="Path_430" data-name="Path 430" class="cls-1" d="M356.76,259.59c0,.12-13.13,.22-29.32,.22s-29.32-.1-29.32-.22,13.13-.22,29.32-.22,29.32,.1,29.32,.22Z"/>
        <path id="Path_431" data-name="Path 431" class="cls-1" d="M356.76,264.39c0,.12-13.13,.22-29.32,.22s-29.32-.1-29.32-.22,13.13-.22,29.32-.22,29.32,.1,29.32,.22Z"/>
        <path id="Path_432" data-name="Path 432" class="cls-1" d="M356.76,269.21c0,.12-13.13,.22-29.32,.22s-29.32-.1-29.32-.22,13.13-.22,29.32-.22,29.32,.09,29.32,.22Z"/>
        <ellipse id="Ellipse_106" data-name="Ellipse 106" class="cls-4" cx="398.2" cy="357.24" rx="18.71" ry="18.63"/>
        <g id="Group_91" data-name="Group 91">
          <path id="Path_433" data-name="Path 433" class="cls-10" d="M403.32,368.23h-9.83c-.7,0-1.26-.56-1.26-1.26h0c0-.7,.57-1.26,1.26-1.26h9.83c.7,0,1.26,.56,1.26,1.26h0c0,.7-.57,1.26-1.26,1.26Z"/>
          <rect id="Rectangle_158" data-name="Rectangle 158" class="cls-10" x="398.09" y="345.1" width=".87" height="4.36"/>
          <ellipse id="Ellipse_107" data-name="Ellipse 107" class="cls-5" cx="385.77" cy="360.01" rx="2.53" ry="2.53"/>
          <ellipse id="Ellipse_108" data-name="Ellipse 108" class="cls-5" cx="411.41" cy="359.83" rx="2.53" ry="2.53"/>
          <path id="Path_434" data-name="Path 434" class="cls-5" d="M398.9,348.54s10.32-.13,11.96,8.8-7.1,9.09-9.61,9.27c-1.14,.08-3.58,.08-5.72,.05-4.76-.08-8.12-1.01-9.26-5.41-.13-.52-.22-1.05-.25-1.58-.3-4.83,2.98-11.36,12.9-11.12h-.02Z"/>
          <path id="Path_435" data-name="Path 435" class="cls-10" d="M391.41,362.14l15,.23c1.57,.03,2.87-1.22,2.89-2.79,0,0,0,0,0,0h0c.02-1.57-1.23-2.86-2.8-2.89l-15-.23c-1.57-.03-2.87,1.22-2.89,2.79,0,0,0,0,0,0h0c-.03,1.57,1.23,2.86,2.8,2.89,0,0,0,0,0,0Z"/>
          <path id="Path_436" data-name="Path 436" class="cls-1" d="M403.3,359.27c.1,.49,.58,.81,1.08,.72,.49-.1,.82-.58,.72-1.07s-.58-.81-1.08-.72c-.49,.1-.82,.58-.72,1.07h0Z"/>
          <path id="Path_437" data-name="Path 437" class="cls-1" d="M392.82,359.1c.1,.49,.58,.81,1.08,.72,.49-.1,.82-.58,.72-1.07s-.58-.81-1.08-.72c-.49,.1-.82,.58-.72,1.07h0Z"/>
          <path id="Path_438" data-name="Path 438" class="cls-5" d="M399.95,345.01c0,.79-.64,1.42-1.43,1.42s-1.43-.64-1.43-1.42,.64-1.42,1.43-1.42,1.43,.64,1.43,1.42h0Z"/>
          <path id="Path_439" data-name="Path 439" class="cls-1" d="M400.68,358.84c.05,.06,.08,.14,.09,.22,.03,.21,.01,.43-.06,.63-.1,.31-.27,.58-.5,.81-.29,.29-.67,.47-1.08,.5-.41,.03-.81-.08-1.15-.31-.27-.18-.49-.42-.64-.71-.1-.19-.16-.4-.17-.61,0-.15,.03-.23,.05-.23,.07,0,.08,.32,.36,.7,.16,.22,.36,.41,.59,.54,.28,.16,.6,.24,.92,.22,.32-.04,.62-.17,.87-.38,.2-.18,.37-.4,.48-.64,.2-.42,.16-.76,.22-.76v.02Z"/>
          <path id="Path_440" data-name="Path 440" class="cls-10" d="M410.84,357.05s.03,.08,.08,.22c.03,.08,.05,.16,.08,.27s.06,.22,.08,.36c.06,.31,.11,.62,.13,.94,.03,.39,.03,.78,0,1.16-.04,.39-.1,.77-.19,1.15-.08,.31-.18,.61-.29,.91-.05,.13-.1,.23-.15,.33-.03,.09-.08,.17-.12,.25-.03,.07-.07,.13-.12,.2,.02-.07,.06-.15,.09-.22,.04-.08,.08-.17,.11-.25,.04-.1,.09-.21,.13-.33,.11-.29,.2-.59,.28-.9,.09-.38,.15-.76,.18-1.14,.03-.38,.04-.77,.02-1.16-.02-.31-.06-.62-.12-.93-.02-.12-.04-.24-.08-.36-.03-.11-.04-.19-.07-.27-.03-.07-.05-.15-.05-.23h0Z"/>
          <path id="Path_441" data-name="Path 441" class="cls-10" d="M386.38,357.11s-.03,.08-.08,.22c-.03,.08-.05,.16-.08,.27s-.06,.22-.08,.36c-.06,.31-.11,.62-.13,.94-.03,.39-.03,.78,0,1.17,.04,.39,.1,.77,.19,1.15,.08,.31,.18,.61,.29,.91,.05,.13,.1,.23,.15,.33,.04,.09,.08,.17,.13,.25,.03,.07,.07,.14,.12,.2-.02-.07-.06-.15-.09-.22-.04-.08-.08-.17-.11-.25-.04-.1-.09-.21-.13-.34-.11-.29-.2-.59-.28-.9-.09-.38-.15-.76-.19-1.14-.03-.38-.04-.77-.02-1.16,.02-.31,.06-.62,.12-.93,.02-.12,.04-.24,.08-.36,.03-.11,.04-.19,.07-.27,.03-.07,.05-.15,.05-.23h.01Z"/>
          <path id="Path_442" data-name="Path 442" class="cls-5" d="M388.61,373.21c2.69-2.12,6.06-3.19,9.48-2.99,3.48-.16,6.91,.89,9.7,2.99-5.9,3.55-13.28,3.55-19.18,0Z"/>
        </g>
        <path id="Path_443" data-name="Path 443" class="cls-9" d="M295.84,376.19h63.75c3.16,0,5.73-2.56,5.73-5.72h0v-18.47l7.03-6.23h-76.51c-3.16,0-5.73,2.56-5.73,5.72h0v18.98c0,3.16,2.56,5.72,5.73,5.72h0Z"/>
        <path id="Path_444" data-name="Path 444" class="cls-9" d="M295.84,403.42h63.75c3.16,0,5.73-2.56,5.73-5.72h0v-6.12l7.03-6.23h-76.51c-3.16,0-5.73,2.56-5.73,5.72h0v6.63c0,3.16,2.56,5.72,5.73,5.72h0Z"/>
        <path id="Path_445" data-name="Path 445" class="cls-1" d="M356.76,355.27c0,.12-13.13,.22-29.32,.22s-29.32-.1-29.32-.22,13.13-.22,29.32-.22,29.32,.1,29.32,.22Z"/>
        <path id="Path_446" data-name="Path 446" class="cls-1" d="M356.76,358.1c0,.12-13.13,.22-29.32,.22s-29.32-.1-29.32-.22,13.13-.22,29.32-.22,29.32,.09,29.32,.22Z"/>
        <path id="Path_447" data-name="Path 447" class="cls-1" d="M356.76,363.04c0,.12-13.13,.22-29.32,.22s-29.32-.1-29.32-.22,13.13-.22,29.32-.22,29.32,.1,29.32,.22Z"/>
        <path id="Path_448" data-name="Path 448" class="cls-1" d="M356.76,367.98c0,.12-13.13,.22-29.32,.22s-29.32-.1-29.32-.22,13.13-.22,29.32-.22,29.32,.1,29.32,.22Z"/>
        <path id="Path_449" data-name="Path 449" class="cls-1" d="M356.94,394.65c0,.12-12.99,.22-29.01,.22s-29.01-.1-29.01-.22,12.99-.22,29.01-.22,29.01,.09,29.01,.22Z"/>
      </g>
    </g>
    <g id="Bot">
      <g id="Group_105" data-name="Group 105">
        <g id="Group_98" data-name="Group 98">
          <path id="Path_461" data-name="Path 461" class="cls-5" d="M136.38,293.52l-35.17-3.66-14.84-33.71-11.56,3.02s8.54,35.63,18.09,41.14c9.55,5.51,42.21,6.52,42.21,6.52l1.26-13.31Z"/>
          <g id="Group_97" data-name="Group 97">
            <ellipse id="Ellipse_109" data-name="Ellipse 109" class="cls-10" cx="143.4" cy="300.31" rx="15.57" ry="15.54"/>
            <path id="Path_462" data-name="Path 462" class="cls-10" d="M143.41,315.87c-8.62,0-15.6-6.98-15.6-15.58,0-8.6,6.99-15.58,15.61-15.58,8.62,0,15.6,6.98,15.6,15.58,0,4.13-1.64,8.09-4.57,11.01-2.92,2.93-6.89,4.57-11.03,4.56Zm0-31.11c-8.59,0-15.54,6.96-15.53,15.54,0,8.57,6.98,15.51,15.56,15.5,8.59,0,15.54-6.96,15.53-15.54,0-4.12-1.65-8.06-4.56-10.97-2.91-2.92-6.87-4.55-11-4.54h0Z"/>
          </g>
          <ellipse id="Ellipse_110" data-name="Ellipse 110" class="cls-10" cx="95.37" cy="291.62" rx="11.68" ry="11.66"/>
          <ellipse id="Ellipse_111" data-name="Ellipse 111" class="cls-10" cx="79.75" cy="252.13" rx="9.55" ry="9.53"/>
          <path id="Path_463" data-name="Path 463" class="cls-10" d="M94.64,246.97l-7.85,6.62-2.83-3.35,7.85-6.62c.86-.72,2.15-.62,2.88,.24l.19,.23c.73,.86,.63,2.15-.24,2.88h0Z"/>
          <path id="Path_464" data-name="Path 464" class="cls-10" d="M84.65,234.83v9.96c0,.16-.13,.29-.29,.29,0,0,0,0,0,0h-3.8c-.16,0-.29-.13-.29-.29,0,0,0,0,0,0v-9.96c0-1.13,.92-2.04,2.04-2.04h.3c1.13,0,2.04,.91,2.04,2.04Z"/>
          <path id="Path_465" data-name="Path 465" class="cls-10" d="M77.57,234.87l2.18,9.72c.04,.16-.06,.31-.22,.35,0,0,0,0,0,0l-3.71,.83c-.16,.04-.31-.06-.35-.22,0,0,0,0,0,0l-2.18-9.72c-.24-1.1,.45-2.19,1.55-2.44l.29-.07c1.1-.24,2.19,.45,2.44,1.54Z"/>
          <path id="Path_466" data-name="Path 466" class="cls-10" d="M69.95,237.31l4.99,8.62c.08,.14,.04,.32-.1,.4,0,0,0,0,0,0l-3.29,1.9c-.14,.08-.32,.04-.4-.1,0,0,0,0,0,0l-4.99-8.62c-.56-.98-.23-2.22,.75-2.79l.26-.15c.98-.56,2.22-.23,2.79,.75Z"/>
        </g>
        <g id="Group_101" data-name="Group 101">
          <polygon id="Rectangle_159" data-name="Rectangle 159" class="cls-5" points="299.56 371.88 289.04 376.34 258.71 305.12 269.22 300.66 299.56 371.88"/>
          <g id="Group_99" data-name="Group 99">
            <ellipse id="Ellipse_112" data-name="Ellipse 112" class="cls-10" cx="258.84" cy="297.41" rx="15.58" ry="15.55"/>
            <path id="Path_467" data-name="Path 467" class="cls-10" d="M258.85,313.02c-1.57,0-3.12-.24-4.62-.7-8.17-2.54-12.73-11.2-10.18-19.36,2.54-8.15,11.22-12.71,19.39-10.17,8.17,2.54,12.73,11.2,10.18,19.36-2.01,6.46-8,10.86-14.77,10.87h0Zm-.04-31.12c-8.6,0-15.56,6.98-15.55,15.56,0,8.58,6.99,15.54,15.59,15.53,6.82,0,12.85-4.45,14.86-10.96h0c2.52-8.22-2.1-16.92-10.33-19.44-1.48-.45-3.01-.68-4.56-.68Z"/>
          </g>
          <ellipse id="Ellipse_113" data-name="Ellipse 113" class="cls-10" cx="279.12" cy="340.8" rx="11.68" ry="11.66"/>
          <g id="Group_100" data-name="Group 100">
            <path id="Path_468" data-name="Path 468" class="cls-10" d="M305.79,374.08c-1.67-4.99-7.08-7.69-12.08-6.02-5,1.67-7.7,7.07-6.03,12.06,1.67,4.99,7.08,7.69,12.08,6.02,0,0,0,0,0,0,5-1.66,7.7-7.05,6.03-12.04,0,0,0,0,0-.01Z"/>
            <path id="Path_469" data-name="Path 469" class="cls-10" d="M284.25,386.7l5.35-8.76,3.75,2.28-5.35,8.76c-.59,.96-1.84,1.26-2.81,.68l-.26-.16c-.97-.59-1.28-1.84-.69-2.81h0Z"/>
            <path id="Path_470" data-name="Path 470" class="cls-10" d="M297.56,395.06l-3.16-9.45c-.05-.15,.03-.32,.18-.37,0,0,0,0,0,0l3.61-1.2c.15-.05,.32,.03,.37,.18,0,0,0,0,0,0l3.16,9.45c.35,1.07-.22,2.22-1.29,2.58l-.28,.09c-1.07,.35-2.22-.22-2.58-1.29Z"/>
            <path id="Path_471" data-name="Path 471" class="cls-10" d="M304.28,392.78l-5.15-8.53c-.08-.14-.04-.32,.1-.4,0,0,0,0,0,0l3.26-1.96c.14-.08,.32-.04,.4,.1,0,0,0,0,0,0l5.15,8.53c.58,.97,.27,2.22-.7,2.8l-.26,.15c-.97,.58-2.22,.27-2.8-.7Z"/>
            <path id="Path_472" data-name="Path 472" class="cls-10" d="M310.72,388.07l-7.46-6.6c-.12-.11-.13-.29-.03-.41,0,0,0,0,0,0l2.52-2.84c.11-.12,.29-.13,.41-.03,0,0,0,0,0,0l7.46,6.6c.84,.75,.92,2.04,.17,2.88l-.2,.22c-.75,.84-2.04,.92-2.88,.17Z"/>
          </g>
        </g>
        <path id="Path_473" data-name="Path 473" class="cls-5" d="M138.75,279.63s1.13,109.18,62.5,111.32c61.37,2.14,63.95-110.54,63.95-111.32,0,0-7.25-16.29-63.22-15.64-55.97,.64-63.22,15.64-63.22,15.64Z"/>
        <path id="Rectangle_160" data-name="Rectangle 160" class="cls-10" d="M224.66,265.82h-50.98c-3.63,0-6.58-2.94-6.58-6.57h0c0-3.63,2.94-6.57,6.58-6.57h50.98c3.63,0,6.58,2.94,6.58,6.57h0c0,3.63-2.94,6.57-6.58,6.57Z"/>
        <rect id="Rectangle_161" data-name="Rectangle 161" class="cls-10" x="196.94" y="150.77" width="4.48" height="22.61"/>
        <ellipse id="Ellipse_114" data-name="Ellipse 114" class="cls-5" cx="264.61" cy="224.81" rx="13.16" ry="13.14"/>
        <ellipse id="Ellipse_115" data-name="Ellipse 115" class="cls-5" cx="131.77" cy="223.96" rx="13.16" ry="13.14"/>
        <path id="Path_474" data-name="Path 474" class="cls-5" d="M196.58,168.47s-53.52-.64-61.98,45.62c-8.46,46.26,36.78,47.13,49.79,48.01,5.9,.4,18.53,.44,29.67,.25,24.67-.42,42.09-5.19,48.03-28.04,.71-2.68,1.15-5.42,1.34-8.18,1.57-25.04-15.4-58.89-66.84-57.66h0Z"/>
        <path id="Path_475" data-name="Path 475" class="cls-10" d="M235.39,235.99l-77.73,1.21c-8.15,.12-14.85-6.36-14.99-14.49h0c-.13-8.13,6.37-14.83,14.52-14.96l77.73-1.21c8.15-.12,14.85,6.36,14.99,14.49h0c.13,8.13-6.37,14.83-14.52,14.96Z"/>
        <path id="Path_476" data-name="Path 476" class="cls-1" d="M173.78,220.99c-.5,2.56-2.99,4.23-5.55,3.73s-4.24-2.98-3.74-5.54,2.99-4.23,5.55-3.73h0c2.57,.5,4.24,2.98,3.74,5.54Z"/>
        <path id="Path_477" data-name="Path 477" class="cls-1" d="M228.09,220.16c-.5,2.56-2.99,4.23-5.55,3.73s-4.24-2.98-3.74-5.54c.5-2.56,2.99-4.23,5.55-3.73h0c2.57,.5,4.24,2.98,3.74,5.54Z"/>
        <g id="Group_103" data-name="Group 103">
          <g id="Group_102" data-name="Group 102">
            <path id="Path_478" data-name="Path 478" class="cls-10" d="M220.27,325.43c-.85,11.64-10.99,20.38-22.65,19.53s-20.41-10.98-19.56-22.61c.85-11.64,10.99-20.38,22.65-19.53h0c11.65,.85,20.41,10.98,19.56,22.61h0Z"/>
            <path id="Path_479" data-name="Path 479" class="cls-1" d="M214.54,325.01c-.62,8.48-8.01,14.85-16.5,14.23-8.49-.62-14.87-8-14.25-16.48,.62-8.48,8.01-14.85,16.5-14.23,8.49,.62,14.87,7.99,14.25,16.47,0,0,0,0,0,.01Z"/>
          </g>
          <path id="Path_480" data-name="Path 480" class="cls-5" d="M207.11,327.81c-.12-.84-.16-1.69-.14-2.54-.04-1.59-.07-3.86-.08-6.64l.17,.31c-2.31-1.35-5-2.91-7.93-4.62h.44c-2.48,1.41-5.19,2.91-8,4.5-.22,.36,.29-.49,.25-.4h0v.6l-.02,.6-.02,1.19c-.02,.79-.03,1.57-.04,2.33-.03,1.53-.06,3.02-.08,4.45l-.22-.38c2.9,1.76,5.55,3.38,7.84,4.79h-.35c2.44-1.32,4.46-2.36,5.88-3.09,.74-.42,1.51-.78,2.31-1.08-.62,.51-1.29,.95-2,1.32-1.35,.82-3.34,2.02-5.85,3.45l-.17,.1-.17-.1c-2.32-1.35-5-2.91-7.93-4.62l-.22-.13v-.25c.02-1.43,.03-2.91,.05-4.45,0-.76,.02-1.54,.03-2.33l.02-1.19v-.6l.02-.3v-.28h0v-.02h0c-.05,.08,.46-.76,.25-.41l8.03-4.45,.22-.13,.22,.13c2.9,1.76,5.55,3.39,7.84,4.79l.17,.11v.2c-.09,2.88-.19,5.19-.28,6.78,0,.8-.06,1.6-.22,2.39l-.02-.03Z"/>
        </g>
        <ellipse id="Ellipse_116" data-name="Ellipse 116" class="cls-5" cx="199.19" cy="150.31" rx="7.38" ry="7.37"/>
        <path id="Path_481" data-name="Path 481" class="cls-1" d="M187.39,218.65c.35,.04,.17,1.69,1.21,3.89,.59,1.26,1.45,2.39,2.51,3.3,2.52,2.32,6.28,2.67,9.18,.84,1.21-.7,2.26-1.65,3.07-2.79,1.42-1.97,1.54-3.63,1.89-3.6,.13,0,.28,.42,.28,1.2-.04,1.11-.34,2.2-.86,3.19-.77,1.49-1.92,2.76-3.33,3.69-3.61,2.54-8.53,2.09-11.61-1.06-1.22-1.16-2.11-2.62-2.6-4.23-.34-1.06-.43-2.19-.27-3.3,.14-.76,.36-1.16,.49-1.13h.03Z"/>
        <path id="Path_482" data-name="Path 482" class="cls-10" d="M258.64,240.33c.67-1.34,1.27-2.72,1.8-4.12,1.15-3.44,1.88-7,2.17-10.61,.34-3.61,.42-7.24,.25-10.87-.07-1.39-.13-2.52-.19-3.3-.06-.4-.07-.81-.04-1.21,.11,.39,.18,.79,.21,1.2,.12,.77,.22,1.9,.33,3.3,.26,3.64,.21,7.29-.13,10.92-.29,3.64-1.07,7.23-2.31,10.67-.39,1.04-.86,2.05-1.42,3.01-.19,.36-.42,.69-.68,1.01h0Z"/>
        <path id="Path_483" data-name="Path 483" class="cls-10" d="M134.71,209.51s-.07,.43-.27,1.19c-.1,.38-.22,.84-.33,1.38s-.28,1.15-.38,1.84c-.29,1.6-.49,3.23-.58,4.85-.24,3.99,.11,7.99,1.05,11.88,.38,1.58,.86,3.14,1.43,4.67,.22,.66,.48,1.23,.69,1.75s.4,.95,.58,1.3c.19,.36,.35,.74,.47,1.12-.24-.33-.44-.68-.62-1.05-.19-.34-.42-.76-.64-1.27s-.5-1.07-.76-1.73c-.62-1.53-1.13-3.09-1.53-4.69-.48-1.96-.82-3.95-1.01-5.96-.17-2.01-.18-4.03-.05-6.05,.12-1.64,.34-3.28,.68-4.89,.13-.69,.3-1.3,.44-1.84s.28-1.01,.41-1.37c.11-.39,.25-.77,.42-1.14h0Z"/>
        <path id="Path_484" data-name="Path 484" class="cls-10" d="M138.5,283.7s.11,.03,.33,.09l.93,.32c.83,.29,2.02,.72,3.55,1.26,.77,.27,1.63,.58,2.57,.91s1.98,.61,3.09,.96c2.23,.66,4.74,1.51,7.59,2.18,1.42,.37,2.9,.74,4.45,1.14s3.19,.68,4.87,1.04c3.35,.76,7,1.29,10.82,1.91,16.64,2.39,33.53,2.39,50.16,0,3.82-.61,7.45-1.14,10.82-1.91,1.68-.37,3.32-.65,4.87-1.04s3.03-.77,4.45-1.14c2.85-.67,5.35-1.51,7.59-2.18,1.11-.34,2.15-.64,3.09-.96l2.57-.91c1.51-.54,2.72-.96,3.55-1.26l.93-.32c.11-.04,.21-.07,.33-.09-.1,.06-.2,.1-.31,.13-.22,.09-.53,.21-.92,.36-.83,.31-2.02,.76-3.53,1.33-.76,.28-1.63,.61-2.55,.95s-1.98,.63-3.08,.99c-2.23,.68-4.73,1.56-7.57,2.25-1.42,.37-2.9,.76-4.45,1.16-1.55,.4-3.19,.7-4.87,1.07-3.36,.78-7.01,1.32-10.83,1.95-16.67,2.44-33.61,2.44-50.28,0-3.83-.63-7.47-1.16-10.83-1.96-1.68-.38-3.32-.68-4.87-1.07s-3.03-.8-4.45-1.17c-2.85-.69-5.35-1.57-7.57-2.25-1.11-.36-2.14-.67-3.08-.99l-2.55-.95c-1.51-.57-2.7-1.01-3.53-1.33-.38-.15-.69-.27-.92-.36-.11-.04-.21-.08-.31-.13h-.01Z"/>
        <g id="Group_104" data-name="Group 104" class="cls-6">
          <path id="Path_485" data-name="Path 485" d="M138.75,284.05s7.25-15.01,63.22-15.64c55.97-.63,63.22,15.64,63.22,15.64,0,0-56.46,27.8-126.44,0h0Z"/>
        </g>
        <path id="Path_486" data-name="Path 486" class="cls-1" d="M189.79,171.94c-.06,.01-.13,.03-.19,.03-.15,.02-.34,.03-.57,.05-.5,.05-1.23,.07-2.18,.18-16.51,1.45-31.57,10.01-41.26,23.44-3.89,5.38-6.83,11.38-8.71,17.74-.29,.9-.44,1.62-.59,2.1-.07,.22-.12,.4-.16,.54-.01,.06-.04,.13-.07,.18,0-.06,.01-.13,.03-.19,.03-.15,.07-.33,.12-.56,.12-.48,.25-1.21,.5-2.12,.7-2.58,1.59-5.11,2.67-7.56,1.59-3.65,3.56-7.12,5.89-10.35,5.68-7.99,13.38-14.34,22.32-18.4,3.62-1.66,7.41-2.94,11.3-3.81,2.62-.59,5.27-.99,7.95-1.17,.94-.08,1.68-.08,2.19-.1h.57c.06,0,.13,0,.19,0h.02Z"/>
        <path id="Path_487" data-name="Path 487" class="cls-1" d="M137.45,232.72c-.33-.51-.59-1.08-.76-1.67-.5-1.39-.86-2.82-1.08-4.27-.23-1.46-.32-2.93-.28-4.41-.02-.61,.05-1.22,.22-1.81,.13,0-.05,2.79,.48,6.15s1.55,5.95,1.41,6.01Z"/>
        <path id="Path_488" data-name="Path 488" class="cls-1" d="M123.41,228.64c-.17-.13-.32-.28-.45-.45-.37-.45-.68-.94-.94-1.46-1.82-3.53-1.25-7.82,1.43-10.75,.39-.43,.82-.82,1.29-1.16,.33-.23,.53-.34,.55-.32s-.7,.57-1.61,1.67c-1.18,1.43-1.94,3.16-2.2,5-.23,1.84,.06,3.71,.82,5.4,.58,1.3,1.18,1.99,1.12,2.04h0Z"/>
        <path id="Path_489" data-name="Path 489" class="cls-1" d="M199.67,145.18c-.65-.07-1.31-.09-1.96-.05-2.82,.25-4.9,2.74-4.64,5.55,.04,.43,.13,.85,.27,1.26,.23,.61,.52,1.2,.86,1.76-.02,.02-.17-.1-.4-.37-.32-.38-.58-.82-.76-1.29-1.09-2.67,.19-5.73,2.87-6.82,.56-.23,1.16-.36,1.77-.38,.5-.04,1,.01,1.48,.14,.18,.03,.35,.1,.5,.21h0Z"/>
        <path id="Path_490" data-name="Path 490" class="cls-1" d="M272.35,218.64c-.09,.1-1.39-1.14-3.35-2.07s-3.73-1.21-3.7-1.34c2.73,.08,5.3,1.32,7.06,3.41h0Z"/>
        <path id="Path_491" data-name="Path 491" class="cls-1" d="M157.99,357.34c-.04-.05-.08-.1-.11-.16-.08-.13-.17-.29-.28-.49-.25-.47-.58-1.11-1.01-1.91-.22-.42-.46-.88-.72-1.39s-.5-1.08-.79-1.68c-.57-1.21-1.21-2.58-1.83-4.15-.32-.77-.65-1.59-1.01-2.44l-.99-2.68c-.72-1.84-1.33-3.86-2.03-5.96-1.31-4.24-2.59-8.95-3.72-13.95s-1.94-9.81-2.61-14.2c-.62-4.4-1.1-8.36-1.37-11.71-.16-1.67-.25-3.18-.34-4.51s-.16-2.47-.18-3.41-.05-1.62-.08-2.16v-.56c0-.06,0-.13,0-.19,.01,.06,.03,.13,.03,.19,.02,.15,.03,.33,.05,.56,.04,.53,.09,1.26,.15,2.16s.14,2.08,.25,3.41,.22,2.84,.41,4.5c.31,3.34,.83,7.29,1.46,11.67,.68,4.38,1.54,9.17,2.64,14.16s2.39,9.68,3.67,13.92c.7,2.1,1.29,4.12,1.99,5.96l.97,2.68c.34,.85,.66,1.67,.97,2.44,.6,1.57,1.22,2.95,1.77,4.16,.27,.61,.52,1.17,.76,1.7,.25,.5,.47,.98,.68,1.4,.39,.82,.71,1.46,.94,1.94,.09,.21,.17,.38,.23,.5s.08,.17,.07,.18h.01Z"/>
        <path id="Path_492" data-name="Path 492" class="cls-1" d="M125.33,293.51c-2.03,.07-4.07,0-6.1-.22-2.03-.08-4.06-.29-6.06-.65,2.03-.07,4.07,0,6.1,.22,2.03,.08,4.06,.29,6.06,.65Z"/>
        <path id="Path_493" data-name="Path 493" class="cls-1" d="M93.96,276.6c-1.18-1.72-2.25-3.53-3.18-5.4-1.06-1.8-1.99-3.67-2.79-5.6,1.18,1.72,2.25,3.53,3.18,5.4,1.06,1.8,1.99,3.67,2.79,5.6Z"/>
        <path id="Path_494" data-name="Path 494" class="cls-1" d="M187.57,383.59s-.35-.02-.98-.12c-.88-.15-1.76-.36-2.61-.63-1.27-.38-2.52-.86-3.72-1.42-2.96-1.39-5.65-3.28-7.96-5.59-.94-.94-1.81-1.95-2.6-3.02-.54-.71-1.04-1.46-1.48-2.24-.18-.27-.33-.57-.44-.87,.07-.04,.76,1.17,2.16,2.93,.82,1.03,1.7,2,2.64,2.91,1.16,1.11,2.39,2.14,3.7,3.06,1.32,.91,2.71,1.73,4.15,2.45,1.18,.57,2.39,1.07,3.64,1.5,2.13,.72,3.51,.96,3.49,1.04h0Z"/>
        <path id="Path_495" data-name="Path 495" class="cls-1" d="M200.36,347.37s-.2,.03-.58,.06-.95,.09-1.68,.05c-2.07-.04-4.13-.37-6.11-.99-1.37-.42-2.71-.95-3.99-1.6-1.46-.76-2.85-1.65-4.15-2.67-6.12-4.71-9.39-12.23-8.66-19.91,.14-1.64,.43-3.26,.88-4.85,.4-1.37,.92-2.71,1.55-4,.9-1.87,2.07-3.6,3.45-5.14,.37-.42,.77-.82,1.18-1.2,.13-.14,.28-.27,.44-.38,.03,.03-.56,.59-1.5,1.69-1.32,1.57-2.43,3.3-3.3,5.16-.6,1.28-1.1,2.6-1.48,3.96-.42,1.57-.7,3.17-.83,4.79-.68,7.54,2.53,14.9,8.51,19.56,2.37,1.91,5.07,3.37,7.97,4.28,1.95,.63,3.98,1.01,6.03,1.12,1.45,.06,2.27,.02,2.27,.06h-.01Z"/>
        <path id="Path_496" data-name="Path 496" class="cls-1" d="M99.39,283.89c-.03,.07-.64-.25-1.7-.48-2.78-.61-5.69,.09-7.89,1.89-.83,.69-1.23,1.24-1.29,1.2,.26-.55,.63-1.04,1.09-1.42,1.08-1,2.4-1.7,3.83-2.04,1.43-.35,2.92-.32,4.34,.08,.59,.13,1.14,.4,1.62,.77h0Z"/>
        <path id="Path_497" data-name="Path 497" class="cls-1" d="M222.54,204.26c0,.12-10.24,.22-22.87,.22s-22.87-.1-22.87-.22,10.24-.22,22.87-.22,22.87,.1,22.87,.22Z"/>
        <path id="Path_498" data-name="Path 498" class="cls-1" d="M183.51,254.54c-.13,.03-.25,.05-.38,.07-.31,.03-.68,.06-1.12,.1-.48,.04-1.08,.08-1.77,.09s-1.48,.06-2.34,.03c-2.04-.02-4.08-.14-6.1-.37-2.48-.29-4.95-.71-7.38-1.27-2.43-.59-4.82-1.3-7.17-2.15-1.91-.7-3.79-1.5-5.62-2.39-.79-.37-1.48-.76-2.09-1.07s-1.13-.61-1.54-.87c-.38-.23-.69-.42-.96-.58-.12-.06-.22-.13-.32-.22,.12,.04,.25,.09,.36,.15l.99,.5c.42,.23,.95,.5,1.58,.8s1.31,.67,2.11,1.01c1.57,.73,3.48,1.51,5.63,2.29,4.68,1.67,9.53,2.81,14.46,3.41,2.27,.27,4.33,.42,6.06,.46,.87,.05,1.65,.03,2.34,.03s1.28,0,1.77-.02c.44,0,.81,0,1.12-.02,.13-.01,.26,0,.39,.03h0Z"/>
        <path id="Path_499" data-name="Path 499" class="cls-1" d="M250.09,290.26c-.06,.04-.13,.07-.2,.09l-.6,.22-2.32,.82c-1.01,.37-2.24,.78-3.7,1.21s-3.1,.98-4.95,1.44c-.93,.25-1.89,.5-2.9,.76s-2.08,.47-3.17,.73c-2.19,.53-4.54,.95-7.04,1.42-5.41,.92-10.87,1.56-16.35,1.92-5.48,.31-10.97,.34-16.45,.09-2.52-.16-4.93-.28-7.16-.54-1.12-.12-2.2-.2-3.24-.34s-2.02-.27-2.98-.41c-1.9-.23-3.59-.57-5.09-.82s-2.78-.5-3.82-.76-1.82-.41-2.4-.53l-.63-.15c-.07,0-.14-.03-.21-.07,.07,0,.15,0,.22,.03,.17,.03,.38,.07,.63,.11,.58,.11,1.39,.25,2.42,.46s2.33,.46,3.83,.68,3.19,.55,5.09,.76c.95,.12,1.94,.25,2.97,.38s2.12,.2,3.24,.32c2.23,.25,4.63,.35,7.15,.5,5.05,.2,10.6,.22,16.41-.13,5.81-.34,11.32-1.07,16.3-1.88,2.48-.46,4.84-.86,7.03-1.37,1.09-.25,2.16-.45,3.17-.71s1.98-.5,2.9-.74c1.86-.44,3.5-.97,4.96-1.37s2.71-.81,3.72-1.14l2.34-.76,.62-.18c.07-.03,.14-.05,.22-.05v.02Z"/>
      </g>
    </g>
  </g>
</svg>