<svg xmlns="http://www.w3.org/2000/svg" width="147.455" height="134.096" viewBox="0 0 147.455 134.096">
  <g id="Group_147" data-name="Group 147" transform="translate(-1257.935 -3081.351)">
    <g id="Plant" transform="translate(1278.359 3194.822)">
      <g id="Group_93" data-name="Group 93">
        <path id="Path_450" data-name="Path 450" d="M93.573,411.383a3.4,3.4,0,0,1,2.137,1.589,6.045,6.045,0,0,1,.79,2.6,10.6,10.6,0,0,1-1.2,5.292c-1.715-.958-2.511-3.089-2.848-4.2-.532-1.751-.433-5.233,1.123-5.286" transform="translate(-88.97 -411.38)" fill="#455a64"/>
        <path id="Path_451" data-name="Path 451" d="M108.071,438.717a2.906,2.906,0,0,1,.347-2.894,3.852,3.852,0,0,1,2.6-1.457,1.62,1.62,0,0,1,1.338.291,1.241,1.241,0,0,1,.277,1.226,2.507,2.507,0,0,1-.72,1.09,4.994,4.994,0,0,1-3.839,1.744" transform="translate(-99.464 -426.755)" fill="#455a64"/>
        <path id="Path_452" data-name="Path 452" d="M106.208,448.245s-.017-.129-.023-.363c-.007-.258-.017-.591-.026-.991a10.106,10.106,0,0,1,.34-3.254,6.217,6.217,0,0,1,1.695-2.785,4.044,4.044,0,0,1,.809-.581,2.526,2.526,0,0,1,.244-.119.249.249,0,0,1,.089-.033,6.568,6.568,0,0,0-1.077.8,6.437,6.437,0,0,0-1.635,2.758,11.1,11.1,0,0,0-.373,3.218c0,.42-.007.757-.013.991a2,2,0,0,1-.026.363Z" transform="translate(-98.341 -430.624)" fill="#263238"/>
        <path id="Path_453" data-name="Path 453" d="M96.919,419.45s.02.05.05.149.069.258.119.436c.1.38.241.932.41,1.615.337,1.368.773,3.261,1.209,5.365s.786,4.017,1.021,5.4c.119.694.208,1.255.264,1.645.026.185.046.334.063.449a.811.811,0,0,1,.013.159,1.086,1.086,0,0,1-.04-.152c-.023-.116-.053-.261-.086-.446-.076-.4-.178-.958-.3-1.639-.258-1.384-.621-3.29-1.057-5.395s-.859-4-1.169-5.368c-.152-.674-.277-1.226-.37-1.625-.04-.182-.073-.327-.1-.443A1.11,1.11,0,0,1,96.919,419.45Z" transform="translate(-92.157 -416.784)" fill="#263238"/>
        <path id="Path_454" data-name="Path 454" d="M88.834,443.887a6.8,6.8,0,0,0-4.655-4.1,1.427,1.427,0,0,0-1.516.3,1.407,1.407,0,0,0,.2,1.53,5.8,5.8,0,0,0,5.963,2.421" transform="translate(-82.507 -430.349)" fill="#455a64"/>
        <path id="Path_455" data-name="Path 455" d="M89.32,444.73s.122.017.334.069a3.237,3.237,0,0,1,.387.112,4.558,4.558,0,0,1,.5.185,5.678,5.678,0,0,1,.585.274,7.4,7.4,0,0,1,.641.373,7.485,7.485,0,0,1,1.3,1.1,7.32,7.32,0,0,1,.994,1.378,6.116,6.116,0,0,1,.32.671,5.26,5.26,0,0,1,.218.608c.066.185.1.363.135.515a3.586,3.586,0,0,1,.073.4,1.628,1.628,0,0,1,.033.34c-.03,0-.079-.482-.324-1.222a6.05,6.05,0,0,0-.231-.595,6.646,6.646,0,0,0-.324-.654,7.717,7.717,0,0,0-.984-1.348,7.9,7.9,0,0,0-1.272-1.087,6.866,6.866,0,0,0-.624-.38c-.2-.116-.393-.2-.572-.284-.717-.314-1.193-.42-1.186-.446Z" transform="translate(-87.069 -433.713)" fill="#263238"/>
      </g>
    </g>
    <g id="Speech_Bubble" data-name="Speech Bubble" transform="translate(1265.276 3135.215)">
      <g id="Group_96" data-name="Group 96">
        <g id="Group_94" data-name="Group 94">
          <path id="Path_456" data-name="Path 456" d="M68.908,103.064l-1.222-3.812a13.267,13.267,0,1,0-3.175,3.531v.007l4.4.274Z" transform="translate(-43.075 -78.995)" fill="#fafafa"/>
          <path id="Path_457" data-name="Path 457" d="M68.736,102.911s-.089,0-.278-.01-.472-.023-.836-.043c-.753-.043-1.857-.1-3.294-.182a.04.04,0,0,1-.036-.04.036.036,0,0,1,.007-.02v-.007l.056.053a13.237,13.237,0,0,1-8.031,2.8,14.86,14.86,0,0,1-2.2-.175,13.222,13.222,0,0,1-8.487-5.064,13.361,13.361,0,0,1-2.412-5.154,13.129,13.129,0,0,1,.053-6.036c.066-.251.129-.505.195-.76s.175-.492.264-.743a7.415,7.415,0,0,1,.291-.737c.116-.238.231-.479.347-.717a5.769,5.769,0,0,1,.39-.7l.42-.687.482-.647.241-.324c.083-.106.178-.2.268-.3a13.221,13.221,0,0,1,5.263-3.69,13.508,13.508,0,0,1,6.082-.832,13.217,13.217,0,0,1,5.487,1.81,13.439,13.439,0,0,1,3.954,3.594,13.25,13.25,0,0,1,2.094,4.364,14.706,14.706,0,0,1,.41,2.184,18.217,18.217,0,0,1,.04,2.068,13.235,13.235,0,0,1-1.962,6.2v-.03c.393,1.245.69,2.2.9,2.854.1.317.172.558.225.727s.073.241.073.241-.033-.086-.086-.251-.139-.413-.244-.733c-.211-.644-.522-1.589-.925-2.818a.047.047,0,0,1,0-.03A13.188,13.188,0,0,0,69.4,92.914a17.185,17.185,0,0,0-.046-2.048,14.435,14.435,0,0,0-.413-2.161,13.219,13.219,0,0,0-11.427-9.643,13.413,13.413,0,0,0-6.006.826,13.039,13.039,0,0,0-5.2,3.644c-.089.1-.185.195-.264.3l-.238.32-.479.638-.413.677a5.194,5.194,0,0,0-.383.687c-.116.238-.228.472-.34.707a7.218,7.218,0,0,0-.287.727c-.086.244-.185.486-.261.733s-.129.5-.192.75a12.939,12.939,0,0,0-.056,5.96,13.16,13.16,0,0,0,10.763,10.125,14.625,14.625,0,0,0,2.177.182,12.246,12.246,0,0,0,2.032-.168,13.272,13.272,0,0,0,5.953-2.573.037.037,0,0,1,.053.007.04.04,0,0,1,0,.046v.007l-.033-.059c1.424.1,2.521.175,3.264.225l.846.059c.192.013.291.023.291.023Z" transform="translate(-42.904 -78.842)" fill="#263238"/>
        </g>
        <g id="Group_95" data-name="Group 95" transform="translate(6.903 11.968)">
          <path id="Path_458" data-name="Path 458" d="M66.489,116.415a1.345,1.345,0,1,1-1.345-1.345A1.344,1.344,0,0,1,66.489,116.415Z" transform="translate(-63.8 -115.07)" fill="#263238"/>
          <path id="Path_459" data-name="Path 459" d="M82.789,116.415a1.345,1.345,0,1,1-1.345-1.345A1.344,1.344,0,0,1,82.789,116.415Z" transform="translate(-74.715 -115.07)" fill="#263238"/>
          <path id="Path_460" data-name="Path 460" d="M99.414,115.747a1.345,1.345,0,1,1-1.837-.492A1.344,1.344,0,0,1,99.414,115.747Z" transform="translate(-85.969 -115.073)" fill="#263238"/>
        </g>
      </g>
    </g>
    <g id="Device" transform="translate(1338.012 3081.351)">
      <g id="Group_92" data-name="Group 92">
        <g id="Group_70" data-name="Group 70">
          <g id="Group_69" data-name="Group 69">
            <path id="Path_342" data-name="Path 342" d="M301.851,180.686l-46.917-.026a10.074,10.074,0,0,1-10.215-9.926l.023-114.222a10.074,10.074,0,0,1,10.224-9.923l46.917.026A10.076,10.076,0,0,1,312.1,56.542l-.023,114.222A10.074,10.074,0,0,1,301.851,180.686Z" transform="translate(-244.72 -46.59)" fill="#455a64"/>
            <path id="Path_343" data-name="Path 343" d="M308.143,59.222l-9.095-.006a2.225,2.225,0,0,0-2.21,2.238v1.6a2.225,2.225,0,0,1-2.21,2.238l-17.73-.01a2.22,2.22,0,0,1-2.207-2.238v-1.6a2.222,2.222,0,0,0-2.207-2.238h-3.2l-7.961-.006a7.05,7.05,0,0,0-7.162,6.934l-.023,111.259a7.05,7.05,0,0,0,7.152,6.938l46.821.026a7.052,7.052,0,0,0,7.162-6.934L315.3,66.163a7.05,7.05,0,0,0-7.152-6.938Z" transform="translate(-251.028 -55.034)" fill="#fff"/>
          </g>
          <path id="Path_344" data-name="Path 344" d="M315.339,83.352V66.25a7.154,7.154,0,0,0-7.149-7.027l-9.095-.007a2.262,2.262,0,0,0-2.21,2.309v1.648a2.262,2.262,0,0,1-2.21,2.309l-17.73-.01a2.257,2.257,0,0,1-2.207-2.309V61.516a2.26,2.26,0,0,0-2.207-2.309h-3.2l-7.962-.007a7.158,7.158,0,0,0-7.162,7.155V83.408h61.132v-.05Z" transform="translate(-251.075 -55.034)" fill="#ebebeb"/>
        </g>
        <g id="Group_78" data-name="Group 78" transform="translate(8.189 35.54)">
          <ellipse id="Ellipse_100" data-name="Ellipse 100" cx="7.41" cy="7.393" rx="7.41" ry="7.393" fill="#e0e0e0"/>
          <g id="Group_72" data-name="Group 72" transform="translate(1.556 9.078)">
            <g id="Group_71" data-name="Group 71" transform="translate(2.388)">
              <path id="Path_345" data-name="Path 345" d="M281.453,185.415l1.939-.165,4.737.8.558,3.564-.079.416a7.452,7.452,0,0,1-7.023.162l-.135-4.774" transform="translate(-281.45 -185.25)" fill="#455a64"/>
              <path id="Path_346" data-name="Path 346" d="M298.61,187.446a2.538,2.538,0,0,1,2.458,1.08,13.907,13.907,0,0,1,.882,1.4,5.792,5.792,0,0,1-2.471,1.847Z" transform="translate(-292.941 -186.703)" fill="#455a64"/>
            </g>
            <path id="Path_347" data-name="Path 347" d="M276.612,185.748A2.4,2.4,0,0,0,274.831,187c-.5,1.093-.611,1.437-.611,1.437a6.371,6.371,0,0,0,2.54,2.094s.235-2.752.268-3.531c.033-.852.069-1.275-.416-1.249Z" transform="translate(-274.22 -185.582)" fill="#455a64"/>
          </g>
          <g id="Group_77" data-name="Group 77" transform="translate(3.739 0.891)">
            <g id="Group_76" data-name="Group 76">
              <path id="Path_348" data-name="Path 348" d="M283.627,161.817a3.5,3.5,0,0,1,2.715-1.348,3.772,3.772,0,0,1,1.315.238,1.942,1.942,0,0,1,1.11.733,3.263,3.263,0,0,1,.638,1.487,8.9,8.9,0,0,1,.079,1.675,3.072,3.072,0,0,1-.525,1.576l-1.424.248a9.034,9.034,0,0,1-2.352-.126,3.025,3.025,0,0,1-1.923-1.262,2.994,2.994,0,0,1,.36-3.218Z" transform="translate(-282.242 -160.468)" fill="#263238"/>
              <path id="Path_349" data-name="Path 349" d="M280.831,175.2a1.067,1.067,0,0,1,.482-.8.76.76,0,0,1,.9.079l.225.268a.918.918,0,0,1,.529.925,1.011,1.011,0,0,1-.7.823,1.115,1.115,0,0,1-1.06-.254,1.25,1.25,0,0,1-.373-1.037Z" transform="translate(-280.827 -169.722)" fill="#263238"/>
              <path id="Path_350" data-name="Path 350" d="M281.436,176.877a.39.39,0,0,1-.076-.284,1.293,1.293,0,0,1,.327-.638,1.915,1.915,0,0,1,.572-.456c.168-.089.281-.122.277-.132a.819.819,0,0,0-.3.089,1.745,1.745,0,0,0-.832.806.8.8,0,0,0-.093.334.414.414,0,0,0,.063.225c.033.046.059.063.063.059Z" transform="translate(-281.15 -170.445)" fill="#455a64"/>
              <g id="Group_75" data-name="Group 75" transform="translate(1.313 0.592)">
                <path id="Path_351" data-name="Path 351" d="M290.358,170.344s-.007-1.321-.007-1.318a1.873,1.873,0,0,0,1.483-1.612,16.217,16.217,0,0,0,.182-2.963,2.168,2.168,0,0,0-1.893-2.134l-.5-.056-1.9.753a.528.528,0,0,0-.5.509l-.056,6.346.869,1.219a1.28,1.28,0,0,0,2.322-.737h0Z" transform="translate(-286.388 -162.26)" fill="#ffbe9d"/>
                <path id="Path_352" data-name="Path 352" d="M294.53,176.245a.305.305,0,0,1,.109-.195.323.323,0,0,1,.393-.023.433.433,0,0,1,.165.406h0a.387.387,0,0,1-.281.162h-.053a.332.332,0,0,1-.238-.1.31.31,0,0,1-.092-.261Z" transform="translate(-291.316 -171.441)" fill="#eb996e"/>
                <g id="Group_73" data-name="Group 73" transform="translate(1.982 1.764)">
                  <path id="Path_353" data-name="Path 353" d="M298.983,171.635a.191.191,0,0,1-.195.185.183.183,0,0,1-.188-.185.191.191,0,0,1,.195-.185A.183.183,0,0,1,298.983,171.635Z" transform="translate(-296.023 -170.178)" fill="#263238"/>
                  <path id="Path_354" data-name="Path 354" d="M299.176,170.108c-.026.023-.165-.092-.373-.1s-.363.086-.386.056c-.01-.013.017-.056.086-.1a.527.527,0,0,1,.311-.076.514.514,0,0,1,.294.112C299.166,170.052,299.186,170.1,299.176,170.108Z" transform="translate(-295.899 -169.131)" fill="#263238"/>
                  <path id="Path_355" data-name="Path 355" d="M296.765,171.8a3.055,3.055,0,0,1,.34-.043c.053,0,.1-.01.116-.046a.274.274,0,0,0-.026-.159c-.043-.132-.086-.268-.135-.41a7.158,7.158,0,0,1-.294-1.07,6.826,6.826,0,0,1,.38,1.044c.043.145.086.281.129.413a.317.317,0,0,1,.017.208.128.128,0,0,1-.093.073.285.285,0,0,1-.089.007,1.2,1.2,0,0,1-.34-.02Z" transform="translate(-294.793 -169.254)" fill="#263238"/>
                  <path id="Path_356" data-name="Path 356" d="M292.782,181.434a3.836,3.836,0,0,1-1.982-.644,2.014,2.014,0,0,0,1.989,1.011l-.007-.363Z" transform="translate(-290.8 -176.433)" fill="#eb996e"/>
                  <path id="Path_357" data-name="Path 357" d="M294.819,175.633c.033,0,.023.225.2.393s.426.159.426.188c0,.013-.056.04-.159.036a.554.554,0,0,1-.353-.145.494.494,0,0,1-.159-.33c0-.1.023-.149.04-.145Z" transform="translate(-293.465 -172.977)" fill="#263238"/>
                  <path id="Path_358" data-name="Path 358" d="M299.039,167.8c-.036.05-.195.007-.38.01s-.344.046-.38,0c-.017-.023.007-.073.073-.119a.593.593,0,0,1,.614-.007c.069.046.092.092.076.116Z" transform="translate(-295.805 -167.6)" fill="#263238"/>
                  <path id="Path_359" data-name="Path 359" d="M292.879,171.628a.193.193,0,0,0,.182.2.186.186,0,0,0,.2-.168.193.193,0,0,0-.182-.2A.184.184,0,0,0,292.879,171.628Z" transform="translate(-292.192 -170.184)" fill="#263238"/>
                  <path id="Path_360" data-name="Path 360" d="M292.115,169.945c.023.026.172-.079.38-.076s.357.109.38.086-.013-.056-.079-.106a.519.519,0,0,0-.3-.1.5.5,0,0,0-.3.093c-.066.046-.086.093-.076.106Z" transform="translate(-291.679 -169.04)" fill="#263238"/>
                  <path id="Path_361" data-name="Path 361" d="M291.75,168.568c.04.046.2,0,.393,0s.353.036.393-.01c.017-.023-.007-.073-.079-.116a.6.6,0,0,0-.317-.083.572.572,0,0,0-.314.089C291.756,168.5,291.733,168.545,291.75,168.568Z" transform="translate(-291.433 -168.109)" fill="#263238"/>
                </g>
                <g id="Group_74" data-name="Group 74" transform="translate(0 3.344)">
                  <path id="Path_362" data-name="Path 362" d="M285.895,172.815c.007-.112-.109-.383-.218-.406a.653.653,0,0,0-.872.681.773.773,0,0,0,.981.846C285.786,173.911,285.875,173.2,285.895,172.815Z" transform="translate(-284.802 -172.383)" fill="#ffbe9d"/>
                  <path id="Path_363" data-name="Path 363" d="M286.129,174.229l-.05.023a.186.186,0,0,1-.132-.007.44.44,0,0,1-.178-.406.516.516,0,0,1,.066-.251.206.206,0,0,1,.142-.129.089.089,0,0,1,.1.056c.013.03,0,.05.01.053a.06.06,0,0,0,.017-.059.1.1,0,0,0-.036-.066.153.153,0,0,0-.1-.033.248.248,0,0,0-.195.145.594.594,0,0,0-.079.281.455.455,0,0,0,.235.456.191.191,0,0,0,.165-.017c.033-.023.04-.046.036-.046Z" transform="translate(-285.403 -173.071)" fill="#eb996e"/>
                </g>
              </g>
              <path id="Path_364" data-name="Path 364" d="M286.225,165.291l.261.268c1.123-1.074,3.317-3.759,3.195-3.6a3.27,3.27,0,0,0-1.605-.175c-.836.142-2.418.558-2.4,1.543A5.1,5.1,0,0,0,286.225,165.291Z" transform="translate(-284.076 -161.326)" fill="#263238"/>
            </g>
            <path id="Path_365" data-name="Path 365" d="M282.823,165.026a.442.442,0,0,1,.017-.059,1.056,1.056,0,0,1,.069-.162,1.494,1.494,0,0,1,.426-.479,2.831,2.831,0,0,1,.862-.413c.344-.112.727-.2,1.107-.36a5,5,0,0,0,1.011-.565,5.194,5.194,0,0,0,.714-.621,5.635,5.635,0,0,0,.413-.489c.043-.056.076-.106.1-.142s.036-.05.04-.046-.01.02-.03.053-.053.086-.1.145a4.558,4.558,0,0,1-.4.5,5.026,5.026,0,0,1-.714.638,4.926,4.926,0,0,1-1.021.575,10.467,10.467,0,0,1-1.113.357,2.841,2.841,0,0,0-.852.4,1.583,1.583,0,0,0-.433.459,1.546,1.546,0,0,0-.1.211Z" transform="translate(-282.161 -161.286)" fill="#455a64"/>
            <path id="Path_366" data-name="Path 366" d="M283.717,165.614a.556.556,0,0,1,.04-.225,1.043,1.043,0,0,1,.383-.482,2.329,2.329,0,0,1,.856-.334,4.9,4.9,0,0,0,1.06-.337,4.45,4.45,0,0,0,.945-.581,4.4,4.4,0,0,0,.648-.638,4.8,4.8,0,0,0,.36-.5c.036-.059.063-.106.086-.142a.481.481,0,0,1,.033-.05.459.459,0,0,1-.023.053q-.03.059-.079.149a4.115,4.115,0,0,1-.35.509,4.433,4.433,0,0,1-.648.651,4.293,4.293,0,0,1-.955.591,5.064,5.064,0,0,1-1.074.337,2.29,2.29,0,0,0-.842.317,1.048,1.048,0,0,0-.387.459,1.094,1.094,0,0,0-.059.215Z" transform="translate(-282.757 -161.715)" fill="#455a64"/>
          </g>
          <path id="Path_367" data-name="Path 367" d="M281.853,196.246a6.955,6.955,0,0,1-.033-.978,7.612,7.612,0,0,1,.033-.978,14.482,14.482,0,0,1,0,1.956Z" transform="translate(-277.753 -182.226)" fill="#263238"/>
          <path id="Path_368" data-name="Path 368" d="M302.374,195.129s0-.132.01-.347a3.877,3.877,0,0,0-.03-.829,4.067,4.067,0,0,0-.238-.8,1.857,1.857,0,0,1-.119-.327,1.756,1.756,0,0,1,.165.307,3.265,3.265,0,0,1,.261.8,3.151,3.151,0,0,1,.01.842,1.578,1.578,0,0,1-.059.344Z" transform="translate(-291.264 -181.248)" fill="#263238"/>
        </g>
        <path id="Path_369" data-name="Path 369" d="M349.647,177.465H324.394a2.269,2.269,0,0,1-2.27-2.27v-10.6l-2.785-2.471h30.307a2.269,2.269,0,0,1,2.27,2.27V175.2A2.269,2.269,0,0,1,349.647,177.465Z" transform="translate(-294.689 -125.194)" fill="#ebebeb"/>
        <path id="Path_370" data-name="Path 370" d="M394.918,213.6a42.293,42.293,0,0,1-5.388,0,42.3,42.3,0,0,1,5.388,0Z" transform="translate(-341.692 -159.962)" fill="#e0e0e0"/>
        <g id="Group_79" data-name="Group 79" transform="translate(53.735 52.591)">
          <path id="Path_371" data-name="Path 371" d="M407.984,211.862a.084.084,0,0,1-.059-.026l-.522-.545a.083.083,0,0,1,0-.116.086.086,0,0,1,.116,0l.463.486,1.014-1.031a.082.082,0,0,1,.116.116l-1.074,1.09a.153.153,0,0,1-.059.023Z" transform="translate(-407.379 -210.592)" fill="#ff725e"/>
          <path id="Path_372" data-name="Path 372" d="M411.1,211.819H411a.084.084,0,0,1-.079-.086.086.086,0,0,1,.086-.079h.059l1.047-1.064a.082.082,0,0,1,.116.116l-1.074,1.09a.153.153,0,0,1-.06.023Z" transform="translate(-409.75 -210.565)" fill="#ff725e"/>
        </g>
        <path id="Path_373" data-name="Path 373" d="M394.918,339.266a42.285,42.285,0,0,1-5.388,0,42.3,42.3,0,0,1,5.388,0Z" transform="translate(-341.692 -245.317)" fill="#e0e0e0"/>
        <g id="Group_80" data-name="Group 80" transform="translate(53.735 92.896)">
          <path id="Path_374" data-name="Path 374" d="M407.984,337.525h0a.083.083,0,0,1-.059-.026l-.522-.545a.083.083,0,0,1,0-.116.086.086,0,0,1,.116,0l.463.482,1.014-1.031a.082.082,0,0,1,.116.116l-1.074,1.09a.143.143,0,0,1-.059.026Z" transform="translate(-407.379 -336.255)" fill="#ff725e"/>
          <path id="Path_375" data-name="Path 375" d="M411.1,337.489H411a.084.084,0,0,1-.079-.086.075.075,0,0,1,.086-.079h.059l1.047-1.064a.082.082,0,0,1,.116.116l-1.074,1.09a.143.143,0,0,1-.06.026Z" transform="translate(-409.75 -336.235)" fill="#ff725e"/>
        </g>
        <path id="Path_376" data-name="Path 376" d="M360.178,171.136c0,.046-5.514.086-12.312.086s-12.316-.04-12.316-.086,5.514-.086,12.316-.086S360.178,171.09,360.178,171.136Z" transform="translate(-305.544 -131.123)" fill="#fff"/>
        <path id="Path_377" data-name="Path 377" d="M360.178,176.606c0,.046-5.514.086-12.312.086s-12.316-.04-12.316-.086,5.514-.086,12.316-.086S360.178,176.56,360.178,176.606Z" transform="translate(-305.544 -134.838)" fill="#fff"/>
        <path id="Path_378" data-name="Path 378" d="M360.178,182.086c0,.046-5.514.086-12.312.086s-12.316-.04-12.316-.086,5.514-.086,12.316-.086S360.178,182.04,360.178,182.086Z" transform="translate(-305.544 -138.56)" fill="#fff"/>
        <g id="Group_88" data-name="Group 88" transform="translate(8.189 80.156)">
          <ellipse id="Ellipse_101" data-name="Ellipse 101" cx="7.41" cy="7.393" rx="7.41" ry="7.393" fill="#e0e0e0"/>
          <g id="Group_82" data-name="Group 82" transform="translate(1.556 9.078)">
            <g id="Group_81" data-name="Group 81" transform="translate(2.388)">
              <path id="Path_379" data-name="Path 379" d="M281.453,324.985l1.939-.165,4.737.8.558,3.565-.079.416a7.452,7.452,0,0,1-7.023.162l-.135-4.774" transform="translate(-281.45 -324.82)" fill="#455a64"/>
              <path id="Path_380" data-name="Path 380" d="M298.61,327.007a2.538,2.538,0,0,1,2.458,1.08,13.908,13.908,0,0,1,.882,1.4,5.792,5.792,0,0,1-2.471,1.847Z" transform="translate(-292.941 -326.267)" fill="#455a64"/>
            </g>
            <path id="Path_381" data-name="Path 381" d="M276.612,325.318a2.4,2.4,0,0,0-1.781,1.249c-.5,1.093-.611,1.437-.611,1.437a6.371,6.371,0,0,0,2.54,2.094s.235-2.752.268-3.531c.033-.852.069-1.275-.416-1.249Z" transform="translate(-274.22 -325.152)" fill="#455a64"/>
          </g>
          <g id="Group_87" data-name="Group 87" transform="translate(3.739 0.891)">
            <g id="Group_86" data-name="Group 86">
              <path id="Path_382" data-name="Path 382" d="M283.627,301.387a3.5,3.5,0,0,1,2.715-1.348,3.773,3.773,0,0,1,1.315.238,1.941,1.941,0,0,1,1.11.733,3.262,3.262,0,0,1,.638,1.487,8.9,8.9,0,0,1,.079,1.675,3.072,3.072,0,0,1-.525,1.576l-1.424.248a9.034,9.034,0,0,1-2.352-.126,3.025,3.025,0,0,1-1.923-1.262,2.994,2.994,0,0,1,.36-3.218Z" transform="translate(-282.242 -300.038)" fill="#263238"/>
              <path id="Path_383" data-name="Path 383" d="M280.831,314.766a1.067,1.067,0,0,1,.482-.8.76.76,0,0,1,.9.079l.225.268a.918.918,0,0,1,.529.925,1.011,1.011,0,0,1-.7.823,1.115,1.115,0,0,1-1.06-.254,1.25,1.25,0,0,1-.373-1.037Z" transform="translate(-280.827 -309.292)" fill="#263238"/>
              <path id="Path_384" data-name="Path 384" d="M281.436,316.447a.389.389,0,0,1-.076-.284,1.293,1.293,0,0,1,.327-.638,1.914,1.914,0,0,1,.572-.456c.168-.089.281-.122.277-.132a.819.819,0,0,0-.3.089,1.723,1.723,0,0,0-.6.456,1.687,1.687,0,0,0-.231.35.8.8,0,0,0-.093.334.414.414,0,0,0,.063.225c.033.046.059.063.063.059Z" transform="translate(-281.15 -310.015)" fill="#455a64"/>
              <g id="Group_85" data-name="Group 85" transform="translate(1.313 0.711)">
                <path id="Path_385" data-name="Path 385" d="M290.378,310.274s-.007-1.321-.007-1.318a1.873,1.873,0,0,0,1.483-1.612,16.217,16.217,0,0,0,.182-2.963,2.168,2.168,0,0,0-1.893-2.134l-.5-.056-1.9.753a.528.528,0,0,0-.5.509l-.056,6.346.869,1.219a1.28,1.28,0,0,0,2.322-.737h0Z" transform="translate(-286.401 -302.19)" fill="#ffbe9d"/>
                <path id="Path_386" data-name="Path 386" d="M294.53,315.815a.3.3,0,0,1,.109-.195.323.323,0,0,1,.393-.023.433.433,0,0,1,.165.406h0a.387.387,0,0,1-.281.162h-.053a.332.332,0,0,1-.238-.1.31.31,0,0,1-.092-.261Z" transform="translate(-291.316 -311.13)" fill="#eb996e"/>
                <g id="Group_83" data-name="Group 83" transform="translate(1.982 1.771)">
                  <path id="Path_387" data-name="Path 387" d="M298.983,311.585a.191.191,0,0,1-.195.185.184.184,0,0,1-.188-.185.191.191,0,0,1,.195-.185A.183.183,0,0,1,298.983,311.585Z" transform="translate(-296.023 -310.128)" fill="#263238"/>
                  <path id="Path_388" data-name="Path 388" d="M299.176,310.058c-.026.023-.165-.092-.373-.1s-.363.086-.386.056c-.01-.013.017-.056.086-.1a.527.527,0,0,1,.311-.076.514.514,0,0,1,.294.112C299.166,310,299.186,310.049,299.176,310.058Z" transform="translate(-295.899 -309.081)" fill="#263238"/>
                  <path id="Path_389" data-name="Path 389" d="M296.765,311.748a3.064,3.064,0,0,1,.34-.043c.053,0,.1-.01.116-.046a.274.274,0,0,0-.026-.159c-.043-.132-.086-.268-.135-.41a7.158,7.158,0,0,1-.294-1.07,6.824,6.824,0,0,1,.38,1.044c.043.145.086.281.129.413a.315.315,0,0,1,.017.208.128.128,0,0,1-.093.073.284.284,0,0,1-.089.007,1.2,1.2,0,0,1-.34-.02Z" transform="translate(-294.793 -309.204)" fill="#263238"/>
                  <path id="Path_390" data-name="Path 390" d="M292.782,321.374a3.836,3.836,0,0,1-1.982-.644,2.014,2.014,0,0,0,1.989,1.011l-.007-.363Z" transform="translate(-290.8 -316.376)" fill="#eb996e"/>
                  <path id="Path_391" data-name="Path 391" d="M294.819,315.573c.033,0,.023.225.2.393s.426.159.426.188c0,.013-.056.04-.159.036a.554.554,0,0,1-.353-.145.494.494,0,0,1-.159-.33c0-.1.023-.149.04-.145Z" transform="translate(-293.465 -312.92)" fill="#263238"/>
                  <path id="Path_392" data-name="Path 392" d="M299.039,307.748c-.036.05-.195.007-.38.01s-.344.046-.38,0c-.017-.023.007-.073.073-.119a.592.592,0,0,1,.614-.007c.069.046.092.092.076.116Z" transform="translate(-295.805 -307.55)" fill="#263238"/>
                  <path id="Path_393" data-name="Path 393" d="M292.879,311.578a.193.193,0,0,0,.182.2.186.186,0,0,0,.2-.168.193.193,0,0,0-.182-.2A.184.184,0,0,0,292.879,311.578Z" transform="translate(-292.192 -310.134)" fill="#263238"/>
                  <path id="Path_394" data-name="Path 394" d="M292.115,309.885c.023.026.172-.079.38-.076s.357.109.38.086-.013-.056-.079-.106a.519.519,0,0,0-.3-.1.5.5,0,0,0-.3.092c-.066.046-.086.092-.076.106Z" transform="translate(-291.679 -308.983)" fill="#263238"/>
                  <path id="Path_395" data-name="Path 395" d="M291.75,308.518c.04.046.2,0,.393,0s.353.036.393-.01c.017-.023-.007-.073-.079-.116a.6.6,0,0,0-.317-.083.572.572,0,0,0-.314.089C291.756,308.445,291.733,308.5,291.75,308.518Z" transform="translate(-291.433 -308.059)" fill="#263238"/>
                </g>
                <g id="Group_84" data-name="Group 84" transform="translate(0 3.222)">
                  <path id="Path_396" data-name="Path 396" d="M285.895,312.375c.007-.112-.109-.383-.218-.406a.652.652,0,0,0-.872.68.773.773,0,0,0,.981.846C285.786,313.471,285.875,312.761,285.895,312.375Z" transform="translate(-284.802 -311.943)" fill="#ffbe9d"/>
                  <path id="Path_397" data-name="Path 397" d="M286.129,313.8l-.05.023a.186.186,0,0,1-.132-.007.44.44,0,0,1-.178-.406.516.516,0,0,1,.066-.251.206.206,0,0,1,.142-.129.089.089,0,0,1,.1.056c.013.03,0,.05.01.053a.06.06,0,0,0,.017-.06.1.1,0,0,0-.036-.066.153.153,0,0,0-.1-.033.248.248,0,0,0-.195.145.594.594,0,0,0-.079.281.455.455,0,0,0,.235.456.191.191,0,0,0,.165-.017c.033-.023.04-.046.036-.046Z" transform="translate(-285.403 -312.637)" fill="#eb996e"/>
                </g>
              </g>
              <path id="Path_398" data-name="Path 398" d="M286.225,304.851l.261.268c1.123-1.074,3.317-3.759,3.195-3.6a3.27,3.27,0,0,0-1.605-.175c-.836.142-2.418.558-2.4,1.543A5.1,5.1,0,0,0,286.225,304.851Z" transform="translate(-284.076 -300.889)" fill="#263238"/>
            </g>
            <path id="Path_399" data-name="Path 399" d="M282.823,304.586a.443.443,0,0,1,.017-.06,1.056,1.056,0,0,1,.069-.162,1.5,1.5,0,0,1,.426-.479,2.831,2.831,0,0,1,.862-.413c.344-.112.727-.2,1.107-.36a5,5,0,0,0,1.011-.565,5.2,5.2,0,0,0,.714-.621,5.647,5.647,0,0,0,.413-.489c.043-.056.076-.106.1-.142s.036-.05.04-.046-.01.02-.03.053-.053.086-.1.145a4.556,4.556,0,0,1-.4.5,5.03,5.03,0,0,1-.714.638,4.923,4.923,0,0,1-1.021.575,10.467,10.467,0,0,1-1.113.357,2.84,2.84,0,0,0-.852.4,1.582,1.582,0,0,0-.433.459,1.545,1.545,0,0,0-.1.211Z" transform="translate(-282.161 -300.849)" fill="#455a64"/>
            <path id="Path_400" data-name="Path 400" d="M283.717,305.184a.556.556,0,0,1,.04-.225,1.043,1.043,0,0,1,.383-.482,2.328,2.328,0,0,1,.856-.334,4.905,4.905,0,0,0,1.06-.337,4.45,4.45,0,0,0,.945-.581,4.4,4.4,0,0,0,.648-.638,4.8,4.8,0,0,0,.36-.5c.036-.059.063-.106.086-.142a.483.483,0,0,1,.033-.049.462.462,0,0,1-.023.053q-.03.059-.079.149a4.12,4.12,0,0,1-.35.509,4.436,4.436,0,0,1-.648.651,4.3,4.3,0,0,1-.955.591,5.066,5.066,0,0,1-1.074.337,2.29,2.29,0,0,0-.842.317,1.048,1.048,0,0,0-.387.459,1.094,1.094,0,0,0-.059.215Z" transform="translate(-282.757 -301.285)" fill="#455a64"/>
          </g>
          <path id="Path_401" data-name="Path 401" d="M281.853,335.806a6.955,6.955,0,0,1-.033-.978,7.612,7.612,0,0,1,.033-.978,14.481,14.481,0,0,1,0,1.956Z" transform="translate(-277.753 -321.789)" fill="#263238"/>
          <path id="Path_402" data-name="Path 402" d="M302.374,334.7s0-.132.01-.347a3.877,3.877,0,0,0-.03-.829,4.068,4.068,0,0,0-.238-.8A1.86,1.86,0,0,1,302,332.4a1.75,1.75,0,0,1,.165.307,3.265,3.265,0,0,1,.261.8,3.151,3.151,0,0,1,.01.842,1.578,1.578,0,0,1-.059.344Z" transform="translate(-291.264 -320.818)" fill="#263238"/>
        </g>
        <path id="Path_403" data-name="Path 403" d="M349.647,311.994H324.394a2.269,2.269,0,0,1-2.27-2.27v-5.563l-2.785-2.471h30.307a2.269,2.269,0,0,1,2.27,2.27v5.765A2.269,2.269,0,0,1,349.647,311.994Z" transform="translate(-294.689 -220.047)" fill="#ebebeb"/>
        <path id="Path_404" data-name="Path 404" d="M360.178,310.7c0,.046-5.514.086-12.312.086s-12.316-.04-12.316-.086,5.514-.086,12.316-.086S360.178,310.65,360.178,310.7Z" transform="translate(-305.544 -225.912)" fill="#fff"/>
        <path id="Path_405" data-name="Path 405" d="M360.178,316.176c0,.046-5.514.086-12.312.086s-12.316-.04-12.316-.086,5.514-.086,12.316-.086S360.178,316.13,360.178,316.176Z" transform="translate(-305.544 -229.634)" fill="#fff"/>
        <path id="Path_406" data-name="Path 406" d="M360.178,321.656c0,.046-5.514.086-12.312.086s-12.316-.04-12.316-.086,5.514-.086,12.316-.086S360.178,321.61,360.178,321.656Z" transform="translate(-305.544 -233.356)" fill="#fff"/>
        <path id="Path_407" data-name="Path 407" d="M360.178,187.566c0,.046-5.514.086-12.312.086s-12.316-.04-12.316-.086,5.514-.086,12.316-.086S360.178,187.52,360.178,187.566Z" transform="translate(-305.544 -142.282)" fill="#fff"/>
        <path id="Path_408" data-name="Path 408" d="M360.178,193.036c0,.046-5.514.086-12.312.086s-12.316-.04-12.316-.086,5.514-.086,12.316-.086S360.178,192.99,360.178,193.036Z" transform="translate(-305.544 -145.998)" fill="#fff"/>
        <path id="Path_409" data-name="Path 409" d="M360.178,199.616c0,.046-5.514.086-12.312.086s-12.316-.04-12.316-.086,5.514-.086,12.316-.086S360.178,199.57,360.178,199.616Z" transform="translate(-305.544 -150.467)" fill="#fff"/>
        <g id="Group_89" data-name="Group 89" transform="translate(30.138 17.832)">
          <path id="Path_410" data-name="Path 410" d="M335.95,102.119a1.318,1.318,0,0,1,2.283-.816l-.357.327a.772.772,0,0,0-.6-.281.766.766,0,1,0,0,1.533.765.765,0,0,0,.6-.284l.357.327a1.316,1.316,0,0,1-2.283-.813Z" transform="translate(-335.95 -100.778)" fill="#263238"/>
          <path id="Path_411" data-name="Path 411" d="M345.756,102.053v1.054h-.532v-.971c0-.3-.135-.433-.373-.433-.258,0-.439.159-.439.5v.908h-.532V100.57h.532v.889a.814.814,0,0,1,.585-.218.723.723,0,0,1,.763.813Z" transform="translate(-341.26 -100.57)" fill="#263238"/>
          <path id="Path_412" data-name="Path 412" d="M352.4,103.426v1.051h-.5v-.228a.6.6,0,0,1-.562.258c-.429,0-.687-.238-.687-.558s.228-.552.79-.552h.423c0-.228-.135-.363-.423-.363a.88.88,0,0,0-.529.172l-.192-.373a1.424,1.424,0,0,1,.793-.221C352.074,102.61,352.4,102.871,352.4,103.426Zm-.532.469v-.188H351.5c-.248,0-.327.093-.327.215s.112.221.3.221a.393.393,0,0,0,.393-.251Z" transform="translate(-345.794 -101.936)" fill="#263238"/>
          <path id="Path_413" data-name="Path 413" d="M358.144,103.607a.756.756,0,0,1-.433.116.607.607,0,0,1-.687-.661v-.757h-.284v-.41h.284v-.446h.532v.446h.459v.41h-.459v.75a.213.213,0,0,0,.228.241.341.341,0,0,0,.215-.069l.142.377Z" transform="translate(-349.872 -101.159)" fill="#263238"/>
        </g>
        <path id="Path_414" data-name="Path 414" d="M338.55,115.616c0,.046-5.629.086-12.573.086s-12.577-.04-12.577-.086,5.629-.086,12.577-.086S338.55,115.57,338.55,115.616Z" transform="translate(-290.711 -92.755)" fill="#263238"/>
        <ellipse id="Ellipse_102" data-name="Ellipse 102" cx="0.585" cy="0.585" rx="0.585" ry="0.585" transform="translate(58.397 18.004)" fill="#263238"/>
        <path id="Path_415" data-name="Path 415" d="M422.66,106.835a.585.585,0,1,1-.585-.585A.584.584,0,0,1,422.66,106.835Z" transform="translate(-363.093 -86.541)" fill="#263238"/>
        <path id="Path_416" data-name="Path 416" d="M422.66,112a.585.585,0,1,1-.585-.585A.584.584,0,0,1,422.66,112Z" transform="translate(-363.093 -90.003)" fill="#263238"/>
        <path id="Path_417" data-name="Path 417" d="M275.844,103.621a.163.163,0,0,1-.1-.033l-1.549-1.136a.156.156,0,0,1-.066-.135.161.161,0,0,1,.069-.132l1.549-1.117a.166.166,0,0,1,.195.268l-1.364.984,1.368,1a.164.164,0,0,1-.1.3Z" transform="translate(-264.414 -83.05)" fill="#263238"/>
        <ellipse id="Ellipse_103" data-name="Ellipse 103" cx="7.41" cy="7.393" rx="7.41" ry="7.393" transform="translate(44.452 59.346)" fill="#e0e0e0"/>
        <g id="Group_90" data-name="Group 90" transform="translate(45.936 61.3)">
          <path id="Path_418" data-name="Path 418" d="M398.937,265.814h-3.895a.5.5,0,0,1-.5-.5h0a.5.5,0,0,1,.5-.5h3.895a.5.5,0,0,1,.5.5h0A.5.5,0,0,1,398.937,265.814Z" transform="translate(-390.982 -256.036)" fill="#263238"/>
          <rect id="Rectangle_157" data-name="Rectangle 157" width="0.344" height="1.731" transform="translate(5.884 0.601)" fill="#263238"/>
          <ellipse id="Ellipse_104" data-name="Ellipse 104" cx="1.004" cy="1.004" rx="1.004" ry="1.004" transform="translate(0 5.514)" fill="#ff725e"/>
          <ellipse id="Ellipse_105" data-name="Ellipse 105" cx="1.004" cy="1.004" rx="1.004" ry="1.004" transform="translate(10.155 5.448)" fill="#ff725e"/>
          <path id="Path_419" data-name="Path 419" d="M392.182,244.2s4.09-.05,4.737,3.492-2.811,3.607-3.806,3.677c-.453.03-1.417.033-2.266.02-1.886-.033-3.218-.4-3.67-2.147a3.318,3.318,0,0,1-.1-.628c-.119-1.916,1.179-4.509,5.111-4.413Z" transform="translate(-385.978 -242.236)" fill="#ff725e"/>
          <path id="Path_420" data-name="Path 420" d="M391.32,255.966l5.943.092a1.127,1.127,0,0,0,1.146-1.11h0a1.129,1.129,0,0,0-1.11-1.146l-5.943-.092a1.127,1.127,0,0,0-1.146,1.11h0A1.127,1.127,0,0,0,391.32,255.966Z" transform="translate(-388.082 -248.602)" fill="#263238"/>
          <path id="Path_421" data-name="Path 421" d="M407.815,256.212a.362.362,0,1,0,.284-.426A.362.362,0,0,0,407.815,256.212Z" transform="translate(-399.867 -249.988)" fill="#fff"/>
          <path id="Path_422" data-name="Path 422" d="M395.246,256.012a.362.362,0,1,0,.284-.426A.362.362,0,0,0,395.246,256.012Z" transform="translate(-391.45 -249.854)" fill="#fff"/>
          <path id="Path_423" data-name="Path 423" d="M401.52,238.815a.565.565,0,1,1-.565-.565A.565.565,0,0,1,401.52,238.815Z" transform="translate(-394.9 -238.25)" fill="#ff725e"/>
          <path id="Path_424" data-name="Path 424" d="M401.867,256.583a.164.164,0,0,1,.036.086.542.542,0,0,1-.023.251.752.752,0,0,1-.2.32.7.7,0,0,1-.426.2.712.712,0,0,1-.456-.122.745.745,0,0,1-.254-.281.553.553,0,0,1-.066-.244c0-.059.01-.093.02-.093.026,0,.033.126.142.278a.745.745,0,0,0,.234.215.64.64,0,0,0,.363.089.63.63,0,0,0,.344-.152.771.771,0,0,0,.192-.254c.079-.168.063-.3.089-.3Z" transform="translate(-394.96 -250.525)" fill="#fff"/>
          <path id="Path_425" data-name="Path 425" d="M416.461,254.44s.013.03.033.086c.01.03.02.063.03.106s.023.089.033.142a3.17,3.17,0,0,1,.053.373,3.117,3.117,0,0,1,0,.462,3.445,3.445,0,0,1-.076.456,3.094,3.094,0,0,1-.116.36c-.02.05-.04.092-.059.132a.7.7,0,0,1-.049.1.785.785,0,0,1-.046.079.6.6,0,0,1,.036-.086.724.724,0,0,0,.043-.1c.017-.04.036-.083.053-.132a2.72,2.72,0,0,0,.109-.357,3.01,3.01,0,0,0,.073-.453,3.607,3.607,0,0,0,.007-.459,3.117,3.117,0,0,0-.046-.37,1.344,1.344,0,0,0-.03-.142c-.01-.043-.017-.076-.026-.106a.305.305,0,0,1-.02-.093Z" transform="translate(-405.527 -249.092)" fill="#263238"/>
          <path id="Path_426" data-name="Path 426" d="M387.224,254.5s-.013.03-.033.086c-.01.03-.02.063-.03.106s-.023.089-.033.142a3.159,3.159,0,0,0-.053.373,3.1,3.1,0,0,0,0,.462,3.457,3.457,0,0,0,.076.456,3.123,3.123,0,0,0,.116.36c.02.05.04.092.059.132a.7.7,0,0,0,.05.1.777.777,0,0,0,.046.079.6.6,0,0,0-.036-.086.732.732,0,0,1-.043-.1c-.017-.04-.036-.083-.053-.132a2.735,2.735,0,0,1-.109-.357,3.49,3.49,0,0,1-.076-.453,3.607,3.607,0,0,1-.007-.459,3.118,3.118,0,0,1,.046-.37,1.335,1.335,0,0,1,.03-.142c.01-.043.017-.076.026-.106a.323.323,0,0,0,.02-.089Z" transform="translate(-385.979 -249.132)" fill="#263238"/>
          <path id="Path_427" data-name="Path 427" d="M390.21,271.436a5.531,5.531,0,0,1,3.756-1.186,5.918,5.918,0,0,1,3.842,1.186A7.363,7.363,0,0,1,390.21,271.436Z" transform="translate(-388.083 -259.679)" fill="#ff725e"/>
        </g>
        <path id="Path_428" data-name="Path 428" d="M274.37,252.978h25.252a2.269,2.269,0,0,0,2.27-2.27v-7.327l2.785-2.471H274.37a2.269,2.269,0,0,0-2.27,2.27v7.529A2.269,2.269,0,0,0,274.37,252.978Z" transform="translate(-263.055 -178.747)" fill="#ebebeb"/>
        <path id="Path_429" data-name="Path 429" d="M304.93,251.576c0,.046-5.2.086-11.615.086s-11.615-.04-11.615-.086,5.2-.086,11.615-.086S304.93,251.53,304.93,251.576Z" transform="translate(-269.484 -185.758)" fill="#fff"/>
        <path id="Path_430" data-name="Path 430" d="M304.93,257.516c0,.046-5.2.086-11.615.086s-11.615-.04-11.615-.086,5.2-.086,11.615-.086S304.93,257.47,304.93,257.516Z" transform="translate(-269.484 -189.792)" fill="#fff"/>
        <path id="Path_431" data-name="Path 431" d="M304.93,263.456c0,.046-5.2.086-11.615.086s-11.615-.04-11.615-.086,5.2-.086,11.615-.086S304.93,263.41,304.93,263.456Z" transform="translate(-269.484 -193.827)" fill="#fff"/>
        <path id="Path_432" data-name="Path 432" d="M304.93,269.4c0,.046-5.2.086-11.615.086s-11.615-.04-11.615-.086,5.2-.086,11.615-.086S304.93,269.35,304.93,269.4Z" transform="translate(-269.484 -197.861)" fill="#fff"/>
        <ellipse id="Ellipse_106" data-name="Ellipse 106" cx="7.41" cy="7.393" rx="7.41" ry="7.393" transform="translate(44.452 99.075)" fill="#e0e0e0"/>
        <g id="Group_91" data-name="Group 91" transform="translate(45.936 101.049)">
          <path id="Path_433" data-name="Path 433" d="M398.937,390.094h-3.895a.5.5,0,0,1-.5-.5h0a.5.5,0,0,1,.5-.5h3.895a.5.5,0,0,1,.5.5h0A.5.5,0,0,1,398.937,390.094Z" transform="translate(-390.982 -380.316)" fill="#263238"/>
          <rect id="Rectangle_158" data-name="Rectangle 158" width="0.344" height="1.731" transform="translate(5.884 0.601)" fill="#263238"/>
          <ellipse id="Ellipse_107" data-name="Ellipse 107" cx="1.004" cy="1.004" rx="1.004" ry="1.004" transform="translate(0 5.514)" fill="#ff725e"/>
          <ellipse id="Ellipse_108" data-name="Ellipse 108" cx="1.004" cy="1.004" rx="1.004" ry="1.004" transform="translate(10.155 5.444)" fill="#ff725e"/>
          <path id="Path_434" data-name="Path 434" d="M392.182,368.485s4.09-.05,4.737,3.492-2.811,3.607-3.806,3.677c-.453.03-1.417.033-2.266.02-1.886-.033-3.218-.4-3.67-2.147a3.318,3.318,0,0,1-.1-.628c-.119-1.916,1.179-4.509,5.111-4.413Z" transform="translate(-385.978 -366.516)" fill="#ff725e"/>
          <path id="Path_435" data-name="Path 435" d="M391.32,380.246l5.943.092a1.127,1.127,0,0,0,1.146-1.11h0a1.129,1.129,0,0,0-1.11-1.146l-5.943-.092a1.127,1.127,0,0,0-1.146,1.11h0A1.127,1.127,0,0,0,391.32,380.246Z" transform="translate(-388.082 -372.882)" fill="#263238"/>
          <path id="Path_436" data-name="Path 436" d="M407.815,380.492a.362.362,0,1,0,.284-.426A.362.362,0,0,0,407.815,380.492Z" transform="translate(-399.867 -374.268)" fill="#fff"/>
          <path id="Path_437" data-name="Path 437" d="M395.246,380.292a.362.362,0,1,0,.284-.426A.362.362,0,0,0,395.246,380.292Z" transform="translate(-391.45 -374.134)" fill="#fff"/>
          <path id="Path_438" data-name="Path 438" d="M401.52,363.095a.565.565,0,1,1-.565-.565A.565.565,0,0,1,401.52,363.095Z" transform="translate(-394.9 -362.53)" fill="#ff725e"/>
          <path id="Path_439" data-name="Path 439" d="M401.867,380.853a.164.164,0,0,1,.036.086.542.542,0,0,1-.023.251.753.753,0,0,1-.2.32.7.7,0,0,1-.426.2.712.712,0,0,1-.456-.122.745.745,0,0,1-.254-.281.553.553,0,0,1-.066-.244c0-.059.01-.092.02-.092.026,0,.033.126.142.277a.745.745,0,0,0,.234.215.64.64,0,0,0,.363.089.63.63,0,0,0,.344-.152.77.77,0,0,0,.192-.254c.079-.168.063-.3.089-.3Z" transform="translate(-394.96 -374.798)" fill="#fff"/>
          <path id="Path_440" data-name="Path 440" d="M416.461,378.71s.013.03.033.086c.01.03.02.063.03.106s.023.089.033.142a3.168,3.168,0,0,1,.053.373,3.117,3.117,0,0,1,0,.462,3.445,3.445,0,0,1-.076.456,3.093,3.093,0,0,1-.116.36c-.02.05-.04.093-.059.132a.7.7,0,0,1-.049.1.8.8,0,0,1-.046.079.6.6,0,0,1,.036-.086.724.724,0,0,0,.043-.1c.017-.04.036-.083.053-.132a2.718,2.718,0,0,0,.109-.357,3.01,3.01,0,0,0,.073-.453,3.607,3.607,0,0,0,.007-.459,3.119,3.119,0,0,0-.046-.37,1.345,1.345,0,0,0-.03-.142c-.01-.043-.017-.076-.026-.106a.305.305,0,0,1-.02-.093Z" transform="translate(-405.527 -373.365)" fill="#263238"/>
          <path id="Path_441" data-name="Path 441" d="M387.224,378.773s-.013.03-.033.086c-.01.03-.02.063-.03.106s-.023.089-.033.142a3.158,3.158,0,0,0-.053.373,3.1,3.1,0,0,0,0,.463,3.456,3.456,0,0,0,.076.456,3.121,3.121,0,0,0,.116.36c.02.05.04.093.059.132a.7.7,0,0,0,.05.1.786.786,0,0,0,.046.079.6.6,0,0,0-.036-.086.732.732,0,0,1-.043-.1c-.017-.04-.036-.083-.053-.135a2.732,2.732,0,0,1-.109-.357,3.491,3.491,0,0,1-.076-.453,3.607,3.607,0,0,1-.007-.459,3.119,3.119,0,0,1,.046-.37,1.335,1.335,0,0,1,.03-.142c.01-.043.017-.076.026-.106a.31.31,0,0,0,.02-.092Z" transform="translate(-385.979 -373.405)" fill="#263238"/>
          <path id="Path_442" data-name="Path 442" d="M390.21,395.716a5.531,5.531,0,0,1,3.756-1.186,5.918,5.918,0,0,1,3.842,1.186A7.363,7.363,0,0,1,390.21,395.716Z" transform="translate(-388.083 -383.959)" fill="#ff725e"/>
        </g>
        <path id="Path_443" data-name="Path 443" d="M274.37,377.258h25.252a2.269,2.269,0,0,0,2.27-2.27v-7.327l2.785-2.471H274.37a2.269,2.269,0,0,0-2.27,2.27v7.529A2.269,2.269,0,0,0,274.37,377.258Z" transform="translate(-263.055 -263.27)" fill="#ebebeb"/>
        <path id="Path_444" data-name="Path 444" d="M274.37,421.879h25.252a2.269,2.269,0,0,0,2.27-2.27v-2.428l2.785-2.471H274.37a2.269,2.269,0,0,0-2.27,2.27v2.63A2.269,2.269,0,0,0,274.37,421.879Z" transform="translate(-263.055 -297.088)" fill="#ebebeb"/>
        <path id="Path_445" data-name="Path 445" d="M304.93,375.856c0,.046-5.2.086-11.615.086s-11.615-.04-11.615-.086,5.2-.086,11.615-.086S304.93,375.81,304.93,375.856Z" transform="translate(-269.484 -270.169)" fill="#fff"/>
        <path id="Path_446" data-name="Path 446" d="M304.93,381.8c0,.046-5.2.086-11.615.086s-11.615-.04-11.615-.086,5.2-.086,11.615-.086S304.93,381.75,304.93,381.8Z" transform="translate(-269.484 -274.99)" fill="#fff"/>
        <path id="Path_447" data-name="Path 447" d="M304.93,387.736c0,.046-5.2.086-11.615.086s-11.615-.04-11.615-.086,5.2-.086,11.615-.086S304.93,387.69,304.93,387.736Z" transform="translate(-269.484 -278.968)" fill="#fff"/>
        <path id="Path_448" data-name="Path 448" d="M304.93,393.676c0,.046-5.2.086-11.615.086s-11.615-.04-11.615-.086,5.2-.086,11.615-.086S304.93,393.63,304.93,393.676Z" transform="translate(-269.484 -282.945)" fill="#fff"/>
        <path id="Path_449" data-name="Path 449" d="M305.646,425.7c0,.046-5.147.086-11.493.086s-11.493-.04-11.493-.086,5.147-.086,11.493-.086S305.646,425.65,305.646,425.7Z" transform="translate(-270.126 -304.388)" fill="#fff"/>
      </g>
    </g>
    <g id="Bot" transform="translate(1257.935 3101.583)">
      <g id="Group_105" data-name="Group 105" transform="translate(0 0)">
        <g id="Group_98" data-name="Group 98" transform="translate(0 36.859)">
          <path id="Path_461" data-name="Path 461" d="M56.687,268.98l-13.931-1.454L36.879,254.15l-4.579,1.2s3.383,14.136,7.165,16.323,16.722,2.587,16.722,2.587Z" transform="translate(-28.462 -244.884)" fill="#ff725e"/>
          <g id="Group_97" data-name="Group 97" transform="translate(22.297 18.075)">
            <ellipse id="Ellipse_109" data-name="Ellipse 109" cx="6.171" cy="6.171" rx="6.171" ry="6.171" transform="matrix(0.664, -0.747, 0.747, 0.664, 0, 9.225)" fill="#263238"/>
            <path id="Path_462" data-name="Path 462" d="M102.021,300.822a6.181,6.181,0,1,1,4.371-1.81,6.148,6.148,0,0,1-4.371,1.81Zm0-12.342a6.158,6.158,0,1,0,4.357,1.8A6.125,6.125,0,0,0,102.021,288.48Z" transform="translate(-93.309 -285.934)" fill="#263238"/>
          </g>
          <ellipse id="Ellipse_110" data-name="Ellipse 110" cx="4.628" cy="4.628" rx="4.628" ry="4.628" transform="matrix(0.972, -0.233, 0.233, 0.972, 6.402, 19.921)" fill="#263238"/>
          <circle id="Ellipse_111" data-name="Ellipse 111" cx="3.783" cy="3.783" r="3.783" transform="translate(0.444 7.673) rotate(-45)" fill="#263238"/>
          <path id="Path_463" data-name="Path 463" d="M.809,0h4.07V1.741H.809A.811.811,0,0,1,0,.932V.813A.811.811,0,0,1,.809,0Z" transform="matrix(-0.764, 0.645, -0.645, -0.764, 12.307, 5.104)" fill="#263238"/>
          <path id="Path_464" data-name="Path 464" d="M.809,0H4.76a.115.115,0,0,1,.116.116V1.622a.115.115,0,0,1-.116.116H.809A.811.811,0,0,1,0,.928V.809A.811.811,0,0,1,.809,0Z" transform="translate(7.733) rotate(90)" fill="#263238"/>
          <path id="Path_465" data-name="Path 465" d="M.809,0H4.76a.115.115,0,0,1,.116.116V1.622a.115.115,0,0,1-.116.116H.809A.811.811,0,0,1,0,.928V.809A.811.811,0,0,1,.809,0Z" transform="translate(4.751 0.034) rotate(77.39)" fill="#263238"/>
          <path id="Path_466" data-name="Path 466" d="M.809,0H4.76a.115.115,0,0,1,.116.116V1.622a.115.115,0,0,1-.116.116H.809A.811.811,0,0,1,0,.928V.809A.811.811,0,0,1,.809,0Z" transform="translate(1.505 1.093) rotate(60)" fill="#263238"/>
        </g>
        <g id="Group_101" data-name="Group 101" transform="translate(68.037 53.8)">
          <rect id="Rectangle_159" data-name="Rectangle 159" width="4.526" height="30.706" transform="translate(24.827 38.243) rotate(156.96)" fill="#ff725e"/>
          <g id="Group_99" data-name="Group 99" transform="translate(0 0)">
            <ellipse id="Ellipse_112" data-name="Ellipse 112" cx="6.171" cy="6.171" rx="6.171" ry="6.171" transform="translate(0 9.417) rotate(-49.73)" fill="#263238"/>
            <path id="Path_467" data-name="Path 467" d="M240.433,302.784a6.23,6.23,0,0,1-1.83-.277,6.134,6.134,0,1,1,1.827.277Zm-.017-12.349a6.167,6.167,0,1,0,5.9,7.985h0a6.175,6.175,0,0,0-5.9-7.985Z" transform="translate(-231.73 -287.893)" fill="#263238"/>
          </g>
          <ellipse id="Ellipse_113" data-name="Ellipse 113" cx="4.628" cy="4.628" rx="4.628" ry="4.628" transform="matrix(0.268, -0.963, 0.963, 0.268, 11.034, 29.129)" fill="#263238"/>
          <g id="Group_100" data-name="Group 100" transform="translate(18.342 36.531)">
            <path id="Path_468" data-name="Path 468" d="M294.323,395.929a3.781,3.781,0,1,0-2.388,4.784A3.778,3.778,0,0,0,294.323,395.929Z" transform="translate(-285.369 -393.344)" fill="#263238"/>
            <path id="Path_469" data-name="Path 469" d="M.809,0h4.07V1.741H.809A.811.811,0,0,1,0,.932V.813A.811.811,0,0,1,.809,0Z" transform="translate(0 8.285) rotate(-58.64)" fill="#263238"/>
            <path id="Path_470" data-name="Path 470" d="M.809,0H4.76a.115.115,0,0,1,.116.116V1.622a.115.115,0,0,1-.116.116H.809A.811.811,0,0,1,0,.928V.809A.811.811,0,0,1,.809,0Z" transform="translate(5.952 11.677) rotate(-108.46)" fill="#263238"/>
            <path id="Path_471" data-name="Path 471" d="M.809,0H4.76a.115.115,0,0,1,.116.116V1.622a.115.115,0,0,1-.116.116H.809A.811.811,0,0,1,0,.928V.809A.811.811,0,0,1,.809,0Z" transform="matrix(-0.516, -0.857, 0.857, -0.516, 8.772, 10.7)" fill="#263238"/>
            <path id="Path_472" data-name="Path 472" d="M.809,0H4.76a.115.115,0,0,1,.116.116V1.622a.115.115,0,0,1-.116.116H.809A.811.811,0,0,1,0,.928V.809A.811.811,0,0,1,.809,0Z" transform="matrix(-0.748, -0.663, 0.663, -0.748, 11.514, 8.672)" fill="#263238"/>
          </g>
        </g>
        <path id="Path_473" data-name="Path 473" d="M108.96,275.142s.446,43.319,24.757,44.168,25.331-43.858,25.331-44.168c0,0-2.871-6.462-25.044-6.207S108.96,275.142,108.96,275.142Z" transform="translate(-79.797 -219.698)" fill="#ff725e"/>
        <rect id="Rectangle_160" data-name="Rectangle 160" width="25.404" height="5.21" rx="2.605" transform="translate(65.802 49.964) rotate(180)" fill="#263238"/>
        <rect id="Rectangle_161" data-name="Rectangle 161" width="1.774" height="8.969" transform="translate(53.989 13.286) rotate(180)" fill="#263238"/>
        <ellipse id="Ellipse_114" data-name="Ellipse 114" cx="5.213" cy="5.213" rx="5.213" ry="5.213" transform="translate(72.745 29.827) rotate(-13.37)" fill="#ff725e"/>
        <ellipse id="Ellipse_115" data-name="Ellipse 115" cx="5.213" cy="5.213" rx="5.213" ry="5.213" transform="translate(20.163 29.426) rotate(-12.78)" fill="#ff725e"/>
        <path id="Path_474" data-name="Path 474" d="M127.69,142.127s-21.2-.254-24.552,18.1,14.569,18.7,19.725,19.048c2.339.159,7.34.175,11.754.1,9.772-.168,16.673-2.061,19.025-11.126a17.259,17.259,0,0,0,.529-3.247c.621-9.934-6.1-23.366-26.478-22.877Z" transform="translate(-75.62 -130.787)" fill="#ff725e"/>
        <path id="Path_475" data-name="Path 475" d="M150.387,203.106l-30.792.482a5.847,5.847,0,0,1-5.936-5.751h0a5.847,5.847,0,0,1,5.751-5.936l30.792-.482a5.847,5.847,0,0,1,5.936,5.751h0A5.847,5.847,0,0,1,150.387,203.106Z" transform="translate(-82.943 -164.979)" fill="#263238"/>
        <path id="Path_476" data-name="Path 476" d="M143.439,204.379a1.875,1.875,0,1,1-1.48-2.2A1.875,1.875,0,0,1,143.439,204.379Z" transform="translate(-100.398 -172.203)" fill="#fff"/>
        <path id="Path_477" data-name="Path 477" d="M208.559,203.339a1.875,1.875,0,1,1-1.48-2.2A1.875,1.875,0,0,1,208.559,203.339Z" transform="translate(-144.006 -171.493)" fill="#fff"/>
        <g id="Group_103" data-name="Group 103" transform="translate(44.716 64.619)">
          <g id="Group_102" data-name="Group 102">
            <path id="Path_478" data-name="Path 478" d="M172.783,321.587a8.382,8.382,0,1,1-7.747-8.972,8.382,8.382,0,0,1,7.747,8.972Z" transform="translate(-156.042 -312.592)" fill="#263238"/>
            <path id="Path_479" data-name="Path 479" d="M175.119,326.034a6.108,6.108,0,1,1-5.646-6.538A6.106,6.106,0,0,1,175.119,326.034Z" transform="translate(-160.647 -317.204)" fill="#fff"/>
          </g>
          <path id="Path_480" data-name="Path 480" d="M177.815,331.115a6.071,6.071,0,0,1-.056-1.008c-.016-.631-.026-1.533-.03-2.633l.066.122c-.915-.535-1.979-1.156-3.142-1.833h.175c-.984.558-2.055,1.156-3.171,1.784-.086.142.116-.195.1-.159h0v.238l-.007.238-.007.472c-.007.314-.01.621-.017.925-.013.608-.023,1.2-.033,1.764l-.086-.152c1.15.7,2.2,1.341,3.105,1.9h-.139c.968-.522,1.767-.938,2.329-1.226a6.222,6.222,0,0,1,.915-.429,4.832,4.832,0,0,1-.793.525c-.535.327-1.325.8-2.316,1.368l-.069.04-.069-.04c-.918-.535-1.979-1.156-3.142-1.833l-.086-.05v-.1q.01-.852.02-1.764c0-.3.007-.611.01-.925l.007-.472v-.238l.007-.119v-.112h0v-.007h0c-.02.033.182-.3.1-.162l3.181-1.764.089-.05.086.053c1.15.7,2.2,1.345,3.105,1.9l.069.043v.079c-.036,1.143-.076,2.061-.109,2.689a4.718,4.718,0,0,1-.086.948Z" transform="translate(-166.286 -321.175)" fill="#ff725e"/>
        </g>
        <circle id="Ellipse_116" data-name="Ellipse 116" cx="2.924" cy="2.924" r="2.924" transform="translate(48.969 4.135) rotate(-45)" fill="#ff725e"/>
        <path id="Path_481" data-name="Path 481" d="M166.812,206.282c.139.017.069.671.479,1.543a3.924,3.924,0,0,0,.994,1.308,3,3,0,0,0,3.637.334,3.838,3.838,0,0,0,1.216-1.107c.562-.783.611-1.44.75-1.43.053,0,.112.165.112.476a2.946,2.946,0,0,1-.34,1.265,3.874,3.874,0,0,1-1.318,1.463,3.564,3.564,0,0,1-4.6-.42,3.907,3.907,0,0,1-1.031-1.678,2.874,2.874,0,0,1-.106-1.308c.056-.3.142-.459.195-.449Z" transform="translate(-118.379 -175.035)" fill="#fff"/>
        <path id="Path_482" data-name="Path 482" d="M252.717,207.986a16.976,16.976,0,0,0,.714-1.635,17.709,17.709,0,0,0,.859-4.209,31,31,0,0,0,.1-4.311c-.026-.552-.053-1-.076-1.308a2.329,2.329,0,0,1-.017-.482,2.584,2.584,0,0,1,.083.476c.046.307.089.753.132,1.308a26.48,26.48,0,0,1-.05,4.334,16.389,16.389,0,0,1-.915,4.235,8,8,0,0,1-.562,1.193,2.59,2.59,0,0,1-.268.4Z" transform="translate(-176.062 -168.136)" fill="#263238"/>
        <path id="Path_483" data-name="Path 483" d="M102.476,195.14s-.026.172-.106.472c-.04.149-.089.334-.132.548s-.109.456-.149.73a15.971,15.971,0,0,0-.231,1.926,16.019,16.019,0,0,0,.416,4.714,15.943,15.943,0,0,0,.568,1.853c.089.261.192.489.274.694s.159.377.228.515a2.609,2.609,0,0,1,.185.446,2.639,2.639,0,0,1-.244-.416c-.076-.135-.165-.3-.254-.505s-.2-.426-.3-.687a14.155,14.155,0,0,1-.608-1.86,16.453,16.453,0,0,1-.4-2.365,16.252,16.252,0,0,1-.02-2.4,14.358,14.358,0,0,1,.271-1.939c.05-.274.119-.515.175-.73s.109-.4.162-.545a2.973,2.973,0,0,1,.168-.453Z" transform="translate(-74.912 -167.52)" fill="#263238"/>
        <path id="Path_484" data-name="Path 484" d="M108.66,287.617s.043.01.129.036l.367.126c.33.116.8.284,1.407.5.307.109.644.231,1.017.363s.786.241,1.226.38c.882.261,1.876.6,3.006.866.562.145,1.15.294,1.761.453s1.262.271,1.929.413c1.328.3,2.772.512,4.285.757a69.844,69.844,0,0,0,19.871,0c1.513-.244,2.953-.453,4.285-.757.667-.145,1.315-.258,1.929-.413s1.2-.307,1.761-.453c1.13-.264,2.121-.6,3.006-.866.439-.135.852-.254,1.226-.38l1.017-.363c.6-.215,1.077-.38,1.407-.5l.367-.126a.66.66,0,0,1,.129-.036.64.64,0,0,1-.122.053c-.089.036-.208.083-.363.142-.327.122-.8.3-1.4.529-.3.112-.644.241-1.011.377s-.783.251-1.222.393c-.882.271-1.873.618-3,.892q-.842.223-1.764.462c-.614.159-1.262.278-1.929.423-1.331.311-2.775.525-4.291.773a68.746,68.746,0,0,1-19.917,0c-1.516-.251-2.96-.462-4.291-.776-.667-.149-1.315-.268-1.929-.423s-1.2-.317-1.764-.463c-1.13-.274-2.121-.621-3-.892-.439-.142-.849-.264-1.222-.393l-1.011-.377c-.6-.228-1.07-.4-1.4-.529-.152-.06-.274-.106-.363-.142a.819.819,0,0,1-.122-.053Z" transform="translate(-79.596 -230.56)" fill="#263238"/>
        <g id="Group_104" data-name="Group 104" transform="translate(29.163 50.981)" opacity="0.3">
          <path id="Path_485" data-name="Path 485" d="M108.96,275.142s2.871-5.956,25.044-6.207,25.044,6.207,25.044,6.207-22.365,11.031-50.085,0Z" transform="translate(-108.96 -268.928)"/>
        </g>
        <path id="Path_486" data-name="Path 486" d="M127.031,146.313a.757.757,0,0,1-.076.013c-.059.007-.135.013-.225.02-.2.02-.489.026-.862.073a22.58,22.58,0,0,0-16.343,9.3,23.331,23.331,0,0,0-3.452,7.037c-.116.357-.175.641-.235.832-.026.086-.046.159-.063.215a.334.334,0,0,1-.026.073.434.434,0,0,1,.01-.076c.013-.059.026-.132.046-.221.046-.192.1-.479.2-.842a20.957,20.957,0,0,1,1.057-3,22.249,22.249,0,0,1,2.332-4.106,22.013,22.013,0,0,1,8.84-7.3,22.451,22.451,0,0,1,4.476-1.51,20.828,20.828,0,0,1,3.148-.466c.373-.033.667-.03.866-.04h.225a.272.272,0,0,1,.076,0Z" transform="translate(-77.648 -133.599)" fill="#fff"/>
        <path id="Path_487" data-name="Path 487" d="M105.689,213.523a2.421,2.421,0,0,1-.3-.661,9.148,9.148,0,0,1-.429-1.695,9.4,9.4,0,0,1-.109-1.748,2.329,2.329,0,0,1,.086-.72c.053,0-.02,1.107.192,2.441S105.742,213.5,105.689,213.523Z" transform="translate(-77.041 -176.692)" fill="#fff"/>
        <path id="Path_488" data-name="Path 488" d="M88.606,206.763a1,1,0,0,1-.178-.178,3.029,3.029,0,0,1-.373-.578,3.766,3.766,0,0,1,.565-4.265,3.159,3.159,0,0,1,.512-.459c.132-.092.211-.135.218-.126s-.277.228-.638.664a4,4,0,0,0-.872,1.985,4.043,4.043,0,0,0,.324,2.144c.231.515.469.79.443.809Z" transform="translate(-65.519 -171.551)" fill="#fff"/>
        <path id="Path_489" data-name="Path 489" d="M176.4,113.9a4.566,4.566,0,0,0-.776-.02,2.029,2.029,0,0,0-1.731,2.7,4.482,4.482,0,0,0,.34.7c-.007.007-.069-.04-.159-.145a1.783,1.783,0,0,1-.3-.512,2.075,2.075,0,0,1,1.837-2.858,1.794,1.794,0,0,1,.588.056.517.517,0,0,1,.2.083Z" transform="translate(-123.104 -111.803)" fill="#fff"/>
        <path id="Path_490" data-name="Path 490" d="M263.495,203.224c-.036.04-.552-.453-1.328-.823s-1.477-.479-1.467-.532a3.778,3.778,0,0,1,2.795,1.354Z" transform="translate(-181.409 -171.978)" fill="#fff"/>
        <path id="Path_491" data-name="Path 491" d="M118.352,323.534a.594.594,0,0,1-.043-.063c-.03-.053-.066-.116-.109-.195-.1-.185-.231-.439-.4-.757-.086-.165-.182-.35-.284-.552s-.2-.429-.311-.667c-.225-.479-.479-1.024-.723-1.645-.126-.307-.258-.631-.4-.968l-.393-1.064c-.284-.73-.525-1.533-.806-2.365-.519-1.682-1.027-3.551-1.473-5.533s-.77-3.892-1.034-5.633c-.244-1.744-.436-3.317-.542-4.645-.063-.664-.1-1.262-.135-1.791s-.063-.981-.073-1.354-.02-.644-.03-.856v-.221a.272.272,0,0,1,0-.076.762.762,0,0,1,.013.076c.007.059.013.132.02.221.016.211.036.5.059.856s.056.826.1,1.351.089,1.126.162,1.787c.122,1.325.327,2.894.578,4.632.271,1.738.611,3.637,1.044,5.619s.948,3.842,1.454,5.524c.278.832.512,1.635.79,2.365l.383,1.064c.135.337.261.661.386.968.238.621.482,1.169.7,1.652q.159.362.3.674c.1.2.188.387.271.555.155.324.281.581.373.77.036.083.066.149.092.2s.03.069.026.073Z" transform="translate(-81.565 -237.258)" fill="#fff"/>
        <path id="Path_492" data-name="Path 492" d="M83.107,298.8a17.059,17.059,0,0,1-2.415-.086,17.347,17.347,0,0,1-2.4-.258,17.045,17.045,0,0,1,2.415.086A17.428,17.428,0,0,1,83.107,298.8Z" transform="translate(-59.259 -237.85)" fill="#fff"/>
        <path id="Path_493" data-name="Path 493" d="M50.451,269.343a17.774,17.774,0,0,1-1.259-2.141,18.155,18.155,0,0,1-1.107-2.223,17.763,17.763,0,0,1,1.259,2.141A18.151,18.151,0,0,1,50.451,269.343Z" transform="translate(-39.031 -215.103)" fill="#fff"/>
        <path id="Path_494" data-name="Path 494" d="M151.614,401.429s-.139-.007-.387-.046a8,8,0,0,1-1.034-.251,10.851,10.851,0,0,1-1.473-.565,11.18,11.18,0,0,1-3.152-2.217,10.856,10.856,0,0,1-1.031-1.2,7.734,7.734,0,0,1-.585-.889,1.82,1.82,0,0,1-.175-.347c.026-.016.3.463.856,1.163a12.316,12.316,0,0,0,1.047,1.156,12.742,12.742,0,0,0,1.467,1.216,13.468,13.468,0,0,0,1.642.971,12.947,12.947,0,0,0,1.44.595c.842.284,1.391.38,1.384.413Z" transform="translate(-103.112 -304.737)" fill="#fff"/>
        <path id="Path_495" data-name="Path 495" d="M162.565,333.673s-.079.013-.231.023-.377.036-.667.02a8.717,8.717,0,0,1-2.422-.393,9.973,9.973,0,0,1-1.579-.634,10.3,10.3,0,0,1-1.642-1.06,8.9,8.9,0,0,1-3.429-7.9,10.252,10.252,0,0,1,.347-1.923,10.117,10.117,0,0,1,.614-1.586,8.728,8.728,0,0,1,1.368-2.038,5.874,5.874,0,0,1,.469-.476,1,1,0,0,1,.175-.152c.013.013-.221.235-.595.671a9.267,9.267,0,0,0-1.308,2.048,10.1,10.1,0,0,0-.585,1.572,10.308,10.308,0,0,0-.327,1.9,8.84,8.84,0,0,0,3.37,7.76,9.632,9.632,0,0,0,3.158,1.7,9.287,9.287,0,0,0,2.388.443c.575.023.9.007.9.023Z" transform="translate(-108.996 -251.351)" fill="#fff"/>
        <path id="Path_496" data-name="Path 496" d="M53.029,286.707c-.013.026-.254-.1-.674-.192a3.687,3.687,0,0,0-3.125.75c-.327.274-.489.492-.512.476a1.635,1.635,0,0,1,.433-.565,3.4,3.4,0,0,1,1.516-.809,3.353,3.353,0,0,1,1.718.033,1.586,1.586,0,0,1,.641.307Z" transform="translate(-39.456 -229.573)" fill="#fff"/>
        <path id="Path_497" data-name="Path 497" d="M172.717,187.986c0,.046-4.057.086-9.058.086s-9.058-.04-9.058-.086,4.057-.086,9.058-.086S172.717,187.94,172.717,187.986Z" transform="translate(-110.36 -162.447)" fill="#fff"/>
        <path id="Path_498" data-name="Path 498" d="M133.095,243.738a1.53,1.53,0,0,1-.152.026c-.122.01-.268.023-.443.04-.192.017-.426.033-.7.036s-.585.023-.928.01a23.6,23.6,0,0,1-2.418-.145,26.8,26.8,0,0,1-2.924-.505,27.244,27.244,0,0,1-2.841-.852,23.992,23.992,0,0,1-2.227-.948c-.314-.145-.585-.3-.826-.426s-.446-.244-.611-.344c-.149-.092-.274-.168-.38-.231a.533.533,0,0,1-.126-.089.648.648,0,0,1,.142.059l.393.2c.168.092.377.2.624.317s.519.264.836.4c.621.291,1.378.6,2.23.908a26.434,26.434,0,0,0,5.728,1.351c.9.106,1.715.165,2.4.182.344.02.654.01.925.013s.509,0,.7-.007c.175,0,.32,0,.443-.007a.471.471,0,0,1,.155.01Z" transform="translate(-86.199 -198.249)" fill="#fff"/>
        <path id="Path_499" data-name="Path 499" d="M175.653,295.748a.485.485,0,0,1-.079.036l-.238.089-.918.327c-.4.145-.889.31-1.467.482s-1.229.387-1.962.572c-.367.1-.75.2-1.15.3s-.823.188-1.255.291c-.866.211-1.8.377-2.788.562a64.482,64.482,0,0,1-6.475.763,63.488,63.488,0,0,1-6.518.036c-1-.063-1.952-.112-2.838-.215-.443-.046-.872-.079-1.282-.135s-.8-.109-1.179-.162c-.753-.093-1.424-.225-2.018-.327s-1.1-.2-1.513-.3-.72-.162-.951-.211l-.248-.059a.251.251,0,0,1-.083-.026.283.283,0,0,1,.086.01c.066.01.149.026.251.043.231.043.552.1.958.182s.922.182,1.516.268,1.265.218,2.018.3c.377.046.77.1,1.176.149s.839.079,1.282.126c.885.1,1.833.139,2.831.2,2,.079,4.2.086,6.5-.05s4.486-.423,6.458-.747c.984-.182,1.919-.34,2.785-.545.433-.1.856-.178,1.255-.281s.783-.2,1.15-.294c.737-.175,1.387-.383,1.966-.545s1.074-.32,1.473-.453l.928-.3.244-.073a.273.273,0,0,1,.086-.02Z" transform="translate(-102.385 -236.086)" fill="#fff"/>
      </g>
    </g>
  </g>
</svg>
