<svg xmlns="http://www.w3.org/2000/svg" width="98.468" height="69.748" viewBox="0 0 98.468 69.748">
  <path id="icons8-salesforce" d="M27.668,8A20.543,20.543,0,0,0,7.154,28.514a19.973,19.973,0,0,0,1.138,5.97A18.359,18.359,0,0,0,19.463,67.491a16.985,16.985,0,0,0,2.035-.2,18.128,18.128,0,0,0,32.358.978,16.7,16.7,0,0,0,5.609,1.274,17.326,17.326,0,0,0,14.769-8.454,20.626,20.626,0,0,0,2.668.248,22.566,22.566,0,1,0,0-45.131,22.11,22.11,0,0,0-7.276,1.507,17.3,17.3,0,0,0-14.264-7.661A17,17,0,0,0,43.3,15.468,20.349,20.349,0,0,0,27.668,8Zm0,4.1a16.349,16.349,0,0,1,13.663,7.332l1.619,2.42,1.739-2.324A13.3,13.3,0,0,1,66.974,20.95l.913,1.611,1.691-.737A18.463,18.463,0,1,1,76.9,57.234a18.223,18.223,0,0,1-3.3-.312l-1.515-.273L71.4,58.027a13.287,13.287,0,0,1-17.629,6.122l-1.891-.9-.857,1.907a14.339,14.339,0,0,1-26.492-.753l-.617-1.619-1.691.337a15.028,15.028,0,0,1-2.757.264,14.352,14.352,0,0,1-7.837-26.38l1.4-.922-.617-1.547A16.4,16.4,0,0,1,27.668,12.1ZM32,32.617a.156.156,0,0,0-.152.168V44.757a.156.156,0,0,0,.152.168h1.458a.156.156,0,0,0,.152-.168V32.785a.156.156,0,0,0-.152-.168Zm25.57.032a3.115,3.115,0,0,0-2.316.833,4.565,4.565,0,0,0-1.106,2.476l-.1.753H52.814a.183.183,0,0,0-.184.16l-.208,1.138c-.008.112.04.176.184.176h1.21L52.59,45.03a8.691,8.691,0,0,1-.328,1.346,2.86,2.86,0,0,1-.385.785,1.035,1.035,0,0,1-.5.385,1.99,1.99,0,0,1-1.082.04.922.922,0,0,1-.3-.1.159.159,0,0,0-.2.1c-.048.112-.369,1-.4,1.114a.148.148,0,0,0,.08.208,3.684,3.684,0,0,0,.5.152,3.788,3.788,0,0,0,.8.072,4.027,4.027,0,0,0,1.346-.208,2.526,2.526,0,0,0,1.01-.7A3.771,3.771,0,0,0,53.848,47a11.892,11.892,0,0,0,.481-1.843l1.226-6.972h1.8a.182.182,0,0,0,.184-.16l.2-1.138c.016-.112-.032-.176-.176-.176H55.811A11.511,11.511,0,0,1,56.14,35.1a1.616,1.616,0,0,1,.385-.585,1.16,1.16,0,0,1,.457-.288,1.909,1.909,0,0,1,.585-.08,2.624,2.624,0,0,1,.457.04c.16.04.232.056.28.072.176.056.192,0,.232-.08l.417-1.154a.143.143,0,0,0-.1-.192,3.212,3.212,0,0,0-.545-.12A3.933,3.933,0,0,0,57.574,32.649ZM18.557,36.72h-.192c-1.771,0-3.013.994-3.013,2.4v.032c0,1.483,1.362,1.971,2.644,2.308l.208.056c.93.265,1.739.489,1.739,1.1v.032c0,.545-.529.962-1.37.962a4.882,4.882,0,0,1-2.492-.665c-.136-.072-.216-.128-.321-.184a.16.16,0,0,0-.256.08l-.385.986c-.056.136.024.168.048.192a5.007,5.007,0,0,0,.537.3,6.109,6.109,0,0,0,2.821.609c1.939,0,3.141-.945,3.141-2.476v-.024c0-1.419-1.362-1.931-2.636-2.308l-.16-.04c-.962-.288-1.787-.537-1.787-1.122v-.024c0-.5.481-.865,1.234-.865a6.04,6.04,0,0,1,2.46.577s.192.112.256-.056c.04-.088.361-.889.393-.978s-.032-.16-.1-.2A5.838,5.838,0,0,0,18.557,36.72Zm8.23,0a8.975,8.975,0,0,0-1.466.128,5.477,5.477,0,0,0-1.691.569.149.149,0,0,0-.04.2l.385.962a.141.141,0,0,0,.176.088.536.536,0,0,0,.088-.048,5.979,5.979,0,0,1,2.388-.513,2.362,2.362,0,0,1,1.354.328c.3.216.449.537.449,1.21v.216c-.473-.064-.905-.1-.905-.1-.224-.016-.5-.032-.849-.032a5.581,5.581,0,0,0-1.346.16,3.8,3.8,0,0,0-1.146.489,2.562,2.562,0,0,0-.793.841,2.327,2.327,0,0,0-.3,1.17,2.555,2.555,0,0,0,.248,1.154,2.209,2.209,0,0,0,.713.8,3.181,3.181,0,0,0,1.114.441,7.369,7.369,0,0,0,1.45.136,10.39,10.39,0,0,0,1.667-.128c.537-.08,1.194-.208,1.378-.248s.377-.1.377-.1a.158.158,0,0,0,.128-.16V39.661a2.714,2.714,0,0,0-.865-2.236A3.953,3.953,0,0,0,26.787,36.72Zm12.87,0a4.587,4.587,0,0,0-1.8.321,3.588,3.588,0,0,0-1.266.9,3.664,3.664,0,0,0-.745,1.314,5.621,5.621,0,0,0-.232,1.627,5.183,5.183,0,0,0,.24,1.611,3.389,3.389,0,0,0,.793,1.29,3.683,3.683,0,0,0,1.378.849,5.676,5.676,0,0,0,1.987.3,6.045,6.045,0,0,0,2.757-.5c.064-.032.12-.088.048-.24l-.361-.929a.152.152,0,0,0-.2-.088A5.843,5.843,0,0,1,40,43.539a2.745,2.745,0,0,1-1.875-.6,2.306,2.306,0,0,1-.633-1.691l5.465.008a.16.16,0,0,0,.16-.136,4.967,4.967,0,0,0-.16-2.188,3.08,3.08,0,0,0-.705-1.186,3.113,3.113,0,0,0-1.034-.729A4.276,4.276,0,0,0,39.656,36.72Zm8.366,0H47.83c-1.779,0-3.013.994-3.013,2.4v.032c0,1.483,1.37,1.971,2.644,2.308l.208.056c.929.265,1.731.489,1.731,1.1v.032c0,.545-.521.962-1.362.962a4.866,4.866,0,0,1-2.492-.665c-.136-.072-.216-.12-.32-.184a.17.17,0,0,0-.256.08l-.385.986a.142.142,0,0,0,.04.192,6.038,6.038,0,0,0,.545.3,6.109,6.109,0,0,0,2.821.609c1.931,0,3.141-.945,3.141-2.476v-.024c0-1.419-1.362-1.931-2.636-2.308l-.16-.04c-.961-.288-1.787-.537-1.787-1.122v-.024c0-.5.481-.865,1.226-.865a6.009,6.009,0,0,1,2.46.577s.192.112.256-.056c.04-.088.361-.889.393-.978s-.024-.16-.088-.2A5.861,5.861,0,0,0,48.022,36.72Zm13.815,0a4.33,4.33,0,0,0-1.731.321,3.385,3.385,0,0,0-1.971,2.18,5.213,5.213,0,0,0-.24,1.611,5.127,5.127,0,0,0,.24,1.6,3.538,3.538,0,0,0,.729,1.306,3.369,3.369,0,0,0,1.242.865,4.477,4.477,0,0,0,1.731.32,4.423,4.423,0,0,0,1.731-.312,3.516,3.516,0,0,0,1.25-.873,3.617,3.617,0,0,0,.729-1.3,5.7,5.7,0,0,0,0-3.221,3.723,3.723,0,0,0-.729-1.306,3.65,3.65,0,0,0-1.25-.873A4.416,4.416,0,0,0,61.837,36.72Zm14.9,0a4.657,4.657,0,0,0-1.795.321,3.666,3.666,0,0,0-1.306.873,3.723,3.723,0,0,0-.785,1.306,4.75,4.75,0,0,0-.256,1.611,4.115,4.115,0,0,0,1.066,2.981,4.294,4.294,0,0,0,3.2,1.114,6.985,6.985,0,0,0,2.284-.377.13.13,0,0,0,.064-.176l-.393-1.018a.159.159,0,0,0-.208-.1,3.636,3.636,0,0,1-.745.2,6.167,6.167,0,0,1-.889.056,2.519,2.519,0,0,1-1.843-.641,2.722,2.722,0,0,1-.7-2.043,3,3,0,0,1,.617-1.971,2.17,2.17,0,0,1,1.795-.737,5.6,5.6,0,0,1,1.707.232.142.142,0,0,0,.184-.1c.144-.369.248-.633.4-1.026a.143.143,0,0,0-.1-.184,7.465,7.465,0,0,0-1.074-.248A9.115,9.115,0,0,0,76.742,36.72Zm7.036,0a4.614,4.614,0,0,0-1.8.321,3.539,3.539,0,0,0-2,2.212,5.361,5.361,0,0,0-.24,1.627,5.182,5.182,0,0,0,.248,1.611,3.294,3.294,0,0,0,.793,1.29,3.622,3.622,0,0,0,1.378.849,5.676,5.676,0,0,0,1.987.3,6.045,6.045,0,0,0,2.757-.5c.056-.032.112-.088.04-.24l-.352-.929a.16.16,0,0,0-.208-.088,5.806,5.806,0,0,1-2.252.377,2.722,2.722,0,0,1-1.867-.6,2.307,2.307,0,0,1-.633-1.691l5.473.008a.164.164,0,0,0,.16-.136,5.344,5.344,0,0,0-.168-2.188,3.182,3.182,0,0,0-.705-1.186,3.135,3.135,0,0,0-1.042-.729A4.243,4.243,0,0,0,83.778,36.72Zm-12.469.008a2.864,2.864,0,0,0-1.41.216,2.429,2.429,0,0,0-.921.649V36.96a.161.161,0,0,0-.16-.16h-1.4a.156.156,0,0,0-.16.16v7.805a.158.158,0,0,0,.168.16h1.434a.151.151,0,0,0,.16-.16v-3.9a4.144,4.144,0,0,1,.192-1.37,1.876,1.876,0,0,1,.473-.769,1.76,1.76,0,0,1,.681-.393,2.765,2.765,0,0,1,.729-.1,3.117,3.117,0,0,1,.6.072.2.2,0,0,0,.2-.144c.1-.24.361-.953.417-1.09a.142.142,0,0,0-.088-.192A4.516,4.516,0,0,0,71.309,36.728ZM39.528,38.066a1.729,1.729,0,0,1,1.53.737A2.386,2.386,0,0,1,41.419,40h-3.9a2.882,2.882,0,0,1,.441-1.194A1.783,1.783,0,0,1,39.528,38.066Zm44.121,0a1.711,1.711,0,0,1,1.531.737A2.391,2.391,0,0,1,85.548,40h-3.9a2.679,2.679,0,0,1,.441-1.194A1.769,1.769,0,0,1,83.649,38.066ZM61.837,38.1a1.787,1.787,0,0,1,1.579.705,3.431,3.431,0,0,1,.513,2.027,3.416,3.416,0,0,1-.521,2.035,2.077,2.077,0,0,1-3.133,0,3.538,3.538,0,0,1-.513-2.035,3.492,3.492,0,0,1,.513-2.027A1.758,1.758,0,0,1,61.837,38.1Zm-34.9,2.917a11.466,11.466,0,0,1,1.491.12v2.3a11.874,11.874,0,0,1-1.475.176,2.6,2.6,0,0,1-1.6-.288.911.911,0,0,1-.312-.3,1.106,1.106,0,0,1-.168-.657,1.088,1.088,0,0,1,.489-.986A2.536,2.536,0,0,1,26.939,41.015Z" transform="translate(-1 -8)" fill="#fff"/>
</svg>
