<svg id="Layer_x0020_1" xmlns="http://www.w3.org/2000/svg" width="66.816" height="66.489" viewBox="0 0 66.816 66.489">
  <path id="id_177" d="M815.53,1055.179c-1.091,0-.811-1.488-.811-2.761a.812.812,0,0,1,1.623,0C816.342,1053.691,816.622,1055.179,815.53,1055.179Z" transform="translate(-782.822 -1010.739)" fill="#fff" fill-rule="evenodd"/>
  <path id="id_178" d="M815.53,571.046c-1.091,0-.811-1.488-.811-2.762a.812.812,0,0,1,1.623,0C816.342,569.56,816.622,571.046,815.53,571.046Z" transform="translate(-782.822 -545.424)" fill="#fff" fill-rule="evenodd"/>
  <path id="id_179" d="M836.2,1246.779a.812.812,0,0,1-.811-.811v-5.03a.811.811,0,0,1,1.623,0v5.03A.811.811,0,0,1,836.2,1246.779Z" transform="translate(-802.713 -1192.034)" fill="#fff" fill-rule="evenodd"/>
  <path id="id_180" d="M461.054,1125.723a.813.813,0,0,1-.573-1.386l3.557-3.557a.811.811,0,0,1,1.147,1.148l-3.557,3.557a.808.808,0,0,1-.574.238Z" transform="translate(-442.292 -1077.024)" fill="#fff" fill-rule="evenodd"/>
  <path id="id_181" d="M310.944,834.933h-5.03a.811.811,0,0,1,0-1.623h5.03A.811.811,0,0,1,310.944,834.933Z" transform="translate(-293.236 -800.878)" fill="#fff" fill-rule="evenodd"/>
  <path id="id_182" d="M464.392,463.118a.807.807,0,0,1-.574-.238l-3.557-3.557a.811.811,0,0,1,1.147-1.147l3.557,3.557a.812.812,0,0,1-.574,1.385Z" transform="translate(-442.074 -440.148)" fill="#fff" fill-rule="evenodd"/>
  <path id="id_183" d="M836.2,309.7a.812.812,0,0,1-.811-.811v-5.03a.811.811,0,0,1,1.623,0v5.03A.811.811,0,0,1,836.2,309.7Z" transform="translate(-802.713 -291.298)" fill="#fff" fill-rule="evenodd"/>
  <path id="id_184" d="M1123.645,463.123a.812.812,0,0,1-.574-1.385l3.557-3.557a.812.812,0,0,1,1.148,1.147l-3.557,3.557a.808.808,0,0,1-.574.238Z" transform="translate(-1078.987 -440.152)" fill="#fff" fill-rule="evenodd"/>
  <path id="id_185" d="M1127,1125.734a.811.811,0,0,1-.574-.238l-3.557-3.557a.812.812,0,0,1,1.148-1.148l3.557,3.557a.813.813,0,0,1-.574,1.386Z" transform="translate(-1078.78 -1077.036)" fill="#fff" fill-rule="evenodd"/>
  <path id="id_186" d="M326.022,344.72a20.961,20.961,0,1,1,21.162-20.96A21.086,21.086,0,0,1,326.022,344.72Zm0-40.4a19.438,19.438,0,1,0,19.625,19.437A19.553,19.553,0,0,0,326.022,304.323Z" transform="translate(-292.531 -290.515)" fill="#fff" fill-rule="evenodd"/>
  <path id="id_187" d="M446.146,461.392a17.306,17.306,0,1,1,17.306-17.306A17.325,17.325,0,0,1,446.146,461.392Zm0-32.989a15.683,15.683,0,1,0,15.682,15.683A15.7,15.7,0,0,0,446.146,428.4Z" transform="translate(-412.66 -410.841)" fill="#fff" fill-rule="evenodd"/>
  <path id="id_188" d="M733.526,625.778h-4.254a.812.812,0,0,1-.811-.811v-8.845a.812.812,0,0,1,.811-.812h4.254a5.234,5.234,0,0,1,0,10.468Zm-3.443-1.623h3.443c4.752,0,4.752-7.223,0-7.223h-3.443Z" transform="translate(-700.122 -591.515)" fill="#fff" fill-rule="evenodd"/>
  <path id="id_189" d="M733.526,843.779h-4.254a.812.812,0,0,1-.811-.811v-8.846a.812.812,0,0,1,.811-.812h4.254a5.235,5.235,0,0,1,0,10.469Zm-3.443-1.623h3.443c4.752,0,4.752-7.223,0-7.223h-3.443Z" transform="translate(-700.122 -801.085)" fill="#fff" fill-rule="evenodd"/>
  <path id="id_190" d="M1248.027,834.933H1243a.811.811,0,0,1,0-1.623h5.03A.811.811,0,0,1,1248.027,834.933Z" transform="translate(-1193.728 -800.878)" fill="#fff" fill-rule="evenodd"/>
  <path id="id_191" d="M829.771,119.188a.812.812,0,0,1-.811-.811v-7.843a.811.811,0,0,1,1.623,0v7.843a.812.812,0,0,1-.811.811Z" transform="translate(-796.535 -105.281)" fill="#fff" fill-rule="evenodd"/>
  <path id="id_192" d="M456.578,114.956a.812.812,0,0,1-.811-.811v-9.492h-5.323a.811.811,0,0,1,0-1.623h6.134a.812.812,0,0,1,.811.811v10.3A.811.811,0,0,1,456.578,114.956Z" transform="translate(-432.135 -98.85)" fill="#fff" fill-rule="evenodd"/>
  <path id="id_193" d="M1071.031,114.956a.812.812,0,0,1-.811-.811v-10.3a.812.812,0,0,1,.811-.811h6.134a.811.811,0,0,1,0,1.623h-5.322v9.492a.812.812,0,0,1-.812.811Z" transform="translate(-1028.497 -98.85)" fill="#fff" fill-rule="evenodd"/>
  <path id="id_194" d="M778.183,6.074c-3.991,0-3.991-6.064,0-6.064S782.174,6.074,778.183,6.074Zm0-4.441a1.409,1.409,0,0,0,0,2.818A1.409,1.409,0,0,0,778.183,1.633Z" transform="translate(-744.946 -0.01)" fill="#fff" fill-rule="evenodd"/>
  <path id="id_195" d="M1225.359,54.374c-3.991,0-3.991-6.064,0-6.064S1229.349,54.374,1225.359,54.374Zm0-4.442a1.409,1.409,0,0,0,0,2.819A1.409,1.409,0,0,0,1225.359,49.932Z" transform="translate(-1174.652 -46.35)" fill="#fff" fill-rule="evenodd"/>
  <path id="id_196" d="M343.873,54.374c-3.991,0-3.991-6.064,0-6.064S347.864,54.374,343.873,54.374Zm0-4.442a1.409,1.409,0,0,0,0,2.819A1.409,1.409,0,0,0,343.873,49.932Z" transform="translate(-327.602 -46.35)" fill="#fff" fill-rule="evenodd"/>
  <path id="id_197" d="M1372.751,830.583h-7.843a.811.811,0,0,1,0-1.623h7.843A.811.811,0,0,1,1372.751,830.583Z" transform="translate(-1311.149 -796.697)" fill="#fff" fill-rule="evenodd"/>
  <path id="id_198" d="M1321.041,457.379h-10.3a.811.811,0,0,1,0-1.623h9.492v-5.323a.812.812,0,0,1,1.623,0v6.134A.811.811,0,0,1,1321.041,457.379Z" transform="translate(-1259.177 -432.207)" fill="#fff" fill-rule="evenodd"/>
  <path id="id_199" d="M1321.041,1077.987a.812.812,0,0,1-.812-.811v-5.323h-9.492a.811.811,0,0,1,0-1.623h10.3a.812.812,0,0,1,.812.811v6.135A.812.812,0,0,1,1321.041,1077.987Z" transform="translate(-1259.177 -1028.753)" fill="#fff" fill-rule="evenodd"/>
  <path id="id_200" d="M1561.133,780.285c-3.99,0-3.991-6.065,0-6.065S1565.124,780.285,1561.133,780.285Zm0-4.442a1.409,1.409,0,0,0,0,2.819A1.409,1.409,0,0,0,1561.133,775.843Z" transform="translate(-1497.311 -744.177)" fill="#fff" fill-rule="evenodd"/>
  <path id="id_201" d="M1512.839,1227.455c-3.991,0-3.991-6.065,0-6.065S1516.829,1227.455,1512.839,1227.455Zm0-4.442a1.409,1.409,0,0,0,0,2.818A1.409,1.409,0,0,0,1512.839,1223.014Z" transform="translate(-1450.975 -1173.995)" fill="#fff" fill-rule="evenodd"/>
  <path id="id_202" d="M1512.839,345.984c-3.991,0-3.991-6.064,0-6.064S1516.829,345.984,1512.839,345.984Zm0-4.441a1.409,1.409,0,0,0,0,2.818A1.409,1.409,0,0,0,1512.839,341.542Z" transform="translate(-1450.975 -326.73)" fill="#fff" fill-rule="evenodd"/>
  <path id="id_203" d="M838.511,1373.582a.812.812,0,0,1-.812-.812v-7.843a.812.812,0,0,1,1.623,0v7.843A.812.812,0,0,1,838.511,1373.582Z" transform="translate(-804.933 -1311.534)" fill="#fff" fill-rule="evenodd"/>
  <path id="id_204" d="M1073.026,1321.842h-6.134a.812.812,0,0,1-.811-.812v-10.3a.812.812,0,0,1,1.623,0v9.492h5.322A.812.812,0,0,1,1073.026,1321.842Z" transform="translate(-1024.519 -1259.532)" fill="#fff" fill-rule="evenodd"/>
  <path id="id_205" d="M452.438,1321.842H446.3a.812.812,0,0,1,0-1.623h5.323v-9.492a.811.811,0,0,1,1.623,0v10.3A.811.811,0,0,1,452.438,1321.842Z" transform="translate(-428.157 -1259.532)" fill="#fff" fill-rule="evenodd"/>
  <path id="id_206" d="M786.923,1563.215c-3.991,0-3.991-6.065,0-6.065S790.914,1563.215,786.923,1563.215Zm0-4.441a1.409,1.409,0,0,0,0,2.818A1.409,1.409,0,0,0,786.923,1558.774Z" transform="translate(-753.345 -1496.726)" fill="#fff" fill-rule="evenodd"/>
  <path id="id_207" d="M339.743,1514.936c-3.991,0-3.991-6.066,0-6.066S343.734,1514.936,339.743,1514.936Zm0-4.442a1.409,1.409,0,0,0,0,2.818A1.409,1.409,0,0,0,339.743,1510.494Z" transform="translate(-323.633 -1450.405)" fill="#fff" fill-rule="evenodd"/>
  <path id="id_208" d="M1221.219,1514.936c-3.991,0-3.991-6.066,0-6.066S1225.21,1514.936,1221.219,1514.936Zm0-4.442a1.409,1.409,0,0,0,0,2.818A1.409,1.409,0,0,0,1221.219,1510.494Z" transform="translate(-1170.674 -1450.405)" fill="#fff" fill-rule="evenodd"/>
  <path id="id_209" d="M118.377,839.323h-7.843a.812.812,0,0,1,0-1.623h7.843A.812.812,0,0,1,118.377,839.323Z" transform="translate(-105.32 -805.097)" fill="#fff" fill-rule="evenodd"/>
  <path id="id_210" d="M103.851,1073.847a.812.812,0,0,1-.811-.811V1066.9a.812.812,0,0,1,.811-.811h10.3a.811.811,0,0,1,0,1.623h-9.492v5.322A.812.812,0,0,1,103.851,1073.847Z" transform="translate(-98.899 -1024.773)" fill="#fff" fill-rule="evenodd"/>
  <path id="id_211" d="M114.155,453.24h-10.3a.812.812,0,0,1-.811-.811v-6.134a.811.811,0,0,1,1.623,0v5.323h9.492A.811.811,0,0,1,114.155,453.24Z" transform="translate(-98.899 -428.227)" fill="#fff" fill-rule="evenodd"/>
  <path id="id_212" d="M3.967,789.025c-3.99,0-3.991-6.065,0-6.065S7.958,789.025,3.967,789.025Zm0-4.442a1.409,1.409,0,0,0,0,2.818A1.409,1.409,0,0,0,3.967,784.583Z" transform="translate(-0.974 -752.578)" fill="#fff" fill-rule="evenodd"/>
  <path id="id_213" d="M52.263,341.854c-3.991,0-3.991-6.064,0-6.064S56.254,341.854,52.263,341.854Zm0-4.442a1.409,1.409,0,0,0,0,2.818A1.409,1.409,0,0,0,52.263,337.412Z" transform="translate(-47.311 -322.76)" fill="#fff" fill-rule="evenodd"/>
  <path id="id_214" d="M52.263,1223.335c-3.99,0-3.991-6.065,0-6.065S56.253,1223.335,52.263,1223.335Zm0-4.441a1.409,1.409,0,0,0,0,2.818A1.409,1.409,0,0,0,52.263,1218.893Z" transform="translate(-47.311 -1170.035)" fill="#fff" fill-rule="evenodd"/>
</svg>
