<svg xmlns="http://www.w3.org/2000/svg" width="40" height="40" viewBox="0 0 40 40">
  <g id="LINKED_IN-01" data-name="LINKED IN-01" transform="translate(-53.18 -40.22)">
    <circle id="Ellipse_169" data-name="Ellipse 169" cx="20" cy="20" r="20" transform="translate(53.18 40.22)" fill="#4467ad"/>
    <g id="Group_306" data-name="Group 306" transform="translate(60.83 46.817)">
      <path id="Path_945" data-name="Path 945" d="M518.617,446.2c.35-.393.638-.793,1-1.132a5.476,5.476,0,0,1,3.939-1.554,9.128,9.128,0,0,1,2.477.3,4.841,4.841,0,0,1,3.438,3.615,15.146,15.146,0,0,1,.458,4.142c.005,2.944-.009,5.888,0,8.833,0,.276-.077.348-.348.346q-2.275-.019-4.551,0c-.267,0-.325-.08-.324-.332q.013-4.2,0-8.4a7.563,7.563,0,0,0-.244-2.086,2.346,2.346,0,0,0-2.58-1.828,2.82,2.82,0,0,0-2.963,2.815,10.439,10.439,0,0,0-.08,1.314c0,2.724,0,5.449.007,8.174,0,.272-.067.352-.345.349q-2.292-.02-4.583,0c-.245,0-.316-.064-.315-.312q.01-8.092,0-16.183c0-.267.087-.329.339-.327q2.176.016,4.353,0c.267,0,.336.084.33.337-.015.645-.005,1.29-.005,1.934Z" transform="translate(-504.667 -435.562)" fill="#fefefe"/>
      <path id="Path_946" data-name="Path 946" d="M299.948,462.576c0,2.669,0,5.337.006,8.006,0,.3-.073.386-.38.383-1.516-.017-3.032-.013-4.549,0-.243,0-.316-.059-.316-.31q.011-8.1,0-16.209c0-.224.054-.3.292-.3,1.538.01,3.076.013,4.614,0,.3,0,.336.112.335.365Q299.941,458.54,299.948,462.576Z" transform="translate(-294.309 -445.773)" fill="#fefefe"/>
      <path id="Path_947" data-name="Path 947" d="M290.477,242.513a3.029,3.029,0,1,1-3.023-3.013A3.038,3.038,0,0,1,290.477,242.513Z" transform="translate(-284.42 -239.5)" fill="#fefefe"/>
    </g>
  </g>
</svg>
