<svg xmlns="http://www.w3.org/2000/svg" width="85.533" height="85.513" viewBox="0 0 85.533 85.513">
  <g id="mobility1-01" transform="translate(-58.42 -70.73)">
    <path id="Path_793" data-name="Path 793" d="M204.776,76.875a6.555,6.555,0,0,0-6.165-6.145q-30.454.03-60.909.011h-.971v2.572h1.118q29.66,0,59.322.016a6.686,6.686,0,0,1,2.337.355c2.069.786,2.679,2.54,2.679,4.561q.017,26.479,0,52.96c0,.991-.076,1.987-.17,2.973a3.731,3.731,0,0,1-2.6,2.969v-1.085q0-20.258,0-40.513a6.391,6.391,0,0,0-6.114-6.092c-9.219,0-18.438.02-27.655-.013a6.569,6.569,0,0,0-6.255,6.228q.044,27.108.013,54.215a5.9,5.9,0,0,0,2.721,5.1,21.271,21.271,0,0,0,2.411,1.261h29.749c.1-.071.183-.185.29-.21a6.613,6.613,0,0,0,4.862-6.235c-.1-2.947-.013-5.9-.029-8.853,0-.556.083-.839.748-1.027a6.562,6.562,0,0,0,4.623-6.074q-.044-28.485-.007-56.969ZM164.122,92.689a6.542,6.542,0,0,1,2.592-.634q12.7-.067,25.4-.013c2.362.007,3.864,1,4.456,3.009a7.412,7.412,0,0,1,.145,1.087c-2.605,0-5.054.04-7.5-.011-1.772-.038-1.69.509-1.877,1.768-.263,1.775-.7,2.3-2.424,2.272-3.759-.056-7.52-.033-11.28-.011-1.672.011-1.759-.531-2.121-1.931a7.622,7.622,0,0,1-.17-1.054c-.092-.8-.574-1.045-1.319-1.038-2.284.016-4.567,0-6.851,0h-.888a3.164,3.164,0,0,1,1.835-3.449Zm-2.087,6.027c2.156,0,4.266-.016,6.373.027.181,0,.4.35.525.576a26.984,26.984,0,0,0,1.426,2.551,2.386,2.386,0,0,0,2.051.862c4.594-.02,9.19-.009,13.784-.009a3.5,3.5,0,0,0,3.355-2.337,2.34,2.34,0,0,1,2.4-1.674h4.824v46.824H162.035Zm31.144,54.737c-.879.063-1.759.158-2.641.158q-11.82.02-23.642,0a5.2,5.2,0,0,1-3.13-.826c-1.572-1.125-1.766-2.77-1.786-4.563h34.725c.507,2.415-.987,5.056-3.527,5.232Z" transform="translate(-60.829 0)" fill="#fff"/>
    <path id="Path_794" data-name="Path 794" d="M95.757,148.267v2.558c-.279.013-.547.04-.815.04q-6.144,0-12.284,0c-1.172,0-1.455-.288-1.458-1.471,0-.917,0-1.837,0-2.757a3.561,3.561,0,0,1,2.176-3.342,1.32,1.32,0,0,0,.886-1.118,17.1,17.1,0,0,1,.5-2.007h-1.1c-6.266,0-12.534-.047-18.8.022a6.661,6.661,0,0,1-6.235-4.862c-.025-.107-.138-.194-.21-.29V75.892a22.468,22.468,0,0,1,1.261-2.413,5.965,5.965,0,0,1,5.1-2.717c.942-.011,1.886,0,2.889,0v2.484c-1.011.083-2.045.181-3.081.252a3.874,3.874,0,0,0-3.364,3.219,22.334,22.334,0,0,0-.174,2.891q-.017,23.057-.007,46.114v1.147H95.739v2.6H61.065c0,1.862-.259,3.668.337,5.4a3.6,3.6,0,0,0,3.217,2.556c1.1.109,2.205.167,3.308.17q13.37.02,26.74.007h1.069v2.574H91.408c-1.029,0-2.06.027-3.092-.009a.733.733,0,0,0-.882.725c-.1.643-.306,1.268-.5,2.02h8.815v2.612h-.886q-4.346,0-8.69,0c-1.971,0-2.538.634-2.348,2.746Z" transform="translate(0 -0.022)" fill="#fff"/>
    <path id="Path_795" data-name="Path 795" d="M114.532,107.837a.991.991,0,0,0-1.085-1.085c-.529-.013-1.063.033-1.587-.022a.91.91,0,0,1-.636-.371c-.866-1.7-.855-1.705.482-3.127.018-.02.04-.038.06-.058a1.3,1.3,0,0,0-.016-1.98q-1.838-1.882-3.721-3.721a1.283,1.283,0,0,0-1.922-.011c-.348.319-.647.7-1.018.987a.915.915,0,0,1-.714.183c-1.862-.594-1.857-.607-1.873-2.534,0-.083,0-.167,0-.25a1.017,1.017,0,0,0-1.132-1.127q-2.839-.01-5.681,0a1.012,1.012,0,0,0-1.107,1.147c0,.5.027,1-.016,1.5a.919.919,0,0,1-.275.634c-1.3.857-1.982.77-3.094-.326l-.06-.06a1.352,1.352,0,0,0-2.219-.016c-1.011,1-2.011,2.007-3.016,3.011-1.424,1.424-1.422,1.71.022,3.165a2.5,2.5,0,0,1,.451.487.871.871,0,0,1,.1.594c-.578,1.877-.585,1.875-2.531,1.886-1.1.009-1.4.308-1.4,1.447,0,1.364.016,2.728,0,4.092-.033,2.25-.06,2.458,2.389,2.393.284-.007.728.036.824.208a4.859,4.859,0,0,1,.734,1.891c.027.357-.549.757-.846,1.143s-.6.8-.946,1.255a7.562,7.562,0,0,0,.73,1.134c.882.929,1.819,1.8,2.705,2.73,1.426,1.489,1.92,2.072,3.7.063a.716.716,0,0,1,.246-.221,1.112,1.112,0,0,1,.6-.118c1.9.547,1.9.554,1.9,2.516v.167c.018.9.35,1.246,1.255,1.252,1.449.009,2.9,0,4.346,0,2.313,0,2.344,0,2.3-2.279-.013-.708.29-.931.866-1.255a1.768,1.768,0,0,1,2.625.659.988.988,0,0,0,.116.121,1.293,1.293,0,0,0,1.924.013q1.915-1.862,3.779-3.779a1.279,1.279,0,0,0-.018-1.92c-.319-.348-.7-.647-.987-1.018a.909.909,0,0,1-.158-.719c.625-1.842.636-1.837,2.545-1.855.083,0,.167,0,.25,0a.993.993,0,0,0,1.1-1.067q.023-2.883,0-5.764Zm-2.618,4.259c-.525,0-1.042.033-1.556-.009-.835-.065-1.23.31-1.476,1.1a21,21,0,0,1-1.174,2.866c-.563,1.172-.556,1.435.391,2.371.237.232.513.426.768.634-.685.67-1.266,1.239-2.094,2.047-.174-.268-.379-.634-.636-.962a1.48,1.48,0,0,0-2.029-.382c-1.085.507-2.205.935-3.328,1.355a1.148,1.148,0,0,0-.855,1.241c.022.549,0,1.1,0,1.71H97.154c0-.578-.013-1.176,0-1.772a1.116,1.116,0,0,0-.835-1.174c-1.118-.426-2.241-.85-3.326-1.355a1.488,1.488,0,0,0-2.036.362c-.259.326-.48.681-.755,1.078-.772-.808-1.319-1.382-2.105-2.205.366-.268.786-.54,1.161-.859a1.239,1.239,0,0,0,.362-1.542c-.531-1.284-1.013-2.592-1.612-3.844a1.544,1.544,0,0,0-1.02-.632,10.459,10.459,0,0,0-1.828-.027v-2.775c.614,0,1.19-.016,1.763,0a1.121,1.121,0,0,0,1.194-.813c.44-1.141.862-2.295,1.377-3.4a1.451,1.451,0,0,0-.362-1.964c-.321-.263-.665-.5-1.083-.808.795-.71,1.388-1.237,2.058-1.835.243.228.6.525.909.864a1.41,1.41,0,0,0,1.761.382c1.179-.5,2.373-.96,3.549-1.467a1.174,1.174,0,0,0,.833-1.27c-.051-.522-.011-1.051-.011-1.65h2.777c0,.6.009,1.208,0,1.81a1.092,1.092,0,0,0,.8,1.116c1.141.446,2.295.866,3.406,1.377a1.459,1.459,0,0,0,1.967-.35c.263-.321.507-.661.83-1.083l1.8,2.065c-.225.241-.545.612-.9.946a1.35,1.35,0,0,0-.366,1.623c.516,1.261.993,2.54,1.583,3.768a1.538,1.538,0,0,0,1,.659,10.429,10.429,0,0,0,1.857.029V112.1Z" transform="translate(-18.733 -18.631)" fill="#fff"/>
    <path id="Path_796" data-name="Path 796" d="M163.07,235.01c0,.621-.033,1.165.009,1.705a1.225,1.225,0,0,1-.955,1.337c-1.089.424-2.185.846-3.241,1.348a1.489,1.489,0,0,1-2.031-.391c-.246-.3-.482-.612-.708-.9-.714.705-1.29,1.277-2.112,2.089a5.488,5.488,0,0,1,.931.609c.864.821.873,1.147.366,2.232a23.008,23.008,0,0,0-1.212,2.94,1.284,1.284,0,0,1-1.482,1.089c-.493-.036-.991-.007-1.563-.007v3.944h-2.6c0-1.875-.045-3.732.04-5.585.013-.321.547-.638.877-.913.1-.083.324-.018.491-.018,1.947-.011,1.955-.009,2.52-1.9a.954.954,0,0,0-.109-.594,1.48,1.48,0,0,0-.337-.366c-1.6-1.623-1.6-1.813-.011-3.4.964-.964,1.924-1.933,2.9-2.891a1.353,1.353,0,0,1,2.219.016l.058.06c1.123,1.107,1.761,1.188,3.089.328a.908.908,0,0,0,.281-.63c.042-.5.013-1,.013-1.5a1.014,1.014,0,0,1,1.1-1.156c1.779-.011,3.56,0,5.442,0v2.549H163.07Z" transform="translate(-69.939 -125.626)" fill="#fff"/>
    <rect id="Rectangle_263" data-name="Rectangle 263" width="17.173" height="2.482" transform="translate(114.691 76.132)" fill="#fff"/>
    <path id="Path_797" data-name="Path 797" d="M197.055,274.6v2.534a4.093,4.093,0,0,0-3.873,3.909h-2.54c-.755-2.92,3.02-7.025,6.413-6.442Z" transform="translate(-102.631 -158.314)" fill="#fff"/>
    <rect id="Rectangle_264" data-name="Rectangle 264" width="7.811" height="2.467" transform="translate(69.235 132.284)" fill="#fff"/>
    <rect id="Rectangle_265" data-name="Rectangle 265" width="2.61" height="2.5" transform="translate(70.568 70.761)" fill="#fff"/>
    <rect id="Rectangle_266" data-name="Rectangle 266" width="2.5" height="2.442" transform="translate(134.727 76.159)" fill="#fff"/>
    <rect id="Rectangle_267" data-name="Rectangle 267" width="2.471" height="2.471" transform="translate(63.882 132.282)" fill="#fff"/>
    <path id="Path_798" data-name="Path 798" d="M291.4,252.871c.2-8.15-6.57-14.168-13.5-14.615a14.722,14.722,0,1,0-2.147,29.365C284.869,268.187,291.794,260.575,291.4,252.871Zm-2.71.879c-.326,5.688-5.482,11.28-11.84,11.09-6.206.362-12.6-5.362-12.045-12.8a11.973,11.973,0,0,1,23.885,1.712Z" transform="translate(-158.163 -130.103)" fill="#fff"/>
    <rect id="Rectangle_268" data-name="Rectangle 268" width="10.489" height="2.478" transform="translate(113.327 94.849)" fill="#fff"/>
    <rect id="Rectangle_269" data-name="Rectangle 269" width="10.483" height="2.469" transform="translate(113.329 149.66)" fill="#fff"/>
    <path id="Path_799" data-name="Path 799" d="M131.333,136.351a6.9,6.9,0,0,0-7.137,6.36c-.183,4,3.344,7.291,6.643,6.965,3.679.337,6.581-3.176,6.748-6.177A6.888,6.888,0,0,0,131.333,136.351Zm3.473,7.13a.111.111,0,0,1,0,.029.786.786,0,0,1-.011.123,2.692,2.692,0,0,1-.067.371,1.256,1.256,0,0,1-.033.123,2.729,2.729,0,0,1-.154.413,3.508,3.508,0,0,1-.163.315,3.276,3.276,0,0,1-.2.308,2.307,2.307,0,0,1-.147.192q-.07.087-.147.174c-.034.04-.069.078-.107.116a1.923,1.923,0,0,1-.152.15c-.047.045-.094.089-.143.132s-.1.085-.15.125-.083.067-.125.1c-.063.047-.127.094-.194.138-.051.034-.1.069-.158.1-.038.025-.078.047-.118.069a4.2,4.2,0,0,1-.571.277c-.04.016-.08.031-.121.045s-.06.022-.092.031a.978.978,0,0,1-.107.033.473.473,0,0,1-.069.02c-.058.018-.118.031-.176.045a1.644,1.644,0,0,1-.176.036c-.058.011-.114.018-.17.025s-.1.011-.145.013l-.116.007c-.047,0-.094,0-.138,0s-.094,0-.143,0l-.067-.007c-.056,0-.114-.011-.17-.02s-.129-.02-.194-.033a.045.045,0,0,1-.022,0q-.094-.02-.187-.047c-.051-.013-.1-.029-.156-.047s-.1-.033-.154-.054-.123-.047-.183-.074a3.722,3.722,0,0,1-.4-.2,1.161,1.161,0,0,1-.134-.078,3.3,3.3,0,0,1-.284-.19c-.042-.027-.08-.058-.121-.089-.065-.049-.127-.1-.19-.154s-.1-.092-.156-.141c-.067-.06-.129-.125-.19-.19s-.1-.1-.147-.161-.1-.118-.15-.179-.078-.1-.116-.156-.076-.1-.112-.161c-.054-.08-.1-.163-.15-.248-.031-.051-.058-.1-.085-.156s-.054-.1-.076-.158a.95.95,0,0,1-.047-.109q-.04-.09-.074-.187a1.438,1.438,0,0,1-.056-.165A3.668,3.668,0,0,1,127,143.6a1.822,1.822,0,0,1-.029-.187,2.636,2.636,0,0,1-.025-.42q0-.067.007-.134a.148.148,0,0,0,0-.031,1.427,1.427,0,0,1,.018-.167,1.092,1.092,0,0,1,.027-.167,1.646,1.646,0,0,1,.036-.17c.013-.056.029-.112.045-.17a1.635,1.635,0,0,1,.056-.167,1.731,1.731,0,0,1,.063-.17,4.309,4.309,0,0,1,.643-1.107c.042-.056.085-.109.129-.161.085-.1.179-.2.275-.292.065-.062.132-.125.2-.185a2.651,2.651,0,0,1,.212-.172l.089-.067c.069-.051.141-.1.214-.145.049-.031.1-.062.152-.092s.1-.06.158-.087.121-.06.183-.087c0,0,0,0,.009,0a.2.2,0,0,1,.045-.02.012.012,0,0,1,.011,0,.327.327,0,0,1,.065-.027,1.943,1.943,0,0,1,.217-.08c.051-.018.1-.034.152-.047.116-.033.237-.06.357-.083s.239-.033.359-.042h.011a3.3,3.3,0,0,1,.333,0l.114.007a4.253,4.253,0,0,1,.54.078c.058.011.114.025.17.038.074.018.145.038.217.06s.118.038.176.06h0c.054.018.1.038.156.06a1.593,1.593,0,0,1,.154.067c.051.022.1.047.15.071l.087.045c.069.038.134.076.2.118a1.4,1.4,0,0,1,.121.078,3.809,3.809,0,0,1,.634.534,3.362,3.362,0,0,1,.232.27,3.122,3.122,0,0,1,.208.292,3.569,3.569,0,0,1,.261.482s0,0,0,0a3.058,3.058,0,0,1,.134.344c.04.118.076.239.1.364a1.368,1.368,0,0,1,.04.19,4.312,4.312,0,0,1,.074.806,2.155,2.155,0,0,1,.016.4A0,0,0,0,1,134.806,143.481Z" transform="translate(-51.088 -50.964)" fill="#fff"/>
    <path id="Path_800" data-name="Path 800" d="M310.542,279.924l-9.668,9.663-4.324-4.324c.1-.089.212-.183.324-.279.415-.359.886-.766,1.467-1.266l.147-.127h0l0,0c.047.056.1.121.145.188s.109.138.165.214c.033.045.069.089.1.136s.092.116.141.176.087.107.134.161c.092.107.188.214.288.317a1.8,1.8,0,0,0,2.835.009c2-1.98,3.98-3.973,5.969-5.96.194-.192.393-.375.627-.6h0c.074.076.147.152.219.228l1.422,1.467Z" transform="translate(-184.973 -161.181)" fill="#fff"/>
  </g>
</svg>
