<svg xmlns="http://www.w3.org/2000/svg" xmlns:xlink="http://www.w3.org/1999/xlink" width="178.53" height="61.636" viewBox="0 0 178.53 61.636">
  <defs>
    <linearGradient id="linear-gradient" y1="0.502" x2="1.002" y2="0.502" gradientUnits="objectBoundingBox">
      <stop offset="0" stop-color="#2b7cae"/>
      <stop offset="1" stop-color="#2396d1"/>
    </linearGradient>
    <linearGradient id="linear-gradient-2" x1="0.001" y1="0.5" x2="1.001" y2="0.5" xlink:href="#linear-gradient"/>
    <linearGradient id="linear-gradient-3" x1="0" y1="0.501" x2="0.999" y2="0.501" xlink:href="#linear-gradient"/>
  </defs>
  <g id="nunc_sys_logo" transform="translate(-8.6 -9.9)">
    <g id="Group_1" data-name="Group 1" transform="translate(8.6 10.03)">
      <path id="Path_16" data-name="Path 16" d="M33.267,11.4V54.552h-9.7L17.842,34.961V54.552H8.6V11.4h9.242l6.183,19.461V11.4Z" transform="translate(-8.6 -10.554)" fill="#179bd7"/>
      <path id="Path_17" data-name="Path 17" d="M78.418,11.4V40.233a52.994,52.994,0,0,1-.325,6.9,9.587,9.587,0,0,1-1.887,4.1,10.017,10.017,0,0,1-4.1,3.189,15.357,15.357,0,0,1-5.988,1.106,16.419,16.419,0,0,1-6.7-1.3,10.106,10.106,0,0,1-4.361-3.319,8.644,8.644,0,0,1-1.692-4.361c-.2-1.5-.26-4.686-.26-9.568V11.4H64.165V43.748a12.541,12.541,0,0,0,.325,3.58,1.169,1.169,0,0,0,1.237.781,1.257,1.257,0,0,0,1.367-.846,16.391,16.391,0,0,0,.325-4.1V11.4Z" transform="translate(-24.137 -10.554)" fill="#179bd7"/>
      <path id="Path_18" data-name="Path 18" d="M123.333,11.4V54.552h-9.7l-5.728-19.591V54.552H98.6V11.4h9.242l6.183,19.461V11.4Z" transform="translate(-40.023 -10.554)" fill="#179bd7"/>
      <path id="Path_19" data-name="Path 19" d="M169.1,29.756H158.035v-7.55a16.011,16.011,0,0,0-.326-4.1,1.574,1.574,0,0,0-1.562-.781,1.677,1.677,0,0,0-1.757.976A14.467,14.467,0,0,0,154,22.6V42.643a13.473,13.473,0,0,0,.391,4.1,1.844,1.844,0,0,0,3.254,0,15.5,15.5,0,0,0,.391-4.491v-5.4H169.1v1.692a35.246,35.246,0,0,1-.911,9.5,9.7,9.7,0,0,1-4.1,4.881,13.808,13.808,0,0,1-7.875,2.083,16.2,16.2,0,0,1-8.006-1.757,8.6,8.6,0,0,1-4.165-4.947c-.716-2.083-1.041-5.272-1.041-9.5V26.176a58.032,58.032,0,0,1,.325-6.964,9.672,9.672,0,0,1,1.888-4.491,10.014,10.014,0,0,1,4.361-3.384,15.079,15.079,0,0,1,6.378-1.237,15.92,15.92,0,0,1,8.071,1.887,9.052,9.052,0,0,1,4.166,4.751,29.719,29.719,0,0,1,.976,8.917v4.1Z" transform="translate(-55.525 -10.1)" fill="#179bd7"/>
    </g>
    <g id="Group_2" data-name="Group 2" transform="translate(124.713 9.9)">
      <path id="Path_20" data-name="Path 20" d="M187,81.747c2.343-3.254,6.118-7.94,9.958-13.147l12.562,8.591-11.781,14.84Z" transform="translate(-187 -30.395)" fill="url(#linear-gradient)"/>
      <path id="Path_21" data-name="Path 21" d="M206.9,56.224A85.662,85.662,0,0,1,221.089,42.1c5.012,2.278,10.8,4.556,16.4,6.9a112.253,112.253,0,0,0-17.183,15.425C216.077,61.951,211.651,59.218,206.9,56.224Z" transform="translate(-193.948 -21.142)" fill="url(#linear-gradient-2)"/>
      <path id="Path_22" data-name="Path 22" d="M234.6,32.944A68.964,68.964,0,0,1,249.179,22.4c6.118,2.343,11.781,4.751,16.857,7.225a67.955,67.955,0,0,0-15.816,10.153Z" transform="translate(-203.619 -14.264)" fill="url(#linear-gradient-3)"/>
      <path id="Path_23" data-name="Path 23" d="M189.3,46.75,200.56,35.1l10.934,3.58a100.876,100.876,0,0,0-13.408,13.8Z" transform="translate(-187.803 -18.698)" fill="#5f6060"/>
      <path id="Path_24" data-name="Path 24" d="M211.8,25.528,224.622,15.7l13.212,3.515c-4.1,3.124-9.958,6.053-14.644,10.088Z" transform="translate(-195.659 -11.925)" fill="#5f6060"/>
      <path id="Path_25" data-name="Path 25" d="M202.652,22.917,193.8,19.728,205.06,9.9l9.893,2.994A146.839,146.839,0,0,0,202.652,22.917Z" transform="translate(-189.374 -9.9)" fill="#959592"/>
    </g>
    <g id="Group_3" data-name="Group 3" transform="translate(9.446 59.56)">
      <path id="Path_26" data-name="Path 26" d="M13.675,90.506a2.549,2.549,0,0,0-.846-.13,1.465,1.465,0,0,0,.065,2.929,3.392,3.392,0,0,0,.911-.13l.13.911a3.57,3.57,0,0,1-1.367.2A2.367,2.367,0,0,1,9.9,91.873c0-1.432,1.041-2.473,2.864-2.473a2.926,2.926,0,0,1,1.172.2Z" transform="translate(-9.9 -87.317)" fill="#6d6e71"/>
      <path id="Path_27" data-name="Path 27" d="M20.9,88.869a1.775,1.775,0,0,1,1.5-.651c.976,0,1.757.586,1.757,2.018v2.8h-1.5V90.3c0-.586-.2-1.041-.846-1.041a.846.846,0,0,0-.911.911v2.864H19.4V86.2h1.5v2.669Z" transform="translate(-13.217 -86.2)" fill="#6d6e71"/>
      <path id="Path_28" data-name="Path 28" d="M35.342,91.708a2.378,2.378,0,0,1-2.6,2.473A2.325,2.325,0,0,1,30.2,91.773,2.392,2.392,0,0,1,32.8,89.3,2.326,2.326,0,0,1,35.342,91.708Zm-2.538-1.5c-.781,0-1.106.846-1.106,1.562,0,.846.391,1.562,1.106,1.562s1.041-.716,1.041-1.562C33.845,90.992,33.584,90.211,32.8,90.211Z" transform="translate(-16.988 -87.282)" fill="#6d6e71"/>
      <path id="Path_29" data-name="Path 29" d="M46.442,91.708a2.378,2.378,0,0,1-2.6,2.473A2.325,2.325,0,0,1,41.3,91.773,2.392,2.392,0,0,1,43.9,89.3,2.326,2.326,0,0,1,46.442,91.708Zm-2.6-1.5c-.781,0-1.106.846-1.106,1.562,0,.846.391,1.562,1.106,1.562s1.041-.716,1.041-1.562C44.945,90.992,44.619,90.211,43.838,90.211Z" transform="translate(-20.863 -87.282)" fill="#6d6e71"/>
      <path id="Path_30" data-name="Path 30" d="M52.56,93.045a3.463,3.463,0,0,0,1.3.325c.521,0,.781-.2.781-.456s-.2-.456-.781-.651c-1.041-.325-1.432-.846-1.432-1.367,0-.846.781-1.5,2.018-1.5a3.632,3.632,0,0,1,1.367.26l-.26.911a2.452,2.452,0,0,0-1.041-.26c-.456,0-.716.2-.716.456s.2.391.846.651c.911.325,1.367.781,1.367,1.432,0,.911-.781,1.5-2.148,1.5a3.7,3.7,0,0,1-1.562-.325Z" transform="translate(-24.704 -87.317)" fill="#6d6e71"/>
      <path id="Path_31" data-name="Path 31" d="M62.281,87.8c-.456,0-.781-.26-.781-.651a.794.794,0,0,1,1.562,0C63.062,87.541,62.737,87.8,62.281,87.8Zm.716.651V93.2H61.5V88.453Z" transform="translate(-27.916 -86.305)" fill="#6d6e71"/>
      <path id="Path_32" data-name="Path 32" d="M69.167,90.116a2.022,2.022,0,0,1,1.627-.716,1.716,1.716,0,0,1,1.822,1.953v2.864h-1.5V91.483c0-.586-.2-1.041-.846-1.041a.9.9,0,0,0-.911.976v2.8h-1.5V90.9a10.076,10.076,0,0,0-.065-1.432h1.237l.13.651Z" transform="translate(-30.115 -87.317)" fill="#6d6e71"/>
      <path id="Path_33" data-name="Path 33" d="M82.375,89.5h1.3c0,.325-.065.781-.065,1.432V93.6c0,.911-.13,2.669-2.8,2.669a4.7,4.7,0,0,1-1.757-.325l.26-.976a3.877,3.877,0,0,0,1.432.325c.846,0,1.367-.39,1.367-1.3v-.325h0a1.6,1.6,0,0,1-1.367.586A2.156,2.156,0,0,1,78.6,91.973,2.278,2.278,0,0,1,80.878,89.5a1.408,1.408,0,0,1,1.367.651h0Zm-.2,1.822a.946.946,0,0,0-.911-.976c-.651,0-1.106.586-1.106,1.5,0,.846.391,1.367,1.106,1.367a.9.9,0,0,0,.911-.976Z" transform="translate(-33.886 -87.352)" fill="#6d6e71"/>
      <path id="Path_34" data-name="Path 34" d="M96.932,90.211A1.539,1.539,0,0,1,98.3,89.3h.325v1.172h-.391a1.093,1.093,0,0,0-1.172,1.172v2.473h-1.5V90.862a10.559,10.559,0,0,0-.065-1.5h1.237l.2.846Z" transform="translate(-39.787 -87.282)" fill="#6d6e71"/>
      <path id="Path_35" data-name="Path 35" d="M104.281,87.8c-.456,0-.781-.26-.781-.651a.794.794,0,0,1,1.562,0C105.062,87.541,104.737,87.8,104.281,87.8Zm.716.651V93.2h-1.5V88.453Z" transform="translate(-42.58 -86.305)" fill="#6d6e71"/>
      <path id="Path_36" data-name="Path 36" d="M113.075,89.5h1.3c0,.325-.065.781-.065,1.432V93.6c0,.911-.13,2.669-2.8,2.669a4.7,4.7,0,0,1-1.757-.325l.26-.976a3.877,3.877,0,0,0,1.432.325c.846,0,1.367-.39,1.367-1.3v-.325h0a1.6,1.6,0,0,1-1.367.586,2.156,2.156,0,0,1-2.148-2.278,2.278,2.278,0,0,1,2.278-2.473,1.408,1.408,0,0,1,1.367.651h0Zm-.2,1.822a.946.946,0,0,0-.911-.976c-.651,0-1.106.586-1.106,1.5,0,.846.391,1.367,1.106,1.367a.9.9,0,0,0,.911-.976Z" transform="translate(-44.605 -87.352)" fill="#6d6e71"/>
      <path id="Path_37" data-name="Path 37" d="M122.6,88.869a1.775,1.775,0,0,1,1.5-.651c.976,0,1.757.586,1.757,2.018v2.8h-1.5V90.3c0-.586-.2-1.041-.846-1.041a.846.846,0,0,0-.911.911v2.864h-1.5V86.2h1.5v2.669Z" transform="translate(-48.725 -86.2)" fill="#6d6e71"/>
      <path id="Path_38" data-name="Path 38" d="M132.281,88.837V87.99l1.432-.39v1.237h1.237v.911h-1.237v2.018c0,.586.2.781.651.781a.966.966,0,0,0,.456-.065v.976a3.529,3.529,0,0,1-.976.13,1.475,1.475,0,0,1-1.627-1.692V89.748H131.5v-.911Z" transform="translate(-52.356 -86.689)" fill="#6d6e71"/>
      <path id="Path_39" data-name="Path 39" d="M150.948,89.5h1.432l-1.627,4.751h-1.3l-.586-1.822a8.568,8.568,0,0,1-.325-1.5h0a8.311,8.311,0,0,1-.391,1.5l-.586,1.822h-1.3L144.7,89.5h1.5l.456,2.083c.13.521.2,1.041.325,1.5h0c.13-.521.26-1.041.391-1.5l.586-2.083h1.172l.586,2.018.391,1.562h0a13.329,13.329,0,0,1,.325-1.562Z" transform="translate(-56.965 -87.352)" fill="#6d6e71"/>
      <path id="Path_40" data-name="Path 40" d="M159.625,89.691a4.315,4.315,0,0,1,1.887-.391c1.692,0,2.213.911,2.213,1.953V93.01a5.611,5.611,0,0,0,.065,1.106h-1.3l-.065-.521h0a1.867,1.867,0,0,1-1.5.586A1.461,1.461,0,0,1,159.3,92.75c0-1.237,1.237-1.757,2.994-1.757,0-.456-.2-.846-.976-.846a3.026,3.026,0,0,0-1.367.325Zm2.669,2.148c-.781,0-1.627.13-1.627.846a.633.633,0,0,0,.716.651.861.861,0,0,0,.911-.846Z" transform="translate(-62.062 -87.282)" fill="#6d6e71"/>
      <path id="Path_41" data-name="Path 41" d="M172.845,89.5h1.5l-1.237,3.254a7.26,7.26,0,0,1-1.692,2.864,2.978,2.978,0,0,1-1.432.651l-.391-1.041a3.983,3.983,0,0,0,.781-.325,2.068,2.068,0,0,0,.716-.846.239.239,0,0,0-.065-.2L169.2,89.5h1.627l.781,2.473c.065.26.2.651.26.911h0c.065-.26.13-.586.2-.911Z" transform="translate(-65.519 -87.352)" fill="#6d6e71"/>
    </g>
  </g>
</svg>
