<?xml version="1.0" encoding="UTF-8"?>
<svg id="Layer_1" data-name="Layer 1" xmlns="http://www.w3.org/2000/svg" xmlns:xlink="http://www.w3.org/1999/xlink" viewBox="0 0 500 500">
  <defs>
    <style>
      .cls-1 {
        stroke: #2c3447;
      }

      .cls-1, .cls-2, .cls-3, .cls-4, .cls-5, .cls-6, .cls-7, .cls-8, .cls-9, .cls-10, .cls-11, .cls-12, .cls-13, .cls-14, .cls-15, .cls-16, .cls-17, .cls-18, .cls-19, .cls-20, .cls-21, .cls-22, .cls-23, .cls-24, .cls-25 {
        fill: none;
      }

      .cls-1, .cls-3, .cls-7, .cls-11, .cls-14, .cls-16, .cls-18, .cls-19, .cls-20, .cls-24, .cls-25 {
        stroke-miterlimit: 10;
      }

      .cls-1, .cls-11 {
        stroke-width: .87px;
      }

      .cls-26 {
        fill: #fff;
      }

      .cls-27 {
        fill: #fff1f0;
      }

      .cls-28 {
        fill: #0775ef;
      }

      .cls-2 {
        stroke: #fff1f0;
        stroke-width: 1.07px;
      }

      .cls-2, .cls-9, .cls-10, .cls-13, .cls-15, .cls-22 {
        stroke-linecap: round;
        stroke-linejoin: round;
      }

      .cls-3 {
        stroke-width: 1.2px;
      }

      .cls-3, .cls-15 {
        stroke: #322a28;
      }

      .cls-29 {
        fill: #89a5c7;
      }

      .cls-30 {
        fill: #332b27;
      }

      .cls-31 {
        fill: #2ec6fc;
      }

      .cls-32 {
        fill: #2d628c;
      }

      .cls-33 {
        fill: #f9e181;
      }

      .cls-4 {
        stroke-miterlimit: 10;
        stroke-width: 3.8px;
      }

      .cls-4, .cls-5, .cls-6, .cls-8, .cls-9, .cls-10, .cls-12, .cls-13, .cls-18, .cls-19, .cls-21, .cls-23 {
        stroke: #fff;
      }

      .cls-5 {
        stroke-miterlimit: 10;
        stroke-width: 3.8px;
      }

      .cls-34 {
        fill: #2c3447;
      }

      .cls-6 {
        stroke-miterlimit: 10;
        stroke-width: 3.8px;
      }

      .cls-7 {
        stroke: #e89780;
      }

      .cls-7, .cls-9, .cls-15 {
        stroke-width: .7px;
      }

      .cls-8 {
        stroke-miterlimit: 10;
        stroke-width: 3.8px;
      }

      .cls-35 {
        fill: #f74242;
      }

      .cls-10 {
        stroke-width: .46px;
      }

      .cls-36 {
        fill: #e5f0f8;
      }

      .cls-11 {
        stroke: #332b27;
      }

      .cls-12 {
        stroke-miterlimit: 10;
        stroke-width: 3.8px;
      }

      .cls-37 {
        fill: #40a87b;
      }

      .cls-38 {
        fill: #93acbf;
      }

      .cls-39 {
        fill: #6adb6a;
      }

      .cls-13 {
        stroke-width: 4.53px;
      }

      .cls-14, .cls-20 {
        stroke-width: 4.6px;
      }

      .cls-14, .cls-25 {
        stroke: #40a87b;
      }

      .cls-40 {
        clip-path: url(#clippath);
      }

      .cls-16, .cls-20 {
        stroke: #6adb6a;
      }

      .cls-16, .cls-25 {
        stroke-width: 4.24px;
      }

      .cls-41 {
        fill: #e89780;
      }

      .cls-18 {
        stroke-width: 1.55px;
      }

      .cls-42 {
        fill: #bbdbf3;
      }

      .cls-43 {
        fill: #403534;
      }

      .cls-19 {
        stroke-width: 3.8px;
      }

      .cls-21 {
        stroke-miterlimit: 10;
        stroke-width: 3.8px;
      }

      .cls-44 {
        fill: #586773;
      }

      .cls-45 {
        fill: #a5bbd6;
      }

      .cls-46 {
        fill: #d6eaff;
      }

      .cls-22 {
        stroke: #ea9d85;
        stroke-width: 1.35px;
      }

      .cls-47 {
        fill: #088cfc;
      }

      .cls-48 {
        fill: #ea9d85;
      }

      .cls-49 {
        fill: #fdae97;
      }

      .cls-23 {
        stroke-miterlimit: 10;
        stroke-width: 3.8px;
      }

      .cls-50 {
        fill: #f9ecb8;
      }

      .cls-51 {
        fill: #322a28;
      }

      .cls-24 {
        stroke: #e5f0f8;
        stroke-width: 2.61px;
      }
    </style>
    <clipPath id="clippath">
      <path class="cls-17" d="M231.74,261.87c16.52-17.88,15.42-45.77-2.46-62.29-17.88-16.52-45.77-15.42-62.29,2.46-16.52,17.88-15.42,45.77,2.46,62.29,17.88,16.52,45.77,15.43,62.3-2.46h0Z"/>
    </clipPath>
  </defs>
  <g id="Group_66" data-name="Group 66">
    <g id="Group_36" data-name="Group 36">
      <path id="Path_193" data-name="Path 193" class="cls-37" d="M74.01,417.82s-8.74-34.86-30.53-45.62c-21.79-10.76-45.03,3.97-39.13,19.46,5.09,13.35,26.03-3.07,42.31,3.39,9.68,3.98,16.75,12.51,18.86,22.77h8.49Z"/>
      <path id="Path_194" data-name="Path 194" class="cls-16" d="M8.56,382.37s23.38-13.33,40.73-1.01,22.84,36.45,22.84,36.45"/>
      <line id="Line_51" data-name="Line 51" class="cls-16" x1="12.33" y1="376.14" x2="17.77" y2="378.51"/>
      <line id="Line_52" data-name="Line 52" class="cls-16" x1="20.19" y1="371.06" x2="31.02" y2="376.14"/>
      <line id="Line_53" data-name="Line 53" class="cls-16" x1="36.47" y1="371.06" x2="42.1" y2="377.72"/>
      <line id="Line_54" data-name="Line 54" class="cls-16" x1="47.15" y1="375.52" x2="49.68" y2="381.65"/>
      <line id="Line_55" data-name="Line 55" class="cls-16" x1="15.05" y1="390.85" x2="23.4" y2="377.04"/>
      <line id="Line_56" data-name="Line 56" class="cls-16" x1="29.8" y1="388.88" x2="37.46" y2="376.58"/>
      <line id="Line_57" data-name="Line 57" class="cls-16" x1="42.81" y1="386.99" x2="54.33" y2="385.56"/>
      <line id="Line_58" data-name="Line 58" class="cls-16" x1="56.22" y1="393.97" x2="62.82" y2="396.14"/>
    </g>
    <g id="Group_40" data-name="Group 40">
      <path id="Path_195" data-name="Path 195" class="cls-36" d="M449.68,88.89h-147.89c-1.75,0-3.17,2.14-3.17,4.77v109.31h154.23V93.67c0-2.64-1.41-4.77-3.17-4.77Z"/>
      <rect id="Rectangle_92" data-name="Rectangle 92" class="cls-26" x="300.7" y="99.62" width="150.11" height="101.6"/>
      <g id="Group_37" data-name="Group 37">
        <line id="Line_59" data-name="Line 59" class="cls-13" x1="440.11" y1="97.53" x2="446.94" y2="91.25"/>
        <line id="Line_60" data-name="Line 60" class="cls-13" x1="446.94" y1="97.53" x2="440.11" y2="91.25"/>
      </g>
      <g id="Group_38" data-name="Group 38">
        <rect id="Rectangle_93" data-name="Rectangle 93" class="cls-36" x="303.66" y="153.22" width="144.18" height="9.63"/>
        <rect id="Rectangle_94" data-name="Rectangle 94" class="cls-26" x="308.8" y="156.95" width="46.78" height="2.14"/>
        <rect id="Rectangle_95" data-name="Rectangle 95" class="cls-26" x="358.43" y="156.95" width="31.68" height="2.14"/>
        <rect id="Rectangle_96" data-name="Rectangle 96" class="cls-24" x="308.82" y="166.28" width="133.84" height="27.52"/>
        <rect id="Rectangle_97" data-name="Rectangle 97" class="cls-24" x="308.82" y="166.28" width="11.62" height="27.52"/>
        <rect id="Rectangle_98" data-name="Rectangle 98" class="cls-24" x="320.44" y="166.28" width="67.13" height="27.52"/>
        <rect id="Rectangle_99" data-name="Rectangle 99" class="cls-24" x="432.08" y="166.28" width="10.59" height="27.52"/>
        <rect id="Rectangle_100" data-name="Rectangle 100" class="cls-24" x="421.48" y="166.28" width="10.59" height="27.52"/>
        <rect id="Rectangle_101" data-name="Rectangle 101" class="cls-24" x="408.25" y="166.28" width="13.24" height="27.52"/>
        <rect id="Rectangle_102" data-name="Rectangle 102" class="cls-24" x="387.57" y="166.28" width="20.68" height="27.52"/>
        <rect id="Rectangle_103" data-name="Rectangle 103" class="cls-24" x="308.82" y="174.49" width="133.84" height="6.44"/>
        <rect id="Rectangle_104" data-name="Rectangle 104" class="cls-24" x="308.82" y="180.93" width="133.84" height="6.44"/>
        <rect id="Rectangle_105" data-name="Rectangle 105" class="cls-24" x="308.82" y="187.36" width="133.84" height="6.44"/>
      </g>
      <g id="Group_39" data-name="Group 39">
        <rect id="Rectangle_106" data-name="Rectangle 106" class="cls-36" x="303.66" y="104.4" width="144.18" height="9.63"/>
        <rect id="Rectangle_107" data-name="Rectangle 107" class="cls-26" x="308.8" y="108.12" width="46.78" height="2.14"/>
        <rect id="Rectangle_108" data-name="Rectangle 108" class="cls-26" x="358.43" y="108.12" width="31.68" height="2.14"/>
        <rect id="Rectangle_109" data-name="Rectangle 109" class="cls-24" x="308.82" y="117.45" width="133.84" height="27.52"/>
        <rect id="Rectangle_110" data-name="Rectangle 110" class="cls-24" x="308.82" y="117.45" width="11.62" height="27.52"/>
        <rect id="Rectangle_111" data-name="Rectangle 111" class="cls-24" x="320.44" y="117.45" width="67.13" height="27.52"/>
        <rect id="Rectangle_112" data-name="Rectangle 112" class="cls-24" x="432.08" y="117.45" width="10.59" height="27.52"/>
        <rect id="Rectangle_113" data-name="Rectangle 113" class="cls-24" x="421.48" y="117.45" width="10.59" height="27.52"/>
        <rect id="Rectangle_114" data-name="Rectangle 114" class="cls-24" x="408.25" y="117.45" width="13.24" height="27.52"/>
        <rect id="Rectangle_115" data-name="Rectangle 115" class="cls-24" x="387.57" y="117.45" width="20.68" height="27.52"/>
        <rect id="Rectangle_116" data-name="Rectangle 116" class="cls-24" x="308.82" y="125.66" width="133.84" height="6.44"/>
        <rect id="Rectangle_117" data-name="Rectangle 117" class="cls-24" x="308.82" y="132.1" width="133.84" height="6.44"/>
        <rect id="Rectangle_118" data-name="Rectangle 118" class="cls-24" x="308.82" y="138.54" width="133.84" height="6.44"/>
      </g>
    </g>
    <g id="Group_41" data-name="Group 41">
      <path id="Path_196" data-name="Path 196" class="cls-39" d="M84.32,417.92s6.17-116.85-49.64-101.79c-55.81,15.06,43.54,78.03,43.45,101.79h6.19Z"/>
      <path id="Path_197" data-name="Path 197" class="cls-25" d="M82.07,417.92s-1.95-61.05-41.73-91.24"/>
      <line id="Line_61" data-name="Line 61" class="cls-25" x1="57.78" y1="344.39" x2="56.79" y2="323.33"/>
      <line id="Line_62" data-name="Line 62" class="cls-25" x1="26.57" y1="335.66" x2="53.46" y2="339.17"/>
      <line id="Line_63" data-name="Line 63" class="cls-25" x1="37.03" y1="353.63" x2="65.46" y2="356.94"/>
      <line id="Line_64" data-name="Line 64" class="cls-25" x1="51.24" y1="371.43" x2="73.21" y2="374.53"/>
      <line id="Line_65" data-name="Line 65" class="cls-25" x1="75.31" y1="354.8" x2="70.28" y2="367.02"/>
      <line id="Line_66" data-name="Line 66" class="cls-25" x1="67.04" y1="334.95" x2="62.75" y2="352.17"/>
      <line id="Line_67" data-name="Line 67" class="cls-25" x1="80.01" y1="375.21" x2="76" y2="383.21"/>
      <line id="Line_68" data-name="Line 68" class="cls-25" x1="62.75" y1="387.94" x2="78.49" y2="392.9"/>
    </g>
    <g id="Group_44" data-name="Group 44">
      <path id="Path_198" data-name="Path 198" class="cls-38" d="M202.05,164.57l13.36,26.71h197.07v202.48H104.08V191.28h34.54v-26.71h63.44Z"/>
      <path id="Path_199" data-name="Path 199" class="cls-42" d="M208.22,164.57l13.36,26.71h197.07v202.48H110.24V191.28h34.54v-26.71h63.43Z"/>
      <g id="Group_43" data-name="Group 43">
        <g id="Group_42" data-name="Group 42">
          <path id="Path_200" data-name="Path 200" class="cls-26" d="M307.85,282.31h-18.61v-25.7c0-13.7-11.11-24.81-24.81-24.81s-24.81,11.11-24.81,24.81v25.7h-18.6c-1.23,0-2.23,.99-2.23,2.22v68.22c0,1.23,1,2.22,2.22,2.22h86.82c1.23,0,2.23-.99,2.23-2.21h0v-68.22c0-1.23-1-2.23-2.23-2.22h.01Zm-60.35-25.7c-.01-9.36,7.56-16.96,16.92-16.97s16.96,7.56,16.97,16.92v25.75h-33.89v-25.7Z"/>
          <path id="Path_201" data-name="Path 201" class="cls-42" d="M270.45,313.11c0-3.32-2.69-6.01-6-6.01-3.32,0-6.01,2.69-6.01,6,0,2.23,1.23,4.27,3.2,5.31v13.18c0,1.55,1.26,2.81,2.81,2.81s2.81-1.26,2.81-2.81v-13.2c1.96-1.04,3.19-3.07,3.2-5.29Z"/>
        </g>
        <path id="Path_202" data-name="Path 202" class="cls-19" d="M286.66,249.26h39.16v-37.11h65.41"/>
        <path id="Path_203" data-name="Path 203" class="cls-19" d="M286.66,263.54h71.24v-16.06h35.65"/>
        <line id="Line_69" data-name="Line 69" class="cls-19" x1="305.14" y1="286.27" x2="353.62" y2="286.27"/>
        <path id="Path_204" data-name="Path 204" class="cls-19" d="M306.92,300.25h30.3v7.21h38.51v-21.19h25.31"/>
        <path id="Path_205" data-name="Path 205" class="cls-19" d="M303.51,320.75h31.93v16.69h68.44"/>
        <path id="Path_206" data-name="Path 206" class="cls-19" d="M305.14,347.31h16.4v18.54h58.8v11.09"/>
        <path id="Path_207" data-name="Path 207" class="cls-19" d="M242.24,249.26h-39.16v-37.11h-65.41"/>
        <path id="Path_208" data-name="Path 208" class="cls-19" d="M242.24,263.54h-71.24v-16.06h-35.65"/>
        <line id="Line_70" data-name="Line 70" class="cls-19" x1="223.76" y1="286.27" x2="175.27" y2="286.27"/>
        <path id="Path_209" data-name="Path 209" class="cls-19" d="M221.98,300.25h-30.3v7.21h-38.51v-21.19h-25.31"/>
        <path id="Path_210" data-name="Path 210" class="cls-19" d="M225.38,320.75h-31.93v16.69H125.01"/>
        <path id="Path_211" data-name="Path 211" class="cls-19" d="M223.76,347.31h-16.4v18.54h-58.8v11.09"/>
        <line id="Line_71" data-name="Line 71" class="cls-19" x1="297.39" y1="351.2" x2="297.39" y2="378.67"/>
        <path id="Path_212" data-name="Path 212" class="cls-19" d="M278.04,348.28v16.66h-11.05v13.73"/>
        <line id="Line_72" data-name="Line 72" class="cls-19" x1="247.5" y1="349.8" x2="247.5" y2="376.07"/>
        <path id="Path_213" data-name="Path 213" class="cls-19" d="M227.78,351.2v15.71h10.87v16.4"/>
        <circle id="Ellipse_64" data-name="Ellipse 64" class="cls-5" cx="393.88" cy="212.14" r="2.58"/>
        <circle id="Ellipse_65" data-name="Ellipse 65" class="cls-5" cx="395.88" cy="247.47" r="2.58"/>
        <circle id="Ellipse_66" data-name="Ellipse 66" class="cls-5" cx="355.66" cy="286.25" r="2.58"/>
        <circle id="Ellipse_67" data-name="Ellipse 67" class="cls-5" cx="403.28" cy="286.25" r="2.58"/>
        <circle id="Ellipse_68" data-name="Ellipse 68" class="cls-12" cx="406.47" cy="337.44" r="2.58"/>
        <circle id="Ellipse_69" data-name="Ellipse 69" class="cls-12" cx="380.33" cy="379.54" r="2.58"/>
        <circle id="Ellipse_70" data-name="Ellipse 70" class="cls-5" cx="297.38" cy="380.73" r="2.58"/>
        <circle id="Ellipse_71" data-name="Ellipse 71" class="cls-5" cx="247.49" cy="378.15" r="2.58"/>
        <circle id="Ellipse_72" data-name="Ellipse 72" class="cls-23" cx="148.55" cy="379.54" r="2.58"/>
        <circle id="Ellipse_73" data-name="Ellipse 73" class="cls-12" cx="266.99" cy="380.75" r="2.58"/>
        <circle id="Ellipse_74" data-name="Ellipse 74" class="cls-12" cx="238.65" cy="385.93" r="2.58"/>
        <circle id="Ellipse_75" data-name="Ellipse 75" class="cls-12" cx="122.43" cy="337.44" r="2.58"/>
        <circle id="Ellipse_76" data-name="Ellipse 76" class="cls-4" cx="125.96" cy="286.26" r="2.58"/>
        <circle id="Ellipse_77" data-name="Ellipse 77" class="cls-8" cx="132.77" cy="247.48" r="2.58"/>
        <circle id="Ellipse_78" data-name="Ellipse 78" class="cls-6" cx="135.36" cy="212.13" r="2.58"/>
        <circle id="Ellipse_79" data-name="Ellipse 79" class="cls-21" cx="172.8" cy="286.29" r="2.58"/>
      </g>
    </g>
    <g id="Group_45" data-name="Group 45">
      <path id="Path_214" data-name="Path 214" class="cls-37" d="M421.75,417.81s9.49-37.85,33.14-49.53c23.65-11.68,48.89,4.31,42.48,21.12-5.53,14.5-28.25-3.33-45.94,3.68-10.51,4.32-18.19,13.59-20.47,24.72h-9.22Z"/>
      <path id="Path_215" data-name="Path 215" class="cls-20" d="M492.8,379.33s-25.38-14.47-44.22-1.09c-18.83,13.38-24.79,39.57-24.79,39.57"/>
      <line id="Line_73" data-name="Line 73" class="cls-20" x1="488.71" y1="372.56" x2="482.8" y2="375.13"/>
      <line id="Line_74" data-name="Line 74" class="cls-20" x1="480.18" y1="367.05" x2="468.41" y2="372.56"/>
      <line id="Line_75" data-name="Line 75" class="cls-20" x1="462.51" y1="367.05" x2="456.39" y2="374.27"/>
      <line id="Line_76" data-name="Line 76" class="cls-20" x1="450.91" y1="371.89" x2="448.15" y2="378.55"/>
      <line id="Line_77" data-name="Line 77" class="cls-20" x1="485.75" y1="388.54" x2="476.69" y2="373.54"/>
      <line id="Line_78" data-name="Line 78" class="cls-20" x1="469.74" y1="386.39" x2="461.42" y2="373.04"/>
      <line id="Line_79" data-name="Line 79" class="cls-20" x1="455.61" y1="384.34" x2="443.11" y2="382.79"/>
      <line id="Line_80" data-name="Line 80" class="cls-20" x1="441.06" y1="391.91" x2="433.9" y2="394.27"/>
    </g>
    <g id="Group_46" data-name="Group 46">
      <path id="Path_216" data-name="Path 216" class="cls-39" d="M410.55,417.92s-6.7-126.86,53.9-110.51c60.59,16.35-47.26,84.72-47.17,110.51h-6.73Z"/>
      <path id="Path_217" data-name="Path 217" class="cls-14" d="M413,417.92s2.12-66.28,45.31-99.06"/>
      <line id="Line_81" data-name="Line 81" class="cls-14" x1="439.36" y1="338.09" x2="440.44" y2="315.23"/>
      <line id="Line_82" data-name="Line 82" class="cls-14" x1="473.25" y1="328.62" x2="444.06" y2="332.42"/>
      <line id="Line_83" data-name="Line 83" class="cls-14" x1="461.9" y1="348.12" x2="431.03" y2="351.72"/>
      <line id="Line_84" data-name="Line 84" class="cls-14" x1="446.46" y1="367.45" x2="422.62" y2="370.82"/>
      <line id="Line_85" data-name="Line 85" class="cls-14" x1="420.34" y1="349.39" x2="425.8" y2="362.67"/>
      <line id="Line_86" data-name="Line 86" class="cls-14" x1="429.31" y1="327.84" x2="433.97" y2="346.54"/>
      <line id="Line_87" data-name="Line 87" class="cls-14" x1="415.23" y1="371.55" x2="419.59" y2="380.23"/>
      <line id="Line_88" data-name="Line 88" class="cls-14" x1="433.97" y1="385.37" x2="416.89" y2="390.76"/>
    </g>
    <g id="Group_47" data-name="Group 47">
      <ellipse id="Ellipse_80" data-name="Ellipse 80" class="cls-38" cx="370.09" cy="403.41" rx="46.79" ry="13.67"/>
      <rect id="Rectangle_119" data-name="Rectangle 119" class="cls-38" x="323.3" y="384.06" width="93.58" height="19.35"/>
      <ellipse id="Ellipse_81" data-name="Ellipse 81" class="cls-44" cx="370.09" cy="384.06" rx="46.79" ry="13.67"/>
      <path id="Path_218" data-name="Path 218" class="cls-31" d="M330.21,371.09v15.49c0,.76,.45,1.45,1.15,1.75,8.42,3.64,22.62,6,38.74,6s30.32-2.38,38.73-6c.7-.3,1.15-.99,1.15-1.75v-15.49c0-1.05-.85-1.9-1.9-1.9h-75.96c-1.05,0-1.9,.85-1.9,1.9h0Z"/>
      <ellipse id="Ellipse_82" data-name="Ellipse 82" class="cls-38" cx="370.09" cy="375.53" rx="46.79" ry="13.67"/>
      <rect id="Rectangle_120" data-name="Rectangle 120" class="cls-38" x="323.3" y="356.19" width="93.58" height="19.35"/>
      <ellipse id="Ellipse_83" data-name="Ellipse 83" class="cls-44" cx="370.09" cy="356.19" rx="46.79" ry="13.67"/>
      <path id="Path_219" data-name="Path 219" class="cls-31" d="M330.21,343.83v14.97c0,.88,.52,1.68,1.34,2.03,8.44,3.58,22.55,5.92,38.55,5.92s30.1-2.34,38.54-5.92c.81-.35,1.34-1.15,1.34-2.03v-14.97c0-1.22-.99-2.21-2.21-2.21h-75.34c-1.22,0-2.21,.99-2.21,2.21Z"/>
      <ellipse id="Ellipse_84" data-name="Ellipse 84" class="cls-38" cx="370.09" cy="348.3" rx="46.79" ry="13.67"/>
      <rect id="Rectangle_121" data-name="Rectangle 121" class="cls-38" x="323.3" y="328.95" width="93.58" height="19.35"/>
      <path id="Path_220" data-name="Path 220" class="cls-44" d="M323.31,328.95c0,2.62,2.53,5.07,6.91,7.15,8.23,3.91,23.02,6.52,39.88,6.52s31.64-2.6,39.88-6.52c4.38-2.08,6.91-4.54,6.91-7.15,0-.37-.05-.75-.15-1.11-.61-2.21-2.99-4.26-6.76-6.06-8.23-3.91-23.02-6.52-39.88-6.52s-31.65,2.61-39.88,6.52c-3.76,1.79-6.16,3.84-6.76,6.06-.1,.36-.15,.73-.15,1.11h0Z"/>
      <path id="Path_221" data-name="Path 221" class="cls-44" d="M330.21,319.59v14.31c8.23,3.91,23.02,6.52,39.88,6.52s31.64-2.61,39.88-6.52v-14.31c-4.59-2.02-9.41-3.47-14.35-4.31-16.89-2.95-34.16-2.95-51.04,0-4.95,.84-9.77,2.29-14.37,4.31Z"/>
      <path id="Path_222" data-name="Path 222" class="cls-31" d="M330.21,317.24v15.37c0,.79,.46,1.51,1.19,1.82,8.42,3.61,22.61,5.99,38.69,5.99s30.27-2.37,38.69-5.99c.72-.31,1.19-1.03,1.19-1.82v-15.37c0-1.09-.88-1.97-1.97-1.97h-75.82c-1.09,0-1.97,.88-1.97,1.97h0Z"/>
      <ellipse id="Ellipse_85" data-name="Ellipse 85" class="cls-38" cx="370.09" cy="321.27" rx="46.79" ry="13.67"/>
      <rect id="Rectangle_122" data-name="Rectangle 122" class="cls-38" x="323.3" y="301.92" width="93.58" height="19.35"/>
      <ellipse id="Ellipse_86" data-name="Ellipse 86" class="cls-36" cx="370.09" cy="301.92" rx="46.79" ry="13.67"/>
      <circle id="Ellipse_87" data-name="Ellipse 87" class="cls-42" cx="349" cy="321.15" r="1.77"/>
      <circle id="Ellipse_88" data-name="Ellipse 88" class="cls-42" cx="337.04" cy="318.82" r="1.77"/>
      <circle id="Ellipse_89" data-name="Ellipse 89" class="cls-31" cx="343.02" cy="320.28" r="1.77"/>
      <circle id="Ellipse_90" data-name="Ellipse 90" class="cls-42" cx="349" cy="346.62" r="1.77"/>
      <circle id="Ellipse_91" data-name="Ellipse 91" class="cls-44" cx="337.03" cy="344.3" r="1.77"/>
      <circle id="Ellipse_92" data-name="Ellipse 92" class="cls-42" cx="343.02" cy="345.75" r="1.77"/>
      <circle id="Ellipse_93" data-name="Ellipse 93" class="cls-44" cx="348.99" cy="374.04" r="1.77"/>
      <circle id="Ellipse_94" data-name="Ellipse 94" class="cls-31" cx="337.04" cy="371.67" r="1.77"/>
      <circle id="Ellipse_95" data-name="Ellipse 95" class="cls-42" cx="343.02" cy="373.14" r="1.77"/>
      <circle id="Ellipse_96" data-name="Ellipse 96" class="cls-31" cx="349" cy="401.41" r="1.77"/>
      <circle id="Ellipse_97" data-name="Ellipse 97" class="cls-42" cx="337.04" cy="399.06" r="1.77"/>
      <circle id="Ellipse_98" data-name="Ellipse 98" class="cls-31" cx="343.02" cy="400.53" r="1.77"/>
    </g>
    <g id="Group_48" data-name="Group 48">
      <path id="Path_223" data-name="Path 223" class="cls-33" d="M141.15,115.68l-42.85-26.21c-4.32,2.03-9.04,3.08-13.81,3.07h0c-4.77,0-9.49-1.04-13.81-3.07l-42.83,26.21s-5.83,87.1,56.65,113.36h0c62.49-26.26,56.65-113.36,56.65-113.36Z"/>
      <path id="Path_224" data-name="Path 224" class="cls-50" d="M132.79,121.47l-35.93-21.97c-3.94,1.56-8.13,2.36-12.37,2.35h0c-4.23,.01-8.43-.79-12.36-2.35l-35.93,21.98c-.26,13.49,1.25,26.96,4.51,40.06,2.85,11.88,7.8,23.15,14.63,33.28,7.28,10.65,17.37,19.08,29.15,24.36h0c11.78-5.28,21.87-13.71,29.15-24.37,6.83-10.13,11.78-21.4,14.63-33.28,3.26-13.1,4.78-26.57,4.52-40.06h0Z"/>
      <path id="Path_225" data-name="Path 225" class="cls-39" d="M105.71,127.94l-22.77,39.21-.2,.35-11.28-17.12-7.47,4.92,15.25,23.15,3.74-.1,3.86-.11,26.59-45.8-7.73-4.49Z"/>
    </g>
    <path id="Rectangle_123" data-name="Rectangle 123" class="cls-28" d="M58.39,417.13H447.81c2.69,0,4.87,2.18,4.87,4.87h0c0,2.69-2.18,4.87-4.87,4.87H58.39c-2.69,0-4.87-2.18-4.87-4.87h0c0-2.69,2.18-4.87,4.87-4.87Z"/>
    <g id="Group_55" data-name="Group 55">
      <path id="Path_226" data-name="Path 226" class="cls-49" d="M114.27,281.58l-12.02-.2,.63-12.62,.3-6.04,.02-.3,9.39-3.94,.3,4.27,.23,3.11,1.15,15.73Z"/>
      <path id="Path_227" data-name="Path 227" class="cls-47" d="M90.76,320.66l-5.06,41.85c-.8,5.25,2.81,10.16,8.06,10.96,1.1,.17,2.21,.14,3.3-.07,5.23-1.01,7.23-5.05,8.16-11.05,1.8-11.51,8.09-46.07,8.09-46.07l-22.56,4.39Z"/>
      <path id="Path_228" data-name="Path 228" class="cls-47" d="M123.54,318.55l-18.57,1.25,.09,20.57,2.21,3.26,2.04,19.83,18.8-1.51-4.57-43.4Z"/>
      <path id="Path_229" data-name="Path 229" class="cls-35" d="M75.49,309.21l.06,.04c2.78,1.85,6.53,1.09,8.39-1.68l15.02-22.57c1.85-2.78,1.09-6.53-1.68-8.39l-.06-.04c-2.78-1.85-6.53-1.09-8.39,1.68l-15.02,22.57c-1.85,2.78-1.09,6.53,1.68,8.39Z"/>
      <path id="Path_230" data-name="Path 230" class="cls-41" d="M155.52,280.48l-4.95,6.62-6.44-3.92,7.27-7.15,5.26,.97-1.14,3.48Z"/>
      <path id="Path_231" data-name="Path 231" class="cls-35" d="M132.18,310.44c2.74,1.8,6.43,1.07,8.27-1.65l7.57-13.86,2.68-4.91,2.8-5.11-4.66-3.22-3.31-2.28-.32-.22-3.4,5.04-3.12,4.62-9.18,13.6c-1.45,2.95-.27,6.51,2.65,8.01h0Z"/>
      <path id="Path_232" data-name="Path 232" class="cls-49" d="M108.42,276.31c2.65,.3,5.26-.82,6.86-2.96l-1.65-.75-10.91-.55-1.31,.42c1.46,2.47,4.15,3.94,7.01,3.83h0Z"/>
      <path id="Path_233" data-name="Path 233" class="cls-35" d="M124.07,303.75l.26,18.04h-33.95l.4-45.48,11.65-4.21c.13,.24,.27,.49,.45,.75l.05,.05c.63,.8,1.84,1.57,5.22,1.64,1.71,.21,3.44-.08,4.98-.84h0c.35-.24,.65-.56,.87-.93l11,2.42-.74,22.95-.2,5.59h0Z"/>
      <path id="Path_234" data-name="Path 234" class="cls-47" d="M82.19,404.98h17.47l5.27-40.65c.66-5.28-3.09-10.1-8.38-10.76s-10.1,3.09-10.76,8.38c-.02,.12-.03,.24-.04,.36-.05,.45-.06,.91-.04,1.36l-3.03,35.68-.48,5.63h-.01Z"/>
      <path id="Path_235" data-name="Path 235" class="cls-35" d="M138.27,310.71h0c-3.02,1.53-6.72,.33-8.26-2.68l-12.33-24.19c-1.53-3.02-.33-6.72,2.68-8.26h0c3.02-1.53,6.72-.33,8.26,2.68l12.33,24.19c1.53,3.02,.33,6.72-2.68,8.26Z"/>
      <g id="Group_52" data-name="Group 52">
        <path id="Path_236" data-name="Path 236" class="cls-38" d="M234.4,269.85c20.93-19.35,22.22-52.01,2.87-72.94-19.35-20.93-52.01-22.22-72.94-2.87-20.93,19.35-22.22,52.01-2.87,72.94,0,0,0,0,0,0,19.36,20.91,51.99,22.19,72.94,2.87Zm-69.28-6.27c-17.47-18.91-16.3-48.41,2.61-65.88,18.91-17.47,48.41-16.3,65.88,2.61,17.47,18.91,16.3,48.4-2.6,65.87-18.91,17.47-48.4,16.31-65.88-2.6,0,0,0,0,0,0h0Z"/>
        <path id="Path_237" data-name="Path 237" class="cls-44" d="M231.01,266.19c18.91-17.47,20.08-46.97,2.6-65.88-17.47-18.91-46.97-20.08-65.88-2.6-18.91,17.47-20.08,46.97-2.61,65.88,17.47,18.91,46.97,20.08,65.88,2.61,0,0,0,0,0,0Zm-64.02-4.32c-16.52-17.88-15.42-45.77,2.46-62.29,17.88-16.52,45.77-15.42,62.29,2.46,16.52,17.88,15.42,45.76-2.46,62.29-17.88,16.52-45.77,15.43-62.29-2.45,0,0,0,0,0,0h0Z"/>
        <path id="Path_238" data-name="Path 238" class="cls-36" d="M166.99,261.87c-16.52-17.88-15.42-45.77,2.46-62.29,17.88-16.52,45.77-15.42,62.29,2.46,16.52,17.88,15.42,45.77-2.46,62.29-17.88,16.52-45.77,15.43-62.3-2.46h0Z"/>
        <path id="Path_239" data-name="Path 239" class="cls-38" d="M145.67,285.16l-1.96-2.01,20.43-18.87,1.83,2.12-20.3,18.76Z"/>
        <path id="Path_240" data-name="Path 240" class="cls-44" d="M99.73,325.53s-.01-.02-.02-.02c-1.25-1.35-1.17-3.46,.18-4.71l42.35-39.14,1.46,1.49,.91,.91,1.06,1.1,1.24,1.27-42.48,39.27c-1.35,1.25-3.45,1.17-4.7-.17Z"/>
        <path id="Path_241" data-name="Path 241" class="cls-38" d="M99.73,325.53l.04-.03,44.84-41.44,1.06,1.1,1.24,1.27-42.48,39.27c-1.34,1.24-3.44,1.17-4.69-.17Z"/>
        <g class="cls-40">
          <g id="Group_51" data-name="Group 51">
            <g id="Group_49" data-name="Group 49">
              <path id="Path_242" data-name="Path 242" class="cls-39" d="M168.47,209.53v-.96l5.56-3.01v1.47l-3.71,2.02,3.71,2.02v1.47l-5.56-3.01h0Z"/>
              <path id="Path_243" data-name="Path 243" class="cls-39" d="M276.75,289.42v-1.47l3.71-2.02-3.71-2.02v-1.47l5.56,3.01v.96l-5.56,3.01h0Z"/>
              <rect id="Rectangle_124" data-name="Rectangle 124" class="cls-39" x="176.09" y="207.91" width="22.1" height="2.27"/>
              <rect id="Rectangle_125" data-name="Rectangle 125" class="cls-39" x="168.47" y="216.69" width="22.1" height="2.27"/>
              <rect id="Rectangle_126" data-name="Rectangle 126" class="cls-39" x="173.18" y="222.8" width="22.1" height="2.27"/>
              <rect id="Rectangle_127" data-name="Rectangle 127" class="cls-39" x="173.18" y="239.62" width="22.1" height="2.27"/>
              <rect id="Rectangle_128" data-name="Rectangle 128" class="cls-39" x="173.18" y="244.83" width="22.1" height="2.27"/>
              <rect id="Rectangle_129" data-name="Rectangle 129" class="cls-39" x="180.77" y="228.62" width="66.64" height="2.27"/>
              <rect id="Rectangle_130" data-name="Rectangle 130" class="cls-39" x="180.77" y="250.35" width="89.03" height="2.27"/>
              <rect id="Rectangle_131" data-name="Rectangle 131" class="cls-39" x="180.77" y="267.76" width="89.03" height="2.27"/>
              <rect id="Rectangle_132" data-name="Rectangle 132" class="cls-39" x="189.15" y="284.8" width="85.3" height="2.27"/>
              <rect id="Rectangle_133" data-name="Rectangle 133" class="cls-39" x="180.77" y="273.67" width="19.07" height="2.27"/>
              <rect id="Rectangle_134" data-name="Rectangle 134" class="cls-39" x="180.77" y="279.3" width="19.07" height="2.27"/>
              <rect id="Rectangle_135" data-name="Rectangle 135" class="cls-39" x="180.77" y="255.91" width="89.03" height="2.27"/>
              <rect id="Rectangle_136" data-name="Rectangle 136" class="cls-39" x="180.77" y="261.47" width="48.17" height="2.27"/>
              <rect id="Rectangle_137" data-name="Rectangle 137" class="cls-39" x="180.77" y="233.85" width="20.44" height="2.27"/>
            </g>
            <g id="Group_50" data-name="Group 50">
              <path id="Path_244" data-name="Path 244" class="cls-39" d="M168.47,124.92v-.96l5.56-3.01v1.47l-3.71,2.02,3.71,2.02v1.47l-5.56-3.01h0Z"/>
              <path id="Path_245" data-name="Path 245" class="cls-39" d="M276.75,204.81v-1.47l3.71-2.02-3.71-2.02v-1.47l5.56,3.01v.96l-5.56,3.01h0Z"/>
              <rect id="Rectangle_138" data-name="Rectangle 138" class="cls-39" x="176.09" y="123.3" width="22.1" height="2.27"/>
              <rect id="Rectangle_139" data-name="Rectangle 139" class="cls-39" x="168.47" y="132.07" width="22.1" height="2.27"/>
              <rect id="Rectangle_140" data-name="Rectangle 140" class="cls-39" x="173.18" y="138.18" width="22.1" height="2.27"/>
              <rect id="Rectangle_141" data-name="Rectangle 141" class="cls-39" x="173.18" y="155.01" width="22.1" height="2.27"/>
              <rect id="Rectangle_142" data-name="Rectangle 142" class="cls-39" x="173.18" y="160.21" width="22.1" height="2.27"/>
              <rect id="Rectangle_143" data-name="Rectangle 143" class="cls-39" x="180.77" y="144.01" width="66.64" height="2.27"/>
              <rect id="Rectangle_144" data-name="Rectangle 144" class="cls-39" x="180.77" y="165.74" width="89.03" height="2.27"/>
              <rect id="Rectangle_145" data-name="Rectangle 145" class="cls-39" x="180.77" y="183.15" width="89.03" height="2.27"/>
              <rect id="Rectangle_146" data-name="Rectangle 146" class="cls-39" x="189.15" y="200.19" width="85.3" height="2.27"/>
              <rect id="Rectangle_147" data-name="Rectangle 147" class="cls-39" x="180.77" y="189.06" width="19.07" height="2.27"/>
              <rect id="Rectangle_148" data-name="Rectangle 148" class="cls-39" x="180.77" y="194.69" width="19.07" height="2.27"/>
              <rect id="Rectangle_149" data-name="Rectangle 149" class="cls-39" x="180.77" y="171.3" width="89.03" height="2.27"/>
              <rect id="Rectangle_150" data-name="Rectangle 150" class="cls-39" x="180.77" y="176.85" width="48.17" height="2.27"/>
              <rect id="Rectangle_151" data-name="Rectangle 151" class="cls-39" x="180.77" y="149.24" width="20.44" height="2.27"/>
            </g>
          </g>
        </g>
      </g>
      <path id="Path_247" data-name="Path 247" class="cls-30" d="M113.31,254.54s.09-4.16-1.05-4.16-.8,4.15,1.05,4.16Z"/>
      <path id="Path_248" data-name="Path 248" class="cls-46" d="M113.13,273.71l-4.98,7.88-5.22-8.68c.63,.81,1.84,1.57,5.22,1.64,1.71,.21,3.44-.08,4.98-.84h0Z"/>
      <path id="Path_249" data-name="Path 249" class="cls-49" d="M117.77,312.13c-.07,.53-3.24,1.21-5.59,.96-1.99-.21-6.53-1.19-7.88-1.48l.5-6.36c.81-.03,1.62-.12,2.42-.27,1.85-.37,6.99-.81,7.05-.06s-3.41,1.75-3.13,2.04c1.37,.23,2.77,.23,4.14,0,1.16-.15,3.57-.88,4.04-.39s-.04,1.35-.04,1.35c0,0,.89-.38,1.03,.22s-1.1,1.55-1.1,1.55c0,0,.47-.27,.45,.43s-2.34,1.48-2.34,1.48c.24,0,.43,.21,.42,.45,0,.04,0,.07-.02,.1h.03Z"/>
      <path id="Path_250" data-name="Path 250" class="cls-47" d="M109.24,362.73l4.49,42.25h17.16l-2.75-42.48c-.02-.47-.07-.94-.14-1.41-.24-5.11-4.58-9.06-9.69-8.83-.1,0-.21,.01-.31,.02-5.3,.47-9.22,5.14-8.76,10.45h0Z"/>
      <path id="Path_251" data-name="Path 251" class="cls-35" d="M105.87,303.21l-6.06-1.21-5.5-1.1-14.67-2.95c-3.51-.06-6.41,2.73-6.48,6.25-.05,2.95,1.93,5.55,4.79,6.28l15.32,1.13,5.57,.42,5.76,.43,1.29-9.22-.02-.02Z"/>
      <path id="Path_252" data-name="Path 252" class="cls-48" d="M113.47,270.44l-6.76-4.93,6.43,.33,.33,4.6Z"/>
      <path id="Path_253" data-name="Path 253" class="cls-49" d="M112.46,251.46l1.82,6.66,.63,2.28c.5,1.82,.72,4.62-1.14,5.8-2.37,1.21-5.21,1.03-7.4-.48-2.53-1.58-9.46-9.93-4.43-15.1,2.48-2.72,6.69-2.92,9.42-.44,.42,.38,.79,.81,1.09,1.29h.02Z"/>
      <path id="Path_254" data-name="Path 254" class="cls-30" d="M102.78,249.87s1.89-3.72,3.53-3.44-.1,1.72-.1,1.72c0,0,5.43-1.43,7.27,2.1s-6.76,2.47-6.76,2.47c0,0,1.7,2.12,0,2.32-.86,.18-1.76,0-2.48-.52,0,0,1.7,3.14,.75,4.14s.22,3.84,1.28,4.64c1.21,.7,2.72,.59,3.83-.26,.53-.54,1.22-.89,1.97-1.01,.54-.06,1.82,.26,2.38,.18,.28-.08,.54-.22,.77-.41,.13,.44,.24,.9,.3,1.36,.49,1.97-.71,3.97-2.68,4.47-.31,.08-.63,.11-.95,.11-3.5,.33-6.82-1.58-8.29-4.77l-.52,2.32c-.28-1.45-.95-2.79-1.93-3.89-1.43-1.28-3.22-7.2-.64-9.48,0,0-2.22,1.27-1.94-.3,.22-1.21,4.22-1.73,4.22-1.73h0Z"/>
      <path id="Path_255" data-name="Path 255" class="cls-49" d="M103.53,262.25c.49,1.27,.52,2.09-.48,2.48-1.18,.4-2.46-.2-2.91-1.36-.55-1.08-.15-2.4,.91-2.99,1-.38,1.98,.61,2.47,1.87h0Z"/>
      <path id="Path_256" data-name="Path 256" class="cls-30" d="M108.46,258.02c.12,.42,.43,.7,.7,.62s.4-.48,.28-.89-.43-.7-.7-.62-.39,.47-.28,.89Z"/>
      <path id="Path_257" data-name="Path 257" class="cls-30" d="M113.53,256.62c.12,.42,0,.82-.28,.89s-.58-.2-.7-.62,0-.82,.28-.89,.58,.21,.7,.62Z"/>
      <path id="Path_258" data-name="Path 258" class="cls-41" d="M110.02,260.56c-.02,.42-.72,.72-1.55,.68s-1.49-.42-1.47-.84,.72-.72,1.55-.68,1.47,.42,1.47,.84Z"/>
      <path id="Path_259" data-name="Path 259" class="cls-41" d="M114.3,258.12l.41,1.48c-.61,.25-1.17,.21-1.34-.09-.2-.36,.21-.98,.93-1.39Z"/>
      <path id="Path_260" data-name="Path 260" class="cls-22" d="M101.3,262.79c.43,0,.86,.09,1.27,.26-.38-1.28-1.31-1.33-1.31-1.33"/>
      <path id="Path_261" data-name="Path 261" class="cls-11" d="M110.63,257.73l1.66,2.42c.17,.24,.15,.57-.05,.8l-.3,.35-.3,.35"/>
      <path id="Path_262" data-name="Path 262" class="cls-11" d="M107.61,257.33c.38-.64,1.04-1.06,1.78-1.14"/>
      <path id="Path_263" data-name="Path 263" class="cls-11" d="M113.62,255.2c-.58-.28-1.27-.18-1.76,.24"/>
      <path id="Path_264" data-name="Path 264" class="cls-26" d="M113.6,272.22l-5.45,2.33,2.86,3.48,3.26-5.15-.67-.66Z"/>
      <path id="Path_265" data-name="Path 265" class="cls-26" d="M102.73,271.7l5.41,2.85-2.58,3.33-3.31-5.71,.48-.47Z"/>
      <path id="Path_266" data-name="Path 266" class="cls-49" d="M116.2,411.58l-.46-6.6h12.86l.5,6.6h-12.9Z"/>
      <path id="Path_267" data-name="Path 267" class="cls-48" d="M128.83,407.97l-13.08-2.99h12.86l.23,2.99Z"/>
      <path id="Path_268" data-name="Path 268" class="cls-49" d="M97.12,411.58l.49-6.61h-13.17l-.22,6.6h12.9Z"/>
      <path id="Path_269" data-name="Path 269" class="cls-49" d="M156.46,274.6l-2.01-.27c-.54-.08-1.07,.19-1.32,.68l-1.95,3.67c-.33,.63-.09,1.41,.54,1.75,.12,.06,.24,.11,.37,.13l2.16,.41c.58,.11,1.17-.18,1.42-.72l1.8-3.81c.3-.65,.02-1.42-.62-1.72-.12-.06-.25-.09-.38-.11h0Z"/>
      <path id="Path_270" data-name="Path 270" class="cls-48" d="M97.34,408.66l-12.89-3.68h13.17l-.28,3.68Z"/>
      <path id="Path_271" data-name="Path 271" class="cls-9" d="M101.61,273.5l6.53,10.51,6.44-9.83"/>
      <line id="Line_89" data-name="Line 89" class="cls-15" x1="89.1" y1="299.8" x2="86.61" y2="299.35"/>
      <line id="Line_90" data-name="Line 90" class="cls-15" x1="90.59" y1="297.56" x2="92.12" y2="295.28"/>
      <path id="Path_272" data-name="Path 272" class="cls-51" d="M135.44,417.14h-18.99l-.03-.77-.23-5.12h12.92c1.59,.12,3.08,.8,4.21,1.92,.95,.85,1.63,1.96,1.96,3.2,.08,.25,.13,.51,.16,.77h0Z"/>
      <path id="Path_273" data-name="Path 273" class="cls-27" d="M135.44,417.14h-18.99l-.03-.77h18.85c.08,.25,.13,.51,.16,.77h0Z"/>
      <g id="Group_53" data-name="Group 53">
        <path id="Path_274" data-name="Path 274" class="cls-2" d="M129.5,412.3s-1.64-2.88-2.74-1.74,2.74,1.74,2.74,1.74"/>
        <path id="Path_275" data-name="Path 275" class="cls-2" d="M128.92,412.87l.58-.57s1.64-2.88,2.74-1.74-2.74,1.74-2.74,1.74"/>
        <line id="Line_91" data-name="Line 91" class="cls-2" x1="129.94" y1="412.87" x2="129.5" y2="412.3"/>
      </g>
      <path id="Path_276" data-name="Path 276" class="cls-51" d="M77.99,417.14h18.99l.03-.77,.23-5.12h-12.92c-1.59,.12-3.08,.8-4.21,1.92-.95,.85-1.63,1.96-1.96,3.2-.08,.25-.13,.51-.16,.77h0Z"/>
      <path id="Path_277" data-name="Path 277" class="cls-27" d="M77.99,417.14h18.99l.03-.77h-18.85c-.08,.25-.13,.51-.16,.77h0Z"/>
      <g id="Group_54" data-name="Group 54">
        <path id="Path_278" data-name="Path 278" class="cls-2" d="M83.93,412.47s1.64-2.88,2.74-1.74-2.74,1.74-2.74,1.74"/>
        <path id="Path_279" data-name="Path 279" class="cls-2" d="M84.51,413.05l-.58-.57s-1.64-2.88-2.74-1.74,2.74,1.74,2.74,1.74"/>
        <line id="Line_92" data-name="Line 92" class="cls-2" x1="83.49" y1="413.05" x2="83.93" y2="412.47"/>
      </g>
      <path id="Path_280" data-name="Path 280" class="cls-18" d="M107.74,348.21l.61-5.06,3.1-2.14,2.52-10.28"/>
      <line id="Line_93" data-name="Line 93" class="cls-18" x1="129.11" y1="399.8" x2="116.9" y2="399.8"/>
      <line id="Line_94" data-name="Line 94" class="cls-18" x1="96.43" y1="399.8" x2="84.22" y2="399.8"/>
      <line id="Line_95" data-name="Line 95" class="cls-15" x1="90.38" y1="300.08" x2="105.87" y2="303.21"/>
      <line id="Line_96" data-name="Line 96" class="cls-15" x1="90.38" y1="311.38" x2="98.82" y2="312.01"/>
      <path id="Path_281" data-name="Path 281" class="cls-49" d="M111.17,263.7c.05,.38,.61,.61,1.24,.53s1.11-.46,1.06-.83-.61-.61-1.24-.53-1.11,.46-1.06,.84Z"/>
    </g>
    <g id="Group_59" data-name="Group 59">
      <path id="Path_282" data-name="Path 282" class="cls-32" d="M356.81,186.07l.06-8.61-10.11,1.49,10.05,7.12Z"/>
      <path id="Path_283" data-name="Path 283" class="cls-49" d="M302.11,145.2l-.91-2.68s-1.64-2.56-2.12-3.54c-.39-.76-.87-1.49-1.41-2.16-.18-.14-.72-.08-.77,.13,.11,.85,.3,1.69,.56,2.51l.63,2.38s-3.45-3.14-4.54-4.24c-.61-.63-2.34-2.54-2.81-2.14-.35,.3,1.19,2.46,1.71,3.2,.48,.68,1.9,2.73,1.9,2.73l-3.21-3.33c-.58-.61-2.1-2.64-2.63-2.2s1.11,2.32,1.58,3.01l2.68,3.91-3.44-3.42c-.48-.47-1.71-2.07-2.18-1.63s.97,1.89,1.39,2.42l2.87,3.7-2.55-2.4c-.27-.26-1.11-1-1.35-.72-.33,.38,.72,1.46,1.04,1.86l2.59,3.33c.21,.27,.45,.51,.71,.72l4.39,4.41,5.88-5.84h-.02Z"/>
      <path id="Path_284" data-name="Path 284" class="cls-28" d="M336.18,176.04l-34.21,21.66c-4.88,2.05-7.18,7.66-5.13,12.54s7.66,7.18,12.54,5.13c1.01-.42,1.93-1.01,2.74-1.74l39.43-20.67-15.37-16.92Z"/>
      <path id="Path_285" data-name="Path 285" class="cls-28" d="M296.14,207.86c-.74-5.24,2.91-10.08,8.14-10.82,5.24-.74,10.08,2.91,10.82,8.15,.06,.44,.09,.88,.09,1.33l-.57,42.79h-15.94l-2.55-41.44h0Z"/>
      <path id="Path_286" data-name="Path 286" class="cls-47" d="M354.32,192.77l-21.42,25.63c-3.81,4.52-10.55,5.13-15.1,1.35h0c-4.53-3.81-5.13-10.55-1.35-15.1l21.42-25.63c3.81-4.53,10.55-5.13,15.1-1.35h0c4.53,3.81,5.13,10.55,1.35,15.1Z"/>
      <path id="Path_287" data-name="Path 287" class="cls-36" d="M336.78,134.91l-10.13,4.56,1.4,41.16,28.81,.45,4.36-42.35-14.07-4.58-10.37,.75Z"/>
      <path id="Path_288" data-name="Path 288" class="cls-49" d="M336.79,128.97v6.43s.38,1.39,3.65,1.4c2.38-.17,4.68-.91,6.71-2.16l-1.01-14.06-9.36,8.38Z"/>
      <path id="Path_289" data-name="Path 289" class="cls-41" d="M336.78,134.51l6.66-6.93-6.66-.09v7.02Z"/>
      <path id="Path_290" data-name="Path 290" class="cls-49" d="M334.05,116.03v9.05c0,1.82,.51,4.54,2.57,5.15,2.54,.53,5.17-.38,6.84-2.37,1.97-2.14,6.33-11.79,.26-15.36-3.03-1.92-7.05-1.02-8.97,2.01-.3,.47-.53,.97-.7,1.5h0Z"/>
      <path id="Path_291" data-name="Path 291" class="cls-33" d="M320.31,172.38c-2.13,1.72-5.17,1.7-7.27-.06h0l-18.02-20.85,2.48-2.61,4.54-4.81,.52-.56,18.56,20.9c1.98,2.43,1.62,6.01-.8,8h0Z"/>
      <path id="Path_292" data-name="Path 292" class="cls-47" d="M313.91,210.57c0-5.29,4.29-9.58,9.58-9.58,4.6-.56,8.78,2.72,9.33,7.32,0,.05,.01,.11,.02,.16,2.68,12.25,8.3,44.89,8.3,44.89h-16.6l-10.52-41.44c-.07-.45-.1-.9-.11-1.35h0Z"/>
      <path id="Path_293" data-name="Path 293" class="cls-33" d="M313.64,172.64h0c3.18,1.79,7.22,.68,9.03-2.49l11.95-21.07c1.79-3.18,.68-7.22-2.49-9.03h0c-3.18-1.79-7.22-.68-9.03,2.49l-11.95,21.07c-1.8,3.18-.68,7.22,2.49,9.03Z"/>
      <path id="Path_294" data-name="Path 294" class="cls-51" d="M343.09,112.19s-7.35-3.39-9.04-1.16,1.13,3,1.13,3c0,0-3.5-.42-3.37,1.95s8.91-.86,8.91-.86c0,0-2.91,1.32-1.21,2.36,1.17,.56,2.55,.45,3.6-.3,0,0,1.67,.95,1.4,5.33s2.34,5.35,2.34,5.35c0,0-.3-6.63,.97-8.4s-.61-8.35-4.7-7.24l-.02-.02Z"/>
      <g id="Group_56" data-name="Group 56">
        <path id="Path_295" data-name="Path 295" class="cls-49" d="M344.09,123.5c-.71,1.12-.91,1.9-.03,2.46,1.05,.61,2.39,.29,3.05-.73,.73-.93,.6-2.27-.3-3.03-.88-.56-2.01,.19-2.73,1.31h0Z"/>
        <path id="Path_296" data-name="Path 296" class="cls-7" d="M346.36,123.42c-.67-.02-1.28,.39-1.51,1.02,.42-.08,.84-.08,1.26,0"/>
      </g>
      <path id="Path_297" data-name="Path 297" class="cls-34" d="M339.52,121.17c0,.42-.22,.77-.5,.77s-.5-.34-.5-.77,.22-.77,.5-.77,.5,.33,.5,.77Z"/>
      <path id="Path_298" data-name="Path 298" class="cls-1" d="M339.2,125.98c-.53,.9-1.59,1.34-2.6,1.1"/>
      <path id="Path_299" data-name="Path 299" class="cls-1" d="M337.4,121.46l-.93,2.71c-.09,.27,0,.58,.25,.73l.76,.5"/>
      <path id="Path_300" data-name="Path 300" class="cls-1" d="M340.3,119.89c-.6-.41-1.36-.51-2.04-.27"/>
      <path id="Path_301" data-name="Path 301" class="cls-34" d="M334.39,121.17c0,.42,.22,.77,.5,.77s.5-.34,.5-.77-.22-.77-.5-.77-.5,.33-.5,.77Z"/>
      <path id="Path_302" data-name="Path 302" class="cls-1" d="M333.93,119.85c.48-.41,1.15-.5,1.72-.22"/>
      <path id="Path_303" data-name="Path 303" class="cls-33" d="M367.47,175.05h0c3.54-.93,5.66-4.54,4.75-8.08l-6.08-23.45c-.93-3.54-4.54-5.66-8.08-4.75h0c-3.54,.93-5.66,4.54-4.75,8.08l6.08,23.45c.93,3.54,4.54,5.66,8.08,4.75Z"/>
      <path id="Path_304" data-name="Path 304" class="cls-41" d="M338.72,123.96c.13,.39,.86,.49,1.64,.24s1.29-.78,1.17-1.18-.86-.49-1.64-.24-1.3,.79-1.17,1.18Z"/>
      <path id="Path_305" data-name="Path 305" class="cls-41" d="M334.05,122.77v1.51c.63,.07,1.15-.1,1.24-.43,.09-.39-.46-.87-1.24-1.07h0Z"/>
      <path id="Path_306" data-name="Path 306" class="cls-49" d="M312.71,255.72l.33-6.42h-12.95l-.2,6.42h12.82Z"/>
      <path id="Path_307" data-name="Path 307" class="cls-41" d="M299.98,253.03l13.07-3.73h-12.95l-.12,3.73Z"/>
      <path id="Path_308" data-name="Path 308" class="cls-49" d="M341.23,259.78l-1.06-6.42h-12.64l1.61,6.42h12.09Z"/>
      <path id="Path_309" data-name="Path 309" class="cls-35" d="M338.65,137.94h2.34l.2,.45-1.08,.81h-.91l-.77-.94,.21-.31Z"/>
      <path id="Path_310" data-name="Path 310" class="cls-41" d="M328.3,256.44l11.87-3.08h-12.64l.78,3.08Z"/>
      <path id="Path_311" data-name="Path 311" class="cls-26" d="M347.11,134.09l-7.37,2.73,1.35,3.08,6.36-5.11-.34-.69Z"/>
      <path id="Path_312" data-name="Path 312" class="cls-26" d="M336.79,134.83l-.35,.72,1.91,4.03,1.39-2.78-2.95-1.97Z"/>
      <path id="Path_313" data-name="Path 313" class="cls-35" d="M339.2,139.19l-3.49,27.11,2.73,3.51,3.54-3.18-1.85-27.43h-.92Z"/>
      <line id="Line_97" data-name="Line 97" class="cls-1" x1="354.66" y1="152.55" x2="358.54" y2="168.58"/>
      <line id="Line_98" data-name="Line 98" class="cls-1" x1="327.41" y1="162.28" x2="327.08" y2="152.55"/>
      <path id="Path_314" data-name="Path 314" class="cls-43" d="M341.23,259.78l1.14,4.68h-16.97c-.47-2.06,.81-4.11,2.87-4.58,.28-.06,.57-.1,.85-.1h12.1Z"/>
      <path id="Path_315" data-name="Path 315" class="cls-43" d="M312.7,255.72v5.1h-17.77l.02-.42c.14-2.62,2.3-4.67,4.92-4.67h12.83Z"/>
      <path id="Path_316" data-name="Path 316" class="cls-10" d="M299.64,256.73s-.39-1.69-1.34-1.23,1.28,1.29,1.28,1.29l-1.33,.91"/>
      <path id="Path_317" data-name="Path 317" class="cls-10" d="M299.64,256.73s.39-1.69,1.34-1.23-1.28,1.29-1.28,1.29l1.33,.91"/>
      <path id="Path_318" data-name="Path 318" class="cls-10" d="M329.26,260.98s-.39-1.69-1.34-1.23,1.28,1.29,1.28,1.29l-1.33,.91"/>
      <path id="Path_319" data-name="Path 319" class="cls-10" d="M329.26,260.98s.39-1.69,1.34-1.23-1.28,1.29-1.28,1.29l1.33,.91"/>
      <path id="Path_320" data-name="Path 320" class="cls-33" d="M335.72,135.4s-.69,7.25-1.82,18.2-1.05,28.04-4.58,31.31c-3.74,.47-7.43,1.29-11.02,2.44,1.12-3.78,2.66-7.42,4.59-10.86,2.52-3.94,3.76-37.03,3.76-37.03l9.07-4.07Z"/>
      <path id="Path_321" data-name="Path 321" class="cls-36" d="M335.12,141.53l-.86,8.54,2.73-2.32-.2-6.06-1.67-.16Z"/>
      <path id="Path_322" data-name="Path 322" class="cls-33" d="M349.66,134.98s-2.73,11.74-4.05,22.63c-1.33,10.89-.88,21.42-4.31,27.81,0,0,13.76,2.48,13.73,8.03,2.39-2.85,3.77-6.42,3.91-10.14,.03-5.86,2.29-44.56,2.29-44.56l-11.56-3.77Z"/>
      <g id="Group_58" data-name="Group 58">
        <path id="Path_323" data-name="Path 323" class="cls-45" d="M304.47,196.75h31.19l-8.14-23.35h-31.19l8.14,23.35Z"/>
        <g id="Group_57" data-name="Group 57">
          <path id="Path_324" data-name="Path 324" class="cls-29" d="M335.32,195.62l10.2-9.02h-30.16l-11.21,9.02h31.17Z"/>
          <path id="Path_325" data-name="Path 325" class="cls-45" d="M305.06,196.23h31.18l-8.14-23.35h-31.18l8.13,23.35Z"/>
          <path id="Path_326" data-name="Path 326" class="cls-29" d="M296.92,172.88l-.61,.52h31.18l8.14,23.35,.59-.52-8.14-23.35h-31.16Z"/>
          <path id="Path_327" data-name="Path 327" class="cls-44" d="M345.51,186.6l.34,1.13-10.19,9.02-.4-1.13,10.25-9.02Z"/>
        </g>
        <ellipse id="Ellipse_99" data-name="Ellipse 99" class="cls-29" cx="314.68" cy="185.34" rx="3.46" ry="1.53"/>
      </g>
      <path id="Path_328" data-name="Path 328" class="cls-49" d="M339.2,179.49l4.62,7.93-.03,.02c-2.94,2.05-5.67,4.38-8.16,6.95-.36,.35-.9,.44-1.36,.22l-4.36-2.02c-.68-.31-1.2-.9-1.41-1.62l-.95-3.09c-.07-.22,.06-.46,.29-.53,.07-.02,.15-.02,.22,0l2.48,.69c.36,.1,.73-.08,.88-.41l1.41-2.92-4.01,2.37c-.23,.14-.53,.07-.69-.15l-.22-.3c-.16-.22-.13-.53,.08-.71l6.36-5.15,4.66-1.11s.07-.06,.21-.16h-.01Z"/>
      <path id="Path_329" data-name="Path 329" class="cls-33" d="M371.18,166.03c1.99,2.68,1.46,6.46-1.19,8.48l-25.84,14.81-6.41-11.02,23.95-14.82c3.36-1.53,7.34-.46,9.49,2.54Z"/>
      <path id="Path_330" data-name="Path 330" class="cls-3" d="M344.11,174.38l14.08-8.71-3.06-11.17"/>
    </g>
    <path id="Path_331" data-name="Path 331" class="cls-26" d="M261.78,148.98c-2.3-3.29-6.14-5.16-10.15-4.92l-.38,.03c-6.36,.58-11.05,6.21-10.47,12.57,.15,1.59,.62,3.14,1.39,4.54,.48,.86,1.07,1.66,1.75,2.38h0c.53,.56,1.12,1.07,1.75,1.51,1.53,1.08,2.52,2.77,2.73,4.63h-.54c-.15,0-.29,.06-.39,.17-.02,.02-.04,.04-.05,.06,.29-.03,.55,.18,.58,.48s-.18,.55-.48,.58c-.01,0-.03,0-.04,0l-.03,.03c-.19,.25-.15,.6,.1,.79,.1,.08,.22,.12,.34,.12-.15,0-.29,.06-.39,.17l-.05,.05c-.07,.1-.11,.22-.11,.35,0,.31,.26,.55,.57,.55-.15,0-.29,.06-.39,.17l-.02,.02c-.2,.23-.18,.59,.05,.79,.1,.09,.24,.14,.38,.14h.58c0,.14,.02,.27,.04,.41,.08,.46,.24,.9,.47,1.3h0c.05,.07,.09,.15,.14,.22l.08,.1,.1,.14,.08,.09c.05,.05,.09,.1,.14,.15l.06,.07c.07,.06,.13,.13,.21,.19l.08,.06,.16,.12,.08,.06c.06,.05,.13,.09,.2,.13l.05,.03c.08,.05,.17,.09,.26,.13l.08,.04c.06,.03,.13,.06,.2,.08l.09,.03c.08,.03,.17,.06,.26,.08h.03c.1,.02,.2,.05,.3,.06h.09l.23,.03h1.03c1.87-.03,3.44-1.42,3.7-3.27,0-.07,0-.14,.02-.21s0-.13,0-.19h.53c.31,0,.56-.26,.55-.57h0c0-.31-.26-.55-.57-.55,.31,0,.56-.26,.55-.56,0-.13-.05-.25-.12-.35-.11-.14-.27-.21-.45-.21,.31,0,.56-.26,.55-.57,0-.13-.05-.26-.14-.36-.11-.12-.26-.19-.43-.19,.31,0,.56-.26,.55-.57,0-.12-.04-.24-.12-.33-.11-.14-.28-.22-.45-.22h-.53c.16-1.87,1.1-3.58,2.59-4.71,5.01-3.73,6.15-10.78,2.57-15.9v.02Z"/>
    <path id="Path_332" data-name="Path 332" class="cls-26" d="M152.98,112.42c3.69,5.19,10.59,6.94,16.31,4.14l13.84,19.6,3.4-2.4-13.84-19.6c5.12-5.03,5.18-13.26,.15-18.38-5.03-5.12-13.26-5.18-18.38-.15-4.55,4.47-5.18,11.59-1.48,16.79h0Zm18.95-13.38c3.24,4.59,2.15,10.93-2.44,14.17-4.59,3.24-10.93,2.15-14.17-2.44-3.24-4.59-2.15-10.93,2.44-14.17,4.59-3.22,10.93-2.13,14.18,2.44h0Z"/>
    <g id="Group_61" data-name="Group 61">
      <path id="Rectangle_152" data-name="Rectangle 152" class="cls-33" d="M221.04,379.17h23c8.72,0,15.79,7.07,15.79,15.79h0c0,8.72-7.07,15.79-15.79,15.79h-23c-8.72,0-15.79-7.07-15.79-15.79h0c0-8.72,7.07-15.79,15.79-15.79Z"/>
      <g id="Group_60" data-name="Group 60">
        <path id="Path_333" data-name="Path 333" class="cls-26" d="M222.59,390.24c-.47-.61-1.08-1.09-1.78-1.41-.7-.32-1.46-.49-2.22-.49-.88-.01-1.74,.17-2.54,.53-.74,.34-1.4,.83-1.94,1.44-.55,.63-.98,1.36-1.25,2.14-.3,.85-.45,1.74-.45,2.64,0,.85,.14,1.69,.42,2.48,.27,.76,.68,1.46,1.21,2.06,.54,.6,1.2,1.08,1.94,1.41,.82,.36,1.71,.53,2.6,.52,.87,.02,1.74-.18,2.51-.58,.72-.4,1.35-.96,1.82-1.64l1.9,1.43c-.2,.26-.42,.51-.66,.74-.37,.37-.79,.69-1.24,.96-.59,.35-1.21,.64-1.86,.85-.81,.26-1.66,.38-2.52,.36-1.22,.02-2.44-.24-3.55-.75-3.03-1.43-4.97-4.47-4.98-7.82-.01-1.21,.2-2.42,.63-3.55,.4-1.05,1-2,1.77-2.81,.77-.8,1.7-1.42,2.73-1.84,1.12-.45,2.31-.67,3.51-.66,1.1,0,2.2,.22,3.22,.63,1.02,.4,1.92,1.07,2.59,1.94l-1.88,1.43h.02Z"/>
        <path id="Path_334" data-name="Path 334" class="cls-26" d="M226.95,395.24h5.34v-5.34h1.82v5.34h5.34v1.82h-5.34v5.34h-1.82v-5.34h-5.34v-1.82Z"/>
        <path id="Path_335" data-name="Path 335" class="cls-26" d="M242.55,395.24h5.34v-5.34h1.82v5.34h5.34v1.82h-5.34v5.34h-1.82v-5.34h-5.34v-1.82Z"/>
      </g>
    </g>
    <g id="Group_63" data-name="Group 63">
      <path id="Rectangle_153" data-name="Rectangle 153" class="cls-33" d="M401.76,246.39h11.9c9.58,0,17.35,7.77,17.35,17.35h0c0,9.58-7.77,17.35-17.35,17.35h-11.9c-9.58,0-17.35-7.77-17.35-17.35h0c0-9.58,7.77-17.35,17.35-17.35Z"/>
      <g id="Group_62" data-name="Group 62">
        <path id="Path_336" data-name="Path 336" class="cls-26" d="M404.84,268.94c0,.91-.15,1.81-.45,2.66-.28,.83-.73,1.6-1.32,2.25-.61,.67-1.35,1.19-2.18,1.55-.97,.4-2.01,.6-3.06,.58-1.6,.07-3.19-.38-4.52-1.28-1.27-1.01-2.1-2.47-2.32-4.07l3.88-.91c.1,.7,.43,1.35,.94,1.84,.49,.46,1.14,.71,1.82,.69,.98,.11,1.93-.36,2.42-1.21,.48-1.03,.7-2.17,.64-3.31v-15.61h4.14v16.83h0Z"/>
        <path id="Path_337" data-name="Path 337" class="cls-26" d="M421.27,257.1c-.43-.63-1.05-1.12-1.76-1.4-.74-.3-1.52-.45-2.32-.45-.47,0-.94,.05-1.4,.16-.43,.1-.84,.28-1.21,.53-.36,.24-.66,.56-.87,.94-.23,.42-.34,.89-.33,1.37-.05,.7,.26,1.39,.82,1.82,.62,.46,1.31,.82,2.04,1.08,.81,.3,1.7,.61,2.66,.89,.94,.27,1.83,.67,2.66,1.18,.82,.51,1.51,1.2,2.04,2.01,.6,1.01,.88,2.16,.82,3.33,.03,1.13-.21,2.25-.69,3.27-.44,.9-1.07,1.69-1.86,2.32-.81,.63-1.74,1.1-2.73,1.38-1.06,.31-2.15,.47-3.25,.46-1.42,0-2.84-.24-4.17-.72-1.35-.49-2.54-1.32-3.45-2.42l3.12-3.03c.5,.76,1.18,1.38,1.99,1.79,.81,.42,1.7,.64,2.61,.64,.49,0,.97-.07,1.45-.19,.47-.13,.91-.34,1.32-.61,.39-.26,.71-.6,.95-1,.25-.42,.37-.91,.36-1.4,.05-.75-.26-1.48-.82-1.97-.61-.5-1.3-.89-2.04-1.17-.81-.32-1.7-.62-2.66-.91-.93-.27-1.83-.66-2.66-1.17-.82-.5-1.51-1.17-2.04-1.98-.59-1-.88-2.14-.82-3.3-.03-1.09,.23-2.16,.74-3.12,.48-.86,1.14-1.61,1.94-2.18,.83-.59,1.76-1.03,2.74-1.3,1.03-.29,2.09-.43,3.16-.43,1.21,0,2.41,.19,3.57,.56,1.16,.38,2.22,1,3.11,1.84l-3.03,3.19h.02Z"/>
      </g>
    </g>
    <g id="Group_65" data-name="Group 65">
      <path id="Rectangle_154" data-name="Rectangle 154" class="cls-47" d="M50.68,244.77h14.2c8.68,0,15.71,7.03,15.71,15.71h0c0,8.68-7.03,15.71-15.71,15.71h-14.2c-8.68,0-15.71-7.03-15.71-15.71h0c0-8.68,7.03-15.71,15.71-15.71Z"/>
      <g id="Group_64" data-name="Group 64">
        <path id="Path_338" data-name="Path 338" class="cls-26" d="M37.41,263.28v-2.29l13.21-7.15v3.49l-8.82,4.8,8.82,4.8v3.49l-13.21-7.15h0Z"/>
        <path id="Path_339" data-name="Path 339" class="cls-26" d="M54.66,273.28l-2.17-.95,8.14-24.65,2.17,1.02-8.14,24.58Z"/>
        <path id="Path_340" data-name="Path 340" class="cls-26" d="M78.15,260.99v2.29l-13.21,7.15v-3.49l8.82-4.8-8.82-4.8v-3.5l13.21,7.15Z"/>
      </g>
    </g>
  </g>
</svg>