<svg xmlns="http://www.w3.org/2000/svg" xmlns:xlink="http://www.w3.org/1999/xlink" width="163.383" height="113.984" viewBox="0 0 163.383 113.984">
  <defs>
    <clipPath id="clip-path">
      <path id="Path_246" data-name="Path 246" d="M877.466,1024.863a14.551,14.551,0,1,0-20.564.811A14.552,14.552,0,0,0,877.466,1024.863Z" transform="translate(-852.229 -1000.436)" fill="none"/>
    </clipPath>
  </defs>
  <g id="Group_66" data-name="Group 66" transform="translate(0 2.421)">
    <g id="Group_36" data-name="Group 36" transform="translate(0 92.299)">
      <path id="Path_193" data-name="Path 193" d="M220.19,1796.265s-2.885-11.506-10.076-15.058-14.865,1.31-12.916,6.423c1.681,4.408,8.591-1.012,13.967,1.12a10.376,10.376,0,0,1,6.224,7.515h2.8Z" transform="translate(-196.89 -1779.991)" fill="#40a87b"/>
      <path id="Path_194" data-name="Path 194" d="M219.08,1814.945s7.717-4.4,13.444-.332,7.538,12.033,7.538,12.033" transform="translate(-217.383 -1810.372)" fill="none" stroke="#6adb6a" stroke-miterlimit="10" stroke-width="4.24"/>
      <line id="Line_51" data-name="Line 51" x2="1.796" y2="0.783" transform="translate(2.942 2.517)" fill="none" stroke="#6adb6a" stroke-miterlimit="10" stroke-width="4.24"/>
      <line id="Line_52" data-name="Line 52" x2="3.576" y2="1.677" transform="translate(5.536 0.839)" fill="none" stroke="#6adb6a" stroke-miterlimit="10" stroke-width="4.24"/>
      <line id="Line_53" data-name="Line 53" x2="1.861" y2="2.198" transform="translate(10.909 0.839)" fill="none" stroke="#6adb6a" stroke-miterlimit="10" stroke-width="4.24"/>
      <line id="Line_54" data-name="Line 54" x2="0.836" y2="2.024" transform="translate(14.436 2.312)" fill="none" stroke="#6adb6a" stroke-miterlimit="10" stroke-width="4.24"/>
      <line id="Line_55" data-name="Line 55" y1="4.56" x2="2.757" transform="translate(3.84 2.814)" fill="none" stroke="#6adb6a" stroke-miterlimit="10" stroke-width="4.24"/>
      <line id="Line_56" data-name="Line 56" y1="4.06" x2="2.528" transform="translate(8.709 2.661)" fill="none" stroke="#6adb6a" stroke-miterlimit="10" stroke-width="4.24"/>
      <line id="Line_57" data-name="Line 57" y1="0.473" x2="3.8" transform="translate(13.004 5.626)" fill="none" stroke="#6adb6a" stroke-miterlimit="10" stroke-width="4.24"/>
      <line id="Line_58" data-name="Line 58" x2="2.178" y2="0.715" transform="translate(17.429 8.402)" fill="none" stroke="#6adb6a" stroke-miterlimit="10" stroke-width="4.24"/>
    </g>
    <g id="Group_40" data-name="Group 40" transform="translate(97.447)">
      <path id="Path_195" data-name="Path 195" d="M1520.7,573.35h-48.817c-.578,0-1.046.705-1.046,1.575v36.081h50.909V574.925C1521.749,574.055,1521.28,573.35,1520.7,573.35Z" transform="translate(-1470.84 -573.35)" fill="#e5f0f8"/>
      <rect id="Rectangle_92" data-name="Rectangle 92" width="49.549" height="33.537" transform="translate(0.681 3.539)" fill="#fff"/>
      <g id="Group_37" data-name="Group 37" transform="translate(46.7 0.779)">
        <line id="Line_59" data-name="Line 59" y1="2.07" x2="2.253" fill="none" stroke="#fff" stroke-linecap="round" stroke-linejoin="round" stroke-width="4.53"/>
        <line id="Line_60" data-name="Line 60" x1="2.253" y1="2.07" fill="none" stroke="#fff" stroke-linecap="round" stroke-linejoin="round" stroke-width="4.53"/>
      </g>
      <g id="Group_38" data-name="Group 38" transform="translate(1.658 21.233)">
        <rect id="Rectangle_93" data-name="Rectangle 93" width="47.593" height="3.18" fill="#e5f0f8"/>
        <rect id="Rectangle_94" data-name="Rectangle 94" width="15.441" height="0.708" transform="translate(1.698 1.23)" fill="#fff"/>
        <rect id="Rectangle_95" data-name="Rectangle 95" width="10.456" height="0.708" transform="translate(18.08 1.23)" fill="#fff"/>
        <rect id="Rectangle_96" data-name="Rectangle 96" width="44.18" height="9.084" transform="translate(1.706 4.311)" fill="none" stroke="#e5f0f8" stroke-miterlimit="10" stroke-width="2.61"/>
        <rect id="Rectangle_97" data-name="Rectangle 97" width="3.834" height="9.084" transform="translate(1.706 4.311)" fill="none" stroke="#e5f0f8" stroke-miterlimit="10" stroke-width="2.61"/>
        <rect id="Rectangle_98" data-name="Rectangle 98" width="22.159" height="9.084" transform="translate(5.54 4.311)" fill="none" stroke="#e5f0f8" stroke-miterlimit="10" stroke-width="2.61"/>
        <rect id="Rectangle_99" data-name="Rectangle 99" width="3.496" height="9.084" transform="translate(42.39 4.311)" fill="none" stroke="#e5f0f8" stroke-miterlimit="10" stroke-width="2.61"/>
        <rect id="Rectangle_100" data-name="Rectangle 100" width="3.496" height="9.084" transform="translate(38.893 4.311)" fill="none" stroke="#e5f0f8" stroke-miterlimit="10" stroke-width="2.61"/>
        <rect id="Rectangle_101" data-name="Rectangle 101" width="4.369" height="9.084" transform="translate(34.524 4.311)" fill="none" stroke="#e5f0f8" stroke-miterlimit="10" stroke-width="2.61"/>
        <rect id="Rectangle_102" data-name="Rectangle 102" width="6.825" height="9.084" transform="translate(27.699 4.311)" fill="none" stroke="#e5f0f8" stroke-miterlimit="10" stroke-width="2.61"/>
        <rect id="Rectangle_103" data-name="Rectangle 103" width="44.18" height="2.125" transform="translate(1.706 7.02)" fill="none" stroke="#e5f0f8" stroke-miterlimit="10" stroke-width="2.61"/>
        <rect id="Rectangle_104" data-name="Rectangle 104" width="44.18" height="2.125" transform="translate(1.706 9.145)" fill="none" stroke="#e5f0f8" stroke-miterlimit="10" stroke-width="2.61"/>
        <rect id="Rectangle_105" data-name="Rectangle 105" width="44.18" height="2.125" transform="translate(1.706 11.27)" fill="none" stroke="#e5f0f8" stroke-miterlimit="10" stroke-width="2.61"/>
      </g>
      <g id="Group_39" data-name="Group 39" transform="translate(1.658 5.117)">
        <rect id="Rectangle_106" data-name="Rectangle 106" width="47.593" height="3.18" fill="#e5f0f8"/>
        <rect id="Rectangle_107" data-name="Rectangle 107" width="15.441" height="0.708" transform="translate(1.698 1.23)" fill="#fff"/>
        <rect id="Rectangle_108" data-name="Rectangle 108" width="10.456" height="0.708" transform="translate(18.08 1.23)" fill="#fff"/>
        <rect id="Rectangle_109" data-name="Rectangle 109" width="44.18" height="9.084" transform="translate(1.706 4.31)" fill="none" stroke="#e5f0f8" stroke-miterlimit="10" stroke-width="2.61"/>
        <rect id="Rectangle_110" data-name="Rectangle 110" width="3.834" height="9.084" transform="translate(1.706 4.31)" fill="none" stroke="#e5f0f8" stroke-miterlimit="10" stroke-width="2.61"/>
        <rect id="Rectangle_111" data-name="Rectangle 111" width="22.159" height="9.084" transform="translate(5.54 4.31)" fill="none" stroke="#e5f0f8" stroke-miterlimit="10" stroke-width="2.61"/>
        <rect id="Rectangle_112" data-name="Rectangle 112" width="3.496" height="9.084" transform="translate(42.39 4.31)" fill="none" stroke="#e5f0f8" stroke-miterlimit="10" stroke-width="2.61"/>
        <rect id="Rectangle_113" data-name="Rectangle 113" width="3.496" height="9.084" transform="translate(38.893 4.31)" fill="none" stroke="#e5f0f8" stroke-miterlimit="10" stroke-width="2.61"/>
        <rect id="Rectangle_114" data-name="Rectangle 114" width="4.369" height="9.084" transform="translate(34.524 4.31)" fill="none" stroke="#e5f0f8" stroke-miterlimit="10" stroke-width="2.61"/>
        <rect id="Rectangle_115" data-name="Rectangle 115" width="6.825" height="9.084" transform="translate(27.699 4.31)" fill="none" stroke="#e5f0f8" stroke-miterlimit="10" stroke-width="2.61"/>
        <rect id="Rectangle_116" data-name="Rectangle 116" width="44.18" height="2.125" transform="translate(1.706 7.02)" fill="none" stroke="#e5f0f8" stroke-miterlimit="10" stroke-width="2.61"/>
        <rect id="Rectangle_117" data-name="Rectangle 117" width="44.18" height="2.125" transform="translate(1.706 9.145)" fill="none" stroke="#e5f0f8" stroke-miterlimit="10" stroke-width="2.61"/>
        <rect id="Rectangle_118" data-name="Rectangle 118" width="44.18" height="2.125" transform="translate(1.706 11.27)" fill="none" stroke="#e5f0f8" stroke-miterlimit="10" stroke-width="2.61"/>
      </g>
    </g>
    <g id="Group_41" data-name="Group 41" transform="translate(4.702 74.564)">
      <path id="Path_196" data-name="Path 196" d="M280.37,1582.183s2.035-38.57-16.387-33.6,14.371,25.758,14.343,33.6h2.045Z" transform="translate(-258.366 -1548.14)" fill="#6adb6a"/>
      <path id="Path_197" data-name="Path 197" d="M369.975,1629.586s-.643-20.152-13.775-30.116" transform="translate(-348.716 -1595.544)" fill="none" stroke="#40a87b" stroke-miterlimit="10" stroke-width="4.24"/>
      <line id="Line_61" data-name="Line 61" x1="0.328" y1="6.949" transform="translate(12.915 2.821)" fill="none" stroke="#40a87b" stroke-miterlimit="10" stroke-width="4.24"/>
      <line id="Line_62" data-name="Line 62" x2="8.876" y2="1.157" transform="translate(2.941 6.89)" fill="none" stroke="#40a87b" stroke-miterlimit="10" stroke-width="4.24"/>
      <line id="Line_63" data-name="Line 63" x2="9.386" y2="1.094" transform="translate(6.392 12.821)" fill="none" stroke="#40a87b" stroke-miterlimit="10" stroke-width="4.24"/>
      <line id="Line_64" data-name="Line 64" x2="7.249" y2="1.024" transform="translate(11.085 18.698)" fill="none" stroke="#40a87b" stroke-miterlimit="10" stroke-width="4.24"/>
      <line id="Line_65" data-name="Line 65" x1="1.661" y2="4.036" transform="translate(17.368 13.207)" fill="none" stroke="#40a87b" stroke-miterlimit="10" stroke-width="4.24"/>
      <line id="Line_66" data-name="Line 66" x1="1.417" y2="5.683" transform="translate(14.883 6.656)" fill="none" stroke="#40a87b" stroke-miterlimit="10" stroke-width="4.24"/>
      <line id="Line_67" data-name="Line 67" x1="1.324" y2="2.638" transform="translate(19.256 19.946)" fill="none" stroke="#40a87b" stroke-miterlimit="10" stroke-width="4.24"/>
      <line id="Line_68" data-name="Line 68" x2="5.195" y2="1.638" transform="translate(14.883 24.147)" fill="none" stroke="#40a87b" stroke-miterlimit="10" stroke-width="4.24"/>
    </g>
    <g id="Group_44" data-name="Group 44" transform="translate(33.226 24.98)">
      <path id="Path_198" data-name="Path 198" d="M663.6,899.92l4.41,8.817H733.06v66.837H631.26V908.736h11.4V899.92Z" transform="translate(-631.26 -899.92)" fill="#93acbf"/>
      <path id="Path_199" data-name="Path 199" d="M690.219,899.92l4.41,8.817H759.68v66.837H657.88V908.736h11.4V899.92Z" transform="translate(-655.844 -899.92)" fill="#bbdbf3"/>
      <g id="Group_43" data-name="Group 43" transform="translate(4.851 14.524)">
        <g id="Group_42" data-name="Group 42" transform="translate(33.019 7.669)">
          <path id="Path_200" data-name="Path 200" d="M1155.743,1206.731H1149.6v-8.482a8.189,8.189,0,1,0-16.378,0v8.482h-6.139a.736.736,0,0,0-.737.734v22.517a.734.734,0,0,0,.737.734h28.656a.734.734,0,0,0,.737-.734v-22.517a.736.736,0,0,0-.737-.734Zm-19.922-8.482a5.594,5.594,0,1,1,11.188,0v8.482h-11.188Z" transform="translate(-1126.35 -1190.06)" fill="#fff"/>
          <path id="Path_201" data-name="Path 201" d="M1301.335,1516.953a1.983,1.983,0,1,0-2.91,1.752v4.352a.927.927,0,1,0,1.854,0V1518.7A1.982,1.982,0,0,0,1301.335,1516.953Z" transform="translate(-1284.288 -1490.117)" fill="#bbdbf3"/>
        </g>
        <path id="Path_202" data-name="Path 202" d="M1419.15,1117.5h12.925V1105.25h21.591" transform="translate(-1363.734 -1104.068)" fill="none" stroke="#fff" stroke-miterlimit="10" stroke-width="3.8"/>
        <path id="Path_203" data-name="Path 203" d="M1419.15,1263.036h23.515v-5.3h11.767" transform="translate(-1363.734 -1244.893)" fill="none" stroke="#fff" stroke-miterlimit="10" stroke-width="3.8"/>
        <line id="Line_69" data-name="Line 69" x2="16.004" transform="translate(61.516 25.646)" fill="none" stroke="#fff" stroke-miterlimit="10" stroke-width="3.8"/>
        <path id="Path_204" data-name="Path 204" d="M1506.59,1429.686h10v2.379H1529.3v-6.995h8.355" transform="translate(-1444.485 -1399.424)" fill="none" stroke="#fff" stroke-miterlimit="10" stroke-width="3.8"/>
        <path id="Path_205" data-name="Path 205" d="M1491.87,1573.89h10.54v5.509H1525" transform="translate(-1430.891 -1536.861)" fill="none" stroke="#fff" stroke-miterlimit="10" stroke-width="3.8"/>
        <path id="Path_206" data-name="Path 206" d="M1498.89,1688.48h5.413v6.12h19.408v3.662" transform="translate(-1437.374 -1642.685)" fill="none" stroke="#fff" stroke-miterlimit="10" stroke-width="3.8"/>
        <path id="Path_207" data-name="Path 207" d="M810.756,1117.5H797.831V1105.25H776.24" transform="translate(-770.001 -1104.068)" fill="none" stroke="#fff" stroke-miterlimit="10" stroke-width="3.8"/>
        <path id="Path_208" data-name="Path 208" d="M801.493,1263.036H777.977v-5.3H766.21" transform="translate(-760.739 -1244.893)" fill="none" stroke="#fff" stroke-miterlimit="10" stroke-width="3.8"/>
        <line id="Line_70" data-name="Line 70" x1="16.004" transform="translate(18.65 25.646)" fill="none" stroke="#fff" stroke-miterlimit="10" stroke-width="3.8"/>
        <path id="Path_209" data-name="Path 209" d="M764.966,1429.686h-10v2.379H742.255v-6.995H733.9" transform="translate(-730.9 -1399.424)" fill="none" stroke="#fff" stroke-miterlimit="10" stroke-width="3.8"/>
        <path id="Path_210" data-name="Path 210" d="M754.723,1573.89h-10.54v5.509H721.59" transform="translate(-719.532 -1536.861)" fill="none" stroke="#fff" stroke-miterlimit="10" stroke-width="3.8"/>
        <path id="Path_211" data-name="Path 211" d="M848.051,1688.48h-5.413v6.12H823.23v3.662" transform="translate(-813.397 -1642.685)" fill="none" stroke="#fff" stroke-miterlimit="10" stroke-width="3.8"/>
        <line id="Line_71" data-name="Line 71" y2="9.065" transform="translate(58.96 47.081)" fill="none" stroke="#fff" stroke-miterlimit="10" stroke-width="3.8"/>
        <path id="Path_212" data-name="Path 212" d="M1337.938,1692.68v5.5h-3.648v4.533" transform="translate(-1285.365 -1646.564)" fill="none" stroke="#fff" stroke-miterlimit="10" stroke-width="3.8"/>
        <line id="Line_72" data-name="Line 72" y2="8.67" transform="translate(42.49 46.619)" fill="none" stroke="#fff" stroke-miterlimit="10" stroke-width="3.8"/>
        <path id="Path_213" data-name="Path 213" d="M1165.07,1705.3v5.186h3.589v5.414" transform="translate(-1129.089 -1658.219)" fill="none" stroke="#fff" stroke-miterlimit="10" stroke-width="3.8"/>
        <circle id="Ellipse_64" data-name="Ellipse 64" cx="0.853" cy="0.853" r="0.853" transform="translate(89.785 1.811) rotate(-76.72)" fill="none" stroke="#fff" stroke-miterlimit="10" stroke-width="3.8"/>
        <circle id="Ellipse_65" data-name="Ellipse 65" cx="0.853" cy="0.853" r="0.853" transform="translate(90.443 13.475) rotate(-76.72)" fill="none" stroke="#fff" stroke-miterlimit="10" stroke-width="3.8"/>
        <circle id="Ellipse_66" data-name="Ellipse 66" cx="0.853" cy="0.853" r="0.853" transform="translate(77.166 26.274) rotate(-76.72)" fill="none" stroke="#fff" stroke-miterlimit="10" stroke-width="3.8"/>
        <circle id="Ellipse_67" data-name="Ellipse 67" cx="0.853" cy="0.853" r="0.853" transform="translate(92.887 26.273) rotate(-76.72)" fill="none" stroke="#fff" stroke-miterlimit="10" stroke-width="3.8"/>
        <circle id="Ellipse_68" data-name="Ellipse 68" cx="0.853" cy="0.853" r="0.853" transform="translate(93.76 42.538) rotate(-45)" fill="none" stroke="#fff" stroke-miterlimit="10" stroke-width="3.8"/>
        <circle id="Ellipse_69" data-name="Ellipse 69" cx="0.853" cy="0.853" r="0.853" transform="translate(85.129 56.433) rotate(-45)" fill="none" stroke="#fff" stroke-miterlimit="10" stroke-width="3.8"/>
        <circle id="Ellipse_70" data-name="Ellipse 70" cx="0.853" cy="0.853" r="0.853" transform="translate(57.931 57.462) rotate(-76.72)" fill="none" stroke="#fff" stroke-miterlimit="10" stroke-width="3.8"/>
        <circle id="Ellipse_71" data-name="Ellipse 71" cx="0.853" cy="0.853" r="0.853" transform="translate(41.462 56.609) rotate(-76.72)" fill="none" stroke="#fff" stroke-miterlimit="10" stroke-width="3.8"/>
        <circle id="Ellipse_72" data-name="Ellipse 72" cx="0.853" cy="0.853" r="0.853" transform="translate(8.713 55.976) rotate(-22.66)" fill="none" stroke="#fff" stroke-miterlimit="10" stroke-width="3.8"/>
        <circle id="Ellipse_73" data-name="Ellipse 73" cx="0.853" cy="0.853" r="0.853" transform="translate(47.719 56.835) rotate(-45)" fill="none" stroke="#fff" stroke-miterlimit="10" stroke-width="3.8"/>
        <circle id="Ellipse_74" data-name="Ellipse 74" cx="0.853" cy="0.853" r="0.853" transform="translate(38.365 58.542) rotate(-45)" fill="none" stroke="#fff" stroke-miterlimit="10" stroke-width="3.8"/>
        <circle id="Ellipse_75" data-name="Ellipse 75" cx="0.853" cy="0.853" r="0.853" transform="translate(0 42.538) rotate(-45)" fill="none" stroke="#fff" stroke-miterlimit="10" stroke-width="3.8"/>
        <circle id="Ellipse_76" data-name="Ellipse 76" cx="0.853" cy="0.853" r="0.853" transform="translate(1.394 26.35) rotate(-80.75)" fill="none" stroke="#fff" stroke-miterlimit="10" stroke-width="3.8"/>
        <circle id="Ellipse_77" data-name="Ellipse 77" cx="0.853" cy="0.853" r="0.853" transform="translate(3.426 12.665) rotate(-36.49)" fill="none" stroke="#fff" stroke-miterlimit="10" stroke-width="3.8"/>
        <circle id="Ellipse_78" data-name="Ellipse 78" cx="0.853" cy="0.853" r="0.853" transform="translate(4.299 0.904) rotate(-32.01)" fill="none" stroke="#fff" stroke-miterlimit="10" stroke-width="3.8"/>
        <circle id="Ellipse_79" data-name="Ellipse 79" cx="0.853" cy="0.853" r="0.853" transform="translate(16.806 26.285) rotate(-76.65)" fill="none" stroke="#fff" stroke-miterlimit="10" stroke-width="3.8"/>
      </g>
    </g>
    <g id="Group_45" data-name="Group 45" transform="translate(138.087 90.903)">
      <path id="Path_214" data-name="Path 214" d="M2002.14,1779.41s3.132-12.493,10.938-16.348,16.139,1.423,14.023,6.973c-1.824,4.786-9.326-1.1-15.163,1.215a11.263,11.263,0,0,0-6.756,8.16h-3.041Z" transform="translate(-2002.14 -1761.742)" fill="#40a87b"/>
      <path id="Path_215" data-name="Path 215" d="M2033.719,1799.691s-8.378-4.775-14.595-.36-8.184,13.063-8.184,13.063" transform="translate(-2010.267 -1794.726)" fill="none" stroke="#6adb6a" stroke-miterlimit="10" stroke-width="4.6"/>
      <line id="Line_73" data-name="Line 73" x1="1.95" y2="0.85" transform="translate(20.151 2.731)" fill="none" stroke="#6adb6a" stroke-miterlimit="10" stroke-width="4.6"/>
      <line id="Line_74" data-name="Line 74" x1="3.883" y2="1.821" transform="translate(15.402 0.911)" fill="none" stroke="#6adb6a" stroke-miterlimit="10" stroke-width="4.6"/>
      <line id="Line_75" data-name="Line 75" x1="2.02" y2="2.386" transform="translate(11.432 0.911)" fill="none" stroke="#6adb6a" stroke-miterlimit="10" stroke-width="4.6"/>
      <line id="Line_76" data-name="Line 76" x1="0.908" y2="2.198" transform="translate(8.715 2.51)" fill="none" stroke="#6adb6a" stroke-miterlimit="10" stroke-width="4.6"/>
      <line id="Line_77" data-name="Line 77" x1="2.992" y1="4.951" transform="translate(18.133 3.055)" fill="none" stroke="#6adb6a" stroke-miterlimit="10" stroke-width="4.6"/>
      <line id="Line_78" data-name="Line 78" x1="2.745" y1="4.407" transform="translate(13.095 2.888)" fill="none" stroke="#6adb6a" stroke-miterlimit="10" stroke-width="4.6"/>
      <line id="Line_79" data-name="Line 79" x1="4.126" y1="0.512" transform="translate(7.051 6.108)" fill="none" stroke="#6adb6a" stroke-miterlimit="10" stroke-width="4.6"/>
      <line id="Line_80" data-name="Line 80" x1="2.365" y2="0.776" transform="translate(4.008 9.12)" fill="none" stroke="#6adb6a" stroke-miterlimit="10" stroke-width="4.6"/>
    </g>
    <g id="Group_46" data-name="Group 46" transform="translate(134.317 71.649)">
      <path id="Path_216" data-name="Path 216" d="M1952.916,1546.99s-2.21-41.874,17.791-36.478-15.6,27.964-15.571,36.478h-2.22Z" transform="translate(-1952.844 -1510.033)" fill="#6adb6a"/>
      <path id="Path_217" data-name="Path 217" d="M1964.35,1598.446s.7-21.878,14.955-32.7" transform="translate(-1963.47 -1561.488)" fill="none" stroke="#40a87b" stroke-miterlimit="10" stroke-width="4.6"/>
      <line id="Line_81" data-name="Line 81" y1="7.544" x2="0.356" transform="translate(9.583 3.062)" fill="none" stroke="#40a87b" stroke-miterlimit="10" stroke-width="4.6"/>
      <line id="Line_82" data-name="Line 82" x1="9.636" y2="1.256" transform="translate(11.132 7.48)" fill="none" stroke="#40a87b" stroke-miterlimit="10" stroke-width="4.6"/>
      <line id="Line_83" data-name="Line 83" x1="10.189" y2="1.186" transform="translate(6.832 13.919)" fill="none" stroke="#40a87b" stroke-miterlimit="10" stroke-width="4.6"/>
      <line id="Line_84" data-name="Line 84" x1="7.87" y2="1.112" transform="translate(4.057 20.299)" fill="none" stroke="#40a87b" stroke-miterlimit="10" stroke-width="4.6"/>
      <line id="Line_85" data-name="Line 85" x2="1.804" y2="4.382" transform="translate(3.302 14.337)" fill="none" stroke="#40a87b" stroke-miterlimit="10" stroke-width="4.6"/>
      <line id="Line_86" data-name="Line 86" x2="1.538" y2="6.17" transform="translate(6.265 7.225)" fill="none" stroke="#40a87b" stroke-miterlimit="10" stroke-width="4.6"/>
      <line id="Line_87" data-name="Line 87" x2="1.437" y2="2.865" transform="translate(1.618 21.653)" fill="none" stroke="#40a87b" stroke-miterlimit="10" stroke-width="4.6"/>
      <line id="Line_88" data-name="Line 88" x1="5.639" y2="1.778" transform="translate(2.164 26.214)" fill="none" stroke="#40a87b" stroke-miterlimit="10" stroke-width="4.6"/>
    </g>
    <g id="Group_47" data-name="Group 47" transform="translate(105.59 65.805)">
      <ellipse id="Ellipse_80" data-name="Ellipse 80" cx="15.445" cy="4.513" rx="15.445" ry="4.513" transform="translate(0 33.498)" fill="#93acbf"/>
      <rect id="Rectangle_119" data-name="Rectangle 119" width="30.89" height="6.386" transform="translate(0 31.626)" fill="#93acbf"/>
      <ellipse id="Ellipse_81" data-name="Ellipse 81" cx="15.445" cy="4.513" rx="15.445" ry="4.513" transform="translate(0 27.113)" fill="#586773"/>
      <path id="Path_218" data-name="Path 218" d="M1607.11,1783.557v5.113a.627.627,0,0,0,.379.577c2.778,1.2,7.468,1.982,12.786,1.982s10.007-.786,12.784-1.982a.627.627,0,0,0,.379-.577v-5.113a.627.627,0,0,0-.627-.627h-25.073A.627.627,0,0,0,1607.11,1783.557Z" transform="translate(-1604.829 -1756.212)" fill="#2ec6fc"/>
      <ellipse id="Ellipse_82" data-name="Ellipse 82" cx="15.445" cy="4.513" rx="15.445" ry="4.513" transform="translate(0 24.296)" fill="#93acbf"/>
      <rect id="Rectangle_120" data-name="Rectangle 120" width="30.89" height="6.386" transform="translate(0 22.424)" fill="#93acbf"/>
      <ellipse id="Ellipse_83" data-name="Ellipse 83" cx="15.445" cy="4.513" rx="15.445" ry="4.513" transform="translate(0 17.911)" fill="#586773"/>
      <path id="Path_219" data-name="Path 219" d="M1607.11,1664.66v4.943a.728.728,0,0,0,.441.671c2.785,1.181,7.445,1.955,12.724,1.955s9.937-.774,12.722-1.955a.727.727,0,0,0,.441-.671v-4.943a.73.73,0,0,0-.73-.73H1607.84A.73.73,0,0,0,1607.11,1664.66Z" transform="translate(-1604.829 -1646.314)" fill="#2ec6fc"/>
      <ellipse id="Ellipse_84" data-name="Ellipse 84" cx="15.445" cy="4.513" rx="15.445" ry="4.513" transform="translate(0 15.307)" fill="#93acbf"/>
      <rect id="Rectangle_121" data-name="Rectangle 121" width="30.89" height="6.386" transform="translate(0 13.434)" fill="#93acbf"/>
      <path id="Path_220" data-name="Path 220" d="M1577.291,1554.765c0,.865.834,1.674,2.28,2.361,2.717,1.29,7.6,2.151,13.165,2.151s10.445-.859,13.163-2.151c1.446-.688,2.282-1.5,2.282-2.361a1.321,1.321,0,0,0-.051-.365c-.2-.728-.988-1.407-2.231-2-2.718-1.292-7.6-2.153-13.163-2.153s-10.447.861-13.165,2.153c-1.24.59-2.032,1.268-2.23,2a1.35,1.35,0,0,0-.051.365Z" transform="translate(-1577.29 -1541.33)" fill="#586773"/>
      <path id="Path_221" data-name="Path 221" d="M1607.11,1542.873v4.722c2.717,1.292,7.6,2.153,13.165,2.153s10.445-.861,13.163-2.153v-4.722a20.133,20.133,0,0,0-4.738-1.424,49,49,0,0,0-16.848,0A20.146,20.146,0,0,0,1607.11,1542.873Z" transform="translate(-1604.829 -1532.529)" fill="#586773"/>
      <path id="Path_222" data-name="Path 222" d="M1607.091,1550.9v5.074a.65.65,0,0,0,.393.6c2.779,1.193,7.463,1.976,12.772,1.976s9.991-.783,12.77-1.976a.649.649,0,0,0,.392-.6V1550.9a.651.651,0,0,0-.651-.651H1607.74a.651.651,0,0,0-.651.651Z" transform="translate(-1604.81 -1541.33)" fill="#2ec6fc"/>
      <ellipse id="Ellipse_85" data-name="Ellipse 85" cx="15.445" cy="4.513" rx="15.445" ry="4.513" transform="translate(0 6.386)" fill="#93acbf"/>
      <rect id="Rectangle_122" data-name="Rectangle 122" width="30.89" height="6.386" transform="translate(0 4.513)" fill="#93acbf"/>
      <ellipse id="Ellipse_86" data-name="Ellipse 86" cx="15.445" cy="4.513" rx="15.445" ry="4.513" transform="translate(0)" fill="#e5f0f8"/>
      <circle id="Ellipse_87" data-name="Ellipse 87" cx="0.584" cy="0.584" r="0.584" transform="translate(7.657 10.861) rotate(-45)" fill="#bbdbf3"/>
      <circle id="Ellipse_88" data-name="Ellipse 88" cx="0.584" cy="0.584" r="0.584" transform="translate(3.951 9.506)" fill="#bbdbf3"/>
      <circle id="Ellipse_89" data-name="Ellipse 89" cx="0.584" cy="0.584" r="0.584" transform="translate(5.924 9.988)" fill="#2ec6fc"/>
      <circle id="Ellipse_90" data-name="Ellipse 90" cx="0.584" cy="0.584" r="0.584" transform="translate(7.899 18.683)" fill="#bbdbf3"/>
      <circle id="Ellipse_91" data-name="Ellipse 91" cx="0.584" cy="0.584" r="0.584" transform="translate(3.828 18.067) rotate(-13.28)" fill="#586773"/>
      <circle id="Ellipse_92" data-name="Ellipse 92" cx="0.584" cy="0.584" r="0.584" transform="translate(5.745 19.294) rotate(-67.5)" fill="#bbdbf3"/>
      <circle id="Ellipse_93" data-name="Ellipse 93" cx="0.584" cy="0.584" r="0.584" transform="translate(7.776 27.882) rotate(-13.28)" fill="#586773"/>
      <circle id="Ellipse_94" data-name="Ellipse 94" cx="0.584" cy="0.584" r="0.584" transform="translate(3.951 26.953)" fill="#2ec6fc"/>
      <circle id="Ellipse_95" data-name="Ellipse 95" cx="0.584" cy="0.584" r="0.584" transform="translate(5.924 27.435)" fill="#bbdbf3"/>
      <circle id="Ellipse_96" data-name="Ellipse 96" cx="0.584" cy="0.584" r="0.584" transform="translate(7.899 36.767)" fill="#2ec6fc"/>
      <circle id="Ellipse_97" data-name="Ellipse 97" cx="0.584" cy="0.584" r="0.584" transform="translate(3.951 35.994)" fill="#bbdbf3"/>
      <circle id="Ellipse_98" data-name="Ellipse 98" cx="0.584" cy="0.584" r="0.584" transform="translate(5.924 36.477)" fill="#2ec6fc"/>
    </g>
    <g id="Group_48" data-name="Group 48" transform="translate(8.013 0.191)">
      <path id="Path_223" data-name="Path 223" d="M339.1,584.5l-14.145-8.652a10.692,10.692,0,0,1-4.558,1.014h0a10.675,10.675,0,0,1-4.558-1.014L301.7,584.5s-1.923,28.75,18.7,37.419h0C341.026,613.252,339.1,584.5,339.1,584.5Z" transform="translate(-301.649 -575.85)" fill="#f9e181"/>
      <path id="Path_224" data-name="Path 224" d="M370.1,626.333l-11.861-7.252a11.012,11.012,0,0,1-4.082.776h0a10.978,10.978,0,0,1-4.081-.776l-11.859,7.254a50.688,50.688,0,0,0,1.489,13.223,33.679,33.679,0,0,0,4.83,10.985,23.107,23.107,0,0,0,9.621,8.042h0a23.1,23.1,0,0,0,9.622-8.043,33.656,33.656,0,0,0,4.828-10.986,50.655,50.655,0,0,0,1.491-13.223Z" transform="translate(-335.41 -615.773)" fill="#f9ecb8"/>
      <path id="Path_225" data-name="Path 225" d="M472.069,741.84l-7.515,12.942-.066.114-3.722-5.651L458.3,750.87l5.035,7.641,1.235-.034,1.274-.036,8.777-15.118Z" transform="translate(-446.317 -729.143)" fill="#6adb6a"/>
    </g>
    <rect id="Rectangle_123" data-name="Rectangle 123" width="131.758" height="3.216" rx="1.608" transform="translate(16.537 108.347)" fill="#0775ef"/>
    <g id="Group_55" data-name="Group 55" transform="translate(22.901 30.192)">
      <path id="Path_226" data-name="Path 226" d="M627.358,1312.721l-3.968-.067.207-4.167.1-1.993.005-.1,3.1-1.3.1,1.408.075,1.026Z" transform="translate(-613.667 -1279.309)" fill="#fdae97"/>
      <path id="Path_227" data-name="Path 227" d="M553.218,1555.978l-1.669,13.813a3.175,3.175,0,0,0,3.75,3.594c1.725-.335,2.385-1.667,2.695-3.647.594-3.8,2.672-15.208,2.672-15.208Z" transform="translate(-547.287 -1509.669)" fill="#088cfc"/>
      <path id="Path_228" data-name="Path 228" d="M641.259,1564.37l-6.129.412.03,6.791.728,1.076.674,6.546,6.205-.5Z" transform="translate(-624.509 -1518.756)" fill="#088cfc"/>
      <path id="Path_229" data-name="Path 229" d="M497.163,1389.953l.021.014a2,2,0,0,0,2.769-.556l4.957-7.45a2,2,0,0,0-.556-2.769l-.021-.014a2,2,0,0,0-2.769.556l-4.957,7.45A2,2,0,0,0,497.163,1389.953Z" transform="translate(-496.275 -1347.422)" fill="#f74242"/>
      <path id="Path_230" data-name="Path 230" d="M807.84,1382.359l-1.634,2.186-2.126-1.295,2.4-2.36,1.736.319Z" transform="translate(-780.535 -1349.311)" fill="#e89780"/>
      <path id="Path_231" data-name="Path 231" d="M739.288,1404.771a1.981,1.981,0,0,0,2.729-.544l2.5-4.576.884-1.622.924-1.688-1.537-1.062-1.092-.753-.105-.074-1.121,1.664-1.03,1.525-3.031,4.489a1.988,1.988,0,0,0,.876,2.644Z" transform="translate(-719.686 -1361.834)" fill="#f74242"/>
      <path id="Path_232" data-name="Path 232" d="M622.055,1365.124a2.478,2.478,0,0,0,2.263-.976l-.545-.246-3.6-.181-.433.139a2.578,2.578,0,0,0,2.315,1.264Z" transform="translate(-610.296 -1333.454)" fill="#fdae97"/>
      <path id="Path_233" data-name="Path 233" d="M583.272,1374.367l.086,5.954H572.15l.133-15.012,3.846-1.39c.043.079.089.161.147.248l.015.018c.208.265.607.517,1.724.542a2.915,2.915,0,0,0,1.645-.277l0,0a1,1,0,0,0,.288-.306l3.631.8-.244,7.577-.065,1.846Z" transform="translate(-566.346 -1333.639)" fill="#f74242"/>
      <path id="Path_234" data-name="Path 234" d="M536.8,1732.861l5.766,0,1.738-13.418a3.182,3.182,0,1,0-6.328-.665,3.079,3.079,0,0,0-.013.45l-1,11.777-.159,1.86h0Z" transform="translate(-533.7 -1658.718)" fill="#088cfc"/>
      <path id="Path_235" data-name="Path 235" d="M694.064,1387.816h0a2.034,2.034,0,0,1-2.728-.886l-4.071-7.986a2.034,2.034,0,0,1,.886-2.728h0a2.034,2.034,0,0,1,2.728.886l4.071,7.986A2.034,2.034,0,0,1,694.064,1387.816Z" transform="translate(-672.453 -1344.791)" fill="#f74242"/>
      <g id="Group_52" data-name="Group 52" transform="translate(8.591)">
        <path id="Path_236" data-name="Path 236" d="M848.449,997.592a17.038,17.038,0,1,0-24.076-.947,17.054,17.054,0,0,0,24.076.947Zm-22.867-2.069a15.388,15.388,0,1,1,21.748.86A15.388,15.388,0,0,1,825.583,995.523Z" transform="translate(-803.696 -968.052)" fill="#93acbf"/>
        <path id="Path_237" data-name="Path 237" d="M867.1,1016.169a15.39,15.39,0,1,0-21.748-.86A15.39,15.39,0,0,0,867.1,1016.169Zm-21.132-1.427a14.551,14.551,0,1,1,20.564.811A14.551,14.551,0,0,1,845.969,1014.742Z" transform="translate(-823.466 -987.838)" fill="#586773"/>
        <path id="Path_238" data-name="Path 238" d="M856.093,1024.863a14.551,14.551,0,1,1,20.564.811A14.552,14.552,0,0,1,856.093,1024.863Z" transform="translate(-833.591 -997.959)" fill="#e5f0f8"/>
        <path id="Path_239" data-name="Path 239" d="M802.9,1337.081l-.646-.662,6.743-6.229.605.7Z" transform="translate(-787.436 -1302.489)" fill="#93acbf"/>
        <path id="Path_240" data-name="Path 240" d="M608.883,1419.662a.042.042,0,0,0-.007-.008,1.1,1.1,0,0,1,.061-1.554l13.98-12.92.481.493.3.3.351.362.409.42-14.023,12.962A1.1,1.1,0,0,1,608.883,1419.662Z" transform="translate(-608.584 -1371.743)" fill="#586773"/>
        <path id="Path_241" data-name="Path 241" d="M612.5,1429.239l.012-.011,14.8-13.678.351.362.409.42-14.023,12.962A1.1,1.1,0,0,1,612.5,1429.239Z" transform="translate(-612.2 -1381.32)" fill="#93acbf"/>
        <g id="Group_51" data-name="Group 51" transform="translate(18.637 2.477)" clip-path="url(#clip-path)">
          <g id="Group_49" data-name="Group 49" transform="translate(4.354 5.841)">
            <path id="Path_242" data-name="Path 242" d="M909.15,1078.11v-.318l1.834-.993v.485l-1.225.666,1.225.666v.485l-1.834-.993Z" transform="translate(-909.15 -1076.8)" fill="#6adb6a"/>
            <path id="Path_243" data-name="Path 243" d="M1376.37,1410.892v-.485l1.225-.666-1.225-.666v-.485l1.834.993v.318l-1.834.993Z" transform="translate(-1340.631 -1383.211)" fill="#6adb6a"/>
            <rect id="Rectangle_124" data-name="Rectangle 124" width="7.294" height="0.75" transform="translate(2.514 0.777)" fill="#6adb6a"/>
            <rect id="Rectangle_125" data-name="Rectangle 125" width="7.294" height="0.75" transform="translate(0 3.673)" fill="#6adb6a"/>
            <rect id="Rectangle_126" data-name="Rectangle 126" width="7.294" height="0.75" transform="translate(1.554 5.69)" fill="#6adb6a"/>
            <rect id="Rectangle_127" data-name="Rectangle 127" width="7.294" height="0.75" transform="translate(1.554 11.243)" fill="#6adb6a"/>
            <rect id="Rectangle_128" data-name="Rectangle 128" width="7.294" height="0.75" transform="translate(1.554 12.961)" fill="#6adb6a"/>
            <rect id="Rectangle_129" data-name="Rectangle 129" width="21.998" height="0.75" transform="translate(4.06 7.612)" fill="#6adb6a"/>
            <rect id="Rectangle_130" data-name="Rectangle 130" width="29.388" height="0.75" transform="translate(4.06 14.785)" fill="#6adb6a"/>
            <rect id="Rectangle_131" data-name="Rectangle 131" width="29.388" height="0.75" transform="translate(4.06 20.53)" fill="#6adb6a"/>
            <rect id="Rectangle_132" data-name="Rectangle 132" width="28.155" height="0.75" transform="translate(6.824 26.155)" fill="#6adb6a"/>
            <rect id="Rectangle_133" data-name="Rectangle 133" width="6.295" height="0.75" transform="translate(4.06 22.483)" fill="#6adb6a"/>
            <rect id="Rectangle_134" data-name="Rectangle 134" width="6.295" height="0.75" transform="translate(4.06 24.34)" fill="#6adb6a"/>
            <rect id="Rectangle_135" data-name="Rectangle 135" width="29.388" height="0.75" transform="translate(4.06 16.619)" fill="#6adb6a"/>
            <rect id="Rectangle_136" data-name="Rectangle 136" width="15.9" height="0.75" transform="translate(4.06 18.454)" fill="#6adb6a"/>
            <rect id="Rectangle_137" data-name="Rectangle 137" width="6.746" height="0.75" transform="translate(4.06 9.339)" fill="#6adb6a"/>
          </g>
          <g id="Group_50" data-name="Group 50" transform="translate(4.354 -22.088)">
            <path id="Path_244" data-name="Path 244" d="M909.15,712.98v-.317l1.834-.993v.485l-1.225.666,1.225.666v.485l-1.834-.993Z" transform="translate(-909.15 -711.67)" fill="#6adb6a"/>
            <path id="Path_245" data-name="Path 245" d="M1376.37,1045.753v-.485l1.225-.666-1.225-.666v-.485l1.834.993v.317l-1.834.993Z" transform="translate(-1340.631 -1018.072)" fill="#6adb6a"/>
            <rect id="Rectangle_138" data-name="Rectangle 138" width="7.294" height="0.75" transform="translate(2.514 0.776)" fill="#6adb6a"/>
            <rect id="Rectangle_139" data-name="Rectangle 139" width="7.294" height="0.75" transform="translate(0 3.672)" fill="#6adb6a"/>
            <rect id="Rectangle_140" data-name="Rectangle 140" width="7.294" height="0.75" transform="translate(1.554 5.689)" fill="#6adb6a"/>
            <rect id="Rectangle_141" data-name="Rectangle 141" width="7.294" height="0.75" transform="translate(1.554 11.242)" fill="#6adb6a"/>
            <rect id="Rectangle_142" data-name="Rectangle 142" width="7.294" height="0.75" transform="translate(1.554 12.96)" fill="#6adb6a"/>
            <rect id="Rectangle_143" data-name="Rectangle 143" width="21.998" height="0.75" transform="translate(4.06 7.611)" fill="#6adb6a"/>
            <rect id="Rectangle_144" data-name="Rectangle 144" width="29.388" height="0.75" transform="translate(4.06 14.785)" fill="#6adb6a"/>
            <rect id="Rectangle_145" data-name="Rectangle 145" width="29.388" height="0.75" transform="translate(4.06 20.53)" fill="#6adb6a"/>
            <rect id="Rectangle_146" data-name="Rectangle 146" width="28.155" height="0.75" transform="translate(6.824 26.155)" fill="#6adb6a"/>
            <rect id="Rectangle_147" data-name="Rectangle 147" width="6.295" height="0.75" transform="translate(4.06 22.483)" fill="#6adb6a"/>
            <rect id="Rectangle_148" data-name="Rectangle 148" width="6.295" height="0.75" transform="translate(4.06 24.34)" fill="#6adb6a"/>
            <rect id="Rectangle_149" data-name="Rectangle 149" width="29.388" height="0.75" transform="translate(4.06 16.619)" fill="#6adb6a"/>
            <rect id="Rectangle_150" data-name="Rectangle 150" width="15.9" height="0.75" transform="translate(4.06 18.453)" fill="#6adb6a"/>
            <rect id="Rectangle_151" data-name="Rectangle 151" width="6.746" height="0.75" transform="translate(4.06 9.338)" fill="#6adb6a"/>
          </g>
        </g>
      </g>
      <path id="Path_247" data-name="Path 247" d="M664.324,1271.583s.031-1.373-.345-1.373S663.714,1271.579,664.324,1271.583Z" transform="translate(-650.95 -1247.097)" fill="#332b27"/>
      <path id="Path_248" data-name="Path 248" d="M629.649,1367.656l-1.645,2.6-1.724-2.866c.208.266.607.517,1.724.542a2.914,2.914,0,0,0,1.645-.277Z" transform="translate(-616.336 -1336.844)" fill="#d6eaff"/>
      <path id="Path_249" data-name="Path 249" d="M636.731,1506.345c-.024.174-1.069.4-1.844.317-.657-.069-2.156-.392-2.6-.49l.165-2.1a5.38,5.38,0,0,0,.8-.089c.61-.122,2.308-.266,2.327-.019s-1.124.576-1.033.674a4.175,4.175,0,0,0,1.368,0c.382-.05,1.179-.29,1.334-.13s-.014.444-.014.444.294-.127.34.071-.363.511-.363.511.154-.089.15.141-.772.488-.772.488a.143.143,0,0,1,.133.182Z" transform="translate(-621.886 -1462.849)" fill="#fdae97"/>
      <path id="Path_250" data-name="Path 250" d="M653.421,1713.243l1.481,13.945h5.664l-.908-14.022a3.79,3.79,0,0,0-.047-.466,3.059,3.059,0,0,0-3.3-2.907,3.185,3.185,0,0,0-2.891,3.448Z" transform="translate(-641.39 -1653.046)" fill="#088cfc"/>
      <path id="Path_251" data-name="Path 251" d="M508.744,1477.01l-2-.4-1.815-.364-4.843-.974a2.1,2.1,0,0,0-.555,4.135l5.056.373,1.837.138,1.9.141.427-3.044Z" transform="translate(-497.828 -1436.458)" fill="#f74242"/>
      <path id="Path_252" data-name="Path 252" d="M644.87,1337.127l-2.231-1.627,2.121.108Z" transform="translate(-631.444 -1307.393)" fill="#ea9d85"/>
      <path id="Path_253" data-name="Path 253" d="M618.462,1262.443l.6,2.2.207.754c.164.6.239,1.525-.375,1.914a2.394,2.394,0,0,1-2.443-.158c-.834-.522-3.123-3.278-1.463-4.986a2.2,2.2,0,0,1,3.469.279Z" transform="translate(-605.368 -1238.973)" fill="#fdae97"/>
      <path id="Path_254" data-name="Path 254" d="M608.742,1254.2s.623-1.229,1.164-1.137-.032.569-.032.569,1.794-.472,2.4.693-2.231.816-2.231.816.561.7,0,.766a1.041,1.041,0,0,1-.818-.171s.56,1.037.248,1.367.073,1.266.422,1.532a1.138,1.138,0,0,0,1.263-.087,1.169,1.169,0,0,1,.649-.334c.179-.02.6.087.784.058a.7.7,0,0,0,.254-.135,3.119,3.119,0,0,1,.1.448,1.216,1.216,0,0,1-1.2,1.51,2.727,2.727,0,0,1-2.736-1.576l-.172.766A2.684,2.684,0,0,0,608.2,1258c-.471-.422-1.063-2.376-.21-3.129,0,0-.733.419-.639-.1.071-.4,1.392-.57,1.392-.57Z" transform="translate(-598.845 -1231.255)" fill="#332b27"/>
      <path id="Path_255" data-name="Path 255" d="M614.6,1313.7c.161.418.171.691-.157.818a.768.768,0,0,1-.96-.449.74.74,0,0,1,.3-.986c.329-.126.654.2.815.617Z" transform="translate(-604.456 -1286.669)" fill="#fdae97"/>
      <path id="Path_256" data-name="Path 256" d="M650.023,1299.547c.038.138.141.23.23.206s.131-.157.093-.294-.142-.23-.23-.206S649.986,1299.409,650.023,1299.547Z" transform="translate(-638.25 -1273.914)" fill="#332b27"/>
      <path id="Path_257" data-name="Path 257" d="M667.963,1294.608c.038.138,0,.27-.093.294s-.193-.067-.23-.206,0-.27.093-.294S667.925,1294.47,667.963,1294.608Z" transform="translate(-654.518 -1269.435)" fill="#332b27"/>
      <path id="Path_258" data-name="Path 258" d="M644.8,1310.77c-.008.139-.237.239-.513.223s-.492-.14-.485-.278.237-.239.512-.223S644.8,1310.631,644.8,1310.77Z" transform="translate(-632.513 -1284.296)" fill="#e89780"/>
      <path id="Path_259" data-name="Path 259" d="M671.44,1303.62l.135.49c-.2.081-.385.07-.443-.03C671.066,1303.961,671.2,1303.756,671.44,1303.62Z" transform="translate(-657.741 -1277.952)" fill="#e89780"/>
      <path id="Path_260" data-name="Path 260" d="M619.086,1319.446a1.162,1.162,0,0,1,.418.085c-.126-.424-.434-.44-.434-.44" transform="translate(-609.677 -1292.239)" fill="none" stroke="#ea9d85" stroke-linecap="round" stroke-linejoin="round" stroke-width="1.35"/>
      <path id="Path_261" data-name="Path 261" d="M659.52,1301.93l.548.8a.213.213,0,0,1-.016.263l-.1.114-.1.116" transform="translate(-647.033 -1276.391)" fill="none" stroke="#332b27" stroke-miterlimit="10" stroke-width="0.87"/>
      <path id="Path_262" data-name="Path 262" d="M646.53,1295.675a.766.766,0,0,1,.587-.375" transform="translate(-635.037 -1270.268)" fill="none" stroke="#332b27" stroke-miterlimit="10" stroke-width="0.87"/>
      <path id="Path_263" data-name="Path 263" d="M665.451,1290.361a.534.534,0,0,0-.581.08" transform="translate(-651.974 -1265.658)" fill="none" stroke="#332b27" stroke-miterlimit="10" stroke-width="0.87"/>
      <path id="Path_264" data-name="Path 264" d="M650.62,1364.43l-1.8.77.945,1.149,1.077-1.7Z" transform="translate(-637.151 -1334.11)" fill="#fff"/>
      <path id="Path_265" data-name="Path 265" d="M623.549,1362.21l1.786.94-.852,1.1-1.093-1.886Z" transform="translate(-613.667 -1332.06)" fill="#fff"/>
      <path id="Path_266" data-name="Path 266" d="M681.771,1939.519l-.151-2.179h4.244l.166,2.179Z" transform="translate(-667.443 -1863.197)" fill="#fdae97"/>
      <path id="Path_267" data-name="Path 267" d="M685.939,1938.327l-4.319-.987h4.244Z" transform="translate(-667.443 -1863.197)" fill="#ea9d85"/>
      <path id="Path_268" data-name="Path 268" d="M549.848,1939.482l.163-2.182-4.347,0-.073,2.179Z" transform="translate(-541.818 -1863.16)" fill="#fdae97"/>
      <path id="Path_269" data-name="Path 269" d="M835.627,1373.592l-.664-.09a.428.428,0,0,0-.437.223l-.645,1.212a.427.427,0,0,0,.3.62l.714.137a.43.43,0,0,0,.47-.238l.594-1.258a.428.428,0,0,0-.331-.606Z" transform="translate(-808.01 -1342.484)" fill="#fdae97"/>
      <path id="Path_270" data-name="Path 270" d="M550.806,1938.517l-4.256-1.214,4.347,0Z" transform="translate(-542.704 -1863.16)" fill="#ea9d85"/>
      <path id="Path_271" data-name="Path 271" d="M620.63,1369.98l2.156,3.468,2.127-3.244" transform="translate(-611.118 -1339.236)" fill="none" stroke="#fff" stroke-linecap="round" stroke-linejoin="round" stroke-width="0.7"/>
      <line id="Line_89" data-name="Line 89" x1="0.822" y1="0.15" transform="translate(4.561 39.276)" fill="none" stroke="#322a28" stroke-linecap="round" stroke-linejoin="round" stroke-width="0.7"/>
      <line id="Line_90" data-name="Line 90" y1="0.754" x2="0.503" transform="translate(5.874 37.932)" fill="none" stroke="#322a28" stroke-linecap="round" stroke-linejoin="round" stroke-width="0.7"/>
      <path id="Path_272" data-name="Path 272" d="M689.885,1966.334h-6.267l-.011-.255-.077-1.689h4.264a2.234,2.234,0,0,1,1.39.633,2.137,2.137,0,0,1,.646,1.056,1.521,1.521,0,0,1,.054.255Z" transform="translate(-669.206 -1888.178)" fill="#322a28"/>
      <path id="Path_273" data-name="Path 273" d="M690.818,1986.725h-6.267l-.011-.255h6.223a1.533,1.533,0,0,1,.054.255Z" transform="translate(-670.139 -1908.569)" fill="#fff1f0"/>
      <g id="Group_53" data-name="Group 53" transform="translate(17.744 75.897)">
        <path id="Path_274" data-name="Path 274" d="M729.222,1960.93s-.542-.951-.906-.574.906.574.906.574" transform="translate(-728.25 -1960.268)" fill="none" stroke="#fff1f0" stroke-linecap="round" stroke-linejoin="round" stroke-width="1.07"/>
        <path id="Path_275" data-name="Path 275" d="M738.47,1961.119l.19-.189s.542-.951.906-.574-.906.574-.906.574" transform="translate(-737.688 -1960.268)" fill="none" stroke="#fff1f0" stroke-linecap="round" stroke-linejoin="round" stroke-width="1.07"/>
        <line id="Line_91" data-name="Line 91" x1="0.145" y1="0.189" transform="translate(0.972 0.663)" fill="none" stroke="#fff1f0" stroke-linecap="round" stroke-linejoin="round" stroke-width="1.07"/>
      </g>
      <path id="Path_276" data-name="Path 276" d="M518.67,1966.334h6.267l.011-.255.077-1.689H520.76a2.235,2.235,0,0,0-1.39.633,2.137,2.137,0,0,0-.646,1.056,1.521,1.521,0,0,0-.053.255Z" transform="translate(-516.957 -1888.178)" fill="#322a28"/>
      <path id="Path_277" data-name="Path 277" d="M518.67,1986.725h6.267l.011-.255h-6.223a1.521,1.521,0,0,0-.053.255Z" transform="translate(-516.957 -1908.569)" fill="#fff1f0"/>
      <g id="Group_54" data-name="Group 54" transform="translate(2.703 75.954)">
        <path id="Path_278" data-name="Path 278" d="M544.32,1961.68s.542-.951.906-.574-.906.574-.906.574" transform="translate(-543.348 -1961.018)" fill="none" stroke="#fff1f0" stroke-linecap="round" stroke-linejoin="round" stroke-width="1.07"/>
        <path id="Path_279" data-name="Path 279" d="M532.772,1961.879l-.191-.189s-.542-.951-.906-.574.906.574.906.574" transform="translate(-531.61 -1961.027)" fill="none" stroke="#fff1f0" stroke-linecap="round" stroke-linejoin="round" stroke-width="1.07"/>
        <line id="Line_92" data-name="Line 92" y1="0.19" x2="0.145" transform="translate(0.827 0.663)" fill="none" stroke="#fff1f0" stroke-linecap="round" stroke-linejoin="round" stroke-width="1.07"/>
      </g>
      <path id="Path_280" data-name="Path 280" d="M647.07,1622.708l.2-1.67,1.024-.707.833-3.392" transform="translate(-635.535 -1567.305)" fill="none" stroke="#fff" stroke-miterlimit="10" stroke-width="1.55"/>
      <line id="Line_93" data-name="Line 93" x1="4.03" transform="translate(14.557 72.434)" fill="none" stroke="#fff" stroke-miterlimit="10" stroke-width="1.55"/>
      <line id="Line_94" data-name="Line 94" x1="4.03" transform="translate(3.772 72.434)" fill="none" stroke="#fff" stroke-miterlimit="10" stroke-width="1.55"/>
      <line id="Line_95" data-name="Line 95" x2="5.112" y2="1.035" transform="translate(5.804 39.517)" fill="none" stroke="#322a28" stroke-linecap="round" stroke-linejoin="round" stroke-width="0.7"/>
      <line id="Line_96" data-name="Line 96" x2="2.787" y2="0.207" transform="translate(5.804 43.249)" fill="none" stroke="#322a28" stroke-linecap="round" stroke-linejoin="round" stroke-width="0.7"/>
      <path id="Path_281" data-name="Path 281" d="M661.865,1324.288c.016.124.2.2.408.174s.366-.151.349-.275-.2-.2-.408-.175S661.848,1324.164,661.865,1324.288Z" transform="translate(-649.198 -1296.78)" fill="#fdae97"/>
    </g>
    <g id="Group_59" data-name="Group 59" transform="translate(93.621 7.055)">
      <path id="Path_282" data-name="Path 282" d="M1681.8,958.343l.019-2.843-3.337.493Z" transform="translate(-1658.771 -933.323)" fill="#2d628c"/>
      <path id="Path_283" data-name="Path 283" d="M1425.8,777.288l-.3-.883s-.542-.844-.7-1.17a4.214,4.214,0,0,0-.464-.712c-.061-.046-.237-.028-.253.044a4.919,4.919,0,0,0,.184.827l.207.787s-1.14-1.036-1.5-1.4c-.2-.207-.772-.839-.926-.706-.117.1.393.811.565,1.056.158.225.627.9.627.9l-1.06-1.1c-.193-.2-.692-.87-.868-.727s.365.766.522.994l.886,1.29-1.135-1.128c-.157-.156-.564-.682-.72-.537s.321.624.459.8l.948,1.222-.843-.793c-.09-.085-.366-.329-.447-.239-.109.124.239.481.342.613l.856,1.1a1.418,1.418,0,0,0,.236.238l1.45,1.455,1.94-1.928Z" transform="translate(-1420.826 -765.756)" fill="#fdae97"/>
      <path id="Path_284" data-name="Path 284" d="M1473.118,949.39l-11.291,7.15a3.162,3.162,0,1,0,3.348,5.257l13.016-6.823Z" transform="translate(-1456.897 -927.681)" fill="#0775ef"/>
      <path id="Path_285" data-name="Path 285" d="M1459.645,1043.178a3.161,3.161,0,1,1,6.291-.445l-.187,14.125h-5.263l-.841-13.68Z" transform="translate(-1456.643 -1010.963)" fill="#0775ef"/>
      <path id="Path_286" data-name="Path 286" d="M1550.306,951.5l-7.072,8.459a3.55,3.55,0,0,1-4.985.445h0a3.549,3.549,0,0,1-.445-4.985l7.072-8.459a3.549,3.549,0,0,1,4.985-.445h0a3.549,3.549,0,0,1,.445,4.985Z" transform="translate(-1528.099 -924.268)" fill="#088cfc"/>
      <path id="Path_287" data-name="Path 287" d="M1595.095,768.929l-3.345,1.506.461,13.588,9.51.148,1.44-13.978-4.644-1.512Z" transform="translate(-1578.676 -760.794)" fill="#e5f0f8"/>
      <path id="Path_288" data-name="Path 288" d="M1635.5,712.857v2.122s.127.458,1.206.463a4.927,4.927,0,0,0,2.215-.712l-.333-4.64Z" transform="translate(-1619.079 -706.685)" fill="#fdae97"/>
      <path id="Path_289" data-name="Path 289" d="M1635.48,742.237l2.2-2.288-2.2-.029Z" transform="translate(-1619.061 -734.234)" fill="#e89780"/>
      <path id="Path_290" data-name="Path 290" d="M1623.69,672.082v2.988c0,.6.169,1.5.847,1.7a2.335,2.335,0,0,0,2.258-.781c.649-.708,2.091-3.893.086-5.069a2.145,2.145,0,0,0-3.192,1.159Z" transform="translate(-1608.172 -670.179)" fill="#fdae97"/>
      <path id="Path_291" data-name="Path 291" d="M1463.532,818.466a1.888,1.888,0,0,1-2.4-.019h0l-5.948-6.883.817-.861,1.5-1.588.173-.185,6.125,6.9a1.881,1.881,0,0,1-.265,2.64Z" transform="translate(-1452.552 -797.965)" fill="#f9e181"/>
      <path id="Path_292" data-name="Path 292" d="M1536.76,1060.223a3.163,3.163,0,0,1,3.163-3.163,2.769,2.769,0,0,1,3.087,2.471c.885,4.045,2.741,14.817,2.741,14.817h-5.48l-3.474-13.68a3.186,3.186,0,0,1-.035-.445Z" transform="translate(-1527.892 -1027.115)" fill="#088cfc"/>
      <path id="Path_293" data-name="Path 293" d="M1522.254,801.4h0a2.194,2.194,0,0,0,2.982-.823l3.946-6.955a2.194,2.194,0,0,0-.823-2.982h0a2.194,2.194,0,0,0-2.982.823l-3.945,6.955A2.193,2.193,0,0,0,1522.254,801.4Z" transform="translate(-1513.474 -780.813)" fill="#f9e181"/>
      <path id="Path_294" data-name="Path 294" d="M1617.728,666.214s-2.426-1.119-2.985-.384.373.991.373.991-1.156-.137-1.111.643,2.94-.284,2.94-.284-.96.435-.4.779a1.171,1.171,0,0,0,1.189-.1s.55.314.461,1.76.773,1.765.773,1.765-.1-2.189.32-2.774-.2-2.756-1.552-2.39Z" transform="translate(-1599.226 -665.58)" fill="#322a28"/>
      <g id="Group_56" data-name="Group 56" transform="translate(18.624 3.874)">
        <path id="Path_295" data-name="Path 295" d="M1664.5,716.724c-.236.369-.3.628-.009.812a.749.749,0,0,0,1.006-.242.723.723,0,0,0-.1-1c-.289-.185-.664.063-.9.431Z" transform="translate(-1664.295 -716.229)" fill="#fdae97"/>
        <path id="Path_296" data-name="Path 296" d="M1670.761,722.311a.522.522,0,0,0-.5.337,1.13,1.13,0,0,1,.416,0" transform="translate(-1669.804 -721.844)" fill="none" stroke="#e89780" stroke-miterlimit="10" stroke-width="0.7"/>
      </g>
      <path id="Path_297" data-name="Path 297" d="M1643.3,709.543c0,.14-.073.253-.164.253s-.164-.113-.164-.253.073-.253.164-.253S1643.3,709.4,1643.3,709.543Z" transform="translate(-1625.978 -705.946)" fill="#2c3447"/>
      <path id="Path_298" data-name="Path 298" d="M1635.5,733.36a.786.786,0,0,1-.859.363" transform="translate(-1618.285 -728.175)" fill="none" stroke="#2c3447" stroke-miterlimit="10" stroke-width="0.87"/>
      <path id="Path_299" data-name="Path 299" d="M1634.289,713.86l-.308.893a.208.208,0,0,0,.083.242l.252.164" transform="translate(-1617.666 -710.167)" fill="none" stroke="#2c3447" stroke-miterlimit="10" stroke-width="0.87"/>
      <path id="Path_300" data-name="Path 300" d="M1642.484,705.424a.747.747,0,0,0-.674-.088" transform="translate(-1624.906 -702.248)" fill="none" stroke="#2c3447" stroke-miterlimit="10" stroke-width="0.87"/>
      <path id="Path_301" data-name="Path 301" d="M1625.14,709.543c0,.14.073.253.164.253s.164-.113.164-.253-.073-.253-.164-.253S1625.14,709.4,1625.14,709.543Z" transform="translate(-1609.511 -705.946)" fill="#2c3447"/>
      <path id="Path_302" data-name="Path 302" d="M1623.15,705.385a.521.521,0,0,1,.568-.074" transform="translate(-1607.674 -702.223)" fill="none" stroke="#2c3447" stroke-miterlimit="10" stroke-width="0.87"/>
      <path id="Path_303" data-name="Path 303" d="M1710.639,799.731h0a2.193,2.193,0,0,0,1.568-2.666l-2.007-7.741a2.193,2.193,0,0,0-2.666-1.568h0a2.193,2.193,0,0,0-1.568,2.666l2.007,7.741A2.193,2.193,0,0,0,1710.639,799.731Z" transform="translate(-1684.091 -778.346)" fill="#f9e181"/>
      <path id="Path_304" data-name="Path 304" d="M1643.761,719.426c.043.129.285.163.54.078s.427-.259.385-.388-.285-.163-.54-.078S1643.718,719.3,1643.761,719.426Z" transform="translate(-1626.702 -714.906)" fill="#e89780"/>
      <path id="Path_305" data-name="Path 305" d="M1623.69,719.54v.5c.209.024.38-.034.409-.142.031-.129-.151-.287-.409-.353Z" transform="translate(-1608.172 -715.412)" fill="#e89780"/>
      <path id="Path_306" data-name="Path 306" d="M1480.5,1267.688l.109-2.118h-4.275l-.067,2.118Z" transform="translate(-1472.029 -1219.675)" fill="#fdae97"/>
      <path id="Path_307" data-name="Path 307" d="M1476.64,1266.8l4.314-1.231h-4.275Z" transform="translate(-1472.371 -1219.675)" fill="#e89780"/>
      <path id="Path_308" data-name="Path 308" d="M1600.042,1285.188l-.35-2.118h-4.173l.531,2.118Z" transform="translate(-1582.157 -1235.837)" fill="#fdae97"/>
      <path id="Path_309" data-name="Path 309" d="M1642.663,784.99h.774l.067.147-.356.266h-.3l-.254-.311Z" transform="translate(-1625.627 -775.856)" fill="#f74242"/>
      <path id="Path_310" data-name="Path 310" d="M1595.776,1284.087l3.917-1.017h-4.173Z" transform="translate(-1582.157 -1235.837)" fill="#e89780"/>
      <path id="Path_311" data-name="Path 311" d="M1650.673,768.36l-2.433.9.444,1.016,2.1-1.687Z" transform="translate(-1630.845 -760.498)" fill="#fff"/>
      <path id="Path_312" data-name="Path 312" d="M1634.087,771.58l-.117.239.631,1.33.46-.919Z" transform="translate(-1617.666 -763.472)" fill="#fff"/>
      <path id="Path_313" data-name="Path 313" d="M1631.993,790.39l-1.153,8.948.9,1.158,1.168-1.051-.61-9.055Z" transform="translate(-1614.776 -780.843)" fill="#f74242"/>
      <line id="Line_97" data-name="Line 97" x2="1.28" y2="5.289" transform="translate(22.321 13.958)" fill="none" stroke="#2c3447" stroke-miterlimit="10" stroke-width="0.87"/>
      <line id="Line_98" data-name="Line 98" x1="0.109" y1="3.21" transform="translate(13.216 13.958)" fill="none" stroke="#2c3447" stroke-miterlimit="10" stroke-width="0.87"/>
      <path id="Path_314" data-name="Path 314" d="M1591.172,1310.76l.375,1.544h-5.6a1.262,1.262,0,0,1,1.23-1.544Z" transform="translate(-1573.287 -1261.409)" fill="#403534"/>
      <path id="Path_315" data-name="Path 315" d="M1460.8,1293.26v1.682h-5.865l.007-.139a1.626,1.626,0,0,1,1.624-1.542h4.233Z" transform="translate(-1452.33 -1245.247)" fill="#403534"/>
      <path id="Path_316" data-name="Path 316" d="M1468.878,1292.4s-.128-.558-.443-.407.423.427.423.427l-.439.3" transform="translate(-1464.721 -1244.056)" fill="none" stroke="#fff" stroke-linecap="round" stroke-linejoin="round" stroke-width="0.46"/>
      <path id="Path_317" data-name="Path 317" d="M1475.17,1292.4s.128-.558.443-.407-.423.427-.423.427l.439.3" transform="translate(-1471.013 -1244.056)" fill="none" stroke="#fff" stroke-linecap="round" stroke-linejoin="round" stroke-width="0.46"/>
      <path id="Path_318" data-name="Path 318" d="M1596.7,1310.732s-.128-.558-.443-.407.423.427.423.427l-.439.3" transform="translate(-1582.764 -1260.983)" fill="none" stroke="#fff" stroke-linecap="round" stroke-linejoin="round" stroke-width="0.46"/>
      <path id="Path_319" data-name="Path 319" d="M1602.99,1310.732s.128-.558.443-.407-.423.427-.423.427l.439.3" transform="translate(-1589.056 -1260.983)" fill="none" stroke="#fff" stroke-linecap="round" stroke-linejoin="round" stroke-width="0.46"/>
      <path id="Path_320" data-name="Path 320" d="M1561.46,774.05s-.229,2.393-.6,6.007-.346,9.254-1.513,10.336a19.834,19.834,0,0,0-3.637.807,17.533,17.533,0,0,1,1.515-3.584c.833-1.3,1.242-12.223,1.242-12.223Z" transform="translate(-1545.392 -765.753)" fill="#f9e181"/>
      <path id="Path_321" data-name="Path 321" d="M1624.883,800.48l-.283,2.818.9-.766-.065-2Z" transform="translate(-1609.013 -790.161)" fill="#e5f0f8"/>
      <path id="Path_322" data-name="Path 322" d="M1657.692,772.2s-.9,3.875-1.338,7.469-.291,7.069-1.424,9.179c0,0,4.542.817,4.531,2.649a5.527,5.527,0,0,0,1.291-3.346c.01-1.934.756-14.708.756-14.708Z" transform="translate(-1637.023 -764.044)" fill="#f9e181"/>
      <g id="Group_58" data-name="Group 58" transform="translate(3.067 20.668)">
        <path id="Path_323" data-name="Path 323" d="M1463.606,945.717H1473.9l-2.686-7.707H1460.92Z" transform="translate(-1460.92 -937.839)" fill="#a5bbd6"/>
        <g id="Group_57" data-name="Group 57">
          <path id="Path_324" data-name="Path 324" d="M1504.863,997.937l3.366-2.977h-9.955l-3.7,2.977Z" transform="translate(-1491.996 -990.433)" fill="#89a5c7"/>
          <path id="Path_325" data-name="Path 325" d="M1466.155,943.487h10.293l-2.686-7.707H1463.47Z" transform="translate(-1463.275 -935.78)" fill="#a5bbd6"/>
          <path id="Path_326" data-name="Path 326" d="M1461.115,935.78l-.2.171h10.293l2.686,7.707.194-.171-2.686-7.707Z" transform="translate(-1460.92 -935.78)" fill="#89a5c7"/>
          <path id="Path_327" data-name="Path 327" d="M1632.274,994.96l.112.374-3.365,2.977-.131-.374Z" transform="translate(-1616.041 -990.433)" fill="#586773"/>
        </g>
        <ellipse id="Ellipse_99" data-name="Ellipse 99" cx="1.141" cy="0.505" rx="1.141" ry="0.505" transform="translate(4.915 3.607)" fill="#89a5c7"/>
      </g>
      <path id="Path_328" data-name="Path 328" d="M1599.384,964.291l1.524,2.618-.009.005a18.562,18.562,0,0,0-2.695,2.295.4.4,0,0,1-.448.073l-1.439-.668a.867.867,0,0,1-.467-.535l-.315-1.02a.14.14,0,0,1,.168-.175l.818.229a.25.25,0,0,0,.292-.135l.465-.965-1.325.783a.173.173,0,0,1-.227-.048l-.073-.1a.174.174,0,0,1,.028-.235l2.1-1.7,1.538-.366s.024-.019.07-.052Z" transform="translate(-1582.166 -941.441)" fill="#fdae97"/>
      <path id="Path_329" data-name="Path 329" d="M1650.677,893.049a2.012,2.012,0,0,1-.393,2.8l-8.529,4.889-2.115-3.636,7.906-4.892A2.552,2.552,0,0,1,1650.677,893.049Z" transform="translate(-1622.903 -874.642)" fill="#f9e181"/>
      <path id="Path_330" data-name="Path 330" d="M1667.08,863.013l4.648-2.876-1.009-3.687" transform="translate(-1648.243 -841.85)" fill="none" stroke="#322a28" stroke-miterlimit="10" stroke-width="1.2"/>
    </g>
    <path id="Path_331" data-name="Path 331" d="M1227.931,812.9a3.811,3.811,0,0,0-3.351-1.624l-.126.009a3.818,3.818,0,0,0-2.995,5.647,3.878,3.878,0,0,0,.576.786h0a3.864,3.864,0,0,0,.579.5,2.171,2.171,0,0,1,.9,1.527l-.177,0a.183.183,0,0,0-.13.056.159.159,0,0,0-.017.021.176.176,0,1,1,.023.351l-.009.011a.186.186,0,0,0,.145.3.181.181,0,0,0-.13.057l-.015.018a.193.193,0,0,0-.037.114.186.186,0,0,0,.188.182.18.18,0,0,0-.13.057l-.006.007a.185.185,0,0,0,.142.307l.191,0a1.348,1.348,0,0,0,.013.135,1.238,1.238,0,0,0,.156.428h0c.015.024.03.048.046.072l.025.034.034.045.026.031c.015.017.029.033.045.048l.021.022c.022.021.044.043.068.063l.025.021.054.041.028.02c.021.015.044.029.066.042l.017.01c.028.016.056.031.085.044l.027.012c.021.01.044.019.067.028l.03.011c.028.01.056.019.086.027l.01,0c.032.008.065.015.1.021l.029,0,.076.009.031,0c.034,0,.07,0,.1,0l.209,0a1.251,1.251,0,0,0,1.22-1.081c0-.024,0-.047.006-.07s0-.043,0-.064h0l.174,0a.185.185,0,0,0,.183-.187.188.188,0,0,0-.188-.183.184.184,0,0,0,.141-.3.188.188,0,0,0-.148-.07.186.186,0,0,0,.183-.188.179.179,0,0,0-.047-.12.185.185,0,0,0-.141-.063.187.187,0,0,0,.183-.188.178.178,0,0,0-.039-.11.185.185,0,0,0-.15-.072l-.176,0a2.177,2.177,0,0,1,.854-1.554,3.816,3.816,0,0,0,.848-5.248Z" transform="translate(-1142.649 -793.067)" fill="#fff"/>
    <path id="Path_332" data-name="Path 332" d="M832.809,593.058a4.287,4.287,0,0,0,5.383,1.365l4.57,6.47,1.121-.792-4.57-6.47a4.29,4.29,0,1,0-6.506-.574Zm6.255-4.418a3.357,3.357,0,1,1-4.679-.806A3.367,3.367,0,0,1,839.065,588.64Z" transform="translate(-783.44 -585.291)" fill="#fff"/>
    <g id="Group_61" data-name="Group 61" transform="translate(66.623 95.815)">
      <rect id="Rectangle_152" data-name="Rectangle 152" width="18.015" height="10.422" rx="5.211" fill="#f9e181"/>
      <g id="Group_60" data-name="Group 60" transform="translate(1.57 2.335)">
        <path id="Path_333" data-name="Path 333" d="M1092.553,1857.811a1.522,1.522,0,0,0-.587-.464,1.744,1.744,0,0,0-.734-.162,1.976,1.976,0,0,0-.839.174,1.918,1.918,0,0,0-.642.476,2.164,2.164,0,0,0-.414.708,2.537,2.537,0,0,0-.147.87,2.41,2.41,0,0,0,.139.82,2.033,2.033,0,0,0,.4.68,1.882,1.882,0,0,0,.642.464,2.076,2.076,0,0,0,.858.171,1.69,1.69,0,0,0,.828-.193,1.767,1.767,0,0,0,.6-.542l.626.472a2.485,2.485,0,0,1-.217.243,2.164,2.164,0,0,1-.41.317,2.88,2.88,0,0,1-.615.279,2.613,2.613,0,0,1-.831.12,2.707,2.707,0,0,1-1.171-.247,2.869,2.869,0,0,1-1.644-2.582,3.223,3.223,0,0,1,.208-1.172,2.766,2.766,0,0,1,.584-.928,2.614,2.614,0,0,1,.9-.607,3.012,3.012,0,0,1,1.16-.217,2.841,2.841,0,0,1,1.063.209,1.987,1.987,0,0,1,.855.642l-.619.472Z" transform="translate(-1088.4 -1856.49)" fill="#fff"/>
        <path id="Path_334" data-name="Path 334" d="M1161.51,1874.013h1.763v-1.763h.6v1.763h1.763v.6h-1.763v1.763h-.6v-1.763h-1.763Z" transform="translate(-1155.918 -1871.044)" fill="#fff"/>
        <path id="Path_335" data-name="Path 335" d="M1228.84,1874.013h1.763v-1.763h.6v1.763h1.763v.6h-1.763v1.763h-.6v-1.763h-1.763Z" transform="translate(-1218.097 -1871.044)" fill="#fff"/>
      </g>
    </g>
    <g id="Group_63" data-name="Group 63" transform="translate(125.761 51.988)">
      <rect id="Rectangle_153" data-name="Rectangle 153" width="15.383" height="11.453" rx="5.727" fill="#f9e181"/>
      <g id="Group_62" data-name="Group 62" transform="translate(2.174 1.69)">
        <path id="Path_336" data-name="Path 336" d="M1873.979,1283.206a2.677,2.677,0,0,1-.147.879,2.154,2.154,0,0,1-.435.744,2.058,2.058,0,0,1-.721.51,2.507,2.507,0,0,1-1.009.19,2.473,2.473,0,0,1-1.492-.423,2.09,2.09,0,0,1-.766-1.345l1.28-.3a1.05,1.05,0,0,0,.31.607.847.847,0,0,0,.6.228.82.82,0,0,0,.8-.4,2.329,2.329,0,0,0,.211-1.091v-5.154h1.368v5.556Z" transform="translate(-1869.41 -1277.454)" fill="#fff"/>
        <path id="Path_337" data-name="Path 337" d="M1948.307,1276.935a1.252,1.252,0,0,0-.582-.461,2.02,2.02,0,0,0-.765-.147,1.954,1.954,0,0,0-.461.054,1.264,1.264,0,0,0-.4.174.907.907,0,0,0-.288.309.886.886,0,0,0-.108.451.7.7,0,0,0,.271.6,2.619,2.619,0,0,0,.673.358c.268.1.56.2.879.293a3.605,3.605,0,0,1,.879.39,2.182,2.182,0,0,1,.673.662,1.964,1.964,0,0,1,.271,1.1,2.409,2.409,0,0,1-.228,1.08,2.2,2.2,0,0,1-.613.765,2.658,2.658,0,0,1-.9.456,3.727,3.727,0,0,1-1.074.152,4.028,4.028,0,0,1-1.378-.239,2.65,2.65,0,0,1-1.139-.8l1.03-1a1.721,1.721,0,0,0,.657.591,1.849,1.849,0,0,0,.863.211,1.814,1.814,0,0,0,.477-.064,1.509,1.509,0,0,0,.435-.2,1.013,1.013,0,0,0,.314-.33.888.888,0,0,0,.119-.462.8.8,0,0,0-.271-.651,2.394,2.394,0,0,0-.673-.385q-.4-.157-.879-.3a3.674,3.674,0,0,1-.879-.385,2.132,2.132,0,0,1-.673-.652,1.932,1.932,0,0,1-.271-1.09,2.068,2.068,0,0,1,.244-1.031,2.237,2.237,0,0,1,.64-.721,2.791,2.791,0,0,1,.906-.428,3.855,3.855,0,0,1,1.042-.141,3.812,3.812,0,0,1,1.177.184,2.713,2.713,0,0,1,1.025.607l-1,1.053Z" transform="translate(-1938.313 -1275.09)" fill="#fff"/>
      </g>
    </g>
    <g id="Group_65" data-name="Group 65" transform="translate(10.417 51.453)">
      <rect id="Rectangle_154" data-name="Rectangle 154" width="15.057" height="10.37" rx="5.185" fill="#088cfc"/>
      <g id="Group_64" data-name="Group 64" transform="translate(0.805 0.959)">
        <path id="Path_338" data-name="Path 338" d="M343.6,1288.264v-.755l4.359-2.359v1.153l-2.912,1.583,2.912,1.583v1.153l-4.359-2.359Z" transform="translate(-343.6 -1283.115)" fill="#fff"/>
        <path id="Path_339" data-name="Path 339" d="M409.3,1267l-.715-.314,2.688-8.136.715.336Z" transform="translate(-403.609 -1258.55)" fill="#fff"/>
        <path id="Path_340" data-name="Path 340" d="M466.769,1287.5v.755l-4.359,2.359v-1.153l2.912-1.583-2.912-1.583v-1.154l4.359,2.359Z" transform="translate(-453.322 -1283.106)" fill="#fff"/>
      </g>
    </g>
  </g>
</svg>
