<svg xmlns="http://www.w3.org/2000/svg" width="40" height="40" viewBox="0 0 40 40">
  <g id="TWITTER-01" transform="translate(-33.56 -24.16)">
    <circle id="Ellipse_170" data-name="Ellipse 170" cx="20" cy="20" r="20" transform="translate(33.56 24.16)" fill="#5a99ec"/>
    <path id="Path_948" data-name="Path 948" d="M263.737,343.6c10.485,0,16.218-8.686,16.218-16.218,0-.247,0-.493-.016-.737a11.589,11.589,0,0,0,2.843-2.951,11.38,11.38,0,0,1-3.274.9,5.721,5.721,0,0,0,2.507-3.153,11.425,11.425,0,0,1-3.619,1.384,5.705,5.705,0,0,0-9.714,5.2,16.182,16.182,0,0,1-11.749-5.956,5.7,5.7,0,0,0,1.764,7.61,5.657,5.657,0,0,1-2.582-.713c0,.024,0,.048,0,.073a5.7,5.7,0,0,0,4.573,5.588,5.694,5.694,0,0,1-2.574.1,5.707,5.707,0,0,0,5.325,3.959,11.439,11.439,0,0,1-7.08,2.44,11.591,11.591,0,0,1-1.36-.079,16.137,16.137,0,0,0,8.738,2.56" transform="translate(-214.673 -287.231)" fill="#fff"/>
  </g>
</svg>
