<svg xmlns="http://www.w3.org/2000/svg" width="83.4" height="78.986" viewBox="0 0 83.4 78.986">
  <g id="video_solution-01-01" data-name="video solution-01-01" transform="translate(-46.1 -46.92)">
    <path id="Path_828" data-name="Path 828" d="M311.574,294.508a3.845,3.845,0,0,1-3.077.941c-5.377-.024-10.754-.006-16.133-.018a1.1,1.1,0,0,0-1.177.669,4.577,4.577,0,0,1-4.214,2.522,4.626,4.626,0,0,1-4.389-2.614.9.9,0,0,0-.943-.582c-1.547.033-3.1.025-4.644.008-1.259-.012-1.761-.359-2.073-1.363a1.5,1.5,0,0,1,1.373-1.953c1.765-.014,3.53-.018,5.3.006a.8.8,0,0,0,.867-.52,4.942,4.942,0,0,1,8.27-.994c.067.084.188.153.208.245.29,1.353,1.294,1.277,2.355,1.273,5.132-.029,10.266-.014,15.4-.012,1.024,0,2.11-.2,2.881.765v1.63Zm-24.707.7a1.517,1.517,0,1,0,.061-3.03,1.519,1.519,0,1,0-.061,3.032Z" transform="translate(-182.076 -192.532)" fill="#fff"/>
    <path id="Path_829" data-name="Path 829" d="M311.37,391.836c-.771.967-1.857.763-2.881.765q-8.188.006-16.376-.008a.977.977,0,0,0-1.059.612,4.47,4.47,0,0,1-3.932,2.659,4.624,4.624,0,0,1-4.783-2.61,1.053,1.053,0,0,0-1.11-.665c-1.655.039-3.314-.022-4.969.027a1.586,1.586,0,0,1-1.647-1.514,1.534,1.534,0,0,1,1.318-1.643c1.7-.122,3.4-.163,5.1-.165a1.468,1.468,0,0,0,1.512-.865,4.861,4.861,0,0,1,7.352-1.1c.486.482.8,1.135,1.271,1.632a1.38,1.38,0,0,0,.914.308q8.105.028,16.212,0a3.838,3.838,0,0,1,3.077.941v1.63Zm-24.707.7a1.517,1.517,0,1,0,.061-3.03,1.519,1.519,0,1,0-.061,3.032Z" transform="translate(-181.872 -269.976)" fill="#fff"/>
    <path id="Path_830" data-name="Path 830" d="M311.464,343.322a2.921,2.921,0,0,1-2.532.78c-1.41-.053-2.822-.043-4.232.01a1.142,1.142,0,0,0-.853.52c-1.206,2.84-5.1,3.651-7.607,1.667a4.033,4.033,0,0,1-1.116-1.455,1.2,1.2,0,0,0-1.32-.769c-5.781.02-11.56.012-17.341.012a1.548,1.548,0,0,1-1.526-2.381,1.361,1.361,0,0,1,1.445-.786c5.781.012,11.56-.006,17.341.022a1.361,1.361,0,0,0,1.437-.845,4.489,4.489,0,0,1,4.7-2.43,4.3,4.3,0,0,1,3.8,2.443,1.261,1.261,0,0,0,1.361.833c1.3-.057,2.606.024,3.906-.031a2.91,2.91,0,0,1,2.532.779v1.63Zm-10.544-.835a1.4,1.4,0,0,0-1.494-1.5,1.427,1.427,0,0,0-1.537,1.535,1.4,1.4,0,0,0,1.494,1.5A1.427,1.427,0,0,0,300.921,342.487Z" transform="translate(-181.966 -231.404)" fill="#fff"/>
    <path id="Path_831" data-name="Path 831" d="M83.416,46.94c9.885,0,19.769-.029,29.652.018a7.43,7.43,0,0,1,6.338,3.673,8.171,8.171,0,0,1,1.261,4.74c-.035,10.319-.018,20.64-.012,30.96a1.466,1.466,0,0,1-.739,1.479,1.64,1.64,0,0,1-1.818-.069,1.416,1.416,0,0,1-.614-1.394q.012-14.013,0-28.027c0-1.347-.071-2.7-.165-4.042a4.977,4.977,0,0,0-3.973-4.006c-1.181-.1-2.369-.165-3.553-.165q-27.33-.015-54.661,0a6.059,6.059,0,0,0-3.789,1.084,4.421,4.421,0,0,0-1.883,3.3c-.129,1.777-.171,3.563-.173,5.344q-.018,21.916,0,43.832a6.066,6.066,0,0,0,1.088,3.787,4.307,4.307,0,0,0,3.3,1.875c2.838.127,5.681.169,8.521.178q12.788.031,25.579-.008a1.492,1.492,0,0,1,1.559,1,1.634,1.634,0,0,1-.657,1.979,1.493,1.493,0,0,1-.747.194c-11.539.008-23.081.061-34.62-.035a7.16,7.16,0,0,1-5.944-3.63,8.248,8.248,0,0,1-1.267-4.738c.027-16.594,0-33.186.035-49.78a7.391,7.391,0,0,1,3.63-6.281,8.206,8.206,0,0,1,4.814-1.288c9.613.037,19.224.016,28.837.016Z" transform="translate(0 0)" fill="#fff"/>
    <path id="Path_832" data-name="Path 832" d="M175.84,141.991A18.26,18.26,0,1,1,158.673,123.7,18.21,18.21,0,0,1,175.84,141.991ZM157.587,127a14.951,14.951,0,1,0,14.945,14.949A14.927,14.927,0,0,0,157.587,127Z" transform="translate(-74.198 -61.088)" fill="#fff"/>
    <path id="Path_833" data-name="Path 833" d="M84.5,192.3q0-3.912,0-7.822a1.582,1.582,0,1,1,3.159-.025q0,7.9,0,15.806a1.582,1.582,0,1,1-3.159.025Q84.5,196.29,84.5,192.3Z" transform="translate(-30.565 -108.153)" fill="#fff"/>
    <path id="Path_834" data-name="Path 834" d="M395.95,264.318a1.582,1.582,0,1,1,3.161.051,1.583,1.583,0,1,1-3.161-.051Z" transform="translate(-278.461 -171.739)" fill="#fff"/>
    <path id="Path_835" data-name="Path 835" d="M84.415,151.67a1.583,1.583,0,1,1,3.161.09,1.656,1.656,0,0,1-1.622,1.606C85.207,153.28,84.223,152.633,84.415,151.67Z" transform="translate(-30.477 -82.094)" fill="#fff"/>
    <path id="Path_836" data-name="Path 836" d="M196.258,176.2c0-1.683-.037-3.367.012-5.046a4.031,4.031,0,0,1,1.43-3.424,3.678,3.678,0,0,1,4.424-.124c2.828,1.786,5.616,3.636,8.438,5.43a3.671,3.671,0,0,1,.014,6.377c-2.822,1.8-5.61,3.644-8.436,5.432a3.634,3.634,0,0,1-5.61-1.859,7.105,7.105,0,0,1-.261-1.82c-.035-1.655-.012-3.31-.012-4.967Zm13.08.029c-3.277-2.1-6.348-4.071-9.546-6.12a7.555,7.555,0,0,0-.2,1.151q-.018,4.968,0,9.936a6.42,6.42,0,0,0,.227,1.149l9.519-6.114Z" transform="translate(-119.507 -95.517)" fill="#fff"/>
  </g>
</svg>
