<svg xmlns="http://www.w3.org/2000/svg" width="80.7" height="80.684" viewBox="0 0 80.7 80.684">
  <g id="web_development-01" data-name="web development-01" transform="translate(-70.43 -70.463)">
    <path id="Path_801" data-name="Path 801" d="M151.1,132.635q0-11.318,0-22.632a3.745,3.745,0,0,0-3.573-3.6c-1.065-.007-2.13,0-3.2,0a1.3,1.3,0,1,0,.04,2.589,21.184,21.184,0,0,1,2.267.018c1.276.144,1.726.333,1.721,1.766q-.047,18.761-.018,37.523v1.128H73.048V111.286a2.616,2.616,0,0,1,0-.42c.229-1.44.308-1.688,1.91-1.856.748-.079,1.512-.011,2.267-.016a1.3,1.3,0,1,0,.038-2.589c-1.036,0-2.074,0-3.112,0a3.721,3.721,0,0,0-3.7,3.723c0,16.323.02,32.645-.027,48.968a4.144,4.144,0,0,0,3.786,3.777q36.54-.064,73.083,0a4.162,4.162,0,0,0,3.831-3.824C151.058,150.247,151.1,141.441,151.1,132.635Zm-3.085,27.151c-2.162.663-4.377.274-6.561.276q-33.247.057-66.5.022c-1.461,0-1.9-.413-1.905-1.87-.011-2.011,0-4.022,0-6.094H148.34c0,.373.025.7,0,1.027-.187,2.209.407,4.456-.321,6.638Z" transform="translate(0 -27.862)" fill="#5f6060"/>
    <path id="Path_802" data-name="Path 802" d="M173.935,70.465q-25.947,0-51.893,0a3.733,3.733,0,0,0-3.6,3.573q-.007,21.706-.007,43.415c0,.728.182,1.267,1,1.368,1,.124,1.393-.139,1.6-1.1a5.831,5.831,0,0,0,.16-1.229q.013-15.778.007-31.553v-1.07H174.8V84.99q0,15.862.007,31.722a5.343,5.343,0,0,0,.153,1.144,1.3,1.3,0,0,0,1.391,1.133,1.252,1.252,0,0,0,1.207-1.386q0-21.75,0-43.5a3.729,3.729,0,0,0-3.618-3.636Zm.856,10.73H121.2V77.824c0-1.011.045-2.022-.011-3.029-.079-1.391.436-1.506,1.586-1.73a3.5,3.5,0,0,1,.67-.009q24.551,0,49.1.007a2.9,2.9,0,0,1,1.294.187c.382.2.9.631.908.977C174.83,76.518,174.791,78.813,174.791,81.195Z" transform="translate(-37.222)" fill="#5f6060"/>
    <path id="Path_803" data-name="Path 803" d="M203.924,378.2a3.712,3.712,0,0,0-3.665-3.5,12.822,12.822,0,0,1-1.764-.02,2.3,2.3,0,0,1-1.15-.485A14.067,14.067,0,0,1,194,369.974a1.335,1.335,0,0,0-1.948-.649,1.441,1.441,0,0,0-.4,2.09c.661,1.072,1.335,2.137,2.027,3.245H176.606c.71-1.133,1.373-2.182,2.025-3.238a1.446,1.446,0,0,0-.389-2.094c-.777-.447-1.463-.193-1.989.715a17.083,17.083,0,0,1-1,1.625c-1.337,1.818-2.672,3.487-5.4,3.087-1.723-.252-3.481,1.681-3.5,3.44-.013,1.038,0,2.076,0,3.112,0,1.063.319,1.371,1.407,1.373q5.72,0,11.437,0,11.649,0,23.3.009c.856,0,1.434-.245,1.449-1.182.02-1.1.031-2.2-.02-3.305Zm-2.672,1.834H169.115c0-.526-.038-1,.009-1.465.058-.589.283-1.072.993-1.121.382-.027.762-.146,1.141-.146q13.877-.013,27.751-.007a4.02,4.02,0,0,1,.755.016c1.18.236,1.721.586,1.488,2.723Z" transform="translate(-74.365 -231.54)" fill="#5f6060"/>
    <path id="Path_804" data-name="Path 804" d="M236.665,155.517c-.079.315-.142.67-.254,1.007q-3.856,11.568-7.723,23.131c-.375,1.119-.915,1.479-1.872,1.267a1.129,1.129,0,0,1-.915-1.535q1.5-4.685,3.047-9.352,2.43-7.338,4.883-14.666c.389-1.168.917-1.483,1.9-1.279C236.544,154.256,236.522,154.9,236.665,155.517Z" transform="translate(-120.481 -64.79)" fill="#5f6060"/>
    <path id="Path_805" data-name="Path 805" d="M301.731,187.25c-1.784,1.494-3.6,2.948-5.393,4.431-.834.688-1.649,1.4-2.474,2.1s-1.5.724-2.135.074a1.29,1.29,0,0,1,.022-1.991c1.425-1.236,2.885-2.429,4.335-3.636.809-.67,1.625-1.328,2.539-2.074-1.171-1-2.252-1.946-3.35-2.865-1.146-.959-2.321-1.885-3.467-2.847a1.593,1.593,0,0,1-.121-1.955,1.556,1.556,0,0,1,2.079-.088c1.375,1.121,2.735,2.263,4.092,3.407,1.252,1.054,2.485,2.135,3.744,3.18a1.548,1.548,0,0,1,.13,2.26Z" transform="translate(-171.217 -83.412)" fill="#5f6060"/>
    <path id="Path_806" data-name="Path 806" d="M170.869,193.7a1.319,1.319,0,0,1-2.09.276c-1.492-1.2-2.937-2.456-4.411-3.681-1.148-.957-2.294-1.921-3.469-2.845a1.541,1.541,0,0,1-.018-2.472c1.919-1.6,3.813-3.229,5.719-4.842.679-.573,1.355-1.148,2.049-1.7a1.583,1.583,0,0,1,2.083.072,1.47,1.47,0,0,1-.393,2.126c-2.159,1.816-4.3,3.651-6.541,5.557,2.274,1.876,4.447,3.681,6.638,5.465A1.451,1.451,0,0,1,170.869,193.7Z" transform="translate(-69.652 -83.434)" fill="#5f6060"/>
    <path id="Path_807" data-name="Path 807" d="M236.241,322.088c.951,0,1.9,0,2.849,0a1.186,1.186,0,0,1,1.3,1.254c.009.919-.375,1.33-1.285,1.333q-2.808.01-5.613,0c-.9,0-1.24-.371-1.243-1.276,0-.883.375-1.3,1.225-1.308.921-.011,1.843,0,2.764,0Z" transform="translate(-125.458 -195.081)" fill="#5f6060"/>
    <path id="Path_808" data-name="Path 808" d="M282.882,97.029H274.81a1.295,1.295,0,1,1-.011-2.586q8.157-.01,16.311,0c.9,0,1.238.373,1.24,1.288s-.333,1.294-1.229,1.3c-2.746.009-5.492,0-8.24,0Z" transform="translate(-157.399 -18.587)" fill="#5f6060"/>
    <path id="Path_809" data-name="Path 809" d="M143.74,97.031c-.957.009-1.326-.346-1.33-1.281,0-.955.351-1.31,1.3-1.31.912,0,1.274.351,1.288,1.24C145.016,96.647,144.664,97.022,143.74,97.031Z" transform="translate(-55.806 -18.589)" fill="#5f6060"/>
    <path id="Path_810" data-name="Path 810" d="M166.37,95.715c0-.933.375-1.288,1.335-1.276.921.011,1.272.389,1.256,1.357-.016.888-.378,1.234-1.292,1.236-.948,0-1.3-.36-1.3-1.315Z" transform="translate(-74.382 -18.588)" fill="#5f6060"/>
    <path id="Path_811" data-name="Path 811" d="M192.911,95.778c-.013.917-.4,1.263-1.368,1.243-.888-.018-1.225-.378-1.222-1.306s.369-1.294,1.326-1.285c.926.009,1.279.384,1.263,1.348Z" transform="translate(-92.95 -18.581)" fill="#5f6060"/>
  </g>
</svg>
